<?xml version="1.0" encoding="utf-8"?>
<!-- Generator: Adobe Illustrator 22.1.0, SVG Export Plug-In . SVG Version: 6.00 Build 0)  -->
<svg version="1.1" id="Capa_1" xmlns="http://www.w3.org/2000/svg" xmlns:xlink="http://www.w3.org/1999/xlink" x="0px" y="0px"
	 viewBox="0 0 15 12.8" style="enable-background:new 0 0 15 12.8;" xml:space="preserve">
<style type="text/css">
	.st0{opacity:0.3;}
	.st1{fill:#FFFFFF;}
</style>
<path class="st0" d="M14,6.9l-6.5,5.4c0,0-0.8,0.8-0.8-0.1v-3H0.8c0,0-0.5,0.1-0.5-0.6V4.4c0-0.5,0.4-0.5,0.4-0.5h5.7V1.1
	c0-1.1,0.8-0.3,0.8-0.3S13.3,5.4,14,6c0.3,0.2,0.3,0.6,0.1,0.8C14.1,6.9,14.1,6.9,14,6.9"/>
<path class="st1" d="M14.4,6.5l-6.5,5.4c0,0-0.8,0.8-0.8-0.1v-3H1.2c0,0-0.5,0.1-0.5-0.6V4c0-0.5,0.4-0.5,0.4-0.5h5.7V0.7
	c0-1.1,0.8-0.3,0.8-0.3s6.1,4.6,6.8,5.2c0.3,0.2,0.3,0.6,0.1,0.8C14.5,6.5,14.5,6.5,14.4,6.5"/>
</svg>
