<?xml version="1.0" encoding="utf-8"?>
<!-- Generator: Adobe Illustrator 22.1.0, SVG Export Plug-In . SVG Version: 6.00 Build 0)  -->
<svg version="1.1" id="objects" xmlns="http://www.w3.org/2000/svg" xmlns:xlink="http://www.w3.org/1999/xlink" x="0px" y="0px"
	 viewBox="0 0 176 465.7" style="enable-background:new 0 0 176 465.7;" xml:space="preserve">
<style type="text/css">
	.st0{fill:#249FD4;}
	.st1{fill:#29ABE2;}
	.st2{opacity:0.3;fill:#249FD4;enable-background:new    ;}
	.st3{fill:#603813;}
	.st4{fill:#FFC3A4;}
	.st5{fill:#F2F2F2;}
	.st6{opacity:0.3;fill:#F2F2F2;enable-background:new    ;}
	.st7{opacity:0.5;fill:#E6E6E6;enable-background:new    ;}
	.st8{opacity:0.3;fill:#E6E6E6;enable-background:new    ;}
	.st9{fill:#CCCCCC;}
	.st10{opacity:0.3;fill:#603813;enable-background:new    ;}
	.st11{opacity:0.3;fill:#FFC3A4;enable-background:new    ;}
	.st12{fill:none;stroke:#42210B;stroke-width:2.8466;stroke-linecap:round;stroke-miterlimit:10;}
	.st13{fill:#42210B;}
	.st14{fill:#F6A385;}
	.st15{opacity:0.3;fill:#F6A385;enable-background:new    ;}
	.st16{fill:none;stroke:#603813;stroke-width:4.2699;stroke-linecap:round;stroke-miterlimit:10;}
	.st17{opacity:0.1;fill:#249FD4;enable-background:new    ;}
</style>
<g>
	<rect x="62.4" y="349.8" class="st0" width="80.6" height="115.9"/>
	<path class="st1" d="M102,349.8v12.4h6.6v26.9c0,2-1.7,3.7-3.7,3.7H102v72.9H62.4V349.8H102z"/>
	<path class="st2" d="M143,376.1v-31.9H62.4v31.9c0,0,14.6,4.2,39.9,4.2S143,376.1,143,376.1z"/>
	<path class="st3" d="M155.7,121.5c0.1-22.1-1.7-37.3-15.2-48c0,0,35-66.7-16.2-69.1C73.2,2,83.6,36.2,47,47.8s-43.2,31-25.7,58.4
		c0,0-39,8.7,2.7,65.4L155.7,121.5z"/>
	<path class="st4" d="M38.5,185.9c0,0,3.3,7.1-6.9,6.8s-27.5-42.3,0.5-38.1C60,158.9,38.5,185.9,38.5,185.9z"/>
	<path class="st4" d="M150.9,152.7c0,0-2.5,7.1,5.2,6.8s20.8-42.3-0.4-38.1C134.6,125.7,150.9,152.7,150.9,152.7z"/>
	<path class="st5" d="M113.2,229.6c0,0,18.8,11.3,25.3,18.8s7.1,122.8,5.8,124.2c-1.3,1.5-43.9,2.4-43.9,2.4l-1.8-145.4L113.2,229.6
		L113.2,229.6z"/>
	<path class="st6" d="M138.5,248.4c-3.9-4.5-12.1-10.3-18.2-14.3c-0.3-0.2-0.7-0.4-1-0.7c-0.1-0.1-0.3-0.2-0.4-0.3
		c-0.3-0.2-0.6-0.4-0.9-0.6c-0.1-0.1-0.3-0.2-0.4-0.3c-0.3-0.2-0.6-0.4-0.9-0.6c-0.1-0.1-0.2-0.1-0.3-0.2c-0.3-0.2-0.6-0.4-0.8-0.5
		l-0.1-0.1l0,0c-1.4-0.9-2.3-1.4-2.3-1.4H98.6l0.2,15c5.6,2.5,9.5,7.6,10.2,14.3c4.6-0.4,6.4-5.9,7.8-10.3c8,7.5,11.2,23,13.2,32.7
		c3,14.8,4.6,30.5,5.3,45.6c0.7,12.7-1.2,26.5-12.1,34.7c-5.4,4.1-13.1,6.7-19.5,3.4c-1.3-0.7-2.4-1.5-3.4-2.4l0.2,12.4
		c0,0,42.6-0.9,43.9-2.4C145.6,371.1,145,255.9,138.5,248.4z"/>
	<path class="st7" d="M105.9,230.6l-2.1,144.3c-2.1,0.1-3.3,0.1-3.3,0.1l-1.8-145.4L105.9,230.6z"/>
	<path class="st5" d="M88.8,229.6l-16.3,0.8c-2.3,0.1-4.5-0.5-6.3-1.8c-9.2-6.3-36.5-23-38-24c-1.6-1.1,0-31.6,0-31.6l-15.1-6.9
		c0,0-9.3,40.9-8.3,44.2c1,3.2,50.1,49.9,57,76.4c0,0,0.2,78.8-0.4,83.8c-0.5,4.9,41,5.8,41,5.8V233.6L88.8,229.6z"/>
	<path class="st8" d="M79.5,237.8c1.3,0.9,2.2,2.1,2.8,3.6c0.9,2.2,0.8,4.6,1.5,6.9c1,3.2,3,6.4,5.4,8.8c0.2,0.2,1.9,2,2,2
		c0.6-0.1,1.1-3,1.2-3.6c0.7-2.2,1.5-4.4,2.5-6.5c1.6-3.4,4.1-6.4,7.4-7.9v-7.4l-13.6-4l-15.1,0.8C70.9,234.1,76.8,235.9,79.5,237.8
		z"/>
	<path class="st6" d="M101.3,363.9c-11.4,6.4-22.9-1.9-27.3-12.7c-2.6-6.6-2.8-13.8-3.2-20.8c-0.5-8.8-0.7-17.5-0.4-26.3
		c0.3-8.1,1.6-18.2-1.6-25.8c-2.3-5.4-5.4-10.9-8.2-16.1c-2.8-5.2-6.5-11.5-12.6-13.1c-4-1-6.2,0.1-7.3,2.2
		c9.8,12.4,18.5,25.3,21.1,35.4c0,0,0.2,78.8-0.4,83.8c-0.5,4.9,41,5.8,41,5.8v-13.1C102.1,363.4,101.7,363.7,101.3,363.9z"/>
	<path class="st4" d="M100.5,242.3L100.5,242.3c7.1,0,12.8-5.7,12.8-12.8v-26.7H87.8v26.7C87.7,236.6,93.4,242.3,100.5,242.3z"/>
	<polygon class="st5" points="15.8,155.1 31.6,162.9 29.1,175.4 11.1,166.1 	"/>
	<polygon class="st8" points="12.2,163.4 11.1,166.1 29.1,175.4 29.9,171.2 	"/>
	<path class="st5" d="M113.2,229.6c0,0-1.2,9.5-12.8,12.8c0,0,7.8,3.6,10.6,13.3c0,0,7.2-8.6,5.4-24
		C116.4,231.6,115.2,229.8,113.2,229.6z"/>
	<path class="st5" d="M87.7,229.6c0,0,1.2,9.5,12.8,12.8c0,0-7.8,3.6-10.6,13.3c0,0-7.2-8.6-5.4-24
		C84.5,231.6,85.7,229.8,87.7,229.6z"/>
	<path class="st9" d="M97,248.8c0,1,0.8,1.7,1.7,1.7s1.7-0.8,1.7-1.7s-0.8-1.7-1.7-1.7S97,247.9,97,248.8z"/>
	<path class="st9" d="M97,263c0,1,0.8,1.7,1.7,1.7s1.7-0.8,1.7-1.7c0-1-0.8-1.7-1.7-1.7S97,262.1,97,263z"/>
	<path class="st9" d="M97,277.2c0,1,0.8,1.7,1.7,1.7s1.7-0.8,1.7-1.7s-0.8-1.7-1.7-1.7S97,276.2,97,277.2z"/>
	<path class="st9" d="M97,291.4c0,1,0.8,1.7,1.7,1.7s1.7-0.8,1.7-1.7c0-1-0.8-1.7-1.7-1.7S97,290.4,97,291.4z"/>
	<path class="st9" d="M97,305.5c0,1,0.8,1.7,1.7,1.7s1.7-0.8,1.7-1.7s-0.8-1.7-1.7-1.7S97,304.6,97,305.5z"/>
	<path class="st9" d="M97,319.7c0,1,0.8,1.7,1.7,1.7s1.7-0.8,1.7-1.7c0-1-0.8-1.7-1.7-1.7S97,318.7,97,319.7z"/>
	<path class="st9" d="M97,333.9c0,1,0.8,1.7,1.7,1.7s1.7-0.8,1.7-1.7c0-1-0.8-1.7-1.7-1.7S97,332.9,97,333.9z"/>
	<path class="st9" d="M97,348.1c0,1,0.8,1.7,1.7,1.7s1.7-0.8,1.7-1.7c0-1-0.8-1.7-1.7-1.7S97,347.1,97,348.1z"/>
	<path class="st9" d="M97,362.2c0,1,0.8,1.7,1.7,1.7s1.7-0.8,1.7-1.7c0-1-0.8-1.7-1.7-1.7S97,361.3,97,362.2z"/>
	<path class="st4" d="M33.1,126.5c0.8-6,1.9-12.1,4.1-17.7c1.9-5,5-9.4,7-14.4h99.1c4.1,8.9,5.9,18.6,8.9,28c0.5,1.5,1.8,2.2,3,2.3
		c0.9,3.1,1.8,6.3,2.5,9.5c1.5,6.5,2.5,13.3,2.9,20c0.9,13.8-0.7,28-9.1,39.4c-5.9,8-12.9,13.8-20.7,18.8
		c-8.8,2.7-18.2,3.6-27.4,3.8c-0.8-0.5-1.7-0.9-2.8-0.8c-7.8,0.1-17.6-2.3-24.9-5.2c-7.7-3-13.6-9.3-19.2-15.1
		c-10.4-10.8-17.8-23.1-23.7-36.8C32.3,147.7,31.8,137.1,33.1,126.5z"/>
	<path class="st3" d="M29.6,153.3c3.7,56.3,50.9,74.2,70.9,74.2s60.5-19.6,65-53.7s-28.6-94.7-28.6-94.7
		C53.2,41.3,25.9,97,29.6,153.3z M41.8,111.2c0,0,30,16.8,60.6,4.5C133,103.5,140,96.1,140,96.1s26.6,55.8,9.3,74.8
		s-12.1-0.3-38.3,3.8c-21.2,3.3-27.1,22.7-54.6,5.5C28.7,163,41.8,111.2,41.8,111.2z"/>
	<path class="st10" d="M139.1,89.9c-0.5-2-1.3-3.8-2.4-5.5c-1.8-2.7-4.3-3.6-7.5-2c-0.8,0.4-2.4,3.2-2.5,3.3
		c-1.7,2.9-2.4,6.6-4.6,9.2c-2.3,2.8-6.3,3.3-7.6-0.7c-0.5-1.5,0.4-8.4-2.7-6.6c-1.4,0.8-2.1,4.9-2.8,6.4c-1.2,2.5-3.6,7.6-6.8,7.8
		c-4.4,0.4-1.9-4.7-2.1-6.8c-0.3-4.1-2.9-1.6-4.5,0.5c-1.2,1.5-2.1,3.1-3.1,4.7c-1.7,2.4-3.5,4.5-5.9,6.2
		c-5.8,4.2-12.6,6.1-19.7,6.3c-3.9,0.1-7.5-0.6-11.3-1.2c-1.4-0.2-11.5-1.9-12.8,0.2c4.7,2.4,32.1,15.3,59.9,4.2
		c26.8-10.7,35.5-17.7,37.2-19.3C139.8,94.3,139.6,92.1,139.1,89.9z"/>
	<path class="st10" d="M139.9,203.6c-9.4,5.5-19.7,8.3-30.9,8.4c-14.7,0.7-28.6-2.2-41.8-8.7c-6.2-4.2-12.4-8.4-18.5-12.7
		c-6.8-5.6-12.1-12.3-16.3-19.8c11.2,42.5,50.3,56.7,68.1,56.6c15.9,0,44.9-12.5,58.3-34.8C153.2,197.4,146.9,201,139.9,203.6z"/>
	<g>
		<path class="st4" d="M120.2,191.9c-3.8,1.1,4.5,24.7,4.5,24.7s-11,5.4-11.4,11c-0.4,5.5,10.4,18.1,10.4,18.1l13-3.8
			c0,0,5.4-21.3-4.6-23.8C132,218.1,126.2,190.2,120.2,191.9z"/>
		<path class="st11" d="M124.6,239.2c-2.3,0-4.5-0.3-6.6-0.8c2.7,4,5.6,7.3,5.6,7.3l13-3.8c0,0,0.9-3.6,1.3-7.9
			C134.1,237.2,129.5,239.2,124.6,239.2z"/>
		<path class="st5" d="M141.5,312c-0.7,0.7,5.7,23.2,20.7,17.9s-0.3-33.6-0.3-33.6l-21.4-49.2l-15.5,7.6L141.5,312z"/>
		<path class="st6" d="M166.2,322.2c-3.5,2.2-9.4,2.3-12.3-1c-6.8-7.7-11.1-16.5-14.9-26c-4.1-10.2-7.9-20.9-7.9-32
			c0-7.2,6.2-10.8,11.8-10.3l-2.5-5.7l-15.5,7.6l16.5,57.2c-0.7,0.7,5.7,23.2,20.7,17.9c4.7-1.6,6.4-5.5,6.6-10.1
			C168.1,320.8,167.2,321.6,166.2,322.2z"/>
		<polygon class="st5" points="138.8,238.5 122.6,245.3 124.3,257.9 142.9,249.8 		"/>
		<polygon class="st8" points="141.8,246.7 123.8,253.9 124.3,257.9 142.9,249.8 		"/>
	</g>
	<path class="st12" d="M127,187.5c0,0-24.2-6.1-22.3,3.3"/>
	
		<ellipse transform="matrix(0.9731 -0.2305 0.2305 0.9731 -32.5868 20.4868)" class="st13" cx="71.4" cy="149.7" rx="7.4" ry="7.4"/>
	<ellipse class="st13" cx="133.1" cy="138.2" rx="7.4" ry="7.4"/>
	<path class="st14" d="M101.6,162.4c1.1,4.7,5.9,7.7,10.6,6.6c4.7-1.1,7.7-5.9,6.6-10.6c-1.1-4.7-7.7-15.5-12.4-14.4
		C101.6,145.1,100.5,157.7,101.6,162.4z"/>
	<path class="st15" d="M114.7,165.2c-5.5,0-10.3-2.2-13.5-6c0,1.3,0.2,2.4,0.4,3.2c1.1,4.7,5.9,7.7,10.6,6.6
		c2.5-0.6,4.4-2.1,5.6-4.2C116.8,165.1,115.8,165.2,114.7,165.2z"/>
	<path class="st16" d="M138,121.2c0,0-6.5,8.5-18.8,6.8"/>
	<path class="st16" d="M52.3,131.3c0,0,6.9-8.1,19.1-5.9"/>
	<path class="st4" d="M17,155.8c0-2.8-9.1-21.3-8.6-26.8s1.7-17.4,4.3-18.7s11.8-2.1,11.6,0c-0.1,2.1-0.9,5-8,5.3l-0.6,7
		c0,0,4.2-4.1,7.2-4s13.4,9.6,12.6,13.9c-0.8,4.3-7.1,8.4-7.1,8.4s7.5,3.9,0.9,21.2L17,155.8z"/>
	<path class="st11" d="M26.5,151.7c-3.8,0.4-8-0.7-11.7-2.6c1.3,3.2,2.2,5.7,2.2,6.6l12.4,6.2c1.8-4.7,2.5-8.4,2.7-11.4
		C30.2,151.2,28.4,151.5,26.5,151.7z"/>
	<path class="st5" d="M69.7,148.7c-1.2,1.5-2.9,2.2-3.9,1.5c-0.9-0.7-0.7-2.6,0.4-4.1c1.2-1.5,2.9-2.2,3.9-1.5
		C71.1,145.4,70.9,147.2,69.7,148.7z"/>
	<path class="st5" d="M131.5,136.8c-1.2,1.5-2.9,2.2-3.9,1.5c-0.9-0.7-0.7-2.6,0.4-4.1c1.2-1.5,2.9-2.2,3.9-1.5
		S132.7,135.3,131.5,136.8z"/>
	<path class="st14" d="M71.6,166.9c0.6,2.2-2.4,4.9-6.6,6.1c-4.3,1.2-8.2,0.3-8.8-1.9c-0.6-2.2,2.4-4.9,6.6-6.1
		C67.1,163.8,71,164.7,71.6,166.9z"/>
	<ellipse transform="matrix(0.9652 -0.2614 0.2614 0.9652 -33.224 44.4835)" class="st14" cx="150.6" cy="147.1" rx="8" ry="4.1"/>
	<path class="st17" d="M131.8,454.3c-8.6,1.5-15.8-3.1-18.8-11.1c-3.1-8.3-2.7-17.6-3-26.3c-0.1-4.3-0.4-8.7-1.3-12.9
		c-0.8-3.8-2.2-9.3-6.4-10.5c0,0.1-0.1,0.1-0.1,0.2c-0.1,0.1-0.2,0.2-0.3,0.2v71.8H143v-18.3C140.1,450.8,136.4,453.5,131.8,454.3z"
		/>
</g>
</svg>
