<?xml version="1.0" encoding="utf-8"?>
<!-- Generator: Adobe Illustrator 22.1.0, SVG Export Plug-In . SVG Version: 6.00 Build 0)  -->
<svg version="1.1" id="Capa_1" xmlns="http://www.w3.org/2000/svg" xmlns:xlink="http://www.w3.org/1999/xlink" x="0px" y="0px"
	 viewBox="0 0 15 12.8" style="enable-background:new 0 0 15 12.8;" xml:space="preserve">
<style type="text/css">
	.st0{opacity:0.3;}
	.st1{fill:#FFFFFF;}
</style>
<path class="st0" d="M1,6.9c-0.1,0-0.1,0-0.1-0.1C0.7,6.6,0.7,6.2,1,6c0.7-0.6,6.8-5.2,6.8-5.2S8.6,0,8.6,1.1v2.8h5.7
	c0,0,0.4,0,0.4,0.5v4.2c0,0.7-0.5,0.6-0.5,0.6H8.3v3c0,0.9-0.8,0.1-0.8,0.1L1,6.9"/>
<path class="st1" d="M0.6,6.5c-0.1,0-0.1,0-0.1-0.1C0.3,6.2,0.3,5.8,0.6,5.6C1.3,5,7.4,0.4,7.4,0.4s0.8-0.8,0.8,0.3v2.8h5.7
	c0,0,0.4,0,0.4,0.5v4.2c0,0.7-0.5,0.6-0.5,0.6H7.9v3c0,0.9-0.8,0.1-0.8,0.1L0.6,6.5"/>
</svg>
