<?xml version="1.0" encoding="utf-8"?>
<!-- Generator: Adobe Illustrator 22.1.0, SVG Export Plug-In . SVG Version: 6.00 Build 0)  -->
<svg version="1.1" id="Capa_4" xmlns="http://www.w3.org/2000/svg" xmlns:xlink="http://www.w3.org/1999/xlink" x="0px" y="0px"
	 viewBox="0 0 767 446" style="enable-background:new 0 0 767 446;" xml:space="preserve">
<style type="text/css">
	.st0{fill:#FFFFFF;}
</style>
<path class="st0" d="M64.1,43.4c-17.5,15.4-25.7,37.3-24.4,58.9c-5.2,2.4-10.2,5.5-14.7,9.5C2.4,131.7-1.5,165,14.9,189.2
	c-12.6,13.7-13.2,34.9-0.6,49.1c5.9,6.7,13.7,10.7,21.9,12c0.5,17.3,6.8,34.6,19.1,48.6c26.1,29.7,70.1,34.3,101.8,12.1
	c17.1,14.2,42.6,14.3,59.9-1c1.3-1.1,2.5-2.3,3.6-3.5c23.5,11.6,52.7,8.6,73.6-9.9c17.3-15.2,24.8-37.3,22.2-58.5
	c5.8-1.1,11.5-3.7,16.3-7.9c14.1-12.4,15.5-33.8,3.1-47.9c-5.4-6.2-12.6-9.9-20.1-11c25.1-26.4,26.4-68,1.9-95.7
	c-22.9-26-60.7-31.1-89.5-14c-0.8-1.1-1.6-2.1-2.5-3.1c-8-9.1-19.1-13.9-30.4-14.2c-0.1-6-2.2-12-6.4-16.8
	c-9.5-10.8-25.9-11.8-36.8-2.3c-2.8,2.5-5,5.5-6.4,8.7C119.9,20.1,87.3,22.9,64.1,43.4z"/>
<path class="st0" d="M242.1,29.5c-17.5,15.4-25.7,37.3-24.3,58.9c-5.2,2.4-10.2,5.5-14.7,9.5c-22.6,19.9-26.5,53.2-10.1,77.4
	c-12.6,13.7-13.2,34.9-0.6,49.1c5.9,6.7,13.7,10.7,21.9,12c0.5,17.3,6.8,34.6,19.1,48.6c26.1,29.7,70.1,34.3,101.8,12.1
	c17.1,14.2,42.6,14.3,59.9-1c1.3-1.1,2.5-2.3,3.6-3.5c23.5,11.6,52.7,8.6,73.6-9.9c17.3-15.2,24.8-37.3,22.2-58.5
	c5.8-1.1,11.5-3.7,16.3-7.9c14.1-12.4,15.5-33.8,3.1-47.9c-5.4-6.2-12.6-9.9-20.1-11c25.1-26.4,26.4-68,1.9-95.7
	c-22.9-26-60.7-31.1-89.5-14c-0.8-1.1-1.6-2.1-2.5-3.1c-8-9.1-19.1-13.9-30.4-14.2c-0.1-6-2.2-12-6.4-16.8
	c-9.5-10.8-25.9-11.8-36.8-2.3c-2.8,2.5-5,5.5-6.4,8.7C297.9,6.2,265.3,9.1,242.1,29.5z"/>
<path class="st0" d="M702.5,320.3c17.5-15.4,25.5-37.6,23.6-59.6c5.2-2.3,10.2-5.5,14.7-9.4c22.6-19.9,25.9-53.7,8.8-78.8
	c12.6-13.7,12.7-35.4-0.3-50.1c-6.1-7-14.2-11.2-22.5-12.6c-0.8-17.7-7.6-35.4-20.3-50C679.4,29,634.7,23.4,602.8,45.4
	C585.1,30.5,559.2,30,542,45.2c-1.3,1.1-2.4,2.3-3.6,3.5c-24.1-12.3-53.7-9.8-74.6,8.6c-17.2,15.2-24.5,37.6-21.4,59.2
	c-5.9,1-11.6,3.6-16.4,7.8c-14.1,12.4-15.1,34.2-2.3,48.8c5.6,6.4,13,10.3,20.6,11.7c-25,26.5-25.5,68.9-0.1,97.7
	c23.8,27,62.2,33,91.2,16c0.8,1.1,1.7,2.2,2.6,3.2c8.3,9.5,19.7,14.6,31.1,15.1c0.2,6.1,2.4,12.3,6.9,17.3
	c9.8,11.2,26.6,12.5,37.4,3c2.8-2.5,4.9-5.5,6.4-8.7C646.3,343,679.3,340.7,702.5,320.3z"/>
<path class="st0" d="M52.3,372c-0.5,0.4-1,0.7-1.4,1.1c-8.3,7.3-9.1,19.9-1.8,28.1c7.3,8.3,19.9,9.1,28.1,1.8
	c0.6-0.6,1.2-1.2,1.8-1.8c10.4,7.4,24.9,6.9,34.9-1.9c11.7-10.3,12.8-28.1,2.5-39.8c-8.6-9.8-22.5-12.2-33.7-6.6
	c-0.6-1.1-1.4-2.2-2.3-3.3c-6.6-7.4-17.9-8.2-25.4-1.6C48.1,354.2,47,364.6,52.3,372z"/>
<circle class="st0" cx="20" cy="426.6" r="15.1"/>
</svg>
