<?xml version="1.0" encoding="utf-8"?>
<!-- Generator: Adobe Illustrator 22.1.0, SVG Export Plug-In . SVG Version: 6.00 Build 0)  -->
<svg version="1.1" id="Capa_4" xmlns="http://www.w3.org/2000/svg" xmlns:xlink="http://www.w3.org/1999/xlink" x="0px" y="0px"
	 viewBox="0 0 1345.2 316" style="enable-background:new 0 0 1345.2 316;" xml:space="preserve">
<style type="text/css">
	.st0{fill:#FFFFFF;}
</style>
<g>
	
		<image style="overflow:visible;" width="1337" height="316" id="lBdm8F_1_" xlink:href="BEA7D0D8E4399739.png"  transform="matrix(1 0 0 1 1.3558 0)">
	</image>
</g>
<path class="st0" d="M158.7,0c0,0-37.4,1-38.3,18c0,0-7.1-0.8-7.1,2.9c0,0-12.9-3.3-13.3,8.3c0,0-11.6,7.9,0,27
	c0,0-1.2,15.4,17.1,27.5c0,0,1.2,1.2,4.6,0c0,0-0.8,15,16.6,22.9h1085.9c0,0,20.8,1.7,28.7-5.4c0,0,10-0.8,12.1-13.3
	c0,0,0.8-4.6,5.4-6.2c0,0,7.5-2.9,5.4-14.1c0,0,3.7-7.9-2.1-8.3c0,0,0.4-2.5-2.1-3.3c0,0,3.7-7.9-2.1-9.6c0,0,3.3-22.1-5-22.9h-36.2
	c0,0,3.3-19.8-4.2-21.6l-5.4-1.8H158.7z"/>
<path class="st0" d="M67.6,153.6h1257.3c0,0,5,0,5.8,12.1c0,0-2.1,11.2,0,14.1c0,0,3.3-2.1,2.9,5.4c0,0,4.6,7.5,2.1,13.7
	c0,0,1.2,7.1-7.9,15c0,0-3.3,2.9-2.5,6.2c0,0-2.5,12.5-22.9,16.6c0,0-5.8,10.8-20,11.6h-19.6c0,0-0.8,7.1,2.1,11.2
	c0,0,2.1,2.9,2.9,9.2c0,0,2.9,1.7,0,9.2c0,0,3.3,7.9-4.6,12.5c0,0-5.8,2.9-5.4,9.6c0,0-7.9,13.7-22.1,13.7h-16.6l-5,2.2
	c0,0-1141.7,0-1140,0c1.7,0-12.5-1.3-17.9-25.9c0,0-12.9-19.1,0-29.1l0.8-10.4L36,250.2c0,0-4.6,0-17.9-18.3c0,0-10.8-9.6-11.2-20
	c0,0-15.4-22.1,0-28.7c0,0-3.7-10.4,13.3-9.6c0,0-0.8-5,6.2-3.7c0,0,3.7-12.9,19.6-11.9C46,158,43.9,153.6,67.6,153.6z"/>
</svg>
