<?xml version="1.0" encoding="utf-8"?>
<!-- Generator: Adobe Illustrator 22.1.0, SVG Export Plug-In . SVG Version: 6.00 Build 0)  -->
<svg version="1.1" id="Capa_4" xmlns="http://www.w3.org/2000/svg" xmlns:xlink="http://www.w3.org/1999/xlink" x="0px" y="0px"
	 viewBox="0 0 1345.2 173.1" style="enable-background:new 0 0 1345.2 173.1;" xml:space="preserve">
<style type="text/css">
	.st0{fill:#FFFFFF;}
</style>
<path class="st0" d="M67.6,10.7h1257.3c0,0,5,0,5.8,12.1c0,0-2.1,11.2,0,14.1c0,0,3.3-2.1,2.9,5.4c0,0,4.6,7.5,2.1,13.7
	c0,0,1.2,7.1-7.9,15c0,0-3.3,2.9-2.5,6.2c0,0-2.5,12.5-22.9,16.6c0,0-5.8,10.8-20,11.6h-19.6c0,0-0.8,7.1,2.1,11.2
	c0,0,2.1,2.9,2.9,9.2c0,0,2.9,1.7,0,9.2c0,0,3.3,7.9-4.6,12.5c0,0-5.8,2.9-5.4,9.6c0,0-7.9,13.7-22.1,13.7h-16.6l-5,2.2
	c0,0-1141.7,0-1140,0c1.7,0-12.5-1.3-17.9-25.9c0,0-12.9-19.1,0-29.1l0.8-10.4L36,107.3c0,0-4.6,0-17.9-18.3c0,0-10.8-9.6-11.2-20
	c0,0-15.4-22.1,0-28.7c0,0-3.7-10.4,13.3-9.6c0,0-0.8-5,6.2-3.7c0,0,3.7-12.9,19.6-11.9C46,15.1,43.9,10.7,67.6,10.7z"/>
</svg>
