<?xml version="1.0" encoding="utf-8"?>
<!-- Generator: Adobe Illustrator 22.1.0, SVG Export Plug-In . SVG Version: 6.00 Build 0)  -->
<svg version="1.1" id="Capa_4" xmlns="http://www.w3.org/2000/svg" xmlns:xlink="http://www.w3.org/1999/xlink" x="0px" y="0px"
	 viewBox="0 0 1194.2 106.8" style="enable-background:new 0 0 1194.2 106.8;" xml:space="preserve">
<style type="text/css">
	.st0{fill:#FFFFFF;}
</style>
<path class="st0" d="M69.4,0c0,0-37.4,1-38.3,18c0,0-7.1-0.8-7.1,2.9c0,0-12.9-3.3-13.3,8.3c0,0-11.6,7.9,0,27
	c0,0-1.2,15.4,17.1,27.5c0,0,1.2,1.2,4.6,0c0,0-0.8,15,16.6,22.9h1085.9c0,0,20.8,1.7,28.7-5.4c0,0,10-0.8,12.1-13.3
	c0,0,0.8-4.6,5.4-6.2c0,0,7.5-2.9,5.4-14.1c0,0,3.7-7.9-2.1-8.3c0,0,0.4-2.5-2.1-3.3c0,0,3.7-7.9-2.1-9.6c0,0,3.3-22.1-5-22.9h-36.2
	c0,0,3.3-19.8-4.2-21.6l-5.4-1.8H69.4z"/>
</svg>
