<?xml version="1.0" encoding="utf-8"?>
<!-- Generator: Adobe Illustrator 22.1.0, SVG Export Plug-In . SVG Version: 6.00 Build 0)  -->
<svg version="1.1" xmlns="http://www.w3.org/2000/svg" xmlns:xlink="http://www.w3.org/1999/xlink" x="0px" y="0px"
	 viewBox="0 0 49.5 49.9" style="enable-background:new 0 0 49.5 49.9;" xml:space="preserve">
<style type="text/css">
	.st0{display:none;}
	.st1{display:inline;}
	.st2{fill:#FFFFFF;}
	.st3{fill:#92D2C9;}
	.st4{display:inline;fill:#92D2C9;}
	.st5{fill:#B0B0AF;}
</style>
<g id="Capa_1">
	<g id="Capa_2">
	</g>
	<g id="Capa_3">
	</g>
	<g id="Capa_4">
	</g>
</g>
<g id="Calcula_tupresupuesto">
	<path class="st5" d="M24.8,1.3C11.6,1.3,0.9,12,0.9,25.2c0,4.6,1.3,8.9,3.6,12.6l-2.2,9.4l8.4-2.7c4,2.9,8.8,4.6,14.1,4.6
		C38,49,48.7,38.4,48.7,25.2S38,1.3,24.8,1.3z"/>
	<circle class="st2" cx="24.5" cy="15" r="3.4"/>
	<path class="st2" d="M21,19.9h5c0.9,0,1.6,0.7,1.6,1.6v12.7h1.1v2.7c0,0.9-0.7,1.6-1.6,1.6H21c-0.9,0-1.6-0.7-1.6-1.6V35
		c0-0.4,0.3-0.7,0.7-0.7h0.1c0.4,0,0.7-0.3,0.7-0.7l-0.1-9c0-0.4-0.3-0.7-0.7-0.7h0c-0.4,0-0.7-0.3-0.7-0.7v-1.5
		C19.3,20.7,20.1,19.9,21,19.9z"/>
</g>
</svg>
