<?xml version="1.0" encoding="UTF-8" ?>
<!DOCTYPE svg PUBLIC "-//W3C//DTD SVG 1.1//EN" "http://www.w3.org/Graphics/SVG/1.1/DTD/svg11.dtd">
<svg width="418pt" height="690pt" viewBox="0 0 418 690" version="1.1" xmlns="http://www.w3.org/2000/svg">
<path fill="#000000" d=" M 0.00 0.00 L 418.00 0.00 L 418.00 690.00 L 0.00 690.00 L 0.00 0.00 Z" />
<path fill="#e4e4e4" d=" M 5.00 4.00 C 141.62 4.00 278.24 3.99 414.86 4.00 C 414.85 14.84 414.72 25.68 414.83 36.51 C 278.22 36.52 141.62 36.54 5.01 36.51 C 5.14 25.67 4.97 14.84 5.00 4.00 Z" />
<path fill="#404140" d=" M 231.59 8.38 C 232.32 6.04 235.17 6.73 237.03 6.59 C 242.03 6.79 247.08 6.23 252.05 6.89 C 254.42 9.17 253.00 12.91 253.43 15.81 C 255.02 16.15 257.67 15.48 258.37 17.49 C 258.88 20.64 258.66 23.85 258.78 27.03 C 258.69 29.30 259.36 32.08 257.17 33.56 C 257.59 30.63 257.77 27.66 257.71 24.69 C 256.12 25.62 254.52 26.55 252.92 27.46 L 252.44 27.56 C 252.57 25.82 252.71 24.07 252.84 22.33 C 251.87 22.34 250.90 22.35 249.94 22.36 C 249.67 24.77 249.35 27.17 248.91 29.55 C 247.75 28.52 246.57 27.50 245.40 26.48 C 245.79 26.16 246.57 25.52 246.96 25.19 C 245.77 24.04 244.58 22.89 243.40 21.73 C 242.28 23.14 241.17 24.55 240.05 25.95 C 239.24 25.06 238.49 24.12 237.74 23.19 C 237.37 26.19 236.91 29.17 236.40 32.15 C 236.21 29.30 236.18 26.43 236.28 23.57 C 234.72 23.03 231.93 24.07 231.41 21.96 C 231.02 17.46 231.20 12.88 231.59 8.38 Z" />
<path fill="#404140" d=" M 263.92 22.29 C 263.38 17.16 263.56 11.82 264.60 6.73 L 265.55 6.76 C 272.23 7.16 278.95 6.45 285.60 7.32 C 283.81 12.89 285.93 18.66 284.88 24.32 C 283.72 21.95 283.12 19.38 283.13 16.74 C 282.92 16.64 282.51 16.43 282.30 16.33 C 281.17 15.68 279.90 15.20 278.63 15.75 C 278.55 21.05 280.38 26.14 280.60 31.42 C 280.99 31.42 281.79 31.43 282.19 31.43 C 281.19 31.85 280.17 32.16 279.11 32.35 C 277.35 29.83 277.81 26.60 277.60 23.71 C 277.14 25.85 276.66 27.98 276.03 30.07 C 276.01 26.70 275.81 23.34 275.47 19.99 C 274.25 20.51 272.22 20.28 272.02 22.02 C 271.57 25.17 271.82 28.37 271.84 31.54 C 271.33 29.24 270.84 26.94 270.15 24.68 L 269.75 24.27 C 269.31 23.86 268.44 23.05 268.01 22.65 C 267.08 23.28 266.16 23.91 265.24 24.55 C 264.91 23.99 264.25 22.85 263.92 22.29 Z" />
<path fill="#000000" d=" M 265.55 6.76 C 273.19 6.57 280.83 6.80 288.47 6.68 L 288.53 7.12 C 288.99 7.28 289.92 7.61 290.39 7.77 C 290.93 14.79 290.69 21.86 290.96 28.91 C 290.96 30.49 291.28 33.60 288.88 33.38 C 280.87 33.54 272.85 33.48 264.83 33.37 C 264.54 32.87 263.96 31.87 263.67 31.37 C 263.69 28.34 263.64 25.31 263.92 22.29 C 264.25 22.85 264.91 23.99 265.24 24.55 C 265.53 26.88 265.56 29.22 265.68 31.56 C 266.98 31.60 268.27 31.64 269.57 31.66 C 269.71 29.19 269.76 26.73 269.75 24.27 L 270.15 24.68 C 270.84 26.94 271.33 29.24 271.84 31.54 C 272.75 31.60 274.57 31.71 275.48 31.76 C 275.62 31.34 275.89 30.49 276.03 30.07 C 276.66 27.98 277.14 25.85 277.60 23.71 C 277.81 26.60 277.35 29.83 279.11 32.35 C 280.17 32.16 281.19 31.85 282.19 31.43 C 282.70 26.42 282.68 21.35 282.30 16.33 C 282.51 16.43 282.92 16.64 283.13 16.74 C 283.12 19.38 283.72 21.95 284.88 24.32 L 284.89 24.35 C 285.22 26.77 285.39 29.21 285.56 31.65 C 286.53 31.64 287.51 31.63 288.49 31.62 C 288.80 23.89 289.85 16.21 289.63 8.47 C 288.29 8.06 286.95 7.68 285.60 7.32 C 278.95 6.45 272.23 7.16 265.55 6.76 Z" />
<path fill="#404140" d=" M 209.05 8.59 C 213.17 10.29 217.33 11.92 221.63 13.10 C 220.70 17.79 218.78 22.19 217.33 26.72 L 216.70 26.57 C 214.89 26.10 213.04 25.81 211.22 25.44 C 211.25 26.89 211.28 28.33 211.32 29.78 C 212.91 29.85 214.51 29.93 216.11 29.94 C 215.79 30.38 215.16 31.26 214.84 31.70 C 210.65 30.87 206.79 28.84 202.58 28.03 C 202.46 27.11 202.34 26.19 202.22 25.27 L 203.06 25.82 C 204.02 26.43 204.98 27.05 205.94 27.66 C 206.48 27.12 207.02 26.58 207.57 26.04 C 207.87 27.54 208.73 28.10 210.15 27.70 C 210.91 26.51 210.53 25.64 209.00 25.07 C 207.15 24.18 205.78 22.64 204.66 20.96 L 204.29 20.46 C 206.28 16.67 207.68 12.62 209.05 8.59 Z" />
<path fill="#b6b6b6" d=" M 285.60 7.32 C 286.95 7.68 288.29 8.06 289.63 8.47 C 289.85 16.21 288.80 23.89 288.49 31.62 C 287.51 31.63 286.53 31.64 285.56 31.65 C 285.39 29.21 285.22 26.77 284.89 24.35 L 284.88 24.32 C 285.93 18.66 283.81 12.89 285.60 7.32 Z" />
<path fill="#b6b6b6" d=" M 199.70 16.42 C 199.30 13.35 200.24 10.21 202.98 8.55 C 203.08 11.54 202.31 14.63 199.70 16.42 Z" />
<path fill="#e4e4e4" d=" M 232.85 8.16 C 235.77 8.14 238.69 8.16 241.61 8.28 C 241.68 11.96 241.64 15.64 241.42 19.32 C 238.62 19.41 235.81 19.43 233.01 19.45 C 233.00 18.79 232.98 17.48 232.97 16.83 C 234.98 16.82 236.99 16.81 239.00 16.80 C 238.99 16.41 238.96 15.62 238.94 15.23 C 238.07 15.23 236.31 15.22 235.43 15.22 C 235.42 14.60 235.41 13.36 235.40 12.74 C 236.84 12.48 238.38 12.31 239.60 11.41 C 237.33 11.16 235.05 11.13 232.77 11.12 C 232.79 10.38 232.83 8.90 232.85 8.16 Z" />
<path fill="#e4e4e4" d=" M 243.00 8.60 C 245.89 7.84 248.90 8.19 251.85 8.18 C 251.84 8.93 251.82 10.42 251.81 11.16 C 249.84 11.15 247.87 11.15 245.91 11.14 C 245.91 13.05 245.91 14.96 245.92 16.87 C 246.82 16.82 248.63 16.72 249.53 16.67 C 248.80 15.88 248.06 15.10 247.31 14.33 C 247.33 13.85 247.38 12.91 247.40 12.44 C 248.89 12.44 250.37 12.45 251.87 12.45 C 251.86 14.78 251.84 17.10 251.81 19.43 C 249.02 19.43 246.23 19.43 243.44 19.37 C 242.99 15.81 242.58 12.19 243.00 8.60 Z" />
<path fill="#404140" d=" M 201.18 20.25 C 202.26 16.43 204.07 12.87 205.81 9.32 C 204.81 13.09 204.58 17.75 201.18 20.25 Z" />
<path fill="#000000" d=" M 299.59 15.15 C 298.04 12.21 301.44 10.44 303.80 10.19 C 309.40 10.09 315.01 9.97 320.61 10.25 C 314.67 10.91 308.68 10.56 302.73 10.92 C 301.19 13.54 299.36 16.01 297.08 18.04 C 297.14 18.64 297.28 19.83 297.34 20.43 C 299.28 22.95 300.46 25.91 301.63 28.83 C 308.59 28.94 315.55 28.90 322.51 28.91 C 322.26 27.91 321.76 25.92 321.51 24.92 C 317.25 24.41 313.03 26.50 308.80 25.00 C 308.62 23.84 308.44 22.69 308.27 21.53 C 308.64 21.54 309.38 21.56 309.75 21.57 C 311.10 21.61 312.46 21.65 313.82 21.70 C 313.65 22.72 313.51 23.75 313.39 24.78 C 315.89 23.61 318.19 22.07 320.57 20.67 C 321.17 20.67 321.78 20.67 322.40 20.68 C 322.48 22.78 322.57 24.88 322.67 26.99 C 322.65 27.52 322.61 28.58 322.59 29.11 C 320.77 29.46 318.96 29.83 317.15 30.22 C 312.69 30.23 308.23 30.17 303.77 30.28 C 302.33 29.62 300.91 28.93 299.50 28.23 C 299.51 27.56 299.54 26.20 299.55 25.53 C 298.54 24.78 297.54 24.02 296.53 23.29 C 296.39 21.36 296.09 19.37 296.57 17.47 C 297.47 16.57 298.57 15.91 299.59 15.15 Z" />
<path fill="#404140" d=" M 320.61 10.25 C 321.62 11.42 323.28 12.39 323.31 14.12 C 323.55 18.88 323.79 23.68 323.26 28.43 L 322.67 26.99 C 322.57 24.88 322.48 22.78 322.40 20.68 C 321.78 20.67 321.17 20.67 320.57 20.67 C 318.73 20.51 316.90 20.27 315.08 20.06 C 316.52 18.79 317.95 17.51 319.37 16.21 C 317.76 16.31 316.10 16.16 314.54 16.60 C 312.71 18.01 311.29 19.86 309.75 21.57 C 309.38 21.56 308.64 21.54 308.27 21.53 C 308.44 22.69 308.62 23.84 308.80 25.00 C 313.03 26.50 317.25 24.41 321.51 24.92 C 321.76 25.92 322.26 27.91 322.51 28.91 C 315.55 28.90 308.59 28.94 301.63 28.83 C 300.46 25.91 299.28 22.95 297.34 20.43 C 297.28 19.83 297.14 18.64 297.08 18.04 C 299.36 16.01 301.19 13.54 302.73 10.92 C 308.68 10.56 314.67 10.91 320.61 10.25 Z" />
<path fill="#e4e4e4" d=" M 209.96 11.05 C 212.04 11.50 214.10 12.08 216.13 12.72 C 216.85 13.01 218.28 13.61 219.00 13.90 C 218.03 17.76 216.34 21.37 214.81 25.03 C 212.10 24.41 209.45 23.55 206.84 22.58 C 207.79 18.71 209.20 14.97 209.96 11.05 Z" />
<path fill="#000000" d=" M 336.66 13.50 C 337.53 13.50 338.41 13.51 339.29 13.51 C 339.31 18.28 339.32 23.04 339.38 27.81 C 338.33 27.89 337.29 27.96 336.25 28.04 C 336.23 24.39 336.23 20.75 336.28 17.10 C 335.09 17.65 332.63 19.74 332.38 17.25 C 333.71 15.90 335.23 14.75 336.66 13.50 Z" />
<path fill="#000000" d=" M 343.38 17.21 C 345.35 15.39 347.45 13.37 350.28 13.20 C 350.41 18.09 350.33 22.98 350.41 27.87 C 349.38 27.92 348.36 27.96 347.34 28.00 C 347.33 24.36 347.33 20.73 347.38 17.09 C 345.95 17.77 344.01 19.83 343.38 17.21 Z" />
<path fill="#000000" d=" M 363.53 13.62 C 366.76 12.50 369.97 15.71 369.67 18.90 C 369.60 21.44 370.25 24.48 368.38 26.55 C 366.12 29.03 361.31 28.07 360.55 24.67 C 359.81 20.99 359.22 15.32 363.53 13.62 Z" />
<path fill="#000000" d=" M 371.85 15.87 C 373.37 12.52 378.89 12.70 380.50 15.93 C 380.90 17.79 379.44 19.00 378.31 20.19 C 380.18 21.64 381.50 23.81 380.43 26.19 C 378.06 28.47 373.94 28.56 371.60 26.19 C 370.45 23.93 371.76 21.80 373.43 20.29 C 372.76 18.96 370.94 17.52 371.85 15.87 Z" />
<path fill="#b6b6b6" d=" M 278.63 15.75 C 279.90 15.20 281.17 15.68 282.30 16.33 C 282.68 21.35 282.70 26.42 282.19 31.43 C 281.79 31.43 280.99 31.42 280.60 31.42 C 280.38 26.14 278.55 21.05 278.63 15.75 Z" />
<path fill="#e4e4e4" d=" M 374.63 15.72 C 375.56 15.71 376.50 15.70 377.44 15.70 C 377.47 16.66 377.50 17.62 377.54 18.57 C 376.55 18.59 375.57 18.61 374.59 18.62 C 374.60 17.65 374.61 16.69 374.63 15.72 Z" />
<path fill="#e4e4e4" d=" M 314.54 16.60 C 316.10 16.16 317.76 16.31 319.37 16.21 C 317.95 17.51 316.52 18.79 315.08 20.06 C 316.90 20.27 318.73 20.51 320.57 20.67 C 318.19 22.07 315.89 23.61 313.39 24.78 C 313.51 23.75 313.65 22.72 313.82 21.70 C 312.46 21.65 311.10 21.61 309.75 21.57 C 311.29 19.86 312.71 18.01 314.54 16.60 Z" />
<path fill="#e4e4e4" d=" M 363.63 16.37 C 366.19 14.49 367.16 18.09 366.96 20.03 C 366.88 22.17 367.22 26.44 363.85 25.42 C 362.75 22.52 362.39 19.30 363.63 16.37 Z" />
<path fill="#000000" d=" M 355.93 20.91 C 355.12 19.61 353.73 17.58 355.89 16.69 C 358.99 16.88 357.56 19.80 355.93 20.91 Z" />
<path fill="#000000" d=" M 388.46 17.68 C 389.02 17.68 390.15 17.67 390.72 17.67 C 391.75 20.52 392.75 23.38 393.88 26.19 C 394.12 26.33 394.61 26.61 394.85 26.75 C 396.20 23.97 395.54 20.74 395.71 17.75 C 396.60 17.73 397.50 17.71 398.40 17.70 C 399.20 20.33 399.98 22.98 400.82 25.61 C 401.64 22.93 402.45 20.25 403.21 17.56 C 404.54 17.65 406.76 17.85 406.20 19.88 C 405.65 22.62 407.86 27.22 404.38 28.39 C 404.29 25.65 404.30 22.91 404.26 20.17 C 403.29 22.88 402.36 25.60 401.48 28.34 C 399.88 28.02 399.13 26.85 399.01 25.24 L 397.44 25.11 C 397.49 25.80 397.58 27.19 397.62 27.88 C 395.33 27.31 391.17 29.18 391.27 25.41 C 390.44 25.43 388.78 25.45 387.95 25.46 C 387.75 27.17 386.55 28.00 385.02 28.41 C 385.93 24.76 387.12 21.19 388.46 17.68 Z" />
<path fill="#e4e4e4" d=" M 272.02 22.02 C 272.22 20.28 274.25 20.51 275.47 19.99 C 275.81 23.34 276.01 26.70 276.03 30.07 C 275.89 30.49 275.62 31.34 275.48 31.76 C 274.57 31.71 272.75 31.60 271.84 31.54 C 271.82 28.37 271.57 25.17 272.02 22.02 Z" />
<path fill="#e4e4e4" d=" M 389.27 19.16 C 389.82 20.66 390.41 22.15 390.97 23.65 C 390.30 23.65 388.96 23.64 388.30 23.64 C 388.62 22.15 388.94 20.66 389.27 19.16 Z" />
<path fill="#000000" d=" M 204.66 20.96 C 205.78 22.64 207.15 24.18 209.00 25.07 C 208.65 25.31 207.93 25.79 207.57 26.04 C 207.02 26.58 206.48 27.12 205.94 27.66 C 204.98 27.05 204.02 26.43 203.06 25.82 C 203.56 24.19 204.12 22.58 204.66 20.96 Z" />
<path fill="#404140" d=" M 221.71 21.11 C 222.00 21.24 222.58 21.52 222.87 21.66 C 222.53 21.95 221.87 22.52 221.53 22.81 C 221.50 23.38 221.42 24.52 221.38 25.09 C 220.52 27.38 219.64 29.69 218.23 31.70 C 218.38 30.15 218.63 28.60 218.97 27.08 C 219.99 25.14 220.87 23.13 221.71 21.11 Z" />
<path fill="#b6b6b6" d=" M 240.05 25.95 C 241.17 24.55 242.28 23.14 243.40 21.73 C 244.58 22.89 245.77 24.04 246.96 25.19 C 246.57 25.52 245.79 26.16 245.40 26.48 C 245.39 28.11 245.39 29.73 245.39 31.36 C 244.18 31.32 242.98 31.27 241.78 31.23 C 241.76 29.73 241.73 28.23 241.72 26.73 C 241.30 26.53 240.47 26.14 240.05 25.95 Z" />
<path fill="#b6b6b6" d=" M 249.94 22.36 C 250.90 22.35 251.87 22.34 252.84 22.33 C 252.71 24.07 252.57 25.82 252.44 27.56 L 252.92 27.46 L 255.56 27.33 C 254.18 28.87 252.79 30.39 251.40 31.92 C 250.57 31.12 249.75 30.33 248.91 29.55 C 249.35 27.17 249.67 24.77 249.94 22.36 Z" />
<path fill="#e4e4e4" d=" M 374.11 25.49 C 374.29 23.95 373.94 21.91 375.97 21.54 C 377.92 22.05 378.00 23.95 377.86 25.61 C 376.61 25.58 375.35 25.54 374.11 25.49 Z" />
<path fill="#000000" d=" M 237.74 23.19 C 238.49 24.12 239.24 25.06 240.05 25.95 C 240.47 26.14 241.30 26.53 241.72 26.73 C 241.73 28.23 241.76 29.73 241.78 31.23 C 242.98 31.27 244.18 31.32 245.39 31.36 C 245.39 29.73 245.39 28.11 245.40 26.48 C 246.57 27.50 247.75 28.52 248.91 29.55 C 249.75 30.33 250.57 31.12 251.40 31.92 C 252.79 30.39 254.18 28.87 255.56 27.33 L 252.92 27.46 C 254.52 26.55 256.12 25.62 257.71 24.69 C 257.77 27.66 257.59 30.63 257.17 33.56 C 250.74 33.31 244.30 33.57 237.87 33.39 C 237.50 33.08 236.77 32.46 236.40 32.15 C 236.91 29.17 237.37 26.19 237.74 23.19 Z" />
<path fill="#e4e4e4" d=" M 265.24 24.55 C 266.16 23.91 267.08 23.28 268.01 22.65 C 268.44 23.05 269.31 23.86 269.75 24.27 C 269.76 26.73 269.71 29.19 269.57 31.66 C 268.27 31.64 266.98 31.60 265.68 31.56 C 265.56 29.22 265.53 26.88 265.24 24.55 Z" />
<path fill="#404140" d=" M 221.85 28.04 C 222.70 26.75 223.52 25.43 224.33 24.12 C 223.70 26.99 223.04 29.92 221.46 32.45 C 221.50 30.97 221.62 29.50 221.85 28.04 Z" />
<path fill="#000000" d=" M 354.55 24.76 C 355.53 24.70 356.51 24.64 357.50 24.58 C 357.57 25.69 357.64 26.80 357.70 27.91 C 355.39 28.38 354.32 26.90 354.55 24.76 Z" />
<path fill="#e4e4e4" d=" M 207.57 26.04 C 207.93 25.79 208.65 25.31 209.00 25.07 C 210.53 25.64 210.91 26.51 210.15 27.70 C 208.73 28.10 207.87 27.54 207.57 26.04 Z" />
<path fill="#000000" d=" M 211.22 25.44 C 213.04 25.81 214.89 26.10 216.70 26.57 C 216.55 27.41 216.26 29.10 216.11 29.94 C 214.51 29.93 212.91 29.85 211.32 29.78 C 211.28 28.33 211.25 26.89 211.22 25.44 Z" />
<path fill="#404140" d=" M 5.01 36.51 C 141.62 36.54 278.22 36.52 414.83 36.51 C 414.54 47.23 414.56 57.96 414.63 68.69 C 278.17 68.66 141.72 68.60 5.26 68.72 C 5.30 57.98 5.36 47.24 5.01 36.51 Z" />
<path fill="#000000" d=" M 112.73 51.49 C 113.18 51.44 114.08 51.34 114.53 51.28 C 114.54 52.78 114.55 54.28 114.57 55.78 C 114.10 55.71 113.18 55.57 112.72 55.50 C 112.72 54.16 112.73 52.83 112.73 51.49 Z" />
<path fill="#000000" d=" M 38.17 54.22 C 39.80 53.68 40.34 54.23 39.80 55.87 C 38.17 56.40 37.63 55.85 38.17 54.22 Z" />
<path fill="#000000" d=" M 97.11 54.23 C 98.72 53.63 99.28 54.16 98.80 55.82 C 97.19 56.41 96.63 55.88 97.11 54.23 Z" />
<path fill="#404140" d=" M 7.08 74.23 C 9.01 75.94 8.41 78.66 8.67 80.94 C 10.49 80.91 12.31 80.87 14.12 80.84 C 14.20 78.95 14.27 77.06 14.34 75.18 C 14.71 75.15 15.45 75.09 15.82 75.06 C 15.36 79.76 17.04 85.03 14.70 89.35 C 14.37 87.04 14.17 84.71 13.98 82.38 C 12.15 82.42 10.33 82.45 8.50 82.49 C 8.47 84.51 8.44 86.52 8.41 88.54 L 6.80 88.54 C 6.77 83.77 6.58 78.98 7.08 74.23 Z" />
<path fill="#404140" d=" M 29.16 74.26 C 30.08 75.28 30.66 76.51 30.51 77.91 C 30.59 81.51 30.44 85.12 30.45 88.73 C 30.03 88.63 29.18 88.43 28.75 88.33 C 28.78 83.64 28.50 78.92 29.16 74.26 Z" />
<path fill="#404140" d=" M 33.24 74.38 C 35.41 75.91 34.56 78.77 34.78 81.01 C 34.52 83.78 35.46 87.11 33.34 89.35 C 32.65 84.39 32.66 79.35 33.24 74.38 Z" />
<path fill="#404140" d=" M 50.42 74.64 C 53.92 76.33 53.07 81.21 54.89 84.20 C 56.18 80.94 55.87 76.66 58.91 74.37 C 59.97 77.98 60.81 81.64 61.77 85.27 C 63.25 81.82 62.43 76.79 65.86 74.59 C 65.06 79.58 63.80 84.50 62.32 89.33 C 59.62 86.20 59.71 81.79 58.41 78.05 C 57.05 81.81 56.18 85.73 54.82 89.49 C 52.37 84.89 51.70 79.63 50.42 74.64 Z" />
<path fill="#404140" d=" M 85.21 75.07 C 85.60 75.08 86.37 75.10 86.76 75.11 C 86.76 79.87 86.95 84.64 86.45 89.39 C 83.58 85.25 85.43 79.77 85.21 75.07 Z" />
<path fill="#404140" d=" M 95.42 75.08 C 95.75 75.09 96.41 75.11 96.75 75.11 C 96.74 79.59 96.74 84.06 96.68 88.53 C 94.74 88.46 92.77 88.56 90.85 88.16 C 88.41 86.24 88.06 82.29 89.77 79.78 C 90.87 77.81 93.41 78.66 95.23 78.45 C 95.29 77.33 95.35 76.20 95.42 75.08 Z" />
<path fill="#404140" d=" M 107.18 74.39 C 109.79 77.11 109.67 81.23 111.28 84.50 C 112.18 81.43 112.92 78.33 113.59 75.20 C 114.06 75.16 114.99 75.09 115.46 75.05 C 116.08 78.07 116.88 81.08 118.45 83.76 C 119.64 80.65 119.15 76.51 122.06 74.30 C 121.49 78.56 120.61 82.78 119.43 86.91 C 119.19 87.87 118.36 88.49 117.76 89.22 C 116.70 85.64 115.82 82.01 114.59 78.49 C 113.05 82.04 113.30 86.39 110.59 89.37 C 109.01 84.49 107.52 79.53 107.18 74.39 Z" />
<path fill="#404140" d=" M 141.43 75.16 C 141.89 75.20 142.82 75.28 143.28 75.31 C 143.22 79.68 143.22 84.05 143.28 88.42 C 142.83 88.48 141.93 88.58 141.48 88.64 C 141.46 84.15 141.45 79.65 141.43 75.16 Z" />
<path fill="#404140" d=" M 168.11 74.77 C 170.79 75.20 174.28 74.45 176.15 76.91 C 178.08 79.59 178.08 83.59 176.29 86.34 C 174.45 88.94 170.96 88.51 168.18 88.80 C 168.06 84.12 168.06 79.45 168.11 74.77 Z" />
<path fill="#404140" d=" M 179.99 75.12 C 181.62 74.67 182.14 75.26 181.55 76.87 C 179.90 77.31 179.38 76.73 179.99 75.12 Z" />
<path fill="#404140" d=" M 193.51 75.12 C 193.97 75.17 194.88 75.26 195.33 75.31 C 195.28 79.63 195.27 83.94 195.29 88.26 C 194.85 88.38 193.98 88.62 193.54 88.74 C 193.51 84.20 193.51 79.66 193.51 75.12 Z" />
<path fill="#404140" d=" M 216.20 89.37 C 217.38 84.17 218.42 78.61 221.71 74.27 C 223.62 79.13 225.49 84.04 226.65 89.15 C 224.93 88.08 224.27 86.13 223.49 84.38 C 222.11 84.36 220.73 84.34 219.35 84.33 C 218.39 86.07 217.37 87.77 216.20 89.37 Z" />
<path fill="#404140" d=" M 243.04 75.14 C 244.67 74.66 245.20 75.23 244.64 76.85 C 243.01 77.33 242.47 76.77 243.04 75.14 Z" />
<path fill="#404140" d=" M 255.97 75.11 C 257.59 74.63 258.12 75.21 257.56 76.83 C 255.93 77.30 255.39 76.73 255.97 75.11 Z" />
<path fill="#404140" d=" M 274.57 75.16 C 275.06 75.14 276.04 75.10 276.54 75.08 C 276.43 77.94 276.35 80.79 276.28 83.65 C 275.92 83.67 275.19 83.70 274.82 83.72 C 274.77 80.86 274.68 78.01 274.57 75.16 Z" />
<path fill="#404140" d=" M 162.97 76.31 C 164.00 77.24 165.03 78.17 166.07 79.10 C 165.47 79.31 164.28 79.73 163.68 79.94 C 163.67 81.92 163.65 83.91 163.64 85.90 C 164.47 86.79 165.30 87.69 166.13 88.58 C 164.94 88.51 163.75 88.44 162.56 88.37 C 162.16 85.34 161.97 82.29 161.90 79.24 C 160.37 79.61 158.84 79.94 157.36 80.44 C 156.61 83.36 156.73 86.41 156.37 89.39 C 154.14 86.29 155.45 82.14 155.11 78.58 C 157.36 78.57 159.61 78.50 161.87 78.41 C 162.14 77.88 162.69 76.83 162.97 76.31 Z" />
<path fill="#000000" d=" M 169.99 76.07 C 171.53 76.50 173.22 76.60 174.59 77.49 C 176.24 79.54 176.17 82.67 175.14 85.00 C 174.20 87.02 171.67 86.85 169.86 87.42 C 169.75 83.64 169.79 79.85 169.99 76.07 Z" />
<path fill="#404140" d=" M 236.53 78.43 C 237.08 77.73 237.64 77.03 238.19 76.34 C 239.03 77.13 239.88 77.92 240.72 78.71 C 237.44 81.29 238.41 85.99 240.96 88.74 C 239.85 88.58 238.75 88.43 237.66 88.27 C 237.28 84.99 236.94 81.70 236.53 78.43 Z" />
<path fill="#404140" d=" M 259.58 78.46 C 260.09 77.75 260.61 77.04 261.14 76.33 C 262.20 78.27 264.41 78.38 266.34 78.75 C 267.26 81.15 268.15 83.56 269.07 85.96 C 270.13 83.09 270.55 79.72 272.90 77.53 C 272.13 82.12 270.72 86.62 268.89 90.89 C 268.37 92.77 266.16 92.59 264.69 93.12 C 265.88 91.79 267.21 90.58 268.18 89.08 C 267.59 85.65 266.09 82.48 264.93 79.23 C 263.86 79.41 262.80 79.58 261.73 79.75 C 261.53 83.05 261.85 86.41 263.98 89.08 C 262.85 88.62 261.70 88.22 260.63 87.64 C 260.10 84.61 259.99 81.52 259.58 78.46 Z" />
<path fill="#404140" d=" M 20.37 87.48 C 17.37 84.85 18.64 78.27 23.06 78.30 C 25.86 78.13 26.29 81.28 26.81 83.33 C 24.57 83.43 22.33 83.53 20.08 83.65 C 20.58 87.01 23.90 87.09 26.53 87.74 C 24.56 88.33 21.99 89.38 20.37 87.48 Z" />
<path fill="#404140" d=" M 39.39 78.55 C 43.25 76.97 46.14 81.72 44.98 85.07 C 44.65 87.59 41.89 89.25 39.51 88.40 C 35.80 86.55 35.61 80.41 39.39 78.55 Z" />
<path fill="#404140" d=" M 70.40 78.45 C 76.73 76.55 78.08 88.34 71.88 88.59 C 66.67 88.75 65.76 80.08 70.40 78.45 Z" />
<path fill="#404140" d=" M 78.29 78.55 C 80.24 78.57 82.19 78.55 84.15 78.52 C 82.83 79.39 81.40 80.13 80.29 81.25 C 79.76 83.93 79.76 86.68 79.40 89.39 C 77.37 86.18 78.57 82.12 78.29 78.55 Z" />
<path fill="#404140" d=" M 131.59 79.36 C 133.68 78.59 136.84 77.22 138.24 79.79 C 138.88 82.60 138.59 85.51 138.62 88.37 C 136.12 88.19 131.64 89.59 131.33 85.91 C 130.89 82.55 135.33 82.72 137.47 81.89 C 136.37 79.56 133.73 79.78 131.59 79.36 Z" />
<path fill="#404140" d=" M 146.61 87.40 C 143.67 84.62 145.21 77.67 149.89 78.32 C 152.38 78.61 152.66 81.46 153.04 83.41 C 150.85 83.48 148.65 83.56 146.47 83.67 C 146.97 87.15 150.58 87.06 153.24 87.81 C 151.11 88.18 148.29 89.50 146.61 87.40 Z" />
<path fill="#404140" d=" M 179.74 85.05 C 179.78 82.55 179.16 79.45 181.36 77.65 C 181.63 81.53 181.64 85.43 181.31 89.30 C 180.20 88.16 179.67 86.64 179.74 85.05 Z" />
<path fill="#404140" d=" M 183.63 79.35 C 185.73 78.65 188.84 77.23 190.29 79.73 C 190.89 82.48 190.65 85.33 190.72 88.13 C 188.37 88.06 184.48 89.69 183.50 86.57 C 182.32 82.90 187.08 82.63 189.43 81.94 C 188.63 79.38 185.68 79.93 183.63 79.35 Z" />
<path fill="#404140" d=" M 200.35 78.41 C 205.25 77.13 207.37 84.37 204.33 87.36 C 203.22 88.65 201.31 88.86 199.77 88.31 C 196.19 86.36 196.29 79.70 200.35 78.41 Z" />
<path fill="#404140" d=" M 208.85 78.90 C 210.70 77.95 212.96 78.31 214.98 78.02 C 214.52 79.85 214.05 81.68 213.57 83.50 C 211.94 84.30 210.31 85.12 208.69 85.95 C 210.91 86.90 213.84 86.85 215.41 88.90 C 215.70 93.02 209.84 94.02 207.35 91.71 C 206.96 89.03 208.80 86.43 208.17 83.73 C 207.86 82.09 207.07 80.03 208.85 78.90 Z" />
<path fill="#000000" d=" M 219.33 82.32 C 220.10 80.71 220.87 79.10 221.65 77.50 C 222.09 79.28 222.54 81.07 222.97 82.85 C 221.75 82.68 220.54 82.50 219.33 82.32 Z" />
<path fill="#404140" d=" M 229.89 78.82 C 231.61 77.84 233.51 78.67 235.22 79.20 C 233.02 79.95 229.26 79.63 229.59 82.98 C 228.66 86.72 232.79 87.17 235.33 88.00 C 233.58 88.14 231.63 89.06 230.00 88.04 C 227.23 85.81 227.32 81.19 229.89 78.82 Z" />
<path fill="#404140" d=" M 243.97 89.58 C 242.72 85.83 241.55 80.81 244.43 77.56 C 244.83 81.55 245.01 85.65 243.97 89.58 Z" />
<path fill="#404140" d=" M 246.14 77.54 C 248.26 80.10 249.05 83.37 250.06 86.46 C 251.07 83.38 252.03 80.22 253.87 77.52 C 253.29 81.62 253.00 86.51 249.52 89.32 C 247.89 85.56 246.53 81.64 246.14 77.54 Z" />
<path fill="#404140" d=" M 255.82 86.04 C 255.76 83.23 255.01 79.77 257.32 77.62 C 257.61 81.51 257.63 85.42 257.30 89.31 C 256.59 88.34 255.75 87.33 255.82 86.04 Z" />
<path fill="#000000" d=" M 21.32 80.37 C 22.22 79.34 24.46 79.58 24.70 81.08 C 24.51 83.17 20.18 82.43 21.32 80.37 Z" />
<path fill="#000000" d=" M 39.10 80.15 C 43.95 77.52 45.35 86.36 41.07 87.41 C 37.65 86.94 38.01 82.52 39.10 80.15 Z" />
<path fill="#000000" d=" M 69.76 79.57 C 71.05 79.79 72.34 80.07 73.61 80.40 C 74.34 82.63 74.87 86.29 72.13 87.31 C 68.01 87.23 69.24 82.21 69.76 79.57 Z" />
<path fill="#000000" d=" M 90.55 85.04 C 89.97 82.64 90.75 78.83 94.02 79.80 C 96.12 82.07 95.03 85.18 94.33 87.77 C 93.07 86.98 90.69 86.96 90.55 85.04 Z" />
<path fill="#000000" d=" M 147.21 80.34 C 149.08 79.22 151.21 79.94 151.35 82.30 C 149.94 81.75 146.41 82.91 147.21 80.34 Z" />
<path fill="#000000" d=" M 199.31 81.20 C 199.75 79.47 202.00 80.02 203.26 79.48 C 203.64 82.04 205.20 85.97 201.95 87.28 C 198.69 87.50 198.57 83.43 199.31 81.20 Z" />
<path fill="#000000" d=" M 209.17 79.95 C 211.30 78.32 214.19 81.23 211.96 82.95 C 210.05 84.89 208.55 81.67 209.17 79.95 Z" />
<path fill="#000000" d=" M 133.28 83.92 C 134.53 83.83 135.78 83.74 137.03 83.66 C 136.76 84.89 136.49 86.12 136.22 87.35 C 135.44 87.26 133.89 87.07 133.11 86.97 C 133.15 86.21 133.24 84.68 133.28 83.92 Z" />
<path fill="#000000" d=" M 185.25 84.03 C 186.05 83.91 187.64 83.65 188.44 83.52 C 188.90 84.80 188.62 86.14 188.53 87.45 C 187.69 87.31 186.00 87.04 185.16 86.90 C 185.18 86.18 185.23 84.75 185.25 84.03 Z" />
<path fill="#404140" d=" M 98.74 91.61 C 99.00 89.52 99.54 87.45 100.68 85.65 C 100.76 87.85 100.91 90.30 98.74 91.61 Z" />
<path fill="#404140" d=" M 274.47 86.24 C 275.82 84.71 277.98 87.16 276.55 88.45 C 275.20 89.95 273.05 87.54 274.47 86.24 Z" />
<path fill="#404140" d=" M 122.29 90.88 C 124.63 88.95 128.15 89.23 130.66 90.69 C 127.89 91.09 125.08 91.15 122.29 90.88 Z" />
<path fill="#000000" d=" M 208.11 88.48 C 209.87 88.53 211.64 88.64 213.40 88.83 C 214.91 91.66 210.60 91.76 208.90 91.37 C 208.70 90.65 208.31 89.20 208.11 88.48 Z" />
<path fill="#e4e4e4" d=" M 30.57 331.63 C 32.48 330.30 34.53 328.87 37.00 329.19 C 153.03 329.23 269.07 329.19 385.10 329.22 C 388.81 328.88 392.25 332.24 391.81 335.99 C 391.82 376.70 391.86 417.41 391.78 458.12 C 391.97 461.67 388.47 464.62 385.00 464.17 C 268.64 464.14 152.28 464.18 35.92 464.15 C 32.61 464.37 29.62 461.45 29.81 458.13 C 29.76 417.76 29.82 377.38 29.78 337.01 C 29.75 335.18 30.19 333.40 30.57 331.63 Z" />
<path fill="#404140" d=" M 32.43 335.89 C 32.03 333.32 34.63 331.55 37.00 331.96 C 152.69 331.96 268.39 331.97 384.09 331.96 C 386.58 331.54 389.49 332.96 389.01 335.88 C 389.12 355.60 389.07 375.32 389.03 395.04 C 270.16 395.04 151.29 395.06 32.42 395.03 C 32.41 375.32 32.38 355.60 32.43 335.89 Z" />
<path fill="#e4e4e4" d=" M 347.40 347.90 C 349.21 347.86 350.13 348.80 350.01 350.62 C 349.38 350.63 348.11 350.65 347.48 350.66 C 347.46 349.97 347.42 348.59 347.40 347.90 Z" />
<path fill="#e4e4e4" d=" M 63.11 348.97 C 63.61 348.96 64.62 348.94 65.12 348.93 C 67.46 354.62 69.24 360.53 71.38 366.30 C 68.04 366.76 67.98 363.18 67.03 360.99 C 65.03 361.01 63.04 361.05 61.04 361.13 C 60.32 363.39 60.10 366.52 56.96 366.33 C 58.93 360.52 60.72 354.62 63.11 348.97 Z" />
<path fill="#e4e4e4" d=" M 358.99 351.17 C 360.58 348.98 363.49 348.35 365.99 349.17 C 368.50 350.05 369.40 353.62 367.73 355.65 C 366.02 357.76 364.10 359.78 363.44 362.52 C 365.80 363.90 364.77 366.58 362.16 366.21 C 362.07 365.36 361.91 363.65 361.82 362.80 C 362.44 362.10 363.06 361.39 363.68 360.69 L 361.72 360.49 C 362.80 357.41 366.88 355.42 366.06 351.88 C 364.03 350.61 361.27 351.60 358.99 351.17 Z" />
<path fill="#e4e4e4" d=" M 280.90 354.32 C 282.13 352.82 283.26 351.25 284.53 349.79 C 284.71 350.54 285.08 352.05 285.27 352.80 C 286.28 353.35 288.60 352.78 288.57 354.39 C 287.38 354.69 286.20 354.97 285.00 355.21 C 285.01 358.01 285.04 360.82 285.15 363.63 C 286.49 364.04 287.83 364.47 289.16 364.91 C 287.23 366.24 283.69 366.85 282.91 363.93 C 282.37 361.09 282.67 358.18 282.67 355.32 C 282.22 355.07 281.34 354.57 280.90 354.32 Z" />
<path fill="#e4e4e4" d=" M 296.23 352.75 C 296.91 351.65 297.61 350.56 298.35 349.50 C 298.48 350.35 298.73 352.06 298.86 352.92 C 299.78 353.07 301.62 353.37 302.54 353.52 C 301.51 354.55 300.11 354.95 298.76 355.35 C 298.73 358.01 298.73 360.68 298.73 363.36 C 300.01 363.85 301.29 364.34 302.57 364.85 C 300.82 366.66 296.79 366.64 296.60 363.54 C 295.65 360.39 298.00 355.74 294.32 354.00 C 294.95 353.58 295.59 353.16 296.23 352.75 Z" />
<path fill="#e4e4e4" d=" M 353.38 352.66 C 354.06 351.58 354.76 350.52 355.48 349.48 C 355.63 350.34 355.92 352.07 356.07 352.93 C 356.96 353.07 358.74 353.35 359.63 353.49 C 358.64 354.53 357.25 354.92 355.92 355.33 C 355.90 358.09 355.96 360.86 356.11 363.63 C 357.46 364.09 358.80 364.56 360.14 365.07 C 358.10 366.07 354.62 366.94 353.79 364.00 C 353.30 361.14 353.55 358.23 353.57 355.35 C 353.07 355.04 352.05 354.44 351.55 354.14 C 352.01 353.77 352.93 353.03 353.38 352.66 Z" />
<path fill="#404140" d=" M 64.18 352.04 C 64.84 354.26 65.50 356.48 66.12 358.71 C 64.74 358.70 63.36 358.69 61.98 358.68 C 62.69 356.46 63.43 354.25 64.18 352.04 Z" />
<path fill="#e4e4e4" d=" M 72.70 352.53 C 73.28 353.00 74.43 353.94 75.00 354.41 C 76.45 353.57 78.06 353.15 79.69 352.89 C 79.58 353.41 79.35 354.46 79.23 354.98 C 77.81 355.50 75.76 355.38 75.27 357.17 C 74.67 360.07 74.95 363.06 74.91 366.00 C 74.32 366.00 73.15 366.00 72.56 366.00 C 72.55 361.51 72.46 357.01 72.70 352.53 Z" />
<path fill="#e4e4e4" d=" M 82.32 363.67 C 79.88 359.86 81.63 352.51 87.09 353.10 C 90.64 353.19 91.48 357.13 91.70 359.96 C 88.96 360.02 86.22 360.01 83.48 360.05 C 83.92 361.27 84.37 362.49 84.82 363.72 C 86.85 363.72 88.87 363.66 90.90 363.56 C 90.83 364.12 90.69 365.22 90.62 365.77 C 87.79 366.01 83.93 366.72 82.32 363.67 Z" />
<path fill="#e4e4e4" d=" M 98.09 353.09 C 98.70 353.12 99.93 353.16 100.55 353.19 C 101.66 356.58 102.73 359.99 103.78 363.41 C 104.89 360.06 105.94 356.70 106.88 353.30 C 107.49 353.23 108.72 353.08 109.33 353.01 C 107.46 358.84 105.93 364.85 103.33 370.42 C 102.15 372.60 99.08 372.37 97.48 370.81 C 98.86 370.35 100.24 369.92 101.63 369.51 C 101.99 368.37 102.27 367.21 102.46 366.03 C 101.30 361.63 99.44 357.44 98.09 353.09 Z" />
<path fill="#e4e4e4" d=" M 113.36 353.58 C 116.01 352.28 119.68 353.35 120.71 356.25 C 122.28 359.90 120.97 366.21 116.06 366.05 C 109.61 366.59 108.30 356.21 113.36 353.58 Z" />
<path fill="#e4e4e4" d=" M 124.56 353.18 C 125.12 353.16 126.24 353.12 126.80 353.10 C 126.77 356.72 126.77 360.38 127.45 363.96 C 128.46 363.88 130.49 363.72 131.50 363.64 C 132.39 360.19 132.34 356.62 132.31 353.09 C 132.89 353.10 134.05 353.14 134.63 353.16 C 134.66 357.39 134.62 361.62 134.69 365.86 C 131.48 365.04 126.90 367.61 124.95 363.99 C 124.11 360.48 124.70 356.77 124.56 353.18 Z" />
<path fill="#e4e4e4" d=" M 143.73 358.01 C 141.26 353.06 151.44 350.73 151.70 355.56 C 149.84 355.92 145.42 353.68 145.93 357.03 C 147.68 358.27 149.74 359.04 151.38 360.44 C 152.77 362.40 151.54 365.58 149.11 365.93 C 147.22 366.14 145.33 365.88 143.45 365.71 C 143.41 365.16 143.35 364.05 143.31 363.50 C 145.60 363.89 147.93 364.01 150.19 363.39 C 148.86 360.69 145.81 359.92 143.73 358.01 Z" />
<path fill="#e4e4e4" d=" M 154.45 353.13 C 155.02 353.11 156.18 353.08 156.75 353.07 C 156.77 356.67 156.75 360.28 157.18 363.86 C 158.63 363.78 160.09 363.69 161.55 363.58 C 162.16 360.13 162.21 356.63 162.20 353.14 C 162.78 353.14 163.95 353.14 164.53 353.15 C 164.54 357.38 164.52 361.62 164.57 365.85 C 161.37 365.03 156.92 367.56 154.83 364.10 C 154.03 360.51 154.54 356.77 154.45 353.13 Z" />
<path fill="#e4e4e4" d=" M 170.73 354.40 C 172.26 353.54 173.94 353.03 175.69 352.84 C 175.07 355.30 172.16 355.25 170.89 357.09 C 170.30 359.90 170.74 362.81 170.48 365.66 C 169.92 365.83 168.81 366.18 168.25 366.35 C 168.16 361.78 168.12 357.22 168.33 352.66 C 168.93 353.09 170.13 353.97 170.73 354.40 Z" />
<path fill="#e4e4e4" d=" M 180.26 365.69 C 174.47 363.29 176.19 351.93 183.10 353.13 C 186.44 353.54 186.99 357.30 187.39 359.98 C 184.58 360.01 181.77 360.01 178.97 360.08 C 179.47 361.30 179.98 362.51 180.50 363.74 C 182.72 363.73 184.95 363.67 187.18 363.67 C 186.12 366.56 182.67 366.33 180.26 365.69 Z" />
<path fill="#e4e4e4" d=" M 193.64 352.77 C 194.22 352.95 195.38 353.31 195.96 353.49 C 197.50 356.63 198.31 360.07 199.67 363.29 C 200.49 359.88 201.47 356.52 202.51 353.18 C 203.13 353.17 204.37 353.15 205.00 353.14 C 202.96 358.75 201.54 364.60 199.14 370.07 C 197.99 372.63 195.06 372.13 192.96 371.22 C 194.91 370.07 198.05 369.75 198.14 366.90 C 197.37 362.01 194.79 357.59 193.64 352.77 Z" />
<path fill="#e4e4e4" d=" M 209.33 353.40 C 212.59 351.99 216.54 354.36 216.80 357.89 C 217.52 361.21 216.10 366.02 212.04 366.04 C 205.16 367.02 203.54 355.74 209.33 353.40 Z" />
<path fill="#e4e4e4" d=" M 220.20 353.12 C 220.78 353.13 221.95 353.15 222.54 353.16 C 222.57 356.47 222.34 359.80 222.78 363.09 C 223.72 364.23 225.40 363.94 226.66 363.65 C 228.84 360.65 227.52 356.57 227.87 353.12 C 228.49 353.15 229.72 353.21 230.33 353.24 C 230.32 357.46 230.31 361.67 230.36 365.89 C 227.22 364.74 222.76 367.69 220.72 364.25 C 219.63 360.66 220.31 356.81 220.20 353.12 Z" />
<path fill="#e4e4e4" d=" M 238.18 353.07 C 238.80 353.09 240.03 353.15 240.65 353.18 C 241.42 356.47 242.06 359.79 242.69 363.11 C 243.62 359.77 244.57 356.43 245.50 353.09 C 246.14 353.13 247.41 353.20 248.04 353.24 C 248.87 356.64 249.79 360.02 250.55 363.43 C 251.28 360.02 252.07 356.61 252.79 353.19 C 253.37 353.17 254.53 353.13 255.10 353.11 C 254.20 357.44 253.08 361.72 252.11 366.04 C 251.38 366.01 249.92 365.95 249.19 365.92 C 248.42 362.85 247.64 359.79 246.79 356.75 C 245.67 359.89 244.76 363.11 243.85 366.32 C 243.20 366.13 241.92 365.76 241.27 365.58 C 240.04 361.46 239.25 357.22 238.18 353.07 Z" />
<path fill="#e4e4e4" d=" M 257.38 355.44 C 256.29 353.62 258.76 353.48 259.94 353.15 C 261.81 352.89 264.11 353.08 265.25 354.82 C 266.03 358.54 265.56 362.39 265.64 366.17 C 264.82 365.90 264.01 365.63 263.20 365.37 C 260.94 365.94 257.41 366.93 256.39 364.03 C 254.74 360.57 258.36 357.73 261.61 357.92 C 261.41 358.65 261.01 360.10 260.82 360.83 L 259.73 359.55 C 259.01 361.14 257.44 363.54 260.02 364.32 C 261.31 364.05 262.32 363.15 263.38 362.41 C 262.81 360.13 262.81 357.78 263.19 355.47 C 261.25 355.34 259.32 355.47 257.38 355.44 Z" />
<path fill="#e4e4e4" d=" M 268.84 353.37 C 271.92 354.03 276.13 351.79 278.35 354.75 C 279.52 358.34 278.92 362.21 279.05 365.92 C 278.44 365.95 277.21 366.00 276.60 366.03 C 276.59 362.49 276.60 358.96 276.42 355.43 C 274.72 355.37 272.51 354.64 271.64 356.64 C 271.06 359.73 271.38 362.89 271.32 366.01 C 270.70 366.00 269.47 365.96 268.85 365.94 C 268.85 361.75 268.85 357.56 268.84 353.37 Z" />
<path fill="#e4e4e4" d=" M 306.40 353.53 C 309.67 351.89 313.96 354.24 314.08 357.95 C 314.85 361.37 313.18 366.29 308.98 366.04 C 302.48 366.63 301.19 356.04 306.40 353.53 Z" />
<path fill="#e4e4e4" d=" M 323.35 362.65 C 321.40 358.75 323.95 352.07 329.06 353.15 C 332.40 353.53 332.99 357.28 333.40 359.96 C 330.58 360.02 327.77 360.01 324.96 360.08 C 325.43 361.29 325.92 362.50 326.41 363.72 C 328.65 363.72 330.89 363.67 333.14 363.68 C 331.39 367.65 324.56 366.61 323.35 362.65 Z" />
<path fill="#e4e4e4" d=" M 334.20 352.68 C 336.90 352.89 338.14 355.34 339.67 357.18 C 340.86 355.13 341.98 352.64 344.81 352.71 C 343.73 355.11 341.59 357.20 341.26 359.86 C 342.26 362.05 343.70 364.00 344.96 366.04 C 344.25 366.01 342.83 365.95 342.11 365.93 C 341.31 364.43 340.50 362.93 339.70 361.44 C 338.63 362.90 337.60 364.39 336.60 365.90 C 335.93 365.92 334.60 365.95 333.94 365.97 C 335.29 363.81 336.67 361.67 338.07 359.54 C 336.70 357.30 335.35 355.04 334.20 352.68 Z" />
<path fill="#e4e4e4" d=" M 347.45 353.14 C 348.03 353.13 349.19 353.11 349.77 353.10 C 349.82 357.40 349.81 361.71 349.81 366.02 C 349.21 366.00 348.01 365.98 347.41 365.96 C 347.44 361.69 347.42 357.41 347.45 353.14 Z" />
<path fill="#404140" d=" M 83.27 357.89 C 84.34 356.83 85.14 354.61 87.00 355.17 C 88.62 355.32 88.57 357.11 89.06 358.28 C 87.13 358.19 85.19 358.09 83.27 357.89 Z" />
<path fill="#404140" d=" M 113.24 356.75 C 113.97 354.56 117.23 354.60 118.40 356.38 C 118.97 358.62 118.93 361.07 118.22 363.28 C 116.79 363.86 115.21 363.78 113.71 363.91 C 113.11 361.61 112.00 359.03 113.24 356.75 Z" />
<path fill="#404140" d=" M 179.00 358.22 C 179.80 357.04 180.20 354.96 182.03 355.11 C 183.73 354.84 184.17 356.92 185.03 357.92 C 183.02 358.12 181.01 358.18 179.00 358.22 Z" />
<path fill="#404140" d=" M 209.25 363.77 C 208.20 361.06 207.17 356.02 210.91 355.12 C 215.57 354.68 214.70 360.86 213.69 363.72 C 212.21 363.75 210.73 363.76 209.25 363.77 Z" />
<path fill="#404140" d=" M 306.01 357.04 C 306.50 354.39 311.12 354.44 311.52 357.11 C 311.77 359.06 312.02 361.26 311.09 363.08 C 309.90 364.26 307.99 363.59 306.49 363.76 C 306.04 361.58 304.99 359.22 306.01 357.04 Z" />
<path fill="#404140" d=" M 324.97 358.14 C 325.80 357.02 326.20 354.84 328.02 355.14 C 329.89 354.69 330.14 357.02 330.78 358.19 C 328.84 358.20 326.90 358.18 324.97 358.14 Z" />
<path fill="#b6b6b6" d=" M 32.42 395.03 C 151.29 395.06 270.16 395.04 389.03 395.04 C 388.84 416.05 389.14 437.07 388.91 458.07 C 389.13 460.22 386.92 461.54 385.01 461.42 C 271.68 461.45 158.35 461.41 45.01 461.43 C 41.53 461.38 38.00 461.72 34.54 461.19 C 32.32 460.49 32.48 457.86 32.44 456.01 C 32.47 435.68 32.51 415.36 32.42 395.03 Z" />
<path fill="#e4e4e4" d=" M 43.00 402.00 C 96.38 401.99 149.76 402.05 203.13 401.97 C 203.92 403.23 205.12 404.39 205.14 405.98 C 205.47 411.82 204.64 417.65 204.83 423.50 C 202.14 422.11 199.13 422.43 196.31 423.19 C 193.96 422.18 191.45 421.40 188.92 422.23 C 184.23 423.41 179.58 420.62 174.90 422.02 C 170.56 423.21 166.15 422.15 161.78 422.12 C 155.22 422.96 148.61 422.37 142.02 422.60 C 139.38 422.70 136.76 422.31 134.16 421.93 C 131.90 421.54 129.87 422.94 127.83 423.68 C 127.75 423.18 127.60 422.17 127.53 421.66 C 124.59 422.64 121.48 422.85 118.54 421.74 C 118.00 421.60 117.47 421.46 116.93 421.33 C 116.16 423.18 115.38 425.02 114.59 426.87 C 114.21 426.80 113.45 426.65 113.08 426.58 C 112.43 424.92 111.78 423.27 111.03 421.67 C 110.59 421.61 109.72 421.49 109.29 421.43 C 107.61 421.22 105.94 421.06 104.26 420.87 C 103.69 421.08 102.55 421.49 101.98 421.69 C 101.41 421.51 100.26 421.16 99.69 420.98 C 97.37 421.45 94.99 421.52 92.66 421.05 C 86.95 421.92 81.14 421.88 75.43 421.02 C 73.18 421.49 70.89 421.51 68.64 421.08 C 62.07 422.45 55.44 420.89 48.86 421.38 C 48.04 421.23 47.22 421.08 46.40 420.94 C 44.47 421.29 42.53 421.64 40.59 421.99 C 40.40 420.91 40.24 419.82 40.11 418.73 C 39.96 414.19 39.94 409.65 39.76 405.12 C 40.84 404.08 41.92 403.04 43.00 402.00 Z" />
<path fill="#e4e4e4" d=" M 215.75 404.72 C 216.83 403.81 217.91 402.91 219.00 402.00 C 271.35 402.02 323.71 401.97 376.07 402.02 C 378.07 401.77 380.59 402.69 380.85 404.95 C 381.29 411.37 380.76 417.81 380.62 424.24 C 379.89 423.34 379.17 422.44 378.45 421.55 C 374.33 421.78 370.16 423.08 366.06 421.97 C 362.05 421.04 358.05 423.20 354.04 422.20 C 351.01 421.35 347.95 422.23 344.96 422.75 C 344.62 422.21 343.95 421.14 343.61 420.60 C 341.60 422.58 338.97 422.26 336.43 421.72 C 333.92 421.27 331.39 421.78 328.95 422.35 C 328.12 422.17 327.30 421.99 326.49 421.82 C 321.24 422.58 315.98 421.88 310.74 421.63 C 306.43 422.36 302.11 421.96 297.82 421.39 L 296.61 421.29 C 296.57 425.14 296.56 428.99 296.55 432.84 C 294.63 429.01 292.52 425.28 290.39 421.57 C 289.94 421.50 289.03 421.35 288.57 421.28 C 284.27 420.09 279.89 421.32 275.54 420.94 C 272.51 420.86 269.48 421.89 266.50 420.91 C 265.70 421.12 264.90 421.33 264.11 421.56 C 262.52 421.18 260.93 420.81 259.33 420.46 C 255.26 421.84 250.96 420.11 246.91 421.48 C 246.05 421.25 245.19 421.03 244.34 420.81 C 243.77 420.99 242.64 421.37 242.07 421.56 C 238.17 420.24 233.99 420.38 230.04 421.37 C 227.67 420.65 225.20 420.63 222.87 421.51 C 221.99 421.22 221.11 420.93 220.23 420.64 C 219.47 421.26 218.72 421.88 217.97 422.51 C 217.31 423.85 216.65 425.20 215.99 426.55 C 215.92 419.27 215.97 411.99 215.75 404.72 Z" />
<path fill="#404140" d=" M 39.34 419.96 C 39.60 414.53 38.91 409.06 39.67 403.66 L 39.76 405.12 C 39.94 409.65 39.96 414.19 40.11 418.73 C 39.63 428.83 39.88 438.96 39.95 449.07 C 39.63 451.93 42.10 454.54 45.02 454.03 C 97.65 454.00 150.28 454.04 202.91 454.01 C 203.77 453.33 204.65 452.66 205.52 451.99 C 205.91 442.96 205.45 433.91 206.09 424.89 C 206.54 417.87 206.08 410.83 206.45 403.81 C 207.11 417.17 206.15 430.55 206.58 443.92 C 206.57 446.47 206.76 449.05 206.35 451.59 C 205.62 454.27 202.58 455.48 200.02 455.27 C 150.33 455.25 100.65 455.24 50.96 455.27 C 47.80 455.12 44.36 455.84 41.44 454.33 C 38.63 452.57 39.05 448.88 38.96 446.04 C 39.16 437.35 38.98 428.65 39.34 419.96 Z" />
<path fill="#404140" d=" M 215.70 403.89 L 215.75 404.72 C 215.97 411.99 215.92 419.27 215.99 426.55 C 215.88 434.39 215.84 442.23 216.02 450.07 C 215.82 452.76 218.54 454.42 220.98 454.04 C 272.66 454.01 324.35 454.00 376.04 454.04 C 377.93 454.19 379.99 453.72 380.98 451.93 C 381.72 448.10 381.21 444.16 381.50 440.29 C 382.18 444.65 381.86 449.07 381.60 453.46 C 377.87 455.97 373.28 455.20 369.05 455.26 C 319.68 455.24 270.30 455.26 220.93 455.25 C 217.97 455.54 214.92 453.18 215.09 450.08 C 214.77 439.04 215.38 427.99 215.29 416.95 C 215.30 412.59 215.07 408.21 215.70 403.89 Z" />
<path fill="#000000" d=" M 109.29 421.43 C 109.72 421.49 110.59 421.61 111.03 421.67 C 111.78 423.27 112.43 424.92 113.08 426.58 C 113.45 426.65 114.21 426.80 114.59 426.87 C 115.38 425.02 116.16 423.18 116.93 421.33 C 117.47 421.46 118.00 421.60 118.54 421.74 C 116.27 425.82 113.84 430.10 114.48 434.96 C 114.20 434.97 113.62 434.99 113.33 435.00 C 113.33 433.30 113.33 431.62 113.34 429.93 C 111.99 427.10 110.63 424.27 109.29 421.43 Z" />
<path fill="#000000" d=" M 288.57 421.28 C 289.03 421.35 289.94 421.50 290.39 421.57 C 292.52 425.28 294.63 429.01 296.55 432.84 C 296.56 428.99 296.57 425.14 296.61 421.29 L 297.82 421.39 C 297.85 426.14 297.98 430.90 297.73 435.65 C 293.72 432.73 292.76 427.38 289.73 423.61 C 289.73 427.66 289.98 431.72 289.55 435.76 C 287.24 431.41 289.10 426.04 288.57 421.28 Z" />
<path fill="#000000" d=" M 122.06 434.62 C 118.07 432.75 119.02 424.54 124.03 425.16 C 126.65 425.12 126.86 428.07 127.44 429.93 C 125.27 429.94 123.11 429.93 120.94 429.94 C 121.25 431.10 121.56 432.27 121.88 433.44 C 123.73 433.54 125.58 433.62 127.42 433.79 C 125.80 434.68 123.88 435.33 122.06 434.62 Z" />
<path fill="#000000" d=" M 129.16 427.94 C 128.74 424.41 133.45 424.64 135.44 426.24 C 133.64 426.34 131.85 426.43 130.05 426.53 C 130.69 428.86 133.22 429.51 134.78 431.05 C 134.79 432.22 134.77 433.40 134.69 434.58 C 132.54 434.69 130.10 435.33 128.34 433.71 C 130.23 433.61 132.13 433.59 134.03 433.50 C 133.84 430.53 129.99 430.36 129.16 427.94 Z" />
<path fill="#000000" d=" M 301.26 432.83 C 299.25 429.65 301.56 423.76 305.95 425.31 C 309.79 426.76 309.13 431.72 307.37 434.61 C 305.25 434.68 302.16 435.45 301.26 432.83 Z" />
<path fill="#b6b6b6" d=" M 121.17 428.79 C 121.33 428.13 121.66 426.81 121.82 426.15 C 123.79 426.06 125.21 426.84 126.09 428.47 C 124.45 428.61 122.81 428.71 121.17 428.79 Z" />
<path fill="#b6b6b6" d=" M 302.57 426.52 C 303.55 426.46 305.52 426.34 306.50 426.29 C 307.40 428.72 307.40 431.28 306.49 433.72 C 305.52 433.66 303.56 433.54 302.58 433.48 C 302.12 431.17 302.12 428.82 302.57 426.52 Z" />
</svg>
