<?xml version="1.0" encoding="UTF-8" ?>
<!DOCTYPE svg PUBLIC "-//W3C//DTD SVG 1.1//EN" "http://www.w3.org/Graphics/SVG/1.1/DTD/svg11.dtd">
<svg width="300pt" height="261pt" viewBox="0 0 300 261" version="1.1" xmlns="http://www.w3.org/2000/svg">
<path fill="#ffffff" d=" M 0.00 0.00 L 300.00 0.00 L 300.00 261.00 L 0.00 261.00 L 0.00 0.00 Z" />
<path fill="#0000ff" d=" M 109.15 3.23 C 109.80 2.90 110.46 2.57 111.12 2.23 C 111.02 6.68 112.45 11.82 117.57 12.06 C 118.43 8.55 119.17 5.01 120.03 1.49 C 120.28 4.28 120.80 9.86 121.05 12.66 C 117.72 12.61 114.37 12.73 111.04 12.82 C 110.40 9.63 109.79 6.43 109.15 3.23 Z" />
<path fill="#0000ff" d=" M 124.91 12.95 C 125.57 9.13 126.13 5.30 126.91 1.50 C 127.22 4.38 127.84 10.13 128.15 13.01 C 127.34 13.00 125.72 12.97 124.91 12.95 Z" />
<path fill="#0000ff" d=" M 131.50 13.19 C 134.46 10.08 136.17 6.10 138.33 2.44 C 138.25 4.98 138.10 10.05 138.02 12.58 C 135.84 12.75 133.67 12.96 131.50 13.19 Z" />
<path fill="#0000ff" d=" M 143.18 2.98 C 146.18 4.13 150.29 3.79 152.72 6.34 C 154.01 8.69 153.67 11.80 151.78 13.73 C 148.95 14.51 145.97 14.33 143.06 14.52 C 142.63 12.40 142.21 10.27 141.81 8.14 C 145.19 8.52 148.57 8.91 151.96 9.24 C 149.39 6.68 146.28 4.79 143.18 2.98 Z" />
<path fill="#0000ff" d=" M 157.70 6.73 C 161.16 7.47 164.64 8.39 167.72 10.17 C 165.15 9.59 162.62 8.87 160.08 8.14 C 159.86 8.52 159.41 9.29 159.19 9.67 C 161.24 12.26 163.43 14.75 165.16 17.57 C 161.86 17.36 158.57 17.10 155.39 16.19 C 157.81 16.22 160.24 16.33 162.67 16.43 C 160.85 14.19 158.86 12.10 156.85 10.03 C 157.07 9.20 157.49 7.56 157.70 6.73 Z" />
<path fill="#ffffff" d=" M 143.09 10.42 C 145.98 10.69 148.84 11.16 151.69 11.74 C 148.66 13.67 145.43 13.12 143.09 10.42 Z" />
<path fill="#0000ff" d=" M 169.74 9.93 C 172.82 11.02 176.33 11.69 178.62 14.21 C 178.45 16.84 178.26 19.48 177.89 22.09 C 175.83 22.08 171.70 22.04 169.63 22.03 C 169.03 19.65 168.35 17.25 167.85 14.86 C 171.22 15.79 174.58 16.78 178.00 17.55 C 175.78 14.47 172.70 12.23 169.74 9.93 Z" />
<path fill="#0000ff" d=" M 125.16 14.10 C 127.78 13.78 126.34 17.84 124.30 17.02 C 122.67 16.46 123.83 14.20 125.16 14.10 Z" />
<path fill="#0000ff" d=" M 183.19 15.14 C 184.96 16.15 186.72 17.19 188.48 18.22 C 186.85 22.18 185.45 26.41 182.40 29.55 C 181.41 27.64 180.36 25.76 179.26 23.92 C 180.67 24.34 182.08 24.76 183.49 25.17 C 184.16 21.84 184.25 18.40 183.19 15.14 Z" />
<path fill="#ffffff" d=" M 170.06 16.87 C 171.90 17.45 173.74 18.02 175.58 18.60 C 175.56 19.15 175.53 20.25 175.51 20.80 C 173.68 20.61 171.85 20.38 170.03 20.15 C 170.04 19.33 170.06 17.69 170.06 16.87 Z" />
<path fill="#0000ff" d=" M 189.07 29.75 C 188.93 25.71 192.08 22.69 194.90 20.26 C 193.80 23.90 192.24 27.37 190.73 30.84 C 195.46 32.67 199.27 29.39 202.83 26.56 C 201.21 29.49 199.47 32.35 197.78 35.23 C 194.79 33.56 191.35 32.41 189.07 29.75 Z" />
<path fill="#0000ff" d=" M 202.89 40.09 C 200.64 36.79 202.93 31.54 206.98 31.26 C 209.91 31.42 212.97 33.26 213.55 36.31 C 213.85 38.94 212.96 41.52 212.48 44.08 C 209.62 42.82 204.61 43.56 202.89 40.09 Z" />
<path fill="#ffffff" d=" M 203.31 39.52 C 204.54 37.11 205.93 34.78 207.43 32.51 C 209.18 33.50 210.93 34.49 212.69 35.48 C 211.45 37.89 210.07 40.22 208.57 42.49 C 206.82 41.49 205.06 40.51 203.31 39.52 Z" />
<path fill="#0000ff" d=" M 118.46 38.52 C 161.58 35.14 203.83 63.53 219.37 103.40 C 226.48 120.45 227.72 139.48 225.66 157.69 C 219.69 201.05 182.85 238.52 139.34 244.38 C 119.66 247.17 99.04 245.39 80.83 237.11 C 58.81 226.92 40.16 209.25 29.56 187.36 C 12.73 152.71 16.38 108.18 41.24 78.25 C 59.38 54.39 88.43 39.21 118.46 38.52 Z" />
<path fill="#0000ff" d=" M 209.54 52.82 C 212.41 48.09 215.21 42.58 220.85 40.82 C 218.41 44.32 215.78 47.68 213.04 50.94 C 217.37 49.07 221.85 47.54 226.48 46.59 C 225.28 50.83 223.65 54.93 222.10 59.06 C 225.13 56.75 228.13 54.42 231.16 52.11 C 231.37 52.77 231.79 54.10 232.00 54.76 C 227.81 57.63 223.65 60.53 219.39 63.28 C 219.79 58.23 221.81 53.53 223.81 48.94 C 219.15 50.56 214.47 52.28 209.54 52.82 Z" />
<path fill="#ffffff" d=" M 117.45 46.45 C 147.48 43.74 177.42 57.56 196.49 80.55 C 225.40 113.26 226.45 166.97 198.68 200.69 C 193.54 207.17 187.64 213.02 181.21 218.21 C 148.24 244.45 96.94 244.54 64.31 217.68 C 51.08 207.28 40.38 193.66 33.88 178.12 C 23.73 151.05 24.66 118.94 39.97 93.97 C 55.97 66.78 85.53 47.31 117.45 46.45 Z" />
<path fill="#0000ff" d=" M 230.87 67.85 C 233.41 66.89 235.91 65.32 238.71 65.36 C 243.02 66.44 243.69 71.82 245.13 75.15 C 242.58 76.11 240.09 77.68 237.29 77.64 C 232.98 76.56 232.30 71.18 230.87 67.85 Z" />
<path fill="#ffffff" d=" M 233.18 68.34 C 235.75 68.32 240.39 66.27 241.41 69.63 C 243.17 72.96 238.73 74.81 236.94 76.91 C 235.56 74.12 234.29 71.24 233.18 68.34 Z" />
<path fill="#0000ff" d=" M 234.12 86.71 C 238.06 82.45 243.60 80.30 249.05 78.68 C 244.47 82.04 239.44 84.74 234.12 86.71 Z" />
<path fill="#0000ff" d=" M 242.06 90.00 C 243.34 87.28 246.07 85.43 248.97 84.82 C 253.00 87.10 253.70 92.00 255.07 96.00 C 250.03 97.30 245.03 99.02 239.80 99.40 C 241.58 98.50 243.38 97.62 245.18 96.76 C 243.97 94.60 242.65 92.43 242.06 90.00 Z" />
<path fill="#ffffff" d=" M 245.21 89.34 C 247.23 88.67 249.30 88.14 251.42 87.74 C 251.48 89.45 251.61 92.87 251.67 94.58 C 249.80 94.68 246.05 94.87 244.18 94.96 C 244.42 93.08 244.50 91.13 245.21 89.34 Z" />
<path fill="#0000ff" d=" M 246.45 103.95 C 249.73 102.49 253.07 101.17 256.43 99.90 C 257.30 103.63 258.36 107.30 259.25 111.02 C 257.88 111.42 256.50 111.81 255.13 112.20 C 253.40 109.34 251.73 106.45 249.96 103.61 C 249.69 106.55 249.74 109.51 249.90 112.45 C 248.65 109.66 247.52 106.81 246.45 103.95 Z" />
<path fill="#ffffff" d=" M 253.75 102.75 C 255.33 104.45 256.82 106.24 258.24 108.07 C 256.71 108.45 255.18 108.83 253.65 109.20 C 253.63 107.05 253.65 104.90 253.75 102.75 Z" />
<path fill="#0000ff" d=" M 246.85 117.78 C 248.89 116.98 250.96 116.21 253.04 115.48 C 254.35 118.17 255.57 120.92 256.62 123.73 C 258.40 123.43 260.17 123.14 261.95 122.87 C 261.96 123.60 261.98 125.07 261.99 125.80 C 257.33 126.02 252.69 126.36 248.05 126.81 C 247.64 123.80 247.22 120.78 246.85 117.78 Z" />
<path fill="#ffffff" d=" M 249.35 118.44 C 250.57 118.24 251.79 118.06 253.01 117.87 C 253.71 119.82 254.41 121.76 255.11 123.70 C 253.07 124.11 251.03 124.53 249.00 124.96 C 249.09 123.33 249.27 120.07 249.35 118.44 Z" />
</svg>
