<?xml version="1.0" encoding="UTF-8" ?>
<!DOCTYPE svg PUBLIC "-//W3C//DTD SVG 1.1//EN" "http://www.w3.org/Graphics/SVG/1.1/DTD/svg11.dtd">
<svg width="710pt" height="427pt" viewBox="0 0 710 427" version="1.1" xmlns="http://www.w3.org/2000/svg">
<path fill="#000000" d=" M 0.00 0.00 L 696.60 0.00 C 695.14 1.19 693.35 1.74 691.54 2.07 C 691.50 5.13 691.51 8.18 691.49 11.24 C 691.45 15.73 691.50 20.23 691.51 24.72 C 695.97 24.74 700.42 24.73 704.88 24.75 C 704.97 17.07 705.02 9.39 705.00 1.71 C 703.58 1.67 702.14 1.62 700.74 1.58 L 700.69 0.00 L 710.00 0.00 L 710.00 32.00 C 473.33 32.00 236.67 32.00 0.00 32.00 L 0.00 0.00 Z" />
<path fill="#c6c6c6" d=" M 696.60 0.00 L 700.69 0.00 L 700.74 1.58 C 702.14 1.62 703.58 1.67 705.00 1.71 C 704.04 1.93 703.09 2.14 702.15 2.36 C 702.75 2.78 703.95 3.61 704.55 4.03 C 704.46 8.09 704.27 12.54 700.74 15.20 C 701.12 14.04 701.51 12.86 701.88 11.69 C 701.19 11.45 699.82 10.96 699.13 10.72 C 699.80 9.08 700.48 7.44 701.17 5.79 C 699.35 5.71 697.55 5.62 695.75 5.54 C 695.19 7.85 694.64 10.17 694.10 12.48 C 693.22 12.07 692.35 11.65 691.49 11.24 C 691.51 8.18 691.50 5.13 691.54 2.07 C 693.35 1.74 695.14 1.19 696.60 0.00 Z" />
<path fill="#aaaaaa" d=" M 702.15 2.36 C 703.09 2.14 704.04 1.93 705.00 1.71 C 705.02 9.39 704.97 17.07 704.88 24.75 C 700.42 24.73 695.97 24.74 691.51 24.72 C 691.50 20.23 691.45 15.73 691.49 11.24 C 692.35 11.65 693.22 12.07 694.10 12.48 C 694.79 12.80 696.16 13.45 696.85 13.77 C 696.40 16.24 695.95 18.71 695.54 21.19 C 697.27 19.20 699.00 17.20 700.74 15.20 C 704.27 12.54 704.46 8.09 704.55 4.03 C 703.95 3.61 702.75 2.78 702.15 2.36 Z" />
<path fill="#101727" d=" M 663.36 3.56 C 669.11 3.05 674.95 3.05 680.71 3.54 C 683.32 3.64 683.37 7.12 683.05 9.04 C 681.80 14.17 679.52 19.00 677.71 23.95 C 676.51 27.68 671.67 30.22 668.31 27.53 C 665.77 24.80 665.00 20.96 663.57 17.61 C 662.26 13.60 659.65 9.66 660.42 5.27 C 661.14 4.36 662.20 3.73 663.36 3.56 Z" />
<path fill="#3d5c99" d=" M 662.34 6.44 C 668.61 6.39 674.90 5.42 681.17 6.21 C 680.09 9.26 678.98 12.30 677.98 15.37 C 673.95 15.41 669.92 15.41 665.90 15.41 C 664.91 12.34 663.70 9.36 662.34 6.44 Z" />
<path fill="#fefefe" d=" M 694.10 12.48 C 694.64 10.17 695.19 7.85 695.75 5.54 C 697.55 5.62 699.35 5.71 701.17 5.79 C 700.48 7.44 699.80 9.08 699.13 10.72 C 699.82 10.96 701.19 11.45 701.88 11.69 C 701.51 12.86 701.12 14.04 700.74 15.20 C 699.00 17.20 697.27 19.20 695.54 21.19 C 695.95 18.71 696.40 16.24 696.85 13.77 C 696.16 13.45 694.79 12.80 694.10 12.48 Z" />
<path fill="#3d5c99" d=" M 666.19 15.73 C 669.98 15.63 673.78 15.65 677.57 15.76 C 676.30 19.02 675.42 22.47 673.70 25.53 C 672.47 25.73 671.24 25.87 670.02 25.97 C 668.60 22.61 667.23 19.23 666.19 15.73 Z" />
<path fill="#959695" d=" M 0.00 32.00 C 236.67 32.00 473.33 32.00 710.00 32.00 L 710.00 44.35 C 526.01 44.17 342.02 44.35 158.03 44.27 C 150.61 44.57 143.08 43.50 135.76 45.09 C 134.78 43.94 133.78 42.80 132.79 41.67 C 132.36 45.85 132.54 50.06 132.91 54.23 C 132.23 52.32 131.54 50.42 130.85 48.52 C 130.47 50.57 130.09 52.63 129.72 54.69 C 129.42 54.67 128.83 54.64 128.53 54.62 C 129.64 50.98 129.71 47.15 128.44 43.54 C 127.98 46.53 127.68 49.54 127.43 52.55 C 126.24 52.76 125.04 52.97 123.85 53.19 C 123.47 49.93 122.98 46.69 122.32 43.48 C 121.81 45.25 121.30 47.02 120.80 48.80 C 120.35 49.93 119.86 51.04 119.32 52.13 C 119.24 49.27 119.56 44.87 115.94 44.10 C 112.50 43.08 110.85 46.66 109.22 48.90 C 108.50 49.26 107.78 49.61 107.07 49.97 C 107.74 47.90 108.26 45.79 108.66 43.65 C 106.33 45.52 105.38 48.42 104.37 51.11 C 103.33 48.48 102.21 45.87 100.83 43.40 C 100.82 45.13 100.92 46.87 101.26 48.57 C 100.51 48.63 98.99 48.75 98.23 48.81 C 97.81 47.17 97.76 44.75 95.68 44.34 C 93.29 43.42 91.36 45.34 89.64 46.67 C 91.75 46.44 93.86 46.16 95.97 45.87 C 95.94 46.54 95.90 47.88 95.87 48.55 C 93.84 48.85 91.81 49.19 89.76 49.35 C 87.44 49.23 85.14 48.94 82.84 48.70 C 82.67 45.80 83.16 42.59 81.33 40.10 C 80.81 44.78 80.90 49.51 81.24 54.20 C 79.99 51.48 77.57 50.36 74.65 50.67 C 73.87 48.72 73.37 46.63 72.18 44.88 C 70.46 43.71 67.81 43.76 66.29 45.25 C 65.26 47.07 64.91 49.18 64.25 51.15 C 63.87 52.42 63.44 53.67 63.02 54.92 C 62.99 51.04 62.95 47.15 62.44 43.29 C 60.28 46.32 60.86 50.18 61.09 53.66 C 60.79 53.47 60.18 53.10 59.88 52.91 C 59.46 52.67 58.62 52.19 58.20 51.95 C 56.59 52.19 55.01 52.57 53.38 52.64 C 52.43 50.62 51.76 47.30 54.11 45.99 C 55.82 46.29 57.42 47.02 59.04 47.66 C 58.95 46.97 58.79 45.58 58.71 44.89 C 56.54 44.60 53.93 43.24 52.08 45.06 C 50.12 47.10 51.10 50.29 50.87 52.85 C 50.14 52.26 49.42 51.66 48.71 51.05 C 48.98 48.40 48.59 45.71 47.32 43.35 C 46.63 47.27 46.04 51.56 48.39 55.07 L 48.45 55.21 C 48.06 55.00 47.28 54.56 46.89 54.34 C 46.29 53.69 45.69 53.05 45.08 52.42 C 44.85 52.20 44.40 51.77 44.17 51.56 C 42.61 52.19 41.08 52.92 39.54 53.62 C 37.77 50.94 37.73 47.82 39.47 45.11 C 41.40 46.02 43.34 46.93 45.30 47.78 C 44.02 45.99 42.61 43.49 39.95 44.28 C 36.65 44.31 36.83 48.49 35.62 50.69 C 35.12 50.84 34.13 51.12 33.63 51.27 C 33.23 52.41 32.84 53.56 32.44 54.71 C 31.97 54.79 31.03 54.95 30.56 55.03 L 30.56 55.02 C 32.48 51.36 32.05 46.54 36.05 44.21 C 34.19 44.35 32.33 44.47 30.46 44.57 C 30.37 46.56 30.28 48.56 30.32 50.56 C 29.88 50.99 29.02 51.86 28.59 52.29 C 25.82 53.30 23.09 52.90 21.45 50.29 C 24.03 50.06 26.62 49.88 29.21 49.70 C 28.72 48.23 28.33 46.72 27.64 45.32 C 26.28 43.36 22.94 43.65 21.54 45.42 C 20.48 47.31 20.04 49.47 19.37 51.51 L 18.54 50.54 C 18.48 48.47 18.44 46.40 18.38 44.34 C 17.93 44.36 17.01 44.41 16.56 44.43 C 16.56 46.34 16.56 48.26 16.56 50.17 C 13.71 50.45 10.86 50.73 8.00 51.00 C 7.90 50.31 7.71 48.91 7.61 48.22 C 9.91 47.99 12.21 47.75 14.51 47.51 C 12.34 47.14 10.16 46.78 7.99 46.42 C 7.93 45.30 7.87 44.18 7.81 43.07 C 10.47 42.72 13.13 42.29 15.68 41.41 C 12.47 41.01 9.24 40.88 6.00 40.86 C 6.00 45.16 6.00 49.47 6.02 53.78 C 4.01 53.39 2.01 52.96 0.00 52.55 L 0.00 32.00 Z" />
<path fill="#b7b7b7" d=" M 17.09 40.23 C 20.43 40.37 15.53 43.19 17.09 40.23 Z" />
<path fill="#b1b1b1" d=" M 46.98 40.15 C 48.61 39.63 49.17 40.18 48.65 41.80 C 47.02 42.32 46.46 41.76 46.98 40.15 Z" />
<path fill="#b4b4b4" d=" M 6.00 40.86 C 9.24 40.88 12.47 41.01 15.68 41.41 C 13.13 42.29 10.47 42.72 7.81 43.07 C 7.87 44.18 7.93 45.30 7.99 46.42 C 10.16 46.78 12.34 47.14 14.51 47.51 C 12.21 47.75 9.91 47.99 7.61 48.22 C 7.71 48.91 7.90 50.31 8.00 51.00 C 8.06 51.32 8.17 51.96 8.23 52.28 C 10.75 52.65 13.28 52.98 15.70 53.79 C 12.50 54.43 9.21 54.49 6.02 53.78 C 6.00 49.47 6.00 45.16 6.00 40.86 Z" />
<path fill="#b4b4b4" d=" M 81.33 40.10 C 83.16 42.59 82.67 45.80 82.84 48.70 C 82.86 49.95 82.89 51.21 82.92 52.46 C 85.23 52.63 87.55 52.84 89.85 53.15 C 87.20 54.61 84.15 54.39 81.24 54.20 C 80.90 49.51 80.81 44.78 81.33 40.10 Z" />
<path fill="#b4b4b4" d=" M 132.79 41.67 C 133.78 42.80 134.78 43.94 135.76 45.09 C 133.46 47.88 134.72 51.44 135.78 54.45 C 135.06 54.40 133.63 54.29 132.91 54.23 C 132.54 50.06 132.36 45.85 132.79 41.67 Z" />
<path fill="#b9b9b9" d=" M 16.56 44.43 C 17.01 44.41 17.93 44.36 18.38 44.34 C 18.44 46.40 18.48 48.47 18.54 50.54 C 18.52 52.76 18.43 54.97 18.34 57.18 C 17.74 57.48 16.54 58.07 15.94 58.37 C 15.47 58.25 14.52 58.00 14.05 57.88 C 14.67 57.39 15.91 56.41 16.53 55.92 C 16.54 54.00 16.55 52.09 16.56 50.17 C 16.56 48.26 16.56 46.34 16.56 44.43 Z" />
<path fill="#aeaeae" d=" M 21.54 45.42 C 22.94 43.65 26.28 43.36 27.64 45.32 C 28.33 46.72 28.72 48.23 29.21 49.70 C 26.62 49.88 24.03 50.06 21.45 50.29 C 23.09 52.90 25.82 53.30 28.59 52.29 C 27.49 53.18 26.57 54.71 24.96 54.64 C 22.72 54.57 21.05 52.79 19.37 51.51 C 20.04 49.47 20.48 47.31 21.54 45.42 Z" />
<path fill="#afafae" d=" M 30.46 44.57 C 32.33 44.47 34.19 44.35 36.05 44.21 C 32.05 46.54 32.48 51.36 30.56 55.02 C 30.50 53.91 30.38 51.67 30.32 50.56 C 30.28 48.56 30.37 46.56 30.46 44.57 Z" />
<path fill="#b9b9b9" d=" M 35.62 50.69 C 36.83 48.49 36.65 44.31 39.95 44.28 C 42.61 43.49 44.02 45.99 45.30 47.78 C 43.34 46.93 41.40 46.02 39.47 45.11 C 37.73 47.82 37.77 50.94 39.54 53.62 C 41.08 52.92 42.61 52.19 44.17 51.56 C 44.40 51.77 44.85 52.20 45.08 52.42 C 43.26 53.43 41.24 55.31 39.04 54.16 C 37.73 53.18 36.72 51.89 35.62 50.69 Z" />
<path fill="#b1b1b1" d=" M 47.32 43.35 C 48.59 45.71 48.98 48.40 48.71 51.05 C 48.63 52.06 48.47 54.06 48.39 55.07 C 46.04 51.56 46.63 47.27 47.32 43.35 Z" />
<path fill="#adadad" d=" M 52.08 45.06 C 53.93 43.24 56.54 44.60 58.71 44.89 C 58.79 45.58 58.95 46.97 59.04 47.66 C 57.42 47.02 55.82 46.29 54.11 45.99 C 51.76 47.30 52.43 50.62 53.38 52.64 C 55.01 52.57 56.59 52.19 58.20 51.95 C 58.62 52.19 59.46 52.67 59.88 52.91 C 56.99 54.44 53.55 55.31 50.87 52.85 C 51.10 50.29 50.12 47.10 52.08 45.06 Z" />
<path fill="#aeaeae" d=" M 61.09 53.66 C 60.86 50.18 60.28 46.32 62.44 43.29 C 62.95 47.15 62.99 51.04 63.02 54.92 C 62.54 54.60 61.58 53.97 61.09 53.66 Z" />
<path fill="#b1b1b1" d=" M 66.29 45.25 C 67.81 43.76 70.46 43.71 72.18 44.88 C 73.37 46.63 73.87 48.72 74.65 50.67 C 73.20 52.09 72.06 54.41 69.79 54.54 C 67.34 54.90 65.86 52.55 64.25 51.15 C 64.91 49.18 65.26 47.07 66.29 45.25 Z" />
<path fill="#b3b3b3" d=" M 89.64 46.67 C 91.36 45.34 93.29 43.42 95.68 44.34 C 97.76 44.75 97.81 47.17 98.23 48.81 C 98.22 50.65 98.16 52.49 98.10 54.33 C 95.77 54.32 93.42 54.41 91.10 54.10 C 90.19 52.69 90.19 50.92 89.76 49.35 C 91.81 49.19 93.84 48.85 95.87 48.55 C 95.90 47.88 95.94 46.54 95.97 45.87 C 93.86 46.16 91.75 46.44 89.64 46.67 Z" />
<path fill="#b1b1b1" d=" M 100.83 43.40 C 102.21 45.87 103.33 48.48 104.37 51.11 C 105.38 48.42 106.33 45.52 108.66 43.65 C 108.26 45.79 107.74 47.90 107.07 49.97 C 105.82 53.40 104.71 57.42 100.99 58.96 C 101.66 57.30 102.45 55.70 102.94 53.98 C 102.65 52.10 101.85 50.36 101.26 48.57 C 100.92 46.87 100.82 45.13 100.83 43.40 Z" />
<path fill="#aeadad" d=" M 109.22 48.90 C 110.85 46.66 112.50 43.08 115.94 44.10 C 119.56 44.87 119.24 49.27 119.32 52.13 C 118.12 53.96 115.83 55.01 113.67 54.48 C 110.94 54.06 110.43 50.88 109.22 48.90 Z" />
<path fill="#b2b2b2" d=" M 122.32 43.48 C 122.98 46.69 123.47 49.93 123.85 53.19 C 125.04 52.97 126.24 52.76 127.43 52.55 C 127.68 49.54 127.98 46.53 128.44 43.54 C 129.71 47.15 129.64 50.98 128.53 54.62 C 126.49 54.41 124.33 54.54 122.42 53.68 C 121.61 52.16 121.22 50.46 120.80 48.80 C 121.30 47.02 121.81 45.25 122.32 43.48 Z" />
<path fill="#868686" d=" M 135.76 45.09 C 143.08 43.50 150.61 44.57 158.03 44.27 C 342.02 44.35 526.01 44.17 710.00 44.35 L 710.00 64.96 C 473.33 64.96 236.67 64.96 0.00 64.96 L 0.00 52.55 C 2.01 52.96 4.01 53.39 6.02 53.78 C 9.21 54.49 12.50 54.43 15.70 53.79 C 13.28 52.98 10.75 52.65 8.23 52.28 C 8.17 51.96 8.06 51.32 8.00 51.00 C 10.86 50.73 13.71 50.45 16.56 50.17 C 16.55 52.09 16.54 54.00 16.53 55.92 C 15.91 56.41 14.67 57.39 14.05 57.88 C 14.52 58.00 15.47 58.25 15.94 58.37 C 16.54 58.07 17.74 57.48 18.34 57.18 C 18.43 54.97 18.52 52.76 18.54 50.54 L 19.37 51.51 C 21.05 52.79 22.72 54.57 24.96 54.64 C 26.57 54.71 27.49 53.18 28.59 52.29 C 29.02 51.86 29.88 50.99 30.32 50.56 C 30.38 51.67 30.50 53.91 30.56 55.02 L 30.56 55.03 C 31.03 54.95 31.97 54.79 32.44 54.71 C 32.84 53.56 33.23 52.41 33.63 51.27 C 34.13 51.12 35.12 50.84 35.62 50.69 C 36.72 51.89 37.73 53.18 39.04 54.16 C 41.24 55.31 43.26 53.43 45.08 52.42 C 45.69 53.05 46.29 53.69 46.89 54.34 C 47.28 54.56 48.06 55.00 48.45 55.21 L 48.39 55.07 C 48.47 54.06 48.63 52.06 48.71 51.05 C 49.42 51.66 50.14 52.26 50.87 52.85 C 53.55 55.31 56.99 54.44 59.88 52.91 C 60.18 53.10 60.79 53.47 61.09 53.66 C 61.58 53.97 62.54 54.60 63.02 54.92 C 63.44 53.67 63.87 52.42 64.25 51.15 C 65.86 52.55 67.34 54.90 69.79 54.54 C 72.06 54.41 73.20 52.09 74.65 50.67 C 77.57 50.36 79.99 51.48 81.24 54.20 C 84.15 54.39 87.20 54.61 89.85 53.15 C 87.55 52.84 85.23 52.63 82.92 52.46 C 82.89 51.21 82.86 49.95 82.84 48.70 C 85.14 48.94 87.44 49.23 89.76 49.35 C 90.19 50.92 90.19 52.69 91.10 54.10 C 93.42 54.41 95.77 54.32 98.10 54.33 C 98.16 52.49 98.22 50.65 98.23 48.81 C 98.99 48.75 100.51 48.63 101.26 48.57 C 101.85 50.36 102.65 52.10 102.94 53.98 C 102.45 55.70 101.66 57.30 100.99 58.96 C 104.71 57.42 105.82 53.40 107.07 49.97 C 107.78 49.61 108.50 49.26 109.22 48.90 C 110.43 50.88 110.94 54.06 113.67 54.48 C 115.83 55.01 118.12 53.96 119.32 52.13 C 119.86 51.04 120.35 49.93 120.80 48.80 C 121.22 50.46 121.61 52.16 122.42 53.68 C 124.33 54.54 126.49 54.41 128.53 54.62 C 128.83 54.64 129.42 54.67 129.72 54.69 C 130.09 52.63 130.47 50.57 130.85 48.52 C 131.54 50.42 132.23 52.32 132.91 54.23 C 133.63 54.29 135.06 54.40 135.78 54.45 C 134.72 51.44 133.46 47.88 135.76 45.09 Z" />
<path fill="#939393" d=" M 21.75 47.94 C 22.82 47.27 23.57 45.70 25.01 45.91 C 25.83 46.50 26.62 47.14 27.38 47.81 C 25.51 47.90 23.63 47.95 21.75 47.94 Z" />
<path fill="#8b8c8b" d=" M 67.22 46.17 C 69.23 46.12 72.21 46.06 71.95 48.92 C 72.55 51.74 70.27 52.97 67.86 53.20 C 67.16 50.92 67.03 48.54 67.22 46.17 Z" />
<path fill="#8b8c8b" d=" M 113.09 53.04 C 112.63 50.88 110.97 46.79 114.22 46.20 C 116.86 45.43 117.99 48.97 117.05 50.91 C 116.81 52.94 114.53 52.57 113.09 53.04 Z" />
<path fill="#929191" d=" M 92.14 50.11 C 93.59 50.03 95.03 49.95 96.48 49.89 C 96.14 52.24 94.27 52.93 92.18 53.14 C 92.17 52.38 92.15 50.87 92.14 50.11 Z" />
<path fill="#000000" d=" M 0.00 64.96 C 236.67 64.96 473.33 64.96 710.00 64.96 L 710.00 427.00 L 0.00 427.00 L 0.00 64.96 Z" />
<path fill="#989898" d=" M 305.76 187.95 C 305.67 183.14 305.68 178.32 305.77 173.51 C 306.37 173.78 307.57 174.31 308.17 174.58 C 308.13 175.46 308.07 177.23 308.03 178.12 C 309.45 178.22 311.19 177.29 312.48 178.30 C 314.91 179.95 314.88 183.37 314.20 185.92 C 312.78 189.32 308.56 187.72 305.76 187.95 Z" />
<path fill="#acacac" d=" M 316.72 176.97 C 316.59 175.46 317.00 173.98 318.14 172.91 C 319.10 178.01 318.53 183.24 318.59 188.40 C 318.15 188.19 317.28 187.77 316.85 187.56 C 316.59 184.04 316.75 180.50 316.72 176.97 Z" />
<path fill="#aeaeae" d=" M 336.77 174.63 C 337.52 174.68 338.27 174.73 339.03 174.78 C 340.26 178.36 341.58 181.91 343.14 185.35 C 344.89 181.88 346.16 178.20 347.63 174.61 C 348.15 174.63 349.19 174.66 349.71 174.68 C 349.76 179.12 349.73 183.55 349.77 187.99 C 349.27 187.94 348.27 187.83 347.78 187.78 C 347.91 184.64 347.86 181.50 347.54 178.38 C 346.37 181.67 345.33 185.03 343.69 188.13 C 343.40 188.02 342.80 187.80 342.51 187.69 C 341.01 184.76 340.04 181.58 338.56 178.64 C 338.39 181.93 338.47 185.23 338.33 188.52 C 337.97 188.26 337.24 187.74 336.88 187.48 C 336.53 183.21 336.85 178.91 336.77 174.63 Z" />
<path fill="#aaaaaa" d=" M 415.88 177.15 C 414.93 175.68 417.15 173.54 418.61 174.40 C 419.48 175.82 417.30 177.98 415.88 177.15 Z" />
<path fill="#acacac" d=" M 284.09 174.65 C 286.83 174.87 290.00 173.97 292.38 175.73 C 294.25 177.54 293.89 181.13 291.51 182.33 C 289.67 182.89 287.70 182.72 285.81 182.88 C 285.79 184.58 285.79 186.29 285.78 188.00 C 285.36 188.00 284.50 188.00 284.07 188.00 C 284.07 183.55 284.06 179.10 284.09 174.65 Z" />
<path fill="#000000" d=" M 285.71 176.34 C 287.64 176.35 289.59 176.41 291.53 176.50 C 291.55 177.78 291.62 179.06 291.51 180.34 C 289.90 181.62 287.75 181.17 285.86 181.39 C 285.80 179.71 285.75 178.02 285.71 176.34 Z" />
<path fill="#b7b7b7" d=" M 373.38 178.48 C 373.90 177.35 374.41 176.21 374.93 175.07 C 375.49 176.87 376.71 178.24 378.29 179.22 C 377.64 179.29 376.34 179.41 375.69 179.48 C 375.73 181.77 375.79 184.06 375.95 186.35 C 376.57 186.76 377.82 187.58 378.45 187.98 C 377.04 188.23 375.71 188.08 374.45 187.53 C 374.00 184.52 374.26 181.42 373.38 178.48 Z" />
<path fill="#b7b7b7" d=" M 294.72 180.99 C 296.03 178.06 300.21 176.42 302.43 179.35 C 303.52 182.00 302.81 185.09 303.12 187.91 C 300.63 187.24 297.84 188.69 295.56 187.31 C 295.16 186.13 295.04 184.83 295.50 183.65 C 296.97 181.92 299.49 182.68 301.46 182.32 C 301.08 181.57 300.32 180.08 299.94 179.33 C 298.13 179.63 296.47 180.47 294.72 180.99 Z" />
<path fill="#bcbcbc" d=" M 380.78 178.89 C 381.90 178.44 383.01 177.98 384.13 177.51 C 386.91 178.39 388.13 180.65 387.89 183.51 C 385.57 183.54 383.25 183.56 380.94 183.64 C 381.31 187.62 385.46 186.48 388.21 186.59 C 386.18 187.85 383.57 189.03 381.38 187.37 C 378.56 185.43 379.42 181.48 380.78 178.89 Z" />
<path fill="#acacac" d=" M 389.60 180.49 C 390.27 177.47 393.95 177.45 396.27 178.46 C 396.58 179.15 397.21 180.53 397.52 181.22 C 395.22 180.40 392.52 177.99 390.74 181.03 C 392.89 182.01 395.19 182.74 397.19 184.03 C 398.38 186.66 395.40 188.61 393.04 188.18 C 390.96 188.38 389.87 186.55 388.81 185.12 C 391.06 185.82 393.29 186.75 395.71 186.66 C 395.99 182.77 389.28 184.43 389.60 180.49 Z" />
<path fill="#909090" d=" M 419.82 178.26 C 422.59 178.28 427.52 176.43 428.17 180.59 C 427.93 183.04 429.84 187.67 426.43 188.38 C 426.01 185.39 427.89 177.75 422.51 179.88 C 421.88 182.41 422.17 185.05 422.18 187.63 C 421.59 187.78 420.39 188.08 419.80 188.22 C 419.74 184.90 419.74 181.58 419.82 178.26 Z" />
<path fill="#b7b7b7" d=" M 321.34 180.26 C 321.96 178.71 323.76 178.25 325.02 177.38 C 329.17 178.16 331.13 183.22 328.63 186.57 C 327.00 188.93 323.95 188.03 321.72 187.28 C 321.20 184.99 320.04 182.49 321.34 180.26 Z" />
<path fill="#b9b9b9" d=" M 352.21 185.06 C 351.05 181.80 352.96 178.63 355.99 177.39 C 359.45 178.10 361.88 181.52 360.57 185.03 C 359.74 189.12 352.99 189.23 352.21 185.06 Z" />
<path fill="#949494" d=" M 362.67 178.35 C 365.18 178.48 368.12 177.03 370.31 178.72 C 372.01 181.41 371.02 184.84 371.35 187.84 C 370.85 187.89 369.85 187.98 369.35 188.02 C 368.99 185.24 370.32 181.39 367.94 179.41 C 367.31 179.51 366.06 179.72 365.44 179.82 C 364.92 182.39 365.12 185.03 365.17 187.64 C 364.34 187.76 363.50 187.88 362.68 188.00 C 362.75 184.79 362.75 181.57 362.67 178.35 Z" />
<path fill="#b9b9b9" d=" M 402.04 187.90 C 397.60 186.35 398.28 178.61 402.97 177.86 C 404.12 178.05 405.27 178.28 406.42 178.55 C 406.86 180.19 407.28 181.85 407.66 183.51 C 405.39 183.55 403.11 183.56 400.84 183.57 C 401.09 184.33 401.57 185.84 401.81 186.60 C 403.70 186.57 405.59 186.49 407.49 186.49 C 406.04 187.82 403.98 188.74 402.04 187.90 Z" />
<path fill="#b7b7b7" d=" M 409.34 178.28 C 410.61 178.32 411.88 178.36 413.16 178.40 C 414.64 178.60 416.11 178.39 417.59 178.19 C 417.54 181.47 417.56 184.75 417.58 188.03 C 417.09 187.99 416.11 187.91 415.63 187.86 C 415.68 184.88 415.69 181.89 415.72 178.91 C 414.65 179.17 412.50 179.70 411.42 179.97 C 411.24 182.57 411.22 185.18 411.24 187.79 C 410.77 187.85 409.82 187.97 409.35 188.02 C 409.36 184.77 409.37 181.52 409.34 178.28 Z" />
<path fill="#000000" d=" M 324.32 179.45 C 327.39 178.49 328.63 182.59 327.69 184.86 C 327.11 187.27 323.51 187.45 322.64 185.16 C 322.44 183.22 321.96 180.21 324.32 179.45 Z" />
<path fill="#000000" d=" M 381.03 182.21 C 381.88 181.12 382.15 178.91 384.01 179.34 C 385.68 179.06 385.79 181.20 386.18 182.27 C 384.46 182.27 382.74 182.25 381.03 182.21 Z" />
<path fill="#000000" d=" M 400.71 182.19 C 401.29 179.89 403.14 179.05 405.35 179.49 C 405.41 180.43 405.48 181.37 405.55 182.31 C 403.93 182.28 402.31 182.24 400.71 182.19 Z" />
<path fill="#000000" d=" M 308.35 180.24 C 312.06 176.90 314.62 184.95 311.08 186.68 C 307.45 187.51 306.81 182.42 308.35 180.24 Z" />
<path fill="#000000" d=" M 354.61 186.71 C 353.51 184.24 353.58 181.64 354.71 179.20 C 356.17 179.61 358.40 179.18 358.72 181.18 C 359.37 182.90 358.63 184.72 358.40 186.44 C 357.45 186.51 355.56 186.64 354.61 186.71 Z" />
<path fill="#000000" d=" M 296.01 185.02 C 297.59 183.97 299.41 183.48 301.26 183.16 C 301.06 184.04 300.67 185.80 300.48 186.68 C 298.81 186.65 297.11 186.47 296.01 185.02 Z" />
<path fill="#dbdbdb" d=" M 4.19 197.96 C 4.26 196.18 4.85 194.53 6.97 195.12 C 117.64 195.06 228.32 195.10 338.99 195.10 C 340.62 195.10 342.25 195.16 343.88 195.27 L 343.19 196.29 C 342.91 196.69 342.35 197.50 342.07 197.90 C 336.73 197.94 331.29 197.88 326.13 199.43 C 322.27 200.59 318.26 201.11 314.23 201.20 C 313.40 202.09 312.58 202.99 311.76 203.89 C 305.77 203.71 299.77 203.96 293.99 205.65 C 277.67 206.64 261.34 207.82 245.01 208.87 C 230.01 209.44 215.06 211.55 200.03 210.97 C 178.36 210.95 156.69 210.92 135.01 211.01 C 130.54 211.12 126.39 209.11 121.94 208.96 C 115.96 208.78 109.98 209.23 104.00 209.02 C 92.09 208.19 80.18 207.03 68.24 206.94 C 67.41 205.97 66.57 205.00 65.74 204.03 C 56.81 203.70 47.85 204.32 38.94 203.78 C 34.73 201.80 30.26 200.72 25.64 200.15 C 18.67 198.10 11.40 197.80 4.19 197.96 Z" />
<path fill="#d6d6d6" d=" M 354.71 195.22 L 355.42 195.33 C 374.20 197.49 393.14 197.12 412.03 197.06 C 416.78 196.86 421.16 199.34 425.92 199.08 C 428.72 199.05 431.57 199.01 434.28 199.84 C 440.66 201.91 447.45 200.81 454.01 201.80 C 459.76 201.87 465.46 202.43 471.02 203.93 C 480.68 204.67 490.43 203.37 500.08 204.76 C 509.74 205.06 519.35 206.43 529.02 206.12 C 539.92 206.45 550.76 205.10 561.63 204.62 C 572.80 202.92 584.30 205.79 595.28 202.67 C 606.44 201.00 617.99 202.36 628.97 199.39 C 634.36 199.13 639.74 198.73 645.00 197.36 C 660.33 196.47 675.78 197.98 691.10 196.37 C 696.02 195.98 700.97 196.24 705.89 195.67 C 705.73 200.82 705.79 205.98 705.81 211.13 C 700.78 210.91 695.69 211.10 690.86 212.63 C 685.31 214.36 679.38 213.46 673.80 214.96 C 672.21 215.35 670.63 215.78 669.03 216.01 C 652.03 216.87 635.04 218.12 618.05 219.22 C 612.01 219.18 605.93 219.58 599.94 218.67 C 597.08 217.99 593.70 217.73 592.24 220.89 C 592.64 221.37 593.43 222.33 593.83 222.82 C 593.14 223.15 591.75 223.81 591.05 224.14 C 590.64 222.15 590.53 219.65 588.53 218.52 C 586.19 217.60 583.65 218.40 582.13 220.34 C 581.49 220.04 580.21 219.44 579.57 219.15 C 578.34 218.53 577.09 217.95 575.86 217.37 C 573.10 218.98 571.46 221.75 571.82 225.01 C 570.97 221.50 570.98 217.87 570.69 214.30 L 569.72 214.12 C 569.21 214.05 568.19 213.90 567.67 213.82 C 567.70 215.26 567.74 216.70 567.78 218.14 C 566.15 218.34 564.14 217.55 562.81 218.82 C 561.06 220.43 561.33 223.04 561.12 225.18 L 559.41 224.54 C 559.41 222.47 559.41 220.40 559.41 218.33 C 558.94 218.32 558.00 218.31 557.53 218.31 C 557.54 219.62 557.55 220.93 557.57 222.25 C 556.03 223.34 554.47 224.40 552.89 225.42 C 553.77 222.80 554.51 220.13 554.92 217.39 C 552.67 219.59 551.93 222.70 551.07 225.62 C 550.16 223.06 549.36 220.44 548.09 218.04 C 545.34 218.94 548.75 222.34 548.85 224.24 C 544.38 225.38 539.71 225.44 535.33 223.89 C 537.43 223.81 539.55 223.70 541.67 223.58 C 540.93 221.58 540.87 218.19 538.02 218.19 C 536.18 217.77 534.62 218.94 533.27 220.00 C 532.33 220.72 531.39 221.45 530.46 222.18 C 530.47 219.43 530.47 216.68 530.47 213.93 C 529.99 213.95 529.03 213.98 528.55 213.99 C 528.57 215.40 528.60 216.80 528.64 218.21 C 527.19 218.19 525.75 218.25 524.32 218.41 C 521.96 219.68 522.21 222.83 521.84 225.10 C 519.58 225.06 517.32 225.03 515.07 224.99 C 514.96 222.90 515.25 220.63 514.17 218.74 C 511.34 217.35 508.31 218.47 506.68 221.02 C 508.71 220.53 510.70 219.89 512.72 219.32 C 512.93 221.52 513.13 223.71 513.36 225.91 C 512.02 226.28 510.67 226.62 509.29 226.68 C 509.27 225.93 509.23 224.44 509.21 223.70 L 511.90 224.14 C 511.05 223.50 510.20 222.87 509.36 222.24 C 508.52 223.19 507.73 224.19 507.00 225.22 C 506.38 226.10 505.78 227.01 505.16 227.88 C 506.04 223.41 502.94 218.20 506.43 214.48 C 505.63 214.43 504.82 214.35 504.03 214.44 C 503.72 215.76 503.40 217.09 503.09 218.41 C 500.86 218.44 498.64 218.32 496.42 218.23 C 496.42 219.02 496.42 220.60 496.42 221.39 L 494.73 220.21 C 493.30 218.73 491.38 217.55 489.26 218.35 C 486.15 219.26 486.61 223.19 486.21 225.70 L 484.48 224.66 C 484.48 221.08 484.47 217.51 484.48 213.94 C 484.02 213.96 483.10 213.99 482.64 214.01 C 482.66 217.35 482.65 220.68 482.67 224.02 C 481.86 224.03 480.24 224.06 479.43 224.07 C 479.40 222.10 479.05 220.16 478.54 218.26 C 475.60 217.98 472.55 218.25 470.93 221.07 C 473.47 220.51 477.56 217.75 478.12 222.08 C 475.78 222.49 473.49 223.05 471.22 223.74 L 469.43 224.18 C 469.45 223.48 469.49 222.08 469.50 221.39 C 467.48 221.59 465.46 221.79 463.47 222.17 C 464.54 222.43 466.66 222.95 467.72 223.21 C 467.70 224.05 467.66 225.74 467.64 226.59 C 465.63 226.38 462.82 227.44 461.59 225.30 C 460.80 222.47 461.35 219.50 461.58 216.63 C 463.18 216.48 464.79 216.36 466.40 216.25 C 466.76 216.86 467.47 218.07 467.82 218.67 C 468.36 218.56 469.43 218.32 469.96 218.21 C 468.56 216.79 467.35 214.61 465.07 214.73 C 462.46 214.22 460.38 216.06 459.30 218.22 C 451.17 219.97 442.76 219.35 434.55 218.61 C 420.04 217.73 405.51 216.88 391.02 215.83 C 385.11 214.01 378.81 214.49 372.91 212.67 C 366.96 210.99 360.71 210.91 354.62 211.65 C 354.67 206.18 354.53 200.70 354.71 195.22 Z" />
<path fill="#dedede" d=" M 355.42 195.33 C 373.27 194.84 391.15 195.25 409.01 195.11 C 506.69 195.09 604.38 195.11 702.07 195.11 C 703.36 195.13 704.63 195.32 705.89 195.67 C 700.97 196.24 696.02 195.98 691.10 196.37 C 675.78 197.98 660.33 196.47 645.00 197.36 C 639.74 198.73 634.36 199.13 628.97 199.39 C 617.99 202.36 606.44 201.00 595.28 202.67 C 584.30 205.79 572.80 202.92 561.63 204.62 C 550.76 205.10 539.92 206.45 529.02 206.12 C 519.35 206.43 509.74 205.06 500.08 204.76 C 490.43 203.37 480.68 204.67 471.02 203.93 C 465.46 202.43 459.76 201.87 454.01 201.80 C 447.45 200.81 440.66 201.91 434.28 199.84 C 431.57 199.01 428.72 199.05 425.92 199.08 C 421.16 199.34 416.78 196.86 412.03 197.06 C 393.14 197.12 374.20 197.49 355.42 195.33 Z" />
<path fill="#d5d5d5" d=" M 343.19 196.29 L 343.83 195.40 C 343.96 197.47 344.07 199.56 343.87 201.64 C 343.33 205.66 342.94 209.71 342.78 213.78 C 339.27 213.86 335.76 213.97 332.25 214.09 C 331.43 215.01 330.61 215.94 329.80 216.88 C 326.20 216.95 322.60 216.83 319.01 216.99 C 314.92 217.15 311.08 218.87 306.98 218.93 C 300.65 218.99 294.38 219.87 288.05 219.93 C 283.94 219.96 280.12 221.81 276.03 221.95 C 269.03 222.16 262.01 221.59 255.02 222.11 C 246.15 222.97 237.23 223.05 228.37 224.04 C 228.15 222.10 227.93 220.16 227.71 218.22 L 226.85 218.26 C 226.32 218.29 225.26 218.34 224.73 218.37 C 224.74 220.25 224.74 222.14 224.75 224.04 L 222.85 224.05 C 222.71 222.15 222.91 219.96 221.51 218.46 C 217.22 218.22 212.90 218.52 208.60 218.37 C 208.61 219.04 208.62 220.38 208.62 221.06 C 206.55 221.23 204.48 221.41 202.41 221.56 C 202.05 216.45 194.38 217.34 194.00 222.02 C 193.48 223.87 193.07 225.75 192.55 227.60 L 192.17 227.72 C 192.20 223.10 192.17 218.48 192.14 213.86 C 191.51 213.94 190.25 214.10 189.62 214.18 C 189.72 215.47 189.82 216.75 189.92 218.04 C 186.62 217.16 183.81 218.92 183.03 222.16 C 180.84 222.11 178.64 222.06 176.45 222.00 C 176.27 220.51 175.80 218.34 173.91 218.27 C 171.69 217.67 169.77 219.06 167.97 220.12 L 166.72 219.48 C 164.18 217.77 160.28 217.40 158.77 220.70 C 158.28 219.88 157.79 219.07 157.31 218.25 C 155.72 218.34 154.13 218.43 152.54 218.48 C 152.54 219.21 152.53 220.68 152.53 221.41 L 150.83 220.39 C 149.63 219.37 148.43 218.37 147.21 217.39 C 145.88 218.01 144.56 218.64 143.23 219.27 C 142.78 219.45 141.89 219.81 141.44 219.99 C 138.81 217.50 134.21 217.30 132.57 220.99 C 131.17 220.81 129.77 220.64 128.38 220.46 C 127.56 218.31 126.70 216.17 125.78 214.06 C 123.75 217.28 122.41 220.85 121.08 224.39 C 115.96 224.09 111.13 221.93 105.99 221.93 C 94.67 221.98 83.35 221.88 72.03 221.96 C 68.72 222.13 66.15 219.72 63.04 219.11 C 53.59 218.05 43.82 220.53 34.60 217.58 C 31.14 216.60 27.52 217.06 23.97 216.88 C 20.11 216.78 16.79 214.42 12.99 214.00 C 10.11 213.69 7.21 213.89 4.33 213.95 C 4.30 208.62 4.47 203.28 4.19 197.96 C 11.40 197.80 18.67 198.10 25.64 200.15 C 30.26 200.72 34.73 201.80 38.94 203.78 C 47.85 204.32 56.81 203.70 65.74 204.03 C 66.57 205.00 67.41 205.97 68.24 206.94 C 80.18 207.03 92.09 208.19 104.00 209.02 C 109.98 209.23 115.96 208.78 121.94 208.96 C 126.39 209.11 130.54 211.12 135.01 211.01 C 156.69 210.92 178.36 210.95 200.03 210.97 C 215.06 211.55 230.01 209.44 245.01 208.87 C 261.34 207.82 277.67 206.64 293.99 205.65 C 299.77 203.96 305.77 203.71 311.76 203.89 C 312.58 202.99 313.40 202.09 314.23 201.20 C 318.26 201.11 322.27 200.59 326.13 199.43 C 331.29 197.88 336.73 197.94 342.07 197.90 C 342.35 197.50 342.91 196.69 343.19 196.29 Z" />
<path fill="#cbcbcb" d=" M 342.78 213.78 C 342.94 209.71 343.33 205.66 343.87 201.64 C 344.14 210.78 343.95 219.93 343.98 229.07 C 341.63 233.80 335.49 231.31 331.33 232.36 C 323.61 234.05 315.83 235.50 308.05 236.88 C 302.34 237.00 296.66 237.46 290.98 237.93 C 278.97 238.13 266.95 237.68 254.95 238.14 C 247.62 238.92 240.24 238.89 232.91 239.68 C 224.33 240.54 215.68 239.35 207.10 240.28 C 202.39 240.80 197.66 241.13 192.92 241.00 C 178.28 240.73 163.63 241.21 148.99 240.90 C 140.68 240.02 132.31 239.97 123.99 239.14 C 116.03 238.51 108.03 239.41 100.06 238.75 C 83.10 236.76 65.95 239.10 48.99 237.20 C 44.51 236.61 39.60 237.90 35.53 235.47 C 31.40 233.18 26.51 233.93 22.01 233.12 C 16.17 232.18 10.25 231.75 4.33 231.93 C 4.34 225.94 4.29 219.94 4.33 213.95 C 7.21 213.89 10.11 213.69 12.99 214.00 C 16.79 214.42 20.11 216.78 23.97 216.88 C 27.52 217.06 31.14 216.60 34.60 217.58 C 43.82 220.53 53.59 218.05 63.04 219.11 C 66.15 219.72 68.72 222.13 72.03 221.96 C 83.35 221.88 94.67 221.98 105.99 221.93 C 111.13 221.93 115.96 224.09 121.08 224.39 C 120.55 225.86 120.12 227.35 119.70 228.86 C 121.10 227.70 122.13 226.20 123.09 224.67 C 124.68 224.65 126.27 224.65 127.87 224.66 C 128.82 226.20 129.78 227.77 131.29 228.83 C 130.54 225.97 129.45 223.21 128.38 220.46 C 129.77 220.64 131.17 220.81 132.57 220.99 C 132.67 223.41 132.34 226.70 135.04 227.90 C 137.78 229.29 141.06 227.42 141.24 224.31 C 140.13 225.13 139.03 225.96 137.94 226.82 C 137.09 226.67 135.38 226.39 134.53 226.25 C 134.76 223.99 133.86 221.16 135.93 219.54 C 137.94 218.99 139.08 220.86 140.41 221.98 C 140.67 221.48 141.18 220.49 141.44 219.99 C 141.89 219.81 142.78 219.45 143.23 219.27 C 142.35 221.98 141.51 225.87 144.45 227.65 C 146.66 229.17 149.21 227.77 151.29 226.75 C 148.39 226.68 145.07 227.18 143.68 223.96 C 146.04 223.84 148.41 223.77 150.78 223.71 C 150.79 222.88 150.81 221.22 150.83 220.39 L 152.53 221.41 C 152.53 223.86 152.55 226.31 152.68 228.76 C 155.84 226.84 153.32 222.51 155.18 219.82 C 156.46 219.68 157.44 220.66 158.54 221.15 C 158.76 223.15 158.11 225.71 159.91 227.20 C 161.65 228.96 164.17 227.89 166.22 227.49 C 166.40 226.88 166.75 225.65 166.92 225.04 C 164.90 226.04 162.77 226.79 160.49 226.79 C 160.54 224.61 159.87 222.21 160.93 220.17 C 161.66 219.90 163.12 219.36 163.85 219.09 C 164.69 220.20 165.55 221.31 166.40 222.41 C 166.48 221.68 166.64 220.21 166.72 219.48 L 167.97 220.12 C 168.34 220.31 169.08 220.68 169.45 220.87 C 171.45 219.32 174.79 218.67 175.13 222.12 C 172.93 222.51 170.74 222.94 168.58 223.50 C 168.58 224.76 168.58 226.03 168.60 227.31 C 169.89 227.73 171.18 228.15 172.48 228.56 C 172.79 228.09 173.40 227.13 173.71 226.65 C 172.89 226.61 171.27 226.52 170.46 226.47 C 170.39 225.57 170.35 224.66 170.34 223.76 C 171.43 223.70 173.61 223.60 174.71 223.55 C 172.95 225.70 174.91 227.41 176.22 228.81 C 176.34 226.54 176.43 224.27 176.45 222.00 C 178.64 222.06 180.84 222.11 183.03 222.16 C 183.40 224.26 184.03 226.32 184.76 228.33 C 187.24 228.25 189.72 228.10 192.17 227.72 L 192.55 227.60 C 193.07 225.75 193.48 223.87 194.00 222.02 C 194.17 223.84 194.03 226.10 195.67 227.34 C 197.23 228.44 199.27 228.12 201.08 228.32 C 201.38 227.86 201.97 226.96 202.27 226.50 C 199.54 226.95 196.65 226.84 195.40 223.93 C 197.81 223.81 200.22 223.76 202.64 223.71 C 202.58 223.17 202.47 222.10 202.41 221.56 C 204.48 221.41 206.55 221.23 208.62 221.06 C 208.63 223.35 208.63 225.66 208.61 227.96 C 209.09 227.99 210.06 228.06 210.54 228.10 C 210.54 225.15 210.58 222.21 210.72 219.28 C 212.01 219.51 213.28 219.81 214.54 220.17 C 214.90 223.08 214.79 226.01 215.06 228.93 C 217.67 226.35 215.71 222.24 217.75 219.36 C 222.62 219.06 220.53 225.14 221.00 228.12 C 221.45 228.11 222.37 228.10 222.82 228.09 C 222.84 226.74 222.85 225.39 222.85 224.05 L 224.75 224.04 C 224.75 225.33 224.75 226.62 224.75 227.92 C 225.29 227.98 226.36 228.11 226.90 228.17 C 226.89 224.87 226.88 221.57 226.85 218.26 L 227.71 218.22 C 227.93 220.16 228.15 222.10 228.37 224.04 C 237.23 223.05 246.15 222.97 255.02 222.11 C 262.01 221.59 269.03 222.16 276.03 221.95 C 280.12 221.81 283.94 219.96 288.05 219.93 C 294.38 219.87 300.65 218.99 306.98 218.93 C 311.08 218.87 314.92 217.15 319.01 216.99 C 322.60 216.83 326.20 216.95 329.80 216.88 C 330.61 215.94 331.43 215.01 332.25 214.09 C 335.76 213.97 339.27 213.86 342.78 213.78 Z" />
<path fill="#c9c9c9" d=" M 354.62 211.65 C 360.71 210.91 366.96 210.99 372.91 212.67 C 378.81 214.49 385.11 214.01 391.02 215.83 C 405.51 216.88 420.04 217.73 434.55 218.61 C 442.76 219.35 451.17 219.97 459.30 218.22 C 459.35 221.30 458.43 225.49 461.53 227.45 C 463.93 229.05 466.78 227.83 469.31 227.28 C 469.35 226.24 469.39 225.21 469.43 224.18 L 471.22 223.74 C 471.45 225.05 471.66 226.37 471.87 227.70 C 473.67 227.95 475.50 227.93 477.31 227.68 C 477.84 227.79 478.91 228.00 479.45 228.11 C 479.44 226.76 479.44 225.41 479.43 224.07 C 480.24 224.06 481.86 224.03 482.67 224.02 C 482.67 225.36 482.68 226.71 482.69 228.05 C 483.13 228.07 484.01 228.10 484.45 228.11 C 484.46 227.25 484.47 225.52 484.48 224.66 L 486.21 225.70 C 487.61 226.56 488.84 227.82 490.46 228.29 C 492.17 228.35 493.70 227.35 495.27 226.79 C 492.37 226.68 488.81 227.34 487.59 223.87 C 489.97 223.74 492.36 223.69 494.75 223.64 C 494.75 222.78 494.74 221.07 494.73 220.21 L 496.42 221.39 C 496.43 223.63 496.44 225.87 496.44 228.11 C 496.95 228.07 497.98 228.00 498.49 227.96 C 498.53 225.40 498.59 222.84 498.73 220.29 C 499.77 219.99 501.86 219.39 502.90 219.10 C 502.83 222.16 502.75 225.23 502.93 228.29 C 503.49 228.19 504.60 227.99 505.16 227.88 C 505.78 227.01 506.38 226.10 507.00 225.22 C 507.56 229.38 512.29 227.54 515.08 227.81 C 515.08 227.11 515.07 225.70 515.07 224.99 C 517.32 225.03 519.58 225.06 521.84 225.10 C 523.30 228.80 527.25 228.33 530.48 227.89 C 530.46 225.99 530.45 224.08 530.46 222.18 C 531.39 221.45 532.33 220.72 533.27 220.00 C 532.91 222.46 533.18 224.93 533.61 227.37 C 536.32 228.29 539.16 228.45 541.54 226.62 C 539.61 226.61 537.70 226.68 535.79 226.73 C 535.43 225.98 534.72 224.48 534.36 223.73 L 535.33 223.89 C 539.71 225.44 544.38 225.38 548.85 224.24 C 549.44 225.69 550.04 227.13 550.68 228.58 C 551.44 227.55 552.19 226.51 552.89 225.42 C 554.47 224.40 556.03 223.34 557.57 222.25 C 557.57 224.19 557.56 226.14 557.55 228.10 C 558.01 228.09 558.92 228.07 559.38 228.05 C 559.39 227.18 559.40 225.42 559.41 224.54 L 561.12 225.18 C 561.78 226.19 562.44 227.20 563.10 228.22 C 565.32 228.15 567.54 228.01 569.76 227.88 C 569.69 223.29 569.69 218.71 569.72 214.12 L 570.69 214.30 C 570.98 217.87 570.97 221.50 571.82 225.01 C 573.26 228.70 577.78 229.04 580.63 226.82 C 577.88 226.61 574.49 227.18 573.40 223.92 C 575.79 223.80 578.20 223.74 580.60 223.67 C 580.28 222.16 579.96 220.64 579.57 219.15 C 580.21 219.44 581.49 220.04 582.13 220.34 C 582.00 222.69 582.27 225.04 582.64 227.36 C 584.20 227.66 585.76 228.27 587.37 228.16 C 589.39 227.81 590.19 225.73 591.05 224.14 C 591.75 223.81 593.14 223.15 593.83 222.82 C 595.81 223.91 598.63 224.23 599.22 226.85 C 596.72 226.77 594.36 225.95 592.05 225.11 C 593.31 227.59 596.17 229.29 598.88 227.83 C 600.60 227.37 600.28 225.37 600.68 224.02 C 598.27 223.05 595.88 222.04 593.55 220.90 C 595.79 218.79 598.32 220.13 600.59 221.22 C 600.42 220.58 600.10 219.31 599.94 218.67 C 605.93 219.58 612.01 219.18 618.05 219.22 C 635.04 218.12 652.03 216.87 669.03 216.01 C 670.63 215.78 672.21 215.35 673.80 214.96 C 679.38 213.46 685.31 214.36 690.86 212.63 C 695.69 211.10 700.78 210.91 705.81 211.13 C 705.81 223.92 705.86 236.70 705.71 249.49 C 588.69 249.50 471.68 249.54 354.66 249.47 C 354.60 236.86 354.62 224.26 354.62 211.65 Z" />
<path fill="#343434" d=" M 189.62 214.18 C 190.25 214.10 191.51 213.94 192.14 213.86 C 192.17 218.48 192.20 223.10 192.17 227.72 C 189.72 228.10 187.24 228.25 184.76 228.33 C 184.03 226.32 183.40 224.26 183.03 222.16 C 183.81 218.92 186.62 217.16 189.92 218.04 C 189.82 216.75 189.72 215.47 189.62 214.18 Z" />
<path fill="#303030" d=" M 225.73 214.87 C 226.77 214.01 227.60 214.09 228.22 215.11 C 228.39 216.61 225.38 218.63 225.02 216.42 C 225.20 216.04 225.55 215.26 225.73 214.87 Z" />
<path fill="#0a0a0a" d=" M 482.64 214.01 C 483.10 213.99 484.02 213.96 484.48 213.94 C 484.47 217.51 484.48 221.08 484.48 224.66 C 484.47 225.52 484.46 227.25 484.45 228.11 C 484.01 228.10 483.13 228.07 482.69 228.05 C 482.68 226.71 482.67 225.36 482.67 224.02 C 482.65 220.68 482.66 217.35 482.64 214.01 Z" />
<path fill="#3a3a3a" d=" M 504.03 214.44 C 504.82 214.35 505.63 214.43 506.43 214.48 C 502.94 218.20 506.04 223.41 505.16 227.88 C 504.60 227.99 503.49 228.19 502.93 228.29 C 502.75 225.23 502.83 222.16 502.90 219.10 C 501.86 219.39 499.77 219.99 498.73 220.29 C 498.59 222.84 498.53 225.40 498.49 227.96 C 497.98 228.00 496.95 228.07 496.44 228.11 C 496.44 225.87 496.43 223.63 496.42 221.39 C 496.42 220.60 496.42 219.02 496.42 218.23 C 498.64 218.32 500.86 218.44 503.09 218.41 C 503.40 217.09 503.72 215.76 504.03 214.44 Z" />
<path fill="#161616" d=" M 528.55 213.99 C 529.03 213.98 529.99 213.95 530.47 213.93 C 530.47 216.68 530.47 219.43 530.46 222.18 C 530.45 224.08 530.46 225.99 530.48 227.89 C 527.25 228.33 523.30 228.80 521.84 225.10 C 522.21 222.83 521.96 219.68 524.32 218.41 C 525.75 218.25 527.19 218.19 528.64 218.21 C 528.60 216.80 528.57 215.40 528.55 213.99 Z" />
<path fill="#1b1b1b" d=" M 557.36 214.05 C 558.42 212.50 560.73 214.42 559.56 215.81 C 558.51 217.40 556.23 215.42 557.36 214.05 Z" />
<path fill="#282828" d=" M 567.67 213.82 C 568.19 213.90 569.21 214.05 569.72 214.12 C 569.69 218.71 569.69 223.29 569.76 227.88 C 567.54 228.01 565.32 228.15 563.10 228.22 C 562.44 227.20 561.78 226.19 561.12 225.18 C 561.33 223.04 561.06 220.43 562.81 218.82 C 564.14 217.55 566.15 218.34 567.78 218.14 C 567.74 216.70 567.70 215.26 567.67 213.82 Z" />
<path fill="#0a0a0a" d=" M 121.08 224.39 C 122.41 220.85 123.75 217.28 125.78 214.06 C 126.70 216.17 127.56 218.31 128.38 220.46 C 129.45 223.21 130.54 225.97 131.29 228.83 C 129.78 227.77 128.82 226.20 127.87 224.66 C 126.27 224.65 124.68 224.65 123.09 224.67 C 122.13 226.20 121.10 227.70 119.70 228.86 C 120.12 227.35 120.55 225.86 121.08 224.39 Z" />
<path fill="#111111" d=" M 459.30 218.22 C 460.38 216.06 462.46 214.22 465.07 214.73 C 467.35 214.61 468.56 216.79 469.96 218.21 C 469.43 218.32 468.36 218.56 467.82 218.67 C 467.47 218.07 466.76 216.86 466.40 216.25 C 464.79 216.36 463.18 216.48 461.58 216.63 C 461.35 219.50 460.80 222.47 461.59 225.30 C 462.82 227.44 465.63 226.38 467.64 226.59 C 467.66 225.74 467.70 224.05 467.72 223.21 C 466.66 222.95 464.54 222.43 463.47 222.17 C 465.46 221.79 467.48 221.59 469.50 221.39 C 469.49 222.08 469.45 223.48 469.43 224.18 C 469.39 225.21 469.35 226.24 469.31 227.28 C 466.78 227.83 463.93 229.05 461.53 227.45 C 458.43 225.49 459.35 221.30 459.30 218.22 Z" />
<path fill="#d0d0d0" d=" M 123.36 223.26 C 124.34 221.77 123.90 218.56 125.98 218.22 C 126.65 219.86 127.12 221.57 127.65 223.26 C 126.58 223.26 124.44 223.26 123.36 223.26 Z" />
<path fill="#1b1b1b" d=" M 132.57 220.99 C 134.21 217.30 138.81 217.50 141.44 219.99 C 141.18 220.49 140.67 221.48 140.41 221.98 C 139.08 220.86 137.94 218.99 135.93 219.54 C 133.86 221.16 134.76 223.99 134.53 226.25 C 135.38 226.39 137.09 226.67 137.94 226.82 C 139.03 225.96 140.13 225.13 141.24 224.31 C 141.06 227.42 137.78 229.29 135.04 227.90 C 132.34 226.70 132.67 223.41 132.57 220.99 Z" />
<path fill="#212121" d=" M 143.23 219.27 C 144.56 218.64 145.88 218.01 147.21 217.39 C 148.43 218.37 149.63 219.37 150.83 220.39 C 150.81 221.22 150.79 222.88 150.78 223.71 C 148.41 223.77 146.04 223.84 143.68 223.96 C 145.07 227.18 148.39 226.68 151.29 226.75 C 149.21 227.77 146.66 229.17 144.45 227.65 C 141.51 225.87 142.35 221.98 143.23 219.27 Z" />
<path fill="#0d0d0d" d=" M 152.54 218.48 C 154.13 218.43 155.72 218.34 157.31 218.25 C 157.79 219.07 158.28 219.88 158.77 220.70 C 160.28 217.40 164.18 217.77 166.72 219.48 C 166.64 220.21 166.48 221.68 166.40 222.41 C 165.55 221.31 164.69 220.20 163.85 219.09 C 163.12 219.36 161.66 219.90 160.93 220.17 C 159.87 222.21 160.54 224.61 160.49 226.79 C 162.77 226.79 164.90 226.04 166.92 225.04 C 166.75 225.65 166.40 226.88 166.22 227.49 C 164.17 227.89 161.65 228.96 159.91 227.20 C 158.11 225.71 158.76 223.15 158.54 221.15 C 157.44 220.66 156.46 219.68 155.18 219.82 C 153.32 222.51 155.84 226.84 152.68 228.76 C 152.55 226.31 152.53 223.86 152.53 221.41 C 152.53 220.68 152.54 219.21 152.54 218.48 Z" />
<path fill="#050505" d=" M 167.97 220.12 C 169.77 219.06 171.69 217.67 173.91 218.27 C 175.80 218.34 176.27 220.51 176.45 222.00 C 176.43 224.27 176.34 226.54 176.22 228.81 C 174.91 227.41 172.95 225.70 174.71 223.55 C 173.61 223.60 171.43 223.70 170.34 223.76 C 170.35 224.66 170.39 225.57 170.46 226.47 C 171.27 226.52 172.89 226.61 173.71 226.65 C 173.40 227.13 172.79 228.09 172.48 228.56 C 171.18 228.15 169.89 227.73 168.60 227.31 C 168.58 226.03 168.58 224.76 168.58 223.50 C 170.74 222.94 172.93 222.51 175.13 222.12 C 174.79 218.67 171.45 219.32 169.45 220.87 C 169.08 220.68 168.34 220.31 167.97 220.12 Z" />
<path fill="#1e1e1e" d=" M 194.00 222.02 C 194.38 217.34 202.05 216.45 202.41 221.56 C 202.47 222.10 202.58 223.17 202.64 223.71 C 200.22 223.76 197.81 223.81 195.40 223.93 C 196.65 226.84 199.54 226.95 202.27 226.50 C 201.97 226.96 201.38 227.86 201.08 228.32 C 199.27 228.12 197.23 228.44 195.67 227.34 C 194.03 226.10 194.17 223.84 194.00 222.02 Z" />
<path fill="#1c1c1c" d=" M 208.60 218.37 C 212.90 218.52 217.22 218.22 221.51 218.46 C 222.91 219.96 222.71 222.15 222.85 224.05 C 222.85 225.39 222.84 226.74 222.82 228.09 C 222.37 228.10 221.45 228.11 221.00 228.12 C 220.53 225.14 222.62 219.06 217.75 219.36 C 215.71 222.24 217.67 226.35 215.06 228.93 C 214.79 226.01 214.90 223.08 214.54 220.17 C 213.28 219.81 212.01 219.51 210.72 219.28 C 210.58 222.21 210.54 225.15 210.54 228.10 C 210.06 228.06 209.09 227.99 208.61 227.96 C 208.63 225.66 208.63 223.35 208.62 221.06 C 208.62 220.38 208.61 219.04 208.60 218.37 Z" />
<path fill="#303030" d=" M 224.73 218.37 C 225.26 218.34 226.32 218.29 226.85 218.26 C 226.88 221.57 226.89 224.87 226.90 228.17 C 226.36 228.11 225.29 227.98 224.75 227.92 C 224.75 226.62 224.75 225.33 224.75 224.04 C 224.74 222.14 224.74 220.25 224.73 218.37 Z" />
<path fill="#050505" d=" M 470.93 221.07 C 472.55 218.25 475.60 217.98 478.54 218.26 C 479.05 220.16 479.40 222.10 479.43 224.07 C 479.44 225.41 479.44 226.76 479.45 228.11 C 478.91 228.00 477.84 227.79 477.31 227.68 C 475.50 227.93 473.67 227.95 471.87 227.70 C 471.66 226.37 471.45 225.05 471.22 223.74 C 473.49 223.05 475.78 222.49 478.12 222.08 C 477.56 217.75 473.47 220.51 470.93 221.07 Z" />
<path fill="#0b0b0b" d=" M 489.26 218.35 C 491.38 217.55 493.30 218.73 494.73 220.21 C 494.74 221.07 494.75 222.78 494.75 223.64 C 492.36 223.69 489.97 223.74 487.59 223.87 C 488.81 227.34 492.37 226.68 495.27 226.79 C 493.70 227.35 492.17 228.35 490.46 228.29 C 488.84 227.82 487.61 226.56 486.21 225.70 C 486.61 223.19 486.15 219.26 489.26 218.35 Z" />
<path fill="#050505" d=" M 506.68 221.02 C 508.31 218.47 511.34 217.35 514.17 218.74 C 515.25 220.63 514.96 222.90 515.07 224.99 C 515.07 225.70 515.08 227.11 515.08 227.81 C 512.29 227.54 507.56 229.38 507.00 225.22 C 507.73 224.19 508.52 223.19 509.36 222.24 C 510.20 222.87 511.05 223.50 511.90 224.14 L 509.21 223.70 C 509.23 224.44 509.27 225.93 509.29 226.68 C 510.67 226.62 512.02 226.28 513.36 225.91 C 513.13 223.71 512.93 221.52 512.72 219.32 C 510.70 219.89 508.71 220.53 506.68 221.02 Z" />
<path fill="#0d0d0d" d=" M 533.27 220.00 C 534.62 218.94 536.18 217.77 538.02 218.19 C 540.87 218.19 540.93 221.58 541.67 223.58 C 539.55 223.70 537.43 223.81 535.33 223.89 L 534.36 223.73 C 534.72 224.48 535.43 225.98 535.79 226.73 C 537.70 226.68 539.61 226.61 541.54 226.62 C 539.16 228.45 536.32 228.29 533.61 227.37 C 533.18 224.93 532.91 222.46 533.27 220.00 Z" />
<path fill="#0b0b0b" d=" M 548.85 224.24 C 548.75 222.34 545.34 218.94 548.09 218.04 C 549.36 220.44 550.16 223.06 551.07 225.62 C 551.93 222.70 552.67 219.59 554.92 217.39 C 554.51 220.13 553.77 222.80 552.89 225.42 C 552.19 226.51 551.44 227.55 550.68 228.58 C 550.04 227.13 549.44 225.69 548.85 224.24 Z" />
<path fill="#171717" d=" M 557.53 218.31 C 558.00 218.31 558.94 218.32 559.41 218.33 C 559.41 220.40 559.41 222.47 559.41 224.54 C 559.40 225.42 559.39 227.18 559.38 228.05 C 558.92 228.07 558.01 228.09 557.55 228.10 C 557.56 226.14 557.57 224.19 557.57 222.25 C 557.55 220.93 557.54 219.62 557.53 218.31 Z" />
<path fill="#1d1d1d" d=" M 571.82 225.01 C 571.46 221.75 573.10 218.98 575.86 217.37 C 577.09 217.95 578.34 218.53 579.57 219.15 C 579.96 220.64 580.28 222.16 580.60 223.67 C 578.20 223.74 575.79 223.80 573.40 223.92 C 574.49 227.18 577.88 226.61 580.63 226.82 C 577.78 229.04 573.26 228.70 571.82 225.01 Z" />
<path fill="#050505" d=" M 582.13 220.34 C 583.65 218.40 586.19 217.60 588.53 218.52 C 590.53 219.65 590.64 222.15 591.05 224.14 C 590.19 225.73 589.39 227.81 587.37 228.16 C 585.76 228.27 584.20 227.66 582.64 227.36 C 582.27 225.04 582.00 222.69 582.13 220.34 Z" />
<path fill="#161616" d=" M 592.24 220.89 C 593.70 217.73 597.08 217.99 599.94 218.67 C 600.10 219.31 600.42 220.58 600.59 221.22 C 598.32 220.13 595.79 218.79 593.55 220.90 C 595.88 222.04 598.27 223.05 600.68 224.02 C 600.28 225.37 600.60 227.37 598.88 227.83 C 596.17 229.29 593.31 227.59 592.05 225.11 C 594.36 225.95 596.72 226.77 599.22 226.85 C 598.63 224.23 595.81 223.91 593.83 222.82 C 593.43 222.33 592.64 221.37 592.24 220.89 Z" />
<path fill="#cccccc" d=" M 143.86 222.06 C 144.84 221.14 145.42 219.28 147.05 219.47 C 148.49 219.53 148.64 221.24 149.31 222.16 C 147.49 222.16 145.67 222.13 143.86 222.06 Z" />
<path fill="#cccccc" d=" M 489.67 219.18 C 491.54 219.30 492.93 220.25 493.48 222.13 C 491.68 222.23 489.89 222.31 488.11 222.36 C 488.61 221.30 489.13 220.23 489.67 219.18 Z" />
<path fill="#cccccc" d=" M 535.91 219.37 C 537.90 219.19 539.12 220.39 539.80 222.22 C 538.01 222.25 536.22 222.26 534.44 222.24 C 534.81 221.53 535.54 220.09 535.91 219.37 Z" />
<path fill="#d0d0d0" d=" M 189.67 226.63 C 185.10 228.31 183.68 221.65 187.01 219.69 C 191.24 218.63 189.47 224.29 189.67 226.63 Z" />
<path fill="#c7c7c7" d=" M 197.34 220.08 C 198.31 219.29 200.99 220.14 199.96 221.60 C 198.73 223.19 194.51 221.61 197.34 220.08 Z" />
<path fill="#d0d0d0" d=" M 525.04 219.89 C 525.89 219.80 527.60 219.63 528.45 219.54 C 528.54 221.86 528.56 224.18 528.54 226.50 C 527.17 226.54 525.81 226.57 524.46 226.58 C 524.21 224.37 523.32 221.73 525.04 219.89 Z" />
<path fill="#d0d0d0" d=" M 567.59 226.67 C 561.44 229.01 561.80 217.08 567.51 219.95 C 567.84 222.17 567.68 224.43 567.59 226.67 Z" />
<path fill="#c7c7c7" d=" M 575.29 220.02 C 576.29 219.25 578.86 220.19 577.85 221.63 C 576.59 223.26 572.51 221.50 575.29 220.02 Z" />
<path fill="#d0d0d0" d=" M 584.54 226.80 C 583.37 224.34 583.51 221.68 584.71 219.26 C 585.52 219.42 587.15 219.73 587.97 219.88 C 589.51 221.79 588.84 224.25 588.46 226.43 C 587.15 226.57 585.84 226.69 584.54 226.80 Z" />
<path fill="#c6c6c6" d=" M 474.48 224.20 C 475.41 223.42 478.12 224.14 476.87 225.62 C 475.74 227.72 471.65 225.62 474.48 224.20 Z" />
<path fill="#c6c6c6" d=" M 331.33 232.36 C 335.49 231.31 341.63 233.80 343.98 229.07 C 343.95 235.88 344.04 242.68 343.88 249.48 C 230.72 249.54 117.56 249.52 4.40 249.49 C 4.28 243.64 4.33 237.78 4.33 231.93 C 10.25 231.75 16.17 232.18 22.01 233.12 C 26.51 233.93 31.40 233.18 35.53 235.47 C 39.60 237.90 44.51 236.61 48.99 237.20 C 65.95 239.10 83.10 236.76 100.06 238.75 C 108.03 239.41 116.03 238.51 123.99 239.14 C 132.31 239.97 140.68 240.02 148.99 240.90 C 163.63 241.21 178.28 240.73 192.92 241.00 C 197.66 241.13 202.39 240.80 207.10 240.28 C 215.68 239.35 224.33 240.54 232.91 239.68 C 240.24 238.89 247.62 238.92 254.95 238.14 C 266.95 237.68 278.97 238.13 290.98 237.93 C 296.66 237.46 302.34 237.00 308.05 236.88 C 315.83 235.50 323.61 234.05 331.33 232.36 Z" />
<path fill="#dedede" d=" M 4.38 259.57 C 5.90 259.43 7.43 259.35 8.95 259.34 C 119.30 259.31 229.65 259.36 339.99 259.32 C 341.46 259.15 342.80 259.47 344.02 260.28 C 341.37 260.72 338.70 260.97 336.02 261.04 C 319.69 261.09 303.36 261.10 287.03 261.17 C 280.51 262.46 273.96 263.71 267.25 263.13 C 266.42 264.08 265.60 265.02 264.78 265.97 C 255.23 266.02 245.74 267.12 236.20 267.44 C 226.53 268.82 216.75 267.49 207.05 268.40 C 190.06 269.68 172.97 271.17 155.96 269.39 C 144.99 268.78 134.03 267.55 123.03 268.17 C 116.83 268.87 111.08 265.77 104.93 266.00 C 97.69 266.10 90.46 266.25 83.22 265.99 C 82.42 265.03 81.62 264.07 80.82 263.11 C 74.45 263.70 68.21 262.56 62.02 261.24 C 42.82 260.53 23.48 262.29 4.38 259.57 Z" />
<path fill="#dddddd" d=" M 354.54 259.79 C 356.02 259.49 357.53 259.32 359.06 259.33 C 474.49 259.35 589.91 259.28 705.34 259.36 L 705.54 260.40 C 695.02 259.71 684.55 261.34 674.04 261.14 C 668.48 261.17 662.78 260.51 657.38 262.23 C 653.33 263.53 649.06 262.80 644.90 263.19 C 641.86 263.98 639.30 266.42 635.97 266.05 C 631.56 265.80 627.23 266.55 623.01 267.75 C 614.09 268.95 605.00 267.11 596.09 268.43 C 588.26 270.70 580.05 270.05 572.03 271.02 C 546.38 271.17 520.71 270.97 495.05 271.11 C 488.02 271.39 481.07 270.06 474.05 270.09 C 469.60 270.13 465.43 268.20 461.00 268.10 C 447.49 267.57 434.03 266.19 420.52 265.92 C 419.14 264.85 418.01 263.05 416.07 263.15 C 411.63 262.89 407.11 263.36 402.79 262.11 C 396.97 260.45 390.90 261.23 384.96 261.12 C 377.96 261.06 370.96 261.01 363.96 261.13 C 360.77 261.21 357.57 260.80 354.54 259.79 Z" />
<path fill="#d6d6d6" d=" M 4.38 259.57 C 23.48 262.29 42.82 260.53 62.02 261.24 C 68.21 262.56 74.45 263.70 80.82 263.11 C 81.62 264.07 82.42 265.03 83.22 265.99 C 90.46 266.25 97.69 266.10 104.93 266.00 C 111.08 265.77 116.83 268.87 123.03 268.17 C 134.03 267.55 144.99 268.78 155.96 269.39 C 172.97 271.17 190.06 269.68 207.05 268.40 C 216.75 267.49 226.53 268.82 236.20 267.44 C 245.74 267.12 255.23 266.02 264.78 265.97 C 265.60 265.02 266.42 264.08 267.25 263.13 C 273.96 263.71 280.51 262.46 287.03 261.17 C 303.36 261.10 319.69 261.09 336.02 261.04 C 338.70 260.97 341.37 260.72 344.02 260.28 L 344.15 260.26 C 344.10 260.61 343.99 261.30 343.94 261.64 C 343.19 266.02 343.08 270.47 343.13 274.90 C 338.61 274.67 334.07 275.05 329.74 276.38 C 325.58 277.66 321.22 277.63 316.93 278.02 C 313.73 278.31 311.23 280.93 307.95 280.90 C 301.65 281.11 295.34 280.78 289.03 280.84 C 283.58 280.79 278.47 283.39 272.98 283.01 C 261.27 282.63 249.55 283.39 237.86 282.68 C 235.78 282.52 233.70 282.50 231.61 282.55 C 231.50 283.96 231.39 285.38 231.31 286.80 C 230.81 287.14 229.81 287.82 229.31 288.15 C 228.81 285.76 228.00 282.13 224.82 282.34 C 220.97 281.66 219.66 286.03 219.77 289.04 C 218.94 289.06 217.27 289.10 216.44 289.12 C 216.35 287.52 216.30 285.92 216.27 284.33 C 216.76 284.11 217.75 283.67 218.25 283.44 C 217.39 282.31 216.57 281.18 215.75 280.03 C 214.89 281.02 214.03 282.01 213.12 282.96 C 212.56 283.04 211.45 283.20 210.89 283.28 C 208.58 282.03 205.84 282.10 203.74 283.71 C 203.34 283.54 202.56 283.20 202.16 283.03 C 201.44 282.71 200.00 282.07 199.28 281.75 C 200.15 280.38 201.45 279.42 202.77 278.53 C 202.32 278.30 201.43 277.84 200.98 277.62 C 200.43 277.89 199.34 278.43 198.79 278.70 C 198.32 280.12 197.85 281.55 197.38 282.98 C 197.94 285.88 198.16 288.83 198.43 291.78 C 196.23 290.18 193.49 290.07 190.89 290.36 C 189.17 290.50 187.45 290.69 185.74 290.86 C 185.37 290.16 184.64 288.76 184.27 288.06 C 186.73 288.03 189.19 288.01 191.65 287.93 C 191.11 286.30 190.82 284.56 189.89 283.10 C 187.73 281.32 183.67 281.99 182.82 284.90 C 182.44 286.79 182.43 288.73 182.31 290.66 C 181.80 290.42 180.79 289.93 180.28 289.68 C 180.31 285.81 180.27 281.94 180.28 278.08 C 179.82 278.06 178.89 278.03 178.43 278.01 C 178.45 279.49 178.48 280.97 178.51 282.46 C 176.45 282.55 173.98 282.10 172.47 283.89 C 171.62 285.82 170.96 287.82 170.29 289.82 C 168.48 289.98 166.67 290.13 164.86 290.28 C 164.63 287.81 165.65 284.52 163.47 282.70 C 160.82 281.58 158.22 282.86 156.40 284.80 C 158.24 284.51 160.05 284.06 161.89 283.79 C 162.48 284.57 163.03 285.38 163.54 286.23 C 161.51 286.56 159.47 286.87 157.46 287.35 C 156.51 287.78 155.58 288.26 154.65 288.74 C 154.69 286.22 154.53 283.71 154.21 281.21 C 154.94 280.27 155.66 279.31 156.38 278.36 C 154.06 278.77 153.14 280.45 153.15 282.64 C 152.83 282.64 152.18 282.63 151.86 282.63 C 150.04 282.59 148.23 282.59 146.42 282.57 C 146.39 283.03 146.35 283.96 146.32 284.43 L 144.56 286.06 C 144.14 284.84 143.70 283.63 143.25 282.43 C 141.65 282.46 140.03 282.36 138.46 282.67 C 136.07 284.03 136.21 287.10 135.78 289.45 L 134.47 288.65 C 134.37 285.04 134.32 281.44 134.31 277.84 C 133.84 277.93 132.89 278.12 132.41 278.21 L 131.48 278.42 C 131.10 281.97 130.94 285.54 130.72 289.10 C 130.32 287.51 129.94 285.92 129.48 284.36 C 129.24 284.02 128.76 283.36 128.52 283.02 C 126.75 282.30 124.78 282.51 122.92 282.43 C 122.34 283.37 121.76 284.31 121.17 285.25 C 122.78 284.69 124.36 284.07 126.01 283.64 C 126.50 284.25 127.48 285.48 127.97 286.09 C 125.53 286.57 123.10 287.15 120.81 288.15 C 120.34 287.30 119.88 286.46 119.42 285.62 C 117.41 285.70 115.40 285.79 113.40 285.96 C 114.75 286.52 116.11 287.05 117.48 287.55 C 117.48 288.31 117.47 289.82 117.47 290.57 C 115.80 290.70 113.90 291.75 112.40 290.56 C 109.95 288.86 110.44 285.41 110.83 282.86 C 111.22 280.42 113.86 280.39 115.78 280.39 C 116.83 281.46 117.90 282.53 119.01 283.55 C 118.61 281.78 118.19 279.33 115.94 279.11 C 112.97 278.10 110.18 279.89 108.85 282.50 C 97.62 283.55 86.32 282.58 75.06 283.02 C 69.89 283.45 65.15 280.76 60.02 280.85 C 52.42 280.94 44.83 281.04 37.24 280.85 C 36.42 279.93 35.60 279.02 34.78 278.12 C 28.23 278.47 22.11 275.76 15.65 275.27 C 11.88 274.81 8.07 275.07 4.33 275.63 C 4.37 270.28 4.28 264.92 4.38 259.57 Z" />
<path fill="#d6d6d6" d=" M 354.54 259.79 C 357.57 260.80 360.77 261.21 363.96 261.13 C 370.96 261.01 377.96 261.06 384.96 261.12 C 390.90 261.23 396.97 260.45 402.79 262.11 C 407.11 263.36 411.63 262.89 416.07 263.15 C 418.01 263.05 419.14 264.85 420.52 265.92 C 434.03 266.19 447.49 267.57 461.00 268.10 C 465.43 268.20 469.60 270.13 474.05 270.09 C 481.07 270.06 488.02 271.39 495.05 271.11 C 520.71 270.97 546.38 271.17 572.03 271.02 C 580.05 270.05 588.26 270.70 596.09 268.43 C 605.00 267.11 614.09 268.95 623.01 267.75 C 627.23 266.55 631.56 265.80 635.97 266.05 C 639.30 266.42 641.86 263.98 644.90 263.19 C 649.06 262.80 653.33 263.53 657.38 262.23 C 662.78 260.51 668.48 261.17 674.04 261.14 C 684.55 261.34 695.02 259.71 705.54 260.40 C 705.07 264.62 705.03 268.87 705.06 273.12 C 700.29 272.95 695.42 272.94 690.87 274.56 C 680.83 278.38 669.87 277.10 659.44 278.72 C 653.34 280.79 646.86 279.82 640.57 280.63 C 632.73 281.61 624.82 281.07 616.95 281.06 C 611.52 280.93 606.44 283.52 600.99 283.20 C 589.23 282.84 577.45 283.54 565.71 282.93 C 563.14 282.30 559.99 281.61 558.11 284.06 C 557.14 286.22 556.48 288.50 555.93 290.81 L 554.24 290.67 C 554.21 288.60 554.19 286.54 554.17 284.49 C 554.75 284.12 555.93 283.40 556.51 283.03 C 555.99 282.80 554.96 282.32 554.44 282.09 C 554.11 281.42 553.45 280.07 553.13 279.40 C 552.52 280.57 551.92 281.74 551.32 282.92 C 550.80 282.85 549.76 282.71 549.24 282.64 C 547.09 282.62 544.13 281.60 542.78 283.85 C 541.59 285.54 541.84 287.71 541.68 289.66 C 540.66 287.99 539.81 286.23 538.89 284.51 C 538.59 283.98 538.00 282.92 537.70 282.39 C 536.08 282.44 534.47 282.50 532.86 282.58 C 532.27 283.50 531.68 284.41 531.09 285.33 C 532.71 284.73 534.32 284.06 536.00 283.60 C 536.48 284.24 537.44 285.50 537.92 286.14 C 535.33 286.70 531.66 286.43 530.99 289.73 C 530.16 289.81 528.51 289.96 527.68 290.04 C 527.45 288.17 527.36 286.29 527.26 284.41 C 527.81 284.13 528.91 283.58 529.46 283.30 C 528.32 282.23 527.29 281.08 526.18 280.01 C 525.52 281.13 524.86 282.25 524.19 283.35 C 524.59 283.63 525.40 284.19 525.80 284.47 L 525.67 285.56 C 524.66 286.79 523.62 287.99 522.59 289.19 C 522.58 286.92 522.28 284.68 521.74 282.48 C 519.30 282.50 516.88 282.61 514.45 282.62 C 514.45 284.59 514.44 286.57 514.45 288.55 L 512.54 289.35 C 512.34 287.48 512.49 285.37 511.21 283.83 C 510.06 281.92 507.59 282.63 505.76 282.36 C 505.27 282.81 504.29 283.71 503.79 284.16 C 503.16 283.05 502.52 281.95 501.84 280.87 C 499.12 277.91 493.93 278.34 492.35 282.24 C 484.01 284.03 475.45 282.79 467.01 283.11 C 461.90 283.05 456.68 283.70 451.70 282.27 C 440.56 279.23 428.71 283.19 417.63 279.74 C 406.78 278.16 395.58 279.21 384.86 276.56 C 378.90 275.62 372.72 276.08 366.95 274.01 C 362.91 272.51 358.51 272.72 354.60 274.49 C 354.63 269.59 354.69 264.69 354.54 259.79 Z" />
<path fill="#c5c5c5" d=" M 705.54 260.40 L 705.63 259.54 C 706.12 277.58 705.75 295.64 705.73 313.69 C 592.48 313.76 479.22 313.68 365.97 313.73 C 362.18 313.73 358.40 313.76 354.62 313.62 C 354.61 308.25 354.64 302.88 354.59 297.51 C 362.77 293.54 371.61 297.90 379.96 298.83 C 384.40 298.96 388.64 300.36 393.03 300.87 C 401.71 301.19 410.35 302.35 419.05 301.92 C 430.37 302.15 441.73 301.34 453.01 302.64 C 461.01 303.42 469.04 302.63 477.06 302.97 C 486.71 303.79 496.38 304.35 506.04 304.98 C 523.34 304.77 540.65 305.13 557.95 304.80 C 570.59 303.00 583.38 304.84 596.03 303.20 C 605.71 303.06 615.32 301.60 625.01 301.95 C 637.68 301.78 650.38 302.45 663.01 301.11 C 668.80 301.33 674.28 299.23 680.01 298.83 C 684.07 298.58 687.89 296.83 691.98 296.87 C 696.24 296.87 700.49 296.99 704.76 296.84 C 705.00 288.93 705.02 281.02 705.06 273.12 C 705.03 268.87 705.07 264.62 705.54 260.40 Z" />
<path fill="#c7c7c7" d=" M 343.13 274.90 C 343.08 270.47 343.19 266.02 343.94 261.64 C 344.05 278.99 344.04 296.34 343.87 313.69 C 230.70 313.70 117.53 313.77 4.37 313.65 C 4.30 304.46 4.32 295.27 4.32 286.08 C 10.20 286.25 16.26 285.39 21.99 287.11 C 33.25 290.97 45.32 289.59 56.96 290.93 C 63.47 290.39 69.50 293.51 75.97 293.17 C 84.99 293.02 94.03 293.09 103.06 293.17 C 105.70 293.22 108.29 292.62 110.83 291.91 C 113.31 292.37 116.26 293.13 118.40 291.33 C 119.33 289.59 119.11 287.50 119.42 285.62 C 119.88 286.46 120.34 287.30 120.81 288.15 C 121.34 289.52 121.61 291.07 122.61 292.22 C 124.78 292.46 126.97 292.26 129.15 292.26 C 129.08 289.17 129.08 286.07 128.52 283.02 C 128.76 283.36 129.24 284.02 129.48 284.36 C 129.94 285.92 130.32 287.51 130.72 289.10 C 130.94 285.54 131.10 281.97 131.48 278.42 L 132.41 278.21 C 132.47 283.29 132.04 288.43 132.96 293.46 C 133.69 291.94 134.27 290.33 134.47 288.65 L 135.78 289.45 C 137.58 291.86 140.24 292.85 143.21 292.51 C 143.42 292.08 143.85 291.22 144.06 290.79 C 141.44 290.93 138.49 291.05 137.43 288.11 C 139.77 288.00 142.12 287.96 144.47 287.92 C 144.50 287.45 144.54 286.52 144.56 286.06 L 146.32 284.43 C 146.34 287.09 146.40 289.76 146.44 292.43 C 146.88 292.37 147.77 292.26 148.22 292.20 C 148.24 289.77 148.27 287.34 148.31 284.92 C 149.50 284.16 150.69 283.41 151.86 282.63 C 152.18 282.63 152.83 282.64 153.15 282.64 C 152.67 285.78 152.72 288.96 152.71 292.13 C 153.17 292.24 154.10 292.44 154.56 292.55 C 154.60 291.27 154.63 290.00 154.65 288.74 C 155.58 288.26 156.51 287.78 157.46 287.35 C 157.41 289.12 157.44 290.89 157.52 292.66 C 158.68 292.00 161.20 292.90 161.70 291.36 C 160.54 290.90 159.39 290.44 158.23 289.99 C 158.85 287.98 161.18 288.00 162.81 287.30 C 163.03 289.33 162.17 292.07 164.66 293.01 C 164.71 292.33 164.81 290.96 164.86 290.28 C 166.67 290.13 168.48 289.98 170.29 289.82 C 170.96 287.82 171.62 285.82 172.47 283.89 C 172.10 286.63 171.23 290.41 174.10 292.14 C 176.13 292.41 178.19 292.30 180.24 292.34 C 180.25 291.45 180.26 290.56 180.28 289.68 C 180.79 289.93 181.80 290.42 182.31 290.66 C 184.62 292.09 187.23 292.79 189.96 292.46 C 190.19 291.94 190.66 290.88 190.89 290.36 C 193.49 290.07 196.23 290.18 198.43 291.78 L 199.53 292.88 C 199.67 290.07 199.71 287.27 199.71 284.46 C 200.53 283.98 201.34 283.50 202.16 283.03 C 202.56 283.20 203.34 283.54 203.74 283.71 C 203.24 285.86 202.42 288.31 203.68 290.37 C 205.06 293.24 209.87 293.33 211.25 290.42 C 212.64 288.17 211.70 285.54 210.89 283.28 C 211.45 283.20 212.56 283.04 213.12 282.96 C 215.45 284.60 214.35 287.73 214.81 290.11 C 214.49 292.00 216.84 292.34 217.94 293.21 C 217.45 291.84 216.91 290.49 216.44 289.12 C 217.27 289.10 218.94 289.06 219.77 289.04 C 220.89 290.47 221.81 292.69 224.00 292.46 C 226.89 293.18 228.27 290.24 229.31 288.15 C 229.81 287.82 230.81 287.14 231.31 286.80 C 233.44 287.82 236.25 288.09 237.40 290.45 C 234.99 291.42 232.75 290.10 230.59 289.20 C 231.35 292.69 234.92 292.47 237.75 292.63 C 246.49 293.59 255.28 292.92 264.05 293.07 C 269.81 292.87 275.72 293.88 281.35 292.23 C 286.83 290.58 292.61 291.16 298.24 290.47 C 305.48 289.59 312.77 290.45 320.04 290.05 C 324.35 289.86 327.61 286.20 331.97 286.17 C 335.60 285.96 339.24 286.08 342.88 286.00 C 343.04 282.30 343.16 278.60 343.13 274.90 Z" />
<path fill="#cccccc" d=" M 354.60 274.49 C 358.51 272.72 362.91 272.51 366.95 274.01 C 372.72 276.08 378.90 275.62 384.86 276.56 C 395.58 279.21 406.78 278.16 417.63 279.74 C 428.71 283.19 440.56 279.23 451.70 282.27 C 456.68 283.70 461.90 283.05 467.01 283.11 C 475.45 282.79 484.01 284.03 492.35 282.24 C 492.31 285.21 491.51 288.80 493.79 291.19 C 495.20 292.76 497.56 292.76 499.46 292.24 C 501.35 291.55 501.67 289.33 502.38 287.72 C 500.62 288.98 498.94 290.35 497.22 291.65 C 496.56 291.26 495.22 290.48 494.55 290.09 C 494.00 286.94 492.75 282.64 495.92 280.46 C 498.63 279.37 500.10 282.02 501.45 283.83 C 501.57 282.84 501.70 281.85 501.84 280.87 C 502.52 281.95 503.16 283.05 503.79 284.16 C 503.64 286.51 502.76 289.38 504.68 291.26 C 505.98 292.22 507.67 292.37 509.18 292.87 C 510.30 291.69 511.41 290.52 512.54 289.35 L 514.45 288.55 C 514.46 289.83 514.47 291.13 514.49 292.42 C 514.93 292.39 515.81 292.32 516.25 292.28 C 516.27 289.39 516.33 286.50 516.47 283.62 C 517.46 283.61 519.45 283.60 520.44 283.60 C 520.56 286.47 520.72 289.36 520.80 292.24 C 521.22 292.30 522.08 292.41 522.50 292.47 C 522.53 291.37 522.56 290.28 522.59 289.19 C 523.62 287.99 524.66 286.79 525.67 285.56 C 525.65 287.74 525.73 289.93 525.81 292.12 C 526.89 292.31 527.98 292.51 529.08 292.71 C 528.60 291.82 528.13 290.93 527.68 290.04 C 528.51 289.96 530.16 289.81 530.99 289.73 C 531.45 290.64 531.93 291.55 532.43 292.45 C 534.66 292.36 536.89 292.26 539.12 292.23 C 539.06 289.65 539.01 287.08 538.89 284.51 C 539.81 286.23 540.66 287.99 541.68 289.66 C 542.45 290.63 543.25 291.55 544.06 292.50 C 546.83 292.73 550.08 292.00 550.20 288.59 C 549.15 289.36 548.11 290.15 547.09 290.96 C 546.20 290.81 544.41 290.52 543.51 290.38 C 543.78 288.10 542.96 285.24 545.07 283.63 C 547.12 283.35 548.45 285.27 550.02 286.26 C 549.82 285.35 549.44 283.54 549.24 282.64 C 549.76 282.71 550.80 282.85 551.32 282.92 C 552.61 285.84 552.36 289.10 552.60 292.22 C 553.55 292.38 554.52 292.55 555.49 292.73 C 555.60 292.25 555.82 291.29 555.93 290.81 C 556.48 288.50 557.14 286.22 558.11 284.06 C 557.94 286.00 557.55 288.03 558.12 289.94 C 559.21 293.31 564.73 293.65 566.19 290.43 C 567.60 288.05 566.52 285.30 565.71 282.93 C 577.45 283.54 589.23 282.84 600.99 283.20 C 606.44 283.52 611.52 280.93 616.95 281.06 C 624.82 281.07 632.73 281.61 640.57 280.63 C 646.86 279.82 653.34 280.79 659.44 278.72 C 669.87 277.10 680.83 278.38 690.87 274.56 C 695.42 272.94 700.29 272.95 705.06 273.12 C 705.02 281.02 705.00 288.93 704.76 296.84 C 700.49 296.99 696.24 296.87 691.98 296.87 C 687.89 296.83 684.07 298.58 680.01 298.83 C 674.28 299.23 668.80 301.33 663.01 301.11 C 650.38 302.45 637.68 301.78 625.01 301.95 C 615.32 301.60 605.71 303.06 596.03 303.20 C 583.38 304.84 570.59 303.00 557.95 304.80 C 540.65 305.13 523.34 304.77 506.04 304.98 C 496.38 304.35 486.71 303.79 477.06 302.97 C 469.04 302.63 461.01 303.42 453.01 302.64 C 441.73 301.34 430.37 302.15 419.05 301.92 C 410.35 302.35 401.71 301.19 393.03 300.87 C 388.64 300.36 384.40 298.96 379.96 298.83 C 371.61 297.90 362.77 293.54 354.59 297.51 C 354.66 289.83 354.62 282.16 354.60 274.49 Z" />
<path fill="#cfcfcf" d=" M 4.33 275.63 C 8.07 275.07 11.88 274.81 15.65 275.27 C 22.11 275.76 28.23 278.47 34.78 278.12 C 35.60 279.02 36.42 279.93 37.24 280.85 C 44.83 281.04 52.42 280.94 60.02 280.85 C 65.15 280.76 69.89 283.45 75.06 283.02 C 86.32 282.58 97.62 283.55 108.85 282.50 C 108.44 285.78 108.82 289.18 110.83 291.91 C 108.29 292.62 105.70 293.22 103.06 293.17 C 94.03 293.09 84.99 293.02 75.97 293.17 C 69.50 293.51 63.47 290.39 56.96 290.93 C 45.32 289.59 33.25 290.97 21.99 287.11 C 16.26 285.39 10.20 286.25 4.32 286.08 C 4.33 282.60 4.32 279.12 4.33 275.63 Z" />
<path fill="#cfcfcf" d=" M 329.74 276.38 C 334.07 275.05 338.61 274.67 343.13 274.90 C 343.16 278.60 343.04 282.30 342.88 286.00 C 339.24 286.08 335.60 285.96 331.97 286.17 C 327.61 286.20 324.35 289.86 320.04 290.05 C 312.77 290.45 305.48 289.59 298.24 290.47 C 292.61 291.16 286.83 290.58 281.35 292.23 C 275.72 293.88 269.81 292.87 264.05 293.07 C 255.28 292.92 246.49 293.59 237.75 292.63 C 238.08 291.24 238.69 289.86 238.57 288.40 C 236.77 287.06 234.56 286.48 232.52 285.61 C 233.72 282.32 236.44 284.61 238.50 285.64 C 238.29 284.65 238.07 283.66 237.86 282.68 C 249.55 283.39 261.27 282.63 272.98 283.01 C 278.47 283.39 283.58 280.79 289.03 280.84 C 295.34 280.78 301.65 281.11 307.95 280.90 C 311.23 280.93 313.73 278.31 316.93 278.02 C 321.22 277.63 325.58 277.66 329.74 276.38 Z" />
<path fill="#242424" d=" M 132.41 278.21 C 132.89 278.12 133.84 277.93 134.31 277.84 C 134.32 281.44 134.37 285.04 134.47 288.65 C 134.27 290.33 133.69 291.94 132.96 293.46 C 132.04 288.43 132.47 283.29 132.41 278.21 Z" />
<path fill="#030303" d=" M 178.43 278.01 C 178.89 278.03 179.82 278.06 180.28 278.08 C 180.27 281.94 180.31 285.81 180.28 289.68 C 180.26 290.56 180.25 291.45 180.24 292.34 C 178.19 292.30 176.13 292.41 174.10 292.14 C 171.23 290.41 172.10 286.63 172.47 283.89 C 173.98 282.10 176.45 282.55 178.51 282.46 C 178.48 280.97 178.45 279.49 178.43 278.01 Z" />
<path fill="#0d0d0d" d=" M 198.79 278.70 C 199.34 278.43 200.43 277.89 200.98 277.62 C 201.43 277.84 202.32 278.30 202.77 278.53 C 201.45 279.42 200.15 280.38 199.28 281.75 C 200.00 282.07 201.44 282.71 202.16 283.03 C 201.34 283.50 200.53 283.98 199.71 284.46 C 199.71 287.27 199.67 290.07 199.53 292.88 L 198.43 291.78 C 198.16 288.83 197.94 285.88 197.38 282.98 C 197.85 281.55 198.32 280.12 198.79 278.70 Z" />
<path fill="#0c0c0c" d=" M 108.85 282.50 C 110.18 279.89 112.97 278.10 115.94 279.11 C 118.19 279.33 118.61 281.78 119.01 283.55 C 117.90 282.53 116.83 281.46 115.78 280.39 C 113.86 280.39 111.22 280.42 110.83 282.86 C 110.44 285.41 109.95 288.86 112.40 290.56 C 113.90 291.75 115.80 290.70 117.47 290.57 C 117.47 289.82 117.48 288.31 117.48 287.55 C 116.11 287.05 114.75 286.52 113.40 285.96 C 115.40 285.79 117.41 285.70 119.42 285.62 C 119.11 287.50 119.33 289.59 118.40 291.33 C 116.26 293.13 113.31 292.37 110.83 291.91 C 108.82 289.18 108.44 285.78 108.85 282.50 Z" />
<path fill="#111111" d=" M 153.15 282.64 C 153.14 280.45 154.06 278.77 156.38 278.36 C 155.66 279.31 154.94 280.27 154.21 281.21 C 154.53 283.71 154.69 286.22 154.65 288.74 C 154.63 290.00 154.60 291.27 154.56 292.55 C 154.10 292.44 153.17 292.24 152.71 292.13 C 152.72 288.96 152.67 285.78 153.15 282.64 Z" />
<path fill="#111111" d=" M 492.35 282.24 C 493.93 278.34 499.12 277.91 501.84 280.87 C 501.70 281.85 501.57 282.84 501.45 283.83 C 500.10 282.02 498.63 279.37 495.92 280.46 C 492.75 282.64 494.00 286.94 494.55 290.09 C 495.22 290.48 496.56 291.26 497.22 291.65 C 498.94 290.35 500.62 288.98 502.38 287.72 C 501.67 289.33 501.35 291.55 499.46 292.24 C 497.56 292.76 495.20 292.76 493.79 291.19 C 491.51 288.80 492.31 285.21 492.35 282.24 Z" />
<path fill="#111111" d=" M 213.12 282.96 C 214.03 282.01 214.89 281.02 215.75 280.03 C 216.57 281.18 217.39 282.31 218.25 283.44 C 217.75 283.67 216.76 284.11 216.27 284.33 C 216.30 285.92 216.35 287.52 216.44 289.12 C 216.91 290.49 217.45 291.84 217.94 293.21 C 216.84 292.34 214.49 292.00 214.81 290.11 C 214.35 287.73 215.45 284.60 213.12 282.96 Z" />
<path fill="#161616" d=" M 526.18 280.01 C 527.29 281.08 528.32 282.23 529.46 283.30 C 528.91 283.58 527.81 284.13 527.26 284.41 C 527.36 286.29 527.45 288.17 527.68 290.04 C 528.13 290.93 528.60 291.82 529.08 292.71 C 527.98 292.51 526.89 292.31 525.81 292.12 C 525.73 289.93 525.65 287.74 525.67 285.56 L 525.80 284.47 C 525.40 284.19 524.59 283.63 524.19 283.35 C 524.86 282.25 525.52 281.13 526.18 280.01 Z" />
<path fill="#282828" d=" M 551.32 282.92 C 551.92 281.74 552.52 280.57 553.13 279.40 C 553.45 280.07 554.11 281.42 554.44 282.09 C 554.96 282.32 555.99 282.80 556.51 283.03 C 555.93 283.40 554.75 284.12 554.17 284.49 C 554.19 286.54 554.21 288.60 554.24 290.67 L 555.93 290.81 C 555.82 291.29 555.60 292.25 555.49 292.73 C 554.52 292.55 553.55 292.38 552.60 292.22 C 552.36 289.10 552.61 285.84 551.32 282.92 Z" />
<path fill="#050505" d=" M 122.92 282.43 C 124.78 282.51 126.75 282.30 128.52 283.02 C 129.08 286.07 129.08 289.17 129.15 292.26 C 126.97 292.26 124.78 292.46 122.61 292.22 C 121.61 291.07 121.34 289.52 120.81 288.15 C 123.10 287.15 125.53 286.57 127.97 286.09 C 127.48 285.48 126.50 284.25 126.01 283.64 C 124.36 284.07 122.78 284.69 121.17 285.25 C 121.76 284.31 122.34 283.37 122.92 282.43 Z" />
<path fill="#161616" d=" M 138.46 282.67 C 140.03 282.36 141.65 282.46 143.25 282.43 C 143.70 283.63 144.14 284.84 144.56 286.06 C 144.54 286.52 144.50 287.45 144.47 287.92 C 142.12 287.96 139.77 288.00 137.43 288.11 C 138.49 291.05 141.44 290.93 144.06 290.79 C 143.85 291.22 143.42 292.08 143.21 292.51 C 140.24 292.85 137.58 291.86 135.78 289.45 C 136.21 287.10 136.07 284.03 138.46 282.67 Z" />
<path fill="#0c0c0c" d=" M 146.42 282.57 C 148.23 282.59 150.04 282.59 151.86 282.63 C 150.69 283.41 149.50 284.16 148.31 284.92 C 148.27 287.34 148.24 289.77 148.22 292.20 C 147.77 292.26 146.88 292.37 146.44 292.43 C 146.40 289.76 146.34 287.09 146.32 284.43 C 146.35 283.96 146.39 283.03 146.42 282.57 Z" />
<path fill="#0a0a0a" d=" M 156.40 284.80 C 158.22 282.86 160.82 281.58 163.47 282.70 C 165.65 284.52 164.63 287.81 164.86 290.28 C 164.81 290.96 164.71 292.33 164.66 293.01 C 162.17 292.07 163.03 289.33 162.81 287.30 C 161.18 288.00 158.85 287.98 158.23 289.99 C 159.39 290.44 160.54 290.90 161.70 291.36 C 161.20 292.90 158.68 292.00 157.52 292.66 C 157.44 290.89 157.41 289.12 157.46 287.35 C 159.47 286.87 161.51 286.56 163.54 286.23 C 163.03 285.38 162.48 284.57 161.89 283.79 C 160.05 284.06 158.24 284.51 156.40 284.80 Z" />
<path fill="#3b3b3b" d=" M 182.82 284.90 C 183.67 281.99 187.73 281.32 189.89 283.10 C 190.82 284.56 191.11 286.30 191.65 287.93 C 189.19 288.01 186.73 288.03 184.27 288.06 C 184.64 288.76 185.37 290.16 185.74 290.86 C 187.45 290.69 189.17 290.50 190.89 290.36 C 190.66 290.88 190.19 291.94 189.96 292.46 C 187.23 292.79 184.62 292.09 182.31 290.66 C 182.43 288.73 182.44 286.79 182.82 284.90 Z" />
<path fill="#111111" d=" M 203.74 283.71 C 205.84 282.10 208.58 282.03 210.89 283.28 C 211.70 285.54 212.64 288.17 211.25 290.42 C 209.87 293.33 205.06 293.24 203.68 290.37 C 202.42 288.31 203.24 285.86 203.74 283.71 Z" />
<path fill="#0d0d0d" d=" M 219.77 289.04 C 219.66 286.03 220.97 281.66 224.82 282.34 C 228.00 282.13 228.81 285.76 229.31 288.15 C 228.27 290.24 226.89 293.18 224.00 292.46 C 221.81 292.69 220.89 290.47 219.77 289.04 Z" />
<path fill="#161616" d=" M 231.61 282.55 C 233.70 282.50 235.78 282.52 237.86 282.68 C 238.07 283.66 238.29 284.65 238.50 285.64 C 236.44 284.61 233.72 282.32 232.52 285.61 C 234.56 286.48 236.77 287.06 238.57 288.40 C 238.69 289.86 238.08 291.24 237.75 292.63 C 234.92 292.47 231.35 292.69 230.59 289.20 C 232.75 290.10 234.99 291.42 237.40 290.45 C 236.25 288.09 233.44 287.82 231.31 286.80 C 231.39 285.38 231.50 283.96 231.61 282.55 Z" />
<path fill="#0b0b0b" d=" M 505.76 282.36 C 507.59 282.63 510.06 281.92 511.21 283.83 C 512.49 285.37 512.34 287.48 512.54 289.35 C 511.41 290.52 510.30 291.69 509.18 292.87 C 507.67 292.37 505.98 292.22 504.68 291.26 C 502.76 289.38 503.64 286.51 503.79 284.16 C 504.29 283.71 505.27 282.81 505.76 282.36 Z" />
<path fill="#030303" d=" M 514.45 282.62 C 516.88 282.61 519.30 282.50 521.74 282.48 C 521.41 282.76 520.77 283.32 520.44 283.60 C 519.45 283.60 517.46 283.61 516.47 283.62 C 516.33 286.50 516.27 289.39 516.25 292.28 C 515.81 292.32 514.93 292.39 514.49 292.42 C 514.47 291.13 514.46 289.83 514.45 288.55 C 514.44 286.57 514.45 284.59 514.45 282.62 Z" />
<path fill="#050505" d=" M 532.86 282.58 C 534.47 282.50 536.08 282.44 537.70 282.39 C 538.00 282.92 538.59 283.98 538.89 284.51 C 539.01 287.08 539.06 289.65 539.12 292.23 C 536.89 292.26 534.66 292.36 532.43 292.45 C 531.93 291.55 531.45 290.64 530.99 289.73 C 531.66 286.43 535.33 286.70 537.92 286.14 C 537.44 285.50 536.48 284.24 536.00 283.60 C 534.32 284.06 532.71 284.73 531.09 285.33 C 531.68 284.41 532.27 283.50 532.86 282.58 Z" />
<path fill="#0c0c0c" d=" M 542.78 283.85 C 544.13 281.60 547.09 282.62 549.24 282.64 C 549.44 283.54 549.82 285.35 550.02 286.26 C 548.45 285.27 547.12 283.35 545.07 283.63 C 542.96 285.24 543.78 288.10 543.51 290.38 C 544.41 290.52 546.20 290.81 547.09 290.96 C 548.11 290.15 549.15 289.36 550.20 288.59 C 550.08 292.00 546.83 292.73 544.06 292.50 C 543.25 291.55 542.45 290.63 541.68 289.66 C 541.84 287.71 541.59 285.54 542.78 283.85 Z" />
<path fill="#343434" d=" M 558.11 284.06 C 559.99 281.61 563.14 282.30 565.71 282.93 C 566.52 285.30 567.60 288.05 566.19 290.43 C 564.73 293.65 559.21 293.31 558.12 289.94 C 557.55 288.03 557.94 286.00 558.11 284.06 Z" />
<path fill="#1f1f1f" d=" M 520.44 283.60 C 520.77 283.32 521.41 282.76 521.74 282.48 C 522.28 284.68 522.58 286.92 522.59 289.19 C 522.56 290.28 522.53 291.37 522.50 292.47 C 522.08 292.41 521.22 292.30 520.80 292.24 C 520.72 289.36 520.56 286.47 520.44 283.60 Z" />
<path fill="#cfcfcf" d=" M 137.72 286.29 C 138.41 285.38 139.10 284.47 139.88 283.63 C 140.58 283.84 141.99 284.26 142.69 284.47 C 142.66 284.94 142.60 285.88 142.57 286.36 C 140.95 286.34 139.33 286.32 137.72 286.29 Z" />
<path fill="#d0d0d0" d=" M 173.46 285.66 C 174.45 284.48 175.55 283.29 177.27 283.46 C 179.19 285.34 178.19 288.25 178.46 290.62 C 177.11 290.68 175.76 290.78 174.42 290.65 C 173.61 289.11 173.71 287.32 173.46 285.66 Z" />
<path fill="#b6b6b6" d=" M 184.04 285.97 C 184.56 285.48 185.62 284.51 186.14 284.02 C 187.67 282.67 188.82 285.21 189.48 286.15 C 187.66 286.14 185.85 286.08 184.04 285.97 Z" />
<path fill="#d0d0d0" d=" M 206.11 284.11 C 207.23 282.78 209.24 283.85 209.71 285.21 C 210.60 286.98 209.71 288.90 209.47 290.72 C 208.49 290.74 206.53 290.77 205.54 290.79 C 205.23 288.65 204.10 285.73 206.11 284.11 Z" />
<path fill="#d0d0d0" d=" M 226.39 290.90 C 221.58 292.52 220.17 285.60 223.77 283.58 C 227.81 283.25 227.22 288.36 226.39 290.90 Z" />
<path fill="#d0d0d0" d=" M 505.49 290.68 C 505.44 288.31 504.33 285.04 506.92 283.59 C 508.65 283.16 509.68 284.60 510.71 285.69 C 510.56 287.31 510.40 288.95 510.25 290.58 C 508.66 290.65 507.07 290.68 505.49 290.68 Z" />
<path fill="#d0d0d0" d=" M 560.30 284.24 C 561.52 284.19 562.75 284.15 563.98 284.11 C 565.87 286.75 564.98 292.15 560.77 290.71 C 559.28 288.78 559.88 286.41 560.30 284.24 Z" />
<path fill="#cfcfcf" d=" M 122.93 290.84 C 122.60 288.00 125.18 287.81 127.34 287.46 C 127.33 288.46 127.32 289.47 127.31 290.49 C 125.85 290.62 124.39 290.74 122.93 290.84 Z" />
<path fill="#cfcfcf" d=" M 532.84 290.88 C 532.61 287.98 535.27 287.77 537.52 287.45 C 537.41 288.18 537.19 289.64 537.08 290.37 C 535.69 290.70 534.25 290.75 532.84 290.88 Z" />
</svg>
