<?xml version="1.0" encoding="UTF-8" ?>
<!DOCTYPE svg PUBLIC "-//W3C//DTD SVG 1.1//EN" "http://www.w3.org/Graphics/SVG/1.1/DTD/svg11.dtd">
<svg width="922pt" height="296pt" viewBox="0 0 922 296" version="1.1" xmlns="http://www.w3.org/2000/svg">
<path fill="#020202" d=" M 0.00 0.00 L 4.00 0.00 C 3.96 10.63 4.09 21.25 4.11 31.88 C 140.66 31.83 277.20 31.86 413.75 31.87 C 413.76 21.24 413.85 10.62 413.89 0.00 L 417.00 0.00 C 417.00 68.33 417.00 136.67 417.00 205.00 C 278.00 205.00 139.00 205.00 0.00 205.00 L 0.00 0.00 Z" />
<path fill="#878985" d=" M 4.00 0.00 L 413.89 0.00 C 413.85 10.62 413.76 21.24 413.75 31.87 C 277.20 31.86 140.66 31.83 4.11 31.88 C 4.09 21.25 3.96 10.63 4.00 0.00 Z" />
<path fill="#fefefe" d=" M 417.00 0.00 L 922.00 0.00 L 922.00 3.00 L 920.87 3.04 C 818.26 3.28 715.63 3.07 613.01 3.14 C 579.01 3.07 545.00 3.26 511.00 3.04 C 510.25 3.03 508.75 2.99 508.00 2.98 C 508.00 100.65 508.00 198.33 508.00 296.00 L 0.00 296.00 L 0.00 205.00 C 139.00 205.00 278.00 205.00 417.00 205.00 C 417.00 136.67 417.00 68.33 417.00 0.00 Z" />
<path fill="#020202" d=" M 508.00 2.98 C 508.75 2.99 510.25 3.03 511.00 3.04 C 510.96 13.66 511.08 24.27 511.11 34.88 C 647.66 34.83 784.20 34.86 920.75 34.87 C 920.75 24.26 920.87 13.65 920.87 3.04 L 922.00 3.00 L 922.00 296.00 L 508.00 296.00 C 508.00 198.33 508.00 100.65 508.00 2.98 Z" />
<path fill="#878985" d=" M 511.00 3.04 C 545.00 3.26 579.01 3.07 613.01 3.14 C 715.63 3.07 818.26 3.28 920.87 3.04 C 920.87 13.65 920.75 24.26 920.75 34.87 C 784.20 34.86 647.66 34.83 511.11 34.88 C 511.08 24.27 510.96 13.66 511.00 3.04 Z" />
<path fill="#fefefe" d=" M 27.33 8.43 C 28.97 7.95 29.53 8.51 29.00 10.12 C 27.36 10.62 26.81 10.05 27.33 8.43 Z" />
<path fill="#fefefe" d=" M 51.57 8.13 C 52.23 8.13 53.56 8.14 54.22 8.14 C 53.85 12.66 53.80 17.19 53.81 21.72 C 53.26 21.67 52.17 21.56 51.62 21.51 C 51.68 17.05 51.68 12.59 51.57 8.13 Z" />
<path fill="#fefefe" d=" M 10.90 8.99 C 12.10 9.03 13.31 9.07 14.51 9.12 C 15.25 12.34 16.07 15.57 17.49 18.57 C 18.55 15.51 19.38 12.37 20.10 9.22 C 21.01 9.15 22.82 9.02 23.73 8.95 C 23.72 13.17 23.71 17.38 23.72 21.59 L 21.54 21.62 C 21.55 18.36 21.54 15.09 21.42 11.84 C 20.17 14.99 19.16 18.23 18.26 21.50 C 17.73 21.55 16.67 21.65 16.13 21.70 C 15.28 18.73 14.49 15.74 13.63 12.77 C 13.12 16.04 12.83 19.35 12.13 22.58 C 10.09 18.35 11.32 13.51 10.90 8.99 Z" />
<path fill="#fefefe" d=" M 40.77 8.90 C 43.45 9.28 48.32 8.24 48.70 12.09 C 49.60 15.54 46.01 16.96 43.29 17.30 C 42.96 19.10 44.02 22.55 41.00 21.50 C 40.77 17.31 40.93 13.10 40.77 8.90 Z" />
<path fill="#fefefe" d=" M 77.58 12.49 C 78.44 11.31 79.22 10.08 80.07 8.89 C 80.68 10.42 81.74 11.55 83.32 12.05 C 83.32 12.36 83.32 12.97 83.32 13.28 C 82.69 13.33 81.43 13.42 80.80 13.47 C 80.82 15.26 80.84 17.05 80.90 18.84 C 82.16 19.39 82.99 20.38 83.34 21.71 C 81.83 21.28 79.48 21.98 78.82 20.06 C 78.43 17.53 78.39 14.94 77.58 12.49 Z" />
<path fill="#020202" d=" M 43.50 11.43 C 44.04 11.46 45.10 11.51 45.64 11.54 C 45.64 12.48 45.65 13.42 45.66 14.37 C 45.12 14.47 44.04 14.67 43.50 14.77 C 43.50 13.66 43.50 12.54 43.50 11.43 Z" />
<path fill="#fefefe" d=" M 534.32 11.45 C 535.95 10.93 536.52 11.49 536.02 13.11 C 534.39 13.63 533.82 13.08 534.32 11.45 Z" />
<path fill="#fefefe" d=" M 558.58 11.07 C 559.47 11.14 560.37 11.20 561.28 11.26 C 560.91 15.67 560.75 20.10 560.95 24.52 C 560.17 24.55 559.39 24.58 558.62 24.60 C 558.68 20.09 558.68 15.58 558.58 11.07 Z" />
<path fill="#fefefe" d=" M 27.01 11.64 C 27.56 11.65 28.65 11.66 29.20 11.67 C 29.46 15.07 29.34 18.50 29.29 21.91 C 28.79 21.74 27.78 21.40 27.27 21.23 C 26.91 18.05 26.84 14.83 27.01 11.64 Z" />
<path fill="#fefefe" d=" M 31.66 15.13 C 30.36 11.22 37.56 9.97 38.29 13.62 C 36.61 13.64 34.93 13.66 33.25 13.69 C 34.84 15.45 38.14 16.28 38.26 18.98 C 37.77 22.24 34.06 21.32 31.75 21.46 C 31.65 20.95 31.44 19.92 31.33 19.41 C 32.99 19.54 34.65 19.65 36.31 19.73 C 35.30 17.67 33.01 16.87 31.66 15.13 Z" />
<path fill="#fefefe" d=" M 56.53 12.88 C 58.55 11.60 61.55 10.75 63.49 12.63 C 64.40 15.66 63.82 18.89 63.72 22.00 C 62.98 21.51 62.25 21.01 61.53 20.50 C 60.10 20.97 58.66 21.40 57.22 21.81 C 56.73 19.95 55.31 17.59 57.07 15.97 C 58.72 15.15 60.64 15.06 62.39 14.53 C 60.53 13.70 58.52 13.31 56.53 12.88 Z" />
<path fill="#fefefe" d=" M 67.29 21.22 C 66.96 17.98 67.20 14.71 67.35 11.46 C 69.89 12.63 74.55 10.08 75.06 13.98 C 75.49 16.59 75.33 19.25 75.35 21.88 C 74.76 21.70 73.56 21.35 72.96 21.17 C 72.72 18.59 73.03 15.94 72.41 13.39 C 71.90 13.43 70.89 13.50 70.38 13.53 C 68.72 15.95 69.76 19.20 69.38 21.94 C 68.86 21.76 67.81 21.40 67.29 21.22 Z" />
<path fill="#fefefe" d=" M 85.86 13.35 C 87.06 10.98 90.64 10.98 92.45 12.60 C 93.49 15.59 93.29 18.82 92.72 21.88 C 90.90 19.70 88.43 21.46 86.29 21.73 C 85.68 19.94 84.30 17.54 86.08 15.96 C 87.72 15.15 89.62 15.10 91.36 14.60 C 89.76 13.41 87.74 13.53 85.86 13.35 Z" />
<path fill="#fefefe" d=" M 95.74 15.45 C 94.14 11.34 100.70 10.27 102.62 13.16 C 100.85 13.45 99.05 13.67 97.34 14.26 C 99.04 15.75 102.52 16.19 102.37 19.06 C 101.50 22.34 96.44 22.39 94.80 19.73 C 96.17 19.03 100.31 21.04 99.81 18.35 C 98.50 17.32 97.02 16.53 95.74 15.45 Z" />
<path fill="#fefefe" d=" M 517.90 11.99 C 519.10 12.03 520.30 12.07 521.50 12.11 C 522.25 15.35 523.12 18.58 524.47 21.63 C 525.54 18.54 526.38 15.38 527.12 12.20 C 528.32 12.12 529.53 12.04 530.74 11.97 C 530.71 16.19 530.71 20.42 530.70 24.64 C 530.16 24.63 529.08 24.59 528.54 24.57 C 528.56 21.87 528.52 19.16 528.29 16.47 C 526.71 18.90 525.97 21.71 525.28 24.49 C 524.74 24.55 523.67 24.66 523.14 24.71 C 522.28 21.74 521.49 18.75 520.68 15.77 C 520.13 19.06 519.84 22.38 519.02 25.61 C 517.25 21.29 518.24 16.53 517.90 11.99 Z" />
<path fill="#fefefe" d=" M 547.77 11.90 C 549.91 12.07 552.12 11.95 554.20 12.59 C 556.36 13.95 556.33 17.80 554.14 19.15 C 552.87 19.66 551.52 19.92 550.21 20.28 C 550.17 21.84 550.13 23.40 550.11 24.96 C 549.59 24.77 548.56 24.40 548.04 24.21 C 547.72 20.11 547.94 16.00 547.77 11.90 Z" />
<path fill="#fefefe" d=" M 584.58 15.49 C 585.43 14.31 586.21 13.08 587.07 11.90 C 587.67 13.41 588.73 14.53 590.29 15.04 C 590.31 15.35 590.33 15.97 590.35 16.27 C 589.71 16.32 588.45 16.43 587.82 16.48 C 587.81 18.37 587.82 20.26 587.83 22.15 C 588.61 22.41 590.16 22.92 590.94 23.18 C 589.76 24.29 588.24 24.91 586.65 24.32 C 584.81 21.80 585.81 18.31 584.58 15.49 Z" />
<path fill="#020202" d=" M 550.51 14.43 C 551.04 14.46 552.11 14.51 552.64 14.54 C 552.64 15.48 552.64 16.43 552.65 17.37 C 552.11 17.47 551.03 17.67 550.49 17.77 C 550.49 16.65 550.50 15.54 550.51 14.43 Z" />
<path fill="#fefefe" d=" M 534.00 14.91 C 534.54 14.85 535.63 14.71 536.18 14.64 C 536.46 18.06 536.34 21.50 536.29 24.92 C 535.79 24.74 534.78 24.36 534.28 24.18 C 533.91 21.11 533.80 18.00 534.00 14.91 Z" />
<path fill="#fefefe" d=" M 538.60 18.94 C 537.18 14.63 543.97 12.61 545.33 16.61 C 543.63 16.63 541.94 16.66 540.25 16.70 C 541.88 18.42 544.99 19.26 545.31 21.92 C 544.80 25.20 541.10 24.36 538.76 24.47 C 538.66 23.98 538.45 22.99 538.34 22.49 C 540.09 22.34 542.41 23.43 543.48 21.37 C 541.85 20.54 540.24 19.73 538.60 18.94 Z" />
<path fill="#fefefe" d=" M 563.54 15.91 C 565.51 14.56 568.52 13.76 570.46 15.62 C 571.45 18.68 571.04 21.94 570.78 25.07 C 570.26 24.68 569.22 23.88 568.71 23.49 C 567.22 23.95 565.72 24.39 564.23 24.80 C 563.72 22.95 562.30 20.58 564.08 18.97 C 565.70 18.11 567.64 18.13 569.40 17.62 C 567.57 16.67 565.52 16.33 563.54 15.91 Z" />
<path fill="#fefefe" d=" M 574.29 24.20 C 573.95 20.95 574.20 17.68 574.36 14.42 C 576.60 15.24 578.97 14.78 581.29 14.59 C 582.39 17.91 582.46 21.43 582.36 24.89 C 576.78 25.34 582.79 15.54 577.39 16.50 C 575.72 18.94 576.75 22.19 576.38 24.95 C 575.85 24.76 574.81 24.39 574.29 24.20 Z" />
<path fill="#fefefe" d=" M 592.86 16.34 C 594.10 13.99 597.69 13.96 599.49 15.65 C 600.38 18.50 600.25 21.56 600.13 24.51 C 599.48 24.30 598.17 23.89 597.52 23.68 C 596.12 24.05 594.72 24.43 593.34 24.81 C 592.71 23.00 591.27 20.59 593.06 18.97 C 594.68 18.11 596.63 18.15 598.39 17.65 C 596.80 16.39 594.74 16.53 592.86 16.34 Z" />
<path fill="#fefefe" d=" M 602.63 17.90 C 601.72 14.05 607.90 13.51 609.61 16.17 C 607.83 16.46 606.04 16.66 604.34 17.26 C 606.00 18.72 609.56 19.24 609.34 22.05 C 608.54 25.35 603.39 25.41 601.81 22.72 C 603.23 22.04 607.18 24.04 606.86 21.35 C 605.57 20.11 603.22 19.68 602.63 17.90 Z" />
<path fill="#020202" d=" M 59.50 16.68 C 59.99 16.68 60.96 16.67 61.45 16.67 C 61.36 17.49 61.27 18.31 61.18 19.13 C 60.71 19.21 59.77 19.38 59.30 19.46 C 59.36 18.53 59.43 17.61 59.50 16.68 Z" />
<path fill="#020202" d=" M 88.30 16.74 C 88.80 16.72 89.81 16.66 90.32 16.63 C 90.35 17.01 90.41 17.75 90.44 18.12 C 90.02 18.58 89.18 19.48 88.76 19.93 C 88.59 18.87 88.43 17.81 88.30 16.74 Z" />
<path fill="#020202" d=" M 566.50 19.68 C 566.99 19.68 567.96 19.67 568.45 19.67 C 568.35 20.49 568.26 21.31 568.18 22.14 C 567.70 22.21 566.76 22.37 566.29 22.44 C 566.35 21.52 566.42 20.60 566.50 19.68 Z" />
<path fill="#020202" d=" M 595.52 19.69 C 596.00 19.68 596.97 19.67 597.45 19.66 C 597.36 20.49 597.27 21.33 597.19 22.16 C 596.72 22.23 595.76 22.36 595.29 22.43 C 595.35 21.52 595.43 20.60 595.52 19.69 Z" />
<path fill="#878985" d=" M 554.22 40.92 L 556.92 40.87 C 555.28 44.54 557.75 48.15 557.31 51.93 C 557.96 51.91 559.25 51.87 559.89 51.85 C 559.61 49.81 560.74 46.24 557.27 46.85 C 557.57 46.09 558.16 44.58 558.46 43.82 C 563.71 44.09 564.44 51.40 561.05 54.39 C 558.78 54.69 556.49 54.56 554.22 54.63 C 554.16 50.06 554.16 45.49 554.22 40.92 Z" />
<path fill="#878985" d=" M 512.62 41.71 C 513.50 41.70 515.27 41.68 516.16 41.67 C 517.85 44.56 519.20 47.64 520.63 50.66 C 520.86 50.69 521.34 50.76 521.57 50.80 C 521.06 47.91 520.29 44.92 521.10 41.99 L 523.49 41.33 C 523.66 45.79 523.62 50.25 523.56 54.71 C 522.65 54.71 520.83 54.70 519.92 54.69 C 518.52 51.87 517.02 49.11 515.36 46.44 C 515.28 49.12 515.28 51.81 515.28 54.50 C 514.65 54.61 513.39 54.84 512.76 54.95 C 512.52 50.54 512.57 46.12 512.62 41.71 Z" />
<path fill="#878985" d=" M 528.33 44.44 C 532.30 42.67 535.69 47.23 534.49 50.90 C 534.29 53.98 530.75 55.57 528.11 54.36 C 524.45 52.50 524.40 45.99 528.33 44.44 Z" />
<path fill="#878985" d=" M 536.84 44.59 C 537.41 44.42 538.55 44.07 539.12 43.90 C 539.18 44.22 539.31 44.88 539.37 45.21 C 541.30 44.08 543.41 44.12 545.43 45.04 C 547.27 44.16 550.22 43.44 551.10 45.97 C 551.67 48.74 551.58 51.61 551.34 54.41 C 550.65 54.55 549.28 54.82 548.59 54.96 C 548.53 52.26 548.53 49.57 548.57 46.87 C 547.75 46.83 546.86 46.40 546.13 47.00 C 545.67 49.56 545.71 52.16 545.62 54.75 C 544.65 54.69 543.69 54.62 542.74 54.56 C 542.73 51.89 542.79 49.21 542.43 46.56 C 538.42 46.49 540.61 52.24 539.88 54.86 C 538.87 54.71 537.86 54.56 536.86 54.41 C 536.87 51.14 536.87 47.86 536.84 44.59 Z" />
<path fill="#878985" d=" M 573.72 53.33 C 570.62 50.17 572.88 43.04 577.87 44.18 C 580.92 44.50 581.22 47.89 581.45 50.29 C 579.23 50.37 577.02 50.44 574.81 50.61 C 576.49 52.31 578.80 52.32 581.05 52.22 C 580.84 52.83 580.42 54.06 580.21 54.68 C 578.04 54.51 575.36 55.17 573.72 53.33 Z" />
<path fill="#878985" d=" M 565.42 43.81 C 566.05 44.08 567.33 44.63 567.96 44.90 C 569.03 44.65 570.11 44.42 571.20 44.22 C 571.31 44.80 571.52 45.95 571.63 46.52 C 567.03 46.62 568.56 51.40 568.03 54.35 C 567.36 54.50 566.01 54.79 565.34 54.93 C 565.23 51.23 565.25 47.52 565.42 43.81 Z" />
<path fill="#020202" d=" M 528.83 46.47 C 529.68 46.77 530.55 47.03 531.38 47.41 C 531.56 48.86 531.55 50.32 531.60 51.77 C 530.66 51.88 529.71 51.99 528.78 52.10 C 528.67 50.22 528.68 48.34 528.83 46.47 Z" />
<path fill="#878985" d=" M 108.00 50.66 C 110.09 50.65 112.18 50.67 114.27 50.67 C 116.60 53.20 116.26 56.60 114.02 59.06 C 115.02 60.99 116.00 62.93 116.82 64.95 C 113.69 63.87 112.89 60.26 110.29 58.48 C 110.11 60.45 110.02 62.43 109.95 64.42 C 109.46 64.39 108.49 64.35 108.00 64.33 C 108.00 59.77 108.00 55.21 108.00 50.66 Z" />
<path fill="#020202" d=" M 110.09 51.93 C 111.64 52.56 114.57 52.51 114.01 55.00 C 114.39 57.19 111.48 57.17 110.13 57.81 C 110.07 55.85 110.07 53.89 110.09 51.93 Z" />
<path fill="#878985" d=" M 120.21 54.33 C 126.37 51.73 128.61 62.61 123.14 64.40 C 117.37 65.94 115.30 56.39 120.21 54.33 Z" />
<path fill="#878985" d=" M 128.00 57.98 C 126.38 53.89 132.81 52.56 134.62 55.65 C 132.94 55.76 131.25 55.90 129.58 56.07 C 130.15 58.74 134.86 58.77 134.39 61.99 C 133.80 64.93 130.27 64.75 128.03 64.15 C 126.24 61.07 132.42 64.06 132.70 61.36 C 131.18 60.17 129.47 59.24 128.00 57.98 Z" />
<path fill="#878985" d=" M 135.62 55.65 C 137.40 53.92 140.72 53.01 142.39 55.37 C 143.22 58.24 142.78 61.30 142.88 64.25 C 140.42 63.98 135.82 65.67 135.40 62.00 C 134.55 58.30 139.53 58.28 141.74 56.96 C 139.81 56.06 137.70 55.87 135.62 55.65 Z" />
<path fill="#020202" d=" M 120.22 56.24 C 121.39 55.50 122.53 55.53 123.66 56.33 C 124.62 58.33 123.97 60.54 123.62 62.60 C 122.48 62.63 121.34 62.65 120.20 62.68 C 119.71 60.57 118.93 58.24 120.22 56.24 Z" />
<path fill="#020202" d=" M 137.00 62.61 C 136.97 60.25 138.93 59.51 140.97 59.36 C 140.85 60.16 140.60 61.76 140.48 62.56 C 139.32 62.59 138.16 62.60 137.00 62.61 Z" />
<path fill="#878985" d=" M 560.24 66.44 C 561.60 65.27 563.62 67.54 562.02 68.60 C 560.65 69.74 558.60 67.49 560.24 66.44 Z" />
<path fill="#878985" d=" M 513.54 78.47 C 510.86 74.87 511.46 68.36 516.06 66.64 C 518.11 66.23 521.18 65.83 522.19 68.26 C 519.77 68.59 516.41 67.31 514.89 69.91 C 513.80 71.88 513.99 74.42 514.65 76.50 C 515.65 78.60 518.30 78.29 520.22 78.61 C 520.25 77.57 520.32 75.48 520.35 74.44 C 519.57 74.29 518.01 74.00 517.24 73.85 C 518.38 72.30 520.36 72.49 522.06 72.23 C 522.09 74.75 522.49 77.35 521.80 79.83 C 519.08 80.41 515.56 80.82 513.54 78.47 Z" />
<path fill="#878985" d=" M 526.94 80.09 C 521.85 78.59 523.16 68.55 529.02 69.95 C 531.44 70.35 531.59 73.07 532.24 74.92 C 529.96 75.02 527.69 75.08 525.42 75.19 C 525.90 76.20 526.44 77.19 527.03 78.15 C 528.71 78.45 530.44 78.51 532.15 78.70 C 530.64 79.80 528.84 80.68 526.94 80.09 Z" />
<path fill="#878985" d=" M 533.98 80.09 C 533.57 76.76 533.81 73.41 533.85 70.07 C 535.82 70.15 537.78 70.13 539.76 70.13 C 538.52 71.10 537.18 71.96 536.05 73.07 C 535.32 75.40 536.39 78.38 534.99 80.35 L 533.98 80.09 Z" />
<path fill="#878985" d=" M 540.34 71.57 C 541.80 69.54 545.47 68.99 546.99 71.17 C 547.87 74.29 547.38 77.59 547.25 80.77 C 546.34 79.81 545.44 78.87 544.56 77.89 C 544.90 77.21 545.57 75.84 545.91 75.16 C 544.47 75.42 543.04 75.71 541.62 76.01 C 541.81 77.79 542.72 78.61 544.35 78.46 C 544.23 79.03 543.99 80.18 543.87 80.75 C 541.03 80.39 539.63 78.39 539.60 75.66 C 541.68 74.50 543.98 73.87 546.28 73.30 C 544.75 71.54 542.51 71.49 540.34 71.57 Z" />
<path fill="#878985" d=" M 550.02 79.70 C 549.62 76.51 549.90 73.29 549.88 70.08 C 552.30 70.52 555.89 68.83 557.42 71.43 C 558.36 74.22 557.88 77.25 557.99 80.15 C 557.47 80.15 556.43 80.15 555.91 80.14 C 555.77 77.28 556.32 74.25 555.32 71.51 C 554.23 71.51 553.15 71.65 552.08 71.76 C 552.00 74.70 551.97 77.63 551.86 80.57 C 551.40 80.36 550.48 79.92 550.02 79.70 Z" />
<path fill="#878985" d=" M 560.29 69.56 C 560.73 69.74 561.60 70.12 562.03 70.30 C 562.43 73.54 562.35 76.85 562.06 80.09 C 561.63 80.11 560.78 80.13 560.35 80.14 C 560.09 76.62 560.22 73.08 560.29 69.56 Z" />
<path fill="#878985" d=" M 566.18 70.32 C 569.93 68.24 573.60 72.45 572.60 76.11 C 572.59 79.52 568.25 81.57 565.62 79.37 C 563.25 77.07 563.23 72.14 566.18 70.32 Z" />
<path fill="#020202" d=" M 527.48 71.61 C 528.77 71.10 529.40 72.74 530.28 73.36 C 528.71 73.40 527.15 73.40 525.59 73.38 C 526.18 72.75 526.81 72.16 527.48 71.61 Z" />
<path fill="#020202" d=" M 567.07 71.94 C 570.10 69.95 571.64 74.70 570.45 76.93 C 570.47 79.22 566.46 79.09 566.26 77.01 C 566.06 75.41 565.50 72.96 567.07 71.94 Z" />
<path fill="#02f801" d=" M 4.04 83.85 C 140.63 83.84 277.22 83.84 413.80 83.85 C 413.81 101.01 413.80 118.18 413.81 135.35 C 277.22 135.38 140.63 135.35 4.04 135.36 C 4.04 118.19 4.04 101.02 4.04 83.85 Z" />
<path fill="#878985" d=" M 21.05 87.17 C 25.62 84.40 31.19 86.36 36.12 84.92 C 36.47 85.38 37.15 86.30 37.50 86.77 C 37.99 86.74 38.97 86.68 39.47 86.65 C 42.06 89.52 46.44 91.74 46.12 96.20 C 44.94 97.27 43.80 98.39 42.68 99.52 C 42.03 99.21 41.38 98.92 40.73 98.64 C 39.84 99.70 38.62 100.25 37.34 100.68 C 37.65 101.04 38.28 101.75 38.60 102.11 C 36.21 103.17 33.73 102.54 31.44 101.59 C 31.33 104.79 31.26 107.99 31.20 111.20 C 32.46 111.77 33.71 112.37 34.97 112.96 C 34.77 112.13 34.36 110.47 34.15 109.64 C 36.85 110.92 39.51 112.30 42.23 113.53 C 42.77 114.90 43.42 116.21 43.96 117.58 C 43.33 117.52 42.06 117.39 41.43 117.33 C 41.51 118.40 41.68 120.56 41.76 121.63 L 41.00 122.07 C 40.26 120.49 39.52 118.92 38.76 117.36 C 38.60 119.34 38.48 121.33 38.36 123.32 C 40.48 123.57 42.59 123.94 44.64 124.52 C 43.38 126.54 43.16 128.88 43.06 131.20 C 41.88 131.39 40.69 131.57 39.50 131.75 C 38.65 130.89 37.79 130.04 36.94 129.19 C 37.20 128.58 37.73 127.35 38.00 126.74 C 36.10 126.25 34.20 125.74 32.30 125.25 C 32.36 126.63 32.42 128.01 32.48 129.39 C 30.89 129.42 29.31 129.45 27.72 129.48 C 28.23 129.24 29.25 128.75 29.76 128.51 C 29.72 127.55 29.67 126.59 29.63 125.63 C 28.09 125.18 26.55 124.71 25.01 124.24 C 24.79 123.74 24.35 122.76 24.13 122.27 C 23.52 122.42 22.28 122.72 21.67 122.88 C 21.67 122.23 21.68 120.94 21.69 120.29 C 20.71 120.38 18.76 120.55 17.79 120.63 C 18.60 119.40 19.41 118.17 20.21 116.93 C 20.65 117.36 21.52 118.23 21.96 118.66 C 22.08 118.14 22.31 117.10 22.43 116.58 C 25.25 116.75 28.11 116.61 30.77 115.60 C 31.06 111.21 30.22 106.93 29.01 102.74 C 28.14 101.98 27.28 101.22 26.43 100.45 C 24.78 100.72 23.13 100.97 21.47 101.20 C 20.71 99.86 19.93 98.54 19.15 97.21 C 18.49 97.42 17.17 97.82 16.51 98.02 C 15.98 97.04 15.45 96.07 14.91 95.10 C 15.25 94.49 15.92 93.26 16.26 92.64 C 16.57 92.45 17.19 92.05 17.49 91.86 C 18.47 90.17 19.23 88.13 21.05 87.17 Z" />
<path fill="#878985" d=" M 590.43 91.50 C 591.73 90.06 594.05 92.30 592.62 93.63 C 591.29 95.12 588.96 92.84 590.43 91.50 Z" />
<path fill="#878985" d=" M 615.08 91.03 C 615.80 91.06 617.25 91.11 617.97 91.14 C 618.09 95.82 618.06 100.51 618.04 105.19 C 617.01 104.98 615.99 104.77 614.99 104.55 C 613.75 104.66 612.49 105.19 611.27 104.82 C 608.60 102.89 608.40 98.70 610.05 96.05 C 610.93 94.09 613.29 94.92 614.98 94.66 C 615.00 93.45 615.03 92.24 615.08 91.03 Z" />
<path fill="#878985" d=" M 646.32 91.48 C 647.26 91.36 648.25 91.16 649.16 91.65 C 649.49 96.13 649.27 100.63 649.27 105.12 C 648.54 105.06 647.06 104.95 646.33 104.90 C 646.27 100.43 646.69 95.95 646.32 91.48 Z" />
<path fill="#878985" d=" M 512.63 91.99 C 515.31 91.98 517.99 91.97 520.68 92.08 C 520.42 95.18 517.32 94.58 515.11 94.85 C 514.98 97.73 517.68 97.31 519.71 97.54 C 519.74 98.13 519.81 99.31 519.84 99.91 C 518.40 99.96 516.97 100.01 515.54 100.06 C 515.28 102.32 516.29 105.98 512.64 105.30 C 512.57 100.86 512.58 96.42 512.63 91.99 Z" />
<path fill="#878985" d=" M 635.54 91.92 C 638.92 91.79 643.46 91.63 644.46 95.76 C 643.74 97.03 642.93 98.25 642.39 99.61 C 643.21 101.50 644.35 103.23 645.38 105.02 C 644.57 105.01 642.94 104.99 642.13 104.98 C 641.14 103.02 639.99 101.13 638.57 99.45 C 638.42 101.30 638.34 103.15 638.27 105.00 C 637.59 105.00 636.21 105.00 635.52 105.00 C 635.48 100.64 635.47 96.28 635.54 91.92 Z" />
<path fill="#878985" d=" M 542.06 94.96 C 545.27 94.46 548.57 95.23 551.80 94.61 C 551.93 97.43 552.03 100.25 552.33 103.06 C 555.80 101.78 554.42 97.59 554.74 94.73 C 555.72 94.65 556.71 94.58 557.71 94.51 C 557.81 98.06 557.82 101.60 557.77 105.14 C 556.75 104.97 555.74 104.79 554.73 104.60 C 553.51 104.82 552.29 104.95 551.07 105.00 C 547.96 103.43 548.97 99.42 548.90 96.66 C 547.07 96.94 545.24 97.15 543.41 97.35 C 543.20 99.09 543.27 100.85 543.63 102.57 C 544.69 102.49 546.79 102.34 547.85 102.26 C 547.57 106.24 543.35 104.93 540.86 104.15 C 539.95 101.12 539.06 97.15 542.06 94.96 Z" />
<path fill="#878985" d=" M 573.21 95.00 C 574.87 95.02 577.19 93.83 578.29 95.58 C 580.02 98.40 579.03 101.91 579.21 105.03 C 578.46 105.02 576.96 105.00 576.21 104.98 C 576.16 102.22 576.10 99.46 575.92 96.70 C 570.47 97.14 576.47 106.17 570.45 105.27 C 570.36 101.65 570.37 98.03 570.48 94.41 C 571.16 94.56 572.53 94.85 573.21 95.00 Z" />
<path fill="#020202" d=" M 638.47 94.15 C 639.41 94.73 641.49 95.03 640.75 96.63 C 640.01 97.04 639.25 97.43 638.49 97.78 C 638.46 96.57 638.46 95.36 638.47 94.15 Z" />
<path fill="#878985" d=" M 653.36 104.48 C 649.06 102.28 650.65 93.59 656.02 94.58 C 659.29 94.41 659.92 98.18 660.07 100.68 C 657.89 100.84 655.71 100.99 653.55 101.24 C 655.20 102.74 657.43 102.55 659.50 102.54 C 659.47 103.04 659.41 104.02 659.38 104.51 C 657.40 104.76 655.21 105.57 653.36 104.48 Z" />
<path fill="#878985" d=" M 522.67 94.44 C 523.38 94.62 524.80 94.97 525.51 95.14 C 526.30 95.02 527.88 94.77 528.67 94.64 C 530.15 97.12 526.04 97.10 525.73 99.05 C 525.47 101.02 525.52 103.02 525.48 105.00 C 524.77 105.00 523.36 105.00 522.66 105.00 C 522.63 101.48 522.63 97.96 522.67 94.44 Z" />
<path fill="#878985" d=" M 530.04 101.98 C 528.77 98.67 530.92 93.63 535.07 94.60 C 538.23 94.64 538.64 98.27 538.82 100.68 C 536.63 100.85 534.44 101.02 532.27 101.29 C 534.24 102.71 536.72 102.60 539.03 102.92 C 536.97 106.13 531.17 105.78 530.04 101.98 Z" />
<path fill="#878985" d=" M 560.61 104.13 C 559.05 100.73 559.03 94.63 564.00 94.57 C 567.61 93.99 568.60 97.95 568.71 100.69 C 566.51 100.86 564.30 101.01 562.12 101.27 C 563.88 102.83 566.22 102.53 568.39 102.61 C 567.43 106.30 563.27 104.89 560.61 104.13 Z" />
<path fill="#878985" d=" M 582.00 96.05 C 583.25 93.94 586.04 94.68 588.06 94.78 C 588.16 95.42 588.37 96.69 588.47 97.33 C 587.47 97.26 585.48 97.14 584.48 97.07 C 584.18 98.90 584.23 100.75 584.59 102.56 C 585.66 102.49 587.78 102.35 588.84 102.27 C 588.51 106.22 584.32 104.93 581.83 104.17 C 581.23 101.55 580.09 98.40 582.00 96.05 Z" />
<path fill="#878985" d=" M 589.98 94.92 C 590.73 94.79 592.23 94.51 592.98 94.38 C 593.01 98.02 593.01 101.66 592.97 105.30 C 592.22 105.14 590.72 104.83 589.97 104.68 C 589.68 101.44 589.70 98.16 589.98 94.92 Z" />
<path fill="#878985" d=" M 595.31 97.12 C 595.14 93.76 598.97 94.57 600.99 94.84 C 604.29 97.04 602.44 101.86 602.84 105.22 C 602.14 105.02 600.75 104.62 600.06 104.41 C 597.89 105.36 594.23 105.29 594.55 102.03 C 593.76 99.35 596.60 98.45 598.55 97.75 C 598.21 99.25 597.79 100.74 597.55 102.26 C 598.31 102.32 599.08 102.35 599.86 102.37 C 599.84 100.60 599.82 98.83 599.82 97.06 C 598.31 97.09 596.80 97.11 595.31 97.12 Z" />
<path fill="#878985" d=" M 623.16 104.75 C 619.16 103.16 619.14 96.59 622.96 94.83 C 624.37 94.66 625.80 94.57 627.24 94.53 C 628.45 96.39 629.14 98.50 629.35 100.71 C 627.13 100.86 624.90 101.02 622.71 101.27 C 624.54 102.78 626.88 102.61 629.12 102.63 C 628.36 105.29 625.36 105.47 623.16 104.75 Z" />
<path fill="#878985" d=" M 661.57 96.43 C 663.30 93.38 667.42 94.96 670.28 94.61 C 669.46 96.71 669.00 98.99 667.76 100.89 C 666.49 101.35 665.20 101.75 663.91 102.08 C 666.09 102.62 669.59 102.09 670.00 105.04 C 670.22 110.26 661.26 111.00 659.98 106.13 C 660.45 105.61 661.38 104.57 661.85 104.05 C 661.88 103.28 661.94 101.75 661.96 100.99 C 661.68 99.51 660.70 97.89 661.57 96.43 Z" />
<path fill="#878985" d=" M 673.33 95.37 C 675.40 93.80 679.08 94.42 680.01 97.03 C 681.61 100.15 680.10 105.32 676.00 105.05 C 671.14 105.21 669.82 97.94 673.33 95.37 Z" />
<path fill="#020202" d=" M 612.25 97.43 C 612.94 97.38 614.31 97.29 615.00 97.24 C 614.97 99.13 614.91 101.02 614.77 102.91 C 611.81 102.63 612.19 99.62 612.25 97.43 Z" />
<path fill="#020202" d=" M 654.32 97.16 C 655.28 95.74 657.99 97.22 656.80 98.72 C 655.80 100.00 653.11 98.69 654.32 97.16 Z" />
<path fill="#020202" d=" M 674.96 97.00 C 675.60 97.13 676.89 97.38 677.53 97.51 C 677.63 99.60 677.51 101.75 675.94 103.32 C 674.45 101.48 674.17 99.20 674.96 97.00 Z" />
<path fill="#878985" d=" M 109.95 103.90 C 111.77 102.41 114.26 102.90 116.44 102.71 C 116.59 103.17 116.90 104.09 117.05 104.56 C 114.93 104.78 112.19 103.70 110.61 105.62 C 108.69 108.14 108.77 112.48 111.50 114.40 C 112.96 114.74 114.47 114.79 115.96 114.94 C 115.76 112.90 116.64 109.79 113.40 110.17 L 113.30 108.81 C 114.38 108.81 116.55 108.80 117.63 108.80 C 117.63 111.31 117.59 113.82 117.50 116.33 C 114.75 116.23 111.27 117.26 109.20 114.84 C 106.66 111.80 106.80 106.49 109.95 103.90 Z" />
<path fill="#878985" d=" M 155.89 102.94 C 157.51 102.45 158.05 103.02 157.50 104.65 C 155.87 105.14 155.34 104.57 155.89 102.94 Z" />
<path fill="#020202" d=" M 662.73 105.08 C 664.46 105.16 666.20 105.29 667.93 105.51 C 666.44 107.10 663.08 108.34 662.73 105.08 Z" />
<path fill="#878985" d=" M 120.29 114.65 C 118.10 111.72 119.59 105.63 123.94 106.16 C 126.61 106.31 126.96 109.26 127.48 111.27 C 125.22 111.33 122.95 111.37 120.69 111.45 C 121.20 112.49 121.67 113.57 122.31 114.55 C 123.99 114.75 125.67 114.89 127.37 114.97 C 125.51 116.93 121.72 117.25 120.29 114.65 Z" />
<path fill="#878985" d=" M 129.28 106.37 C 131.27 106.39 133.27 106.45 135.24 106.77 C 133.86 107.41 132.57 108.18 131.37 109.08 C 131.05 111.46 131.14 113.87 131.13 116.26 C 130.69 116.34 129.81 116.49 129.37 116.57 C 129.33 113.17 129.32 109.77 129.28 106.37 Z" />
<path fill="#878985" d=" M 135.64 107.53 C 137.52 106.35 140.07 105.32 142.02 106.97 C 143.27 109.69 142.57 112.87 142.82 115.79 C 140.34 115.98 135.68 117.71 135.45 113.83 C 134.90 110.43 139.20 110.41 141.45 109.91 C 140.58 107.25 137.83 107.80 135.64 107.53 Z" />
<path fill="#878985" d=" M 145.51 106.36 C 148.01 106.67 151.68 105.17 153.06 108.04 C 153.52 110.77 153.31 113.55 153.33 116.30 C 152.89 116.34 152.01 116.41 151.57 116.45 C 151.56 113.94 151.71 111.42 151.35 108.93 C 151.70 106.83 147.11 106.94 147.59 108.94 C 147.21 111.54 147.33 114.18 147.26 116.80 C 146.87 116.61 146.10 116.25 145.71 116.07 C 145.30 112.85 145.57 109.60 145.51 106.36 Z" />
<path fill="#878985" d=" M 155.79 106.21 C 156.22 106.18 157.08 106.13 157.51 106.10 C 157.54 109.78 157.62 113.47 157.30 117.14 C 154.20 114.52 156.41 109.73 155.79 106.21 Z" />
<path fill="#878985" d=" M 162.32 106.34 C 166.58 104.80 169.27 110.42 167.57 113.80 C 166.79 116.67 162.57 117.54 160.78 115.15 C 158.56 112.68 158.91 107.60 162.32 106.34 Z" />
<path fill="#02f801" d=" M 120.64 109.55 C 121.71 108.97 122.49 107.15 123.93 107.82 C 124.37 108.28 125.25 109.22 125.68 109.69 C 124.00 109.68 122.32 109.64 120.64 109.55 Z" />
<path fill="#02f801" d=" M 162.15 108.00 C 163.39 107.44 164.54 107.57 165.60 108.39 C 166.45 110.38 165.87 112.55 165.69 114.61 C 164.44 114.69 163.20 114.78 161.97 114.86 C 161.41 112.61 160.63 110.07 162.15 108.00 Z" />
<path fill="#02f801" d=" M 136.88 114.71 C 137.16 112.40 138.62 111.26 140.94 111.36 C 140.85 112.19 140.67 113.86 140.59 114.69 C 139.35 114.70 138.11 114.71 136.88 114.71 Z" />
<path fill="#020202" d=" M 11.17 122.15 C 14.53 120.92 16.41 117.19 20.21 116.93 C 19.41 118.17 18.60 119.40 17.79 120.63 C 18.76 120.55 20.71 120.38 21.69 120.29 C 21.68 120.94 21.67 122.23 21.67 122.88 L 21.66 123.62 C 20.95 124.22 20.25 124.82 19.54 125.42 C 16.89 125.37 14.24 125.35 11.59 125.29 C 11.45 124.24 11.31 123.19 11.17 122.15 Z" />
<path fill="#878985" d=" M 512.10 120.25 C 513.63 119.08 514.87 116.46 517.12 116.87 C 517.60 121.40 517.22 125.97 517.31 130.52 C 516.88 130.56 516.02 130.64 515.59 130.68 C 515.55 127.18 515.55 123.68 515.60 120.19 C 514.72 120.21 512.98 120.24 512.10 120.25 Z" />
<path fill="#878985" d=" M 580.63 120.47 C 580.88 119.05 579.95 116.70 582.15 116.58 C 582.92 121.26 582.35 126.03 582.43 130.76 C 581.73 130.59 581.04 130.43 580.36 130.28 C 574.52 132.81 572.17 124.15 575.90 120.87 C 577.18 119.63 579.07 120.53 580.63 120.47 Z" />
<path fill="#878985" d=" M 596.86 127.75 C 599.22 123.82 600.58 118.49 604.97 116.37 C 605.03 119.49 604.99 122.62 605.00 125.74 C 605.58 126.00 606.73 126.51 607.31 126.76 C 605.77 127.89 604.77 129.45 604.21 131.26 C 603.70 130.21 603.17 129.15 602.67 128.09 C 600.72 128.00 598.79 127.90 596.86 127.75 Z" />
<path fill="#878985" d=" M 618.86 117.08 C 619.37 117.06 620.38 117.01 620.89 116.99 C 620.87 121.46 620.86 125.92 620.91 130.38 C 618.39 130.10 614.64 131.72 613.29 128.72 C 612.15 126.33 612.15 123.02 614.07 121.02 C 615.35 119.74 617.27 120.41 618.85 120.38 C 618.84 119.28 618.85 118.18 618.86 117.08 Z" />
<path fill="#878985" d=" M 623.47 130.62 C 623.65 126.17 622.51 121.20 624.96 117.20 C 625.55 117.07 626.74 116.80 627.33 116.67 C 626.50 117.59 625.66 118.50 624.82 119.40 C 625.60 123.08 625.41 126.85 625.34 130.58 C 624.88 130.59 623.94 130.61 623.47 130.62 Z" />
<path fill="#020202" d=" M 38.36 123.32 C 38.48 121.33 38.60 119.34 38.76 117.36 C 39.52 118.92 40.26 120.49 41.00 122.07 L 41.76 121.63 C 43.05 120.91 44.31 120.14 45.55 119.33 C 46.67 121.05 48.37 122.53 48.77 124.62 C 47.94 124.99 47.09 125.31 46.24 125.62 L 44.64 124.52 C 42.59 123.94 40.48 123.57 38.36 123.32 Z" />
<path fill="#878985" d=" M 525.32 119.94 C 529.00 120.60 528.36 125.61 529.81 128.25 C 531.09 125.28 530.95 121.25 534.06 119.47 C 532.94 123.50 533.09 128.92 529.14 131.35 C 527.69 127.61 526.36 123.82 525.32 119.94 Z" />
<path fill="#878985" d=" M 535.64 128.41 C 533.65 125.32 535.63 119.33 539.92 120.19 C 542.45 120.62 542.86 123.37 543.07 125.47 C 540.90 125.53 538.74 125.59 536.59 125.69 C 537.05 126.70 537.59 127.69 538.18 128.64 C 539.85 128.82 541.53 128.94 543.22 128.99 C 541.25 131.33 536.99 131.38 535.64 128.41 Z" />
<path fill="#878985" d=" M 543.52 120.54 C 545.94 120.13 548.39 119.99 550.85 119.92 C 549.98 123.26 548.09 126.17 546.23 129.04 C 547.93 129.15 549.63 129.30 551.33 129.49 C 549.39 131.61 546.25 130.45 543.75 130.64 C 545.00 127.60 546.69 124.78 548.49 122.04 C 546.78 121.72 544.97 121.59 543.52 120.54 Z" />
<path fill="#878985" d=" M 558.67 130.36 C 554.95 128.13 555.40 120.96 560.01 120.11 C 561.59 119.63 562.76 120.72 563.70 121.84 C 562.11 121.94 560.52 122.02 558.93 122.08 C 558.07 124.26 557.98 126.61 558.98 128.77 C 560.57 128.82 562.17 128.89 563.78 128.99 C 562.62 130.70 560.50 131.13 558.67 130.36 Z" />
<path fill="#878985" d=" M 564.95 121.89 C 566.72 119.74 570.66 119.18 572.04 122.04 C 572.49 124.81 572.28 127.63 572.31 130.42 C 570.15 130.38 567.96 130.73 565.83 130.30 C 563.40 128.00 565.15 123.99 568.66 124.15 C 568.11 125.19 567.53 126.22 566.92 127.22 C 566.82 127.62 566.64 128.42 566.54 128.82 C 567.61 128.79 568.69 128.73 569.77 128.64 C 570.12 126.46 570.02 124.24 570.05 122.05 C 568.35 122.02 566.65 121.97 564.95 121.89 Z" />
<path fill="#878985" d=" M 584.49 121.77 C 586.28 120.23 589.06 119.24 591.06 121.04 C 592.42 123.92 591.65 127.28 591.87 130.36 C 589.30 130.18 584.46 131.89 584.28 127.88 C 583.77 124.57 587.89 124.35 590.14 124.03 C 589.71 121.16 586.49 122.24 584.49 121.77 Z" />
<path fill="#878985" d=" M 627.34 121.81 C 628.97 119.93 631.96 119.39 633.91 121.13 C 634.84 124.15 634.44 127.35 634.50 130.46 C 631.96 130.15 627.35 131.84 626.99 128.02 C 626.37 124.48 630.69 124.29 633.06 123.99 C 632.30 121.34 629.38 122.18 627.34 121.81 Z" />
<path fill="#878985" d=" M 636.20 124.04 C 636.00 119.87 640.91 119.05 643.47 121.51 C 641.50 121.88 639.53 122.18 637.58 122.53 C 639.09 123.69 640.68 124.75 642.30 125.77 C 642.63 126.38 643.30 127.59 643.63 128.20 C 641.85 130.84 637.86 131.86 635.75 128.94 C 637.62 128.85 639.51 128.78 641.40 128.71 C 640.60 126.29 638.13 125.34 636.20 124.04 Z" />
<path fill="#020202" d=" M 599.33 126.00 C 600.57 123.99 601.82 121.99 603.09 120.00 C 603.11 122.00 603.13 124.00 603.15 126.00 C 602.20 126.00 600.28 126.00 599.33 126.00 Z" />
<path fill="#020202" d=" M 536.56 123.62 C 537.74 121.59 540.34 121.55 541.47 123.66 C 539.83 123.70 538.19 123.68 536.56 123.62 Z" />
<path fill="#020202" d=" M 576.82 121.96 C 577.64 122.00 579.29 122.07 580.11 122.10 C 580.56 124.30 580.58 126.56 580.15 128.77 C 579.34 128.81 577.73 128.89 576.93 128.93 C 575.99 126.67 576.04 124.25 576.82 121.96 Z" />
<path fill="#020202" d=" M 614.97 122.05 C 616.20 122.11 617.44 122.18 618.69 122.27 C 618.73 124.38 618.74 126.50 618.72 128.61 C 617.48 128.69 616.25 128.77 615.03 128.84 C 614.58 126.59 614.60 124.30 614.97 122.05 Z" />
<path fill="#020202" d=" M 22.10 127.92 C 23.00 126.63 23.78 125.24 25.01 124.24 C 26.55 124.71 28.09 125.18 29.63 125.63 C 29.67 126.59 29.72 127.55 29.76 128.51 C 29.25 128.75 28.23 129.24 27.72 129.48 C 29.31 129.45 30.89 129.42 32.48 129.39 C 32.42 128.01 32.36 126.63 32.30 125.25 C 34.20 125.74 36.10 126.25 38.00 126.74 C 37.73 127.35 37.20 128.58 36.94 129.19 C 36.61 129.76 35.95 130.90 35.62 131.48 C 35.56 132.11 35.42 133.37 35.36 134.01 C 31.41 132.03 26.83 133.15 22.83 131.37 C 22.60 130.21 22.36 129.06 22.10 127.92 Z" />
<path fill="#020202" d=" M 585.95 126.57 C 586.88 126.29 588.73 125.72 589.66 125.43 C 590.01 126.46 590.88 127.41 590.75 128.56 C 589.97 128.43 589.22 128.20 588.50 127.88 L 588.66 129.46 C 587.08 129.11 586.18 128.09 585.95 126.57 Z" />
<path fill="#020202" d=" M 628.78 129.10 C 628.73 126.84 629.94 125.33 632.36 125.66 C 633.78 128.13 630.62 129.10 628.78 129.10 Z" />
<path fill="#878985" d=" M 525.25 141.42 C 526.23 141.52 527.21 141.62 528.20 141.73 C 528.11 143.03 528.03 144.33 527.95 145.63 C 529.21 145.40 530.49 144.76 531.81 145.08 C 534.34 146.89 534.54 150.72 533.33 153.38 C 531.95 156.59 527.84 154.83 525.13 155.23 C 525.16 150.62 525.12 146.02 525.25 141.42 Z" />
<path fill="#878985" d=" M 536.55 141.50 C 538.66 141.30 539.84 142.23 538.78 144.49 C 539.40 148.04 539.25 151.66 539.18 155.25 C 538.23 155.31 537.28 155.37 536.34 155.44 C 536.20 151.82 536.20 148.20 536.41 144.59 C 536.41 143.55 536.45 142.52 536.55 141.50 Z" />
<path fill="#878985" d=" M 568.35 141.49 C 569.34 141.55 570.32 141.66 571.31 141.79 C 571.80 146.28 571.63 150.81 571.66 155.32 C 570.92 155.32 569.44 155.33 568.71 155.33 C 568.77 151.71 568.17 147.96 569.40 144.47 C 569.06 143.47 568.70 142.47 568.35 141.49 Z" />
<path fill="#878985" d=" M 577.68 141.51 C 578.78 141.54 579.90 141.57 581.02 141.60 C 580.14 142.60 579.24 143.58 578.35 144.56 C 582.16 145.65 583.64 150.29 581.57 153.53 C 579.90 156.40 575.00 155.93 573.80 152.85 C 572.21 149.87 573.79 146.51 576.34 144.70 C 576.78 143.64 577.22 142.57 577.68 141.51 Z" />
<path fill="#878985" d=" M 512.51 142.10 C 513.20 142.24 514.57 142.51 515.26 142.65 C 515.54 145.61 515.15 148.61 515.61 151.55 C 515.95 153.25 519.03 153.26 519.29 151.51 C 519.73 148.60 519.34 145.63 519.64 142.71 C 520.32 142.54 521.68 142.20 522.36 142.02 C 522.37 145.66 522.81 149.37 521.99 152.94 C 520.32 156.32 514.57 156.33 512.91 152.95 C 512.12 149.39 512.49 145.71 512.51 142.10 Z" />
<path fill="#fefefe" d=" M 18.05 146.06 C 19.52 144.47 21.50 143.86 23.61 144.43 C 27.37 145.38 31.81 142.69 35.07 145.41 C 36.25 145.50 37.42 145.57 38.60 145.62 C 39.34 146.40 40.08 147.19 40.84 147.96 C 42.95 147.99 42.48 149.87 42.48 151.33 C 43.16 151.49 44.52 151.81 45.20 151.96 C 44.39 152.25 42.76 152.82 41.95 153.10 C 43.04 153.28 45.23 153.63 46.33 153.80 C 46.60 154.55 47.14 156.05 47.41 156.80 C 47.38 158.72 47.47 160.64 47.52 162.57 C 47.52 163.54 47.52 164.53 47.52 165.51 C 47.01 165.74 45.97 166.19 45.46 166.42 C 45.97 164.84 46.47 163.24 46.96 161.66 C 45.80 161.25 44.64 160.84 43.48 160.43 C 43.48 159.50 43.48 157.65 43.48 156.72 C 41.94 157.73 40.42 158.75 38.90 159.77 C 40.34 160.91 41.76 162.08 43.24 163.17 L 42.47 163.74 C 39.82 163.36 37.26 162.53 34.77 161.58 C 34.40 162.49 34.03 163.40 33.66 164.30 C 33.44 163.58 33.02 162.12 32.81 161.40 C 32.22 161.06 31.03 160.38 30.44 160.05 C 31.74 160.21 33.05 160.37 34.35 160.54 C 34.92 160.10 35.49 159.66 36.07 159.22 C 36.75 159.62 38.11 160.44 38.79 160.85 C 38.50 159.35 38.21 157.87 37.91 156.38 C 38.05 155.48 38.34 153.69 38.48 152.79 C 36.09 154.19 34.82 156.61 34.09 159.18 C 31.65 158.71 29.18 158.42 26.72 158.12 C 27.99 154.23 32.36 155.66 35.43 155.31 C 35.36 153.61 35.28 151.91 35.20 150.21 C 36.69 150.34 38.18 150.46 39.67 150.59 L 39.80 148.59 C 37.68 148.23 35.59 147.67 33.46 147.31 C 33.53 148.24 33.65 150.10 33.71 151.02 C 32.43 150.36 31.14 149.69 29.85 149.04 C 29.60 149.68 29.11 150.96 28.86 151.61 C 27.83 151.55 26.81 151.49 25.79 151.44 C 25.42 150.89 24.70 149.78 24.34 149.23 C 23.20 150.51 22.10 151.84 20.85 153.03 C 20.70 152.14 20.38 150.35 20.23 149.46 C 20.97 149.28 22.46 148.91 23.20 148.72 C 21.49 148.23 19.69 148.19 17.97 148.65 C 17.10 148.87 15.37 149.32 14.50 149.55 C 15.56 148.27 16.76 147.11 18.05 146.06 Z" />
<path fill="#878985" d=" M 541.32 147.26 C 542.45 144.39 546.27 144.56 548.64 145.67 C 548.57 148.21 546.15 147.49 544.45 147.58 C 544.11 149.32 544.07 151.09 544.25 152.85 C 545.62 152.78 546.99 152.71 548.37 152.64 C 548.95 153.35 549.53 154.05 550.13 154.75 C 547.14 150.57 551.35 148.04 555.02 147.95 C 553.12 147.58 551.20 147.18 549.54 146.13 C 551.89 145.13 554.96 144.09 557.09 146.13 C 558.13 149.22 557.64 152.54 557.59 155.74 C 554.10 155.86 554.93 152.67 554.62 150.32 C 553.70 150.46 552.78 150.63 551.88 150.83 C 552.21 152.39 552.61 153.95 553.31 155.40 C 550.07 154.61 546.80 155.28 543.55 155.18 C 540.56 153.91 540.41 149.93 541.32 147.26 Z" />
<path fill="#878985" d=" M 560.39 146.68 C 561.92 144.46 565.25 144.46 567.37 145.81 C 567.82 148.46 564.47 147.12 563.05 147.69 C 562.87 149.36 562.81 151.05 562.85 152.73 C 564.04 152.74 566.42 152.77 567.61 152.78 C 566.84 156.99 560.34 155.84 559.76 152.08 C 559.57 150.30 559.29 148.23 560.39 146.68 Z" />
<path fill="#878985" d=" M 584.79 155.23 C 584.77 151.74 584.78 148.24 584.82 144.75 C 585.54 144.92 586.97 145.26 587.68 145.43 C 589.45 145.27 591.81 144.17 592.97 146.13 C 594.09 149.06 593.57 152.29 593.66 155.35 C 592.91 155.34 591.41 155.31 590.66 155.29 C 590.61 152.68 590.56 150.06 590.46 147.45 C 589.91 147.43 588.79 147.38 588.23 147.36 C 587.99 150.05 587.85 152.75 587.72 155.45 C 586.73 155.37 585.76 155.30 584.79 155.23 Z" />
<path fill="#878985" d=" M 28.19 147.04 C 28.79 147.57 28.79 147.57 28.19 147.04 Z" />
<path fill="#020202" d=" M 577.46 147.55 C 579.97 147.03 579.82 151.25 578.73 152.72 C 575.89 153.71 575.25 148.59 577.46 147.55 Z" />
<path fill="#878985" d=" M 23.97 148.11 C 24.53 148.69 24.53 148.69 23.97 148.11 Z" />
<path fill="#878985" d=" M 33.46 147.31 C 35.59 147.67 37.68 148.23 39.80 148.59 L 39.67 150.59 C 38.18 150.46 36.69 150.34 35.20 150.21 C 35.28 151.91 35.36 153.61 35.43 155.31 C 32.36 155.66 27.99 154.23 26.72 158.12 C 29.18 158.42 31.65 158.71 34.09 159.18 C 34.82 156.61 36.09 154.19 38.48 152.79 C 38.34 153.69 38.05 155.48 37.91 156.38 C 38.21 157.87 38.50 159.35 38.79 160.85 C 38.11 160.44 36.75 159.62 36.07 159.22 C 35.49 159.66 34.92 160.10 34.35 160.54 C 33.05 160.37 31.74 160.21 30.44 160.05 C 31.03 160.38 32.22 161.06 32.81 161.40 C 33.02 162.12 33.44 163.58 33.66 164.30 C 34.03 163.40 34.40 162.49 34.77 161.58 C 37.26 162.53 39.82 163.36 42.47 163.74 C 42.96 165.97 45.53 163.88 43.24 163.17 C 41.76 162.08 40.34 160.91 38.90 159.77 C 40.42 158.75 41.94 157.73 43.48 156.72 C 43.48 157.65 43.48 159.50 43.48 160.43 C 44.64 160.84 45.80 161.25 46.96 161.66 C 46.47 163.24 45.97 164.84 45.46 166.42 C 45.97 166.19 47.01 165.74 47.52 165.51 C 47.52 164.53 47.52 163.54 47.52 162.57 L 48.87 161.25 C 48.68 166.83 47.26 172.33 44.79 177.33 C 43.55 176.97 42.32 176.59 41.09 176.21 C 40.35 176.26 38.86 176.34 38.12 176.38 L 37.00 174.96 C 38.48 174.85 39.97 174.76 41.45 174.67 C 41.89 173.53 42.34 172.41 42.80 171.28 C 42.02 171.40 40.46 171.64 39.68 171.76 C 39.54 170.88 39.27 169.12 39.13 168.23 C 40.09 168.37 41.99 168.65 42.95 168.79 C 42.77 168.32 42.42 167.38 42.24 166.92 C 41.67 166.79 40.52 166.54 39.94 166.42 C 39.54 165.92 38.73 164.92 38.33 164.43 C 37.85 164.42 36.90 164.41 36.42 164.41 C 35.55 165.35 34.68 166.30 33.81 167.26 C 33.07 167.30 31.60 167.38 30.87 167.42 C 29.74 165.48 28.91 163.26 27.15 161.80 C 25.82 160.78 24.19 162.65 22.81 162.51 C 22.87 162.16 22.97 161.46 23.02 161.12 C 23.80 159.90 25.48 159.81 26.66 159.16 C 26.56 158.06 26.36 155.86 26.26 154.76 C 25.09 156.10 23.93 157.45 22.78 158.81 C 22.31 157.38 21.84 155.95 21.38 154.52 C 19.43 153.71 17.48 152.90 15.54 152.07 C 16.68 151.15 18.95 149.33 20.08 148.41 C 19.90 149.53 19.55 151.76 19.37 152.88 L 20.85 153.03 C 22.10 151.84 23.20 150.51 24.34 149.23 C 24.70 149.78 25.42 150.89 25.79 151.44 C 26.81 151.49 27.83 151.55 28.86 151.61 C 29.11 150.96 29.60 149.68 29.85 149.04 C 31.14 149.69 32.43 150.36 33.71 151.02 C 33.65 150.10 33.53 148.24 33.46 147.31 Z" />
<path fill="#020202" d=" M 528.21 152.73 C 528.41 150.68 527.12 147.39 530.22 147.22 C 530.82 148.97 530.75 150.84 530.81 152.66 C 530.16 152.68 528.86 152.71 528.21 152.73 Z" />
<path fill="#878985" d=" M 26.25 150.29 C 26.74 150.87 26.74 150.87 26.25 150.29 Z" />
<path fill="#878985" d=" M 39.97 151.57 C 41.38 151.17 41.86 151.68 41.41 153.08 C 39.99 153.47 39.51 152.97 39.97 151.57 Z" />
<path fill="#fefefe" d=" M 15.44 152.02 L 15.54 152.07 C 17.48 152.90 19.43 153.71 21.38 154.52 C 21.84 155.95 22.31 157.38 22.78 158.81 C 23.93 157.45 25.09 156.10 26.26 154.76 C 26.36 155.86 26.56 158.06 26.66 159.16 C 25.48 159.81 23.80 159.90 23.02 161.12 C 22.97 161.46 22.87 162.16 22.81 162.51 C 24.19 162.65 25.82 160.78 27.15 161.80 C 28.91 163.26 29.74 165.48 30.87 167.42 C 31.60 167.38 33.07 167.30 33.81 167.26 C 34.68 166.30 35.55 165.35 36.42 164.41 C 36.90 164.41 37.85 164.42 38.33 164.43 C 38.73 164.92 39.54 165.92 39.94 166.42 C 40.52 166.54 41.67 166.79 42.24 166.92 C 42.42 167.38 42.77 168.32 42.95 168.79 C 41.99 168.65 40.09 168.37 39.13 168.23 C 39.27 169.12 39.54 170.88 39.68 171.76 C 40.46 171.64 42.02 171.40 42.80 171.28 C 42.34 172.41 41.89 173.53 41.45 174.67 C 39.97 174.76 38.48 174.85 37.00 174.96 L 38.12 176.38 C 37.61 176.53 36.58 176.83 36.07 176.98 C 35.97 176.10 35.76 174.33 35.66 173.45 C 34.46 174.33 33.25 175.21 31.96 175.96 C 33.72 174.44 34.27 172.46 33.62 170.25 C 33.17 170.87 32.28 172.13 31.84 172.76 C 31.21 171.70 30.58 170.65 29.94 169.61 C 30.56 169.90 31.81 170.48 32.44 170.77 L 32.67 168.62 C 31.99 168.47 31.31 168.32 30.63 168.18 C 29.23 167.40 27.83 166.63 26.43 165.87 C 27.14 167.63 27.85 169.39 28.57 171.15 C 26.50 172.18 24.22 172.51 21.97 171.88 L 21.43 171.78 C 20.50 171.47 19.56 171.15 18.63 170.82 C 18.58 170.00 18.52 169.19 18.47 168.39 C 19.84 166.69 23.66 164.66 21.80 162.25 C 20.73 162.13 19.66 162.13 18.59 162.28 C 17.76 162.34 16.11 162.47 15.28 162.54 C 15.56 163.62 15.85 164.70 16.13 165.78 C 15.64 166.94 15.18 168.12 14.72 169.29 C 14.67 167.87 14.63 166.45 14.62 165.03 C 12.97 165.59 11.32 166.15 9.68 166.73 C 9.68 164.52 9.58 162.31 9.45 160.11 C 9.88 159.41 10.68 159.02 11.85 158.95 L 9.89 157.85 L 11.69 157.17 C 11.54 156.65 11.23 155.61 11.08 155.08 L 12.87 155.85 C 12.77 155.27 12.58 154.10 12.49 153.51 C 13.28 153.49 14.87 153.44 15.66 153.41 C 15.61 153.06 15.50 152.37 15.44 152.02 Z" />
<path fill="#878985" d=" M 108.00 154.84 C 108.72 154.85 110.16 154.86 110.88 154.86 C 111.95 158.39 113.05 161.92 114.32 165.39 C 115.59 162.01 116.35 158.43 117.86 155.14 C 118.49 154.98 119.75 154.64 120.37 154.48 C 120.47 159.18 120.43 163.88 120.40 168.58 L 118.55 168.63 C 118.52 165.33 118.51 162.04 118.42 158.75 C 117.05 162.29 115.91 165.91 114.37 169.38 C 112.00 166.19 111.41 162.19 110.26 158.48 C 109.61 161.82 110.90 166.03 109.03 168.81 L 108.13 168.29 C 107.80 163.82 108.08 159.32 108.00 154.84 Z" />
<path fill="#878985" d=" M 165.16 155.03 C 166.78 154.48 167.35 155.02 166.86 156.65 C 165.23 157.19 164.66 156.65 165.16 155.03 Z" />
<path fill="#878985" d=" M 39.26 156.21 C 42.64 156.44 37.61 159.12 39.26 156.21 Z" />
<path fill="#878985" d=" M 168.13 158.95 C 169.01 158.04 169.89 157.13 170.77 156.22 C 171.71 157.32 172.82 158.22 174.11 158.92 C 173.20 159.30 172.29 159.69 171.39 160.09 C 171.36 162.18 171.35 164.27 171.34 166.36 C 172.12 166.74 173.68 167.49 174.46 167.87 C 173.24 168.27 171.96 168.91 170.65 168.46 C 168.64 166.40 169.81 163.16 169.53 160.59 C 169.18 160.18 168.48 159.36 168.13 158.95 Z" />
<path fill="#878985" d=" M 21.21 158.28 C 21.76 158.81 21.76 158.81 21.21 158.28 Z" />
<path fill="#878985" d=" M 122.85 159.72 C 124.60 158.04 127.87 157.11 129.51 159.41 C 130.80 162.18 130.04 165.42 130.23 168.38 C 127.67 168.13 122.69 169.84 122.59 165.84 C 122.14 162.54 126.13 162.32 128.40 161.95 C 128.01 159.10 124.78 160.26 122.85 159.72 Z" />
<path fill="#878985" d=" M 132.72 168.64 C 132.69 165.20 132.68 161.76 132.77 158.32 C 134.72 158.39 136.66 158.33 138.62 158.31 C 137.79 159.59 136.36 160.10 135.02 160.65 C 134.63 163.28 134.53 165.94 134.47 168.59 C 134.03 168.60 133.15 168.62 132.72 168.64 Z" />
<path fill="#878985" d=" M 140.00 159.02 C 141.94 157.39 144.75 158.22 147.08 157.98 C 146.49 159.77 146.08 161.62 145.28 163.33 C 143.80 164.36 142.15 165.12 140.58 166.00 C 142.94 167.01 147.24 166.47 147.20 170.06 C 146.08 173.22 141.42 173.93 138.99 171.94 C 137.57 170.47 139.37 168.59 139.52 166.95 C 140.55 164.36 137.92 161.25 140.00 159.02 Z" />
<path fill="#878985" d=" M 148.41 159.80 C 150.10 158.07 152.97 157.26 154.95 159.04 C 156.25 161.97 155.56 165.31 155.70 168.42 C 153.08 168.10 148.59 169.86 148.10 166.01 C 147.52 162.57 151.77 162.24 154.10 161.95 C 153.43 159.23 150.44 160.22 148.41 159.80 Z" />
<path fill="#878985" d=" M 158.26 158.13 C 159.01 158.30 159.75 158.47 160.50 158.65 C 162.66 158.45 164.82 158.38 166.98 158.24 C 167.09 161.73 167.08 165.22 166.89 168.71 C 166.39 168.62 165.37 168.44 164.87 168.35 C 164.88 165.10 164.89 161.85 164.91 158.60 C 163.33 159.31 161.84 160.16 160.44 161.14 C 160.10 163.54 160.20 165.96 160.19 168.37 C 159.72 168.45 158.78 168.61 158.30 168.69 C 158.22 165.17 158.22 161.65 158.26 158.13 Z" />
<path fill="#878985" d=" M 174.93 159.76 C 176.79 157.72 180.53 157.21 181.99 159.97 C 182.47 162.75 182.25 165.59 182.28 168.40 C 179.78 168.01 175.34 169.90 174.74 166.28 C 174.00 163.90 176.36 162.58 178.36 162.13 C 177.86 163.64 177.18 165.09 176.69 166.61 C 177.46 166.69 179.02 166.86 179.80 166.94 C 179.87 164.69 179.98 162.43 179.86 160.18 C 178.22 160.01 176.57 159.87 174.93 159.76 Z" />
<path fill="#020202" d=" M 140.87 162.79 C 140.86 161.52 141.23 160.49 142.01 159.68 C 144.29 159.24 143.97 161.35 144.07 162.91 C 143.27 162.88 141.67 162.82 140.87 162.79 Z" />
<path fill="#878985" d=" M 5.94 165.72 C 6.44 163.46 7.27 161.27 9.45 160.11 C 9.58 162.31 9.68 164.52 9.68 166.73 C 11.32 166.15 12.97 165.59 14.62 165.03 C 14.63 166.45 14.67 167.87 14.72 169.29 C 15.18 168.12 15.64 166.94 16.13 165.78 C 15.85 164.70 15.56 163.62 15.28 162.54 C 16.11 162.47 17.76 162.34 18.59 162.28 C 19.66 162.13 20.73 162.13 21.80 162.25 C 23.66 164.66 19.84 166.69 18.47 168.39 C 18.52 169.19 18.58 170.00 18.63 170.82 C 19.56 171.15 20.50 171.47 21.43 171.78 C 20.96 173.13 21.10 174.42 21.84 175.63 C 23.01 174.69 22.74 172.97 21.97 171.88 C 24.22 172.51 26.50 172.18 28.57 171.15 C 27.85 169.39 27.14 167.63 26.43 165.87 C 27.83 166.63 29.23 167.40 30.63 168.18 C 31.31 168.32 31.99 168.47 32.67 168.62 L 32.44 170.77 C 31.81 170.48 30.56 169.90 29.94 169.61 C 30.58 170.65 31.21 171.70 31.84 172.76 C 32.28 172.13 33.17 170.87 33.62 170.25 C 34.27 172.46 33.72 174.44 31.96 175.96 C 33.25 175.21 34.46 174.33 35.66 173.45 C 35.76 174.33 35.97 176.10 36.07 176.98 C 32.58 178.00 28.94 178.17 25.34 177.84 C 25.31 177.30 25.25 176.21 25.22 175.67 C 24.53 175.75 23.14 175.92 22.45 176.00 C 22.01 177.02 21.58 178.03 21.13 179.04 C 19.44 178.21 17.73 177.43 15.94 176.84 C 14.54 175.33 13.59 173.49 12.97 171.53 C 11.69 171.55 10.41 171.57 9.13 171.61 C 7.73 169.84 6.84 167.77 5.94 165.72 Z" />
<path fill="#020202" d=" M 43.24 163.17 C 45.53 163.88 42.96 165.97 42.47 163.74 L 43.24 163.17 Z" />
<path fill="#878985" d=" M 12.26 164.21 C 12.81 164.77 12.81 164.77 12.26 164.21 Z" />
<path fill="#878985" d=" M 23.30 163.95 C 26.26 162.39 23.44 167.32 23.30 163.95 Z" />
<path fill="#878985" d=" M 26.51 164.39 C 27.05 164.95 27.05 164.95 26.51 164.39 Z" />
<path fill="#020202" d=" M 124.36 164.81 C 125.54 164.30 126.73 163.83 127.95 163.41 C 127.88 164.27 127.74 166.00 127.68 166.87 C 126.11 166.77 124.06 167.11 124.36 164.81 Z" />
<path fill="#020202" d=" M 149.86 167.10 C 149.81 164.89 150.86 163.40 153.22 163.55 C 155.03 166.01 151.93 167.15 149.86 167.10 Z" />
<path fill="#878985" d=" M 20.49 168.01 C 22.26 167.24 23.97 166.35 25.65 165.39 C 25.62 166.33 25.56 168.19 25.53 169.13 C 23.95 169.35 22.37 169.59 20.80 169.84 C 20.72 169.38 20.57 168.47 20.49 168.01 Z" />
<path fill="#020202" d=" M 43.23 166.35 C 43.73 166.94 43.73 166.94 43.23 166.35 Z" />
<path fill="#878985" d=" M 552.67 168.41 C 553.48 167.90 554.29 167.40 555.12 166.90 C 554.91 171.54 555.71 176.17 555.31 180.81 C 554.86 180.85 553.98 180.91 553.53 180.95 C 553.31 177.48 553.51 174.00 553.20 170.54 C 553.60 169.93 554.01 169.32 554.42 168.72 L 552.67 168.41 Z" />
<path fill="#878985" d=" M 36.91 168.30 C 37.48 168.86 37.48 168.86 36.91 168.30 Z" />
<path fill="#020202" d=" M 139.64 171.05 C 140.08 168.03 143.15 168.80 145.32 168.66 C 145.44 172.03 141.82 171.11 139.64 171.05 Z" />
<path fill="#878985" d=" M 530.51 170.96 C 531.15 170.13 531.80 169.31 532.47 168.49 C 533.22 169.58 534.18 170.46 535.33 171.12 L 535.49 172.08 C 534.92 172.15 533.77 172.27 533.20 172.33 C 533.22 174.53 533.23 176.72 533.26 178.91 C 534.03 179.16 535.57 179.65 536.34 179.89 C 534.89 180.99 532.58 181.74 531.63 179.64 C 531.28 176.74 531.30 173.79 530.51 170.96 Z" />
<path fill="#020202" d=" M 12.29 170.29 C 12.82 170.87 12.82 170.87 12.29 170.29 Z" />
<path fill="#020202" d=" M 16.31 170.06 C 16.76 170.67 16.76 170.67 16.31 170.06 Z" />
<path fill="#878985" d=" M 25.29 170.05 C 26.67 169.58 27.12 170.07 26.62 171.52 C 25.22 171.97 24.78 171.48 25.29 170.05 Z" />
<path fill="#020202" d=" M 35.37 170.46 C 36.46 169.86 38.07 170.01 39.10 170.65 C 39.03 172.31 34.96 172.20 35.37 170.46 Z" />
<path fill="#878985" d=" M 521.04 169.91 C 522.79 170.83 523.95 172.42 525.13 173.95 C 525.69 172.86 526.26 171.77 526.84 170.68 C 527.35 170.63 528.38 170.53 528.89 170.49 C 527.98 172.27 527.04 174.03 526.14 175.81 C 527.22 177.65 528.29 179.50 529.25 181.41 C 527.01 181.10 525.98 179.06 524.81 177.43 C 524.09 178.60 523.37 179.77 522.67 180.95 C 520.11 180.83 517.53 181.07 514.99 180.80 C 509.88 179.27 511.30 169.24 517.10 170.61 C 519.52 171.13 519.66 173.92 520.16 175.85 C 518.05 175.96 515.94 176.02 513.83 176.09 C 514.01 176.80 514.35 178.21 514.53 178.92 C 516.16 178.93 517.78 178.92 519.42 178.89 C 519.96 179.44 520.51 179.98 521.07 180.53 C 521.92 178.91 522.82 177.32 523.71 175.72 C 522.68 173.85 521.68 171.95 521.04 169.91 Z" />
<path fill="#878985" d=" M 546.79 170.18 C 547.21 170.47 548.05 171.05 548.47 171.35 C 549.87 170.86 551.46 170.00 552.58 171.53 C 551.35 172.38 549.19 172.32 548.79 174.04 C 548.43 176.32 548.59 178.64 548.40 180.93 C 547.98 180.92 547.14 180.88 546.72 180.86 C 546.45 177.30 546.64 173.73 546.79 170.18 Z" />
<path fill="#878985" d=" M 560.41 170.61 C 565.59 169.30 567.70 177.22 564.11 180.09 C 562.09 181.98 558.46 180.95 557.65 178.34 C 556.37 175.71 557.22 171.33 560.41 170.61 Z" />
<path fill="#878985" d=" M 567.83 170.78 C 569.88 170.94 571.95 170.86 574.01 170.69 C 572.87 171.66 571.61 172.50 570.44 173.43 C 569.49 175.93 569.99 178.76 569.73 181.39 C 569.30 181.19 568.44 180.80 568.01 180.60 C 567.61 177.34 567.88 174.05 567.83 170.78 Z" />
<path fill="#878985" d=" M 540.05 180.94 C 534.97 179.79 535.54 170.32 541.03 170.55 C 544.03 170.35 544.57 173.68 544.72 175.95 C 542.54 176.00 540.35 176.03 538.18 176.11 C 538.82 179.48 542.16 179.30 544.87 179.42 C 543.53 180.56 541.86 181.47 540.05 180.94 Z" />
<path fill="#020202" d=" M 19.23 172.17 C 19.77 172.74 19.77 172.74 19.23 172.17 Z" />
<path fill="#020202" d=" M 21.43 171.78 L 21.97 171.88 C 22.74 172.97 23.01 174.69 21.84 175.63 C 21.10 174.42 20.96 173.13 21.43 171.78 Z" />
<path fill="#020202" d=" M 515.38 172.39 C 516.35 172.12 517.19 172.39 517.90 173.19 C 518.01 175.91 511.34 173.62 515.38 172.39 Z" />
<path fill="#020202" d=" M 539.22 172.32 C 540.66 172.29 542.01 172.82 543.34 173.36 C 541.63 173.91 538.24 175.59 539.22 172.32 Z" />
<path fill="#020202" d=" M 560.03 172.73 C 564.58 169.81 565.79 180.04 560.97 179.29 C 558.41 178.42 558.55 174.51 560.03 172.73 Z" />
<path fill="#878985" d=" M 585.19 191.97 C 585.78 192.03 586.98 192.16 587.57 192.22 C 587.92 196.82 587.96 201.44 587.80 206.05 C 587.07 205.89 585.62 205.58 584.89 205.42 C 584.57 200.94 584.87 196.44 585.19 191.97 Z" />
<path fill="#878985" d=" M 595.30 192.00 C 596.03 192.00 597.51 192.00 598.24 192.00 C 598.24 196.59 598.24 201.19 598.25 205.79 C 595.58 204.62 591.68 207.07 590.06 203.88 C 588.64 200.52 589.33 195.51 593.66 194.84 C 593.89 195.56 594.35 196.99 594.57 197.70 C 591.54 198.38 592.70 201.52 592.91 203.62 C 596.19 203.38 595.81 200.31 594.87 198.06 C 595.13 197.53 595.39 197.01 595.67 196.50 C 595.53 195.00 595.40 193.50 595.30 192.00 Z" />
<path fill="#878985" d=" M 616.84 191.99 C 617.55 191.99 618.98 192.00 619.69 192.00 C 619.67 196.76 619.89 201.53 619.37 206.26 C 618.73 206.02 617.46 205.52 616.82 205.28 C 615.08 205.63 612.66 206.32 611.69 204.27 C 610.40 201.62 610.36 197.80 612.67 195.69 C 614.03 195.05 615.57 195.59 617.01 195.66 C 616.94 194.43 616.89 193.21 616.84 191.99 Z" />
<path fill="#878985" d=" M 516.05 192.91 C 518.01 192.57 520.25 192.71 521.87 194.02 C 525.29 197.69 523.92 205.90 518.03 205.87 C 510.94 206.59 509.59 194.58 516.05 192.91 Z" />
<path fill="#878985" d=" M 525.30 196.36 C 526.22 195.15 527.14 193.94 528.08 192.74 C 529.27 194.34 530.68 195.73 532.09 197.13 C 531.33 197.30 529.80 197.64 529.04 197.81 C 529.06 199.52 529.08 201.23 529.11 202.93 C 529.79 203.07 531.15 203.35 531.83 203.48 C 531.75 204.06 531.58 205.22 531.50 205.79 C 529.92 205.54 527.47 206.25 526.69 204.42 C 526.12 201.75 526.01 199.00 525.30 196.36 Z" />
<path fill="#020202" d=" M 516.37 195.58 C 520.83 193.84 521.89 200.83 519.13 202.99 C 514.71 204.42 514.06 197.92 516.37 195.58 Z" />
<path fill="#878985" d=" M 533.70 195.39 C 535.68 195.50 537.68 195.52 539.67 195.40 C 539.77 195.92 539.96 196.95 540.06 197.47 C 535.62 197.77 536.90 202.46 536.46 205.48 C 535.78 205.62 534.41 205.91 533.72 206.06 C 533.67 202.50 533.68 198.95 533.70 195.39 Z" />
<path fill="#878985" d=" M 566.83 195.78 C 568.64 194.95 571.34 194.78 572.60 196.64 C 571.91 198.61 569.38 197.76 567.84 198.33 C 567.85 199.83 567.79 201.35 568.16 202.83 C 569.65 203.04 571.16 203.21 572.68 203.32 C 571.91 207.22 565.90 206.30 565.04 202.93 C 564.44 200.50 564.46 197.29 566.83 195.78 Z" />
<path fill="#878985" d=" M 601.03 195.92 C 603.38 195.61 606.59 194.34 608.35 196.67 C 609.58 199.63 608.98 202.91 608.74 206.00 C 607.84 205.76 606.93 205.53 606.04 205.29 C 604.59 205.40 602.92 206.22 601.61 205.27 C 599.95 203.99 600.84 201.65 600.58 199.87 C 602.52 199.31 604.45 198.78 606.41 198.26 C 604.52 197.69 601.94 198.12 601.03 195.92 Z" />
<path fill="#878985" d=" M 633.02 197.14 C 634.59 194.34 638.04 195.45 640.56 195.86 C 640.03 198.33 637.73 197.81 635.87 197.81 C 637.26 199.21 639.63 200.02 640.16 202.02 C 641.16 206.40 632.84 207.68 632.56 203.15 C 634.29 203.17 636.03 203.18 637.77 203.18 C 635.95 201.42 632.25 200.29 633.02 197.14 Z" />
<path fill="#878985" d=" M 542.36 196.42 C 544.44 194.21 548.63 195.16 549.62 198.03 C 551.39 201.26 549.04 206.33 545.02 205.84 C 540.65 205.41 539.56 199.21 542.36 196.42 Z" />
<path fill="#878985" d=" M 551.99 197.03 C 553.62 194.34 557.01 195.47 559.49 195.86 C 558.89 198.24 556.54 197.82 554.67 197.98 C 556.15 199.27 558.57 199.98 559.15 201.98 C 560.17 206.38 551.40 207.77 551.61 203.02 C 553.25 203.15 554.90 203.26 556.55 203.37 C 554.83 201.46 551.18 200.21 551.99 197.03 Z" />
<path fill="#878985" d=" M 573.78 195.61 C 574.48 195.46 575.88 195.16 576.58 195.01 C 576.70 197.69 576.56 200.40 577.01 203.05 C 578.45 203.86 579.52 202.47 579.37 201.13 C 579.56 199.10 579.54 197.06 579.62 195.03 C 580.31 195.17 581.71 195.45 582.40 195.59 C 582.68 198.94 582.51 202.31 582.51 205.68 C 580.06 205.46 577.51 205.97 575.13 205.31 C 572.66 202.83 573.84 198.77 573.78 195.61 Z" />
<path fill="#878985" d=" M 624.04 195.86 C 626.41 194.40 629.81 195.46 630.76 198.12 C 632.44 201.39 630.07 206.43 626.02 205.82 C 621.39 205.23 620.55 198.39 624.04 195.86 Z" />
<path fill="#020202" d=" M 543.93 197.95 C 544.95 198.00 545.98 198.06 547.02 198.12 C 546.65 199.94 547.85 203.30 545.05 203.31 C 543.29 202.09 544.06 199.73 543.93 197.95 Z" />
<path fill="#020202" d=" M 627.77 202.92 C 623.35 205.08 624.69 194.56 628.17 198.37 C 628.07 199.89 628.02 201.42 627.77 202.92 Z" />
<path fill="#020202" d=" M 613.92 198.14 C 614.64 198.12 616.08 198.07 616.80 198.05 C 616.83 199.78 616.84 201.52 616.85 203.27 C 613.54 203.69 613.72 200.50 613.92 198.14 Z" />
<path fill="#020202" d=" M 604.15 204.02 C 602.78 202.14 604.16 200.95 605.81 200.06 C 605.86 201.62 605.28 202.97 604.15 204.02 Z" />
<path fill="#fefefe" d=" M 514.52 239.62 C 515.82 238.55 517.07 236.98 518.97 237.29 C 538.84 237.30 558.72 237.21 578.59 237.34 C 581.83 239.56 580.79 243.64 580.90 246.98 C 580.85 256.79 580.66 266.61 580.96 276.41 C 580.32 274.97 579.70 273.52 579.11 272.07 C 576.92 270.12 574.62 268.28 572.29 266.51 C 556.15 266.68 540.00 266.59 523.85 266.55 C 522.72 267.52 521.58 268.50 520.46 269.48 C 520.46 270.45 520.46 272.38 520.46 273.34 C 520.99 274.06 521.53 274.78 522.07 275.50 C 520.11 275.48 518.15 275.45 516.20 275.43 C 516.33 276.25 516.58 277.88 516.70 278.69 C 516.15 278.60 515.04 278.43 514.49 278.34 C 514.70 265.44 514.48 252.52 514.52 239.62 Z" />
<path fill="#020202" d=" M 550.40 246.98 C 552.84 247.56 553.74 250.07 554.91 252.00 C 555.38 252.87 555.85 253.74 556.33 254.62 C 557.02 255.95 557.73 257.28 558.43 258.61 C 558.39 254.88 558.41 251.14 558.42 247.41 L 560.25 247.54 C 560.25 251.91 560.25 256.28 560.32 260.64 C 559.74 260.86 558.59 261.30 558.01 261.52 C 556.09 257.78 553.87 254.19 552.29 250.28 C 551.75 254.28 553.34 258.85 550.81 262.36 C 549.77 257.31 550.38 252.10 550.40 246.98 Z" />
<path fill="#020202" d=" M 537.14 249.19 C 539.47 247.10 543.79 246.38 545.75 249.31 C 548.13 252.25 547.26 256.17 546.23 259.47 L 545.27 259.37 L 545.43 260.62 C 544.99 260.55 544.13 260.42 543.70 260.35 L 543.54 261.33 C 542.52 261.33 540.50 261.33 539.49 261.33 L 539.46 260.77 C 538.55 260.25 537.65 259.72 536.76 259.18 C 535.73 255.83 535.44 252.38 537.14 249.19 Z" />
<path fill="#fefefe" d=" M 538.92 250.02 C 540.32 248.69 542.49 249.55 544.22 249.50 C 545.33 252.38 545.59 255.42 544.58 258.38 C 542.67 259.82 540.46 259.50 538.49 258.39 C 538.47 257.67 538.42 256.23 538.39 255.51 L 537.37 255.42 C 537.83 253.61 538.20 251.76 538.92 250.02 Z" />
<path fill="#878985" d=" M 523.85 266.55 C 540.00 266.59 556.15 266.68 572.29 266.51 C 574.62 268.28 576.92 270.12 579.11 272.07 C 579.70 273.52 580.32 274.97 580.96 276.41 C 581.09 279.96 581.06 283.50 581.04 287.05 C 580.19 287.85 579.35 288.65 578.52 289.45 L 578.17 289.14 C 576.77 286.98 574.15 287.55 572.01 287.41 C 554.25 287.61 536.49 287.27 518.73 287.57 C 518.28 287.97 517.37 288.76 516.92 289.15 L 516.50 289.53 C 513.41 286.60 514.20 282.14 514.49 278.34 C 515.04 278.43 516.15 278.60 516.70 278.69 C 516.58 277.88 516.33 276.25 516.20 275.43 C 518.15 275.45 520.11 275.48 522.07 275.50 C 521.53 274.78 520.99 274.06 520.46 273.34 C 520.46 272.38 520.46 270.45 520.46 269.48 C 521.58 268.50 522.72 267.52 523.85 266.55 Z" />
<path fill="#fefefe" d=" M 516.92 289.15 C 517.37 288.76 518.28 287.97 518.73 287.57 C 536.49 287.27 554.25 287.61 572.01 287.41 C 574.15 287.55 576.77 286.98 578.17 289.14 C 557.76 289.33 537.33 289.30 516.92 289.15 Z" />
</svg>
