<?xml version="1.0" encoding="UTF-8" ?>
<!DOCTYPE svg PUBLIC "-//W3C//DTD SVG 1.1//EN" "http://www.w3.org/Graphics/SVG/1.1/DTD/svg11.dtd">
<svg width="917pt" height="275pt" viewBox="0 0 917 275" version="1.1" xmlns="http://www.w3.org/2000/svg">
<path fill="#fbfbfb" d=" M 0.00 0.00 L 498.23 0.00 C 497.81 52.31 498.17 104.63 498.05 156.94 C 498.05 196.30 498.05 235.65 498.05 275.00 L 0.00 275.00 L 0.00 199.00 C 135.99 199.00 271.97 199.00 407.96 199.00 C 407.93 161.11 407.97 123.21 407.94 85.32 C 407.98 68.69 407.98 52.06 407.94 35.43 L 407.93 33.90 C 408.01 23.70 407.78 13.50 407.82 3.30 C 271.88 3.36 135.94 3.33 0.00 3.31 L 0.00 0.00 Z" />
<path fill="#030303" d=" M 498.23 0.00 L 917.00 0.00 L 917.00 275.00 L 498.05 275.00 C 498.05 235.65 498.05 196.30 498.05 156.94 C 498.17 104.63 497.81 52.31 498.23 0.00 Z" />
<path fill="#838482" d=" M 0.00 3.31 C 135.94 3.33 271.88 3.36 407.82 3.30 C 407.78 13.50 408.01 23.70 407.93 33.90 C 271.96 33.88 135.98 33.91 0.00 33.88 L 0.00 3.31 Z" />
<path fill="#fbfbfb" d=" M 503.04 5.05 C 639.63 5.06 776.22 5.04 912.81 5.06 C 912.78 15.90 912.57 26.74 912.83 37.58 C 776.22 37.52 639.62 37.61 503.02 37.53 C 503.33 26.71 503.04 15.88 503.04 5.05 Z" />
<path fill="#838482" d=" M 729.27 9.14 C 730.11 6.72 733.04 7.43 735.01 7.25 C 740.09 7.46 745.24 6.84 750.28 7.63 C 752.81 9.85 751.28 14.03 751.71 17.05 C 751.24 16.80 750.29 16.30 749.82 16.04 C 749.73 15.47 749.56 14.32 749.48 13.75 C 748.16 13.77 746.85 13.80 745.55 13.82 C 745.63 14.10 745.79 14.66 745.87 14.93 C 746.37 15.85 746.86 16.78 747.33 17.73 C 746.43 17.89 744.62 18.22 743.72 18.38 C 743.69 16.28 743.69 14.18 743.69 12.08 C 746.08 11.72 749.13 12.31 750.49 9.72 C 747.54 9.46 744.59 9.37 741.64 9.34 C 741.35 12.09 741.07 14.84 740.90 17.60 C 740.49 14.96 740.25 12.29 739.69 9.68 C 736.80 9.43 733.91 9.38 731.02 9.34 C 731.02 9.96 731.01 11.21 731.01 11.83 C 733.00 11.83 735.01 11.83 737.02 11.83 C 737.01 12.31 737.00 13.25 737.00 13.72 C 736.19 13.77 734.58 13.85 733.78 13.90 C 733.77 14.42 733.76 15.46 733.75 15.99 C 734.56 15.99 736.19 15.99 737.01 16.00 C 737.01 16.51 737.01 17.55 737.01 18.07 C 734.86 18.05 732.71 18.05 730.58 17.96 C 730.34 17.67 729.86 17.09 729.61 16.81 C 729.90 19.01 730.22 21.21 730.52 23.41 C 731.96 23.49 733.41 23.57 734.87 23.64 C 734.76 26.87 734.64 30.10 734.54 33.33 C 733.77 30.54 733.65 27.65 733.69 24.78 C 732.23 24.67 730.78 24.57 729.33 24.47 C 728.63 19.40 728.57 14.21 729.27 9.14 Z" />
<path fill="#838482" d=" M 761.64 16.38 C 761.37 13.50 761.52 10.59 762.16 7.77 L 762.91 7.88 C 771.10 9.14 779.43 8.23 787.69 8.45 C 787.75 15.63 787.70 22.84 787.17 30.00 C 787.24 31.63 786.06 32.78 784.94 33.76 C 783.89 32.76 782.72 31.65 782.83 30.07 C 782.52 25.82 782.78 21.46 781.20 17.42 C 780.58 22.45 780.63 27.52 780.51 32.58 C 779.22 32.62 777.93 32.65 776.66 32.68 C 776.33 27.54 775.71 22.42 775.47 17.28 C 773.29 17.05 771.11 16.82 768.93 16.83 C 766.49 16.74 764.06 16.56 761.64 16.38 Z" />
<path fill="#030303" d=" M 762.91 7.88 C 767.94 7.43 773.00 7.74 778.05 7.65 C 781.55 7.74 785.17 7.23 788.57 8.37 C 788.31 17.04 789.85 25.77 788.55 34.36 C 779.86 34.65 771.17 34.50 762.48 34.44 C 760.65 28.62 762.18 22.38 761.64 16.38 C 764.06 16.56 766.49 16.74 768.93 16.83 C 771.11 16.82 773.29 17.05 775.47 17.28 C 775.71 22.42 776.33 27.54 776.66 32.68 C 777.93 32.65 779.22 32.62 780.51 32.58 C 780.63 27.52 780.58 22.45 781.20 17.42 C 782.78 21.46 782.52 25.82 782.83 30.07 C 782.72 31.65 783.89 32.76 784.94 33.76 C 786.06 32.78 787.24 31.63 787.17 30.00 C 787.70 22.84 787.75 15.63 787.69 8.45 C 779.43 8.23 771.10 9.14 762.91 7.88 Z" />
<path fill="#fbfbfb" d=" M 23.31 10.44 C 24.94 9.92 25.51 10.47 25.02 12.09 C 23.40 12.63 22.83 12.08 23.31 10.44 Z" />
<path fill="#fbfbfb" d=" M 47.53 10.09 C 48.46 10.15 49.39 10.20 50.32 10.26 C 50.06 14.68 49.99 19.10 50.16 23.52 C 49.30 23.56 48.44 23.60 47.58 23.64 C 47.66 19.12 47.66 14.60 47.53 10.09 Z" />
<path fill="#fbfbfb" d=" M 731.02 9.34 C 733.91 9.38 736.80 9.43 739.69 9.68 C 739.67 13.28 739.65 16.88 739.55 20.48 C 736.68 20.52 733.83 20.53 730.97 20.54 C 730.87 19.89 730.68 18.60 730.58 17.96 C 732.71 18.05 734.86 18.05 737.01 18.07 C 737.01 17.55 737.01 16.51 737.01 16.00 C 736.19 15.99 734.56 15.99 733.75 15.99 C 733.76 15.46 733.77 14.42 733.78 13.90 C 734.58 13.85 736.19 13.77 737.00 13.72 C 737.00 13.25 737.01 12.31 737.02 11.83 C 735.01 11.83 733.00 11.83 731.01 11.83 C 731.01 11.21 731.02 9.96 731.02 9.34 Z" />
<path fill="#030303" d=" M 739.69 9.68 C 740.25 12.29 740.49 14.96 740.90 17.60 C 741.03 18.57 741.19 19.55 741.36 20.52 C 744.39 20.54 747.42 20.52 750.46 20.47 C 750.25 19.00 750.03 17.52 749.82 16.04 C 750.29 16.30 751.24 16.80 751.71 17.05 C 753.25 17.17 754.80 17.33 756.35 17.54 C 756.53 22.68 756.75 27.84 756.50 32.98 C 756.45 34.69 754.19 34.43 753.04 34.51 C 746.87 34.46 740.68 34.70 734.52 34.28 C 734.53 34.04 734.54 33.57 734.54 33.33 C 734.64 30.10 734.76 26.87 734.87 23.64 C 733.41 23.57 731.96 23.49 730.52 23.41 C 730.22 21.21 729.90 19.01 729.61 16.81 C 729.86 17.09 730.34 17.67 730.58 17.96 C 730.68 18.60 730.87 19.89 730.97 20.54 C 733.83 20.53 736.68 20.52 739.55 20.48 C 739.65 16.88 739.67 13.28 739.69 9.68 Z" />
<path fill="#fbfbfb" d=" M 740.90 17.60 C 741.07 14.84 741.35 12.09 741.64 9.34 C 744.59 9.37 747.54 9.46 750.49 9.72 C 749.13 12.31 746.08 11.72 743.69 12.08 C 743.69 14.18 743.69 16.28 743.72 18.38 C 744.62 18.22 746.43 17.89 747.33 17.73 C 746.86 16.78 746.37 15.85 745.87 14.93 C 745.79 14.66 745.63 14.10 745.55 13.82 C 746.85 13.80 748.16 13.77 749.48 13.75 C 749.56 14.32 749.73 15.47 749.82 16.04 C 750.03 17.52 750.25 19.00 750.46 20.47 C 747.42 20.52 744.39 20.54 741.36 20.52 C 741.19 19.55 741.03 18.57 740.90 17.60 Z" />
<path fill="#fbfbfb" d=" M 6.88 11.04 C 7.76 11.02 9.51 10.98 10.38 10.95 C 11.29 14.17 12.17 17.40 13.25 20.56 C 14.54 17.55 15.40 14.38 16.06 11.18 C 17.30 11.11 18.54 11.04 19.79 10.98 C 19.74 15.20 19.74 19.43 19.74 23.65 C 19.18 23.64 18.06 23.63 17.51 23.62 C 17.53 20.91 17.50 18.20 17.26 15.51 C 15.81 17.99 14.98 20.74 14.31 23.52 C 13.76 23.57 12.65 23.65 12.09 23.70 C 11.25 20.76 10.46 17.81 9.63 14.87 C 9.16 18.14 8.88 21.45 8.06 24.66 C 6.10 20.38 7.21 15.57 6.88 11.04 Z" />
<path fill="#fbfbfb" d=" M 36.74 10.87 C 39.26 11.30 42.58 10.37 44.40 12.66 C 44.99 14.47 45.12 17.11 43.17 18.14 C 41.94 18.67 40.63 18.95 39.35 19.33 C 39.15 21.29 39.64 23.89 36.91 24.04 C 36.86 19.65 36.87 15.26 36.74 10.87 Z" />
<path fill="#fbfbfb" d=" M 73.57 14.45 C 74.39 13.29 75.20 12.13 76.01 10.97 C 76.79 12.34 77.85 13.45 79.33 14.06 C 79.34 14.38 79.38 15.02 79.40 15.34 C 78.76 15.38 77.48 15.45 76.84 15.48 C 76.85 17.36 76.85 19.23 76.86 21.10 C 77.65 21.39 79.22 21.95 80.01 22.23 C 78.77 23.28 77.25 23.91 75.63 23.38 C 73.87 20.79 74.66 17.34 73.57 14.45 Z" />
<path fill="#838482" d=" M 796.11 15.39 C 797.23 13.89 798.43 12.42 799.69 11.02 C 806.00 12.23 812.53 12.00 818.87 11.10 C 819.59 11.83 820.34 12.54 821.02 13.34 C 820.92 13.88 820.71 14.97 820.61 15.52 C 820.07 15.00 819.01 13.95 818.47 13.43 C 814.36 13.48 810.19 12.94 806.14 13.76 C 805.78 14.20 805.05 15.07 804.69 15.51 C 810.18 15.73 815.72 15.25 821.18 16.10 C 819.94 16.77 818.67 17.37 817.33 17.79 C 815.71 17.75 814.09 17.64 812.48 17.65 C 807.63 17.39 802.46 18.40 797.93 16.18 L 796.11 15.39 Z" />
<path fill="#030303" d=" M 799.69 11.02 C 806.08 11.12 812.48 10.89 818.87 11.10 C 812.53 12.00 806.00 12.23 799.69 11.02 Z" />
<path fill="#838482" d=" M 38.91 17.47 C 39.11 15.77 39.15 14.01 39.86 12.42 C 40.44 12.79 41.60 13.55 42.18 13.92 C 43.40 16.17 40.42 17.02 38.91 17.47 Z" />
<path fill="#ed7501" d=" M 806.14 13.76 C 810.19 12.94 814.36 13.48 818.47 13.43 C 819.01 13.95 820.07 15.00 820.61 15.52 L 821.18 16.10 C 815.72 15.25 810.18 15.73 804.69 15.51 C 805.05 15.07 805.78 14.20 806.14 13.76 Z" />
<path fill="#030303" d=" M 821.02 13.34 L 821.10 12.91 C 821.39 18.28 821.78 23.73 821.21 29.08 L 818.92 30.49 L 819.58 29.75 C 819.91 29.39 820.56 28.67 820.89 28.32 C 818.36 26.02 814.83 26.50 811.71 26.34 C 813.90 24.61 816.15 22.96 818.42 21.32 C 817.40 21.33 815.37 21.34 814.35 21.34 C 814.35 20.98 814.36 20.26 814.36 19.90 C 815.34 19.20 816.33 18.49 817.33 17.79 C 818.67 17.37 819.94 16.77 821.18 16.10 L 820.61 15.52 C 820.71 14.97 820.92 13.88 821.02 13.34 Z" />
<path fill="#fbfbfb" d=" M 22.99 13.77 C 23.55 13.73 24.66 13.65 25.22 13.61 C 25.50 17.06 25.37 20.52 25.31 23.98 C 24.74 23.77 23.60 23.36 23.03 23.15 C 22.70 20.04 22.73 16.89 22.99 13.77 Z" />
<path fill="#fbfbfb" d=" M 27.51 17.15 C 26.53 13.13 33.31 12.03 34.43 15.57 C 32.71 15.63 31.00 15.69 29.28 15.74 C 30.96 17.12 32.97 18.17 34.28 19.95 C 34.90 24.18 28.49 24.82 26.73 21.72 C 28.06 20.98 32.15 23.05 31.76 20.43 C 30.37 19.30 28.75 18.46 27.51 17.15 Z" />
<path fill="#fbfbfb" d=" M 52.47 14.90 C 54.47 13.67 57.46 12.64 59.41 14.52 C 60.61 17.45 60.28 20.73 59.78 23.77 C 59.22 23.54 58.11 23.07 57.55 22.83 C 56.17 23.12 54.79 23.47 53.37 23.49 C 52.11 22.01 51.45 19.47 53.06 18.00 C 54.79 17.21 56.67 16.85 58.46 16.25 C 56.47 15.79 54.46 15.39 52.47 14.90 Z" />
<path fill="#fbfbfb" d=" M 63.25 13.80 C 65.52 13.65 67.80 13.58 70.06 13.82 C 72.09 16.79 71.15 20.62 71.37 23.98 C 70.76 23.76 69.56 23.34 68.96 23.12 C 68.71 20.57 68.90 17.98 68.44 15.45 C 67.94 15.47 66.94 15.50 66.44 15.52 C 64.74 17.97 65.79 21.29 65.36 24.08 C 64.84 23.84 63.81 23.34 63.29 23.09 C 62.97 20.01 63.03 16.89 63.25 13.80 Z" />
<path fill="#fbfbfb" d=" M 81.75 15.25 C 83.20 13.12 86.58 12.87 88.47 14.54 C 89.50 17.41 89.27 20.53 89.16 23.52 C 88.50 23.33 87.19 22.96 86.53 22.78 C 85.09 23.13 83.65 23.47 82.21 23.80 C 81.79 22.03 80.25 19.62 81.97 18.10 C 83.75 17.25 85.69 16.82 87.54 16.13 C 85.61 15.81 83.68 15.55 81.75 15.25 Z" />
<path fill="#fbfbfb" d=" M 91.70 14.87 C 93.51 12.96 97.36 12.82 98.47 15.55 C 96.75 15.62 95.04 15.68 93.32 15.74 C 94.99 17.44 98.24 18.34 98.41 21.03 C 97.69 24.16 94.16 23.38 91.80 23.53 C 91.67 23.00 91.41 21.93 91.28 21.40 C 93.00 21.51 94.71 21.58 96.44 21.62 C 95.03 19.23 90.51 18.32 91.70 14.87 Z" />
<path fill="#030303" d=" M 841.42 17.87 C 843.54 16.30 845.52 14.24 848.35 14.13 C 848.46 19.21 848.43 24.29 848.43 29.37 C 847.70 29.27 846.22 29.05 845.48 28.95 C 845.06 25.35 845.37 21.72 845.34 18.10 C 844.49 18.57 842.78 19.49 841.93 19.95 C 841.80 19.43 841.55 18.39 841.42 17.87 Z" />
<path fill="#030303" d=" M 857.84 16.22 C 860.16 14.97 863.19 13.44 865.70 15.12 C 867.63 16.05 867.52 18.32 867.60 20.12 C 865.89 22.28 864.05 24.32 862.16 26.30 C 864.03 26.34 865.92 26.36 867.81 26.38 C 867.74 27.30 867.69 28.23 867.64 29.15 C 864.28 29.12 860.93 29.13 857.58 29.11 C 858.26 24.24 865.40 22.38 864.20 17.07 C 861.97 17.00 859.25 18.76 857.84 16.22 Z" />
<path fill="#030303" d=" M 871.66 15.80 C 873.72 14.30 877.52 13.25 878.89 16.20 C 876.88 16.66 874.86 17.08 872.86 17.57 C 872.58 18.29 872.00 19.72 871.71 20.44 C 872.43 20.89 873.17 21.35 873.92 21.79 C 871.67 22.51 872.71 24.68 872.57 26.26 C 873.55 26.32 874.55 26.38 875.55 26.44 C 875.68 25.30 875.82 24.15 875.97 23.01 C 874.96 21.87 873.95 20.74 873.01 19.56 C 874.91 19.46 876.74 19.81 878.49 20.61 C 878.49 22.91 878.51 25.20 878.54 27.50 C 876.20 29.04 873.51 29.11 870.92 28.29 C 868.53 24.59 868.25 18.96 871.66 15.80 Z" />
<path fill="#030303" d=" M 830.36 17.83 C 832.51 16.31 834.47 14.17 837.32 14.16 C 837.41 19.16 837.40 24.16 837.41 29.17 C 836.61 29.16 835.02 29.14 834.22 29.12 C 834.20 25.45 834.21 21.78 834.23 18.10 C 833.07 18.71 831.98 19.33 830.83 19.92 C 830.72 19.40 830.48 18.35 830.36 17.83 Z" />
<path fill="#030303" d=" M 794.50 17.99 C 795.63 17.39 796.78 16.79 797.93 16.18 C 802.46 18.40 807.63 17.39 812.48 17.65 C 811.18 18.69 809.97 19.84 808.74 20.94 C 808.60 21.34 808.33 22.14 808.20 22.54 C 809.44 22.58 810.69 22.63 811.95 22.68 C 811.79 23.90 811.63 25.13 811.48 26.35 C 809.86 26.49 808.26 26.61 806.66 26.71 C 806.36 26.26 805.75 25.37 805.45 24.93 C 805.45 26.44 805.46 27.95 805.48 29.46 C 809.76 29.36 814.13 29.03 818.30 30.28 C 817.40 31.12 816.34 31.46 815.13 31.31 C 810.26 31.33 805.39 31.23 800.52 31.34 L 800.40 30.35 C 799.93 30.42 799.00 30.55 798.54 30.61 L 798.63 29.33 L 797.44 29.52 C 797.42 28.14 797.41 26.77 797.42 25.39 L 796.27 25.69 L 796.59 24.41 C 796.05 24.45 794.97 24.52 794.43 24.56 C 794.28 22.37 794.30 20.17 794.50 17.99 Z" />
<path fill="#fbfbfb" d=" M 812.48 17.65 C 814.09 17.64 815.71 17.75 817.33 17.79 C 816.33 18.49 815.34 19.20 814.36 19.90 C 814.36 20.26 814.35 20.98 814.35 21.34 C 815.37 21.34 817.40 21.33 818.42 21.32 C 816.15 22.96 813.90 24.61 811.71 26.34 C 811.65 26.34 811.53 26.35 811.48 26.35 C 811.63 25.13 811.79 23.90 811.95 22.68 C 810.69 22.63 809.44 22.58 808.20 22.54 C 808.33 22.14 808.60 21.34 808.74 20.94 C 809.97 19.84 811.18 18.69 812.48 17.65 Z" />
<path fill="#838482" d=" M 54.65 21.10 C 53.80 18.99 56.33 18.54 57.67 18.00 C 57.58 19.25 57.48 20.50 57.37 21.74 C 56.45 21.56 55.55 21.35 54.65 21.10 Z" />
<path fill="#838482" d=" M 83.73 20.04 C 83.56 18.41 85.69 18.66 86.61 17.99 C 86.56 19.23 86.50 20.47 86.43 21.71 C 85.56 21.18 82.66 21.94 83.73 20.04 Z" />
<path fill="#030303" d=" M 853.91 22.00 C 853.01 20.66 851.54 18.43 853.89 17.53 C 856.85 17.77 855.79 21.05 853.91 22.00 Z" />
<path fill="#030303" d=" M 886.36 18.62 C 886.97 18.62 888.19 18.61 888.80 18.61 C 889.94 21.65 890.92 24.75 891.83 27.87 C 892.09 27.86 892.61 27.83 892.88 27.81 C 894.36 25.08 893.32 21.69 893.61 18.68 C 894.55 18.65 895.50 18.63 896.46 18.60 C 897.03 20.37 897.53 22.16 898.06 23.95 C 898.26 24.54 898.66 25.72 898.87 26.31 C 899.62 23.79 900.40 21.28 901.02 18.72 C 901.83 18.70 903.46 18.67 904.27 18.65 C 904.27 22.10 904.28 25.54 904.31 28.98 C 903.63 28.88 902.29 28.68 901.62 28.58 C 901.93 26.50 902.23 24.42 902.37 22.32 C 901.99 22.99 901.21 24.34 900.83 25.01 C 900.49 26.41 900.13 27.81 899.82 29.21 C 897.40 29.23 896.91 26.81 895.92 25.16 C 895.77 26.11 895.48 28.02 895.34 28.98 C 893.45 28.73 891.55 28.62 889.67 28.75 C 889.63 28.17 889.56 27.03 889.52 26.46 C 888.64 26.48 886.88 26.51 886.00 26.52 C 885.83 28.24 884.51 28.99 883.10 29.55 C 883.30 28.30 883.53 27.05 883.78 25.80 C 884.23 24.56 884.68 23.32 885.13 22.07 C 885.51 20.92 885.92 19.77 886.36 18.62 Z" />
<path fill="#838482" d=" M 770.20 32.76 C 769.28 28.85 768.02 23.77 770.64 20.37 C 771.39 20.64 772.90 21.18 773.65 21.45 C 772.84 21.62 771.22 21.95 770.42 22.11 C 770.15 25.66 770.23 29.21 770.20 32.76 Z" />
<path fill="#838482" d=" M 878.49 20.61 C 879.64 22.82 879.72 25.29 878.54 27.50 C 878.51 25.20 878.49 22.91 878.49 20.61 Z" />
<path fill="#fbfbfb" d=" M 887.32 20.64 C 887.86 21.95 888.42 23.26 888.97 24.57 C 888.30 24.57 886.95 24.58 886.28 24.58 C 886.62 23.27 886.95 21.95 887.32 20.64 Z" />
<path fill="#fbfbfb" d=" M 770.42 22.11 C 771.22 21.95 772.84 21.62 773.65 21.45 L 774.27 21.33 C 774.20 25.07 774.65 28.93 773.39 32.53 C 772.59 32.59 770.99 32.70 770.20 32.76 C 770.23 29.21 770.15 25.66 770.42 22.11 Z" />
<path fill="#838482" d=" M 738.38 26.04 C 738.39 24.37 739.94 23.27 740.96 22.15 C 743.27 22.38 744.29 24.94 745.80 26.42 C 743.23 27.50 743.57 30.26 743.28 32.51 C 742.17 32.43 741.07 32.34 739.98 32.25 C 739.63 30.13 738.97 28.09 738.38 26.04 Z" />
<path fill="#838482" d=" M 746.07 29.47 C 746.96 27.26 747.35 24.91 747.51 22.54 C 748.54 22.57 750.60 22.62 751.62 22.64 C 751.53 24.35 751.45 26.05 751.36 27.76 C 751.90 28.04 752.99 28.61 753.53 28.90 C 752.07 30.21 751.04 32.40 749.07 32.93 C 747.95 31.89 747.02 30.66 746.07 29.47 Z" />
<path fill="#fbfbfb" d=" M 763.56 24.89 C 764.26 24.50 765.64 23.71 766.34 23.32 C 768.55 25.95 767.54 29.51 767.48 32.62 C 766.20 32.60 764.93 32.55 763.67 32.49 C 763.55 29.96 763.53 27.42 763.56 24.89 Z" />
<path fill="#ed7501" d=" M 805.45 24.93 C 805.75 25.37 806.36 26.26 806.66 26.71 C 808.26 26.61 809.86 26.49 811.48 26.35 C 811.53 26.35 811.65 26.34 811.71 26.34 C 814.83 26.50 818.36 26.02 820.89 28.32 C 820.56 28.67 819.91 29.39 819.58 29.75 C 819.26 29.88 818.62 30.14 818.30 30.28 C 814.13 29.03 809.76 29.36 805.48 29.46 C 805.46 27.95 805.45 26.44 805.45 24.93 Z" />
<path fill="#030303" d=" M 852.71 25.65 C 853.66 25.61 854.62 25.56 855.58 25.52 C 855.62 26.64 855.66 27.76 855.70 28.89 C 854.63 28.81 853.58 28.73 852.54 28.64 C 852.58 27.64 852.64 26.65 852.71 25.65 Z" />
<path fill="#030303" d=" M 0.00 33.88 C 135.98 33.91 271.96 33.88 407.93 33.90 L 407.94 35.43 C 282.30 35.43 156.67 35.47 31.03 35.41 C 31.20 35.90 31.55 36.87 31.72 37.36 C 34.95 38.76 38.34 39.78 41.83 40.26 C 40.54 41.49 39.26 42.73 37.98 43.97 C 36.36 42.80 34.75 41.62 33.18 40.40 C 29.88 40.29 26.59 40.64 23.44 41.64 C 23.45 39.99 23.45 38.35 23.45 36.70 C 25.00 36.39 26.55 36.07 28.09 35.70 C 18.74 35.20 9.36 35.54 0.00 35.48 L 0.00 33.88 Z" />
<path fill="#ed7501" d=" M 0.00 35.48 C 9.36 35.54 18.74 35.20 28.09 35.70 C 26.55 36.07 25.00 36.39 23.45 36.70 C 23.45 38.35 23.45 39.99 23.44 41.64 C 26.59 40.64 29.88 40.29 33.18 40.40 C 34.75 41.62 36.36 42.80 37.98 43.97 C 39.26 42.73 40.54 41.49 41.83 40.26 C 38.34 39.78 34.95 38.76 31.72 37.36 C 31.55 36.87 31.20 35.90 31.03 35.41 C 156.67 35.47 282.30 35.43 407.94 35.43 C 407.98 52.06 407.98 68.69 407.94 85.32 C 280.34 85.34 152.74 85.35 25.13 85.31 C 25.29 83.80 25.44 82.30 25.59 80.79 C 26.17 80.45 27.34 79.76 27.92 79.41 C 27.29 79.55 26.03 79.81 25.40 79.94 C 25.32 76.29 25.27 72.60 26.07 69.02 C 25.33 63.88 26.11 58.31 29.05 53.94 C 30.58 54.81 32.13 55.68 33.69 56.52 C 33.62 55.96 33.48 54.85 33.41 54.29 C 35.74 52.92 38.05 51.51 40.30 50.01 C 40.64 47.95 41.03 45.89 41.44 43.84 C 40.09 44.75 38.74 45.66 37.38 46.56 C 34.44 45.28 31.31 43.95 28.06 44.84 C 31.05 46.05 34.10 47.10 37.18 48.08 C 35.44 51.69 29.01 51.85 27.86 47.70 C 26.57 46.74 25.26 45.81 23.94 44.89 C 23.46 43.81 22.98 42.73 22.49 41.66 C 22.39 44.94 22.39 48.22 22.46 51.50 C 20.96 50.02 19.45 48.55 17.93 47.10 C 19.49 48.91 21.08 50.68 22.66 52.48 C 23.22 52.56 24.33 52.72 24.89 52.80 C 25.34 53.33 26.25 54.39 26.71 54.92 C 26.00 58.85 25.76 62.86 24.99 66.77 C 23.50 69.24 20.47 69.64 17.85 69.65 C 17.75 70.04 17.55 70.82 17.45 71.21 C 19.78 71.67 22.11 72.14 24.44 72.59 C 24.27 76.86 23.68 81.10 23.14 85.35 C 15.42 85.32 7.71 85.35 0.00 85.32 L 0.00 35.48 Z" />
<path fill="#838482" d=" M 503.02 37.53 C 639.62 37.61 776.22 37.52 912.83 37.58 C 913.00 48.34 912.72 59.11 912.77 69.88 C 776.21 69.90 639.65 69.85 503.09 69.90 C 503.04 59.11 502.95 48.32 503.02 37.53 Z" />
<path fill="#030303" d=" M 22.49 41.66 C 22.98 42.73 23.46 43.81 23.94 44.89 C 25.26 45.81 26.57 46.74 27.86 47.70 C 29.01 51.85 35.44 51.69 37.18 48.08 C 34.10 47.10 31.05 46.05 28.06 44.84 C 31.31 43.95 34.44 45.28 37.38 46.56 C 38.74 45.66 40.09 44.75 41.44 43.84 C 41.03 45.89 40.64 47.95 40.30 50.01 C 38.05 51.51 35.74 52.92 33.41 54.29 C 33.48 54.85 33.62 55.96 33.69 56.52 C 32.13 55.68 30.58 54.81 29.05 53.94 C 26.11 58.31 25.33 63.88 26.07 69.02 C 25.27 72.60 25.32 76.29 25.40 79.94 C 26.03 79.81 27.29 79.55 27.92 79.41 C 27.34 79.76 26.17 80.45 25.59 80.79 C 25.44 82.30 25.29 83.80 25.13 85.31 C 152.74 85.35 280.34 85.34 407.94 85.32 C 407.97 123.21 407.93 161.11 407.96 199.00 C 271.97 199.00 135.99 199.00 0.00 199.00 L 0.00 85.32 C 7.71 85.35 15.42 85.32 23.14 85.35 C 23.68 81.10 24.27 76.86 24.44 72.59 C 22.11 72.14 19.78 71.67 17.45 71.21 C 17.55 70.82 17.75 70.04 17.85 69.65 C 20.47 69.64 23.50 69.24 24.99 66.77 C 25.76 62.86 26.00 58.85 26.71 54.92 C 26.25 54.39 25.34 53.33 24.89 52.80 C 24.33 52.72 23.22 52.56 22.66 52.48 C 21.08 50.68 19.49 48.91 17.93 47.10 C 19.45 48.55 20.96 50.02 22.46 51.50 C 22.39 48.22 22.39 44.94 22.49 41.66 Z" />
<path fill="#fbfbfb" d=" M 526.31 46.44 C 527.94 45.93 528.50 46.49 528.00 48.11 C 526.36 48.62 525.80 48.07 526.31 46.44 Z" />
<path fill="#fbfbfb" d=" M 550.59 45.99 C 551.26 46.04 552.60 46.12 553.27 46.17 C 552.96 50.49 553.04 54.82 552.72 59.14 C 552.21 59.38 551.20 59.85 550.69 60.09 C 550.57 55.39 550.65 50.69 550.59 45.99 Z" />
<path fill="#fbfbfb" d=" M 509.88 46.75 C 511.06 46.91 512.24 47.10 513.42 47.35 C 514.49 50.42 515.21 53.61 516.45 56.63 C 517.50 53.53 518.34 50.37 519.06 47.18 C 520.30 47.11 521.54 47.05 522.79 46.98 C 522.74 51.21 522.74 55.44 522.73 59.67 C 522.18 59.65 521.07 59.61 520.51 59.59 C 520.53 56.88 520.48 54.16 520.24 51.46 C 518.83 53.97 517.99 56.73 517.31 59.51 C 516.76 59.56 515.67 59.67 515.12 59.73 C 514.25 56.76 513.45 53.77 512.57 50.81 C 512.16 53.91 511.96 57.05 511.39 60.13 L 510.14 59.33 C 509.71 55.15 510.02 50.94 509.88 46.75 Z" />
<path fill="#fbfbfb" d=" M 539.74 46.87 C 542.26 47.30 545.61 46.37 547.40 48.68 C 547.97 50.47 548.12 53.10 546.19 54.13 C 544.95 54.67 543.62 54.96 542.34 55.35 C 542.14 57.31 542.63 59.89 539.91 60.05 C 539.86 55.65 539.87 51.26 539.74 46.87 Z" />
<path fill="#fbfbfb" d=" M 576.57 50.46 C 577.37 49.29 578.18 48.13 578.99 46.96 C 579.78 48.33 580.87 49.44 582.35 50.07 C 582.35 50.39 582.37 51.03 582.37 51.35 C 581.74 51.38 580.47 51.45 579.84 51.48 C 579.84 53.37 579.85 55.26 579.86 57.15 C 580.64 57.39 582.21 57.86 582.99 58.09 C 581.85 59.38 580.24 59.89 578.60 59.39 C 576.91 56.75 577.64 53.35 576.57 50.46 Z" />
<path fill="#838482" d=" M 542.36 49.18 C 544.13 48.05 544.99 50.33 546.15 51.23 C 544.80 52.07 543.41 52.83 541.99 53.51 C 542.04 52.06 542.17 50.62 542.36 49.18 Z" />
<path fill="#fbfbfb" d=" M 566.23 49.19 C 567.01 49.51 567.80 49.82 568.59 50.14 C 570.26 50.00 573.05 48.64 573.79 51.01 C 574.71 53.90 574.27 57.01 574.36 60.00 C 573.76 59.78 572.56 59.36 571.97 59.14 C 571.71 56.56 571.88 53.95 571.45 51.38 C 570.61 51.43 569.80 51.56 569.01 51.76 C 568.21 54.44 568.53 57.28 568.37 60.04 C 567.85 59.81 566.80 59.37 566.28 59.14 C 565.96 55.83 566.17 52.50 566.23 49.19 Z" />
<path fill="#fbfbfb" d=" M 525.99 49.64 C 526.55 49.62 527.66 49.59 528.22 49.57 C 528.49 53.03 528.37 56.50 528.32 59.96 C 527.75 59.76 526.60 59.35 526.02 59.15 C 525.69 55.99 525.74 52.80 525.99 49.64 Z" />
<path fill="#fbfbfb" d=" M 530.47 53.11 C 529.66 49.10 536.25 48.06 537.44 51.56 C 535.71 51.63 533.99 51.70 532.27 51.76 C 533.91 53.13 535.97 54.11 537.23 55.91 C 537.98 60.19 531.59 60.74 529.67 57.82 C 530.92 57.04 535.37 58.95 534.69 56.42 C 533.32 55.26 531.74 54.37 530.47 53.11 Z" />
<path fill="#fbfbfb" d=" M 555.49 50.86 C 557.52 49.65 560.50 48.67 562.47 50.56 C 563.57 53.50 563.27 56.75 562.81 59.79 C 562.26 59.55 561.17 59.06 560.62 58.81 C 558.44 59.43 555.44 60.30 555.16 57.11 C 554.29 53.22 558.91 53.16 561.42 52.37 C 559.45 51.84 557.45 51.39 555.49 50.86 Z" />
<path fill="#fbfbfb" d=" M 584.78 51.27 C 586.14 49.07 589.63 48.88 591.47 50.56 C 592.50 53.41 592.26 56.53 592.17 59.51 C 591.50 59.33 590.16 58.96 589.49 58.78 C 588.09 59.14 586.67 59.48 585.27 59.83 C 584.70 57.97 583.26 55.56 585.06 53.92 C 586.78 53.23 588.65 52.95 590.45 52.41 C 588.61 51.77 586.69 51.51 584.78 51.27 Z" />
<path fill="#fbfbfb" d=" M 594.70 53.44 C 593.02 49.33 600.29 47.85 601.43 51.58 C 599.72 51.64 598.01 51.69 596.30 51.74 C 597.99 53.11 599.96 54.21 601.35 55.92 C 601.91 60.18 595.64 60.73 593.67 57.82 C 594.97 57.04 599.28 58.99 598.73 56.41 C 597.44 55.34 595.97 54.53 594.70 53.44 Z" />
<path fill="#030303" d=" M 104.35 53.13 C 106.48 53.26 108.60 53.38 110.72 53.48 C 112.14 56.08 111.66 58.97 109.41 60.92 C 110.38 62.75 111.35 64.59 112.07 66.54 C 109.83 64.44 108.98 60.85 105.72 60.01 C 105.69 61.99 105.68 63.97 105.69 65.95 C 105.36 65.94 104.71 65.92 104.38 65.92 C 104.42 61.65 104.43 57.39 104.35 53.13 Z" />
<path fill="#ed7501" d=" M 105.75 53.76 C 107.29 54.04 108.85 54.33 110.40 54.62 C 110.36 56.18 110.33 57.75 110.29 59.32 C 108.73 59.48 107.17 59.63 105.60 59.77 C 105.65 57.77 105.69 55.76 105.75 53.76 Z" />
<path fill="#838482" d=" M 557.33 55.86 C 558.14 54.77 559.50 54.50 560.67 53.97 C 560.55 55.27 560.42 56.57 560.29 57.87 C 559.23 57.31 557.37 57.53 557.33 55.86 Z" />
<path fill="#838482" d=" M 586.59 57.09 C 586.04 54.99 588.21 54.51 589.64 53.99 C 589.57 55.24 589.49 56.49 589.40 57.74 C 588.45 57.55 587.52 57.33 586.59 57.09 Z" />
<path fill="#030303" d=" M 114.77 57.43 C 116.60 56.63 119.03 55.63 120.62 57.44 C 122.54 59.77 121.57 63.06 120.65 65.61 C 118.93 65.57 117.16 65.85 115.47 65.44 C 114.47 64.22 114.33 62.56 113.82 61.12 C 114.16 59.90 114.47 58.66 114.77 57.43 Z" />
<path fill="#030303" d=" M 125.49 56.67 C 127.12 55.88 128.87 56.76 130.46 57.24 C 128.57 57.38 126.68 57.52 124.80 57.64 C 125.84 60.15 128.55 61.17 129.95 63.41 C 131.22 62.41 132.52 61.44 133.81 60.46 C 133.50 61.88 132.46 63.32 133.26 64.77 C 135.65 66.86 137.23 63.90 138.03 61.93 C 137.45 61.60 136.30 60.94 135.72 60.61 L 137.94 60.31 C 137.96 56.60 134.30 57.61 131.80 57.33 C 133.92 56.40 136.26 56.12 138.37 57.30 C 138.39 60.00 138.42 62.70 138.50 65.40 C 135.84 65.87 132.09 67.51 131.18 63.61 C 130.88 63.95 130.27 64.64 129.96 64.98 L 129.62 65.48 C 127.95 65.82 126.26 66.09 124.59 66.40 C 124.52 66.04 124.37 65.32 124.30 64.97 C 125.83 64.73 127.55 64.94 128.79 63.82 C 129.33 61.49 125.61 61.29 124.26 60.02 C 124.56 58.88 124.16 57.24 125.49 56.67 Z" />
<path fill="#ed7501" d=" M 115.49 57.49 C 117.13 57.50 118.76 57.53 120.40 57.57 C 120.49 59.87 120.54 62.18 120.57 64.49 C 118.91 64.76 117.26 65.03 115.61 65.30 C 115.28 62.71 115.24 60.09 115.49 57.49 Z" />
<path fill="#030303" d=" M 1.13 58.98 C 2.15 58.89 4.19 58.71 5.22 58.62 C 8.04 60.90 11.24 62.66 14.79 63.50 C 15.47 64.40 16.16 65.30 16.84 66.20 C 16.72 66.82 16.49 68.06 16.38 68.68 C 13.43 68.38 11.04 66.87 9.95 64.07 C 6.62 63.14 3.38 61.71 1.13 58.98 Z" />
<path fill="#030303" d=" M 29.55 68.31 C 30.42 67.51 31.29 66.71 32.15 65.90 C 33.42 67.31 34.73 68.76 35.04 70.72 C 37.94 69.26 40.84 67.80 43.93 66.81 C 45.45 66.65 46.96 66.55 48.48 66.46 C 44.94 70.06 39.78 72.46 34.70 72.69 C 32.14 74.32 29.66 76.08 27.25 77.92 C 28.01 77.27 28.77 76.61 29.54 75.97 C 29.28 75.32 28.77 74.03 28.52 73.39 C 28.47 72.40 28.42 71.42 28.38 70.44 C 28.67 69.90 29.26 68.84 29.55 68.31 Z" />
<path fill="#030303" d=" M 10.45 74.03 C 11.63 72.47 13.18 71.29 14.80 70.22 C 17.12 71.36 19.41 72.61 21.39 74.30 C 17.09 75.48 12.03 77.33 7.80 75.13 C 8.46 74.85 9.79 74.30 10.45 74.03 Z" />
<path fill="#838482" d=" M 546.36 76.26 L 548.72 75.47 C 548.24 77.83 547.88 80.38 549.27 82.52 C 549.21 83.96 549.16 85.41 549.12 86.86 C 549.82 86.85 551.21 86.83 551.91 86.82 C 551.82 85.39 551.73 83.95 551.64 82.52 C 550.84 81.46 550.04 80.40 549.35 79.28 C 555.37 77.52 556.90 86.44 552.95 89.43 C 550.70 89.69 548.44 89.57 546.19 89.63 C 546.23 85.17 545.88 80.70 546.36 76.26 Z" />
<path fill="#838482" d=" M 504.61 76.71 C 505.49 76.69 507.24 76.66 508.11 76.65 C 509.70 79.63 511.33 82.60 513.18 85.44 L 511.47 86.36 C 512.37 86.02 513.29 85.70 514.19 85.34 C 511.75 83.36 512.87 79.72 513.13 77.03 L 515.49 76.28 C 515.69 80.77 515.64 85.26 515.56 89.76 C 514.64 89.73 512.80 89.68 511.88 89.65 C 510.63 87.02 509.22 84.46 507.47 82.12 C 507.33 84.57 507.30 87.03 507.31 89.49 C 506.66 89.60 505.36 89.83 504.71 89.95 C 504.54 85.54 504.56 81.12 504.61 76.71 Z" />
<path fill="#838482" d=" M 22.07 78.34 C 25.41 78.49 20.53 81.30 22.07 78.34 Z" />
<path fill="#838482" d=" M 520.41 79.39 C 526.97 76.74 529.28 88.81 522.85 89.70 C 517.03 90.84 515.29 81.20 520.41 79.39 Z" />
<path fill="#838482" d=" M 528.78 79.59 C 529.41 79.40 530.66 79.03 531.28 78.84 C 531.29 79.23 531.30 80.01 531.30 80.40 C 533.16 78.99 535.28 79.04 537.33 80.03 C 539.07 79.43 541.31 78.41 542.73 80.19 C 544.00 83.30 543.33 86.79 543.40 90.06 C 542.75 89.88 541.44 89.53 540.78 89.35 C 540.45 86.65 540.41 83.93 540.09 81.23 C 539.57 81.42 538.53 81.81 538.01 82.00 C 537.85 84.58 537.74 87.18 537.64 89.77 C 536.65 89.70 535.67 89.63 534.70 89.57 C 534.72 86.89 534.78 84.20 534.44 81.54 C 530.38 81.57 532.65 87.22 531.91 89.86 C 530.86 89.72 529.82 89.58 528.78 89.44 C 528.88 86.16 528.89 82.87 528.78 79.59 Z" />
<path fill="#838482" d=" M 564.38 84.93 C 563.66 81.42 567.25 77.81 570.72 79.42 C 573.23 80.21 573.06 83.19 573.49 85.28 C 571.24 85.37 569.00 85.46 566.77 85.66 C 568.64 87.28 571.10 87.25 573.45 87.35 C 571.54 91.79 563.98 89.72 564.38 84.93 Z" />
<path fill="#838482" d=" M 557.45 78.69 C 558.09 79.01 559.38 79.64 560.03 79.96 C 561.05 79.67 562.08 79.41 563.13 79.17 C 563.27 79.74 563.54 80.88 563.68 81.45 C 559.06 81.63 560.59 86.31 559.98 89.31 C 559.33 89.50 558.03 89.87 557.38 90.06 C 557.19 86.27 557.22 82.47 557.45 78.69 Z" />
<path fill="#030303" d=" M 520.81 87.11 C 520.47 85.10 520.59 83.10 521.58 81.29 C 522.06 81.57 523.02 82.12 523.51 82.39 C 523.51 83.84 523.52 85.28 523.53 86.73 C 522.62 86.86 521.71 86.98 520.81 87.11 Z" />
<path fill="#838482" d=" M 19.86 87.92 C 23.57 87.36 27.35 87.58 31.07 87.17 C 32.40 86.84 33.18 88.26 34.21 88.82 C 34.50 88.72 35.09 88.51 35.39 88.41 C 37.93 91.37 42.32 93.55 42.18 98.01 C 40.95 99.09 39.85 100.31 38.75 101.52 C 38.12 101.19 37.49 100.85 36.86 100.52 C 35.93 101.51 34.78 102.19 33.47 102.55 C 34.31 103.54 34.10 104.30 32.85 104.85 C 31.05 104.75 29.37 104.06 27.65 103.58 C 27.33 104.68 27.00 105.77 26.67 106.87 C 26.67 108.33 26.66 109.78 26.63 111.24 C 25.87 109.00 25.38 106.67 25.13 104.31 C 24.18 103.72 23.24 103.12 22.30 102.51 C 20.66 102.72 19.01 102.91 17.36 103.09 C 16.55 101.39 15.73 99.70 14.94 97.99 C 14.72 98.57 14.29 99.73 14.08 100.31 C 12.83 99.54 10.23 98.18 11.41 96.40 C 13.50 93.03 15.58 88.78 19.86 87.92 Z" />
<path fill="#838482" d=" M 504.68 101.34 C 507.17 101.52 510.43 100.68 512.08 103.13 C 513.44 105.42 512.09 108.03 510.48 109.77 C 511.56 111.65 512.63 113.55 513.60 115.51 C 510.56 115.37 509.78 112.24 508.50 110.09 C 508.01 110.10 507.03 110.13 506.54 110.14 C 506.56 111.82 506.57 113.50 506.59 115.18 L 504.71 115.17 C 504.71 110.56 504.70 105.95 504.68 101.34 Z" />
<path fill="#030303" d=" M 506.63 102.97 C 508.37 103.16 511.28 103.47 510.66 105.98 C 510.60 108.09 508.00 107.83 506.54 108.19 C 506.56 106.45 506.59 104.71 506.63 102.97 Z" />
<path fill="#838482" d=" M 105.88 105.81 C 107.72 104.32 110.24 104.87 112.42 104.63 C 112.66 105.14 113.13 106.14 113.37 106.65 C 110.99 106.82 107.82 105.80 106.27 108.23 C 104.93 110.66 105.05 114.15 107.19 116.09 C 108.65 116.80 110.36 116.65 111.93 116.94 C 111.77 114.88 112.54 111.96 109.33 112.16 L 109.14 110.79 C 110.29 110.79 112.60 110.77 113.75 110.77 C 113.76 113.30 113.72 115.84 113.60 118.38 C 110.79 118.29 107.19 119.41 105.09 116.89 C 102.61 113.76 102.69 108.44 105.88 105.81 Z" />
<path fill="#838482" d=" M 151.94 104.98 C 153.56 104.50 154.09 105.08 153.52 106.70 C 151.89 107.18 151.36 106.60 151.94 104.98 Z" />
<path fill="#838482" d=" M 516.29 105.33 C 520.05 103.18 523.78 107.47 522.80 111.15 C 522.64 113.99 519.71 116.08 516.97 115.04 C 513.32 113.47 513.10 107.49 516.29 105.33 Z" />
<path fill="#838482" d=" M 524.33 106.97 C 525.23 103.99 529.43 104.44 531.23 106.36 C 529.32 106.63 527.41 106.84 525.50 107.09 C 527.62 109.05 532.49 110.59 530.37 114.27 C 528.31 115.73 525.23 115.69 523.58 113.62 C 525.23 112.94 528.68 114.55 529.00 112.07 C 527.52 110.38 523.89 109.74 524.33 106.97 Z" />
<path fill="#838482" d=" M 532.29 106.51 C 533.84 104.62 537.46 103.96 538.98 106.15 C 539.87 109.27 539.39 112.56 539.29 115.75 C 538.35 114.80 537.44 113.87 536.55 112.89 C 536.88 112.18 537.56 110.74 537.89 110.02 C 536.23 110.63 533.11 110.38 534.02 113.04 C 534.60 113.16 535.75 113.40 536.33 113.52 C 536.20 114.08 535.96 115.19 535.84 115.75 C 534.18 115.01 531.28 114.50 531.89 111.98 C 532.00 108.85 536.13 109.12 538.31 108.31 C 536.70 106.66 534.46 106.55 532.29 106.51 Z" />
<path fill="#030303" d=" M 516.99 106.96 C 521.15 104.63 522.53 112.04 519.20 113.65 C 515.63 114.07 515.28 109.10 516.99 106.96 Z" />
<path fill="#838482" d=" M 118.10 108.19 C 119.96 107.37 121.51 108.96 123.03 109.77 C 123.06 110.66 123.12 112.46 123.16 113.36 C 121.01 113.41 118.87 113.46 116.73 113.56 C 117.32 117.05 120.65 116.81 123.37 116.80 C 122.11 118.64 119.81 118.99 117.81 118.28 C 114.21 116.20 114.33 110.03 118.10 108.19 Z" />
<path fill="#838482" d=" M 125.21 108.05 C 125.93 108.22 126.66 108.40 127.39 108.57 C 128.58 108.38 129.78 108.24 130.98 108.15 C 131.09 110.07 128.75 109.77 127.62 110.48 C 127.25 113.05 127.16 115.65 127.14 118.24 C 126.67 118.34 125.73 118.54 125.25 118.64 C 125.17 115.11 125.17 111.58 125.21 108.05 Z" />
<path fill="#838482" d=" M 131.53 109.67 C 133.37 108.07 136.65 106.99 138.34 109.37 C 139.42 112.21 138.96 115.35 138.98 118.32 C 136.45 118.10 131.58 119.73 131.34 115.88 C 130.73 112.46 135.22 112.54 137.21 111.15 C 136.01 109.28 133.36 110.24 131.53 109.67 Z" />
<path fill="#838482" d=" M 141.41 108.28 C 143.98 108.52 147.77 106.99 149.12 110.04 C 149.24 112.97 150.68 117.25 147.67 119.11 C 147.48 116.43 147.57 113.74 147.25 111.07 C 147.76 108.87 143.56 109.16 143.66 111.05 C 143.23 113.48 143.40 115.97 143.36 118.43 C 142.89 118.45 141.95 118.51 141.48 118.53 C 141.44 115.11 141.43 111.69 141.41 108.28 Z" />
<path fill="#838482" d=" M 151.81 116.93 C 151.61 113.88 151.61 110.81 151.99 107.78 C 154.02 107.24 153.43 109.95 153.67 111.04 C 153.75 113.77 153.63 116.50 153.37 119.21 C 152.69 118.57 151.67 118.03 151.81 116.93 Z" />
<path fill="#838482" d=" M 158.18 108.30 C 162.80 106.43 165.64 112.95 163.37 116.40 C 162.18 119.22 157.70 119.37 156.26 116.70 C 154.60 114.05 155.00 109.62 158.18 108.30 Z" />
<path fill="#030303" d=" M 116.69 111.39 C 118.18 109.96 120.63 109.14 121.48 111.76 C 119.88 111.67 118.28 111.55 116.69 111.39 Z" />
<path fill="#030303" d=" M 157.96 109.68 C 159.20 109.81 160.39 110.10 161.54 110.54 C 162.14 111.97 162.10 113.58 161.90 115.10 C 161.50 116.88 159.38 116.57 158.05 117.06 C 157.36 114.64 157.24 112.11 157.96 109.68 Z" />
<path fill="#838482" d=" M 29.72 111.26 C 32.05 112.41 35.15 113.30 34.89 116.54 C 33.69 116.57 32.50 116.59 31.31 116.62 C 31.37 115.91 31.50 114.49 31.56 113.79 C 30.94 112.95 30.33 112.11 29.72 111.26 Z" />
<path fill="#030303" d=" M 133.30 115.82 C 132.80 113.70 135.60 114.06 136.86 113.36 C 136.78 114.22 136.61 115.93 136.53 116.78 C 135.60 116.36 133.11 117.30 133.30 115.82 Z" />
<path fill="#838482" d=" M 36.47 115.36 C 39.45 113.77 36.64 118.70 36.47 115.36 Z" />
<path fill="#838482" d=" M 36.47 117.39 C 37.64 116.47 38.30 116.73 38.47 118.15 C 37.29 119.05 36.63 118.80 36.47 117.39 Z" />
<path fill="#838482" d=" M 18.21 117.89 C 18.60 118.29 19.39 119.10 19.78 119.50 C 21.12 119.54 22.47 119.57 23.81 119.62 C 23.42 120.64 23.02 121.66 22.61 122.68 C 22.67 123.12 22.80 123.99 22.86 124.43 C 21.04 124.52 19.23 124.61 17.42 124.73 C 17.93 123.77 18.44 122.81 18.95 121.86 C 18.30 121.43 17.00 120.58 16.35 120.15 C 16.44 121.03 16.53 121.91 16.63 122.79 C 15.44 122.62 14.26 122.45 13.08 122.28 C 14.19 121.25 15.30 120.22 16.40 119.18 C 16.89 119.67 17.87 120.65 18.36 121.14 C 18.32 120.33 18.25 118.70 18.21 117.89 Z" />
<path fill="#838482" d=" M 25.54 118.56 C 26.07 119.14 26.07 119.14 25.54 118.56 Z" />
<path fill="#838482" d=" M 29.24 120.84 C 30.05 120.02 30.86 119.21 31.68 118.40 C 33.70 119.08 35.80 119.53 37.94 119.70 C 37.70 121.35 37.46 123.00 37.22 124.64 C 36.41 122.91 35.60 121.18 34.78 119.45 C 34.62 121.05 34.47 122.65 34.32 124.26 C 33.64 124.44 32.28 124.80 31.60 124.98 C 31.58 124.44 31.53 123.37 31.51 122.84 C 30.94 122.34 29.80 121.34 29.24 120.84 Z" />
<path fill="#838482" d=" M 24.51 121.44 C 26.13 121.45 27.76 121.44 29.39 121.41 C 29.44 122.77 29.50 124.12 29.56 125.48 C 28.02 125.96 26.48 126.43 24.93 126.89 C 24.60 125.09 24.44 123.27 24.51 121.44 Z" />
<path fill="#838482" d=" M 33.90 128.43 C 34.20 125.53 36.80 124.82 39.07 126.12 C 39.62 126.23 40.70 126.46 41.24 126.57 C 39.18 127.90 39.27 130.36 39.05 132.50 C 38.77 132.84 38.21 133.50 37.93 133.83 C 37.20 133.82 35.74 133.79 35.01 133.78 C 34.32 132.45 33.66 131.09 33.08 129.71 C 32.75 129.40 32.10 128.77 31.77 128.46 C 32.30 128.45 33.37 128.44 33.90 128.43 Z" />
<path fill="#838482" d=" M 7.32 126.93 C 10.65 126.43 14.04 126.49 17.38 126.85 C 14.16 128.18 10.59 127.89 7.32 126.93 Z" />
<path fill="#838482" d=" M 582.44 126.49 C 583.76 125.06 586.06 127.32 584.60 128.64 C 583.26 130.11 580.95 127.82 582.44 126.49 Z" />
<path fill="#838482" d=" M 607.02 126.05 C 607.75 126.06 609.23 126.08 609.97 126.09 C 610.08 130.79 610.06 135.50 610.03 140.20 C 609.02 140.00 608.02 139.79 607.03 139.59 C 605.77 139.72 604.51 140.10 603.27 139.87 C 600.63 137.89 600.33 133.73 602.04 131.06 C 602.91 129.10 605.31 129.94 607.00 129.63 C 606.99 128.43 607.00 127.24 607.02 126.05 Z" />
<path fill="#838482" d=" M 638.34 126.40 C 639.27 126.37 640.26 126.21 641.14 126.70 C 641.52 131.16 641.26 135.64 641.29 140.11 C 640.54 140.06 639.05 139.96 638.30 139.91 C 638.29 135.40 638.62 130.90 638.34 126.40 Z" />
<path fill="#838482" d=" M 41.24 126.57 C 44.52 125.80 40.69 129.86 41.24 126.57 Z" />
<path fill="#838482" d=" M 504.62 127.00 C 507.31 126.99 510.00 126.96 512.69 127.07 C 512.56 130.88 507.12 128.36 507.03 132.14 C 508.58 132.24 510.13 132.33 511.70 132.41 C 511.75 133.03 511.85 134.28 511.90 134.90 C 510.45 134.96 509.01 135.01 507.57 135.06 C 507.30 137.33 508.30 140.95 504.64 140.34 C 504.56 135.90 504.57 131.45 504.62 127.00 Z" />
<path fill="#838482" d=" M 627.53 126.91 C 631.01 126.74 635.56 126.68 636.58 130.92 C 635.77 132.14 634.98 133.37 634.19 134.60 C 635.28 136.39 636.36 138.19 637.43 140.00 C 636.61 140.00 634.98 140.00 634.17 140.00 C 633.12 138.05 631.95 136.17 630.57 134.45 C 630.43 136.29 630.35 138.15 630.28 140.00 C 629.58 140.00 628.20 140.00 627.51 140.00 C 627.47 135.64 627.46 131.27 627.53 126.91 Z" />
<path fill="#838482" d=" M 534.00 129.99 C 537.23 129.51 540.56 130.01 543.83 129.85 C 544.05 132.49 543.93 135.16 544.39 137.79 C 547.99 137.08 546.28 132.40 546.74 129.73 C 547.74 129.65 548.74 129.58 549.75 129.52 C 549.83 133.06 549.84 136.60 549.79 140.15 C 548.78 139.98 547.78 139.82 546.79 139.65 C 545.54 139.84 544.30 139.95 543.05 140.00 C 539.92 138.42 541.01 134.35 540.87 131.59 C 539.02 131.96 537.15 132.21 535.34 132.68 C 535.04 134.28 535.35 135.90 535.55 137.48 C 536.65 137.44 538.84 137.36 539.94 137.32 C 539.43 141.24 535.37 139.89 532.82 139.19 C 532.01 136.15 531.03 132.22 534.00 129.99 Z" />
<path fill="#838482" d=" M 565.11 130.05 C 566.80 130.04 569.18 128.78 570.31 130.58 C 572.01 133.41 571.02 136.92 571.23 140.05 C 570.47 140.03 568.94 139.99 568.18 139.97 C 568.13 137.15 568.05 134.34 567.83 131.53 C 564.10 132.64 565.86 136.93 565.17 139.76 C 564.48 139.90 563.12 140.18 562.44 140.32 C 562.34 136.66 562.36 133.01 562.49 129.36 C 563.14 129.53 564.45 129.87 565.11 130.05 Z" />
<path fill="#838482" d=" M 645.50 129.82 C 647.07 129.48 649.10 129.20 650.39 130.42 C 651.90 131.71 651.69 133.88 652.13 135.65 C 649.90 135.86 647.68 136.06 645.48 136.38 C 647.30 137.54 649.42 137.59 651.52 137.55 C 651.48 138.05 651.40 139.07 651.36 139.58 C 649.39 139.76 647.23 140.53 645.39 139.51 C 641.91 137.61 642.13 131.71 645.50 129.82 Z" />
<path fill="#838482" d=" M 514.63 129.69 C 516.64 129.73 518.64 129.74 520.66 129.89 C 521.94 132.03 518.19 132.24 517.77 134.00 C 517.47 135.98 517.53 138.00 517.48 140.00 C 516.77 140.00 515.36 140.00 514.65 140.00 C 514.63 136.56 514.63 133.13 514.63 129.69 Z" />
<path fill="#838482" d=" M 522.03 136.97 C 520.79 133.66 522.88 128.65 527.03 129.59 C 530.24 129.59 530.61 133.29 530.87 135.69 C 528.69 135.86 526.52 136.03 524.37 136.31 C 526.35 137.60 528.76 137.62 531.03 137.96 C 528.92 141.10 523.15 140.80 522.03 136.97 Z" />
<path fill="#838482" d=" M 553.72 139.34 C 549.66 136.81 551.55 128.41 556.97 129.60 C 560.13 129.66 560.39 133.34 560.75 135.68 C 558.52 135.87 556.30 136.06 554.10 136.37 C 556.21 137.49 558.61 137.64 560.93 138.01 C 559.24 140.20 556.07 140.73 553.72 139.34 Z" />
<path fill="#838482" d=" M 575.07 129.92 C 577.13 129.49 580.75 128.76 580.57 131.95 C 579.15 132.12 577.74 132.33 576.35 132.60 C 576.00 134.22 576.33 135.88 576.55 137.50 C 577.66 137.46 579.87 137.39 580.97 137.35 C 580.34 141.20 576.35 139.89 573.79 139.22 C 572.99 136.15 572.00 132.11 575.07 129.92 Z" />
<path fill="#838482" d=" M 581.98 129.96 C 582.73 129.80 584.22 129.47 584.96 129.31 C 584.98 132.83 585.15 136.36 584.88 139.87 C 584.12 139.95 582.61 140.11 581.85 140.19 C 581.85 136.78 581.66 133.36 581.98 129.96 Z" />
<path fill="#838482" d=" M 587.24 132.09 C 587.34 128.88 590.94 129.54 592.99 129.81 C 596.23 131.93 594.49 136.60 594.92 139.88 C 592.33 139.09 588.95 141.01 586.93 138.86 C 585.50 135.99 587.30 133.00 590.55 132.75 C 590.17 134.43 589.78 136.12 589.43 137.81 C 592.71 137.76 591.59 134.22 591.94 132.07 C 590.36 132.08 588.80 132.09 587.24 132.09 Z" />
<path fill="#838482" d=" M 612.41 136.74 C 611.31 133.74 613.17 129.01 616.93 129.57 C 620.39 129.15 621.19 133.10 621.37 135.71 C 619.15 135.88 616.91 136.07 614.71 136.35 C 616.65 137.67 618.99 137.58 621.23 137.74 C 619.60 141.56 613.39 140.53 612.41 136.74 Z" />
<path fill="#838482" d=" M 653.59 131.38 C 655.34 128.39 659.44 129.96 662.28 129.58 C 661.44 131.66 661.09 134.02 659.72 135.84 C 658.49 136.38 657.24 136.78 655.98 137.18 C 658.12 137.66 661.44 137.04 662.02 139.87 C 662.49 145.04 653.63 146.12 652.21 141.46 C 653.18 139.81 653.79 138.00 654.21 136.13 C 653.77 134.62 652.53 132.93 653.59 131.38 Z" />
<path fill="#838482" d=" M 665.33 130.35 C 667.39 128.81 671.11 129.41 672.02 132.03 C 673.63 135.16 672.09 140.38 667.96 140.05 C 663.11 140.18 661.83 132.93 665.33 130.35 Z" />
<path fill="#030303" d=" M 604.31 132.38 C 604.98 132.36 606.33 132.32 607.00 132.30 C 606.97 134.01 606.93 135.71 606.87 137.42 C 606.27 137.41 605.06 137.41 604.45 137.40 C 604.37 135.73 604.32 134.05 604.31 132.38 Z" />
<path fill="#030303" d=" M 646.29 132.19 C 647.21 130.74 649.95 132.16 648.81 133.69 C 647.85 135.00 645.13 133.74 646.29 132.19 Z" />
<path fill="#030303" d=" M 666.89 132.00 C 667.57 132.14 668.91 132.43 669.59 132.57 C 669.41 134.40 670.14 137.61 667.39 137.63 C 666.02 136.02 666.61 133.88 666.89 132.00 Z" />
<path fill="#030303" d=" M 655.18 140.30 C 656.44 140.13 657.71 140.00 658.99 139.92 C 659.07 140.37 659.23 141.27 659.31 141.71 C 657.75 141.59 654.36 143.23 655.18 140.30 Z" />
<path fill="#fbfbfb" d=" M 10.49 151.45 C 13.02 149.06 15.69 145.19 19.70 146.44 C 23.47 147.30 27.81 144.77 31.15 147.39 C 32.30 147.49 33.46 147.58 34.62 147.65 C 35.35 148.39 36.08 149.13 36.83 149.85 C 38.90 150.08 38.47 151.98 38.54 153.47 C 39.12 153.51 40.28 153.60 40.86 153.64 C 40.39 154.01 39.46 154.74 38.99 155.10 C 39.83 155.29 41.50 155.67 42.33 155.86 C 42.60 156.59 43.14 158.06 43.41 158.79 C 43.39 160.73 43.47 162.67 43.54 164.61 C 43.54 165.60 43.54 166.59 43.54 167.59 C 43.08 167.78 42.15 168.15 41.68 168.34 C 41.98 167.18 42.23 166.01 42.44 164.83 C 41.56 163.87 40.59 163.01 39.63 162.15 C 39.56 161.32 39.43 159.66 39.37 158.82 C 37.90 159.79 36.44 160.76 34.98 161.74 C 36.42 162.90 37.85 164.07 39.32 165.20 L 38.51 165.70 C 35.86 165.45 33.29 164.68 30.80 163.75 C 30.47 164.39 29.80 165.67 29.47 166.31 C 29.16 165.05 28.86 163.79 28.55 162.53 C 26.45 162.53 24.34 162.52 22.24 162.54 C 23.28 163.66 24.33 164.78 25.39 165.89 C 25.43 166.65 25.51 168.18 25.55 168.94 C 28.46 169.65 30.97 168.29 33.07 166.39 C 34.81 167.32 36.55 168.26 38.30 169.19 C 38.46 169.60 38.79 170.43 38.95 170.84 C 38.00 170.70 36.12 170.41 35.17 170.26 C 35.29 171.13 35.51 172.87 35.62 173.74 C 36.42 173.62 38.02 173.36 38.82 173.23 C 38.39 174.36 37.96 175.49 37.53 176.63 C 36.02 176.83 34.51 177.04 33.00 177.28 L 34.04 177.93 L 33.24 179.31 L 32.73 178.76 C 32.39 178.37 31.70 177.58 31.36 177.19 C 29.97 177.21 28.58 177.21 27.19 177.17 C 28.09 176.94 29.89 176.48 30.79 176.26 C 30.36 175.35 29.48 173.54 29.05 172.63 C 28.72 173.18 28.07 174.28 27.74 174.83 C 27.16 173.84 26.58 172.84 26.00 171.85 C 26.81 171.70 28.45 171.41 29.26 171.26 C 27.20 170.25 25.15 169.21 23.11 168.15 C 23.36 170.01 23.59 171.89 23.62 173.77 C 24.17 173.99 25.26 174.44 25.81 174.67 C 23.51 174.92 21.19 174.76 18.97 174.13 L 17.97 173.88 L 17.44 173.75 C 16.49 173.49 15.55 173.22 14.61 172.95 C 14.56 172.09 14.51 171.24 14.46 170.39 C 15.69 168.52 19.04 166.71 17.83 164.23 C 16.76 163.99 15.70 164.07 14.65 164.48 C 13.79 164.49 12.07 164.52 11.21 164.53 C 11.65 165.70 12.10 166.86 12.56 168.03 C 11.97 169.04 11.91 170.71 10.47 170.84 C 10.44 169.92 10.37 168.07 10.34 167.15 C 8.77 167.66 7.21 168.18 5.65 168.71 C 5.74 166.56 5.63 164.39 5.10 162.29 C 5.87 161.77 6.64 161.26 7.42 160.76 L 6.00 159.70 L 7.69 159.19 C 7.54 158.67 7.23 157.62 7.08 157.10 L 8.88 157.83 C 8.78 157.25 8.58 156.09 8.48 155.51 C 9.27 155.48 10.85 155.43 11.64 155.41 C 11.60 155.05 11.51 154.33 11.47 153.97 L 11.59 154.02 C 13.52 154.86 15.46 155.69 17.40 156.51 C 17.94 157.83 18.48 159.16 19.02 160.49 C 19.49 159.73 20.41 158.22 20.87 157.46 C 24.38 157.45 27.89 157.45 31.40 157.33 C 31.34 155.77 31.27 154.21 31.19 152.65 C 32.81 152.18 34.42 151.69 36.03 151.19 C 33.88 150.55 31.73 149.90 29.57 149.26 C 29.59 150.25 29.61 152.25 29.63 153.24 C 28.69 152.51 27.75 151.78 26.81 151.05 C 26.08 151.89 25.36 152.73 24.63 153.57 C 23.61 153.56 22.60 153.56 21.58 153.55 C 21.24 153.02 20.55 151.96 20.21 151.42 C 19.39 152.44 18.58 153.47 17.71 154.46 C 17.48 154.50 17.03 154.60 16.80 154.65 C 16.66 153.79 16.37 152.08 16.22 151.22 C 16.77 151.24 17.85 151.27 18.39 151.29 L 18.42 150.20 C 17.30 150.25 16.19 150.30 15.07 150.36 C 13.68 151.25 12.15 151.61 10.49 151.45 Z" />
<path fill="#838482" d=" M 24.41 149.05 C 24.96 149.62 24.96 149.62 24.41 149.05 Z" />
<path fill="#838482" d=" M 19.97 150.12 C 20.52 150.69 20.52 150.69 19.97 150.12 Z" />
<path fill="#838482" d=" M 29.57 149.26 C 31.73 149.90 33.88 150.55 36.03 151.19 C 34.42 151.69 32.81 152.18 31.19 152.65 C 31.27 154.21 31.34 155.77 31.40 157.33 C 27.89 157.45 24.38 157.45 20.87 157.46 C 20.41 158.22 19.49 159.73 19.02 160.49 C 18.48 159.16 17.94 157.83 17.40 156.51 C 15.46 155.69 13.52 154.86 11.59 154.02 C 12.66 153.11 14.78 151.28 15.85 150.36 C 15.75 151.49 15.55 153.73 15.45 154.86 L 16.80 154.65 C 17.03 154.60 17.48 154.50 17.71 154.46 C 18.58 153.47 19.39 152.44 20.21 151.42 C 20.55 151.96 21.24 153.02 21.58 153.55 C 22.60 153.56 23.61 153.56 24.63 153.57 C 25.36 152.73 26.08 151.89 26.81 151.05 C 27.75 151.78 28.69 152.51 29.63 153.24 C 29.61 152.25 29.59 150.25 29.57 149.26 Z" />
<path fill="#838482" d=" M 22.23 152.37 C 22.77 152.90 22.77 152.90 22.23 152.37 Z" />
<path fill="#838482" d=" M 504.09 155.23 C 505.61 153.93 506.87 151.69 509.16 151.80 C 509.53 156.53 509.30 161.28 509.26 166.02 C 508.87 165.82 508.10 165.42 507.71 165.22 C 507.32 161.90 507.58 158.55 507.60 155.22 C 506.72 155.22 504.97 155.23 504.09 155.23 Z" />
<path fill="#838482" d=" M 576.66 155.28 C 576.93 153.81 576.22 150.97 578.68 151.96 C 578.99 156.53 578.74 161.12 578.73 165.69 C 578.23 165.61 577.23 165.44 576.73 165.35 C 575.19 165.29 573.46 166.02 572.11 165.04 C 570.03 163.03 570.00 159.65 571.05 157.12 C 572.09 154.94 574.63 155.13 576.66 155.28 Z" />
<path fill="#838482" d=" M 599.33 152.19 C 599.78 152.08 600.68 151.87 601.13 151.77 C 602.03 155.06 599.48 160.10 603.36 161.84 C 602.86 162.25 601.85 163.07 601.35 163.48 C 601.32 164.01 601.27 165.08 601.24 165.61 C 600.82 165.63 599.98 165.68 599.56 165.70 C 599.51 165.03 599.42 163.70 599.37 163.03 C 597.30 163.01 595.23 162.97 593.17 162.90 C 594.77 159.09 596.85 155.48 599.33 152.19 Z" />
<path fill="#838482" d=" M 615.13 155.33 C 615.27 153.72 615.21 151.88 617.13 151.30 C 617.38 156.19 617.29 161.09 617.17 165.98 C 616.81 165.68 616.09 165.06 615.73 164.76 C 614.19 165.11 612.60 166.00 611.01 165.43 C 608.37 163.23 608.14 158.88 610.15 156.21 C 611.40 154.73 613.46 155.37 615.13 155.33 Z" />
<path fill="#838482" d=" M 621.00 152.20 C 621.68 152.07 623.03 151.81 623.71 151.68 C 623.12 152.33 621.95 153.63 621.37 154.28 C 621.68 158.06 621.68 161.86 621.59 165.64 L 619.79 165.70 C 619.82 161.21 619.21 156.46 621.00 152.20 Z" />
<path fill="#838482" d=" M 650.76 151.34 C 655.09 153.18 655.89 158.55 658.57 162.02 C 658.62 158.64 658.62 155.26 658.63 151.88 L 660.40 151.91 C 660.34 156.44 660.62 160.99 660.25 165.52 L 658.92 165.97 C 656.27 162.67 654.66 158.71 652.46 155.13 C 652.44 158.62 652.44 162.11 652.42 165.60 L 650.69 165.62 C 650.67 160.86 650.59 156.10 650.76 151.34 Z" />
<path fill="#838482" d=" M 719.81 152.66 C 720.13 152.24 720.78 151.40 721.11 150.98 C 721.79 155.85 721.48 160.79 721.48 165.69 C 721.00 165.63 720.05 165.52 719.57 165.46 C 719.72 161.20 719.22 156.88 719.81 152.66 Z" />
<path fill="#838482" d=" M 755.51 152.14 C 757.88 150.65 757.15 153.85 757.51 155.22 C 759.65 155.07 762.33 155.07 763.26 157.47 C 763.88 160.06 764.11 163.64 761.56 165.32 C 759.52 165.62 757.47 165.44 755.43 165.46 C 755.47 161.02 755.20 156.57 755.51 152.14 Z" />
<path fill="#838482" d=" M 786.18 152.49 C 786.64 152.21 787.56 151.66 788.03 151.38 C 788.12 156.09 788.28 160.82 788.00 165.53 C 787.52 165.50 786.57 165.44 786.09 165.40 C 785.83 161.11 785.64 156.76 786.18 152.49 Z" />
<path fill="#838482" d=" M 811.93 151.27 C 813.78 151.94 813.69 153.79 813.88 155.41 C 815.65 155.36 817.44 155.43 819.22 155.66 C 819.66 158.97 819.75 162.32 819.69 165.66 C 819.23 165.66 818.30 165.65 817.84 165.64 C 817.85 162.65 817.79 159.65 817.41 156.68 C 816.62 156.86 815.04 157.24 814.24 157.43 C 813.57 160.08 813.81 162.83 813.45 165.52 C 813.12 165.62 812.45 165.82 812.12 165.92 C 811.45 161.07 811.78 156.15 811.93 151.27 Z" />
<path fill="#838482" d=" M 832.37 152.08 C 833.98 151.54 834.54 152.09 834.04 153.73 C 832.41 154.26 831.85 153.71 832.37 152.08 Z" />
<path fill="#838482" d=" M 35.96 153.58 C 37.36 153.11 37.85 153.59 37.44 155.01 C 36.04 155.47 35.55 154.99 35.96 153.58 Z" />
<path fill="#838482" d=" M 521.80 154.45 C 524.95 156.20 524.89 160.24 526.25 163.20 C 527.36 160.18 527.41 156.32 530.33 154.33 C 529.79 158.29 528.83 162.29 526.87 165.80 C 526.46 165.76 525.66 165.69 525.26 165.65 C 523.39 162.19 522.57 158.27 521.80 154.45 Z" />
<path fill="#838482" d=" M 534.37 165.55 C 529.38 164.05 530.37 154.63 535.92 155.09 C 538.57 155.42 539.03 158.35 539.53 160.45 C 537.29 160.52 535.06 160.56 532.83 160.63 C 533.29 161.62 533.73 162.64 534.32 163.58 C 536.01 163.80 537.72 163.95 539.45 164.04 C 538.04 165.27 536.26 166.21 534.37 165.55 Z" />
<path fill="#838482" d=" M 539.63 155.71 C 541.93 155.15 544.36 154.67 546.72 155.24 C 547.05 158.28 543.96 160.88 542.79 163.61 C 544.50 163.84 546.39 164.02 547.46 165.58 C 544.97 165.73 542.48 165.73 540.00 165.63 C 541.23 162.61 542.91 159.80 544.70 157.08 C 542.98 156.69 541.27 156.35 539.63 155.71 Z" />
<path fill="#838482" d=" M 556.07 165.66 C 551.22 164.81 551.17 156.14 556.01 155.16 C 557.34 154.75 559.13 155.13 559.83 156.46 C 558.29 156.85 556.73 157.08 555.22 157.49 C 554.00 159.35 554.71 161.59 554.98 163.61 C 556.68 163.77 558.39 163.95 560.11 164.15 C 558.93 164.99 557.64 166.11 556.07 165.66 Z" />
<path fill="#838482" d=" M 561.20 156.66 C 563.06 155.11 565.95 154.24 567.90 156.17 C 568.82 159.18 568.41 162.39 568.49 165.49 C 565.78 165.49 562.91 165.83 560.53 164.25 C 561.05 162.89 560.91 161.09 562.09 160.06 C 563.69 159.41 565.41 159.24 567.09 158.83 C 565.93 156.58 563.26 157.10 561.20 156.66 Z" />
<path fill="#838482" d=" M 580.82 156.61 C 582.84 154.95 586.47 154.12 587.90 156.96 C 588.47 159.74 588.21 162.60 588.26 165.41 C 586.17 165.43 584.08 165.62 582.01 165.45 C 580.45 164.32 580.75 162.27 580.45 160.62 C 582.51 159.94 584.58 159.34 586.67 158.76 C 585.59 156.47 582.80 157.15 580.82 156.61 Z" />
<path fill="#030303" d=" M 595.59 160.92 C 596.87 158.91 598.17 156.91 599.51 154.93 C 599.46 156.96 599.42 158.99 599.37 161.03 C 598.43 161.00 596.54 160.94 595.59 160.92 Z" />
<path fill="#838482" d=" M 623.40 156.75 C 625.22 155.26 627.99 154.20 630.00 156.01 C 631.42 158.91 630.63 162.31 630.80 165.42 C 628.25 165.16 623.71 166.84 623.22 163.13 C 622.47 159.87 626.48 159.61 628.56 158.82 C 629.41 155.87 624.94 157.45 623.40 156.75 Z" />
<path fill="#838482" d=" M 632.81 156.99 C 634.18 154.27 637.99 154.63 639.72 156.79 C 637.84 156.96 635.96 157.10 634.09 157.24 C 635.88 159.22 639.09 160.27 639.41 163.26 C 640.66 163.12 641.92 163.00 643.19 162.88 C 643.07 163.69 642.82 165.33 642.70 166.14 C 641.45 165.38 640.22 164.60 639.00 163.81 C 637.57 166.49 633.87 166.15 632.00 164.17 C 633.46 163.28 637.49 164.89 637.50 162.47 C 635.86 160.71 632.08 160.03 632.81 156.99 Z" />
<path fill="#838482" d=" M 665.33 155.44 C 671.58 152.83 673.83 164.25 667.97 165.61 C 662.31 166.88 660.53 157.45 665.33 155.44 Z" />
<path fill="#838482" d=" M 677.79 155.39 C 679.57 155.41 681.36 155.33 683.15 155.23 C 683.13 155.53 683.09 156.15 683.07 156.46 C 677.39 157.00 681.62 163.98 677.98 166.33 C 677.72 162.69 677.76 159.04 677.79 155.39 Z" />
<path fill="#838482" d=" M 686.74 165.40 C 682.52 163.44 683.16 155.72 687.96 155.05 C 690.96 154.80 691.92 158.08 692.53 160.36 C 690.26 160.48 688.01 160.57 685.76 160.68 C 686.21 161.66 686.65 162.68 687.24 163.61 C 688.92 163.82 690.61 163.97 692.32 164.06 C 690.81 165.40 688.70 166.25 686.74 165.40 Z" />
<path fill="#838482" d=" M 702.85 156.83 C 704.75 154.85 708.47 154.13 710.00 156.94 C 710.48 159.74 710.27 162.60 710.30 165.43 C 707.75 165.08 703.03 166.94 702.73 163.06 C 702.00 160.60 704.70 159.69 706.51 159.12 C 706.03 160.23 705.51 161.32 704.96 162.39 C 704.83 162.74 704.57 163.45 704.45 163.81 C 705.53 163.78 706.62 163.72 707.72 163.63 C 707.94 161.45 707.93 159.26 708.05 157.08 C 706.31 157.02 704.57 156.94 702.85 156.83 Z" />
<path fill="#838482" d=" M 712.78 155.38 C 714.56 155.40 716.34 155.32 718.14 155.23 C 718.13 155.54 718.11 156.15 718.09 156.46 C 712.39 156.94 716.62 164.01 712.97 166.31 C 712.72 162.67 712.76 159.02 712.78 155.38 Z" />
<path fill="#838482" d=" M 723.32 156.73 C 725.14 155.17 727.94 154.23 729.94 156.05 C 731.25 159.09 730.53 162.52 730.63 165.72 C 730.17 165.63 729.23 165.44 728.77 165.34 C 726.54 165.66 723.29 166.06 723.00 163.02 C 722.57 159.54 726.79 159.30 729.15 158.89 C 728.21 156.41 725.37 157.18 723.32 156.73 Z" />
<path fill="#838482" d=" M 736.98 156.97 C 738.33 154.35 742.14 154.53 743.76 156.81 C 741.91 156.96 740.07 157.10 738.24 157.24 C 739.84 158.80 741.48 160.64 743.80 161.05 C 744.90 158.63 745.60 154.98 748.98 154.99 C 754.25 155.30 754.90 164.23 750.02 165.58 C 747.64 166.45 746.30 163.77 744.29 163.20 C 742.39 165.65 738.30 167.02 736.22 164.03 C 737.63 163.22 741.88 164.94 741.58 162.46 C 739.95 160.66 736.16 160.04 736.98 156.97 Z" />
<path fill="#838482" d=" M 765.70 165.61 C 765.71 162.19 765.72 158.78 765.79 155.36 C 767.51 155.39 769.25 155.30 770.99 155.21 C 771.00 155.53 771.01 156.17 771.02 156.49 C 766.33 156.99 767.87 162.45 767.49 165.71 C 767.04 165.68 766.15 165.63 765.70 165.61 Z" />
<path fill="#838482" d=" M 774.02 165.05 C 770.53 162.56 771.36 155.57 775.98 155.04 C 778.95 154.94 780.02 158.01 780.10 160.47 C 777.90 160.54 775.70 160.62 773.52 160.74 C 774.25 164.13 777.40 164.05 780.24 164.07 C 778.60 165.62 776.01 166.37 774.02 165.05 Z" />
<path fill="#838482" d=" M 789.91 156.84 C 791.81 154.88 795.67 154.05 797.06 157.03 C 797.52 159.80 797.31 162.63 797.34 165.42 C 794.83 165.09 790.02 166.93 789.83 163.03 C 789.01 160.14 792.39 159.51 794.37 158.96 C 794.22 159.67 793.93 161.07 793.79 161.77 L 792.21 160.88 C 792.10 161.63 791.89 163.13 791.78 163.89 C 792.53 163.85 794.04 163.78 794.79 163.74 C 794.87 163.36 795.04 162.59 795.13 162.21 C 795.01 160.48 794.95 158.76 794.90 157.04 C 793.23 157.00 791.56 156.94 789.91 156.84 Z" />
<path fill="#838482" d=" M 799.13 157.17 C 800.41 154.39 804.31 154.46 806.04 156.77 C 804.16 156.94 802.28 157.11 800.42 157.28 C 802.01 159.33 805.61 160.07 805.80 162.95 C 805.35 166.55 800.28 166.39 798.34 164.07 C 800.17 163.90 802.04 163.82 803.89 163.58 C 803.72 160.53 798.49 160.60 799.13 157.17 Z" />
<path fill="#838482" d=" M 824.26 155.35 C 830.83 153.00 832.49 165.43 825.97 165.71 C 820.65 165.97 819.65 157.13 824.26 155.35 Z" />
<path fill="#838482" d=" M 832.23 155.18 C 832.73 155.21 833.73 155.27 834.23 155.30 C 834.08 159.52 834.55 163.78 833.97 167.97 C 833.66 169.90 831.51 170.05 829.97 170.01 C 833.56 165.86 831.85 160.16 832.23 155.18 Z" />
<path fill="#838482" d=" M 836.02 156.85 C 837.75 155.13 840.88 154.11 842.71 156.26 C 843.93 159.13 843.23 162.41 843.39 165.45 C 841.37 165.43 839.34 165.61 837.33 165.41 C 835.69 164.56 836.08 162.41 835.69 160.91 C 836.58 160.44 838.36 159.52 839.25 159.05 C 839.20 159.75 839.09 161.14 839.04 161.83 L 837.62 161.27 C 837.57 163.26 838.83 163.99 840.57 164.05 C 840.88 163.42 841.50 162.17 841.81 161.55 L 840.47 161.30 C 840.95 160.65 841.45 160.02 841.96 159.39 C 841.67 158.81 841.10 157.64 840.82 157.06 C 839.21 157.01 837.61 156.94 836.02 156.85 Z" />
<path fill="#838482" d=" M 845.28 157.19 C 846.41 154.35 850.43 154.50 852.13 156.76 C 850.23 156.94 848.34 157.12 846.46 157.29 C 848.14 159.26 851.75 160.09 851.88 163.01 C 851.40 166.56 846.28 166.42 844.43 163.99 C 846.41 163.85 848.41 163.74 850.41 163.59 C 849.22 161.00 844.96 160.36 845.28 157.19 Z" />
<path fill="#838482" d=" M 856.51 154.39 C 859.41 156.04 859.63 159.64 860.87 162.40 C 862.06 159.64 862.18 155.97 865.15 154.42 C 864.02 159.24 862.76 164.14 860.55 168.58 C 859.56 170.43 857.61 169.86 855.97 169.43 C 857.19 168.28 859.48 167.88 859.90 166.02 C 859.31 162.00 857.05 158.43 856.51 154.39 Z" />
<path fill="#838482" d=" M 32.04 161.02 C 29.02 159.21 31.94 156.15 34.18 155.33 C 33.72 157.85 34.17 160.35 34.65 162.83 C 34.00 162.38 32.69 161.47 32.04 161.02 Z" />
<path fill="#838482" d=" M 694.52 155.31 C 695.23 155.88 695.93 156.47 696.64 157.06 L 694.62 159.00 C 695.53 159.27 697.35 159.81 698.26 160.08 C 698.67 158.34 697.82 156.67 697.48 155.00 L 701.57 155.00 C 700.97 156.65 700.53 158.34 699.85 159.95 C 699.16 161.75 695.80 161.17 695.90 163.41 C 697.65 164.23 700.98 163.52 701.38 166.04 C 701.90 170.49 694.83 171.37 692.71 168.17 C 693.06 165.84 693.94 163.64 694.47 161.35 C 693.45 159.39 693.33 157.24 694.52 155.31 Z" />
<path fill="#838482" d=" M 104.00 156.85 C 104.72 156.85 106.17 156.86 106.89 156.86 C 107.96 160.37 109.05 163.88 110.36 167.30 C 111.59 163.96 112.33 160.42 113.85 157.19 C 114.48 157.00 115.74 156.62 116.37 156.42 C 116.48 161.14 116.44 165.86 116.41 170.58 L 114.54 170.64 C 114.50 167.37 114.51 164.09 114.43 160.82 C 113.08 164.17 112.12 167.67 110.54 170.92 C 109.08 170.73 108.97 169.05 108.46 167.98 C 107.61 165.55 107.01 163.05 106.24 160.60 C 106.02 163.71 106.17 166.84 105.72 169.93 C 105.32 170.22 104.52 170.78 104.12 171.06 C 103.90 166.33 104.04 161.58 104.00 156.85 Z" />
<path fill="#838482" d=" M 161.16 157.05 C 162.79 156.52 163.35 157.07 162.84 158.70 C 161.21 159.22 160.65 158.68 161.16 157.05 Z" />
<path fill="#030303" d=" M 533.10 158.81 C 533.35 158.27 533.85 157.18 534.10 156.64 C 535.39 157.05 536.65 157.59 537.62 158.59 C 536.11 158.68 534.60 158.75 533.10 158.81 Z" />
<path fill="#030303" d=" M 572.95 156.99 C 573.82 157.02 575.57 157.08 576.45 157.11 C 576.63 159.34 576.61 161.59 576.43 163.83 C 575.55 163.83 573.80 163.82 572.92 163.82 C 572.43 161.56 572.44 159.25 572.95 156.99 Z" />
<path fill="#030303" d=" M 611.22 157.17 C 612.45 157.13 613.69 157.10 614.93 157.08 C 615.13 159.43 615.09 161.80 614.81 164.15 C 613.68 163.93 612.56 163.67 611.46 163.37 C 610.79 161.36 611.17 159.23 611.22 157.17 Z" />
<path fill="#030303" d=" M 664.97 156.94 C 666.23 157.02 667.50 157.16 668.77 157.34 C 669.64 159.38 669.11 161.61 668.88 163.72 C 667.60 163.73 666.33 163.75 665.08 163.76 C 664.77 161.49 664.76 159.21 664.97 156.94 Z" />
<path fill="#030303" d=" M 686.04 158.82 C 686.26 158.26 686.70 157.14 686.92 156.58 C 688.22 157.05 689.52 157.63 690.57 158.57 C 689.05 158.67 687.54 158.76 686.04 158.82 Z" />
<path fill="#030303" d=" M 746.92 157.18 C 747.84 157.12 749.69 156.99 750.61 156.93 C 751.11 159.15 751.17 161.43 750.85 163.69 C 749.58 163.73 748.32 163.78 747.08 163.82 C 746.70 161.62 746.65 159.39 746.92 157.18 Z" />
<path fill="#030303" d=" M 757.69 157.08 C 758.58 157.07 760.37 157.05 761.27 157.04 C 761.38 159.40 762.65 162.49 760.12 164.06 C 756.12 164.22 757.68 159.59 757.69 157.08 Z" />
<path fill="#030303" d=" M 773.51 158.59 C 774.75 156.62 777.28 156.65 778.49 158.64 C 776.82 158.67 775.16 158.66 773.51 158.59 Z" />
<path fill="#030303" d=" M 823.93 157.03 C 824.82 157.02 826.59 157.00 827.48 156.99 C 827.69 159.08 828.63 161.46 827.35 163.38 C 826.24 163.68 825.14 163.93 824.03 164.14 C 823.44 161.80 823.35 159.37 823.93 157.03 Z" />
<path fill="#838482" d=" M 35.23 158.23 C 38.62 158.32 33.70 161.20 35.23 158.23 Z" />
<path fill="#838482" d=" M 164.12 160.93 C 165.00 160.03 165.88 159.13 166.77 158.23 C 167.72 159.18 168.76 160.02 169.89 160.74 C 166.58 161.89 167.43 165.51 167.24 168.28 C 168.05 168.68 169.69 169.48 170.50 169.88 C 169.27 170.22 168.00 170.86 166.70 170.51 C 164.62 168.46 165.79 165.19 165.50 162.60 C 165.16 162.19 164.46 161.35 164.12 160.93 Z" />
<path fill="#838482" d=" M 17.24 160.23 C 17.77 160.79 17.77 160.79 17.24 160.23 Z" />
<path fill="#838482" d=" M 34.98 161.74 C 36.44 160.76 37.90 159.79 39.37 158.82 C 39.43 159.66 39.56 161.32 39.63 162.15 C 40.59 163.01 41.56 163.87 42.44 164.83 C 42.23 166.01 41.98 167.18 41.68 168.34 C 42.15 168.15 43.08 167.78 43.54 167.59 C 43.54 166.59 43.54 165.60 43.54 164.61 L 44.86 163.18 C 44.73 168.74 43.30 174.20 40.87 179.19 C 38.59 178.77 36.30 178.43 34.04 177.93 L 33.00 177.28 C 34.51 177.04 36.02 176.83 37.53 176.63 C 37.96 175.49 38.39 174.36 38.82 173.23 C 38.02 173.36 36.42 173.62 35.62 173.74 C 35.51 172.87 35.29 171.13 35.17 170.26 C 36.12 170.41 38.00 170.70 38.95 170.84 C 38.79 170.43 38.46 169.60 38.30 169.19 C 36.55 168.26 34.81 167.32 33.07 166.39 C 30.97 168.29 28.46 169.65 25.55 168.94 C 25.51 168.18 25.43 166.65 25.39 165.89 C 24.33 164.78 23.28 163.66 22.24 162.54 C 24.34 162.52 26.45 162.53 28.55 162.53 C 28.86 163.79 29.16 165.05 29.47 166.31 C 29.80 165.67 30.47 164.39 30.80 163.75 C 33.29 164.68 35.86 165.45 38.51 165.70 C 38.83 167.96 41.57 166.03 39.32 165.20 C 37.85 164.07 36.42 162.90 34.98 161.74 Z" />
<path fill="#838482" d=" M 118.80 161.59 C 120.71 160.17 123.81 159.04 125.50 161.39 C 126.80 164.15 126.04 167.42 126.24 170.39 C 123.69 170.15 118.67 171.84 118.59 167.86 C 118.07 164.44 122.39 164.37 124.64 163.79 C 123.62 161.44 120.79 162.16 118.80 161.59 Z" />
<path fill="#838482" d=" M 128.69 170.62 C 128.68 167.18 128.69 163.74 128.76 160.30 C 130.72 160.37 132.69 160.32 134.66 160.33 C 133.19 161.76 130.51 162.54 130.68 165.00 C 130.51 166.87 130.53 168.74 130.49 170.62 C 130.04 170.62 129.14 170.62 128.69 170.62 Z" />
<path fill="#838482" d=" M 135.18 162.16 C 136.59 159.14 140.40 160.21 143.05 159.95 C 142.49 161.73 142.09 163.57 141.32 165.28 C 139.84 166.35 138.19 167.13 136.61 168.04 C 138.89 168.99 143.43 168.50 143.15 172.09 C 141.79 175.87 136.01 175.96 133.98 172.68 C 136.46 169.55 135.52 165.76 135.18 162.16 Z" />
<path fill="#838482" d=" M 144.35 161.72 C 146.17 160.18 148.98 159.16 150.96 161.05 C 152.28 163.98 151.57 167.33 151.72 170.43 C 149.07 170.13 144.61 171.85 144.04 168.00 C 143.56 164.51 147.85 164.29 150.17 163.80 C 149.16 161.44 146.38 162.17 144.35 161.72 Z" />
<path fill="#838482" d=" M 154.24 160.15 C 155.00 160.30 155.76 160.46 156.53 160.62 C 158.70 160.44 160.87 160.38 163.04 160.25 C 163.07 163.74 163.06 167.23 162.91 170.71 C 162.39 170.63 161.35 170.47 160.82 170.39 C 160.88 167.12 160.90 163.85 160.92 160.58 C 159.36 161.32 157.87 162.18 156.45 163.15 C 156.10 165.53 156.21 167.95 156.20 170.36 C 155.72 170.43 154.74 170.59 154.26 170.66 C 154.20 167.16 154.20 163.65 154.24 160.15 Z" />
<path fill="#838482" d=" M 170.85 161.85 C 172.71 159.75 176.53 159.12 178.00 161.98 C 178.47 164.76 178.26 167.60 178.29 170.41 C 175.74 170.04 171.20 171.91 170.71 168.15 C 169.99 165.40 173.18 164.26 175.29 163.89 C 174.42 165.52 172.38 166.80 172.76 168.87 C 173.47 168.83 174.88 168.75 175.59 168.72 C 175.75 166.49 175.70 164.26 175.86 162.04 C 174.19 162.00 172.52 161.93 170.85 161.85 Z" />
<path fill="#030303" d=" M 562.76 164.18 C 562.59 161.52 564.46 160.61 566.84 160.43 C 566.65 162.90 565.20 164.22 562.76 164.18 Z" />
<path fill="#030303" d=" M 583.29 161.42 C 584.43 159.54 587.39 161.30 585.86 163.01 C 585.03 165.22 580.35 163.06 583.29 161.42 Z" />
<path fill="#030303" d=" M 625.23 161.13 C 626.46 161.08 627.69 161.06 628.94 161.07 C 629.13 163.35 627.15 163.94 625.31 164.16 C 625.29 163.40 625.25 161.89 625.23 161.13 Z" />
<path fill="#030303" d=" M 724.81 164.13 C 724.54 161.55 726.58 160.16 728.97 161.04 C 728.89 163.41 726.81 164.04 724.81 164.13 Z" />
<path fill="#838482" d=" M 19.30 162.40 C 21.10 161.89 21.66 162.46 20.97 164.12 C 19.49 164.55 18.93 163.98 19.30 162.40 Z" />
<path fill="#030303" d=" M 137.05 161.91 C 137.79 161.91 139.26 161.91 140.00 161.91 C 139.98 162.65 139.94 164.13 139.92 164.87 C 139.24 164.88 137.89 164.89 137.21 164.90 C 137.17 164.15 137.09 162.65 137.05 161.91 Z" />
<path fill="#838482" d=" M 1.87 167.78 C 2.53 165.73 3.04 163.43 5.10 162.29 C 5.63 164.39 5.74 166.56 5.65 168.71 C 7.21 168.18 8.77 167.66 10.34 167.15 C 10.37 168.07 10.44 169.92 10.47 170.84 C 11.91 170.71 11.97 169.04 12.56 168.03 C 12.10 166.86 11.65 165.70 11.21 164.53 C 12.07 164.52 13.79 164.49 14.65 164.48 C 15.70 164.07 16.76 163.99 17.83 164.23 C 19.04 166.71 15.69 168.52 14.46 170.39 C 14.51 171.24 14.56 172.09 14.61 172.95 C 15.55 173.22 16.49 173.49 17.44 173.75 C 16.95 175.09 17.08 176.36 17.83 177.58 C 19.02 176.67 18.77 174.95 17.97 173.88 L 18.97 174.13 C 21.19 174.76 23.51 174.92 25.81 174.67 C 25.26 174.44 24.17 173.99 23.62 173.77 C 23.59 171.89 23.36 170.01 23.11 168.15 C 25.15 169.21 27.20 170.25 29.26 171.26 C 28.45 171.41 26.81 171.70 26.00 171.85 C 26.58 172.84 27.16 173.84 27.74 174.83 C 28.07 174.28 28.72 173.18 29.05 172.63 C 29.48 173.54 30.36 175.35 30.79 176.26 C 29.89 176.48 28.09 176.94 27.19 177.17 C 28.58 177.21 29.97 177.21 31.36 177.19 C 31.70 177.58 32.39 178.37 32.73 178.76 C 29.21 179.93 25.47 180.26 21.79 179.81 C 21.22 178.36 19.96 177.82 18.50 177.65 C 18.07 178.78 17.63 179.92 17.19 181.05 C 15.46 180.24 13.71 179.46 11.91 178.84 C 10.61 177.27 9.60 175.48 8.85 173.59 C 7.59 173.58 6.32 173.58 5.06 173.60 C 3.79 171.77 2.83 169.77 1.87 167.78 Z" />
<path fill="#030303" d=" M 39.32 165.20 C 41.57 166.03 38.83 167.96 38.51 165.70 L 39.32 165.20 Z" />
<path fill="#838482" d=" M 8.53 166.10 C 9.09 166.64 9.09 166.64 8.53 166.10 Z" />
<path fill="#838482" d=" M 19.31 165.93 C 22.31 164.45 19.38 169.31 19.31 165.93 Z" />
<path fill="#838482" d=" M 22.43 166.00 C 22.97 166.57 22.97 166.57 22.43 166.00 Z" />
<path fill="#030303" d=" M 120.34 166.94 C 121.07 166.54 122.53 165.73 123.26 165.33 C 123.57 166.47 123.84 167.63 124.07 168.79 C 122.52 168.64 120.21 169.32 120.34 166.94 Z" />
<path fill="#030303" d=" M 145.88 169.19 C 145.51 166.66 147.53 164.92 149.94 166.11 C 150.02 168.51 147.74 168.84 145.88 169.19 Z" />
<path fill="#030303" d=" M 694.77 165.82 C 696.46 165.66 698.22 165.65 699.83 166.31 C 699.80 169.13 693.07 169.32 694.77 165.82 Z" />
<path fill="#838482" d=" M 16.02 169.98 C 17.71 169.38 19.39 168.73 21.14 168.29 C 21.34 169.02 21.74 170.47 21.94 171.20 C 19.95 171.05 16.99 172.64 16.02 169.98 Z" />
<path fill="#030303" d=" M 39.22 168.28 C 39.75 168.83 39.75 168.83 39.22 168.28 Z" />
<path fill="#ed7501" d=" M 32.93 169.98 C 33.43 170.64 33.43 170.64 32.93 169.98 Z" />
<path fill="#030303" d=" M 135.55 173.01 C 136.30 170.17 139.15 170.76 141.41 170.71 C 141.30 174.04 137.76 173.04 135.55 173.01 Z" />
<path fill="#030303" d=" M 8.26 172.26 C 8.84 172.78 8.84 172.78 8.26 172.26 Z" />
<path fill="#030303" d=" M 12.30 172.19 C 12.81 172.74 12.81 172.74 12.30 172.19 Z" />
<path fill="#838482" d=" M 21.26 172.06 C 22.67 171.65 23.11 172.14 22.58 173.55 C 21.16 173.96 20.72 173.46 21.26 172.06 Z" />
<path fill="#030303" d=" M 31.39 172.48 C 32.42 171.80 34.04 172.00 35.03 172.66 C 35.02 174.36 31.04 174.20 31.39 172.48 Z" />
<path fill="#838482" d=" M 506.30 172.43 C 508.32 172.24 510.36 172.38 512.40 172.37 C 512.27 176.78 512.65 181.22 512.20 185.63 C 511.76 185.82 510.88 186.21 510.44 186.40 C 510.37 181.98 510.42 177.55 510.47 173.13 C 509.47 173.48 507.47 174.19 506.47 174.55 C 507.37 175.34 508.31 176.13 509.23 176.92 C 508.61 177.08 507.37 177.40 506.75 177.56 C 506.75 180.51 506.76 183.47 506.70 186.43 C 506.26 186.22 505.39 185.81 504.95 185.61 C 504.45 182.61 505.46 179.28 503.64 176.61 C 504.45 175.18 505.13 173.62 506.30 172.43 Z" />
<path fill="#838482" d=" M 614.61 172.29 L 616.45 172.13 C 616.54 176.75 616.52 181.38 616.51 186.00 L 614.60 186.00 C 614.58 181.43 614.57 176.86 614.61 172.29 Z" />
<path fill="#838482" d=" M 649.63 172.20 L 651.47 172.23 C 651.53 176.82 651.52 181.41 651.51 186.00 L 649.59 186.00 C 649.58 181.40 649.56 176.80 649.63 172.20 Z" />
<path fill="#838482" d=" M 678.05 171.47 C 679.37 172.83 679.80 174.64 679.84 176.47 C 680.28 179.45 679.67 182.50 679.46 185.48 C 679.07 185.77 678.30 186.35 677.91 186.64 C 677.71 181.59 677.62 176.51 678.05 171.47 Z" />
<path fill="#030303" d=" M 15.20 174.25 C 15.76 174.79 15.76 174.79 15.20 174.25 Z" />
<path fill="#030303" d=" M 17.44 173.75 L 17.97 173.88 C 18.77 174.95 19.02 176.67 17.83 177.58 C 17.08 176.36 16.95 175.09 17.44 173.75 Z" />
<path fill="#838482" d=" M 514.50 178.53 C 515.27 175.00 520.81 174.64 522.15 177.93 C 523.80 180.71 522.55 183.98 520.41 186.07 C 519.45 186.08 517.53 186.09 516.58 186.10 C 514.78 184.05 513.17 181.28 514.50 178.53 Z" />
<path fill="#838482" d=" M 524.84 175.82 C 526.91 175.89 529.00 175.97 531.06 176.29 C 529.78 177.18 528.12 177.65 527.13 178.90 C 526.80 181.25 526.88 183.63 526.86 186.00 C 526.35 186.00 525.35 186.00 524.84 186.01 C 524.83 182.61 524.83 179.21 524.84 175.82 Z" />
<path fill="#838482" d=" M 532.70 176.65 C 534.67 174.64 537.47 176.06 539.10 177.73 C 539.11 178.54 539.12 180.18 539.12 180.99 C 536.96 181.00 534.80 181.03 532.64 181.12 C 533.49 184.08 536.29 184.58 539.03 184.35 C 538.80 184.75 538.34 185.57 538.11 185.97 C 536.63 186.01 535.16 186.05 533.69 186.10 C 531.05 183.68 530.10 179.46 532.70 176.65 Z" />
<path fill="#838482" d=" M 573.69 175.89 C 575.44 176.14 577.78 175.08 579.19 176.52 C 578.07 177.38 576.86 178.12 575.80 179.04 C 575.53 180.99 575.59 182.97 575.48 184.95 C 576.13 186.42 572.92 186.45 573.64 185.01 C 573.51 181.97 573.63 178.93 573.69 175.89 Z" />
<path fill="#838482" d=" M 600.33 180.05 C 600.45 177.50 602.75 174.98 605.45 175.77 C 607.97 176.14 608.00 179.04 608.52 180.96 C 606.23 181.01 603.94 181.07 601.66 181.21 C 602.72 184.02 605.36 184.68 608.13 184.29 C 607.90 184.72 607.43 185.58 607.20 186.01 C 605.70 186.02 604.21 186.03 602.73 186.05 C 601.41 184.31 599.76 182.42 600.33 180.05 Z" />
<path fill="#838482" d=" M 618.59 178.66 C 619.14 176.03 622.46 174.75 624.61 176.31 C 626.12 177.35 625.94 179.41 626.47 180.98 C 624.19 181.00 621.92 181.03 619.66 181.13 C 620.54 184.09 623.29 184.63 626.05 184.25 C 625.82 184.69 625.38 185.56 625.16 186.00 C 623.65 186.01 622.15 186.03 620.66 186.05 C 618.91 184.03 617.36 181.38 618.59 178.66 Z" />
<path fill="#838482" d=" M 653.19 181.03 C 653.07 178.41 654.91 175.09 657.94 175.71 C 660.68 175.76 661.07 178.91 661.47 180.98 C 659.19 181.00 656.93 181.03 654.67 181.13 C 655.54 184.36 658.76 184.42 661.56 184.60 C 659.95 186.01 657.80 186.09 655.79 186.28 C 654.73 184.65 653.10 183.12 653.19 181.03 Z" />
<path fill="#838482" d=" M 707.75 178.52 C 709.01 175.08 712.81 175.48 715.79 175.74 C 715.38 177.56 715.18 179.55 714.16 181.14 C 712.80 181.98 711.23 182.39 709.78 183.01 C 712.25 184.10 714.97 184.83 716.91 186.85 C 715.36 190.00 711.30 191.58 708.26 189.68 C 706.45 188.44 707.73 186.58 708.65 185.24 C 708.84 182.95 708.64 180.66 707.75 178.52 Z" />
<path fill="#838482" d=" M 540.52 178.99 C 539.87 175.25 545.54 174.67 547.36 177.16 C 545.45 177.45 543.58 177.71 541.68 177.98 C 543.56 179.91 547.61 180.74 547.23 184.01 C 546.02 186.66 541.38 187.03 540.08 184.35 C 541.82 184.30 543.56 184.21 545.31 184.07 C 544.77 181.50 541.58 181.15 540.52 178.99 Z" />
<path fill="#838482" d=" M 552.91 175.79 C 555.40 176.13 558.83 174.78 560.49 177.28 C 562.01 180.20 561.14 183.72 559.30 186.29 C 557.86 186.04 556.43 185.77 555.01 185.50 C 555.03 187.25 555.04 188.99 555.04 190.74 C 554.56 190.49 553.59 189.98 553.10 189.72 C 552.58 185.10 553.01 180.43 552.91 175.79 Z" />
<path fill="#838482" d=" M 563.50 184.06 C 561.49 180.76 563.40 174.63 568.04 175.74 C 572.75 177.04 572.10 183.55 569.07 186.32 C 567.16 185.88 564.44 186.24 563.50 184.06 Z" />
<path fill="#838482" d=" M 581.02 184.91 C 579.23 182.36 579.27 178.09 581.88 176.09 C 583.96 175.63 586.12 175.83 588.25 175.77 C 588.23 180.79 588.36 185.82 588.13 190.84 C 585.68 190.16 586.43 187.57 586.21 185.70 C 584.46 185.65 582.08 186.87 581.02 184.91 Z" />
<path fill="#838482" d=" M 591.10 184.83 C 590.33 181.88 590.46 178.76 590.84 175.77 L 592.22 175.61 C 592.61 178.55 592.52 181.53 592.75 184.50 C 593.53 184.33 595.09 184.00 595.87 183.84 C 597.52 181.29 595.19 176.82 598.16 175.33 C 598.67 178.84 598.65 182.42 598.33 185.95 C 597.84 185.89 596.86 185.76 596.37 185.69 C 594.59 185.70 592.17 186.84 591.10 184.83 Z" />
<path fill="#838482" d=" M 632.00 179.06 C 630.88 175.34 637.26 174.34 638.48 177.43 C 636.94 177.48 635.41 177.56 633.89 177.67 C 634.15 180.17 637.47 180.90 639.19 182.43 C 640.43 180.07 642.99 179.89 645.34 179.60 C 645.06 179.05 644.51 177.94 644.24 177.39 C 642.72 177.45 641.20 177.49 639.70 177.52 C 641.33 175.66 644.43 174.78 646.36 176.71 C 647.66 179.54 647.05 182.79 647.21 185.81 C 644.03 186.12 640.90 186.05 638.19 184.19 C 636.70 186.46 632.62 187.10 631.39 184.27 C 633.28 184.22 635.24 184.35 637.06 183.68 C 635.72 181.77 633.02 181.11 632.00 179.06 Z" />
<path fill="#838482" d=" M 663.15 176.04 C 665.51 176.19 668.44 174.91 670.39 176.72 C 671.70 179.43 671.27 182.63 671.02 185.54 C 670.60 185.78 669.77 186.26 669.35 186.50 C 669.22 183.29 669.09 180.08 668.65 176.90 C 667.58 177.24 666.53 177.63 665.51 178.06 C 665.09 180.54 665.31 183.08 665.00 185.58 C 664.56 185.80 663.69 186.24 663.25 186.46 C 663.15 182.99 663.18 179.51 663.15 176.04 Z" />
<path fill="#838482" d=" M 683.63 178.35 C 683.27 177.65 680.04 176.89 681.45 175.89 C 684.24 174.89 685.84 177.58 685.69 180.00 C 685.54 182.25 686.67 185.52 683.98 186.62 C 683.82 183.86 683.77 181.10 683.63 178.35 Z" />
<path fill="#838482" d=" M 689.34 176.37 C 691.42 174.87 694.83 175.73 695.63 178.30 C 696.79 181.16 695.92 186.17 692.04 186.06 C 687.07 186.52 685.75 178.89 689.34 176.37 Z" />
<path fill="#838482" d=" M 698.18 175.81 C 700.52 176.07 703.36 175.04 705.35 176.66 C 706.74 179.55 706.02 182.91 706.19 186.01 C 705.70 186.01 704.73 186.00 704.25 186.00 C 704.23 182.96 704.07 179.93 703.66 176.92 C 702.58 177.26 701.52 177.65 700.48 178.09 C 700.09 180.57 700.32 183.10 700.01 185.59 C 699.56 185.80 698.68 186.23 698.24 186.44 C 698.14 182.90 698.18 179.35 698.18 175.81 Z" />
<path fill="#838482" d=" M 717.85 178.05 C 718.99 174.90 724.17 174.80 725.33 177.99 C 726.64 180.25 725.61 182.86 725.13 185.21 C 723.37 185.63 721.58 186.00 719.81 186.34 C 717.88 184.09 716.23 180.95 717.85 178.05 Z" />
<path fill="#838482" d=" M 727.44 179.02 C 726.94 175.10 732.35 174.85 734.37 177.20 C 732.46 177.47 730.55 177.69 728.65 177.94 C 730.75 179.59 732.93 181.14 734.93 182.94 C 733.60 185.99 728.91 187.65 726.98 184.35 C 728.81 184.12 731.06 184.83 732.49 183.23 C 730.88 181.74 728.65 180.88 727.44 179.02 Z" />
<path fill="#030303" d=" M 532.78 179.40 C 533.66 177.57 536.73 176.33 537.24 179.11 C 535.76 179.30 534.26 179.34 532.78 179.40 Z" />
<path fill="#030303" d=" M 555.26 178.07 C 556.33 177.50 557.54 177.33 558.71 177.02 C 559.05 179.51 560.47 183.73 557.02 184.61 C 554.15 183.78 555.12 180.29 555.26 178.07 Z" />
<path fill="#030303" d=" M 566.99 184.57 C 563.19 183.37 564.30 176.49 568.64 177.16 C 569.41 179.60 570.60 183.89 566.99 184.57 Z" />
<path fill="#030303" d=" M 583.38 177.50 C 586.74 176.74 586.69 181.79 585.73 183.87 C 581.72 186.55 580.44 178.98 583.38 177.50 Z" />
<path fill="#030303" d=" M 603.47 176.98 C 604.57 177.62 605.67 178.27 606.77 178.94 C 605.25 179.16 603.74 179.35 602.24 179.55 C 602.64 178.69 603.05 177.83 603.47 176.98 Z" />
<path fill="#030303" d=" M 621.53 176.97 C 622.60 177.63 623.66 178.30 624.73 179.00 C 623.18 179.17 621.63 179.32 620.09 179.47 C 620.56 178.63 621.04 177.80 621.53 176.97 Z" />
<path fill="#030303" d=" M 654.76 179.29 C 655.69 177.59 659.46 176.20 658.87 179.33 C 657.49 179.36 656.12 179.35 654.76 179.29 Z" />
<path fill="#030303" d=" M 720.26 177.02 C 721.67 177.57 724.16 177.77 723.98 179.88 C 724.68 182.30 722.96 185.72 720.11 184.04 C 718.36 181.93 719.38 179.25 720.26 177.02 Z" />
<path fill="#030303" d=" M 516.74 184.54 C 516.41 182.21 514.99 178.52 517.95 177.39 C 521.37 176.86 521.89 182.06 519.92 183.93 C 519.12 184.09 517.53 184.39 516.74 184.54 Z" />
<path fill="#030303" d=" M 689.89 177.33 C 691.20 177.69 693.31 177.16 693.83 178.89 C 694.07 180.76 694.59 183.78 692.21 184.46 C 688.32 184.66 689.40 179.70 689.89 177.33 Z" />
<path fill="#030303" d=" M 710.19 177.75 C 710.97 177.61 712.51 177.33 713.29 177.19 C 713.26 179.29 712.49 180.91 710.30 181.13 C 710.27 180.28 710.22 178.59 710.19 177.75 Z" />
<path fill="#030303" d=" M 641.34 183.72 C 640.83 181.69 643.51 181.59 644.72 180.74 C 644.74 181.61 644.79 183.36 644.81 184.24 C 643.63 184.21 642.35 184.47 641.34 183.72 Z" />
<path fill="#838482" d=" M 736.38 183.52 C 738.26 182.35 737.78 184.80 738.02 185.95 C 737.47 185.96 736.39 186.00 735.85 186.01 C 735.95 185.22 734.93 183.48 736.38 183.52 Z" />
<path fill="#030303" d=" M 709.31 188.52 C 708.26 185.46 712.14 186.06 713.97 185.97 C 713.90 186.66 713.76 188.04 713.68 188.73 C 712.21 188.68 710.75 188.67 709.31 188.52 Z" />
<path fill="#838482" d=" M 517.33 197.25 C 518.02 197.11 519.41 196.84 520.10 196.70 C 520.06 198.02 520.03 199.33 520.00 200.65 C 521.34 200.57 522.69 200.56 524.04 200.62 C 526.64 203.19 527.02 208.53 523.75 210.64 C 521.56 210.94 519.35 210.75 517.16 210.81 C 517.20 206.29 516.88 201.76 517.33 197.25 Z" />
<path fill="#838482" d=" M 528.96 197.42 C 530.24 196.32 531.89 198.54 530.55 199.50 C 529.25 200.59 527.59 198.37 528.96 197.42 Z" />
<path fill="#838482" d=" M 561.28 197.55 C 562.90 197.04 563.46 197.60 562.94 199.24 C 561.30 199.75 560.75 199.19 561.28 197.55 Z" />
<path fill="#838482" d=" M 569.11 199.64 C 568.29 197.96 570.92 196.22 572.35 197.18 C 572.76 198.64 570.43 200.40 569.11 199.64 Z" />
<path fill="#838482" d=" M 504.44 198.00 C 505.18 198.00 506.65 198.00 507.39 198.00 C 507.39 201.19 507.22 204.40 507.65 207.57 C 508.86 207.91 510.13 207.84 511.39 207.88 C 511.48 204.58 511.50 201.29 511.51 198.00 C 512.25 198.00 513.72 198.00 514.45 198.00 C 514.38 201.58 514.81 205.25 513.92 208.77 C 511.91 211.73 507.07 211.73 504.98 208.86 C 504.11 205.31 504.49 201.61 504.44 198.00 Z" />
<path fill="#838482" d=" M 535.44 200.65 C 537.19 200.31 538.99 200.57 540.76 200.64 C 540.63 203.19 538.32 203.22 536.29 203.32 C 536.20 204.83 536.12 206.34 536.06 207.86 C 537.67 208.12 539.28 208.36 540.90 208.63 C 540.66 204.76 544.10 203.76 547.24 203.44 C 545.63 203.14 544.01 202.92 542.44 202.51 C 541.77 200.14 545.42 200.34 546.93 200.46 C 549.59 200.79 549.82 203.95 549.80 206.07 C 549.62 207.93 550.37 210.69 548.03 211.52 C 547.48 209.49 546.78 207.51 546.20 205.50 C 545.46 206.01 544.71 206.53 544.01 207.10 C 544.85 208.30 545.83 209.40 546.71 210.57 C 544.45 211.35 542.39 210.45 540.64 209.05 C 540.25 209.61 539.47 210.71 539.08 211.27 C 537.06 210.75 534.20 210.90 533.32 208.53 C 532.44 205.89 532.50 201.98 535.44 200.65 Z" />
<path fill="#838482" d=" M 552.18 208.75 C 550.67 205.69 551.69 200.13 555.95 200.38 C 557.84 199.92 559.05 201.07 559.65 202.74 C 558.02 202.92 556.39 203.08 554.77 203.24 C 554.83 204.91 554.94 206.59 555.10 208.27 C 556.29 208.30 558.66 208.35 559.84 208.38 C 558.81 212.00 553.64 211.66 552.18 208.75 Z" />
<path fill="#838482" d=" M 576.94 200.72 C 579.35 200.52 581.82 200.28 584.22 200.73 C 586.56 203.55 585.44 207.55 585.69 210.91 C 584.66 210.89 583.64 210.87 582.62 210.85 C 582.59 208.37 582.73 205.87 582.34 203.42 C 581.79 203.24 580.69 202.88 580.15 202.70 C 579.98 205.47 579.89 208.24 579.80 211.02 C 578.76 210.92 577.74 210.82 576.72 210.72 C 576.79 207.39 576.61 204.04 576.94 200.72 Z" />
<path fill="#838482" d=" M 528.35 200.05 C 529.03 200.23 530.37 200.59 531.05 200.77 C 531.38 204.25 531.19 207.76 531.15 211.26 C 530.48 211.13 529.14 210.86 528.47 210.73 C 528.00 207.19 528.24 203.60 528.35 200.05 Z" />
<path fill="#838482" d=" M 560.82 200.73 C 561.51 200.57 562.90 200.26 563.59 200.10 C 563.67 203.62 563.92 207.17 563.46 210.67 C 562.78 210.84 561.44 211.16 560.77 211.33 C 560.69 207.79 560.49 204.25 560.82 200.73 Z" />
<path fill="#838482" d=" M 567.23 201.05 C 570.40 198.25 575.20 202.21 574.47 205.98 C 574.77 209.18 571.30 212.06 568.27 210.70 C 564.50 209.19 564.17 203.42 567.23 201.05 Z" />
<path fill="#030303" d=" M 520.26 203.17 C 523.45 201.84 522.98 206.12 522.61 208.00 C 519.45 209.47 519.97 205.06 520.26 203.17 Z" />
<path fill="#030303" d=" M 570.06 209.18 C 568.34 207.65 566.94 203.59 570.04 202.86 C 572.66 203.95 571.04 207.39 570.06 209.18 Z" />
<path fill="#838482" d=" M 545.34 222.99 C 546.38 221.36 548.67 223.36 547.53 224.74 C 546.50 226.38 544.22 224.35 545.34 222.99 Z" />
<path fill="#838482" d=" M 522.25 226.68 C 522.88 225.88 523.52 225.10 524.16 224.30 C 525.40 225.17 526.69 225.99 528.00 226.78 C 527.07 227.12 526.14 227.46 525.23 227.81 C 525.57 230.68 523.80 235.15 528.12 235.75 C 526.66 236.07 525.20 236.35 523.74 236.58 C 523.46 233.98 523.32 231.37 523.27 228.76 C 522.93 228.06 522.59 227.37 522.25 226.68 Z" />
<path fill="#838482" d=" M 512.73 225.54 C 514.61 226.01 515.73 227.59 516.88 229.02 C 518.01 227.53 519.26 226.08 521.12 225.51 C 520.21 227.38 519.21 229.21 518.19 231.03 C 519.23 233.02 520.23 235.04 521.01 237.15 C 519.22 236.25 517.98 234.67 516.88 233.05 C 515.65 233.88 514.62 238.24 513.02 236.01 C 513.78 234.30 514.79 232.72 515.74 231.11 C 514.68 229.28 513.63 227.44 512.73 225.54 Z" />
<path fill="#838482" d=" M 529.92 235.12 C 527.20 232.31 528.57 225.77 533.06 225.97 C 535.84 226.08 536.64 229.01 536.77 231.29 C 534.55 231.35 532.33 231.41 530.12 231.53 C 530.85 235.04 534.19 234.79 537.02 235.00 C 535.04 236.59 531.73 237.38 529.92 235.12 Z" />
<path fill="#838482" d=" M 540.03 237.07 C 537.16 234.37 539.16 229.73 538.70 226.23 C 540.70 226.27 542.71 226.23 544.73 226.28 C 543.61 227.28 542.29 228.02 540.98 228.72 C 540.64 231.50 540.59 234.32 540.03 237.07 Z" />
<path fill="#838482" d=" M 545.53 226.02 C 545.97 226.07 546.84 226.17 547.27 226.22 C 547.54 229.57 547.37 232.95 547.35 236.31 C 546.89 236.38 545.96 236.50 545.50 236.57 C 545.42 233.05 545.24 229.53 545.53 226.02 Z" />
<path fill="#838482" d=" M 551.40 226.53 C 555.39 224.11 559.12 229.41 557.66 233.06 C 557.23 236.00 553.63 237.53 551.19 235.95 C 548.35 233.72 548.27 228.52 551.40 226.53 Z" />
<path fill="#838482" d=" M 559.83 226.30 C 561.63 226.34 563.43 226.24 565.23 226.08 C 565.31 226.40 565.48 227.05 565.57 227.38 C 564.38 227.82 563.22 228.27 562.05 228.73 C 561.96 231.41 561.97 234.11 561.59 236.77 C 561.19 236.61 560.41 236.28 560.02 236.12 C 559.66 232.86 559.84 229.57 559.83 226.30 Z" />
<path fill="#838482" d=" M 505.48 226.32 C 506.24 226.90 507.00 227.49 507.76 228.10 L 505.46 228.98 C 506.91 229.32 508.36 229.64 509.83 229.97 L 509.63 229.35 C 509.18 228.17 508.75 226.99 508.35 225.81 C 511.31 226.26 511.77 228.96 512.03 231.31 C 509.83 231.36 507.64 231.41 505.46 231.51 C 506.18 234.94 509.34 234.91 512.18 234.93 C 510.17 237.01 506.02 237.29 504.63 234.38 C 503.03 231.81 504.28 228.77 505.48 226.32 Z" />
<path fill="#030303" d=" M 530.55 229.71 C 531.39 227.17 533.75 227.84 535.18 229.34 C 533.64 229.49 532.09 229.62 530.55 229.71 Z" />
<path fill="#030303" d=" M 551.97 228.02 C 557.47 225.54 557.27 237.15 552.00 234.43 C 550.64 232.54 550.77 229.94 551.97 228.02 Z" />
<path fill="#838482" d=" M 576.84 247.81 C 578.82 246.41 580.17 248.15 580.33 250.13 C 578.56 249.98 575.77 250.56 576.84 247.81 Z" />
<path fill="#838482" d=" M 608.97 247.15 C 609.65 247.21 610.99 247.35 611.66 247.41 C 611.72 251.95 611.71 256.50 611.73 261.04 C 608.96 260.65 604.72 262.38 603.33 259.03 C 602.49 256.36 602.48 252.75 605.01 250.96 C 606.33 250.87 607.65 251.18 608.96 251.40 C 608.95 249.97 608.96 248.56 608.97 247.15 Z" />
<path fill="#838482" d=" M 507.38 248.55 C 510.50 247.14 514.83 248.88 515.41 252.44 C 516.04 255.27 515.69 259.31 512.69 260.69 C 510.13 261.67 506.52 261.54 504.98 258.90 C 503.10 255.61 503.49 250.17 507.38 248.55 Z" />
<path fill="#838482" d=" M 587.11 250.66 C 587.28 248.67 587.73 246.79 590.19 246.96 C 590.28 251.67 590.24 256.38 590.25 261.10 C 587.47 260.68 583.13 262.34 581.86 258.90 C 581.22 256.42 581.02 253.21 583.15 251.37 C 584.45 251.06 585.77 250.82 587.11 250.66 Z" />
<path fill="#838482" d=" M 517.31 251.79 C 518.22 250.59 519.12 249.37 520.09 248.21 C 520.46 248.83 521.19 250.07 521.56 250.69 C 522.27 250.90 523.69 251.34 524.41 251.55 C 523.30 252.34 522.17 253.11 521.05 253.87 C 521.07 255.31 521.11 256.75 521.15 258.20 C 523.23 258.35 523.98 259.34 523.41 261.18 C 521.84 261.07 519.87 261.59 518.77 260.14 C 518.06 257.40 517.92 254.55 517.31 251.79 Z" />
<path fill="#030303" d=" M 508.18 251.13 C 512.80 249.18 513.95 256.23 511.02 258.46 C 506.64 259.82 506.26 253.57 508.18 251.13 Z" />
<path fill="#838482" d=" M 525.68 250.97 C 527.94 251.21 530.20 251.14 532.47 251.05 C 531.80 252.82 530.24 253.87 528.93 255.12 C 528.57 257.04 528.69 259.02 528.65 260.97 C 527.91 261.03 526.43 261.16 525.69 261.22 C 525.68 257.80 525.68 254.38 525.68 250.97 Z" />
<path fill="#838482" d=" M 535.21 251.26 C 539.44 249.03 543.63 253.97 541.82 258.01 C 541.13 261.97 534.65 262.39 533.33 258.66 C 532.47 256.22 532.58 252.57 535.21 251.26 Z" />
<path fill="#838482" d=" M 543.99 251.73 C 546.11 251.15 551.61 249.34 550.61 253.27 C 549.64 253.32 547.71 253.43 546.74 253.49 C 548.24 254.59 549.93 255.52 551.11 257.01 C 552.71 261.68 543.55 263.25 543.56 258.55 C 545.23 258.61 546.90 258.66 548.58 258.71 C 547.08 257.45 545.53 256.26 544.00 255.06 C 544.00 254.23 543.99 252.56 543.99 251.73 Z" />
<path fill="#838482" d=" M 559.13 251.09 C 561.28 250.55 564.12 250.50 564.83 253.20 C 563.36 253.31 561.90 253.40 560.45 253.49 C 560.23 254.12 559.79 255.38 559.57 256.01 C 559.80 256.67 560.26 257.97 560.50 258.63 C 561.95 258.63 563.42 258.64 564.89 258.67 C 563.89 262.33 558.25 261.96 557.12 258.64 C 556.40 256.06 556.40 252.51 559.13 251.09 Z" />
<path fill="#838482" d=" M 565.64 250.85 C 566.40 250.89 567.92 250.98 568.68 251.02 C 568.70 253.65 568.64 256.32 569.20 258.91 C 572.79 258.41 571.02 253.42 571.57 250.90 C 572.31 250.90 573.80 250.91 574.54 250.91 C 574.54 254.37 574.54 257.84 574.52 261.30 C 573.80 261.16 572.35 260.88 571.62 260.74 C 569.77 260.86 567.25 261.87 566.14 259.78 C 565.38 256.87 565.69 253.82 565.64 250.85 Z" />
<path fill="#838482" d=" M 576.78 261.09 C 576.78 257.68 576.78 254.28 576.80 250.87 C 577.58 250.87 579.14 250.87 579.92 250.87 C 579.92 254.29 579.92 257.71 579.92 261.14 C 579.14 261.13 577.56 261.10 576.78 261.09 Z" />
<path fill="#838482" d=" M 593.05 253.08 C 594.25 250.25 598.75 249.91 600.42 252.39 C 601.60 255.34 601.12 258.59 600.55 261.63 C 599.97 261.36 598.82 260.84 598.24 260.57 C 596.85 260.79 595.45 261.22 594.05 261.04 C 592.15 260.06 592.39 257.69 592.68 255.92 C 594.31 254.62 596.42 254.19 598.34 253.47 C 596.57 253.36 594.80 253.23 593.05 253.08 Z" />
<path fill="#838482" d=" M 616.23 251.29 C 620.48 249.00 624.64 253.87 623.00 257.93 C 622.21 262.03 615.54 262.43 614.32 258.44 C 613.55 256.05 613.73 252.58 616.23 251.29 Z" />
<path fill="#838482" d=" M 624.58 254.78 C 624.50 250.40 631.05 249.16 632.62 253.10 C 630.97 253.25 629.32 253.38 627.68 253.51 C 629.12 254.46 630.56 255.39 632.02 256.32 C 632.06 257.64 632.10 258.96 632.14 260.28 C 629.57 260.97 625.11 262.59 624.48 258.68 C 626.26 258.63 628.06 258.61 629.86 258.56 C 628.11 257.28 626.33 256.04 624.58 254.78 Z" />
<path fill="#030303" d=" M 536.11 253.56 C 536.78 253.51 538.13 253.42 538.81 253.37 C 538.81 255.10 538.88 256.85 538.64 258.58 C 535.39 259.63 536.04 255.51 536.11 253.56 Z" />
<path fill="#030303" d=" M 585.32 253.16 C 588.05 253.27 588.16 256.95 586.74 258.58 C 583.83 259.49 584.12 254.80 585.32 253.16 Z" />
<path fill="#030303" d=" M 606.13 253.52 C 606.78 253.51 608.09 253.49 608.74 253.48 C 608.75 255.19 608.76 256.90 608.75 258.61 C 608.09 258.59 606.77 258.55 606.11 258.52 C 606.10 256.85 606.11 255.19 606.13 253.52 Z" />
<path fill="#030303" d=" M 617.24 253.60 C 617.90 253.55 619.24 253.45 619.90 253.40 C 619.93 255.13 619.94 256.86 619.94 258.59 C 619.27 258.56 617.92 258.50 617.25 258.47 C 617.22 256.85 617.22 255.22 617.24 253.60 Z" />
<path fill="#030303" d=" M 594.90 258.38 C 595.67 257.25 596.61 256.27 597.79 255.55 C 597.75 256.33 597.68 257.89 597.64 258.67 C 596.96 258.60 595.59 258.46 594.90 258.38 Z" />
</svg>
