<?xml version="1.0" encoding="UTF-8" ?>
<!DOCTYPE svg PUBLIC "-//W3C//DTD SVG 1.1//EN" "http://www.w3.org/Graphics/SVG/1.1/DTD/svg11.dtd">
<svg width="439pt" height="331pt" viewBox="0 0 439 331" version="1.1" xmlns="http://www.w3.org/2000/svg">
<path fill="#434242" d=" M 0.00 0.00 L 0.27 0.00 C 0.20 0.07 0.07 0.21 0.00 0.28 L 0.00 0.00 Z" />
<path fill="#c8c9c8" d=" M 0.27 0.00 L 438.60 0.00 C 438.70 0.05 438.90 0.15 439.00 0.19 L 439.00 328.11 C 437.36 328.50 436.10 329.65 435.17 331.00 L 3.79 331.00 C 2.88 329.64 1.64 328.47 0.00 328.11 L 0.00 0.28 C 0.07 0.21 0.20 0.07 0.27 0.00 Z" />
<path fill="#434242" d=" M 438.60 0.00 L 439.00 0.00 L 439.00 0.19 C 438.90 0.15 438.70 0.05 438.60 0.00 Z" />
<path fill="#434242" d=" M 2.04 5.93 C 1.63 3.10 4.31 0.85 6.93 0.65 C 10.96 0.14 15.00 0.76 19.04 0.82 C 34.01 0.33 48.99 0.52 63.95 0.90 C 79.95 -0.02 95.99 1.07 112.00 0.40 C 121.66 1.19 131.32 0.23 140.99 0.55 C 147.99 0.85 155.01 0.31 162.01 0.75 C 168.01 1.60 174.01 0.14 180.04 0.65 C 231.71 0.47 283.36 0.81 335.03 0.54 C 342.66 0.23 350.30 1.22 357.92 0.60 C 362.62 0.16 367.28 1.21 371.99 1.06 C 391.99 0.89 412.01 1.41 431.99 0.67 C 434.06 0.60 435.92 2.17 436.79 3.96 C 437.03 5.63 436.98 7.33 437.00 9.02 C 436.96 89.38 437.01 169.74 436.99 250.10 C 292.00 250.16 147.01 250.15 2.02 250.10 C 1.99 168.71 2.00 87.32 2.04 5.93 Z" />
<path fill="#c8c9c8" d=" M 39.03 20.05 C 41.50 18.97 44.10 20.34 45.18 22.65 C 51.35 33.22 57.53 43.79 63.58 54.42 C 65.49 57.21 63.64 61.91 60.04 61.79 C 48.36 61.97 36.68 61.77 25.00 61.88 C 22.85 61.74 20.24 62.30 18.62 60.50 C 16.74 58.63 17.24 55.62 18.56 53.58 C 24.41 43.45 30.32 33.34 36.17 23.20 C 36.92 22.01 37.66 20.64 39.03 20.05 Z" />
<path fill="#c8c9c8" d=" M 83.52 28.62 C 86.07 26.25 89.93 26.85 93.08 27.21 C 94.84 27.39 95.60 28.58 95.01 30.33 C 92.33 30.90 89.61 29.53 86.91 30.13 C 85.11 31.00 84.20 33.64 85.78 35.13 C 88.50 37.91 93.46 37.88 95.29 41.68 C 97.41 45.47 94.33 50.58 90.14 50.96 C 87.73 51.12 85.27 51.22 82.89 50.73 C 81.24 50.33 81.40 48.36 80.98 47.09 C 83.96 47.57 86.98 48.41 90.01 47.87 C 92.49 47.41 92.97 44.07 91.57 42.31 C 88.57 39.91 83.67 39.68 82.22 35.60 C 81.71 33.28 81.46 30.30 83.52 28.62 Z" />
<path fill="#c8c9c8" d=" M 160.45 26.97 C 161.43 26.96 163.40 26.95 164.38 26.95 C 163.94 32.59 164.07 38.25 163.81 43.90 C 163.11 43.92 161.71 43.96 161.01 43.98 C 161.06 38.30 160.82 32.63 160.45 26.97 Z" />
<path fill="#434242" d=" M 39.27 31.45 C 40.39 31.46 41.50 31.47 42.62 31.49 C 43.01 35.86 43.30 40.33 42.69 44.68 C 41.77 46.03 40.29 45.44 39.06 44.99 C 39.07 40.47 38.84 35.95 39.27 31.45 Z" />
<path fill="#c8c9c8" d=" M 103.28 33.31 C 106.97 32.09 111.73 33.07 113.40 36.95 C 115.20 41.33 114.92 47.72 110.36 50.33 C 106.70 52.12 101.52 51.12 99.68 47.17 C 97.74 42.59 98.17 35.66 103.28 33.31 Z" />
<path fill="#c8c9c8" d=" M 118.73 33.09 C 119.40 33.03 120.75 32.89 121.43 32.82 C 121.45 33.83 121.45 34.84 121.42 35.86 C 123.14 33.24 126.11 32.51 129.06 33.02 C 128.60 34.09 128.95 36.19 127.12 35.91 C 125.06 35.98 122.87 36.81 122.25 38.98 C 121.75 42.96 122.11 47.00 122.01 51.01 C 121.17 51.01 119.48 51.01 118.64 51.01 C 118.63 45.04 118.37 39.06 118.73 33.09 Z" />
<path fill="#c8c9c8" d=" M 131.70 33.10 C 132.39 33.03 133.77 32.88 134.46 32.81 C 134.43 33.52 134.36 34.94 134.33 35.65 C 137.04 32.35 141.83 32.41 145.52 33.41 C 147.44 38.11 148.95 42.98 150.47 47.83 C 151.00 42.74 153.52 38.17 154.39 33.15 C 155.66 33.04 156.93 32.95 158.21 32.90 C 156.12 39.52 153.71 46.02 151.49 52.59 C 150.81 54.42 150.20 56.38 148.80 57.81 C 147.08 59.70 144.34 58.83 142.11 59.00 C 142.14 58.34 142.20 57.02 142.23 56.36 C 145.68 56.85 148.53 54.70 148.38 51.07 C 146.84 45.58 144.38 40.40 142.70 34.95 C 140.03 36.07 136.16 35.71 135.23 39.15 C 134.77 43.08 135.10 47.06 135.01 51.01 C 134.16 51.01 132.47 51.02 131.62 51.02 C 131.58 45.05 131.38 39.06 131.70 33.10 Z" />
<path fill="#434242" d=" M 104.20 36.12 C 106.33 35.54 109.36 35.42 110.25 37.95 C 111.39 40.69 111.47 44.25 109.81 46.81 C 108.71 48.74 106.03 48.22 104.22 47.84 C 101.07 44.96 101.10 39.05 104.20 36.12 Z" />
<path fill="#c8c9c8" d=" M 160.80 51.13 C 159.92 49.46 159.59 46.60 162.01 46.17 C 164.83 45.85 165.14 49.14 164.14 51.01 C 163.30 51.04 161.63 51.10 160.80 51.13 Z" />
<path fill="#434242" d=" M 38.24 49.25 C 39.90 48.94 42.05 48.14 43.23 49.87 C 44.97 52.01 42.81 55.87 39.98 54.66 C 37.38 54.15 38.13 51.16 38.24 49.25 Z" />
<path fill="#c8c9c8" d=" M 46.99 101.97 C 47.74 101.98 49.25 101.99 50.00 102.00 C 50.01 104.30 50.03 106.61 50.01 108.92 C 52.75 107.72 57.08 106.97 58.53 110.39 C 59.56 114.50 58.83 118.82 59.00 123.02 C 58.24 123.02 56.71 123.03 55.94 123.04 C 55.87 119.11 56.23 115.15 55.74 111.24 C 54.60 110.01 52.88 110.35 51.39 110.31 C 49.14 114.19 50.33 118.82 50.06 123.06 C 49.28 123.06 47.73 123.06 46.95 123.06 C 46.91 116.03 47.04 109.00 46.99 101.97 Z" />
<path fill="#c8c9c8" d=" M 129.99 102.00 C 130.75 101.99 132.25 101.99 133.01 101.99 C 133.00 109.00 132.98 116.01 133.04 123.02 C 132.28 123.02 130.76 123.03 130.00 123.03 C 130.00 116.02 130.00 109.01 129.99 102.00 Z" />
<path fill="#c8c9c8" d=" M 137.07 102.01 C 137.80 102.01 139.26 102.00 139.99 102.00 C 140.00 102.76 140.01 104.28 140.02 105.04 C 139.25 105.04 137.72 105.02 136.95 105.02 C 136.98 104.27 137.04 102.77 137.07 102.01 Z" />
<path fill="#c8c9c8" d=" M 180.05 101.98 C 180.79 101.99 182.27 102.02 183.01 102.03 C 183.00 102.79 182.98 104.31 182.97 105.07 C 182.23 105.05 180.74 105.02 180.00 105.00 C 180.01 104.24 180.04 102.73 180.05 101.98 Z" />
<path fill="#c8c9c8" d=" M 264.01 102.03 C 264.75 102.02 266.22 102.01 266.95 102.00 C 266.98 102.74 267.03 104.21 267.05 104.95 C 266.29 104.99 264.77 105.05 264.01 105.08 C 264.01 104.32 264.01 102.79 264.01 102.03 Z" />
<path fill="#c8c9c8" d=" M 284.02 102.04 C 284.75 102.02 286.21 101.98 286.94 101.96 C 286.96 102.73 287.00 104.28 287.02 105.05 C 286.26 105.04 284.74 105.00 283.99 104.99 C 284.00 104.25 284.02 102.77 284.02 102.04 Z" />
<path fill="#c8c9c8" d=" M 300.06 101.98 C 300.79 102.00 302.26 102.02 302.99 102.03 C 302.99 102.78 303.00 104.28 303.00 105.03 C 302.24 105.02 300.72 104.99 299.96 104.98 C 299.98 104.23 300.03 102.73 300.06 101.98 Z" />
<path fill="#c8c9c8" d=" M 30.76 103.00 C 35.55 102.98 40.34 103.00 45.13 102.98 C 45.03 103.63 44.84 104.91 44.75 105.55 C 43.02 105.52 41.30 105.50 39.57 105.49 C 39.49 111.27 39.44 117.06 39.69 122.84 C 38.91 122.92 37.34 123.09 36.56 123.17 C 36.46 117.26 36.52 111.35 36.59 105.45 C 34.39 105.11 30.28 106.60 30.76 103.00 Z" />
<path fill="#c8c9c8" d=" M 230.93 102.87 C 231.62 102.92 233.00 103.02 233.69 103.07 C 235.68 109.86 238.73 116.32 240.44 123.21 C 239.67 123.10 238.13 122.90 237.35 122.79 C 236.83 120.87 236.27 118.96 235.72 117.05 C 233.45 117.04 231.19 117.03 228.93 117.00 C 228.17 118.98 227.47 120.98 226.80 122.99 C 226.04 123.00 224.51 123.02 223.75 123.03 C 226.11 116.30 228.46 109.56 230.93 102.87 Z" />
<path fill="#c8c9c8" d=" M 171.32 107.34 C 171.76 105.87 172.15 104.26 174.01 104.17 C 174.01 105.11 174.03 107.01 174.04 107.95 C 175.43 107.98 176.82 108.01 178.22 108.05 C 178.19 110.51 175.69 109.92 174.00 110.16 C 173.99 113.62 174.02 117.08 174.28 120.53 C 175.09 120.64 176.71 120.85 177.52 120.96 C 179.16 123.91 174.73 123.05 173.11 122.97 C 169.61 119.75 171.85 114.52 170.90 110.42 C 170.38 110.15 169.33 109.61 168.80 109.34 C 169.64 108.67 170.48 108.01 171.32 107.34 Z" />
<path fill="#c8c9c8" d=" M 255.35 107.37 C 255.76 105.85 256.14 104.26 258.02 104.13 C 258.02 105.09 258.02 107.02 258.02 107.98 C 259.40 107.99 260.77 108.00 262.16 108.02 C 262.27 110.56 259.72 109.93 258.03 110.13 C 258.09 113.35 257.78 116.60 258.28 119.78 C 258.96 121.25 261.05 120.58 262.31 121.01 C 262.30 123.89 259.02 123.03 257.12 122.93 C 252.68 119.37 257.62 112.37 253.19 108.92 C 253.73 108.53 254.81 107.76 255.35 107.37 Z" />
<path fill="#c8c9c8" d=" M 291.34 107.37 C 291.75 105.87 292.17 104.32 293.99 104.12 C 294.00 105.08 294.02 106.99 294.02 107.95 C 295.42 107.98 296.82 108.01 298.23 108.05 C 298.16 110.48 295.71 109.94 294.02 110.14 C 294.07 113.37 293.84 116.62 294.24 119.83 C 295.19 121.05 296.90 120.82 298.27 120.97 C 298.33 123.98 294.98 122.98 293.03 122.92 C 289.50 119.76 292.16 114.46 290.67 110.65 C 288.49 109.31 289.71 108.21 291.34 107.37 Z" />
<path fill="#434242" d=" M 229.50 114.51 C 230.55 111.80 231.58 109.09 232.36 106.29 C 232.88 109.14 233.73 111.91 234.77 114.61 C 233.02 114.56 231.26 114.53 229.50 114.51 Z" />
<path fill="#c8c9c8" d=" M 63.91 109.98 C 66.24 106.60 72.23 107.38 73.73 111.18 C 74.17 112.75 74.15 114.40 74.31 116.01 C 71.18 116.01 68.04 116.03 64.91 116.05 C 65.32 117.35 65.76 118.65 66.18 119.95 C 68.80 120.73 71.51 120.43 74.16 119.97 C 73.88 124.02 69.01 123.27 66.23 122.73 C 61.56 120.52 61.10 113.83 63.91 109.98 Z" />
<path fill="#c8c9c8" d=" M 84.48 109.01 C 86.60 107.31 89.52 108.20 92.02 107.94 C 96.12 111.88 93.88 118.25 94.31 123.31 C 92.91 123.23 91.95 122.56 91.45 121.30 C 90.93 121.89 90.42 122.47 89.91 123.06 C 87.97 122.76 85.38 123.76 84.06 121.86 C 81.95 119.56 82.83 115.20 85.92 114.24 C 87.91 113.81 89.97 113.91 92.00 113.78 C 91.52 112.31 91.25 109.86 89.05 110.24 C 87.47 110.17 83.52 112.30 84.48 109.01 Z" />
<path fill="#c8c9c8" d=" M 98.00 107.78 C 101.47 107.30 100.61 111.72 101.03 113.96 C 100.68 116.69 101.03 121.64 105.02 120.73 C 108.30 119.56 107.83 115.17 107.30 112.44 C 106.62 109.54 102.43 111.26 101.60 108.57 C 104.09 107.65 107.57 107.33 109.13 109.98 C 111.08 113.23 111.00 117.70 109.18 120.99 C 107.45 123.90 103.62 123.27 100.99 122.17 C 101.01 124.78 101.02 127.40 101.00 130.02 C 100.25 130.01 98.75 130.01 98.00 130.01 C 98.00 122.60 98.00 115.19 98.00 107.78 Z" />
<path fill="#c8c9c8" d=" M 113.99 107.98 C 114.58 107.98 115.75 107.98 116.34 107.98 C 116.88 111.34 117.19 114.69 117.11 118.11 C 117.40 120.75 121.12 121.79 122.68 119.61 C 124.07 117.43 123.87 114.44 123.13 112.07 C 122.17 109.57 118.39 111.17 117.59 108.56 C 119.85 107.87 122.92 107.23 124.64 109.36 C 127.13 112.41 126.97 117.01 125.50 120.48 C 123.95 123.77 119.77 123.47 116.98 122.14 C 117.02 124.76 117.01 127.39 117.00 130.02 C 116.25 130.01 114.75 130.01 114.00 130.01 C 113.99 122.66 114.01 115.32 113.99 107.98 Z" />
<path fill="#c8c9c8" d=" M 136.99 107.99 C 137.75 107.99 139.25 108.00 140.01 108.00 C 140.07 113.01 140.01 118.01 140.03 123.02 C 139.27 123.02 137.73 123.03 136.96 123.03 C 137.01 118.01 136.99 113.00 136.99 107.99 Z" />
<path fill="#c8c9c8" d=" M 147.08 108.16 C 149.33 107.65 151.64 108.06 153.90 108.25 C 153.70 108.89 153.30 110.17 153.10 110.81 C 151.00 110.58 148.12 109.70 146.85 112.06 C 145.76 114.37 145.65 117.54 147.32 119.61 C 148.93 121.55 151.60 120.08 153.64 119.96 C 154.39 123.95 149.59 123.30 147.13 122.86 C 141.65 120.19 141.79 110.91 147.08 108.16 Z" />
<path fill="#c8c9c8" d=" M 157.55 111.14 C 156.70 109.52 158.36 107.95 159.87 108.01 C 162.28 107.92 165.65 107.34 166.88 110.03 C 167.90 114.40 167.35 118.94 167.35 123.38 C 166.03 123.18 164.97 122.57 164.40 121.36 C 161.89 125.14 154.75 122.84 155.93 117.97 C 156.44 113.48 161.71 113.86 165.04 113.73 C 164.54 112.47 164.42 110.77 162.89 110.28 C 161.07 110.09 159.31 110.80 157.55 111.14 Z" />
<path fill="#c8c9c8" d=" M 179.99 107.98 C 180.74 107.99 182.25 107.99 183.01 107.99 C 183.00 112.99 183.00 118.00 183.01 123.00 C 182.25 123.01 180.75 123.03 179.99 123.04 C 180.00 118.02 180.00 113.00 179.99 107.98 Z" />
<path fill="#c8c9c8" d=" M 190.94 108.05 C 193.91 107.34 197.34 108.37 198.57 111.38 C 199.72 115.17 199.70 120.63 195.65 122.71 C 193.11 123.43 189.74 123.45 188.03 121.06 C 184.89 117.18 185.58 109.57 190.94 108.05 Z" />
<path fill="#c8c9c8" d=" M 202.97 107.84 C 206.69 109.75 212.31 105.63 214.52 110.42 C 215.56 114.51 214.78 118.83 215.00 123.01 C 214.25 123.01 212.74 123.01 211.99 123.00 C 211.89 119.09 212.27 115.14 211.75 111.24 C 210.04 109.20 206.48 110.40 206.15 112.94 C 205.85 116.29 206.05 119.66 206.01 123.01 C 205.26 123.01 203.75 123.00 202.99 123.00 C 202.99 117.95 203.01 112.89 202.97 107.84 Z" />
<path fill="#c8c9c8" d=" M 241.77 112.08 C 242.70 108.02 248.07 106.88 251.34 108.62 C 251.34 109.21 251.33 110.38 251.32 110.97 C 249.34 110.78 246.91 109.65 245.30 111.39 C 243.51 113.81 243.61 117.38 245.32 119.81 C 247.40 121.02 249.86 120.29 252.11 120.21 C 251.90 124.00 247.80 123.16 245.11 122.83 C 241.18 120.98 240.52 115.81 241.77 112.08 Z" />
<path fill="#c8c9c8" d=" M 264.00 108.00 C 264.75 107.99 266.25 107.98 267.00 107.98 C 267.03 113.00 267.05 118.02 267.04 123.04 C 266.28 123.04 264.74 123.04 263.98 123.04 C 263.95 118.02 263.96 113.01 264.00 108.00 Z" />
<path fill="#c8c9c8" d=" M 268.81 107.96 C 269.57 107.97 271.10 107.99 271.86 108.00 C 273.00 112.15 274.31 116.25 275.55 120.36 C 276.46 116.17 277.87 112.11 279.09 108.00 C 279.88 107.99 281.44 107.98 282.22 107.97 C 280.51 113.01 278.87 118.08 277.19 123.14 C 276.35 123.09 274.67 123.00 273.83 122.96 C 271.74 118.13 270.51 112.95 268.81 107.96 Z" />
<path fill="#c8c9c8" d=" M 284.00 107.98 C 284.75 107.99 286.25 107.99 287.00 108.00 C 287.03 113.02 287.04 118.03 287.02 123.05 C 286.25 123.05 284.70 123.03 283.93 123.02 C 283.96 118.01 283.95 113.00 284.00 107.98 Z" />
<path fill="#c8c9c8" d=" M 300.00 107.99 C 300.75 107.99 302.25 107.99 303.01 107.99 C 303.00 112.99 302.99 118.00 303.01 123.00 C 302.25 123.01 300.72 123.03 299.96 123.04 C 299.91 118.02 299.94 113.01 300.00 107.99 Z" />
<path fill="#c8c9c8" d=" M 307.94 109.96 C 310.25 106.61 316.19 107.39 317.70 111.14 C 318.21 112.71 318.16 114.40 318.34 116.03 C 315.16 116.00 311.99 116.00 308.82 116.08 C 309.27 117.30 309.69 118.54 310.29 119.70 C 312.69 121.25 315.60 120.13 318.22 120.04 C 317.80 124.03 312.96 123.28 310.17 122.72 C 305.59 120.45 305.05 113.77 307.94 109.96 Z" />
<path fill="#c8c9c8" d=" M 320.80 114.07 C 318.78 111.76 321.00 107.92 323.90 107.98 C 326.13 107.79 330.81 107.43 329.45 111.07 C 327.46 110.51 325.40 110.26 323.34 110.25 C 323.26 110.90 323.11 112.20 323.04 112.86 C 326.00 114.35 331.19 115.55 330.00 119.97 C 328.94 124.25 323.53 122.93 320.26 122.84 C 320.16 122.08 319.96 120.57 319.85 119.82 C 322.10 120.08 326.51 122.49 327.25 119.05 C 326.67 116.09 322.40 116.38 320.80 114.07 Z" />
<path fill="#434242" d=" M 64.86 113.92 C 65.63 112.46 66.25 110.47 68.13 110.14 C 70.21 109.96 70.93 112.21 71.84 113.64 C 69.52 113.94 67.19 114.00 64.86 113.92 Z" />
<path fill="#434242" d=" M 191.37 110.49 C 193.25 109.50 196.01 110.72 196.04 112.99 C 196.44 115.74 196.85 120.59 192.98 120.83 C 188.22 120.53 187.67 112.61 191.37 110.49 Z" />
<path fill="#434242" d=" M 308.82 113.89 C 309.64 112.16 310.69 109.94 312.99 110.11 C 314.45 110.78 315.02 112.37 315.84 113.64 C 313.51 113.95 311.16 114.00 308.82 113.89 Z" />
<path fill="#434242" d=" M 86.18 117.22 C 87.58 115.67 89.81 115.93 91.68 115.59 C 91.56 117.58 91.36 120.15 89.04 120.77 C 86.83 121.78 85.20 119.12 86.18 117.22 Z" />
<path fill="#434242" d=" M 159.05 118.09 C 159.41 115.56 162.74 116.00 164.62 115.58 C 164.43 117.34 164.59 119.64 162.60 120.45 C 161.01 121.71 158.31 120.15 159.05 118.09 Z" />
<path fill="#c8c9c8" d=" M 34.61 135.52 C 35.23 133.95 36.91 133.83 38.38 133.82 C 33.88 141.22 33.75 150.84 38.40 158.20 C 34.79 158.78 33.68 154.85 32.69 152.23 C 31.15 146.73 31.58 140.45 34.61 135.52 Z" />
<path fill="#c8c9c8" d=" M 40.97 138.94 C 41.56 138.94 42.74 138.94 43.33 138.94 C 44.04 142.49 43.90 146.14 44.38 149.70 C 45.05 152.49 49.05 152.38 50.07 149.92 C 50.84 147.74 50.84 145.20 50.10 143.01 C 49.27 141.07 46.85 141.63 45.32 140.71 C 43.22 138.67 47.96 138.93 49.12 138.97 C 54.35 140.24 54.27 147.47 52.56 151.48 C 50.93 154.75 46.89 154.49 44.02 153.24 C 44.05 155.83 44.03 158.42 44.00 161.02 C 43.25 161.01 41.75 161.01 41.00 161.01 C 40.96 153.65 40.93 146.30 40.97 138.94 Z" />
<path fill="#c8c9c8" d=" M 56.94 138.96 C 57.60 138.95 58.91 138.94 59.57 138.93 C 59.51 139.86 59.45 140.79 59.37 141.73 C 60.64 139.66 62.67 138.28 65.19 138.90 C 66.33 142.32 61.27 140.84 60.45 143.43 C 59.54 146.82 60.19 150.49 60.01 154.00 C 59.25 154.01 57.72 154.04 56.96 154.05 C 56.99 149.02 56.94 143.99 56.94 138.96 Z" />
<path fill="#c8c9c8" d=" M 71.97 139.04 C 73.94 138.84 76.26 138.62 77.82 140.11 C 80.50 142.23 80.35 146.01 79.99 149.07 C 79.63 151.90 77.02 154.37 74.09 154.08 C 66.01 154.91 64.57 140.92 71.97 139.04 Z" />
<path fill="#c8c9c8" d=" M 84.45 141.52 C 86.09 138.44 90.60 138.22 93.34 139.68 C 93.34 140.25 93.33 141.39 93.32 141.96 C 91.39 141.79 88.93 140.59 87.37 142.32 C 85.45 144.67 85.65 148.27 87.34 150.69 C 88.97 152.36 91.55 151.34 93.51 150.99 C 93.45 151.75 93.33 153.27 93.28 154.02 C 90.67 153.78 87.37 154.86 85.37 152.64 C 82.54 149.71 82.56 144.94 84.45 141.52 Z" />
<path fill="#c8c9c8" d=" M 97.94 140.98 C 99.97 138.10 104.97 138.08 106.98 141.00 C 108.45 142.63 107.99 145.00 108.31 147.00 C 105.15 147.01 101.98 147.00 98.82 147.05 C 99.42 148.62 99.69 150.72 101.47 151.45 C 103.62 151.90 105.79 151.21 107.93 151.04 C 108.08 155.10 103.51 154.00 100.89 153.95 C 95.70 152.27 94.89 144.92 97.94 140.98 Z" />
<path fill="#c8c9c8" d=" M 112.34 139.33 C 114.39 138.64 116.71 138.84 118.81 139.24 C 120.43 139.72 119.56 141.04 119.15 142.12 C 117.12 141.41 112.28 139.95 113.11 143.73 C 115.35 145.21 118.27 145.82 119.93 148.07 C 120.12 149.69 120.42 151.78 118.90 152.89 C 116.48 154.92 113.05 153.80 110.19 153.81 C 110.12 153.06 109.96 151.56 109.89 150.81 C 112.18 151.18 116.31 153.40 117.33 150.07 C 116.79 147.57 113.69 147.49 111.98 146.09 C 109.25 144.73 109.61 140.48 112.34 139.33 Z" />
<path fill="#c8c9c8" d=" M 122.20 141.98 C 123.48 137.67 129.02 138.69 132.27 139.85 C 131.95 140.42 131.33 141.55 131.02 142.12 C 129.18 141.46 127.24 141.29 125.31 141.26 C 125.24 141.90 125.11 143.18 125.05 143.82 C 128.03 145.32 133.27 146.59 132.03 151.04 C 131.14 154.58 126.75 154.24 123.92 153.97 C 122.08 154.22 121.91 152.10 121.74 150.85 C 124.05 151.49 126.44 151.84 128.85 151.80 C 130.71 146.24 120.62 147.62 122.20 141.98 Z" />
<path fill="#c8c9c8" d=" M 144.35 139.49 C 146.81 138.76 152.28 137.63 151.46 141.92 C 149.44 141.86 147.11 140.89 145.34 142.34 C 143.75 144.48 143.65 147.68 144.89 150.01 C 146.34 152.58 149.67 151.17 151.97 151.35 C 151.75 155.08 147.34 154.19 144.91 153.78 C 139.91 151.09 139.88 142.71 144.35 139.49 Z" />
<path fill="#c8c9c8" d=" M 158.09 139.15 C 161.30 138.24 165.36 139.06 166.61 142.52 C 167.91 146.42 167.63 152.39 163.02 153.93 C 161.01 154.15 158.54 154.52 156.94 152.98 C 152.80 149.50 153.25 141.79 158.09 139.15 Z" />
<path fill="#c8c9c8" d=" M 170.94 138.80 C 174.57 140.39 178.58 137.74 182.05 140.04 C 184.79 138.75 189.15 137.84 190.79 141.20 C 191.44 145.49 190.98 149.86 191.10 154.18 C 190.47 154.11 189.20 153.97 188.56 153.89 C 187.81 149.57 189.40 144.89 187.19 140.86 C 185.79 141.37 183.79 141.30 183.13 142.94 C 182.39 146.52 182.69 150.20 182.79 153.82 C 182.06 153.90 180.59 154.06 179.86 154.14 C 179.72 150.28 180.20 146.33 179.39 142.53 C 178.16 140.01 174.32 141.53 174.17 143.95 C 173.84 147.31 174.07 150.68 174.05 154.05 C 173.27 154.05 171.72 154.06 170.95 154.07 C 170.92 148.98 170.96 143.89 170.94 138.80 Z" />
<path fill="#434242" d=" M 72.42 141.49 C 74.27 140.47 77.00 141.78 77.04 144.00 C 77.44 146.68 77.84 151.63 74.02 151.80 C 69.24 151.64 68.61 143.55 72.42 141.49 Z" />
<path fill="#434242" d=" M 98.85 144.87 C 99.66 143.46 100.25 141.41 102.13 141.17 C 104.22 140.89 104.94 143.28 105.91 144.65 C 103.57 144.94 101.20 144.98 98.85 144.87 Z" />
<path fill="#434242" d=" M 159.44 141.47 C 164.11 139.68 164.90 145.83 164.01 148.99 C 163.97 152.19 159.06 152.75 157.88 150.02 C 156.62 147.33 156.51 143.10 159.44 141.47 Z" />
<path fill="#c8c9c8" d=" M 194.97 150.22 C 195.77 150.18 197.37 150.09 198.17 150.04 C 198.40 151.38 198.41 152.74 198.19 154.09 C 197.39 154.06 195.80 154.00 195.01 153.97 C 194.98 152.72 194.97 151.47 194.97 150.22 Z" />
<path fill="#c8c9c8" d=" M 62.99 164.00 C 63.74 164.00 65.25 163.99 66.01 163.99 C 66.01 166.27 66.02 168.56 65.99 170.84 C 68.77 169.56 72.85 169.22 74.46 172.43 C 76.20 176.43 76.25 182.54 71.94 184.94 C 69.66 185.40 67.06 185.24 65.60 183.18 C 65.60 184.71 64.34 185.24 62.98 185.27 C 63.01 178.18 63.00 171.09 62.99 164.00 Z" />
<path fill="#c8c9c8" d=" M 78.99 163.99 C 79.75 163.99 81.25 163.99 82.01 163.98 C 82.00 170.99 82.00 178.00 82.01 185.01 C 81.25 185.01 79.75 185.01 78.99 185.02 C 79.00 178.01 79.00 171.00 78.99 163.99 Z" />
<path fill="#c8c9c8" d=" M 217.99 164.02 C 218.75 164.03 220.27 164.03 221.03 164.03 C 221.02 164.78 220.99 166.28 220.98 167.03 C 220.24 167.03 218.77 167.03 218.03 167.02 C 218.02 166.27 218.00 164.77 217.99 164.02 Z" />
<path fill="#c8c9c8" d=" M 255.95 163.91 C 256.72 163.93 258.26 163.95 259.03 163.97 C 259.04 166.32 259.04 168.68 259.01 171.04 C 261.62 169.55 266.14 169.00 267.51 172.38 C 268.57 176.49 267.78 180.83 268.02 185.03 C 267.26 185.03 265.73 185.02 264.97 185.02 C 264.84 181.09 265.39 177.08 264.65 173.21 C 262.96 171.15 259.39 172.30 259.13 174.95 C 258.85 178.29 259.07 181.66 259.03 185.01 C 258.27 185.01 256.75 185.01 255.99 185.01 C 255.98 177.98 256.04 170.94 255.95 163.91 Z" />
<path fill="#c8c9c8" d=" M 396.98 163.92 C 397.72 163.95 399.19 164.02 399.93 164.05 C 399.84 171.11 399.89 178.17 399.89 185.24 C 398.77 184.97 397.66 184.68 396.56 184.39 C 393.94 185.13 390.27 185.92 388.64 183.04 C 386.65 179.48 386.59 174.51 389.24 171.25 C 391.29 169.11 394.61 169.90 397.01 170.97 C 396.97 168.62 396.98 166.27 396.98 163.92 Z" />
<path fill="#c8c9c8" d=" M 239.73 164.82 C 243.62 164.22 244.50 168.59 245.57 171.34 C 246.67 177.14 246.55 183.81 242.64 188.61 C 241.91 188.75 240.44 189.05 239.71 189.19 C 244.41 181.87 244.33 172.16 239.73 164.82 Z" />
<path fill="#c8c9c8" d=" M 158.38 169.35 C 158.87 167.92 159.06 166.08 160.90 165.84 C 160.97 167.21 161.03 168.58 161.06 169.95 C 162.43 169.98 163.81 170.01 165.18 170.05 C 165.32 172.61 162.68 171.89 161.00 172.14 C 161.04 175.08 160.90 178.03 161.12 180.96 C 160.78 183.55 166.47 182.06 164.53 185.00 C 162.76 184.78 160.13 185.83 159.08 183.86 C 156.37 180.01 160.66 173.55 155.88 171.04 C 156.51 170.62 157.75 169.77 158.38 169.35 Z" />
<path fill="#c8c9c8" d=" M 318.22 166.73 C 320.49 164.91 320.01 168.72 320.11 169.96 C 321.48 169.98 322.86 170.01 324.24 170.04 C 324.22 172.52 321.69 171.92 320.00 172.17 C 320.06 175.39 319.84 178.62 320.21 181.82 C 321.13 183.13 322.91 182.84 324.30 183.02 C 324.26 185.91 321.01 184.97 319.11 184.91 C 315.52 181.83 318.15 176.46 316.71 172.66 C 314.38 171.32 315.80 170.26 317.38 169.35 C 317.59 168.69 318.01 167.38 318.22 166.73 Z" />
<path fill="#c8c9c8" d=" M 32.99 170.00 C 33.59 170.00 34.81 170.00 35.41 170.00 C 35.45 170.47 35.52 171.42 35.56 171.90 C 36.43 171.25 37.31 170.60 38.16 169.93 C 40.60 169.74 43.37 170.01 44.52 172.55 C 45.96 176.01 46.12 180.65 43.60 183.67 C 41.71 185.98 38.38 185.10 35.99 184.13 C 36.02 186.77 36.04 189.42 36.06 192.06 C 35.29 192.04 33.76 192.02 32.99 192.00 C 32.93 184.67 33.04 177.33 32.99 170.00 Z" />
<path fill="#c8c9c8" d=" M 49.74 173.00 C 48.13 171.45 50.54 170.01 51.89 170.02 C 54.33 169.89 57.67 169.36 58.91 172.10 C 59.81 176.44 59.31 180.91 59.35 185.32 C 57.89 185.24 56.93 184.54 56.48 183.19 C 56.00 183.81 55.51 184.43 55.02 185.06 C 53.07 184.75 50.45 185.79 49.09 183.95 C 47.10 181.75 47.65 177.71 50.49 176.49 C 52.57 175.69 54.87 175.97 57.06 175.74 C 56.54 174.46 56.37 172.75 54.83 172.24 C 53.10 172.20 51.44 172.79 49.74 173.00 Z" />
<path fill="#c8c9c8" d=" M 89.14 170.21 C 92.30 169.25 96.29 170.12 97.58 173.49 C 98.79 177.40 98.64 183.31 94.05 184.92 C 92.01 185.06 89.49 185.57 87.91 183.93 C 83.87 180.46 84.25 172.74 89.14 170.21 Z" />
<path fill="#c8c9c8" d=" M 101.98 169.83 C 105.59 171.43 109.63 168.69 113.02 171.14 C 115.74 169.73 120.12 168.84 121.81 172.15 C 122.42 176.42 122.06 180.76 122.13 185.06 C 121.40 185.04 119.95 184.99 119.23 184.96 C 119.31 180.73 119.59 176.45 118.74 172.27 C 117.08 172.27 114.73 172.02 114.08 174.03 C 113.39 177.60 113.71 181.26 113.79 184.87 C 113.05 184.93 111.58 185.05 110.85 185.11 C 110.79 181.41 111.11 177.69 110.60 174.01 C 109.91 171.37 106.04 171.86 105.28 174.20 C 104.73 177.77 105.10 181.41 105.01 185.01 C 104.26 185.01 102.74 185.02 101.99 185.03 C 101.99 179.96 102.01 174.89 101.98 169.83 Z" />
<path fill="#c8c9c8" d=" M 129.11 170.25 C 132.28 169.19 136.34 170.15 137.60 173.55 C 138.66 177.30 138.69 182.57 134.73 184.67 C 132.37 185.44 129.23 185.53 127.44 183.50 C 123.96 179.87 124.40 172.66 129.11 170.25 Z" />
<path fill="#c8c9c8" d=" M 141.97 169.86 C 144.64 170.91 147.36 170.03 150.08 169.94 C 152.19 169.87 153.75 171.90 153.89 173.87 C 154.21 177.57 153.95 181.30 154.01 185.01 C 153.25 185.01 151.75 185.01 150.99 185.01 C 150.90 181.09 151.27 177.14 150.74 173.24 C 149.21 171.54 146.05 171.86 145.35 174.22 C 144.64 177.75 145.15 181.42 145.01 185.02 C 144.26 185.02 142.75 185.01 141.99 185.01 C 141.99 179.96 142.02 174.91 141.97 169.86 Z" />
<path fill="#c8c9c8" d=" M 170.08 170.19 C 172.24 169.66 174.85 169.71 176.50 171.43 C 178.40 173.07 178.07 175.77 178.30 178.02 C 175.13 178.00 171.97 178.00 168.80 178.07 C 169.54 179.56 169.70 181.71 171.44 182.41 C 173.59 182.95 175.82 182.19 177.98 182.07 C 178.05 185.97 173.43 185.09 170.92 184.97 C 164.78 183.05 164.61 173.05 170.08 170.19 Z" />
<path fill="#c8c9c8" d=" M 180.26 175.04 C 179.35 172.69 181.45 169.90 183.92 169.98 C 186.20 169.83 190.88 169.37 189.42 173.08 C 187.43 172.55 185.38 172.26 183.32 172.25 C 183.25 172.90 183.11 174.20 183.04 174.86 C 185.24 175.92 187.69 176.70 189.46 178.45 C 191.11 180.72 189.88 184.46 186.96 184.94 C 184.22 185.15 179.44 186.10 179.69 181.90 C 182.05 182.42 184.43 182.85 186.86 182.80 C 188.56 177.85 181.40 178.73 180.26 175.04 Z" />
<path fill="#c8c9c8" d=" M 193.94 171.97 C 196.26 168.57 202.23 169.41 203.75 173.18 C 204.17 174.75 204.17 176.40 204.32 178.02 C 201.15 178.00 197.98 178.00 194.81 178.06 C 195.28 179.32 195.72 180.60 196.37 181.79 C 198.81 183.22 201.65 182.11 204.27 182.06 C 203.73 186.02 198.92 185.36 196.11 184.70 C 191.56 182.43 191.10 175.75 193.94 171.97 Z" />
<path fill="#c8c9c8" d=" M 206.99 169.83 C 209.25 169.45 209.88 170.59 209.37 172.63 C 210.72 170.41 213.02 169.50 215.59 169.87 C 215.70 173.41 210.83 171.84 210.18 174.97 C 209.83 178.30 210.06 181.66 210.01 185.00 C 209.26 185.00 207.75 185.01 206.99 185.01 C 207.00 179.95 207.00 174.89 206.99 169.83 Z" />
<path fill="#c8c9c8" d=" M 217.99 169.99 C 218.75 169.99 220.25 169.98 221.01 169.98 C 221.00 174.99 221.00 180.00 221.01 185.01 C 220.25 185.01 218.75 185.02 217.99 185.02 C 218.00 180.01 218.00 175.00 217.99 169.99 Z" />
<path fill="#c8c9c8" d=" M 224.98 169.86 C 228.72 171.72 234.29 167.65 236.54 172.41 C 237.53 176.51 236.80 180.82 237.00 185.01 C 236.25 185.01 234.75 185.01 234.00 185.01 C 233.86 181.08 234.34 177.10 233.69 173.20 C 231.99 171.17 228.48 172.43 228.15 174.93 C 227.85 178.28 228.05 181.66 228.01 185.02 C 227.26 185.02 225.75 185.01 224.99 185.00 C 224.99 179.95 225.01 174.90 224.98 169.86 Z" />
<path fill="#c8c9c8" d=" M 272.51 173.20 C 272.05 171.63 272.53 170.63 273.96 170.19 C 276.64 169.84 280.37 169.18 281.91 172.09 C 282.83 176.43 282.33 180.90 282.32 185.30 C 280.96 185.24 280.04 184.61 279.58 183.41 C 277.52 185.81 272.61 186.05 271.34 182.74 C 270.22 180.37 271.29 176.99 273.96 176.24 C 275.96 175.81 278.03 175.89 280.06 175.74 C 279.50 174.55 279.44 172.86 278.06 172.26 C 276.15 172.04 274.32 172.72 272.51 173.20 Z" />
<path fill="#c8c9c8" d=" M 285.16 172.95 C 286.25 169.18 290.89 169.64 293.89 170.28 C 295.37 170.71 294.48 172.16 294.21 173.12 C 292.19 172.42 287.21 171.00 288.13 174.73 C 290.36 176.20 293.22 176.84 294.92 179.02 C 295.40 181.11 295.07 183.85 292.77 184.71 C 290.31 185.41 287.69 184.95 285.18 184.83 C 285.11 184.08 284.96 182.58 284.88 181.84 C 287.14 182.21 289.93 183.79 291.95 181.95 C 293.11 180.54 291.42 179.24 290.23 178.81 C 287.91 177.64 284.29 176.28 285.16 172.95 Z" />
<path fill="#c8c9c8" d=" M 304.01 173.98 C 304.15 169.32 310.61 168.95 313.59 170.86 C 313.56 171.42 313.50 172.54 313.47 173.10 C 311.46 172.55 309.38 172.26 307.31 172.20 C 307.24 172.86 307.12 174.19 307.06 174.85 C 310.04 176.37 315.23 177.60 314.00 182.07 C 313.16 185.60 308.74 185.23 305.92 184.98 C 303.95 185.27 304.08 183.11 303.72 181.84 C 305.97 182.00 310.64 184.54 311.25 180.96 C 310.24 177.60 304.14 178.18 304.01 173.98 Z" />
<path fill="#c8c9c8" d=" M 329.14 170.22 C 332.31 169.24 336.33 170.10 337.58 173.53 C 338.79 177.43 338.61 183.34 334.02 184.93 C 332.01 185.06 329.54 185.56 327.96 183.97 C 323.89 180.52 324.22 172.75 329.14 170.22 Z" />
<path fill="#c8c9c8" d=" M 341.99 169.98 C 342.58 169.98 343.77 169.98 344.36 169.99 C 345.41 174.18 344.15 178.82 346.35 182.68 C 348.08 182.76 350.37 182.91 351.13 180.91 C 351.86 178.72 351.86 176.19 351.10 174.01 C 350.14 171.59 346.32 173.19 345.63 170.55 C 348.33 169.45 352.14 169.51 353.54 172.55 C 354.91 175.83 355.00 179.93 353.15 183.04 C 351.39 185.86 347.57 185.32 344.99 184.12 C 345.01 186.74 345.02 189.37 345.00 192.00 C 344.25 192.01 342.75 192.02 341.99 192.02 C 342.00 184.67 342.00 177.32 341.99 169.98 Z" />
<path fill="#c8c9c8" d=" M 358.00 169.81 C 358.54 169.89 359.64 170.03 360.19 170.11 C 361.30 173.57 360.77 177.23 361.31 180.76 C 362.08 183.46 366.12 183.40 367.11 180.90 C 367.87 178.76 367.90 176.25 367.15 174.10 C 366.33 172.11 363.88 172.63 362.32 171.72 C 360.27 170.02 363.79 170.10 364.91 169.94 C 367.88 169.49 370.10 172.42 370.33 175.12 C 370.80 178.36 370.66 182.56 367.58 184.52 C 365.52 185.69 363.05 184.94 360.99 184.16 C 361.01 186.78 361.02 189.39 361.00 192.01 C 360.25 192.01 358.75 192.01 357.99 192.01 C 358.00 184.61 358.00 177.21 358.00 169.81 Z" />
<path fill="#c8c9c8" d=" M 377.08 170.17 C 378.71 169.88 380.38 169.98 382.04 169.94 C 384.57 171.93 385.47 174.87 385.32 178.01 C 382.15 178.01 378.99 178.00 375.82 178.07 C 376.58 179.69 376.81 182.21 378.96 182.55 C 381.04 182.71 383.11 182.23 385.18 182.01 C 384.91 186.06 380.00 185.26 377.22 184.77 C 371.77 182.06 371.90 173.07 377.08 170.17 Z" />
<path fill="#434242" d=" M 38.27 172.35 C 44.77 170.85 44.13 185.24 37.52 182.40 C 35.41 180.53 35.98 177.46 36.10 174.97 C 36.10 173.72 37.21 172.78 38.27 172.35 Z" />
<path fill="#434242" d=" M 67.53 172.55 C 69.48 171.45 72.14 172.74 72.44 174.96 C 72.81 177.63 73.19 181.71 69.95 182.76 C 67.69 183.41 65.91 181.11 66.02 179.03 C 65.96 176.82 65.59 174.13 67.53 172.55 Z" />
<path fill="#434242" d=" M 90.45 172.43 C 95.15 170.75 95.91 176.85 95.02 180.02 C 94.97 183.26 90.01 183.75 88.84 181.02 C 87.50 178.32 87.58 174.06 90.45 172.43 Z" />
<path fill="#434242" d=" M 130.43 172.43 C 132.28 171.57 134.90 172.74 135.02 174.90 C 135.47 177.62 135.85 182.55 132.04 182.81 C 127.12 182.70 126.67 174.56 130.43 172.43 Z" />
<path fill="#434242" d=" M 168.83 175.89 C 169.61 174.43 170.25 172.48 172.12 172.15 C 174.20 171.86 174.93 174.26 175.90 175.62 C 173.56 175.93 171.19 176.00 168.83 175.89 Z" />
<path fill="#434242" d=" M 194.86 175.93 C 195.67 174.24 196.64 171.76 198.98 172.16 C 200.47 172.74 201.03 174.37 201.89 175.59 C 199.56 175.94 197.21 176.02 194.86 175.93 Z" />
<path fill="#434242" d=" M 330.45 172.43 C 335.11 170.75 335.91 176.81 335.04 179.99 C 334.94 183.19 330.07 183.77 328.84 181.03 C 327.51 178.34 327.55 174.06 330.45 172.43 Z" />
<path fill="#434242" d=" M 375.84 175.84 C 376.63 174.42 377.27 172.42 379.14 172.17 C 381.20 171.89 381.92 174.21 382.85 175.58 C 380.53 175.95 378.18 176.00 375.84 175.84 Z" />
<path fill="#434242" d=" M 395.57 182.65 C 389.26 184.56 387.94 173.89 393.11 172.13 C 398.19 172.57 397.57 179.40 395.57 182.65 Z" />
<path fill="#434242" d=" M 50.86 179.09 C 52.65 178.14 54.62 177.73 56.63 177.55 C 56.85 179.91 55.90 182.85 53.11 182.97 C 50.98 183.03 51.02 180.58 50.86 179.09 Z" />
<path fill="#434242" d=" M 274.39 178.37 C 276.14 178.19 277.90 178.03 279.66 177.92 C 279.19 179.52 279.50 181.91 277.53 182.53 C 276.36 183.31 275.06 182.42 273.91 182.12 C 274.04 180.86 274.20 179.62 274.39 178.37 Z" />
<path fill="#c8c9c8" d=" M 167.99 194.90 C 168.72 194.92 170.18 194.97 170.91 195.00 C 170.87 202.07 170.90 209.15 170.89 216.22 C 169.77 215.94 168.66 215.66 167.55 215.37 C 165.18 216.05 162.21 216.75 160.25 214.78 C 157.62 211.53 157.63 206.56 159.66 203.01 C 161.45 200.15 165.43 200.61 168.03 201.99 C 167.97 199.63 167.98 197.26 167.99 194.90 Z" />
<path fill="#c8c9c8" d=" M 174.99 194.99 C 175.75 194.99 177.25 194.99 178.00 194.99 C 178.01 202.00 178.00 209.01 178.01 216.02 C 177.25 216.02 175.75 216.01 174.99 216.01 C 175.00 209.00 175.00 201.99 174.99 194.99 Z" />
<path fill="#c8c9c8" d=" M 224.99 194.99 C 225.75 194.99 227.25 194.99 228.00 194.99 C 228.01 201.99 228.00 209.00 228.01 216.00 C 227.25 216.01 225.75 216.02 224.99 216.03 C 225.00 209.02 225.00 202.00 224.99 194.99 Z" />
<path fill="#c8c9c8" d=" M 375.02 195.05 C 375.76 195.03 377.23 194.99 377.97 194.97 C 377.98 195.73 378.01 197.25 378.02 198.01 C 377.27 198.02 375.75 198.04 375.00 198.06 C 375.00 197.30 375.01 195.80 375.02 195.05 Z" />
<path fill="#c8c9c8" d=" M 209.41 195.99 C 212.30 196.07 215.26 195.68 218.11 196.29 C 221.71 197.73 222.05 202.68 220.38 205.66 C 218.58 208.36 215.13 208.19 212.27 208.35 C 212.23 210.97 212.23 213.58 212.17 216.20 C 211.51 216.12 210.18 215.96 209.52 215.88 C 209.13 209.27 209.39 202.62 209.41 195.99 Z" />
<path fill="#c8c9c8" d=" M 134.40 202.03 C 136.56 200.85 136.55 197.75 139.00 197.09 C 139.00 198.04 139.01 199.96 139.01 200.92 C 140.45 200.96 141.88 201.02 143.32 201.10 C 143.14 203.51 140.69 202.91 139.00 203.14 C 139.08 206.37 138.80 209.63 139.23 212.84 C 139.95 214.23 142.01 213.58 143.26 214.08 C 143.17 216.87 139.96 216.04 138.10 215.87 C 133.78 212.36 138.55 205.56 134.40 202.03 Z" />
<path fill="#434242" d=" M 212.27 198.16 C 214.83 198.28 218.78 198.35 218.32 202.03 C 218.65 205.54 214.75 206.01 212.15 206.03 C 212.20 203.41 212.23 200.78 212.27 198.16 Z" />
<path fill="#c8c9c8" d=" M 291.39 202.16 C 293.03 200.55 293.74 197.98 295.97 197.04 C 295.98 198.01 296.00 199.94 296.01 200.91 C 297.41 200.95 298.81 201.01 300.21 201.09 C 300.25 203.56 297.65 202.88 296.00 203.16 C 296.07 206.37 295.83 209.61 296.21 212.82 C 297.05 214.29 298.97 213.68 300.33 214.00 C 300.08 216.76 296.98 216.12 295.06 215.88 C 290.78 212.40 295.54 205.55 291.39 202.16 Z" />
<path fill="#c8c9c8" d=" M 32.99 200.94 C 33.73 200.96 35.22 201.01 35.96 201.03 C 35.90 205.03 35.99 209.04 36.04 213.04 C 37.98 213.88 40.94 214.29 41.61 211.62 C 42.39 208.16 41.83 204.52 42.00 200.99 C 42.74 200.99 44.23 200.99 44.97 200.99 C 45.00 206.06 45.02 211.14 45.03 216.21 C 41.31 214.12 35.51 218.51 33.38 213.61 C 32.49 209.47 33.20 205.15 32.99 200.94 Z" />
<path fill="#c8c9c8" d=" M 48.98 200.86 C 51.30 201.71 53.68 201.34 56.04 200.98 C 58.48 200.38 60.82 202.50 60.90 204.90 C 61.25 208.61 60.98 212.35 61.02 216.07 C 60.26 216.05 58.75 216.02 57.99 216.00 C 57.90 212.09 58.28 208.14 57.73 204.25 C 56.04 202.19 52.53 203.38 52.15 205.91 C 51.85 209.26 52.05 212.64 52.02 216.01 C 51.26 216.03 49.75 216.08 48.99 216.11 C 48.95 211.02 49.01 205.94 48.98 200.86 Z" />
<path fill="#c8c9c8" d=" M 65.62 213.57 C 62.33 209.23 64.61 200.08 71.06 200.93 C 75.23 200.86 76.58 205.60 76.30 209.01 C 73.13 209.01 69.97 209.00 66.81 209.06 C 67.41 210.62 67.69 212.70 69.46 213.42 C 71.60 213.91 73.80 213.22 75.95 213.10 C 75.70 213.73 75.19 214.99 74.94 215.62 C 71.81 216.47 67.62 216.65 65.62 213.57 Z" />
<path fill="#c8c9c8" d=" M 77.57 200.99 C 78.39 200.99 80.03 200.99 80.84 200.99 C 81.74 202.65 82.60 204.32 83.48 205.99 C 84.75 204.36 85.86 202.62 86.97 200.88 C 87.74 200.93 89.28 201.03 90.05 201.08 C 88.64 203.62 86.16 205.87 85.80 208.80 C 87.08 211.31 88.83 213.54 90.23 215.98 C 89.45 216.00 87.87 216.05 87.08 216.07 C 86.02 214.19 84.86 212.35 83.42 210.73 C 82.53 212.44 81.62 214.14 80.77 215.87 C 79.92 215.93 78.22 216.05 77.38 216.11 C 78.47 213.22 81.04 211.05 81.84 208.07 C 80.53 205.65 78.93 203.39 77.57 200.99 Z" />
<path fill="#c8c9c8" d=" M 92.99 200.79 C 93.54 200.87 94.64 201.03 95.18 201.11 C 96.30 204.58 95.77 208.24 96.32 211.77 C 97.08 214.49 101.16 214.44 102.12 211.88 C 102.84 209.73 102.91 207.23 102.14 205.08 C 101.33 203.08 98.87 203.62 97.32 202.72 C 95.26 200.67 99.92 200.97 101.09 200.98 C 106.26 202.27 106.31 209.51 104.48 213.50 C 102.92 216.79 98.78 216.42 95.98 215.17 C 96.01 217.79 96.02 220.40 96.01 223.02 C 95.25 223.01 93.74 223.01 92.99 223.01 C 93.01 215.61 92.99 208.20 92.99 200.79 Z" />
<path fill="#c8c9c8" d=" M 111.00 201.91 C 112.58 200.49 114.93 200.88 116.85 201.15 C 119.84 202.62 120.36 206.01 120.30 209.01 C 117.15 209.00 113.99 209.00 110.83 209.05 C 111.44 210.74 111.80 213.14 113.92 213.55 C 116.04 213.71 118.13 213.24 120.24 213.09 C 119.69 217.05 115.05 216.20 112.20 215.77 C 107.19 213.23 106.88 205.39 111.00 201.91 Z" />
<path fill="#c8c9c8" d=" M 126.41 201.20 C 128.67 200.74 133.55 200.08 132.35 203.92 C 130.38 203.82 127.90 202.62 126.31 204.36 C 124.52 206.71 124.57 210.29 126.29 212.67 C 128.04 214.42 130.74 213.17 132.88 213.27 C 133.01 217.15 128.64 216.04 126.13 215.84 C 120.68 213.17 120.69 203.50 126.41 201.20 Z" />
<path fill="#c8c9c8" d=" M 146.43 202.42 C 148.00 200.54 150.73 200.74 152.90 201.19 C 155.86 202.65 156.34 206.06 156.31 209.02 C 153.15 209.00 149.99 208.99 146.83 209.04 C 147.37 210.76 147.83 213.17 149.97 213.56 C 152.05 213.74 154.10 213.23 156.15 213.00 C 155.85 217.05 151.02 216.22 148.22 215.78 C 143.37 213.37 142.98 206.15 146.43 202.42 Z" />
<path fill="#c8c9c8" d=" M 179.85 200.99 C 180.61 200.99 182.13 200.98 182.89 200.98 C 184.19 205.17 186.02 209.24 186.37 213.67 C 187.88 209.76 188.98 205.18 190.30 201.00 C 191.03 201.00 192.50 200.98 193.24 200.98 C 191.74 206.07 189.91 211.06 188.31 216.13 C 187.44 218.47 186.81 221.16 184.75 222.79 C 182.97 223.05 179.70 223.91 179.77 221.15 C 182.74 221.34 185.67 219.19 185.02 215.96 C 183.69 210.85 181.59 205.97 179.85 200.99 Z" />
<path fill="#c8c9c8" d=" M 232.93 202.98 C 234.95 200.02 239.85 200.23 241.99 202.95 C 243.43 204.62 243.03 206.98 243.30 209.02 C 240.13 209.01 236.96 209.01 233.79 209.08 C 234.56 210.70 234.83 213.20 236.98 213.54 C 239.02 213.73 241.05 213.25 243.08 213.12 C 242.85 216.98 238.52 216.06 235.90 215.94 C 230.67 214.29 229.92 206.93 232.93 202.98 Z" />
<path fill="#c8c9c8" d=" M 246.79 203.97 C 245.23 202.44 247.52 201.02 248.88 201.01 C 251.34 200.77 254.46 200.62 255.94 203.06 C 256.81 207.42 256.36 211.90 256.31 216.32 C 254.91 216.21 253.92 215.50 253.40 214.26 C 252.15 216.60 249.32 216.21 247.12 215.84 C 244.12 214.02 244.14 208.80 247.54 207.44 C 249.63 206.74 251.89 206.93 254.06 206.70 C 253.62 205.64 253.35 204.50 252.68 203.56 C 250.79 202.73 248.73 203.88 246.79 203.97 Z" />
<path fill="#c8c9c8" d=" M 259.82 207.08 C 257.83 204.82 259.94 200.85 262.88 200.97 C 265.19 200.85 269.76 200.33 268.48 204.08 C 266.46 203.53 264.39 203.25 262.30 203.23 C 262.24 203.88 262.12 205.19 262.06 205.84 C 264.43 207.04 267.27 207.82 268.90 210.06 C 269.64 212.45 268.71 215.41 266.02 215.92 C 263.25 216.10 258.39 217.07 258.70 212.85 C 261.05 213.11 265.44 215.46 266.34 211.98 C 265.41 209.19 261.49 209.33 259.82 207.08 Z" />
<path fill="#c8c9c8" d=" M 272.92 203.00 C 275.22 199.60 281.19 200.38 282.72 204.14 C 283.21 205.71 283.14 207.39 283.31 209.01 C 280.14 209.00 276.98 209.00 273.82 209.06 C 274.53 210.54 274.70 212.66 276.41 213.39 C 278.59 213.93 280.83 213.21 283.03 213.11 C 282.93 217.01 278.47 216.05 275.89 215.94 C 270.66 214.27 269.94 206.96 272.92 203.00 Z" />
<path fill="#c8c9c8" d=" M 302.00 200.97 C 302.59 200.98 303.78 200.99 304.37 201.00 C 304.36 201.68 304.34 203.03 304.33 203.71 C 305.24 202.85 306.06 201.90 306.89 200.96 C 307.80 200.96 309.62 200.96 310.52 200.96 C 310.59 204.39 305.76 202.88 305.17 205.99 C 304.83 209.32 305.06 212.67 305.01 216.02 C 304.26 216.02 302.75 216.01 302.00 216.01 C 302.00 211.00 301.99 205.99 302.00 200.97 Z" />
<path fill="#c8c9c8" d=" M 311.53 200.83 C 312.10 200.89 313.23 201.02 313.80 201.09 C 315.42 205.18 316.96 209.38 317.50 213.78 C 318.51 209.46 320.18 205.33 321.26 201.03 C 322.00 201.01 323.50 200.97 324.24 200.95 C 322.17 207.53 320.17 214.16 317.56 220.54 C 316.85 223.40 310.99 224.57 310.76 221.12 C 313.26 221.09 316.07 219.93 316.07 217.01 C 315.66 211.40 311.51 206.33 311.53 200.83 Z" />
<path fill="#c8c9c8" d=" M 333.62 204.18 C 332.99 202.62 333.42 201.64 334.91 201.26 C 337.58 200.78 341.39 200.16 342.90 203.10 C 343.84 207.43 343.30 211.91 343.30 216.30 C 341.86 216.23 340.92 215.55 340.47 214.24 C 339.97 214.84 339.47 215.45 338.97 216.05 C 337.02 215.75 334.40 216.79 333.08 214.88 C 331.16 212.72 331.64 208.70 334.41 207.47 C 336.54 206.73 338.86 206.94 341.09 206.71 C 340.50 205.54 340.38 203.91 339.08 203.26 C 337.20 203.02 335.39 203.70 333.62 204.18 Z" />
<path fill="#c8c9c8" d=" M 349.15 201.26 C 352.47 200.61 355.92 201.02 359.28 201.11 C 358.33 202.83 355.97 203.66 356.86 206.06 C 357.54 209.89 353.28 211.67 350.11 211.23 C 350.14 211.82 350.19 213.00 350.21 213.59 C 352.74 213.80 355.95 213.02 357.84 215.17 C 358.65 216.90 358.60 218.92 357.83 220.66 C 355.77 223.39 352.00 223.20 348.96 222.98 C 347.23 222.86 345.67 221.59 345.37 219.85 C 344.68 217.83 346.53 216.36 347.30 214.71 C 347.26 213.20 347.41 211.72 348.42 210.52 C 345.68 208.12 345.59 202.92 349.15 201.26 Z" />
<path fill="#c8c9c8" d=" M 361.43 202.01 C 363.64 200.39 366.54 201.14 369.08 200.94 C 373.05 204.97 370.90 211.24 371.29 216.30 C 369.81 216.24 368.88 215.53 368.48 214.17 C 367.97 214.80 367.47 215.43 366.97 216.06 C 365.03 215.75 362.42 216.79 361.10 214.90 C 358.94 212.64 359.84 208.12 362.97 207.25 C 364.94 206.81 366.98 206.92 368.99 206.79 C 368.44 205.40 368.25 202.84 366.10 203.22 C 364.48 203.17 360.57 205.31 361.43 202.01 Z" />
<path fill="#c8c9c8" d=" M 374.99 200.99 C 375.75 200.99 377.25 200.99 378.01 200.99 C 378.00 206.00 378.00 211.00 378.01 216.01 C 377.25 216.01 375.75 216.02 374.99 216.02 C 374.99 211.01 374.99 206.00 374.99 200.99 Z" />
<path fill="#c8c9c8" d=" M 381.98 200.79 C 384.27 201.80 386.65 201.40 389.02 200.97 C 391.46 200.36 393.71 202.43 393.89 204.80 C 394.21 208.54 393.93 212.30 394.00 216.04 C 393.25 216.03 391.74 216.01 390.99 216.00 C 390.87 212.07 391.33 208.11 390.71 204.22 C 389.03 202.10 385.45 203.45 385.13 205.95 C 384.85 209.30 385.05 212.67 385.01 216.03 C 384.26 216.02 382.75 216.01 382.00 216.00 C 381.99 210.93 382.02 205.86 381.98 200.79 Z" />
<path fill="#434242" d=" M 66.86 206.89 C 67.63 205.45 68.22 203.51 70.07 203.16 C 72.19 202.86 72.98 205.20 73.83 206.67 C 71.52 206.94 69.19 206.97 66.86 206.89 Z" />
<path fill="#434242" d=" M 110.84 206.81 C 111.69 205.15 112.71 202.79 115.02 203.15 C 116.49 203.75 117.07 205.36 117.89 206.60 C 115.56 206.98 113.19 206.98 110.84 206.81 Z" />
<path fill="#434242" d=" M 146.84 206.87 C 147.63 205.45 148.24 203.52 150.07 203.18 C 152.21 202.88 152.94 205.22 153.85 206.67 C 151.52 206.93 149.18 206.99 146.84 206.87 Z" />
<path fill="#434242" d=" M 163.35 203.42 C 164.41 203.12 166.05 202.88 166.70 204.03 C 168.67 206.74 168.52 210.90 166.39 213.49 C 160.53 215.65 159.19 205.80 163.35 203.42 Z" />
<path fill="#434242" d=" M 235.50 203.37 C 238.19 202.53 239.96 204.38 240.86 206.68 C 238.56 206.92 236.26 206.96 233.96 206.91 C 234.46 205.72 234.98 204.55 235.50 203.37 Z" />
<path fill="#434242" d=" M 275.55 203.32 C 278.23 202.51 279.94 204.42 280.84 206.68 C 278.55 206.92 276.25 206.98 273.95 206.95 C 274.47 205.73 275.01 204.53 275.55 203.32 Z" />
<path fill="#434242" d=" M 350.01 209.11 C 348.71 207.07 348.56 202.74 351.90 202.99 C 354.62 202.93 354.13 206.31 353.85 208.11 C 352.95 209.29 351.26 208.79 350.01 209.11 Z" />
<path fill="#434242" d=" M 247.86 210.06 C 249.66 209.10 251.65 208.70 253.68 208.59 C 253.81 210.97 252.85 213.81 250.08 214.01 C 247.98 213.89 247.96 211.63 247.86 210.06 Z" />
<path fill="#434242" d=" M 335.40 209.36 C 337.16 209.17 338.91 209.01 340.69 208.89 C 340.19 210.48 340.53 212.85 338.60 213.51 C 337.38 214.40 336.06 213.48 334.88 213.07 C 335.03 211.83 335.20 210.59 335.40 209.36 Z" />
<path fill="#434242" d=" M 363.43 209.38 C 365.14 209.18 366.86 208.99 368.59 208.84 C 369.14 212.22 366.00 215.37 362.86 213.09 C 363.02 211.85 363.21 210.61 363.43 209.38 Z" />
<path fill="#c8c9c8" d=" M 194.92 215.98 C 195.15 214.39 194.31 211.47 196.92 211.98 C 199.01 212.14 198.46 214.70 198.18 216.07 C 197.37 216.05 195.73 216.00 194.92 215.98 Z" />
<path fill="#c8c9c8" d=" M 398.07 212.15 C 398.85 212.13 400.41 212.10 401.18 212.08 C 401.39 213.40 401.40 214.75 401.23 216.09 C 400.40 216.05 398.73 215.98 397.90 215.95 C 397.93 214.68 397.99 213.41 398.07 212.15 Z" />
<path fill="#434242" d=" M 349.36 216.46 C 351.37 215.74 354.09 215.56 355.76 217.18 C 356.62 220.61 351.77 221.67 349.38 220.69 C 347.40 220.14 347.53 217.14 349.36 216.46 Z" />
<path fill="#434242" d=" M 120.77 257.33 C 185.52 257.05 250.28 257.33 315.04 257.19 C 318.09 256.98 321.05 259.91 320.81 262.99 C 321.07 280.00 321.19 297.02 321.12 314.04 C 321.27 317.38 318.59 320.93 314.98 320.43 C 250.99 320.43 187.01 320.44 123.02 320.43 C 119.46 320.89 116.67 317.42 116.86 314.07 C 116.78 297.37 116.90 280.67 117.15 263.98 C 117.20 262.84 117.38 261.72 117.67 260.62 C 117.92 275.76 117.77 290.91 118.06 306.05 C 118.31 310.46 116.61 316.02 120.91 319.00 C 185.62 318.99 250.33 319.02 315.04 318.98 C 317.69 319.29 320.12 316.67 319.93 314.08 C 319.95 296.35 320.35 278.62 320.15 260.89 C 319.14 259.83 318.12 258.79 317.10 257.75 C 255.06 257.81 193.03 257.78 130.99 257.79 C 127.59 257.73 124.11 258.15 120.77 257.33 Z" />
<path fill="#434242" d=" M 169.00 281.00 C 171.77 281.01 174.53 280.98 177.30 281.01 C 176.99 284.20 173.13 282.57 171.00 283.03 C 171.00 284.66 171.00 286.30 171.00 287.94 C 172.90 288.01 174.83 287.93 176.69 288.42 C 176.82 291.30 172.74 289.57 171.01 290.02 C 171.02 292.37 171.02 294.72 171.04 297.06 C 170.52 297.07 169.48 297.10 168.96 297.11 C 169.00 291.74 169.01 286.37 169.00 281.00 Z" />
<path fill="#434242" d=" M 234.97 280.66 C 235.40 280.85 236.27 281.22 236.71 281.41 C 237.00 286.61 236.71 291.83 236.87 297.04 C 236.35 297.05 235.32 297.06 234.81 297.06 C 234.78 291.59 234.79 286.12 234.97 280.66 Z" />
<path fill="#434242" d=" M 181.16 285.19 C 186.44 283.21 189.87 290.28 187.37 294.36 C 186.30 296.91 182.75 298.13 180.50 296.39 C 176.85 293.75 177.14 287.35 181.16 285.19 Z" />
<path fill="#434242" d=" M 190.91 284.79 C 191.75 285.16 192.59 285.52 193.44 285.86 C 194.66 285.26 195.96 284.90 197.33 284.80 C 197.33 287.32 194.40 286.68 193.17 288.16 C 192.63 290.99 192.97 293.88 192.75 296.74 C 192.27 296.89 191.31 297.19 190.83 297.34 C 190.74 293.16 190.80 288.97 190.91 284.79 Z" />
<path fill="#434242" d=" M 198.40 293.70 C 196.33 289.29 200.39 282.98 205.48 285.27 C 205.66 285.67 206.02 286.49 206.21 286.89 C 204.38 287.36 201.38 286.16 200.54 288.42 C 199.51 290.49 200.32 292.83 201.03 294.87 C 202.84 294.90 204.65 294.96 206.46 295.12 C 204.93 298.84 199.23 297.14 198.40 293.70 Z" />
<path fill="#434242" d=" M 208.69 294.25 C 206.57 290.58 209.04 283.92 213.97 285.01 C 216.72 285.64 217.26 288.61 217.29 291.01 C 214.80 291.00 212.31 291.02 209.83 291.06 C 210.23 292.24 210.46 293.54 211.20 294.58 C 213.17 295.23 215.30 294.89 217.35 295.08 C 215.51 298.42 210.10 297.59 208.69 294.25 Z" />
<path fill="#434242" d=" M 227.16 285.26 C 228.92 284.79 231.99 284.31 232.19 286.90 C 230.36 287.33 227.43 286.18 226.54 288.39 C 225.69 290.37 225.86 292.95 227.23 294.69 C 228.94 295.10 230.71 294.98 232.46 295.12 C 231.48 297.80 227.78 297.71 225.95 296.02 C 222.88 293.20 223.32 287.20 227.16 285.26 Z" />
<path fill="#434242" d=" M 239.69 287.80 C 240.68 285.27 243.48 284.73 245.90 284.86 C 249.80 287.62 250.50 294.45 245.91 296.85 C 240.75 298.93 237.24 291.81 239.69 287.80 Z" />
<path fill="#434242" d=" M 252.97 284.88 C 254.95 285.11 257.87 284.33 258.47 286.99 C 256.57 287.02 254.68 286.99 252.80 287.01 C 252.80 290.49 258.08 289.93 258.55 293.08 C 259.47 297.42 251.66 298.98 250.50 295.02 C 252.68 295.00 254.87 295.00 257.04 294.70 C 256.28 291.94 253.17 291.47 251.41 289.64 C 249.99 287.87 251.85 286.14 252.97 284.88 Z" />
<path fill="#434242" d=" M 260.47 293.72 C 258.71 290.06 261.29 283.92 265.98 285.01 C 268.71 285.69 269.28 288.58 269.29 291.01 C 266.80 291.00 264.31 291.03 261.83 291.07 C 262.25 292.26 262.45 293.61 263.28 294.62 C 265.19 295.32 267.33 294.84 269.34 295.00 C 267.49 298.70 261.55 297.43 260.47 293.72 Z" />
<path fill="#c8c9c8" d=" M 181.05 287.00 C 182.36 286.97 183.68 286.96 184.99 286.97 C 186.34 289.54 186.18 292.51 184.97 295.11 C 183.71 295.09 182.46 294.98 181.22 294.79 C 179.47 292.51 179.99 289.45 181.05 287.00 Z" />
<path fill="#c8c9c8" d=" M 210.14 289.45 C 210.48 286.81 212.67 286.73 214.89 287.01 C 214.85 287.63 214.75 288.86 214.71 289.48 C 213.18 289.45 211.66 289.44 210.14 289.45 Z" />
<path fill="#c8c9c8" d=" M 242.02 287.01 C 243.34 286.97 244.66 286.96 245.98 286.97 C 247.27 289.52 247.25 292.45 245.97 295.00 C 244.66 295.00 243.36 294.98 242.05 294.97 C 240.83 292.42 240.89 289.57 242.02 287.01 Z" />
<path fill="#c8c9c8" d=" M 262.06 289.39 C 262.23 286.16 267.83 285.82 266.87 289.51 C 265.27 289.46 263.66 289.42 262.06 289.39 Z" />
<path fill="#434242" d=" M 0.00 328.11 C 1.64 328.47 2.88 329.64 3.79 331.00 L 0.00 331.00 L 0.00 328.11 Z" />
<path fill="#434242" d=" M 435.17 331.00 C 436.10 329.65 437.36 328.50 439.00 328.11 L 439.00 331.00 L 435.17 331.00 Z" />
</svg>
