<?xml version="1.0" encoding="UTF-8" ?>
<!DOCTYPE svg PUBLIC "-//W3C//DTD SVG 1.1//EN" "http://www.w3.org/Graphics/SVG/1.1/DTD/svg11.dtd">
<svg width="480pt" height="800pt" viewBox="0 0 480 800" version="1.1" xmlns="http://www.w3.org/2000/svg">
<path fill="#eeeeee" d=" M 0.00 0.00 L 480.00 0.00 L 480.00 38.17 C 320.00 38.13 160.00 38.17 0.00 38.15 L 0.00 0.00 Z" />
<path fill="#898989" d=" M 279.25 14.58 C 278.87 10.82 278.24 6.49 280.13 3.00 L 280.77 3.25 C 283.33 4.53 286.21 4.45 288.99 4.37 C 294.21 4.19 299.43 4.64 304.64 4.22 L 304.99 4.20 C 304.99 7.00 305.04 9.79 305.16 12.59 L 303.95 12.16 C 304.01 13.37 304.07 14.57 304.12 15.78 C 305.60 15.62 307.08 15.45 308.56 15.29 C 308.57 15.81 308.59 16.85 308.60 17.36 C 306.72 17.46 304.85 17.60 303.00 17.88 C 303.00 15.25 303.00 12.63 303.00 10.00 C 301.33 10.00 299.66 10.00 298.00 10.00 C 298.00 10.75 298.00 12.25 298.00 13.00 C 298.50 13.00 299.50 13.00 300.00 13.00 C 300.00 13.50 300.00 14.50 300.00 15.00 C 298.66 15.00 297.33 15.00 296.00 15.00 C 295.99 12.67 296.00 10.33 296.00 8.00 C 298.33 8.00 300.66 8.00 303.00 8.00 C 303.00 7.19 303.00 5.58 303.00 4.78 C 300.04 4.77 297.04 4.57 294.11 5.08 C 292.17 6.99 293.34 10.29 292.83 12.78 C 292.41 12.39 291.58 11.62 291.16 11.23 C 290.82 9.18 291.48 6.67 289.92 5.03 C 286.96 4.59 283.97 4.91 281.00 5.02 C 281.00 5.77 281.00 7.26 281.00 8.00 C 283.33 8.00 285.66 8.00 288.00 8.00 C 288.00 8.50 288.00 9.50 288.00 10.00 C 286.66 10.00 285.33 10.00 284.00 10.00 C 284.00 10.75 284.00 12.25 284.00 13.00 C 285.33 13.00 286.66 13.00 288.00 13.00 C 288.00 13.50 288.00 14.50 288.00 15.00 C 285.70 15.01 283.41 14.97 281.11 15.04 C 281.03 15.56 280.85 16.59 280.76 17.11 C 280.38 16.48 279.63 15.21 279.25 14.58 Z" />
<path fill="#000000" d=" M 280.77 3.25 C 287.17 3.03 293.57 3.21 299.97 3.14 C 301.61 3.01 303.20 3.44 304.64 4.22 C 299.43 4.64 294.21 4.19 288.99 4.37 C 286.21 4.45 283.33 4.53 280.77 3.25 Z" />
<path fill="#898989" d=" M 316.83 15.05 C 317.48 11.07 315.98 6.65 318.15 3.02 L 318.70 3.22 C 321.94 4.67 325.55 4.25 328.99 4.28 C 335.23 4.11 341.58 4.78 347.71 3.24 L 348.25 3.13 C 348.49 4.39 349.27 5.69 348.69 6.98 C 346.17 15.06 348.40 23.86 346.02 31.99 C 344.87 33.56 342.47 32.93 341.96 31.14 C 341.37 28.52 341.61 25.80 341.51 23.13 C 340.95 23.15 339.82 23.18 339.25 23.19 C 338.64 26.40 340.73 31.65 336.77 33.02 C 336.30 32.78 335.36 32.29 334.89 32.05 C 333.53 27.30 333.77 22.27 333.62 17.37 C 329.50 17.39 325.38 17.58 321.27 17.46 C 319.54 17.59 318.35 16.22 317.11 15.27 L 316.83 15.05 Z" />
<path fill="#000000" d=" M 318.70 3.22 C 328.37 3.15 338.05 3.03 347.71 3.24 C 341.58 4.78 335.23 4.11 328.99 4.28 C 325.55 4.25 321.94 4.67 318.70 3.22 Z" />
<path fill="#eeeeee" d=" M 281.00 5.02 C 283.97 4.91 286.96 4.59 289.92 5.03 C 291.48 6.67 290.82 9.18 291.16 11.23 C 291.27 13.39 291.31 15.55 291.37 17.71 C 287.83 18.30 284.23 18.27 280.65 18.29 L 280.76 17.11 C 280.85 16.59 281.03 15.56 281.11 15.04 C 283.41 14.97 285.70 15.01 288.00 15.00 C 288.00 14.50 288.00 13.50 288.00 13.00 C 286.66 13.00 285.33 13.00 284.00 13.00 C 284.00 12.25 284.00 10.75 284.00 10.00 C 285.33 10.00 286.66 10.00 288.00 10.00 C 288.00 9.50 288.00 8.50 288.00 8.00 C 285.66 8.00 283.33 8.00 281.00 8.00 C 281.00 7.26 281.00 5.77 281.00 5.02 Z" />
<path fill="#eeeeee" d=" M 292.83 12.78 C 293.34 10.29 292.17 6.99 294.11 5.08 C 297.04 4.57 300.04 4.77 303.00 4.78 C 303.00 5.58 303.00 7.19 303.00 8.00 C 300.66 8.00 298.33 8.00 296.00 8.00 C 296.00 10.33 295.99 12.67 296.00 15.00 C 297.33 15.00 298.66 15.00 300.00 15.00 C 300.00 14.50 300.00 13.50 300.00 13.00 C 299.50 13.00 298.50 13.00 298.00 13.00 C 298.00 12.25 298.00 10.75 298.00 10.00 C 299.66 10.00 301.33 10.00 303.00 10.00 C 303.00 12.63 303.00 15.25 303.00 17.88 C 299.55 18.46 296.03 18.33 292.61 17.66 C 292.67 16.03 292.74 14.40 292.83 12.78 Z" />
<path fill="#898989" d=" M 359.07 11.58 C 358.45 9.72 359.89 7.74 361.71 7.42 C 368.85 8.71 376.33 8.80 383.46 7.37 C 384.87 7.79 385.91 9.13 387.07 10.02 C 387.03 11.55 387.01 13.08 386.98 14.61 C 385.21 15.91 382.99 17.39 380.93 15.74 C 381.09 15.36 381.41 14.61 381.57 14.23 C 377.12 13.44 374.38 16.90 371.85 19.84 C 373.73 20.11 375.63 20.38 377.53 20.65 C 377.32 20.82 376.92 21.15 376.71 21.32 C 375.25 21.32 373.79 21.25 372.34 21.18 C 370.92 20.14 369.36 19.36 367.72 18.77 C 367.86 16.95 368.12 15.14 368.36 13.34 C 373.85 12.56 379.40 12.65 384.94 12.77 C 384.73 11.67 384.53 10.58 384.34 9.48 C 377.67 9.10 371.00 9.29 364.33 9.20 C 364.15 10.96 363.95 12.71 363.81 14.47 C 362.35 14.53 360.90 14.59 359.45 14.65 C 359.36 13.88 359.17 12.35 359.07 11.58 Z" />
<path fill="#000000" d=" M 361.71 7.42 C 368.93 6.95 376.23 7.03 383.46 7.37 C 376.33 8.80 368.85 8.71 361.71 7.42 Z" />
<path fill="#000000" d=" M 346.02 31.99 C 348.40 23.86 346.17 15.06 348.69 6.98 C 348.62 15.80 348.99 24.62 348.93 33.44 C 348.57 33.46 347.83 33.48 347.47 33.50 L 347.52 34.47 C 337.97 34.44 328.42 34.50 318.88 34.44 C 318.43 34.10 317.52 33.43 317.07 33.09 C 316.95 27.15 317.35 21.21 317.11 15.27 C 318.35 16.22 319.54 17.59 321.27 17.46 C 325.38 17.58 329.50 17.39 333.62 17.37 C 333.77 22.27 333.53 27.30 334.89 32.05 C 335.36 32.29 336.30 32.78 336.77 33.02 C 340.73 31.65 338.64 26.40 339.25 23.19 C 339.82 23.18 340.95 23.15 341.51 23.13 C 341.61 25.80 341.37 28.52 341.96 31.14 C 342.47 32.93 344.87 33.56 346.02 31.99 Z" />
<path fill="#d97515" d=" M 364.33 9.20 C 371.00 9.29 377.67 9.10 384.34 9.48 C 384.53 10.58 384.73 11.67 384.94 12.77 C 379.40 12.65 373.85 12.56 368.36 13.34 C 368.12 15.14 367.86 16.95 367.72 18.77 C 367.88 20.75 368.19 22.72 368.49 24.68 C 374.13 25.57 379.85 25.19 385.53 25.36 C 384.76 26.38 384.17 27.58 383.15 28.38 C 376.91 28.90 370.63 28.38 364.37 28.61 C 364.19 23.90 363.46 19.19 363.81 14.47 C 363.95 12.71 364.15 10.96 364.33 9.20 Z" />
<path fill="#000000" d=" M 403.37 11.03 C 404.43 11.03 405.51 11.04 406.58 11.05 C 406.53 14.65 406.58 18.26 406.56 21.87 C 407.11 21.94 408.20 22.09 408.75 22.16 C 408.72 22.79 408.65 24.04 408.62 24.67 C 408.11 24.69 407.07 24.74 406.55 24.77 C 406.58 25.55 406.63 27.12 406.65 27.90 C 405.49 27.98 404.33 28.06 403.17 28.14 C 403.17 27.28 403.15 25.56 403.14 24.70 C 400.66 24.70 398.19 24.70 395.72 24.65 C 396.82 19.44 400.94 15.63 403.37 11.03 Z" />
<path fill="#000000" d=" M 418.05 11.00 C 421.03 11.00 424.02 11.00 427.00 11.00 C 427.00 11.75 427.00 13.24 427.01 13.99 C 425.03 13.98 423.07 13.98 421.11 13.98 C 421.04 14.79 420.91 16.40 420.84 17.21 C 422.79 17.34 425.04 17.05 426.63 18.47 C 429.43 21.01 428.32 26.34 424.65 27.42 C 422.14 28.54 419.43 27.78 416.91 27.19 C 416.92 26.48 416.94 25.05 416.95 24.34 C 419.18 24.77 421.57 25.67 423.78 24.63 C 425.12 23.41 424.95 20.78 423.07 20.19 C 421.29 20.03 419.50 20.15 417.72 20.04 C 417.35 17.03 417.98 14.01 418.05 11.00 Z" />
<path fill="#000000" d=" M 429.86 13.33 C 432.22 11.79 435.14 10.16 437.99 11.50 C 440.42 12.25 441.65 15.32 440.54 17.59 C 439.24 20.61 436.53 22.66 434.28 24.95 C 436.62 24.94 438.98 24.94 441.33 24.93 C 441.35 25.98 441.37 27.03 441.40 28.08 C 437.48 28.06 433.57 28.06 429.66 28.07 C 430.08 22.82 436.59 21.05 437.54 15.95 C 437.38 12.59 433.54 14.33 431.75 15.26 C 431.27 14.78 430.33 13.81 429.86 13.33 Z" />
<path fill="#000000" d=" M 291.16 11.23 C 291.58 11.62 292.41 12.39 292.83 12.78 C 292.74 14.40 292.67 16.03 292.61 17.66 C 296.03 18.33 299.55 18.46 303.00 17.88 C 304.85 17.60 306.72 17.46 308.60 17.36 C 308.59 16.85 308.57 15.81 308.56 15.29 C 307.08 15.45 305.60 15.62 304.12 15.78 C 304.07 14.57 304.01 13.37 303.95 12.16 C 304.83 15.62 310.23 12.67 310.59 16.10 C 311.03 21.75 310.88 27.44 310.92 33.10 C 310.47 33.44 309.58 34.11 309.13 34.44 C 301.72 34.47 294.31 34.48 286.90 34.43 C 286.44 34.10 285.53 33.42 285.08 33.09 C 285.02 29.55 285.01 26.00 285.38 22.47 C 283.45 22.41 281.53 22.34 279.61 22.26 C 279.21 19.72 279.16 17.14 279.25 14.58 C 279.63 15.21 280.38 16.48 280.76 17.11 L 280.65 18.29 C 284.23 18.27 287.83 18.30 291.37 17.71 C 291.31 15.55 291.27 13.39 291.16 11.23 Z" />
<path fill="#000000" d=" M 359.07 11.58 C 359.17 12.35 359.36 13.88 359.45 14.65 C 360.90 14.59 362.35 14.53 363.81 14.47 C 363.46 19.19 364.19 23.90 364.37 28.61 C 370.63 28.38 376.91 28.90 383.15 28.38 C 384.17 27.58 384.76 26.38 385.53 25.36 C 379.85 25.19 374.13 25.57 368.49 24.68 C 368.19 22.72 367.88 20.75 367.72 18.77 C 369.36 19.36 370.92 20.14 372.34 21.18 C 373.79 21.25 375.25 21.32 376.71 21.32 C 376.23 22.11 375.26 23.70 374.78 24.49 C 378.11 23.03 381.08 20.91 384.00 18.76 C 381.67 18.76 379.34 18.78 377.01 18.83 C 378.34 17.83 379.67 16.84 380.93 15.74 C 382.99 17.39 385.21 15.91 386.98 14.61 C 386.44 18.71 387.16 22.85 386.80 26.96 C 386.70 28.66 384.78 29.11 383.64 29.96 L 383.47 30.47 C 376.57 30.37 369.67 30.62 362.78 30.37 C 359.34 29.97 358.44 26.62 358.42 23.66 C 357.39 23.18 356.37 22.70 355.34 22.22 C 355.22 19.12 354.20 14.59 358.39 13.84 C 358.56 13.28 358.90 12.15 359.07 11.58 Z" />
<path fill="#eeeeee" d=" M 371.85 19.84 C 374.38 16.90 377.12 13.44 381.57 14.23 C 381.41 14.61 381.09 15.36 380.93 15.74 C 379.67 16.84 378.34 17.83 377.01 18.83 C 379.34 18.78 381.67 18.76 384.00 18.76 C 381.08 20.91 378.11 23.03 374.78 24.49 C 375.26 23.70 376.23 22.11 376.71 21.32 C 376.92 21.15 377.32 20.82 377.53 20.65 C 375.63 20.38 373.73 20.11 371.85 19.84 Z" />
<path fill="#eeeeee" d=" M 399.14 22.00 C 400.63 19.78 402.04 17.51 403.36 15.18 C 403.22 17.44 403.15 19.70 403.13 21.96 C 401.79 21.97 400.46 21.98 399.14 22.00 Z" />
<path fill="#000000" d=" M 411.26 18.62 C 409.93 17.83 410.30 15.00 412.08 15.08 C 414.11 14.32 414.33 17.13 414.51 18.45 C 413.43 18.62 412.34 18.68 411.26 18.62 Z" />
<path fill="#000000" d=" M 447.61 15.90 C 450.50 15.87 455.59 15.78 455.21 20.00 C 455.51 22.99 452.27 23.87 450.00 24.30 C 450.03 25.55 450.06 26.80 450.10 28.05 C 449.48 28.07 448.23 28.09 447.61 28.10 C 447.59 24.03 447.62 19.97 447.61 15.90 Z" />
<path fill="#000000" d=" M 457.59 16.08 C 458.68 16.04 459.78 16.00 460.88 15.96 C 461.74 19.03 462.61 22.09 463.52 25.15 C 464.60 22.16 465.51 19.12 466.36 16.07 C 467.50 16.03 468.63 16.00 469.78 15.97 C 469.72 19.88 469.90 23.78 469.73 27.68 C 469.19 27.88 468.12 28.27 467.59 28.46 C 467.49 25.13 467.57 21.80 467.57 18.47 C 466.45 21.56 465.56 24.73 464.71 27.90 C 464.12 27.94 462.95 28.01 462.36 28.05 C 461.53 24.87 460.72 21.69 459.66 18.58 C 459.68 21.88 459.78 25.18 459.65 28.47 C 459.16 28.26 458.16 27.83 457.67 27.62 C 457.47 23.78 457.67 19.93 457.59 16.08 Z" />
<path fill="#eeeeee" d=" M 450.07 17.64 C 451.22 18.17 453.02 18.29 452.89 20.01 C 452.91 21.61 451.20 21.83 450.11 22.39 C 450.07 20.81 450.06 19.22 450.07 17.64 Z" />
<path fill="#eeeeee" d=" M 326.51 19.80 C 327.12 19.50 328.35 18.88 328.96 18.58 C 329.57 18.89 330.78 19.51 331.39 19.82 C 331.37 23.87 331.84 28.01 331.01 32.02 C 329.70 33.00 326.70 33.13 326.62 30.94 C 326.24 27.24 326.44 23.51 326.51 19.80 Z" />
<path fill="#898989" d=" M 288.26 26.01 C 289.80 23.63 291.65 21.47 293.72 19.54 C 295.38 21.66 297.03 23.77 298.72 25.86 C 298.00 26.02 296.56 26.34 295.84 26.51 C 295.61 28.34 295.64 30.19 295.61 32.04 C 294.57 32.04 292.49 32.04 291.45 32.04 C 291.41 30.13 291.37 28.23 291.34 26.33 C 290.57 26.25 289.03 26.09 288.26 26.01 Z" />
<path fill="#898989" d=" M 299.57 21.18 C 301.47 20.95 304.09 19.61 305.42 21.66 C 305.21 23.26 304.94 24.85 304.62 26.43 C 305.50 26.91 306.40 27.38 307.29 27.86 C 305.72 29.64 304.16 31.43 302.59 33.22 C 301.01 31.44 299.43 29.65 297.84 27.88 C 301.12 27.18 299.29 23.46 299.57 21.18 Z" />
<path fill="#eeeeee" d=" M 319.51 22.38 C 320.42 22.36 322.23 22.33 323.13 22.32 C 324.90 24.49 323.92 27.53 324.04 30.10 C 324.28 32.40 321.57 33.37 319.86 32.21 C 318.61 29.10 319.35 25.62 319.51 22.38 Z" />
<path fill="#000000" d=" M 410.51 26.03 C 409.97 23.76 412.91 24.34 414.28 24.45 C 414.30 25.47 414.31 26.50 414.33 27.53 C 412.95 27.99 410.03 28.28 410.51 26.03 Z" />
<path fill="#898989" d=" M 0.00 38.15 C 160.00 38.17 320.00 38.13 480.00 38.17 L 480.00 75.93 C 320.00 75.94 160.00 75.94 0.00 75.93 L 0.00 38.15 Z" />
<path fill="#eeeeee" d=" M 21.38 48.54 C 23.03 47.64 25.08 48.20 26.87 47.98 C 26.31 50.02 24.46 50.85 22.70 51.63 C 23.41 51.81 24.83 52.16 25.54 52.34 C 26.60 53.93 23.98 54.36 23.05 55.02 C 23.09 58.01 23.16 61.00 23.21 64.00 C 22.41 64.00 20.81 64.00 20.02 64.00 C 20.02 60.89 20.02 57.79 20.02 54.69 C 19.43 54.41 18.85 54.12 18.27 53.84 C 19.35 52.10 20.21 50.22 21.38 48.54 Z" />
<path fill="#eeeeee" d=" M 57.55 48.12 C 58.65 48.06 59.76 48.00 60.86 47.95 C 60.84 53.31 60.83 58.67 60.85 64.04 C 59.75 63.99 58.66 63.94 57.57 63.88 C 57.84 58.63 57.80 53.37 57.55 48.12 Z" />
<path fill="#eeeeee" d=" M 84.53 51.08 C 84.61 50.12 84.66 49.15 84.88 48.21 C 85.62 48.15 87.10 48.02 87.84 47.96 C 87.85 48.67 87.88 50.11 87.90 50.83 C 87.05 50.89 85.37 51.02 84.53 51.08 Z" />
<path fill="#eeeeee" d=" M 74.40 53.43 C 75.79 51.83 77.15 50.21 78.58 48.65 C 78.71 49.48 78.98 51.16 79.11 52.00 C 79.83 52.00 81.28 52.00 82.00 52.00 C 82.00 52.59 82.00 53.77 82.00 54.36 C 81.25 54.35 79.75 54.32 79.00 54.31 C 78.99 56.57 79.01 58.83 79.00 61.09 C 79.75 61.14 81.26 61.23 82.01 61.28 C 81.99 61.96 81.96 63.33 81.94 64.01 C 79.89 63.93 77.12 64.41 76.21 62.01 C 75.86 59.67 76.05 57.29 76.00 54.93 C 75.60 54.56 74.80 53.80 74.40 53.43 Z" />
<path fill="#eeeeee" d=" M 113.96 49.00 C 114.72 49.00 116.24 49.00 117.00 49.00 C 117.00 53.06 117.00 57.12 117.00 61.18 C 118.82 61.23 120.64 61.27 122.46 61.33 C 122.53 61.98 122.68 63.27 122.76 63.92 C 119.84 64.02 116.92 64.00 114.00 64.00 C 113.99 59.00 114.03 54.00 113.96 49.00 Z" />
<path fill="#eeeeee" d=" M 172.42 53.43 C 173.79 51.83 175.14 50.21 176.56 48.64 C 176.70 49.48 176.98 51.15 177.12 51.99 C 177.93 52.00 179.55 52.03 180.36 52.05 C 180.33 54.11 178.70 54.52 177.00 54.72 C 176.99 56.84 177.00 58.97 177.00 61.09 C 177.75 61.14 179.26 61.23 180.02 61.28 C 180.00 61.92 179.96 63.21 179.94 63.85 C 178.50 63.92 177.06 63.99 175.63 64.07 C 173.40 61.52 174.10 58.03 174.00 54.93 C 173.60 54.56 172.81 53.81 172.42 53.43 Z" />
<path fill="#eeeeee" d=" M 7.72 52.80 C 10.46 51.91 13.36 51.79 16.01 53.04 C 16.45 56.75 16.59 60.49 16.60 64.22 C 15.28 64.00 14.11 63.49 13.36 62.33 C 12.83 62.93 12.30 63.54 11.77 64.15 C 9.97 64.08 8.30 63.55 6.97 62.31 C 7.00 60.80 7.01 59.28 7.00 57.77 C 9.12 56.71 11.52 56.37 13.64 55.32 C 12.53 53.69 10.50 54.87 8.94 54.83 C 8.64 54.32 8.03 53.31 7.72 52.80 Z" />
<path fill="#eeeeee" d=" M 36.71 51.57 C 37.82 51.99 38.78 52.62 39.59 53.47 C 40.90 52.79 42.25 52.17 43.64 51.66 C 43.68 52.38 43.74 53.83 43.77 54.55 C 42.51 55.00 41.07 55.17 40.04 56.10 C 39.72 58.72 39.84 61.37 39.84 64.00 C 39.05 64.00 37.47 64.00 36.68 64.00 C 36.74 59.86 36.66 55.71 36.71 51.57 Z" />
<path fill="#eeeeee" d=" M 46.58 53.41 C 48.72 51.16 53.14 51.47 54.57 54.39 C 55.08 55.87 55.02 57.46 55.21 59.00 C 52.64 59.01 50.07 58.96 47.51 59.05 C 49.02 62.18 52.38 61.55 55.24 61.30 C 54.18 64.75 49.61 64.71 47.13 62.91 C 44.25 60.64 44.47 56.12 46.58 53.41 Z" />
<path fill="#eeeeee" d=" M 63.73 52.84 C 66.45 51.93 69.34 51.76 71.98 53.03 C 72.41 56.76 72.60 60.51 72.57 64.26 C 71.48 63.82 70.41 63.33 69.35 62.82 C 67.22 64.37 64.60 64.22 62.87 62.22 C 63.21 60.54 62.51 58.31 64.14 57.16 C 65.87 56.08 68.05 56.16 69.96 55.59 C 68.56 54.19 66.74 54.47 64.99 54.77 C 64.68 54.29 64.05 53.32 63.73 52.84 Z" />
<path fill="#eeeeee" d=" M 84.69 52.00 C 85.48 52.00 87.06 52.00 87.85 52.00 C 87.84 56.00 87.84 60.00 87.86 64.00 C 87.06 64.00 85.48 64.00 84.68 64.00 C 84.72 60.00 84.71 56.00 84.69 52.00 Z" />
<path fill="#eeeeee" d=" M 88.99 52.00 C 89.82 52.00 91.46 52.00 92.28 52.00 C 93.04 54.85 93.77 57.70 94.48 60.56 C 95.50 57.76 96.32 54.89 97.08 52.00 C 97.88 52.00 99.46 52.00 100.25 52.00 C 98.93 56.00 97.58 60.00 96.24 64.00 C 95.45 64.00 93.87 64.00 93.08 64.00 C 91.73 60.00 90.41 55.98 88.99 52.00 Z" />
<path fill="#eeeeee" d=" M 101.74 61.24 C 99.55 57.52 102.12 50.98 107.10 52.00 C 110.63 52.24 111.28 56.17 111.23 59.00 C 108.65 59.01 106.08 58.97 103.51 59.05 C 104.93 62.27 108.40 61.50 111.20 61.24 C 110.00 65.47 103.45 64.73 101.74 61.24 Z" />
<path fill="#eeeeee" d=" M 124.76 53.02 C 127.34 51.56 130.38 51.87 133.00 53.03 C 133.41 56.64 133.54 60.27 133.59 63.90 C 133.02 63.93 131.87 63.99 131.29 64.01 C 131.15 63.60 130.87 62.76 130.73 62.34 C 128.70 64.30 125.84 64.42 123.87 62.32 C 124.22 60.57 123.45 58.19 125.25 57.06 C 127.10 56.24 129.15 56.07 131.09 55.55 C 129.24 53.77 125.65 55.77 124.76 53.02 Z" />
<path fill="#eeeeee" d=" M 134.96 51.96 C 136.17 52.01 137.37 52.06 138.58 52.11 C 139.17 54.83 139.84 57.52 140.56 60.21 C 141.45 57.50 142.19 54.76 142.88 52.00 C 143.73 52.00 145.41 52.00 146.26 52.00 C 144.41 56.99 143.15 62.21 140.91 67.04 C 140.02 68.97 137.65 68.80 135.91 69.23 C 135.79 68.35 135.67 67.47 135.55 66.59 C 136.75 66.33 137.95 66.07 139.16 65.81 C 138.97 60.90 136.50 56.52 134.96 51.96 Z" />
<path fill="#eeeeee" d=" M 149.55 52.63 C 151.45 51.58 154.07 51.72 155.71 53.22 C 159.12 56.51 157.56 64.62 151.94 64.01 C 146.43 63.75 145.34 55.39 149.55 52.63 Z" />
<path fill="#eeeeee" d=" M 160.55 51.99 C 161.37 52.00 163.00 52.01 163.82 52.02 C 163.77 55.09 163.79 58.16 163.89 61.23 C 164.69 61.21 166.28 61.18 167.08 61.16 C 167.30 58.11 167.37 55.04 167.32 51.98 C 168.42 52.02 169.51 52.05 170.61 52.09 C 170.48 56.14 170.52 60.18 170.60 64.22 C 169.54 63.85 168.48 63.47 167.42 63.07 C 165.46 63.72 162.81 64.88 161.37 62.70 C 160.11 59.31 160.70 55.55 160.55 51.99 Z" />
<path fill="#000000" d=" M 47.95 56.39 C 48.64 55.77 49.32 55.12 50.07 54.56 C 51.24 54.61 51.70 55.78 52.40 56.52 C 50.91 56.51 49.43 56.47 47.95 56.39 Z" />
<path fill="#000000" d=" M 103.97 56.41 C 104.66 55.77 105.34 55.11 106.08 54.53 C 107.21 54.67 107.72 55.75 108.40 56.51 C 106.92 56.51 105.44 56.48 103.97 56.41 Z" />
<path fill="#898989" d=" M 150.37 59.73 C 149.16 57.02 150.95 53.74 154.10 54.69 C 154.13 56.90 154.14 59.11 154.10 61.32 C 152.74 61.04 150.64 61.65 150.37 59.73 Z" />
<path fill="#000000" d=" M 10.26 58.70 C 11.29 58.53 12.32 58.38 13.36 58.23 C 13.04 59.23 12.73 60.23 12.42 61.23 C 10.70 61.52 10.37 60.13 10.26 58.70 Z" />
<path fill="#000000" d=" M 66.28 58.63 C 67.32 58.51 68.36 58.40 69.40 58.30 C 69.06 59.28 68.73 60.26 68.40 61.24 C 66.61 61.59 66.39 60.08 66.28 58.63 Z" />
<path fill="#000000" d=" M 127.30 58.64 C 128.32 58.51 129.34 58.39 130.37 58.28 C 130.04 59.28 129.72 60.29 129.40 61.29 C 127.71 61.43 127.25 60.08 127.30 58.64 Z" />
<path fill="#eeeeee" d=" M 25.82 66.03 C 28.77 65.77 31.73 65.89 34.68 65.86 C 34.71 66.24 34.75 66.98 34.77 67.36 C 31.93 67.34 29.07 67.47 26.23 67.25 C 26.13 66.94 25.93 66.33 25.82 66.03 Z" />
<path fill="#000000" d=" M 0.00 75.93 C 160.00 75.94 320.00 75.94 480.00 75.93 L 480.00 800.00 L 0.00 800.00 L 0.00 75.93 Z" />
<path fill="#d97515" d=" M 6.00 82.90 C 5.75 79.78 9.04 77.54 11.93 77.99 C 42.63 77.99 73.32 78.03 104.02 77.97 C 105.90 78.05 108.18 77.79 109.54 79.42 C 111.57 81.05 111.05 83.91 110.96 86.19 C 110.20 89.93 109.37 93.65 108.60 97.39 C 107.38 94.04 106.66 90.55 105.55 87.17 C 105.20 87.21 104.49 87.28 104.14 87.31 C 102.76 90.56 102.37 94.09 101.62 97.51 C 100.27 94.27 99.53 90.83 99.13 87.36 C 98.69 87.30 97.79 87.17 97.35 87.11 C 98.46 91.03 99.43 94.98 100.38 98.94 C 100.85 98.85 101.78 98.67 102.24 98.58 C 102.91 95.48 103.62 92.39 104.38 89.32 C 105.99 92.28 106.94 95.52 107.59 98.81 C 108.04 98.78 108.94 98.73 109.39 98.70 C 109.84 96.96 110.31 95.23 110.77 93.49 C 111.53 106.98 110.74 120.53 111.01 134.04 C 111.41 136.29 109.37 137.60 108.08 139.07 C 75.05 138.94 42.01 139.02 8.97 139.03 C 7.97 138.03 6.97 137.02 5.98 136.02 C 6.00 123.57 6.04 111.12 5.96 98.68 C 6.62 98.39 7.93 97.81 8.59 97.52 C 9.00 97.97 9.84 98.88 10.25 99.34 C 10.38 94.96 10.77 90.50 9.76 86.19 C 9.33 89.86 9.23 93.59 8.27 97.18 C 7.70 97.23 6.57 97.32 6.00 97.37 C 6.04 92.55 5.91 87.72 6.00 82.90 Z" />
<path fill="#eeeeee" d=" M 29.19 83.32 C 32.71 83.32 36.23 83.32 39.76 83.34 C 39.75 83.66 39.75 84.28 39.75 84.59 C 38.28 84.56 36.81 84.53 35.34 84.50 C 35.28 89.23 35.21 93.96 35.28 98.69 C 34.88 98.71 34.06 98.75 33.65 98.78 C 33.72 94.01 33.63 89.25 33.61 84.49 C 32.15 84.53 30.69 84.56 29.23 84.60 C 29.22 84.28 29.20 83.64 29.19 83.32 Z" />
<path fill="#eeeeee" d=" M 69.14 82.69 C 71.63 83.49 71.78 86.23 72.41 88.36 C 73.21 91.05 73.38 94.08 75.16 96.38 C 76.59 92.15 77.76 87.84 78.75 83.49 C 79.27 83.38 80.29 83.15 80.81 83.04 C 78.87 88.17 77.51 93.50 75.67 98.67 C 75.34 98.71 74.67 98.80 74.34 98.85 C 72.41 93.53 70.87 88.08 69.14 82.69 Z" />
<path fill="#898989" d=" M 82.99 83.24 C 84.62 82.76 85.15 83.34 84.58 84.96 C 82.95 85.44 82.42 84.87 82.99 83.24 Z" />
<path fill="#eeeeee" d=" M 62.22 88.36 C 63.37 87.07 64.50 85.77 65.63 84.46 C 65.60 85.15 65.54 86.53 65.51 87.22 C 66.47 87.33 68.40 87.57 69.36 87.69 C 68.08 88.02 66.79 88.30 65.51 88.60 C 65.52 91.54 65.53 94.48 65.58 97.41 C 66.51 97.53 68.38 97.77 69.31 97.89 C 67.82 98.48 65.48 99.49 64.55 97.56 C 64.01 94.53 64.33 91.43 64.33 88.38 C 63.80 88.38 62.75 88.37 62.22 88.36 Z" />
<path fill="#eeeeee" d=" M 1.74 87.18 C 2.17 87.18 3.03 87.19 3.46 87.19 C 3.37 90.62 3.37 94.06 3.65 97.49 C 4.24 97.46 5.41 97.40 6.00 97.37 C 6.57 97.32 7.70 97.23 8.27 97.18 C 9.23 93.59 9.33 89.86 9.76 86.19 C 10.77 90.50 10.38 94.96 10.25 99.34 C 9.84 98.88 9.00 97.97 8.59 97.52 C 7.93 97.81 6.62 98.39 5.96 98.68 C 4.60 98.96 2.52 98.61 2.29 96.93 C 1.33 93.78 1.89 90.43 1.74 87.18 Z" />
<path fill="#eeeeee" d=" M 14.18 86.96 C 14.60 87.15 15.42 87.54 15.84 87.73 C 17.90 87.65 21.01 86.38 22.04 88.96 C 22.92 92.14 22.30 95.55 22.48 98.82 C 22.17 98.86 21.55 98.93 21.24 98.97 C 21.38 95.39 21.45 91.76 20.49 88.27 C 18.90 88.38 17.31 88.49 15.71 88.60 C 15.48 92.00 15.39 95.41 15.46 98.82 C 15.16 98.87 14.55 98.95 14.25 98.99 C 14.30 94.98 14.31 90.97 14.18 86.96 Z" />
<path fill="#eeeeee" d=" M 42.80 97.17 C 39.76 93.98 41.57 86.07 46.89 87.37 C 49.50 87.66 49.64 90.77 50.11 92.76 C 47.54 92.74 44.97 92.71 42.40 92.66 C 42.89 94.23 43.39 95.79 43.88 97.36 C 46.01 97.42 48.13 97.44 50.26 97.56 C 47.99 98.78 44.62 99.53 42.80 97.17 Z" />
<path fill="#eeeeee" d=" M 51.90 86.67 C 54.01 87.77 55.28 89.82 56.77 91.58 C 57.40 90.17 58.06 88.78 58.71 87.38 C 59.24 87.29 60.30 87.10 60.83 87.01 C 59.58 88.94 57.80 90.70 57.29 93.00 C 58.32 95.23 59.70 97.27 60.83 99.45 C 58.68 98.19 57.42 96.01 56.13 93.98 C 54.97 95.95 53.96 98.21 51.86 99.38 C 52.84 97.10 54.15 94.99 55.54 92.94 C 54.25 90.89 52.95 88.85 51.90 86.67 Z" />
<path fill="#eeeeee" d=" M 83.25 87.03 C 83.56 87.07 84.19 87.13 84.51 87.17 C 83.95 91.24 85.57 95.86 83.49 99.57 C 83.12 95.40 83.33 91.21 83.25 87.03 Z" />
<path fill="#eeeeee" d=" M 88.82 97.19 C 85.75 94.01 87.57 86.08 92.88 87.37 C 95.47 87.68 95.69 90.75 96.10 92.77 C 93.53 92.74 90.96 92.71 88.39 92.66 C 88.88 94.22 89.39 95.79 89.88 97.36 C 92.01 97.42 94.14 97.44 96.27 97.56 C 93.99 98.75 90.65 99.53 88.82 97.19 Z" />
<path fill="#eeeeee" d=" M 97.35 87.11 C 97.79 87.17 98.69 87.30 99.13 87.36 C 99.53 90.83 100.27 94.27 101.62 97.51 C 102.37 94.09 102.76 90.56 104.14 87.31 C 104.49 87.28 105.20 87.21 105.55 87.17 C 106.66 90.55 107.38 94.04 108.60 97.39 C 109.37 93.65 110.20 89.93 110.96 86.19 C 112.63 88.41 111.16 91.11 110.77 93.49 C 110.31 95.23 109.84 96.96 109.39 98.70 C 108.94 98.73 108.04 98.78 107.59 98.81 C 106.94 95.52 105.99 92.28 104.38 89.32 C 103.62 92.39 102.91 95.48 102.24 98.58 C 101.78 98.67 100.85 98.85 100.38 98.94 C 99.43 94.98 98.46 91.03 97.35 87.11 Z" />
<path fill="#d97515" d=" M 43.72 88.63 C 44.63 88.57 46.45 88.45 47.36 88.39 C 47.71 89.18 48.42 90.76 48.78 91.55 C 46.86 91.58 44.93 91.61 43.01 91.63 C 43.25 90.63 43.48 89.63 43.72 88.63 Z" />
<path fill="#d97515" d=" M 89.75 88.61 C 90.65 88.56 92.46 88.45 93.37 88.40 C 93.73 89.18 94.45 90.75 94.81 91.53 C 92.87 91.57 90.93 91.60 88.99 91.63 C 89.24 90.63 89.49 89.62 89.75 88.61 Z" />
<path fill="#eeeeee" d=" M 112.38 94.76 C 113.04 94.41 114.35 93.72 115.01 93.37 C 115.43 93.74 116.27 94.47 116.69 94.84 C 116.70 100.30 116.76 105.76 116.64 111.22 C 115.21 111.52 114.08 112.30 114.35 113.92 C 114.24 116.28 114.31 118.64 114.32 121.00 C 113.74 121.00 112.58 121.00 112.00 121.00 C 112.02 117.00 112.04 112.99 111.79 108.99 C 112.91 104.34 112.11 99.49 112.38 94.76 Z" />
<path fill="#000000" d=" M 47.07 100.50 C 49.37 101.37 48.31 103.96 48.54 105.77 C 50.57 105.24 53.14 104.38 54.71 106.35 C 56.69 109.16 56.71 113.72 54.17 116.19 C 52.36 117.75 50.12 116.63 48.53 115.38 C 48.14 115.91 47.36 116.97 46.97 117.50 C 46.84 111.83 46.79 106.16 47.07 100.50 Z" />
<path fill="#000000" d=" M 81.31 103.85 C 80.67 102.29 82.99 100.13 84.49 101.10 C 85.03 102.62 82.70 104.31 81.31 103.85 Z" />
<path fill="#000000" d=" M 70.20 105.30 C 70.99 104.30 71.79 103.31 72.60 102.33 C 72.65 102.98 72.76 104.30 72.81 104.95 C 73.62 105.00 75.24 105.09 76.05 105.13 C 74.97 105.74 73.91 106.38 72.88 107.06 C 72.56 109.74 72.78 112.44 72.91 115.13 C 73.78 115.32 75.53 115.68 76.40 115.86 C 74.86 116.90 72.55 117.76 71.47 115.65 C 70.46 112.35 71.51 108.62 70.20 105.30 Z" />
<path fill="#eeeeee" d=" M 142.00 103.00 C 142.56 103.00 143.68 103.00 144.24 103.00 C 144.26 106.71 144.26 110.41 144.10 114.12 C 146.35 111.71 147.72 107.31 151.72 107.82 C 150.17 109.77 148.56 111.67 146.92 113.56 C 148.50 115.93 150.06 118.30 151.65 120.66 L 151.98 121.13 C 148.01 121.75 147.19 117.00 144.93 114.74 C 144.22 116.75 144.22 118.89 144.16 121.00 C 143.62 121.00 142.54 121.00 142.00 121.00 C 142.00 115.00 142.00 109.00 142.00 103.00 Z" />
<path fill="#eeeeee" d=" M 154.00 103.00 C 154.58 103.00 155.74 103.00 156.32 103.00 C 156.29 104.97 156.23 106.95 156.14 108.92 C 157.09 108.57 158.05 108.23 159.02 107.91 C 159.94 107.62 161.77 107.02 162.69 106.73 C 164.02 110.33 164.99 114.15 164.45 118.02 C 163.41 120.26 161.05 121.58 158.59 120.88 C 158.29 120.86 157.68 120.82 157.37 120.80 C 156.10 121.31 154.83 121.82 153.57 122.33 C 153.71 120.28 153.90 118.23 153.98 116.18 C 154.03 111.79 153.98 107.39 154.00 103.00 Z" />
<path fill="#000000" d=" M 18.48 115.70 C 17.22 112.32 17.69 108.49 18.02 104.96 C 18.35 105.01 19.02 105.10 19.36 105.15 C 19.58 108.05 19.21 110.99 19.68 113.88 C 20.01 116.13 23.91 115.91 24.36 113.83 C 25.14 110.94 24.65 107.91 24.99 104.96 C 25.34 105.01 26.03 105.12 26.38 105.17 C 26.16 109.26 27.54 113.89 25.55 117.64 L 24.90 115.53 C 23.00 116.73 20.13 117.89 18.48 115.70 Z" />
<path fill="#000000" d=" M 30.07 116.55 C 29.59 112.76 29.99 108.93 29.92 105.12 C 32.63 105.87 35.46 104.81 38.13 105.82 C 38.65 109.66 38.72 113.54 38.58 117.40 C 38.19 117.19 37.41 116.77 37.02 116.56 C 36.70 113.70 37.08 110.81 36.71 107.96 C 36.48 105.76 33.52 105.97 32.31 107.17 C 31.15 110.46 31.70 114.02 31.49 117.44 C 31.14 117.21 30.42 116.77 30.07 116.55 Z" />
<path fill="#000000" d=" M 61.35 105.37 C 64.03 104.09 67.18 106.29 67.69 109.03 C 68.79 112.29 66.95 117.04 63.04 117.02 C 57.33 116.82 56.45 107.45 61.35 105.37 Z" />
<path fill="#000000" d=" M 80.31 105.39 C 82.99 104.08 86.17 106.28 86.69 109.02 C 87.81 112.35 85.92 117.14 81.92 117.02 C 76.33 116.65 75.50 107.49 80.31 105.39 Z" />
<path fill="#000000" d=" M 89.83 116.86 C 89.88 112.94 89.91 109.02 89.92 105.11 C 92.62 105.89 95.47 104.79 98.14 105.86 C 98.58 109.51 98.85 113.19 98.55 116.86 C 98.16 116.91 97.38 117.00 96.99 117.05 C 96.55 113.68 97.50 110.11 96.28 106.89 C 95.71 106.75 94.56 106.46 93.98 106.32 C 90.06 107.98 92.08 113.58 91.57 117.00 C 91.14 116.97 90.26 116.89 89.83 116.86 Z" />
<path fill="#898989" d=" M 159.02 107.91 C 159.91 107.08 160.82 106.27 161.74 105.46 C 162.37 105.81 163.63 106.50 164.26 106.84 C 164.51 110.56 165.36 114.33 164.45 118.02 C 164.99 114.15 164.02 110.33 162.69 106.73 C 161.77 107.02 159.94 107.62 159.02 107.91 Z" />
<path fill="#d97515" d=" M 49.21 115.13 C 48.92 112.39 47.30 107.48 51.00 106.53 C 54.86 106.29 54.62 111.33 53.81 113.86 C 53.22 115.87 50.75 115.19 49.21 115.13 Z" />
<path fill="#d97515" d=" M 61.20 107.11 C 66.67 103.85 68.25 115.14 63.03 115.53 C 59.24 115.04 59.25 109.49 61.20 107.11 Z" />
<path fill="#d97515" d=" M 80.18 107.08 C 85.69 103.86 87.26 115.25 82.00 115.51 C 78.22 114.95 78.28 109.50 80.18 107.08 Z" />
<path fill="#eeeeee" d=" M 117.58 110.69 C 119.35 109.00 121.47 107.25 124.11 108.08 C 127.14 108.74 127.79 112.13 127.96 114.74 C 125.11 114.84 122.25 114.83 119.40 114.88 C 119.65 115.58 120.15 116.99 120.40 117.69 C 121.93 120.17 125.13 118.47 127.40 118.51 C 127.30 121.86 123.26 121.07 121.01 120.76 C 116.79 119.41 116.95 114.24 117.58 110.69 Z" />
<path fill="#eeeeee" d=" M 134.01 120.83 C 128.77 119.12 128.82 109.95 134.00 108.19 C 136.04 107.88 139.31 107.29 139.47 110.27 C 137.43 110.34 134.76 109.22 133.30 111.23 C 132.44 113.25 132.37 115.70 133.25 117.72 C 134.64 119.94 137.52 118.60 139.59 118.66 C 139.28 121.57 136.13 121.20 134.01 120.83 Z" />
<path fill="#eeeeee" d=" M 170.35 108.43 C 172.61 107.53 175.59 107.78 177.17 109.81 C 180.18 113.51 178.63 121.38 172.95 121.04 C 166.48 121.38 165.15 111.05 170.35 108.43 Z" />
<path fill="#eeeeee" d=" M 180.45 107.80 C 183.74 107.10 184.54 110.52 185.99 112.60 C 187.46 110.54 188.30 107.15 191.55 107.79 C 190.19 109.99 188.76 112.14 187.33 114.28 C 188.79 116.59 190.30 118.88 191.74 121.21 C 188.35 121.83 187.55 118.19 186.00 116.08 C 184.43 118.19 183.64 121.86 180.23 121.20 C 181.66 118.88 183.16 116.60 184.65 114.31 C 183.22 112.16 181.79 110.00 180.45 107.80 Z" />
<path fill="#000000" d=" M 119.31 112.89 C 120.19 111.47 120.88 109.31 123.03 109.92 C 124.71 109.66 124.81 111.92 125.62 112.92 C 123.52 112.99 121.41 112.98 119.31 112.89 Z" />
<path fill="#898989" d=" M 155.90 111.82 C 156.92 111.05 157.93 110.28 158.98 109.55 C 158.18 111.37 157.33 113.18 156.45 114.97 C 156.31 114.19 156.04 112.61 155.90 111.82 Z" />
<path fill="#000000" d=" M 171.26 110.14 C 176.66 107.80 178.08 117.25 174.06 119.00 C 169.05 120.47 168.32 112.51 171.26 110.14 Z" />
<path fill="#000000" d=" M 161.39 114.12 C 161.64 113.41 161.90 112.70 162.16 111.99 C 162.47 114.39 162.45 116.86 161.15 118.99 C 160.41 118.92 158.93 118.77 158.19 118.70 C 158.78 118.11 159.36 117.51 159.94 116.92 C 160.42 115.98 160.90 115.05 161.39 114.12 Z" />
<path fill="#898989" d=" M 151.65 120.66 C 152.46 119.19 153.25 117.70 153.98 116.18 C 153.90 118.23 153.71 120.28 153.57 122.33 C 154.83 121.82 156.10 121.31 157.37 120.80 C 157.68 120.82 158.29 120.86 158.59 120.88 C 157.73 121.75 156.88 122.63 156.03 123.52 C 154.28 123.54 152.89 122.58 151.98 121.13 L 151.65 120.66 Z" />
<path fill="#898989" d=" M 30.46 141.27 C 32.84 139.69 35.38 141.56 37.45 142.74 C 40.67 144.79 44.28 146.31 47.16 148.85 C 47.36 150.03 47.38 151.22 47.45 152.41 C 45.64 152.59 43.67 153.11 42.06 151.97 C 38.49 149.85 34.78 147.95 31.29 145.72 C 29.66 144.85 29.97 142.72 30.46 141.27 Z" />
<path fill="#898989" d=" M 53.06 139.89 C 57.71 139.90 63.18 138.65 67.01 142.04 C 84.11 155.96 100.91 170.26 118.39 183.70 C 121.71 186.63 123.16 190.97 125.24 194.76 C 124.76 194.72 123.81 194.66 123.33 194.63 C 121.26 197.16 118.63 199.09 116.09 201.10 C 119.34 207.74 124.82 212.90 129.03 218.91 C 135.09 226.57 140.93 234.41 147.34 241.80 C 147.88 241.25 148.95 240.16 149.48 239.62 C 148.36 234.96 145.30 231.14 143.03 227.02 C 139.62 220.82 135.86 214.82 132.46 208.61 C 130.16 204.40 127.05 200.58 125.64 195.92 C 126.56 196.79 127.45 197.71 128.08 198.82 C 134.33 209.86 140.88 220.72 147.11 231.78 C 148.48 234.38 150.54 236.83 150.79 239.87 C 150.14 241.63 148.15 242.04 146.63 242.74 C 135.75 229.80 125.57 216.28 115.26 202.89 C 112.46 198.36 108.04 195.29 104.45 191.46 C 87.44 174.15 69.85 157.41 53.06 139.89 Z" />
<path fill="#eeeeee" d=" M 55.10 140.57 C 57.71 140.53 60.35 140.27 62.93 140.78 C 64.80 141.53 66.26 143.00 67.81 144.24 C 84.02 157.33 99.91 170.82 116.36 183.62 C 118.68 185.43 121.11 187.88 121.00 191.05 C 121.28 194.07 118.68 196.33 116.09 197.26 C 113.06 197.55 110.41 195.63 108.33 193.65 C 90.69 175.86 72.69 158.42 55.10 140.57 Z" />
<path fill="#eeeeee" d=" M 31.39 142.38 C 32.59 140.76 34.54 142.62 35.87 143.12 C 39.49 145.32 43.48 147.05 46.61 149.97 C 46.22 150.46 45.43 151.42 45.04 151.91 C 40.65 150.28 36.76 147.58 32.69 145.32 C 31.86 144.80 29.89 143.22 31.39 142.38 Z" />
<path fill="#eeeeee" d=" M 192.45 142.52 C 194.36 141.60 196.43 141.27 198.53 141.23 C 198.52 142.21 198.50 144.16 198.49 145.13 C 197.90 145.37 196.72 145.85 196.12 146.09 C 195.66 146.41 194.73 147.06 194.27 147.38 C 193.43 147.80 192.60 148.21 191.77 148.64 C 191.29 148.90 190.32 149.43 189.83 149.70 C 188.98 150.28 188.13 150.88 187.30 151.48 C 185.80 152.04 184.25 152.40 182.68 152.63 C 182.59 151.70 182.40 149.83 182.31 148.90 C 183.46 148.11 184.69 147.43 185.84 146.63 C 186.73 146.20 187.62 145.77 188.51 145.35 L 188.63 144.44 C 189.09 144.48 189.99 144.57 190.45 144.61 L 190.56 143.38 C 191.01 143.43 191.91 143.52 192.36 143.56 L 192.45 142.52 Z" />
<path fill="#898989" d=" M 19.44 193.21 C 16.38 192.78 16.72 187.83 19.81 187.80 C 24.57 187.57 29.35 187.60 34.11 187.79 C 36.11 187.74 36.46 190.00 36.81 191.49 C 36.37 191.94 35.50 192.85 35.06 193.31 C 29.86 193.27 24.63 193.63 19.44 193.21 Z" />
<path fill="#eeeeee" d=" M 193.37 188.47 C 199.37 188.32 205.38 188.15 211.37 188.59 C 211.38 189.87 211.38 191.15 211.37 192.43 C 205.39 192.89 199.37 192.70 193.38 192.58 C 193.36 191.20 193.36 189.84 193.37 188.47 Z" />
<path fill="#eeeeee" d=" M 20.01 189.02 C 24.66 188.61 29.38 188.64 34.03 189.02 C 35.77 189.43 36.10 190.38 35.02 191.88 C 29.67 192.62 24.18 192.41 18.80 192.00 C 17.86 190.31 18.26 189.32 20.01 189.02 Z" />
<path fill="#eeeeee" d=" M 116.09 201.10 C 118.63 199.09 121.26 197.16 123.33 194.63 C 123.81 194.66 124.76 194.72 125.24 194.76 C 125.34 195.05 125.54 195.63 125.64 195.92 C 127.05 200.58 130.16 204.40 132.46 208.61 C 135.86 214.82 139.62 220.82 143.03 227.02 C 145.30 231.14 148.36 234.96 149.48 239.62 C 148.95 240.16 147.88 241.25 147.34 241.80 C 140.93 234.41 135.09 226.57 129.03 218.91 C 124.82 212.90 119.34 207.74 116.09 201.10 Z" />
<path fill="#898989" d=" M 42.77 228.80 C 44.39 227.66 46.15 228.85 47.71 229.44 C 47.29 230.65 47.63 232.39 46.34 233.12 C 42.83 235.38 39.14 237.34 35.54 239.46 C 34.03 240.46 32.19 240.45 30.46 240.55 C 30.48 238.84 29.39 236.36 31.39 235.36 C 35.09 233.02 38.95 230.93 42.77 228.80 Z" />
<path fill="#eeeeee" d=" M 182.15 232.41 C 182.08 230.42 182.75 228.59 184.94 228.23 C 185.91 228.92 186.88 229.60 187.86 230.27 C 188.36 230.53 189.35 231.06 189.84 231.32 C 190.64 231.78 191.43 232.24 192.23 232.69 C 192.70 232.97 193.63 233.52 194.09 233.79 C 195.53 234.54 196.97 235.28 198.42 235.99 C 198.47 236.92 198.57 238.78 198.62 239.71 C 196.74 239.67 194.72 239.89 193.12 238.70 C 192.26 238.21 191.39 237.73 190.52 237.26 L 190.40 236.42 C 189.95 236.47 189.06 236.56 188.61 236.61 L 188.45 235.72 C 186.80 234.91 185.17 234.07 183.52 233.26 L 183.51 232.38 L 182.15 232.41 Z" />
<path fill="#eeeeee" d=" M 43.09 229.92 C 44.50 228.41 47.27 229.84 46.01 231.83 C 41.61 234.70 37.11 237.80 32.11 239.47 C 31.75 239.10 31.04 238.36 30.69 237.99 C 33.74 234.06 39.00 232.59 43.09 229.92 Z" />
<path fill="#898989" d=" M 152.54 261.78 C 151.42 259.74 153.17 258.04 154.99 257.42 C 157.70 258.45 158.63 261.44 160.08 263.68 C 161.83 267.18 164.93 270.39 164.56 274.59 C 162.95 274.65 161.34 274.71 159.73 274.74 C 157.55 270.30 154.74 266.20 152.54 261.78 Z" />
<path fill="#eeeeee" d=" M 72.48 258.19 C 74.43 258.50 77.52 258.12 76.41 261.12 C 74.14 265.66 71.24 269.87 69.04 274.46 C 68.09 274.48 66.20 274.52 65.25 274.54 C 64.94 271.57 66.38 269.04 67.81 266.57 L 68.65 266.50 C 68.58 266.05 68.46 265.14 68.40 264.68 L 69.38 264.55 C 69.79 263.64 70.20 262.74 70.62 261.83 C 71.23 260.93 71.85 260.04 72.47 259.15 L 72.48 258.19 Z" />
<path fill="#eeeeee" d=" M 152.86 259.43 C 154.18 259.42 156.04 258.56 156.70 260.27 C 159.03 264.09 161.48 267.90 163.24 272.02 C 164.16 273.50 161.49 275.47 160.65 273.46 C 157.63 269.06 155.06 264.30 152.86 259.43 Z" />
<path fill="#eeeeee" d=" M 112.46 269.42 C 113.84 269.39 115.21 269.38 116.60 269.38 C 116.71 275.38 116.92 281.39 116.44 287.38 C 115.16 287.38 113.88 287.38 112.60 287.37 C 112.15 281.40 112.33 275.40 112.46 269.42 Z" />
</svg>
