<?xml version="1.0" encoding="UTF-8" ?>
<!DOCTYPE svg PUBLIC "-//W3C//DTD SVG 1.1//EN" "http://www.w3.org/Graphics/SVG/1.1/DTD/svg11.dtd">
<svg width="265pt" height="444pt" viewBox="0 0 265 444" version="1.1" xmlns="http://www.w3.org/2000/svg">
<path fill="#000000" d=" M 0.00 0.00 L 256.63 0.00 C 256.21 0.35 255.38 1.04 254.96 1.39 C 254.48 1.57 253.53 1.95 253.05 2.14 C 253.04 4.03 253.03 5.91 253.02 7.80 C 252.98 10.57 253.00 13.33 253.05 16.10 C 255.90 16.00 258.75 15.92 261.60 15.86 C 261.60 13.56 261.59 11.26 261.58 8.96 C 261.56 6.55 261.57 4.15 261.58 1.75 C 260.98 1.76 259.78 1.79 259.18 1.80 C 259.14 1.35 259.08 0.45 259.04 0.00 L 265.00 0.00 L 265.00 20.64 C 176.67 20.63 88.33 20.64 0.00 20.63 L 0.00 0.00 Z" />
<path fill="#cbcbcb" d=" M 256.63 0.00 L 259.04 0.00 C 259.08 0.45 259.14 1.35 259.18 1.80 C 259.78 1.79 260.98 1.76 261.58 1.75 C 261.57 4.15 261.56 6.55 261.58 8.96 L 259.96 9.03 C 258.44 7.74 258.59 5.80 258.62 4.01 C 257.87 4.00 256.36 3.97 255.60 3.96 C 255.43 5.56 255.26 7.16 255.20 8.76 C 254.66 8.52 253.56 8.04 253.02 7.80 C 253.03 5.91 253.04 4.03 253.05 2.14 C 253.53 1.95 254.48 1.57 254.96 1.39 C 255.38 1.04 256.21 0.35 256.63 0.00 Z" />
<path fill="#f0f0f0" d=" M 255.60 3.96 C 256.36 3.97 257.87 4.00 258.62 4.01 C 258.59 5.80 258.44 7.74 259.96 9.03 C 258.60 10.42 257.34 11.90 256.10 13.39 C 256.03 12.59 255.89 10.98 255.82 10.18 C 255.67 9.83 255.36 9.12 255.20 8.76 C 255.26 7.16 255.43 5.56 255.60 3.96 Z" />
<path fill="#3b5995" d=" M 234.95 4.31 C 239.01 4.26 243.07 4.24 247.14 4.34 C 246.87 5.60 246.34 6.71 245.57 7.65 C 242.50 8.12 239.40 8.40 236.31 8.71 C 235.85 7.24 235.39 5.78 234.95 4.31 Z" />
<path fill="#3d5c99" d=" M 236.31 8.71 C 239.40 8.40 242.50 8.12 245.57 7.65 C 244.71 11.40 243.36 15.06 241.02 18.15 C 238.69 15.42 237.55 12.00 236.31 8.71 Z" />
<path fill="#aaaaaa" d=" M 253.02 7.80 C 253.56 8.04 254.66 8.52 255.20 8.76 C 255.36 9.12 255.67 9.83 255.82 10.18 C 255.89 10.98 256.03 12.59 256.10 13.39 C 257.34 11.90 258.60 10.42 259.96 9.03 L 261.58 8.96 C 261.59 11.26 261.60 13.56 261.60 15.86 C 258.75 15.92 255.90 16.00 253.05 16.10 C 253.00 13.33 252.98 10.57 253.02 7.80 Z" />
<path fill="#939494" d=" M 0.00 20.63 C 88.33 20.64 176.67 20.63 265.00 20.64 L 265.00 32.82 C 219.98 32.84 174.95 32.84 129.93 32.80 C 124.28 32.83 118.61 32.60 112.97 33.13 C 111.53 31.98 110.11 30.82 108.67 29.66 C 109.97 29.59 111.27 29.51 112.57 29.41 C 110.64 28.01 108.03 27.24 106.78 29.89 C 106.47 30.31 105.86 31.16 105.55 31.58 C 105.58 30.03 105.57 28.48 105.56 26.94 C 103.85 27.39 102.14 27.85 100.43 28.30 C 100.26 30.19 100.10 32.08 99.93 33.97 C 100.52 34.14 101.70 34.48 102.29 34.65 C 100.82 34.92 99.35 35.19 97.86 35.34 C 96.81 34.01 96.06 32.47 95.31 30.95 C 94.55 29.63 94.13 27.30 92.07 28.06 C 89.59 28.13 89.86 31.32 89.50 33.07 C 89.13 32.00 88.80 30.92 88.52 29.83 C 88.49 29.30 88.44 28.24 88.41 27.71 C 87.42 29.02 86.44 30.33 85.45 31.64 C 85.06 30.57 84.28 28.43 83.89 27.36 C 83.80 28.74 83.87 30.12 83.96 31.50 C 83.62 31.17 82.93 30.52 82.58 30.20 C 82.30 29.95 81.74 29.45 81.46 29.20 C 80.21 30.23 78.92 31.20 77.63 32.19 C 78.47 32.11 80.14 31.96 80.98 31.88 C 80.81 32.60 80.45 34.03 80.27 34.74 C 77.16 35.16 74.01 35.29 70.87 35.36 C 70.86 33.98 70.85 32.60 70.84 31.22 C 70.00 32.50 69.16 33.77 68.32 35.05 C 68.02 33.72 67.71 32.40 67.41 31.08 C 67.24 32.09 66.89 34.12 66.72 35.13 C 65.71 33.65 64.72 32.16 63.71 30.67 C 62.85 29.27 61.51 28.27 60.28 27.22 C 60.92 28.34 61.61 29.44 62.20 30.59 C 61.49 30.92 60.06 31.57 59.35 31.90 C 59.25 32.57 59.15 33.24 59.06 33.91 C 60.12 32.99 61.18 32.08 62.25 31.16 C 62.05 31.83 61.64 33.18 61.44 33.86 C 61.98 33.85 63.05 33.83 63.59 33.82 L 63.52 34.50 C 59.88 35.46 55.79 37.05 52.23 34.97 C 50.38 34.74 48.52 34.62 46.67 34.45 C 46.93 33.38 47.18 32.31 47.44 31.24 C 46.95 31.15 45.97 30.97 45.48 30.88 C 45.49 29.33 45.25 27.73 44.10 26.59 C 43.48 28.85 43.69 31.23 44.40 33.45 C 42.16 34.67 39.68 35.21 37.15 35.29 C 37.02 33.99 36.89 32.70 36.77 31.41 C 35.71 32.88 34.74 34.61 33.05 35.44 C 30.82 35.41 30.14 33.08 29.24 31.47 C 28.96 31.58 28.41 31.79 28.14 31.89 C 28.45 30.44 28.62 28.97 28.86 27.50 C 28.03 29.07 27.22 30.64 26.41 32.22 C 25.78 30.75 25.14 29.28 24.51 27.81 C 24.28 28.70 24.06 29.60 23.84 30.49 C 23.44 32.09 23.05 33.69 22.66 35.29 C 21.07 35.03 19.48 34.80 17.92 34.42 C 18.82 33.41 19.73 32.40 20.63 31.39 C 20.65 32.28 20.68 34.07 20.70 34.96 C 22.50 32.93 22.11 30.15 22.19 27.65 C 20.52 28.17 18.86 28.70 17.20 29.25 C 18.60 29.29 20.01 29.32 21.41 29.34 C 19.71 30.64 18.02 31.94 16.46 33.40 L 16.20 33.66 C 16.22 30.81 15.86 27.97 15.20 25.20 C 15.04 28.33 15.22 31.46 15.32 34.59 C 12.02 37.77 6.82 34.98 2.81 34.95 C 3.06 33.90 3.30 32.84 3.55 31.79 C 2.36 31.71 1.18 31.63 0.00 31.54 L 0.00 20.63 Z" />
<path fill="#d8d8d8" d=" M 4.68 26.01 C 6.57 24.49 9.71 28.33 7.55 29.36 C 6.70 28.23 5.01 27.34 4.68 26.01 Z" />
<path fill="#bbbbbb" d=" M 15.20 25.20 C 15.86 27.97 16.22 30.81 16.20 33.66 L 15.32 34.59 C 15.22 31.46 15.04 28.33 15.20 25.20 Z" />
<path fill="#b8b8b8" d=" M 44.10 26.59 C 45.25 27.73 45.49 29.33 45.48 30.88 C 45.33 31.90 45.02 33.93 44.87 34.95 C 44.75 34.58 44.52 33.82 44.40 33.45 C 43.69 31.23 43.48 28.85 44.10 26.59 Z" />
<path fill="#a6a6a6" d=" M 100.43 28.30 C 102.14 27.85 103.85 27.39 105.56 26.94 C 105.57 28.48 105.58 30.03 105.55 31.58 C 105.45 32.98 105.33 34.38 105.20 35.78 C 103.68 33.72 102.81 31.31 102.17 28.86 C 102.23 30.79 102.26 32.72 102.29 34.65 C 101.70 34.48 100.52 34.14 99.93 33.97 C 100.10 32.08 100.26 30.19 100.43 28.30 Z" />
<path fill="#b0b0b0" d=" M 17.20 29.25 C 18.86 28.70 20.52 28.17 22.19 27.65 C 22.11 30.15 22.50 32.93 20.70 34.96 C 20.68 34.07 20.65 32.28 20.63 31.39 C 19.73 32.40 18.82 33.41 17.92 34.42 C 17.55 34.17 16.82 33.66 16.46 33.40 C 18.02 31.94 19.71 30.64 21.41 29.34 C 20.01 29.32 18.60 29.29 17.20 29.25 Z" />
<path fill="#afafaf" d=" M 23.84 30.49 C 24.06 29.60 24.28 28.70 24.51 27.81 C 25.14 29.28 25.78 30.75 26.41 32.22 C 27.22 30.64 28.03 29.07 28.86 27.50 C 28.62 28.97 28.45 30.44 28.14 31.89 C 27.52 34.31 26.07 36.36 24.03 37.79 C 24.61 36.53 25.20 35.28 25.80 34.04 C 25.15 32.85 24.49 31.67 23.84 30.49 Z" />
<path fill="#b7b7b7" d=" M 41.37 28.56 C 42.87 29.43 42.39 32.41 41.56 33.81 C 40.44 34.92 40.46 32.46 40.62 31.91 C 40.63 30.72 40.88 29.61 41.37 28.56 Z" />
<path fill="#c7c7c7" d=" M 60.28 27.22 C 61.51 28.27 62.85 29.27 63.71 30.67 C 63.68 31.46 63.62 33.03 63.59 33.82 C 63.05 33.83 61.98 33.85 61.44 33.86 C 61.64 33.18 62.05 31.83 62.25 31.16 C 61.18 32.08 60.12 32.99 59.06 33.91 C 59.15 33.24 59.25 32.57 59.35 31.90 C 60.06 31.57 61.49 30.92 62.20 30.59 C 61.61 29.44 60.92 28.34 60.28 27.22 Z" />
<path fill="#aeaeae" d=" M 83.96 31.50 C 83.87 30.12 83.80 28.74 83.89 27.36 C 84.28 28.43 85.06 30.57 85.45 31.64 C 86.44 30.33 87.42 29.02 88.41 27.71 C 88.44 28.24 88.49 29.30 88.52 29.83 C 87.60 32.61 86.17 35.17 84.70 37.69 C 84.53 35.62 84.31 33.55 83.96 31.50 Z" />
<path fill="#b0b0b0" d=" M 89.50 33.07 C 89.86 31.32 89.59 28.13 92.07 28.06 C 94.13 27.30 94.55 29.63 95.31 30.95 C 95.08 32.15 94.76 33.32 94.38 34.48 C 92.65 35.00 90.36 34.98 89.50 33.07 Z" />
<path fill="#a7a7a7" d=" M 106.78 29.89 C 108.03 27.24 110.64 28.01 112.57 29.41 C 111.27 29.51 109.97 29.59 108.67 29.66 C 110.11 30.82 111.53 31.98 112.97 33.13 C 111.27 34.38 109.26 34.80 107.19 34.69 C 107.03 33.09 106.88 31.49 106.78 29.89 Z" />
<path fill="#b5b5b5" d=" M 81.46 29.20 C 81.74 29.45 82.30 29.95 82.58 30.20 C 82.34 31.64 82.11 33.08 81.88 34.53 C 81.48 34.58 80.68 34.69 80.27 34.74 C 80.45 34.03 80.81 32.60 80.98 31.88 C 80.14 31.96 78.47 32.11 77.63 32.19 C 78.92 31.20 80.21 30.23 81.46 29.20 Z" />
<path fill="#8f8f8e" d=" M 92.21 29.40 C 94.31 28.94 94.47 33.05 92.74 34.03 C 90.78 33.49 90.11 30.04 92.21 29.40 Z" />
<path fill="#848383" d=" M 102.17 28.86 C 102.81 31.31 103.68 33.72 105.20 35.78 C 105.33 34.38 105.45 32.98 105.55 31.58 C 105.86 31.16 106.47 30.31 106.78 29.89 C 106.88 31.49 107.03 33.09 107.19 34.69 C 109.26 34.80 111.27 34.38 112.97 33.13 C 118.61 32.60 124.28 32.83 129.93 32.80 C 174.95 32.84 219.98 32.84 265.00 32.82 L 265.00 40.98 C 176.67 40.98 88.33 40.98 0.00 40.98 L 0.00 31.54 C 1.18 31.63 2.36 31.71 3.55 31.79 C 3.30 32.84 3.06 33.90 2.81 34.95 C 6.82 34.98 12.02 37.77 15.32 34.59 L 16.20 33.66 L 16.46 33.40 C 16.82 33.66 17.55 34.17 17.92 34.42 C 19.48 34.80 21.07 35.03 22.66 35.29 C 23.05 33.69 23.44 32.09 23.84 30.49 C 24.49 31.67 25.15 32.85 25.80 34.04 C 25.20 35.28 24.61 36.53 24.03 37.79 C 26.07 36.36 27.52 34.31 28.14 31.89 C 28.41 31.79 28.96 31.58 29.24 31.47 C 30.14 33.08 30.82 35.41 33.05 35.44 C 34.74 34.61 35.71 32.88 36.77 31.41 C 36.89 32.70 37.02 33.99 37.15 35.29 C 39.68 35.21 42.16 34.67 44.40 33.45 C 44.52 33.82 44.75 34.58 44.87 34.95 C 45.02 33.93 45.33 31.90 45.48 30.88 C 45.97 30.97 46.95 31.15 47.44 31.24 C 47.18 32.31 46.93 33.38 46.67 34.45 C 48.52 34.62 50.38 34.74 52.23 34.97 C 55.79 37.05 59.88 35.46 63.52 34.50 L 63.59 33.82 C 63.62 33.03 63.68 31.46 63.71 30.67 C 64.72 32.16 65.71 33.65 66.72 35.13 C 66.89 34.12 67.24 32.09 67.41 31.08 C 67.71 32.40 68.02 33.72 68.32 35.05 C 69.16 33.77 70.00 32.50 70.84 31.22 C 70.85 32.60 70.86 33.98 70.87 35.36 C 74.01 35.29 77.16 35.16 80.27 34.74 C 80.68 34.69 81.48 34.58 81.88 34.53 C 82.11 33.08 82.34 31.64 82.58 30.20 C 82.93 30.52 83.62 31.17 83.96 31.50 C 84.31 33.55 84.53 35.62 84.70 37.69 C 86.17 35.17 87.60 32.61 88.52 29.83 C 88.80 30.92 89.13 32.00 89.50 33.07 C 90.36 34.98 92.65 35.00 94.38 34.48 C 94.76 33.32 95.08 32.15 95.31 30.95 C 96.06 32.47 96.81 34.01 97.86 35.34 C 99.35 35.19 100.82 34.92 102.29 34.65 C 102.26 32.72 102.23 30.79 102.17 28.86 Z" />
<path fill="#000000" d=" M 0.00 40.98 C 88.33 40.98 176.67 40.98 265.00 40.98 L 265.00 444.00 L 0.00 444.00 L 0.00 40.98 Z" />
<path fill="#848383" d=" M 131.13 49.20 C 139.47 48.87 147.83 48.94 156.17 49.15 C 156.42 57.14 156.51 65.16 156.20 73.14 C 155.97 75.23 153.32 74.30 151.95 74.59 C 145.06 74.21 138.01 75.25 131.22 74.05 C 130.75 65.79 131.02 57.48 131.13 49.20 Z" />
<path fill="#000000" d=" M 132.06 50.01 C 139.75 49.97 147.46 49.96 155.16 50.01 C 155.18 57.80 155.17 65.58 155.16 73.37 C 147.44 73.38 139.72 73.41 132.01 73.35 C 131.99 65.57 131.91 57.79 132.06 50.01 Z" />
<path fill="#ffffff" d=" M 61.67 51.87 L 62.71 50.77 C 62.43 52.68 62.17 54.59 61.91 56.51 C 62.31 56.40 63.12 56.19 63.52 56.08 L 64.33 55.87 C 65.37 71.26 65.87 86.66 66.71 102.06 C 67.01 104.38 66.47 106.65 65.30 108.66 C 63.50 108.64 61.65 108.77 59.93 108.14 C 59.23 106.20 59.11 104.12 59.21 102.08 C 59.81 85.34 60.81 68.55 61.67 51.87 Z" />
<path fill="#bcbcbc" d=" M 62.71 50.77 L 62.82 50.04 C 64.20 51.80 64.83 54.08 63.52 56.08 C 63.12 56.19 62.31 56.40 61.91 56.51 C 62.17 54.59 62.43 52.68 62.71 50.77 Z" />
<path fill="#242424" d=" M 132.97 50.97 C 139.99 50.89 147.01 50.95 154.03 50.97 C 154.09 57.98 153.93 64.98 153.86 71.99 C 146.94 72.23 140.01 72.12 133.10 72.02 C 133.06 65.00 132.94 57.99 132.97 50.97 Z" />
<path fill="#f8f8f8" d=" M 187.66 54.87 C 188.88 55.77 188.72 57.32 188.95 58.66 C 190.23 58.61 191.70 58.13 192.71 59.21 C 193.26 61.63 193.04 64.16 192.66 66.60 C 191.46 64.54 192.00 62.08 191.64 59.84 C 190.94 59.74 189.54 59.53 188.84 59.43 C 188.80 61.55 188.78 63.68 188.76 65.80 C 188.42 65.79 187.76 65.75 187.43 65.74 C 187.45 62.11 187.28 58.48 187.66 54.87 Z" />
<path fill="#f3f3f3" d=" M 209.88 55.66 C 210.07 55.51 210.46 55.21 210.66 55.05 C 211.06 57.21 211.00 59.41 211.05 61.59 C 212.37 60.30 213.68 58.98 215.16 57.87 C 214.45 59.36 213.57 60.75 212.68 62.14 C 213.64 63.11 214.45 64.44 215.82 64.88 C 217.35 61.76 214.98 57.59 217.38 54.80 C 217.45 55.74 217.60 57.61 217.68 58.54 C 222.13 56.80 223.93 63.46 220.74 65.66 C 218.41 65.77 216.08 65.72 213.75 65.74 C 213.01 64.34 212.18 62.99 211.33 61.64 C 211.09 63.30 210.80 64.95 210.48 66.59 C 209.05 63.17 209.78 59.26 209.88 55.66 Z" />
<path fill="#f3f3f3" d=" M 160.23 55.41 C 162.42 57.33 160.85 60.61 161.48 63.11 C 161.44 65.66 164.62 64.39 166.04 64.26 C 166.09 61.51 166.10 58.77 166.10 56.02 L 167.36 55.96 C 167.28 58.64 167.63 61.38 167.03 64.03 C 165.74 66.61 161.59 66.45 160.27 63.94 C 159.87 61.12 160.06 58.24 160.23 55.41 Z" />
<path fill="#fafafa" d=" M 35.04 58.06 C 35.63 58.20 36.82 58.47 37.41 58.60 C 39.22 61.22 40.87 64.03 41.71 67.12 C 41.21 67.19 40.19 67.32 39.68 67.38 C 37.94 64.38 35.66 61.55 35.04 58.06 Z" />
<path fill="#f8f8f8" d=" M 87.93 58.35 C 88.83 58.37 89.73 58.39 90.63 58.41 C 89.28 61.76 87.48 64.93 85.21 67.75 C 84.66 67.18 84.11 66.62 83.55 66.06 C 85.12 63.55 86.59 60.99 87.93 58.35 Z" />
<path fill="#ffffff" d=" M 168.93 58.41 C 169.31 58.52 170.08 58.72 170.46 58.82 C 175.44 56.70 175.49 63.40 174.62 66.53 C 172.91 64.68 173.85 61.98 173.30 59.75 C 172.56 59.66 171.07 59.49 170.32 59.41 C 170.07 61.80 170.57 64.40 169.36 66.61 C 168.84 63.90 168.92 61.15 168.93 58.41 Z" />
<path fill="#f5f5f5" d=" M 183.05 65.94 C 178.89 65.97 178.73 58.53 182.83 58.36 C 184.62 58.09 185.54 60.04 186.38 61.24 C 185.10 60.58 183.86 59.89 182.64 59.15 C 180.83 60.38 180.78 62.55 181.56 64.40 C 183.32 65.60 184.74 63.51 186.33 63.07 C 185.47 64.25 184.75 65.90 183.05 65.94 Z" />
<path fill="#fbfbfb" d=" M 196.86 58.03 C 199.25 58.30 200.76 59.76 201.06 62.14 C 199.24 62.19 197.43 62.27 195.62 62.38 C 196.23 65.18 198.94 64.70 200.99 64.61 C 199.68 65.51 197.95 66.48 196.43 65.38 C 194.31 64.22 195.32 61.28 194.77 59.41 C 196.05 61.12 197.85 61.77 200.01 61.42 L 197.98 58.92 L 196.52 60.93 C 196.61 60.21 196.78 58.76 196.86 58.03 Z" />
<path fill="#f3f3f3" d=" M 204.50 58.45 C 206.41 57.78 207.92 59.65 208.46 61.27 C 207.17 60.56 205.89 59.83 204.62 59.08 C 203.20 60.82 202.45 63.63 204.85 64.97 C 205.70 64.49 207.40 63.54 208.25 63.06 C 207.76 64.55 206.78 66.10 204.96 65.94 C 201.30 65.46 200.99 59.34 204.50 58.45 Z" />
<path fill="#f8f8f8" d=" M 225.54 58.73 C 229.90 56.57 232.14 64.25 227.96 65.74 C 223.84 67.10 222.24 60.40 225.54 58.73 Z" />
<path fill="#fbfbfb" d=" M 231.35 57.97 C 232.43 58.86 233.43 59.84 234.44 60.82 C 235.24 59.76 236.11 58.75 237.04 57.78 C 236.55 59.29 235.83 60.69 235.10 62.09 C 235.88 63.49 236.67 64.89 237.26 66.39 C 236.11 65.51 235.17 64.45 234.43 63.21 C 233.45 64.36 232.49 65.55 231.22 66.38 C 231.88 64.93 232.66 63.52 233.44 62.12 C 232.71 60.75 231.98 59.39 231.35 57.97 Z" />
<path fill="#000000" d=" M 217.69 64.78 C 217.95 62.88 216.56 58.28 220.12 59.70 C 222.29 61.69 221.01 65.62 217.69 64.78 Z" />
<path fill="#000000" d=" M 225.98 59.82 C 227.27 58.38 229.24 60.47 228.98 61.91 C 229.55 64.11 226.89 65.83 225.28 64.09 C 225.33 62.76 224.38 60.47 225.98 59.82 Z" />
<path fill="#f8f8f8" d=" M 16.09 77.03 C 19.42 78.51 23.89 79.68 25.48 83.24 C 22.07 84.27 19.32 81.00 16.47 79.62 C 16.37 78.97 16.18 77.68 16.09 77.03 Z" />
<path fill="#f3f3f3" d=" M 103.08 79.98 C 105.02 78.78 107.08 77.73 109.29 77.12 C 109.36 77.66 109.51 78.74 109.58 79.28 C 106.57 80.72 103.94 83.55 100.45 83.58 C 99.66 81.62 101.82 80.87 103.08 79.98 Z" />
<path fill="#f5f5f5" d=" M 9.54 103.54 C 12.47 103.54 15.39 103.54 18.32 103.52 C 18.62 103.89 19.21 104.64 19.50 105.01 C 19.17 105.31 18.50 105.91 18.17 106.21 C 15.39 106.22 12.62 106.22 9.84 106.23 C 9.50 105.92 8.81 105.31 8.46 105.00 C 8.73 104.64 9.27 103.90 9.54 103.54 Z" />
<path fill="#f5f5f5" d=" M 106.57 106.22 C 106.53 105.34 106.49 104.46 106.46 103.58 C 109.74 103.52 113.02 103.53 116.31 103.57 C 116.39 104.13 116.54 105.27 116.62 105.84 C 113.30 106.37 109.93 106.24 106.57 106.22 Z" />
<path fill="#f9f9f9" d=" M 15.45 130.94 C 18.68 129.08 21.79 125.58 25.84 126.56 C 23.65 129.64 19.95 130.97 16.74 132.69 C 16.42 132.25 15.77 131.38 15.45 130.94 Z" />
<path fill="#fbfbfb" d=" M 100.49 125.98 C 103.76 126.57 106.36 128.76 109.31 130.12 C 109.35 130.98 109.39 131.85 109.42 132.72 C 106.18 131.77 103.38 129.82 100.49 128.14 C 100.49 127.60 100.49 126.52 100.49 125.98 Z" />
<path fill="#fafafa" d=" M 39.56 142.62 C 40.77 142.31 42.02 142.40 41.39 144.00 C 40.39 146.73 38.55 149.08 37.17 151.63 C 36.63 151.57 35.53 151.45 34.99 151.39 C 35.97 148.22 37.66 145.32 39.56 142.62 Z" />
<path fill="#f9f9f9" d=" M 84.72 142.40 C 85.05 142.46 85.73 142.60 86.07 142.67 C 87.48 145.22 89.06 147.68 90.31 150.32 C 90.56 151.69 88.86 151.30 88.09 151.71 C 86.76 149.00 85.26 146.38 83.59 143.87 C 83.87 143.50 84.43 142.76 84.72 142.40 Z" />
<path fill="#fbfbfb" d=" M 61.47 158.43 C 61.53 155.31 61.06 152.11 61.70 149.05 L 63.37 148.02 C 64.39 151.54 64.38 155.22 63.60 158.78 C 63.06 158.70 62.00 158.52 61.47 158.43 Z" />
<path fill="#d8d8d8" d=" M 2.21 171.04 C 22.13 170.93 42.05 170.97 61.97 171.02 C 61.98 177.11 62.03 183.21 61.89 189.31 C 61.38 188.10 60.83 186.90 60.28 185.71 C 58.54 186.82 56.78 187.92 55.12 189.16 C 54.82 187.82 54.93 186.23 53.88 185.20 C 52.52 185.02 51.16 184.89 49.79 184.81 C 49.78 186.85 49.77 188.90 49.88 190.94 C 49.65 190.64 49.21 190.04 48.99 189.74 C 48.42 187.80 47.60 185.94 46.35 184.34 L 47.56 182.37 C 46.13 183.70 44.60 184.96 43.39 186.50 C 42.71 188.03 43.44 189.77 43.42 191.37 C 42.99 191.36 42.12 191.33 41.68 191.31 C 41.12 189.83 40.68 188.30 40.23 186.78 C 40.76 186.44 41.82 185.76 42.35 185.42 C 41.79 185.11 40.66 184.47 40.10 184.16 C 38.95 184.96 37.81 185.78 36.67 186.59 L 36.37 184.34 C 34.63 185.08 32.99 186.02 31.62 187.35 L 31.04 186.57 C 30.71 186.17 30.05 185.36 29.73 184.95 C 29.11 184.95 27.87 184.94 27.25 184.94 C 26.99 184.07 26.47 182.33 26.21 181.46 L 25.92 182.39 C 24.89 185.52 24.88 188.84 24.76 192.10 C 23.71 191.81 22.66 191.51 21.62 191.19 C 21.44 189.20 21.42 187.19 20.91 185.25 C 19.39 185.16 17.87 185.24 16.35 185.26 C 16.37 187.09 16.39 188.91 16.36 190.74 L 15.19 190.29 C 14.90 187.57 14.89 184.82 14.53 182.11 C 13.85 184.70 13.92 187.40 13.44 190.03 C 8.52 192.59 10.14 184.79 9.35 182.15 C 8.87 184.15 8.68 186.20 8.56 188.25 C 6.76 187.47 4.96 186.70 3.16 185.94 C 2.87 192.07 2.97 198.22 2.40 204.33 C 2.08 193.24 2.33 182.14 2.21 171.04 Z" />
<path fill="#c7c7c7" d=" M 24.76 192.10 C 24.88 188.84 24.89 185.52 25.92 182.39 C 25.96 185.33 25.96 188.28 25.97 191.23 C 27.58 191.19 29.19 191.16 30.80 191.09 C 30.89 189.58 30.97 188.08 31.04 186.57 L 31.62 187.35 C 32.38 189.58 33.92 192.40 36.69 191.02 C 37.61 189.29 38.20 187.40 39.08 185.66 C 39.42 187.51 39.72 189.37 39.98 191.24 C 40.40 191.26 41.26 191.29 41.68 191.31 C 42.12 191.33 42.99 191.36 43.42 191.37 C 45.41 191.42 47.37 190.93 48.99 189.74 C 49.21 190.04 49.65 190.64 49.88 190.94 L 50.58 191.92 C 50.84 189.92 50.80 187.86 51.45 185.93 C 54.52 185.77 53.71 189.84 54.46 191.88 C 54.63 191.20 54.96 189.84 55.12 189.16 C 56.78 187.92 58.54 186.82 60.28 185.71 C 60.83 186.90 61.38 188.10 61.89 189.31 C 62.19 194.45 61.96 199.61 61.92 204.75 C 42.07 204.83 22.22 204.70 2.36 204.82 L 2.40 204.33 C 2.97 198.22 2.87 192.07 3.16 185.94 C 4.96 186.70 6.76 187.47 8.56 188.25 C 8.81 189.07 9.13 189.87 9.51 190.64 C 11.20 192.13 13.39 190.79 15.19 190.29 L 16.36 190.74 C 16.60 190.82 17.07 190.99 17.30 191.07 C 17.78 189.08 16.67 185.05 20.03 186.01 C 20.36 187.57 20.53 189.16 20.78 190.74 C 20.99 190.85 21.41 191.07 21.62 191.19 C 22.66 191.51 23.71 191.81 24.76 192.10 Z" />
<path fill="#000000" d=" M 25.92 182.39 L 26.21 181.46 C 26.47 182.33 26.99 184.07 27.25 184.94 C 27.87 184.94 29.11 184.95 29.73 184.95 C 30.05 185.36 30.71 186.17 31.04 186.57 C 30.97 188.08 30.89 189.58 30.80 191.09 C 29.19 191.16 27.58 191.19 25.97 191.23 C 25.96 188.28 25.96 185.33 25.92 182.39 Z" />
<path fill="#5f5f5f" d=" M 177.01 182.28 C 180.34 182.47 175.43 185.25 177.01 182.28 Z" />
<path fill="#000000" d=" M 8.56 188.25 C 8.68 186.20 8.87 184.15 9.35 182.15 C 10.14 184.79 8.52 192.59 13.44 190.03 C 13.92 187.40 13.85 184.70 14.53 182.11 C 14.89 184.82 14.90 187.57 15.19 190.29 C 13.39 190.79 11.20 192.13 9.51 190.64 C 9.13 189.87 8.81 189.07 8.56 188.25 Z" />
<path fill="#000000" d=" M 43.39 186.50 C 44.60 184.96 46.13 183.70 47.56 182.37 L 46.35 184.34 C 47.60 185.94 48.42 187.80 48.99 189.74 C 47.37 190.93 45.41 191.42 43.42 191.37 C 43.44 189.77 42.71 188.03 43.39 186.50 Z" />
<path fill="#aaaaaa" d=" M 128.58 182.41 C 130.29 185.01 128.19 188.82 130.95 190.86 C 134.87 190.50 133.09 185.83 133.48 183.17 C 133.80 183.14 134.45 183.07 134.77 183.04 C 134.75 185.77 134.69 188.52 134.09 191.20 C 132.32 191.25 130.55 191.25 128.78 191.21 C 128.32 188.30 128.20 185.33 128.58 182.41 Z" />
<path fill="#aaaaaa" d=" M 144.38 183.11 C 146.97 182.93 149.57 182.99 152.16 183.21 C 151.09 183.58 150.02 183.94 148.94 184.29 C 148.93 186.84 148.91 189.40 148.63 191.94 C 147.13 189.66 147.74 186.87 147.64 184.32 C 146.83 184.02 145.19 183.41 144.38 183.11 Z" />
<path fill="#c7c7c7" d=" M 168.39 182.55 C 170.44 184.31 170.72 187.23 171.91 189.54 C 172.94 187.12 173.47 184.42 175.22 182.38 C 174.70 185.67 173.37 188.77 171.79 191.68 C 170.47 188.71 169.18 185.71 168.39 182.55 Z" />
<path fill="#000000" d=" M 36.67 186.59 C 37.81 185.78 38.95 184.96 40.10 184.16 C 40.66 184.47 41.79 185.11 42.35 185.42 C 41.82 185.76 40.76 186.44 40.23 186.78 C 40.68 188.30 41.12 189.83 41.68 191.31 C 41.26 191.29 40.40 191.26 39.98 191.24 C 39.72 189.37 39.42 187.51 39.08 185.66 C 38.20 187.40 37.61 189.29 36.69 191.02 C 33.92 192.40 32.38 189.58 31.62 187.35 C 32.99 186.02 34.63 185.08 36.37 184.34 L 36.67 186.59 Z" />
<path fill="#c7c7c7" d=" M 165.54 184.23 C 166.35 184.58 167.17 184.93 167.99 185.28 C 167.53 185.58 166.62 186.17 166.17 186.47 C 166.20 187.41 166.27 189.30 166.30 190.24 C 166.67 190.56 167.42 191.19 167.79 191.51 C 166.96 191.34 166.13 191.18 165.31 191.02 C 164.85 189.13 166.12 186.21 163.91 185.21 C 163.05 186.08 162.22 186.98 161.42 187.91 C 162.14 189.09 162.85 190.29 163.54 191.50 C 162.92 191.04 161.68 190.11 161.06 189.65 C 160.43 190.10 159.16 191.01 158.53 191.46 C 159.12 190.37 159.72 189.28 160.32 188.20 C 159.65 186.99 159.03 185.75 158.46 184.49 C 159.06 185.10 160.27 186.33 160.88 186.95 C 162.21 185.69 163.90 184.98 165.54 184.23 Z" />
<path fill="#000000" d=" M 16.35 185.26 C 17.87 185.24 19.39 185.16 20.91 185.25 C 21.42 187.19 21.44 189.20 21.62 191.19 C 21.41 191.07 20.99 190.85 20.78 190.74 C 20.53 189.16 20.36 187.57 20.03 186.01 C 16.67 185.05 17.78 189.08 17.30 191.07 C 17.07 190.99 16.60 190.82 16.36 190.74 C 16.39 188.91 16.37 187.09 16.35 185.26 Z" />
<path fill="#000000" d=" M 49.79 184.81 C 51.16 184.89 52.52 185.02 53.88 185.20 C 54.93 186.23 54.82 187.82 55.12 189.16 C 54.96 189.84 54.63 191.20 54.46 191.88 C 53.71 189.84 54.52 185.77 51.45 185.93 C 50.80 187.86 50.84 189.92 50.58 191.92 L 49.88 190.94 C 49.77 188.90 49.78 186.85 49.79 184.81 Z" />
<path fill="#c7c7c7" d=" M 136.01 185.19 C 137.61 185.44 139.64 184.57 140.84 185.99 C 141.16 187.73 141.12 189.51 141.20 191.28 L 140.14 191.20 C 140.11 189.46 140.09 187.72 140.05 185.98 C 136.14 185.10 137.59 189.64 136.48 191.93 C 136.17 189.69 136.12 187.44 136.01 185.19 Z" />
<path fill="#c7c7c7" d=" M 152.43 186.56 C 153.27 185.96 154.14 185.40 155.04 184.88 C 157.07 184.77 157.44 186.97 158.03 188.39 C 156.36 188.51 154.69 188.66 153.03 188.82 C 154.29 190.63 156.30 190.60 158.26 190.58 C 156.64 191.06 154.80 191.87 153.24 190.73 C 152.57 189.45 152.62 187.96 152.43 186.56 Z" />
<path fill="#aaaaaa" d=" M 177.67 191.96 C 176.44 189.63 176.18 186.56 177.74 184.33 C 178.00 186.86 177.97 189.42 177.67 191.96 Z" />
<path fill="#c7c7c7" d=" M 179.38 189.60 C 177.19 186.13 184.30 182.31 184.06 187.76 C 184.69 186.74 185.28 185.70 185.88 184.66 C 186.38 186.31 186.85 187.95 187.37 189.60 C 187.99 187.88 188.65 186.19 189.33 184.49 C 189.57 185.93 190.26 187.12 191.39 188.05 C 191.64 187.29 192.13 185.76 192.38 185.00 L 193.34 185.24 C 192.84 186.51 192.47 187.85 191.66 188.97 C 191.71 189.47 191.81 190.47 191.85 190.97 C 191.55 190.95 190.94 190.92 190.63 190.90 C 190.21 189.62 189.74 188.37 189.16 187.17 C 188.72 188.29 187.82 190.54 187.38 191.66 C 186.68 190.15 186.06 188.59 185.12 187.21 C 183.49 188.36 181.65 188.95 179.62 189.00 C 181.04 190.30 182.71 190.84 184.64 190.63 C 182.91 191.43 180.15 191.97 179.38 189.60 Z" />
<path fill="#cbcbcb" d=" M 27.13 185.57 C 30.04 185.28 31.30 189.23 28.94 190.60 C 26.06 190.98 27.42 187.19 27.13 185.57 Z" />
<path fill="#d8d8d8" d=" M 33.74 185.80 C 37.00 185.65 38.18 189.49 35.18 190.97 C 32.78 190.19 33.70 187.57 33.74 185.80 Z" />
<path fill="#cbcbcb" d=" M 43.99 187.98 C 43.36 186.09 46.06 186.28 47.07 185.69 C 46.93 187.41 48.11 190.01 45.86 190.87 C 44.43 190.42 43.81 189.46 43.99 187.98 Z" />
<path fill="#000000" d=" M 153.91 186.87 C 154.81 185.47 155.67 185.50 156.49 186.96 C 155.57 188.33 154.71 188.30 153.91 186.87 Z" />
<path fill="#000000" d=" M 180.48 187.05 C 181.23 185.53 182.08 185.46 183.02 186.84 C 182.28 188.31 181.44 188.39 180.48 187.05 Z" />
</svg>
