<?xml version="1.0" encoding="UTF-8" ?>
<!DOCTYPE svg PUBLIC "-//W3C//DTD SVG 1.1//EN" "http://www.w3.org/Graphics/SVG/1.1/DTD/svg11.dtd">
<svg width="480pt" height="800pt" viewBox="0 0 480 800" version="1.1" xmlns="http://www.w3.org/2000/svg">
<path fill="#f7fbf7" d=" M 0.00 0.00 L 480.00 0.00 L 480.00 16.17 C 476.58 16.19 473.14 16.06 469.74 16.51 L 469.71 15.96 C 468.58 15.98 467.46 16.01 466.34 16.05 C 465.46 19.13 464.54 22.20 463.62 25.26 C 462.66 22.15 461.76 19.03 460.91 15.90 C 460.09 15.93 458.46 16.01 457.65 16.05 C 456.54 16.23 455.44 16.43 454.35 16.66 C 452.14 16.21 449.89 15.87 447.64 16.00 C 444.95 16.13 442.26 16.23 439.57 16.14 C 439.57 14.43 439.58 12.72 439.59 11.01 C 438.51 11.00 437.44 11.00 436.38 10.99 C 435.28 12.73 434.17 14.46 433.07 16.19 C 430.53 16.28 428.00 16.45 425.47 16.69 C 425.48 14.78 425.50 12.87 425.53 10.96 C 421.96 10.43 419.76 13.63 417.09 15.37 C 416.32 15.96 415.56 16.55 414.81 17.16 C 414.37 16.51 413.49 15.22 413.05 14.58 C 412.05 15.17 411.05 15.77 410.06 16.38 C 408.89 16.36 407.72 16.29 406.57 16.24 C 406.56 14.47 406.57 12.71 406.57 10.94 C 405.49 10.98 404.42 11.01 403.35 11.05 C 402.09 13.03 400.82 14.99 399.54 16.95 C 395.43 16.03 391.22 16.48 387.05 16.29 C 387.44 12.72 387.07 8.26 382.95 7.11 C 376.02 6.93 369.06 6.86 362.12 7.16 C 359.51 8.14 358.68 10.79 358.36 13.32 C 357.86 13.63 356.85 14.26 356.35 14.57 C 355.88 15.16 355.43 15.76 355.02 16.39 C 352.93 16.28 350.84 16.19 348.76 16.12 C 348.70 13.29 348.71 10.46 348.90 7.63 C 349.16 6.04 348.87 4.48 347.75 3.28 C 338.13 2.75 328.45 2.96 318.82 3.18 L 318.68 3.19 C 318.09 3.71 317.52 4.25 316.96 4.80 C 316.96 5.57 316.97 7.13 316.98 7.90 C 316.97 10.73 316.95 13.56 316.95 16.39 C 314.96 16.17 312.97 15.98 310.99 15.74 C 309.50 13.84 307.15 13.83 304.94 13.83 L 304.99 12.54 C 305.05 9.68 305.19 6.73 304.48 3.93 C 302.18 2.67 299.51 3.03 297.01 2.98 C 291.62 3.06 286.24 2.90 280.86 3.07 C 278.04 4.86 279.26 8.63 278.97 11.40 C 258.39 11.85 237.79 11.45 217.20 11.58 C 148.06 11.59 78.92 11.57 9.78 11.59 C 6.52 11.65 3.23 11.78 0.00 11.18 L 0.00 0.00 Z" />
<path fill="#525552" d=" M 278.97 11.40 C 279.26 8.63 278.04 4.86 280.86 3.07 C 284.26 5.25 288.30 3.93 292.04 4.09 C 296.19 4.19 300.35 4.58 304.48 3.93 C 305.19 6.73 305.05 9.68 304.99 12.54 C 304.71 13.09 304.15 14.18 303.87 14.73 C 305.68 15.26 307.49 15.80 309.28 16.39 C 307.28 17.23 305.16 17.77 303.00 17.91 C 303.00 15.26 303.00 12.61 303.00 9.96 C 301.33 9.96 299.66 9.96 297.99 9.96 C 298.00 10.71 298.00 12.19 298.00 12.94 C 298.50 12.97 299.50 13.02 300.00 13.05 C 300.00 13.54 300.00 14.52 300.00 15.00 C 298.66 15.00 297.32 15.00 295.99 15.00 C 296.00 12.68 296.02 10.36 296.04 8.03 C 298.39 8.04 300.75 8.05 303.11 8.05 C 303.09 7.26 303.05 5.68 303.03 4.90 C 299.84 4.82 296.66 4.80 293.47 4.78 C 292.99 7.54 292.83 10.34 292.85 13.14 C 292.43 12.82 291.57 12.17 291.14 11.84 C 290.96 9.69 291.43 7.34 290.51 5.33 C 287.51 4.21 284.11 5.01 280.96 4.95 C 280.94 5.73 280.91 7.27 280.90 8.04 C 283.26 8.05 285.63 8.05 288.00 8.05 C 288.00 8.52 288.00 9.47 288.00 9.94 C 286.66 9.95 285.32 9.96 283.99 9.97 C 283.99 10.73 284.00 12.24 284.00 12.99 C 285.33 13.00 286.66 13.00 288.00 13.00 C 288.00 13.50 288.00 14.50 288.00 15.00 C 285.65 15.00 283.31 15.00 280.96 15.00 C 280.98 15.59 281.00 16.78 281.01 17.38 C 280.51 16.92 279.51 16.00 279.01 15.54 C 278.99 14.16 278.98 12.78 278.97 11.40 Z" />
<path fill="#2b2a2b" d=" M 280.86 3.07 C 286.24 2.90 291.62 3.06 297.01 2.98 C 299.51 3.03 302.18 2.67 304.48 3.93 C 300.35 4.58 296.19 4.19 292.04 4.09 C 288.30 3.93 284.26 5.25 280.86 3.07 Z" />
<path fill="#636163" d=" M 316.96 4.80 C 317.52 4.25 318.09 3.71 318.68 3.19 L 318.82 3.18 C 323.42 4.62 328.29 3.83 333.03 3.99 C 337.93 3.83 342.94 4.58 347.75 3.28 C 348.87 4.48 349.16 6.04 348.90 7.63 C 348.44 8.47 347.98 9.30 347.51 10.12 C 347.04 7.80 346.00 5.65 344.11 4.16 C 343.15 5.31 341.52 6.28 341.75 8.02 C 341.71 12.14 342.19 16.25 342.10 20.37 C 341.27 17.21 341.92 13.23 339.87 10.64 C 332.85 10.25 325.79 10.68 318.75 10.54 C 318.16 9.66 317.56 8.78 316.98 7.90 C 316.97 7.13 316.96 5.57 316.96 4.80 Z" />
<path fill="#262526" d=" M 318.82 3.18 C 328.45 2.96 338.13 2.75 347.75 3.28 C 342.94 4.58 337.93 3.83 333.03 3.99 C 328.29 3.83 323.42 4.62 318.82 3.18 Z" />
<path fill="#ffffff" d=" M 280.96 4.95 C 284.11 5.01 287.51 4.21 290.51 5.33 C 291.43 7.34 290.96 9.69 291.14 11.84 C 291.07 13.77 291.31 15.79 290.60 17.63 C 287.53 18.43 284.30 17.92 281.17 18.02 L 281.01 17.38 C 281.00 16.78 280.98 15.59 280.96 15.00 C 283.31 15.00 285.65 15.00 288.00 15.00 C 288.00 14.50 288.00 13.50 288.00 13.00 C 286.66 13.00 285.33 13.00 284.00 12.99 C 284.00 12.24 283.99 10.73 283.99 9.97 C 285.32 9.96 286.66 9.95 288.00 9.94 C 288.00 9.47 288.00 8.52 288.00 8.05 C 285.63 8.05 283.26 8.05 280.90 8.04 C 280.91 7.27 280.94 5.73 280.96 4.95 Z" />
<path fill="#ffffff" d=" M 292.85 13.14 C 292.83 10.34 292.99 7.54 293.47 4.78 C 296.66 4.80 299.84 4.82 303.03 4.90 C 303.05 5.68 303.09 7.26 303.11 8.05 C 300.75 8.05 298.39 8.04 296.04 8.03 C 296.02 10.36 296.00 12.68 295.99 15.00 C 297.32 15.00 298.66 15.00 300.00 15.00 C 300.00 14.52 300.00 13.54 300.00 13.05 C 299.50 13.02 298.50 12.97 298.00 12.94 C 298.00 12.19 298.00 10.71 297.99 9.96 C 299.66 9.96 301.33 9.96 303.00 9.96 C 303.00 12.61 303.00 15.26 303.00 17.91 C 299.82 17.95 296.48 18.51 293.41 17.58 C 292.76 16.20 292.96 14.62 292.85 13.14 Z" />
<path fill="#9c9e9c" d=" M 341.75 8.02 C 341.52 6.28 343.15 5.31 344.11 4.16 C 346.00 5.65 347.04 7.80 347.51 10.12 C 347.65 17.01 346.44 23.82 346.43 30.70 C 346.46 32.84 343.97 32.77 342.47 32.59 C 345.92 30.67 345.68 26.90 345.11 23.52 C 344.10 23.38 343.09 23.25 342.09 23.11 C 342.09 22.42 342.09 21.05 342.10 20.37 C 342.19 16.25 341.71 12.14 341.75 8.02 Z" />
<path fill="#525152" d=" M 358.36 13.32 C 358.68 10.79 359.51 8.14 362.12 7.16 C 365.99 8.39 370.07 7.94 374.06 8.02 C 377.04 8.07 380.09 8.10 382.95 7.11 C 387.07 8.26 387.44 12.72 387.05 16.29 C 387.04 17.03 387.02 18.51 387.01 19.25 C 385.75 19.30 384.50 19.34 383.25 19.38 C 381.12 19.30 378.99 19.09 376.87 18.92 C 378.54 17.42 380.19 15.91 381.83 14.39 C 380.07 14.41 378.32 14.44 376.57 14.48 C 375.02 16.24 373.43 17.96 371.83 19.66 C 371.68 19.16 371.37 18.17 371.22 17.67 C 366.63 17.25 362.02 17.67 357.43 17.53 C 357.16 16.79 356.62 15.31 356.35 14.57 C 356.85 14.26 357.86 13.63 358.36 13.32 Z" />
<path fill="#252425" d=" M 362.12 7.16 C 369.06 6.86 376.02 6.93 382.95 7.11 C 380.09 8.10 377.04 8.07 374.06 8.02 C 370.07 7.94 365.99 8.39 362.12 7.16 Z" />
<path fill="#4a4d4a" d=" M 316.98 7.90 C 317.56 8.78 318.16 9.66 318.75 10.54 C 325.79 10.68 332.85 10.25 339.87 10.64 C 341.92 13.23 341.27 17.21 342.10 20.37 C 342.09 21.05 342.09 22.42 342.09 23.11 C 341.99 25.73 341.78 28.34 341.89 30.96 C 341.40 28.44 341.25 25.88 341.01 23.33 C 340.52 23.36 339.55 23.44 339.06 23.47 C 338.94 20.39 339.18 17.28 338.79 14.22 C 337.83 12.47 335.87 13.14 334.36 13.53 C 334.27 14.91 334.17 16.30 334.12 17.69 C 328.42 16.77 322.39 18.73 316.95 16.39 C 316.95 13.56 316.97 10.73 316.98 7.90 Z" />
<path fill="#080808" d=" M 347.51 10.12 C 347.98 9.30 348.44 8.47 348.90 7.63 C 348.71 10.46 348.70 13.29 348.76 16.12 C 348.84 21.87 349.03 27.61 348.95 33.36 C 348.48 33.61 347.53 34.13 347.06 34.39 C 337.30 34.57 327.52 34.58 317.76 34.37 C 317.47 33.39 317.22 32.41 316.98 31.43 C 316.96 29.27 317.05 27.12 317.09 24.96 C 318.69 27.05 319.00 29.69 319.68 32.16 C 323.40 34.32 324.72 29.79 324.16 26.95 C 325.08 28.26 325.92 29.63 326.72 31.02 C 327.24 33.21 330.60 33.22 331.15 31.04 C 331.96 29.58 332.92 28.19 334.16 27.05 C 334.21 28.62 334.29 30.18 334.41 31.75 C 335.77 32.88 337.45 32.70 338.98 32.02 C 339.06 29.17 339.12 26.32 339.06 23.47 C 339.55 23.44 340.52 23.36 341.01 23.33 C 341.25 25.88 341.40 28.44 341.89 30.96 C 342.03 31.37 342.32 32.19 342.47 32.59 C 343.97 32.77 346.46 32.84 346.43 30.70 C 346.44 23.82 347.65 17.01 347.51 10.12 Z" />
<path fill="#94d300" d=" M 367.84 8.77 C 372.89 9.11 377.98 8.53 383.02 9.15 C 384.79 9.48 384.82 11.54 385.17 12.92 C 380.08 13.03 375.00 12.92 369.92 13.02 C 369.34 13.67 368.76 14.32 368.19 14.97 C 368.06 12.90 367.95 10.84 367.84 8.77 Z" />
<path fill="#e7e3e7" d=" M 0.00 11.18 C 3.23 11.78 6.52 11.65 9.78 11.59 C 78.92 11.57 148.06 11.59 217.20 11.58 C 237.79 11.45 258.39 11.85 278.97 11.40 C 278.98 12.78 278.99 14.16 279.01 15.54 C 279.02 17.36 279.04 19.17 279.06 20.99 C 279.39 21.34 280.07 22.04 280.41 22.38 C 281.83 22.44 283.26 22.49 284.70 22.54 L 285.04 23.61 C 285.08 26.16 284.95 28.70 284.98 31.25 C 278.53 31.65 272.06 31.46 265.61 31.51 C 177.07 31.40 88.53 31.60 0.00 31.42 L 0.00 11.18 Z" />
<path fill="#000000" d=" M 403.35 11.05 C 404.42 11.01 405.49 10.98 406.57 10.94 C 406.57 12.71 406.56 14.47 406.57 16.24 C 406.56 18.12 406.55 20.00 406.54 21.88 C 407.15 21.97 408.36 22.14 408.96 22.23 C 408.83 23.73 408.26 24.95 406.59 25.11 C 406.60 25.81 406.63 27.20 406.65 27.90 C 405.49 27.96 404.34 28.02 403.19 28.08 C 403.17 27.23 403.15 25.54 403.14 24.69 C 400.68 24.69 398.22 24.68 395.77 24.64 C 396.16 21.71 397.99 19.35 399.54 16.95 C 400.82 14.99 402.09 13.03 403.35 11.05 Z" />
<path fill="#000000" d=" M 417.09 15.37 C 419.76 13.63 421.96 10.43 425.53 10.96 C 425.50 12.87 425.48 14.78 425.47 16.69 C 425.45 20.45 425.48 24.20 425.50 27.96 C 424.31 27.99 423.13 28.02 421.96 28.06 C 421.96 23.63 421.98 19.20 422.02 14.78 C 420.98 15.63 419.93 16.49 418.89 17.34 C 418.44 16.85 417.54 15.86 417.09 15.37 Z" />
<path fill="#000000" d=" M 436.38 10.99 C 437.44 11.00 438.51 11.00 439.59 11.01 C 439.58 12.72 439.57 14.43 439.57 16.14 C 439.55 18.06 439.54 19.98 439.53 21.91 C 440.07 21.96 441.15 22.07 441.69 22.12 C 441.69 22.74 441.67 23.98 441.67 24.60 C 441.15 24.64 440.11 24.74 439.59 24.78 C 439.58 25.60 439.56 27.22 439.55 28.04 C 438.42 28.03 437.29 28.03 436.17 28.03 C 436.16 27.20 436.14 25.52 436.13 24.68 C 433.77 24.68 431.42 24.69 429.07 24.69 C 429.06 24.12 429.05 22.99 429.05 22.43 C 430.39 20.35 431.73 18.28 433.07 16.19 C 434.17 14.46 435.28 12.73 436.38 10.99 Z" />
<path fill="#313031" d=" M 291.14 11.84 C 291.57 12.17 292.43 12.82 292.85 13.14 C 292.96 14.62 292.76 16.20 293.41 17.58 C 296.48 18.51 299.82 17.95 303.00 17.91 C 305.16 17.77 307.28 17.23 309.28 16.39 C 307.49 15.80 305.68 15.26 303.87 14.73 C 304.15 14.18 304.71 13.09 304.99 12.54 L 304.94 13.83 C 307.15 13.83 309.50 13.84 310.99 15.74 C 310.98 17.63 310.99 19.52 311.01 21.41 C 308.95 21.84 306.83 21.92 304.75 21.60 C 303.32 21.46 301.89 21.33 300.48 21.20 C 300.48 22.53 300.48 23.86 300.48 25.19 C 299.93 25.31 298.85 25.57 298.31 25.69 C 296.69 23.85 295.08 22.00 293.49 20.13 C 291.88 21.98 290.28 23.83 288.67 25.67 C 287.41 25.08 286.21 24.36 285.04 23.61 L 284.70 22.54 C 283.26 22.49 281.83 22.44 280.41 22.38 C 280.07 22.04 279.39 21.34 279.06 20.99 C 279.04 19.17 279.02 17.36 279.01 15.54 C 279.51 16.00 280.51 16.92 281.01 17.38 L 281.17 18.02 C 284.30 17.92 287.53 18.43 290.60 17.63 C 291.31 15.79 291.07 13.77 291.14 11.84 Z" />
<path fill="#949294" d=" M 334.36 13.53 C 335.87 13.14 337.83 12.47 338.79 14.22 C 339.18 17.28 338.94 20.39 339.06 23.47 C 339.12 26.32 339.06 29.17 338.98 32.02 C 337.45 32.70 335.77 32.88 334.41 31.75 C 335.30 31.43 337.08 30.80 337.97 30.48 C 337.91 28.06 338.20 25.42 336.66 23.37 C 334.50 20.53 334.59 16.90 334.36 13.53 Z" />
<path fill="#7b827b" d=" M 334.12 17.69 C 334.17 16.30 334.27 14.91 334.36 13.53 C 334.59 16.90 334.50 20.53 336.66 23.37 C 338.20 25.42 337.91 28.06 337.97 30.48 C 337.08 30.80 335.30 31.43 334.41 31.75 C 334.29 30.18 334.21 28.62 334.16 27.05 C 334.16 23.93 334.07 20.81 334.12 17.69 Z" />
<path fill="#ffffff" d=" M 376.57 14.48 C 378.32 14.44 380.07 14.41 381.83 14.39 C 380.19 15.91 378.54 17.42 376.87 18.92 C 378.99 19.09 381.12 19.30 383.25 19.38 C 380.54 20.55 378.31 23.75 375.19 23.43 C 375.86 22.51 376.56 21.58 377.25 20.66 C 375.21 20.57 373.17 20.48 371.14 20.43 L 371.83 19.66 C 373.43 17.96 375.02 16.24 376.57 14.48 Z" />
<path fill="#292c29" d=" M 355.02 16.39 C 355.43 15.76 355.88 15.16 356.35 14.57 C 356.62 15.31 357.16 16.79 357.43 17.53 C 362.02 17.67 366.63 17.25 371.22 17.67 C 371.37 18.17 371.68 19.16 371.83 19.66 L 371.14 20.43 C 373.17 20.48 375.21 20.57 377.25 20.66 C 376.56 21.58 375.86 22.51 375.19 23.43 C 372.98 21.94 370.34 21.91 368.00 23.11 C 368.01 23.72 368.03 24.94 368.05 25.55 C 364.93 25.26 361.79 25.30 358.69 25.71 C 358.58 25.28 358.37 24.43 358.27 24.01 C 354.84 22.89 354.64 19.46 355.02 16.39 Z" />
<path fill="#e7e7e7" d=" M 399.12 22.01 C 400.62 19.79 402.03 17.51 403.34 15.17 C 403.22 17.44 403.16 19.72 403.14 21.99 C 401.79 21.99 400.45 22.00 399.12 22.01 Z" />
<path fill="#000000" d=" M 410.06 16.38 C 411.05 15.77 412.05 15.17 413.05 14.58 C 413.49 15.22 414.37 16.51 414.81 17.16 C 413.92 17.76 413.24 18.83 412.09 18.87 C 410.86 18.68 410.62 17.25 410.06 16.38 Z" />
<path fill="#e7e3e7" d=" M 418.89 17.34 C 419.93 16.49 420.98 15.63 422.02 14.78 C 421.98 19.20 421.96 23.63 421.96 28.06 C 423.13 28.02 424.31 27.99 425.50 27.96 C 425.48 24.20 425.45 20.45 425.47 16.69 C 428.00 16.45 430.53 16.28 433.07 16.19 C 431.73 18.28 430.39 20.35 429.05 22.43 C 429.05 22.99 429.06 24.12 429.07 24.69 C 431.42 24.69 433.77 24.68 436.13 24.68 C 436.14 25.52 436.16 27.20 436.17 28.03 C 437.29 28.03 438.42 28.03 439.55 28.04 C 439.56 27.22 439.58 25.60 439.59 24.78 C 440.11 24.74 441.15 24.64 441.67 24.60 C 441.67 23.98 441.69 22.74 441.69 22.12 C 441.15 22.07 440.07 21.96 439.53 21.91 C 439.54 19.98 439.55 18.06 439.57 16.14 C 442.26 16.23 444.95 16.13 447.64 16.00 C 447.63 20.01 447.62 24.03 447.64 28.05 C 448.24 28.04 449.44 28.03 450.05 28.02 C 450.03 26.78 450.01 25.54 450.00 24.30 C 451.70 23.74 453.90 23.61 454.86 21.83 C 455.63 20.11 454.70 18.34 454.35 16.66 C 455.44 16.43 456.54 16.23 457.65 16.05 C 457.62 20.04 457.62 24.04 457.63 28.03 L 459.72 28.04 C 459.72 24.82 459.68 21.60 459.65 18.38 C 460.67 21.55 461.53 24.77 462.37 28.00 C 462.93 27.99 464.07 27.99 464.63 27.98 C 465.54 24.73 466.49 21.49 467.57 18.29 C 467.58 21.55 467.55 24.82 467.56 28.09 C 468.12 28.06 469.22 27.98 469.78 27.95 C 469.76 24.14 469.82 20.32 469.74 16.51 C 473.14 16.06 476.58 16.19 480.00 16.17 L 480.00 33.35 C 436.32 33.44 392.63 33.41 348.95 33.36 C 349.03 27.61 348.84 21.87 348.76 16.12 C 350.84 16.19 352.93 16.28 355.02 16.39 C 354.64 19.46 354.84 22.89 358.27 24.01 C 358.37 24.43 358.58 25.28 358.69 25.71 C 359.00 26.90 359.34 28.09 359.70 29.28 C 361.72 29.95 363.79 30.61 365.96 30.49 C 371.71 30.44 377.45 30.51 383.20 30.44 C 384.56 29.51 386.51 28.77 386.90 26.96 C 387.16 24.40 386.97 21.82 387.01 19.25 C 387.02 18.51 387.04 17.03 387.05 16.29 C 391.22 16.48 395.43 16.03 399.54 16.95 C 397.99 19.35 396.16 21.71 395.77 24.64 C 398.22 24.68 400.68 24.69 403.14 24.69 C 403.15 25.54 403.17 27.23 403.19 28.08 C 404.34 28.02 405.49 27.96 406.65 27.90 C 406.63 27.20 406.60 25.81 406.59 25.11 C 408.26 24.95 408.83 23.73 408.96 22.23 C 408.36 22.14 407.15 21.97 406.54 21.88 C 406.55 20.00 406.56 18.12 406.57 16.24 C 407.72 16.29 408.89 16.36 410.06 16.38 C 410.62 17.25 410.86 18.68 412.09 18.87 C 413.24 18.83 413.92 17.76 414.81 17.16 C 415.56 16.55 416.32 15.96 417.09 15.37 C 417.54 15.86 418.44 16.85 418.89 17.34 Z" />
<path fill="#e7e7e7" d=" M 432.14 22.01 C 433.61 19.77 435.02 17.50 436.34 15.17 C 436.22 17.44 436.16 19.71 436.13 21.99 C 434.80 22.00 433.47 22.00 432.14 22.01 Z" />
<path fill="#e7e3e7" d=" M 310.99 15.74 C 312.97 15.98 314.96 16.17 316.95 16.39 C 316.99 19.24 316.95 22.11 317.09 24.96 C 317.05 27.12 316.96 29.27 316.98 31.43 C 315.01 31.40 313.04 31.36 311.07 31.33 C 311.06 29.90 311.05 28.47 311.03 27.04 C 311.02 25.16 311.02 23.29 311.01 21.41 C 310.99 19.52 310.98 17.63 310.99 15.74 Z" />
<path fill="#312c31" d=" M 316.95 16.39 C 322.39 18.73 328.42 16.77 334.12 17.69 C 334.07 20.81 334.16 23.93 334.16 27.05 C 332.92 28.19 331.96 29.58 331.15 31.04 C 331.30 27.39 331.60 23.69 331.04 20.06 C 330.00 18.68 327.94 18.78 326.82 19.99 C 326.30 23.64 326.55 27.35 326.72 31.02 C 325.92 29.63 325.08 28.26 324.16 26.95 C 324.49 24.48 322.95 20.58 319.97 22.82 C 318.67 25.72 319.42 29.10 319.68 32.16 C 319.00 29.69 318.69 27.05 317.09 24.96 C 316.95 22.11 316.99 19.24 316.95 16.39 Z" />
<path fill="#000000" d=" M 447.64 16.00 C 449.89 15.87 452.14 16.21 454.35 16.66 C 454.70 18.34 455.63 20.11 454.86 21.83 C 453.90 23.61 451.70 23.74 450.00 24.30 C 450.01 25.54 450.03 26.78 450.05 28.02 C 449.44 28.03 448.24 28.04 447.64 28.05 C 447.62 24.03 447.63 20.01 447.64 16.00 Z" />
<path fill="#000000" d=" M 457.65 16.05 C 458.46 16.01 460.09 15.93 460.91 15.90 C 461.76 19.03 462.66 22.15 463.62 25.26 C 464.54 22.20 465.46 19.13 466.34 16.05 C 467.46 16.01 468.58 15.98 469.71 15.96 L 469.74 16.51 C 469.82 20.32 469.76 24.14 469.78 27.95 C 469.22 27.98 468.12 28.06 467.56 28.09 C 467.55 24.82 467.58 21.55 467.57 18.29 C 466.49 21.49 465.54 24.73 464.63 27.98 C 464.07 27.99 462.93 27.99 462.37 28.00 C 461.53 24.77 460.67 21.55 459.65 18.38 C 459.68 21.60 459.72 24.82 459.72 28.04 L 457.63 28.03 C 457.62 24.04 457.62 20.04 457.65 16.05 Z" />
<path fill="#e7e3e7" d=" M 450.00 17.83 C 453.65 17.07 453.66 22.77 450.05 22.19 C 450.02 20.74 450.00 19.28 450.00 17.83 Z" />
<path fill="#ffffff" d=" M 326.82 19.99 C 327.94 18.78 330.00 18.68 331.04 20.06 C 331.60 23.69 331.30 27.39 331.15 31.04 C 330.60 33.22 327.24 33.21 326.72 31.02 C 326.55 27.35 326.30 23.64 326.82 19.99 Z" />
<path fill="#212021" d=" M 383.25 19.38 C 384.50 19.34 385.75 19.30 387.01 19.25 C 386.97 21.82 387.16 24.40 386.90 26.96 C 386.51 28.77 384.56 29.51 383.20 30.44 L 383.33 29.03 C 384.02 27.72 384.74 26.43 385.39 25.10 C 380.31 24.75 375.18 25.38 370.13 24.77 C 369.59 24.35 368.53 23.53 368.00 23.11 C 370.34 21.91 372.98 21.94 375.19 23.43 C 378.31 23.75 380.54 20.55 383.25 19.38 Z" />
<path fill="#9ca29c" d=" M 288.67 25.67 C 290.28 23.83 291.88 21.98 293.49 20.13 C 295.08 22.00 296.69 23.85 298.31 25.69 C 297.63 25.85 296.26 26.17 295.58 26.33 C 295.56 28.22 295.54 30.11 295.52 32.00 C 294.54 31.99 292.56 31.96 291.57 31.95 C 291.53 30.05 291.49 28.16 291.45 26.27 C 290.75 26.12 289.36 25.82 288.67 25.67 Z" />
<path fill="#b5b2b5" d=" M 300.48 21.20 C 301.89 21.33 303.32 21.46 304.75 21.60 C 304.63 22.66 304.40 24.78 304.29 25.83 C 305.16 26.58 306.05 27.30 306.95 28.02 C 306.82 28.16 306.56 28.43 306.44 28.56 C 305.81 28.66 304.57 28.85 303.95 28.95 C 303.99 28.22 304.07 26.77 304.11 26.04 C 302.87 26.34 301.64 26.64 300.41 26.96 C 300.43 26.51 300.46 25.63 300.48 25.19 C 300.48 23.86 300.48 22.53 300.48 21.20 Z" />
<path fill="#212021" d=" M 304.75 21.60 C 306.83 21.92 308.95 21.84 311.01 21.41 C 311.02 23.29 311.02 25.16 311.03 27.04 C 309.67 27.36 308.31 27.69 306.95 28.02 C 306.05 27.30 305.16 26.58 304.29 25.83 C 304.40 24.78 304.63 22.66 304.75 21.60 Z" />
<path fill="#ffffff" d=" M 319.97 22.82 C 322.95 20.58 324.49 24.48 324.16 26.95 C 324.72 29.79 323.40 34.32 319.68 32.16 C 319.42 29.10 318.67 25.72 319.97 22.82 Z" />
<path fill="#7b827b" d=" M 342.09 23.11 C 343.09 23.25 344.10 23.38 345.11 23.52 C 345.68 26.90 345.92 30.67 342.47 32.59 C 342.32 32.19 342.03 31.37 341.89 30.96 C 341.78 28.34 341.99 25.73 342.09 23.11 Z" />
<path fill="#100c10" d=" M 285.04 23.61 C 286.21 24.36 287.41 25.08 288.67 25.67 C 289.36 25.82 290.75 26.12 291.45 26.27 C 291.49 28.16 291.53 30.05 291.57 31.95 C 292.56 31.96 294.54 31.99 295.52 32.00 C 295.54 30.11 295.56 28.22 295.58 26.33 C 296.26 26.17 297.63 25.85 298.31 25.69 C 298.85 25.57 299.93 25.31 300.48 25.19 C 300.46 25.63 300.43 26.51 300.41 26.96 C 299.73 27.14 298.36 27.50 297.67 27.68 C 299.35 29.47 300.99 31.30 302.61 33.15 C 303.88 31.62 305.14 30.08 306.44 28.56 C 306.56 28.43 306.82 28.16 306.95 28.02 C 308.31 27.69 309.67 27.36 311.03 27.04 C 311.05 28.47 311.06 29.90 311.07 31.33 C 310.86 32.40 310.72 34.32 309.29 34.35 C 301.73 34.76 294.15 34.38 286.58 34.53 C 286.22 34.14 285.51 33.38 285.15 33.00 C 285.11 32.56 285.02 31.69 284.98 31.25 C 284.95 28.70 285.08 26.16 285.04 23.61 Z" />
<path fill="#739e00" d=" M 368.05 25.55 C 368.03 24.94 368.01 23.72 368.00 23.11 C 368.53 23.53 369.59 24.35 370.13 24.77 C 375.18 25.38 380.31 24.75 385.39 25.10 C 384.74 26.43 384.02 27.72 383.33 29.03 C 378.24 28.53 373.13 28.85 368.03 28.80 C 368.03 27.99 368.04 26.36 368.05 25.55 Z" />
<path fill="#000000" d=" M 410.79 24.80 C 411.73 23.65 413.23 24.52 414.40 24.67 C 414.19 25.80 414.62 27.69 412.96 27.87 C 411.21 28.89 409.74 26.18 410.79 24.80 Z" />
<path fill="#080c08" d=" M 358.69 25.71 C 361.79 25.30 364.93 25.26 368.05 25.55 C 368.04 26.36 368.03 27.99 368.03 28.80 C 373.13 28.85 378.24 28.53 383.33 29.03 L 383.20 30.44 C 377.45 30.51 371.71 30.44 365.96 30.49 C 363.79 30.61 361.72 29.95 359.70 29.28 C 359.34 28.09 359.00 26.90 358.69 25.71 Z" />
<path fill="#8c8e8c" d=" M 300.41 26.96 C 301.64 26.64 302.87 26.34 304.11 26.04 C 304.07 26.77 303.99 28.22 303.95 28.95 C 304.57 28.85 305.81 28.66 306.44 28.56 C 305.14 30.08 303.88 31.62 302.61 33.15 C 300.99 31.30 299.35 29.47 297.67 27.68 C 298.36 27.50 299.73 27.14 300.41 26.96 Z" />
<path fill="#f7f7f7" d=" M 0.00 31.42 C 88.53 31.60 177.07 31.40 265.61 31.51 C 272.06 31.46 278.53 31.65 284.98 31.25 C 285.02 31.69 285.11 32.56 285.15 33.00 C 285.51 33.38 286.22 34.14 286.58 34.53 C 294.15 34.38 301.73 34.76 309.29 34.35 C 310.72 34.32 310.86 32.40 311.07 31.33 C 313.04 31.36 315.01 31.40 316.98 31.43 C 317.22 32.41 317.47 33.39 317.76 34.37 C 327.52 34.58 337.30 34.57 347.06 34.39 C 347.53 34.13 348.48 33.61 348.95 33.36 C 392.63 33.41 436.32 33.44 480.00 33.35 L 480.00 38.05 C 320.00 38.07 160.00 37.96 0.00 38.11 L 0.00 31.42 Z" />
<path fill="#949694" d=" M 0.00 38.11 C 160.00 37.96 320.00 38.07 480.00 38.05 L 480.00 52.96 C 478.00 52.27 475.83 51.55 473.74 52.28 C 470.49 53.31 467.04 53.24 463.72 52.63 C 458.43 51.52 453.00 52.28 447.65 51.98 C 355.38 52.05 263.11 51.94 170.85 52.02 C 168.22 51.84 165.22 52.91 163.00 50.99 C 161.65 50.12 160.39 49.05 158.88 48.48 C 155.40 47.65 152.45 50.43 149.04 50.36 C 143.67 50.53 138.30 50.54 132.93 50.30 C 127.22 50.35 121.50 50.66 115.78 50.42 C 112.56 50.28 109.25 49.51 106.11 50.59 C 106.15 51.05 106.24 51.98 106.29 52.44 C 106.37 53.19 106.47 53.94 106.57 54.69 C 106.22 54.78 105.51 54.96 105.16 55.05 C 103.75 56.38 102.40 57.77 100.99 59.09 C 100.14 56.00 101.81 51.22 98.02 49.96 C 97.99 49.72 97.95 49.24 97.92 49.00 C 97.19 49.00 95.73 49.01 95.00 49.01 C 95.00 49.41 95.00 50.20 94.99 50.60 C 91.09 50.34 87.17 50.24 83.26 50.05 C 81.97 48.51 81.31 45.37 78.80 45.65 C 77.49 45.74 76.24 46.17 74.97 46.50 C 74.43 47.98 73.88 49.47 73.33 50.95 C 70.89 49.77 68.91 47.93 67.48 45.65 C 65.54 45.57 63.60 45.83 61.73 46.34 C 61.54 47.65 61.36 48.96 61.18 50.28 C 57.84 50.15 54.49 50.55 51.17 50.28 C 48.12 49.31 44.24 46.87 41.32 49.34 C 39.11 53.42 40.55 58.33 40.23 62.76 C 37.90 62.74 35.56 62.71 33.23 62.69 C 33.93 58.68 33.92 54.08 30.76 51.06 C 27.08 48.61 22.61 50.29 19.33 52.60 C 18.07 50.90 16.93 49.06 15.34 47.64 C 13.03 46.74 9.73 47.15 8.50 49.58 C 6.16 53.17 4.69 57.87 6.60 61.96 C 6.52 62.36 6.36 63.16 6.28 63.56 C 4.21 63.96 2.08 64.02 0.00 63.60 L 0.00 38.11 Z" />
<path fill="#737173" d=" M 61.73 46.34 C 63.60 45.83 65.54 45.57 67.48 45.65 C 68.91 47.93 70.89 49.77 73.33 50.95 C 73.88 49.47 74.43 47.98 74.97 46.50 C 76.24 46.17 77.49 45.74 78.80 45.65 C 81.31 45.37 81.97 48.51 83.26 50.05 C 87.17 50.24 91.09 50.34 94.99 50.60 C 94.98 55.07 95.04 59.54 94.86 64.00 C 97.79 64.00 100.72 63.98 103.64 63.92 C 103.61 63.27 103.54 61.96 103.50 61.30 C 101.66 61.29 99.83 61.28 97.99 61.27 C 97.98 57.50 98.03 53.73 98.02 49.96 C 101.81 51.22 100.14 56.00 100.99 59.09 C 102.40 57.77 103.75 56.38 105.16 55.05 C 105.51 54.96 106.22 54.78 106.57 54.69 C 108.46 54.51 110.75 53.95 111.95 55.87 C 109.83 56.33 107.30 55.95 105.59 57.53 C 104.50 59.49 104.59 62.88 106.97 63.85 C 108.61 64.37 110.04 63.35 111.45 62.68 C 112.35 63.44 113.40 63.94 114.52 64.29 C 114.40 60.85 114.94 57.26 113.98 53.91 C 112.56 51.03 108.76 52.38 106.29 52.44 C 106.24 51.98 106.15 51.05 106.11 50.59 C 109.25 49.51 112.56 50.28 115.78 50.42 C 121.50 50.66 127.22 50.35 132.93 50.30 C 138.30 50.54 143.67 50.53 149.04 50.36 C 152.45 50.43 155.40 47.65 158.88 48.48 C 160.39 49.05 161.65 50.12 163.00 50.99 C 162.61 53.34 162.17 55.69 161.51 57.98 C 162.17 60.28 162.70 62.62 163.17 64.96 C 159.82 68.48 155.28 64.70 151.29 66.08 C 147.35 66.97 142.93 67.30 139.67 64.48 C 137.52 65.40 135.41 66.66 133.01 66.75 C 130.51 66.98 128.67 65.00 126.72 63.80 C 125.76 65.76 124.94 67.83 123.65 69.62 C 121.94 71.75 118.85 72.13 116.33 71.50 C 114.14 71.26 114.48 68.43 113.66 66.92 C 107.30 65.78 100.85 67.23 94.50 66.18 C 91.69 65.63 88.91 67.07 86.10 66.40 C 82.31 65.32 78.44 66.94 74.64 65.87 C 64.30 67.12 53.81 66.10 43.40 66.48 C 42.14 71.15 36.59 69.92 32.95 69.82 C 30.33 69.97 29.64 66.34 26.97 66.63 C 20.05 66.28 13.11 66.83 6.18 66.66 C 6.20 66.01 6.23 64.72 6.24 64.07 C 7.01 64.04 8.56 63.99 9.33 63.97 C 9.60 62.63 9.86 61.28 10.13 59.94 C 11.95 59.97 13.77 60.03 15.60 60.09 C 15.84 61.39 16.08 62.69 16.32 63.99 C 17.44 63.99 18.56 63.98 19.68 63.98 C 17.98 59.03 16.39 54.04 14.85 49.04 C 13.49 49.02 12.14 49.00 10.78 48.99 C 9.44 53.33 8.09 57.67 6.60 61.96 C 4.69 57.87 6.16 53.17 8.50 49.58 C 9.73 47.15 13.03 46.74 15.34 47.64 C 16.93 49.06 18.07 50.90 19.33 52.60 C 22.61 50.29 27.08 48.61 30.76 51.06 C 33.92 54.08 33.93 58.68 33.23 62.69 C 35.56 62.71 37.90 62.74 40.23 62.76 C 40.55 58.33 39.11 53.42 41.32 49.34 C 44.24 46.87 48.12 49.31 51.17 50.28 C 54.49 50.55 57.84 50.15 61.18 50.28 C 61.36 48.96 61.54 47.65 61.73 46.34 Z" />
<path fill="#ffffff" d=" M 63.57 47.86 C 64.38 47.89 66.01 47.94 66.82 47.96 C 66.77 49.89 66.70 51.82 66.59 53.75 C 67.95 52.32 70.31 51.22 72.00 52.77 C 74.29 55.39 74.30 59.73 72.48 62.61 C 71.21 64.67 68.63 63.78 66.72 63.39 C 65.94 63.60 64.38 64.00 63.60 64.20 C 63.71 58.75 63.64 53.31 63.57 47.86 Z" />
<path fill="#ffffff" d=" M 76.52 48.08 C 77.61 48.02 78.70 47.97 79.80 47.91 C 79.80 48.37 79.81 49.28 79.81 49.73 C 79.81 54.22 79.79 58.70 79.82 63.19 L 79.83 64.00 C 78.73 63.97 77.64 63.94 76.55 63.91 C 76.69 58.63 76.68 53.35 76.52 48.08 Z" />
<path fill="#ffffff" d=" M 6.60 61.96 C 8.09 57.67 9.44 53.33 10.78 48.99 C 12.14 49.00 13.49 49.02 14.85 49.04 C 16.39 54.04 17.98 59.03 19.68 63.98 C 18.56 63.98 17.44 63.99 16.32 63.99 C 16.08 62.69 15.84 61.39 15.60 60.09 C 13.77 60.03 11.95 59.97 10.13 59.94 C 9.86 61.28 9.60 62.63 9.33 63.97 C 8.56 63.99 7.01 64.04 6.24 64.07 L 6.28 63.56 C 6.36 63.16 6.52 62.36 6.60 61.96 Z" />
<path fill="#ffffff" d=" M 41.12 54.05 C 42.73 52.44 43.49 49.93 45.63 48.91 C 45.75 49.67 46.00 51.19 46.13 51.94 C 46.90 52.00 48.45 52.11 49.23 52.17 C 49.10 52.76 48.84 53.93 48.71 54.52 C 48.03 54.49 46.67 54.43 45.99 54.40 C 45.99 56.65 46.01 58.91 46.05 61.17 C 46.78 61.20 48.24 61.26 48.97 61.29 C 48.95 61.93 48.92 63.21 48.91 63.85 C 47.09 63.70 44.50 64.59 43.46 62.56 C 42.69 60.01 43.21 57.28 42.93 54.67 C 42.48 54.52 41.57 54.21 41.12 54.05 Z" />
<path fill="#ffffff" d=" M 95.00 49.01 C 95.73 49.01 97.19 49.00 97.92 49.00 C 97.95 49.24 97.99 49.72 98.02 49.96 C 98.03 53.73 97.98 57.50 97.99 61.27 C 99.83 61.28 101.66 61.29 103.50 61.30 C 103.54 61.96 103.61 63.27 103.64 63.92 C 100.72 63.98 97.79 64.00 94.86 64.00 C 95.04 59.54 94.98 55.07 94.99 50.60 C 95.00 50.20 95.00 49.41 95.00 49.01 Z" />
<path fill="#ffffff" d=" M 153.25 53.42 C 155.18 52.36 155.50 49.53 157.74 49.03 C 157.84 49.76 158.02 51.22 158.11 51.96 C 158.90 52.01 160.48 52.11 161.28 52.16 C 161.14 52.75 160.87 53.92 160.74 54.50 C 160.05 54.48 158.68 54.43 157.99 54.41 C 158.00 56.67 158.01 58.92 158.05 61.18 C 158.80 61.21 160.30 61.27 161.06 61.31 C 161.02 61.94 160.93 63.22 160.89 63.85 C 158.95 63.79 156.48 64.48 155.25 62.48 C 155.00 59.98 154.99 57.48 154.97 54.98 C 154.54 54.59 153.68 53.81 153.25 53.42 Z" />
<path fill="#585b58" d=" M 79.81 49.73 C 80.72 51.52 81.79 53.28 82.25 55.26 C 82.22 57.09 82.21 58.92 82.22 60.75 C 81.89 61.89 81.09 62.70 79.82 63.19 C 79.79 58.70 79.81 54.22 79.81 49.73 Z" />
<path fill="#8c8e8c" d=" M 163.00 50.99 C 165.22 52.91 168.22 51.84 170.85 52.02 C 263.11 51.94 355.38 52.05 447.65 51.98 C 453.00 52.28 458.43 51.52 463.72 52.63 C 467.04 53.24 470.49 53.31 473.74 52.28 C 475.83 51.55 478.00 52.27 480.00 52.96 L 480.00 62.28 C 478.42 62.90 476.86 63.58 475.31 64.28 C 473.70 63.74 472.10 63.20 470.49 62.69 C 469.31 63.17 468.21 63.99 466.91 64.03 C 367.97 63.90 269.04 64.05 170.10 63.96 C 167.77 64.02 165.14 63.32 163.17 64.96 C 162.70 62.62 162.17 60.28 161.51 57.98 C 162.17 55.69 162.61 53.34 163.00 50.99 Z" />
<path fill="#313031" d=" M 12.82 51.63 C 13.36 53.48 13.92 55.32 14.49 57.17 C 13.39 57.19 12.29 57.20 11.19 57.23 C 11.74 55.36 12.29 53.50 12.82 51.63 Z" />
<path fill="#ffffff" d=" M 23.61 63.27 C 18.90 60.54 20.78 50.71 27.06 52.08 C 30.67 52.08 31.29 56.19 31.38 58.98 C 28.82 58.99 26.27 58.96 23.72 59.06 C 24.72 62.31 28.18 61.60 30.74 61.10 C 30.68 61.71 30.55 62.92 30.49 63.53 C 28.23 63.76 25.72 64.48 23.61 63.27 Z" />
<path fill="#ffffff" d=" M 51.91 52.76 C 54.71 52.00 59.33 50.98 60.32 54.73 C 60.69 57.83 60.44 60.96 60.56 64.07 C 59.17 64.12 57.95 63.83 57.62 62.30 C 56.25 63.71 54.17 64.55 52.29 63.56 C 50.34 61.81 50.23 57.53 53.06 56.58 C 54.71 56.19 56.60 56.43 57.97 55.25 C 56.41 54.12 54.58 54.45 52.84 54.89 C 52.61 54.36 52.14 53.29 51.91 52.76 Z" />
<path fill="#ffffff" d=" M 82.25 55.26 C 83.50 52.25 87.33 51.11 90.09 52.71 C 92.26 54.05 91.98 56.80 92.33 58.98 C 89.79 58.99 87.25 58.96 84.72 59.06 C 85.68 62.35 89.23 61.54 91.79 61.15 C 91.71 61.75 91.55 62.94 91.47 63.54 C 88.17 64.27 83.84 64.39 82.22 60.75 C 82.21 58.92 82.22 57.09 82.25 55.26 Z" />
<path fill="#ffffff" d=" M 106.29 52.44 C 108.76 52.38 112.56 51.03 113.98 53.91 C 114.94 57.26 114.40 60.85 114.52 64.29 C 113.40 63.94 112.35 63.44 111.45 62.68 C 110.04 63.35 108.61 64.37 106.97 63.85 C 104.59 62.88 104.50 59.49 105.59 57.53 C 107.30 55.95 109.83 56.33 111.95 55.87 C 110.75 53.95 108.46 54.51 106.57 54.69 C 106.47 53.94 106.37 53.19 106.29 52.44 Z" />
<path fill="#ffffff" d=" M 115.96 51.96 C 117.16 51.99 118.37 52.03 119.57 52.06 C 120.15 54.78 120.82 57.49 121.63 60.15 C 122.51 57.45 123.21 54.71 123.80 51.94 C 124.69 51.95 126.49 51.97 127.39 51.98 C 125.41 56.92 124.12 62.14 121.99 67.02 C 120.98 69.10 118.54 68.96 116.59 68.89 C 116.59 68.30 116.57 67.12 116.56 66.53 C 118.17 66.40 120.31 66.13 120.26 64.01 C 119.05 59.92 117.41 55.97 115.96 51.96 Z" />
<path fill="#ffffff" d=" M 131.22 52.35 C 133.02 51.85 135.30 51.80 136.72 53.22 C 140.20 56.46 138.64 64.60 133.01 63.95 C 127.11 64.08 126.29 54.34 131.22 52.35 Z" />
<path fill="#ffffff" d=" M 141.44 52.04 C 142.55 52.03 143.67 52.03 144.79 52.02 L 144.77 53.51 C 144.74 56.16 144.78 58.81 144.89 61.46 C 149.65 62.10 148.08 56.37 148.33 53.45 L 148.30 52.05 C 149.41 52.02 150.52 51.99 151.63 51.96 C 151.59 55.54 151.58 59.13 151.62 62.72 L 151.63 64.02 C 150.11 64.35 149.15 63.85 148.74 62.54 C 146.90 64.27 143.12 64.80 141.99 62.03 C 141.16 58.79 141.72 55.35 141.44 52.04 Z" />
<path fill="#5a615a" d=" M 151.63 51.96 C 152.04 52.32 152.84 53.06 153.25 53.42 C 153.68 53.81 154.54 54.59 154.97 54.98 C 154.99 57.48 155.00 59.98 155.25 62.48 C 154.04 62.55 152.83 62.63 151.62 62.72 C 151.58 59.13 151.59 55.54 151.63 51.96 Z" />
<path fill="#5a5d5a" d=" M 144.77 53.51 C 145.96 53.49 147.14 53.47 148.33 53.45 C 148.08 56.37 149.65 62.10 144.89 61.46 C 144.78 58.81 144.74 56.16 144.77 53.51 Z" />
<path fill="#313031" d=" M 24.07 56.63 C 24.60 54.01 28.11 53.65 28.22 56.70 C 26.83 56.69 25.45 56.67 24.07 56.63 Z" />
<path fill="#313031" d=" M 85.05 56.61 C 85.63 54.01 89.10 53.67 89.22 56.71 C 87.83 56.69 86.44 56.66 85.05 56.61 Z" />
<path fill="#5a595a" d=" M 131.86 54.82 C 132.71 54.74 133.56 54.66 134.41 54.58 C 135.35 56.67 136.07 59.68 134.06 61.40 C 130.35 61.88 131.32 57.10 131.86 54.82 Z" />
<path fill="#525552" d=" M 67.32 55.30 L 67.81 54.57 C 71.47 54.04 70.43 58.80 70.04 61.04 C 66.46 62.77 66.13 57.42 67.32 55.30 Z" />
<path fill="#313031" d=" M 54.44 61.39 C 53.58 58.94 55.31 57.75 57.63 58.19 C 57.23 59.25 56.81 60.31 56.39 61.37 C 55.90 61.37 54.92 61.39 54.44 61.39 Z" />
<path fill="#292c29" d=" M 108.37 58.45 C 109.46 58.37 110.55 58.31 111.65 58.27 C 111.23 59.30 110.79 60.32 110.36 61.35 C 109.88 61.35 108.93 61.36 108.45 61.36 C 108.42 60.39 108.39 59.42 108.37 58.45 Z" />
<path fill="#848284" d=" M 470.49 62.69 C 472.10 63.20 473.70 63.74 475.31 64.28 C 476.86 63.58 478.42 62.90 480.00 62.28 L 480.00 75.98 C 320.00 75.97 160.00 75.99 0.00 75.97 L 0.00 63.60 C 2.08 64.02 4.21 63.96 6.28 63.56 L 6.24 64.07 C 6.23 64.72 6.20 66.01 6.18 66.66 C 13.11 66.83 20.05 66.28 26.97 66.63 C 29.64 66.34 30.33 69.97 32.95 69.82 C 36.59 69.92 42.14 71.15 43.40 66.48 C 53.81 66.10 64.30 67.12 74.64 65.87 C 78.44 66.94 82.31 65.32 86.10 66.40 C 88.91 67.07 91.69 65.63 94.50 66.18 C 100.85 67.23 107.30 65.78 113.66 66.92 C 114.48 68.43 114.14 71.26 116.33 71.50 C 118.85 72.13 121.94 71.75 123.65 69.62 C 124.94 67.83 125.76 65.76 126.72 63.80 C 128.67 65.00 130.51 66.98 133.01 66.75 C 135.41 66.66 137.52 65.40 139.67 64.48 C 142.93 67.30 147.35 66.97 151.29 66.08 C 155.28 64.70 159.82 68.48 163.17 64.96 C 165.14 63.32 167.77 64.02 170.10 63.96 C 269.04 64.05 367.97 63.90 466.91 64.03 C 468.21 63.99 469.31 63.17 470.49 62.69 Z" />
<path fill="#ffffff" d=" M 32.42 65.80 C 35.19 65.64 37.96 65.82 40.73 65.72 C 40.75 66.15 40.79 67.00 40.81 67.43 C 37.67 67.41 34.52 67.48 31.38 67.22 C 31.64 66.86 32.16 66.16 32.42 65.80 Z" />
<path fill="#000000" d=" M 0.00 75.97 C 160.00 75.99 320.00 75.97 480.00 75.98 L 480.00 800.00 L 0.00 800.00 L 0.00 75.97 Z" />
<path fill="#efefef" d=" M 237.14 92.85 C 238.42 91.52 239.76 89.79 241.86 90.02 C 253.96 89.99 266.07 89.96 278.17 90.03 C 280.24 89.79 281.53 91.50 282.79 92.81 C 282.37 94.36 281.97 95.91 281.56 97.46 C 268.95 97.80 256.34 97.42 243.73 97.64 C 242.35 97.64 240.95 97.66 239.60 97.33 C 238.14 96.33 237.91 94.33 237.14 92.85 Z" />
<path fill="#dee3de" d=" M 237.06 99.78 C 236.85 97.47 237.08 95.16 237.14 92.85 C 237.91 94.33 238.14 96.33 239.60 97.33 C 240.95 97.66 242.35 97.64 243.73 97.64 C 256.34 97.42 268.95 97.80 281.56 97.46 C 281.97 95.91 282.37 94.36 282.79 92.81 C 282.96 95.79 283.15 98.78 282.93 101.76 C 282.64 103.33 282.27 104.87 281.92 106.42 C 277.71 105.52 274.91 109.01 271.78 111.12 C 273.52 107.54 278.15 104.64 276.65 100.18 C 272.17 98.73 269.75 103.51 266.87 105.95 C 257.37 105.32 247.84 105.68 238.34 105.75 C 237.88 103.77 237.40 101.79 237.06 99.78 Z" />
<path fill="#ffffff" d=" M 112.44 94.38 C 113.84 94.36 115.24 94.36 116.64 94.39 C 116.67 100.13 116.71 105.88 116.60 111.62 C 115.22 111.63 113.84 111.62 112.47 111.59 C 112.34 105.85 112.37 100.11 112.44 94.38 Z" />
<path fill="#d6d3d6" d=" M 237.06 99.78 C 237.40 101.79 237.88 103.77 238.34 105.75 C 247.84 105.68 257.37 105.32 266.87 105.95 C 263.64 109.22 260.30 112.38 256.90 115.48 C 256.45 115.03 255.53 114.12 255.07 113.67 C 253.86 112.45 252.66 111.20 251.40 110.03 C 248.26 108.15 245.46 111.18 244.87 114.12 C 242.81 113.50 240.70 113.97 238.70 114.56 C 238.05 112.69 237.41 110.81 237.05 108.87 C 236.92 105.84 237.02 102.81 237.06 99.78 Z" />
<path fill="#949694" d=" M 266.87 105.95 C 269.75 103.51 272.17 98.73 276.65 100.18 C 270.37 101.14 267.52 107.47 263.16 111.31 C 261.33 113.07 259.60 114.98 257.52 116.44 C 255.84 117.34 254.83 115.05 253.61 114.30 L 255.07 113.67 C 255.53 114.12 256.45 115.03 256.90 115.48 C 260.30 112.38 263.64 109.22 266.87 105.95 Z" />
<path fill="#cecbce" d=" M 263.16 111.31 C 267.52 107.47 270.37 101.14 276.65 100.18 C 278.15 104.64 273.52 107.54 271.78 111.12 C 274.91 109.01 277.71 105.52 281.92 106.42 C 282.27 104.87 282.64 103.33 282.93 101.76 C 283.02 107.08 283.05 112.41 282.86 117.73 C 282.56 118.58 282.24 119.43 281.92 120.28 C 276.92 118.82 271.67 119.48 266.53 119.36 C 264.27 121.53 262.75 125.09 259.48 125.82 C 260.58 124.38 261.68 122.94 262.81 121.53 C 265.87 117.78 268.93 114.00 271.40 109.82 C 268.74 110.70 266.00 111.51 263.16 111.31 Z" />
<path fill="#ffffff" d=" M 335.03 103.00 C 335.59 103.00 336.71 103.00 337.27 103.00 C 337.27 105.25 337.26 107.49 337.14 109.74 C 338.91 107.66 342.58 107.24 344.45 109.38 C 346.04 113.01 345.01 117.15 345.29 121.00 C 344.73 121.00 343.62 121.00 343.06 121.00 C 342.80 117.27 343.84 113.24 342.08 109.77 C 340.45 109.85 338.40 109.64 337.69 111.50 C 336.88 114.58 337.38 117.84 337.27 121.00 C 336.71 121.00 335.59 121.00 335.03 121.00 C 335.03 115.00 335.03 109.00 335.03 103.00 Z" />
<path fill="#ffffff" d=" M 373.03 103.00 C 373.58 103.00 374.67 103.00 375.22 103.00 C 375.24 106.74 375.27 110.49 375.05 114.24 C 377.36 111.91 378.64 107.26 382.62 107.95 C 381.07 109.85 379.47 111.70 377.87 113.55 C 379.52 116.06 381.21 118.54 382.90 121.03 C 382.24 121.01 380.92 120.97 380.26 120.96 C 378.97 119.03 377.70 117.09 376.44 115.15 C 376.14 115.35 375.53 115.76 375.23 115.97 C 375.22 117.64 375.22 119.32 375.22 121.00 C 374.68 121.00 373.58 121.00 373.03 121.00 C 373.03 115.00 373.03 109.00 373.03 103.00 Z" />
<path fill="#ffffff" d=" M 385.03 103.00 C 385.59 103.00 386.71 103.00 387.28 103.00 C 387.27 105.09 387.24 107.18 387.15 109.28 C 389.33 107.47 393.41 107.37 394.81 110.18 C 396.27 113.04 396.21 116.85 394.35 119.53 C 392.53 121.77 388.82 121.36 387.08 119.23 L 386.66 120.73 C 386.26 120.85 385.45 121.09 385.05 121.21 C 385.01 115.14 385.04 109.07 385.03 103.00 Z" />
<path fill="#707070" d=" M 64.65 106.69 C 66.27 105.79 68.77 105.15 69.85 107.17 C 72.49 111.77 75.27 116.30 77.59 121.08 C 76.68 122.95 73.95 124.68 72.25 122.78 C 69.59 119.00 67.59 114.80 65.11 110.91 C 64.18 109.68 64.70 108.10 64.65 106.69 Z" />
<path fill="#6d6e6d" d=" M 159.24 107.22 C 160.32 105.21 162.78 105.79 164.45 106.60 C 165.41 110.97 161.55 114.19 159.94 117.90 C 158.36 120.01 157.58 124.26 154.12 123.51 C 152.18 122.84 151.45 120.22 152.70 118.59 C 154.87 114.80 156.99 110.97 159.24 107.22 Z" />
<path fill="#ffffff" d=" M 65.34 107.58 C 66.42 107.44 67.50 107.31 68.59 107.19 C 70.84 111.47 73.49 115.54 75.59 119.89 C 75.58 120.50 75.56 121.72 75.55 122.33 C 72.79 123.08 71.95 119.93 70.76 118.21 C 69.00 114.64 66.30 111.50 65.34 107.58 Z" />
<path fill="#fffbff" d=" M 160.12 108.04 C 160.84 106.59 162.62 107.09 163.75 107.67 C 162.95 111.15 160.63 113.95 159.01 117.07 C 157.84 118.98 157.06 121.28 155.10 122.57 C 152.77 122.48 153.15 119.60 154.18 118.37 C 156.26 114.99 158.08 111.45 160.12 108.04 Z" />
<path fill="#ffffff" d=" M 289.87 108.00 C 290.43 108.00 291.54 108.00 292.10 108.00 C 292.14 111.06 291.96 114.13 292.22 117.19 C 292.37 119.92 296.57 119.84 297.40 117.58 C 298.38 114.49 297.84 111.19 297.96 108.00 C 298.51 108.00 299.61 108.00 300.16 108.00 C 300.15 112.41 300.19 116.82 300.14 121.23 C 299.52 120.80 298.28 119.96 297.67 119.54 C 295.84 121.60 291.59 121.71 290.32 119.01 C 289.50 115.40 289.97 111.66 289.87 108.00 Z" />
<path fill="#ffffff" d=" M 304.05 107.82 C 304.60 108.23 305.69 109.04 306.24 109.44 C 308.11 107.60 311.63 107.35 313.46 109.37 C 315.04 113.01 314.01 117.15 314.29 121.00 C 313.73 121.00 312.62 121.00 312.06 121.00 C 311.84 117.22 312.73 113.24 311.21 109.65 C 309.56 109.74 307.30 109.31 306.69 111.33 C 305.89 114.48 306.38 117.78 306.27 121.00 C 305.71 121.00 304.59 121.00 304.03 121.00 C 304.04 116.61 304.01 112.21 304.05 107.82 Z" />
<path fill="#ffffff" d=" M 327.00 120.78 C 321.84 119.08 321.87 110.08 326.93 108.26 C 328.92 107.98 332.51 107.23 332.30 110.35 C 330.46 110.18 328.37 109.40 326.74 110.65 C 325.21 112.60 325.26 115.64 326.29 117.79 C 327.60 119.96 330.42 118.79 332.40 118.58 C 332.52 121.65 329.03 121.07 327.00 120.78 Z" />
<path fill="#ffffff" d=" M 352.86 120.88 C 346.07 119.97 346.92 107.38 354.04 108.00 C 357.60 107.91 358.99 111.77 358.84 114.74 C 356.04 114.78 353.24 114.77 350.44 114.80 C 350.86 116.13 350.88 117.96 352.34 118.68 C 354.20 119.95 356.40 118.15 358.37 118.74 C 358.22 121.61 354.83 120.91 352.86 120.88 Z" />
<path fill="#ffffff" d=" M 362.73 109.71 C 364.59 107.42 367.77 108.01 370.32 108.42 L 369.87 110.40 C 368.17 110.05 366.22 109.45 364.71 110.68 C 363.23 112.63 363.26 115.62 364.27 117.76 C 365.55 119.96 368.38 118.85 370.34 118.51 C 370.64 121.69 366.96 121.07 364.93 120.76 C 360.59 119.26 360.22 112.96 362.73 109.71 Z" />
<path fill="#ffffff" d=" M 401.40 108.45 C 403.42 107.75 406.06 107.72 407.67 109.36 C 411.31 112.79 409.84 121.33 403.96 120.99 C 397.51 121.36 396.20 111.04 401.40 108.45 Z" />
<path fill="#ffffff" d=" M 411.53 107.95 C 414.86 106.98 415.49 110.71 416.99 112.71 C 418.49 110.70 419.19 107.08 422.47 107.90 C 421.12 110.04 419.71 112.14 418.28 114.22 C 419.69 116.54 421.19 118.79 422.65 121.08 C 419.24 121.90 418.59 118.01 417.00 115.97 C 415.39 118.04 414.73 121.90 411.30 121.11 C 412.75 118.82 414.24 116.56 415.70 114.27 C 414.28 112.18 412.88 110.08 411.53 107.95 Z" />
<path fill="#bdbebd" d=" M 237.05 108.87 C 237.41 110.81 238.05 112.69 238.70 114.56 C 240.70 113.97 242.81 113.50 244.87 114.12 C 245.20 114.24 245.85 114.47 246.18 114.59 C 245.69 111.30 248.92 110.74 251.40 110.03 C 252.66 111.20 253.86 112.45 255.07 113.67 L 253.61 114.30 C 254.83 115.05 255.84 117.34 257.52 116.44 C 259.60 114.98 261.33 113.07 263.16 111.31 C 266.00 111.51 268.74 110.70 271.40 109.82 C 268.93 114.00 265.87 117.78 262.81 121.53 C 259.05 121.95 255.26 122.05 251.48 121.75 C 252.59 123.52 253.41 125.58 255.11 126.89 C 256.68 127.39 258.21 126.69 259.48 125.82 C 262.75 125.09 264.27 121.53 266.53 119.36 C 271.67 119.48 276.92 118.82 281.92 120.28 C 282.24 119.43 282.56 118.58 282.86 117.73 C 283.01 122.50 283.10 127.29 282.86 132.06 C 282.81 133.81 281.17 134.76 280.08 135.88 C 278.46 135.14 276.80 134.39 274.99 134.48 C 265.33 134.49 255.67 134.53 246.02 134.47 C 243.88 134.36 241.85 135.03 239.94 135.90 C 238.52 134.62 236.72 133.25 237.05 131.08 C 237.04 123.68 236.94 116.27 237.05 108.87 Z" />
<path fill="#8c8e8c" d=" M 244.87 114.12 C 245.46 111.18 248.26 108.15 251.40 110.03 C 248.92 110.74 245.69 111.30 246.18 114.59 C 245.85 114.47 245.20 114.24 244.87 114.12 Z" />
<path fill="#000000" d=" M 350.35 112.81 C 351.08 111.31 351.98 109.22 354.12 109.83 C 355.30 109.80 357.15 112.02 355.95 112.93 C 354.08 113.15 352.20 112.96 350.35 112.81 Z" />
<path fill="#000000" d=" M 388.35 110.51 C 389.90 109.06 392.80 109.80 393.21 111.99 C 393.52 114.39 394.02 118.36 391.02 119.18 C 386.49 119.75 386.36 113.02 388.35 110.51 Z" />
<path fill="#000000" d=" M 402.22 110.18 C 406.49 108.04 408.28 113.78 406.98 116.92 C 406.46 119.97 401.54 119.99 400.87 117.01 C 400.50 114.76 400.11 111.71 402.22 110.18 Z" />
<path fill="#adaead" d=" M 251.48 121.75 C 255.26 122.05 259.05 121.95 262.81 121.53 C 261.68 122.94 260.58 124.38 259.48 125.82 C 258.21 126.69 256.68 127.39 255.11 126.89 C 253.41 125.58 252.59 123.52 251.48 121.75 Z" />
<path fill="#dad9da" d=" M 239.94 135.90 C 241.85 135.03 243.88 134.36 246.02 134.47 C 255.67 134.53 265.33 134.49 274.99 134.48 C 276.80 134.39 278.46 135.14 280.08 135.88 C 266.70 136.10 253.32 136.05 239.94 135.90 Z" />
<path fill="#6e6f6e" d=" M 31.44 140.66 C 33.42 139.80 35.25 141.34 36.88 142.25 C 40.31 144.48 44.15 146.09 47.31 148.70 C 48.19 150.78 46.88 152.68 45.04 153.61 C 40.30 151.23 35.75 148.51 31.17 145.85 C 29.08 144.83 29.32 141.44 31.44 140.66 Z" />
<path fill="#fffbff" d=" M 31.20 144.60 C 31.31 143.52 31.43 142.44 31.56 141.37 C 35.75 142.31 39.10 145.23 42.89 147.11 C 44.42 148.20 47.27 149.04 46.39 151.55 C 44.91 151.84 43.55 151.61 42.30 150.87 C 38.61 148.77 34.92 146.65 31.20 144.60 Z" />
<path fill="#f7fbf7" d=" M 192.73 142.57 C 193.16 142.53 194.04 142.45 194.48 142.42 L 194.44 141.31 C 195.47 141.35 197.53 141.42 198.56 141.46 C 198.52 142.40 198.46 144.29 198.42 145.23 C 197.21 145.62 196.03 146.11 194.92 146.72 C 194.00 147.27 193.11 147.87 192.25 148.50 L 191.30 148.35 L 191.41 149.63 C 190.95 149.56 190.02 149.41 189.56 149.34 L 189.35 150.57 C 189.00 150.55 188.28 150.51 187.92 150.49 L 187.25 151.42 C 186.85 151.45 186.04 151.53 185.63 151.57 L 185.56 152.71 C 182.40 153.31 182.33 150.86 182.29 148.61 L 183.60 148.56 L 183.67 147.38 C 184.10 147.45 184.96 147.57 185.39 147.64 L 185.63 146.34 C 186.06 146.40 186.93 146.53 187.36 146.59 L 187.39 145.38 L 188.60 145.62 L 188.65 144.43 C 189.09 144.49 189.97 144.62 190.41 144.69 L 190.61 143.37 C 190.99 143.42 191.75 143.53 192.14 143.58 L 192.73 142.57 Z" />
<path fill="#848684" d=" M 134.03 182.28 C 141.64 181.30 149.35 181.79 156.96 180.81 C 161.92 180.72 166.94 179.96 171.87 180.72 C 164.39 182.51 156.62 182.04 149.00 182.54 C 136.39 183.91 123.55 183.10 111.06 185.54 C 111.29 185.14 111.76 184.36 111.99 183.96 C 119.19 182.10 126.69 182.94 134.03 182.28 Z" />
<path fill="#ffffff" d=" M 171.87 180.72 C 176.76 180.25 181.70 180.38 186.61 180.38 L 186.31 179.55 C 191.78 179.71 197.24 179.34 202.71 179.48 L 202.29 180.67 L 203.42 180.49 C 203.45 181.25 203.50 182.77 203.53 183.53 L 202.50 183.46 L 202.56 184.52 C 201.09 184.51 199.62 184.54 198.15 184.59 C 188.71 186.01 179.18 187.09 169.83 189.09 C 152.50 191.46 135.23 194.20 117.99 197.19 C 115.07 197.60 111.53 196.83 109.79 194.25 C 108.95 192.12 109.66 189.63 108.51 187.57 L 108.37 187.20 L 109.53 187.59 C 109.35 186.28 109.86 185.60 111.06 185.54 C 123.55 183.10 136.39 183.91 149.00 182.54 C 156.62 182.04 164.39 182.51 171.87 180.72 Z" />
<path fill="#939493" d=" M 169.83 189.09 C 179.18 187.09 188.71 186.01 198.15 184.59 L 200.16 185.22 C 191.26 186.83 182.30 188.55 173.31 189.42 C 172.15 189.31 170.99 189.20 169.83 189.09 Z" />
<path fill="#666666" d=" M 18.36 187.60 C 23.97 187.71 29.60 187.35 35.20 187.74 C 37.38 189.05 36.97 191.89 35.39 193.50 C 29.83 193.34 24.25 193.74 18.69 193.33 C 16.41 191.98 17.05 189.39 18.36 187.60 Z" />
<path fill="#7b7d7b" d=" M 111.97 197.74 C 108.28 196.17 106.08 191.06 108.51 187.57 C 109.66 189.63 108.95 192.12 109.79 194.25 C 111.53 196.83 115.07 197.60 117.99 197.19 C 135.23 194.20 152.50 191.46 169.83 189.09 C 170.99 189.20 172.15 189.31 173.31 189.42 C 159.60 192.14 145.68 193.78 131.88 196.03 C 132.69 197.10 133.78 197.89 134.87 198.68 L 133.86 199.33 C 129.34 199.28 124.80 199.49 120.39 200.60 L 120.54 202.06 L 120.63 203.40 C 117.80 201.43 115.23 199.00 111.97 197.74 Z" />
<path fill="#969796" d=" M 193.59 188.44 C 199.56 188.32 205.63 187.45 211.55 188.53 C 211.55 189.81 211.56 191.08 211.56 192.36 C 206.97 194.27 201.82 192.93 196.98 193.35 C 195.04 193.74 193.47 192.77 192.31 191.32 C 192.63 190.60 193.27 189.16 193.59 188.44 Z" />
<path fill="#ffffff" d=" M 18.91 189.26 L 19.71 188.71 C 24.50 188.59 29.31 188.55 34.09 188.74 C 35.79 189.36 36.15 190.48 35.16 192.12 C 29.74 192.65 24.22 192.51 18.79 192.19 C 18.82 191.46 18.88 190.00 18.91 189.26 Z" />
<path fill="#ffffff" d=" M 200.86 189.36 C 204.02 189.55 207.50 188.29 210.43 189.76 L 210.91 191.38 C 205.33 192.92 199.48 191.94 193.83 191.45 C 194.95 188.53 198.49 189.77 200.86 189.36 Z" />
<path fill="#ffffff" d=" M 120.39 200.60 C 124.80 199.49 129.34 199.28 133.86 199.33 L 135.52 199.33 L 135.56 200.20 C 137.41 201.13 138.65 202.91 140.54 203.78 L 140.31 204.75 L 141.55 204.21 L 141.28 205.61 L 142.75 205.17 L 142.29 206.42 C 144.52 206.53 145.43 209.06 147.43 209.80 L 147.38 210.45 L 148.41 210.56 L 148.63 211.56 L 149.33 211.41 L 149.80 212.42 C 150.25 212.49 151.15 212.62 151.60 212.69 C 151.55 213.17 151.44 214.14 151.39 214.62 C 151.92 214.56 152.97 214.45 153.50 214.39 C 153.50 214.89 153.52 215.89 153.53 216.39 C 154.04 216.41 155.07 216.43 155.58 216.44 L 155.27 217.67 L 156.63 217.25 L 156.31 218.65 L 157.61 218.16 L 157.41 219.63 C 157.93 219.59 158.95 219.50 159.47 219.46 C 159.47 219.94 159.49 220.91 159.49 221.39 C 161.07 221.20 161.78 221.89 161.64 223.44 C 162.11 223.44 163.03 223.42 163.49 223.41 C 163.68 225.05 163.65 226.70 163.41 228.33 C 162.68 228.40 161.23 228.55 160.50 228.62 L 160.28 227.45 C 159.83 227.50 158.93 227.59 158.48 227.64 L 158.43 226.32 C 157.98 226.39 157.09 226.53 156.64 226.60 L 156.61 225.35 L 155.38 225.68 L 155.40 224.38 C 154.96 224.45 154.06 224.61 153.61 224.69 L 153.56 223.67 C 152.55 223.24 151.54 222.81 150.53 222.38 L 150.45 221.66 C 149.44 221.20 148.42 220.76 147.40 220.32 L 147.51 219.30 C 147.04 219.39 146.10 219.56 145.63 219.65 L 145.61 218.33 L 144.39 218.62 L 144.43 217.31 C 143.96 217.40 143.04 217.58 142.57 217.67 L 142.61 216.63 C 141.67 216.22 140.75 215.78 139.84 215.32 C 139.58 215.05 139.06 214.51 138.80 214.24 C 138.21 214.03 137.05 213.59 136.47 213.38 L 136.68 212.25 L 135.31 212.85 L 135.54 211.40 C 135.05 211.47 134.06 211.61 133.57 211.68 L 133.54 210.62 C 132.49 210.19 131.45 209.77 130.41 209.35 L 130.46 208.27 C 130.00 208.34 129.09 208.49 128.63 208.56 L 128.66 207.38 L 127.48 207.62 L 127.44 206.66 C 126.39 206.22 125.34 205.78 124.30 205.34 L 124.51 204.28 C 124.05 204.37 123.13 204.54 122.67 204.63 L 122.68 203.50 L 121.57 203.45 L 121.40 202.65 L 120.54 202.06 L 120.39 200.60 Z" />
<path fill="#737473" d=" M 43.33 228.42 C 44.89 227.49 46.29 228.85 47.64 229.49 C 47.30 230.70 47.82 232.51 46.50 233.23 C 42.67 235.46 38.84 237.69 34.99 239.88 C 33.70 240.81 32.11 240.50 30.64 240.44 C 29.74 238.78 29.28 236.27 31.30 235.22 C 35.28 232.91 39.25 230.53 43.33 228.42 Z" />
<path fill="#f7fbf7" d=" M 183.50 229.67 L 183.34 228.54 L 185.63 228.55 L 185.61 229.67 C 186.05 229.57 186.91 229.38 187.34 229.29 L 187.62 230.41 C 188.14 230.64 189.18 231.11 189.69 231.34 C 190.61 231.81 191.55 232.26 192.50 232.68 L 192.68 233.61 C 193.11 233.55 193.96 233.44 194.39 233.38 L 194.62 234.61 C 194.98 234.59 195.70 234.56 196.06 234.54 C 196.65 234.84 197.81 235.43 198.39 235.73 C 198.45 236.70 198.55 238.66 198.60 239.63 C 196.90 239.64 195.20 239.58 193.51 239.49 L 193.64 238.26 L 192.42 238.65 L 192.37 237.44 C 191.93 237.50 191.04 237.63 190.60 237.69 L 190.39 236.37 C 189.95 236.43 189.07 236.56 188.62 236.62 L 188.54 235.71 C 187.62 235.24 186.69 234.78 185.77 234.32 C 185.21 234.07 184.09 233.57 183.53 233.32 L 183.59 232.37 L 182.44 232.49 C 182.41 231.71 182.34 230.15 182.31 229.37 L 183.50 229.67 Z" />
<path fill="#fffbff" d=" M 41.81 230.52 C 43.02 229.99 44.95 228.26 45.98 229.99 C 47.87 231.38 44.99 232.45 44.13 233.23 C 39.94 235.39 36.16 238.44 31.59 239.77 C 31.46 238.66 31.34 237.56 31.23 236.46 C 34.82 234.60 38.35 232.61 41.81 230.52 Z" />
<path fill="#6e6f6e" d=" M 151.52 260.09 C 152.70 258.49 154.81 256.40 156.79 258.17 C 159.50 261.89 161.47 266.11 163.89 270.03 C 164.89 271.31 164.54 272.94 164.49 274.43 C 162.78 275.15 160.32 276.08 159.23 273.93 C 156.63 269.34 153.87 264.82 151.52 260.09 Z" />
<path fill="#f7fbf7" d=" M 72.39 258.30 C 74.70 258.32 77.33 258.36 76.65 261.57 L 75.48 261.65 C 75.53 262.09 75.62 262.98 75.67 263.42 L 74.35 263.70 C 74.43 264.14 74.60 265.01 74.69 265.45 L 73.64 265.49 C 73.23 266.52 72.81 267.55 72.40 268.58 L 71.43 268.66 C 71.49 269.11 71.62 270.00 71.68 270.45 L 70.73 270.69 C 70.21 271.92 69.69 273.15 69.19 274.40 C 68.26 274.44 66.38 274.52 65.45 274.55 C 65.42 273.51 65.37 271.41 65.34 270.36 L 66.53 270.49 C 66.78 269.90 67.28 268.72 67.54 268.13 C 67.51 267.75 67.46 266.99 67.44 266.61 L 68.68 266.49 C 68.61 266.03 68.48 265.12 68.41 264.66 L 69.66 264.62 L 69.39 263.43 L 70.55 263.29 C 70.51 262.86 70.44 262.02 70.40 261.60 L 71.65 261.40 C 71.58 260.97 71.45 260.12 71.39 259.69 L 72.58 259.55 L 72.39 258.30 Z" />
<path fill="#fffbff" d=" M 154.13 259.10 C 155.36 257.46 156.57 260.02 157.22 260.88 C 159.25 265.00 162.44 268.67 163.59 273.14 C 163.15 273.45 162.27 274.07 161.83 274.38 C 159.49 273.30 158.90 270.55 157.59 268.57 C 156.16 265.62 153.70 263.08 153.23 259.75 L 154.13 259.10 Z" />
<path fill="#939293" d=" M 112.95 268.77 C 113.78 268.69 114.62 268.62 115.45 268.55 C 115.90 268.90 116.81 269.60 117.26 269.96 C 117.40 275.31 117.54 280.69 117.26 286.04 C 116.43 287.95 114.36 287.67 112.66 287.59 C 110.75 282.21 112.15 276.34 111.70 270.75 C 112.01 270.26 112.64 269.27 112.95 268.77 Z" />
<path fill="#ffffff" d=" M 113.43 270.45 C 114.25 268.60 116.45 270.64 116.18 271.94 C 116.27 275.63 116.21 279.31 116.21 283.00 C 116.35 284.65 115.86 286.91 113.73 286.94 C 112.36 283.09 113.07 278.96 112.89 274.98 C 113.06 273.48 112.52 271.75 113.43 270.45 Z" />
<path fill="#efefef" d=" M 6.02 313.91 C 5.84 311.31 8.28 308.85 10.87 309.01 C 80.61 308.99 150.36 309.00 220.10 309.01 C 222.70 308.83 225.15 311.26 224.96 313.87 C 225.09 317.48 224.92 321.10 224.98 324.71 C 222.95 323.81 220.98 322.54 218.71 322.41 C 149.88 322.43 81.05 322.44 12.23 322.40 C 9.99 322.56 8.05 323.83 6.02 324.70 C 6.07 321.10 5.93 317.50 6.02 313.91 Z" />
<path fill="#dedbde" d=" M 6.02 324.70 C 8.05 323.83 9.99 322.56 12.23 322.40 C 81.05 322.44 149.88 322.43 218.71 322.41 C 220.98 322.54 222.95 323.81 224.98 324.71 C 225.05 329.22 224.93 333.72 225.01 338.23 C 223.63 337.02 222.37 335.60 220.74 334.73 C 218.45 334.23 216.09 334.56 213.78 334.52 C 190.26 334.48 166.74 334.55 143.23 334.52 C 142.89 334.04 142.21 333.10 141.88 332.62 C 140.43 330.39 138.20 333.14 137.78 334.77 C 135.04 334.58 132.29 334.50 129.57 334.16 L 129.23 333.17 C 128.92 333.67 128.60 334.18 128.28 334.68 C 120.72 334.09 113.13 334.78 105.56 334.27 C 105.57 333.63 105.58 332.35 105.58 331.71 C 105.16 331.85 104.33 332.12 103.91 332.25 C 103.13 332.96 102.38 333.72 101.64 334.48 C 90.83 334.68 79.98 334.24 69.23 335.52 C 49.89 335.48 30.55 335.54 11.22 335.46 C 9.08 335.28 7.56 336.97 5.98 338.12 C 6.09 333.64 5.94 329.17 6.02 324.70 Z" />
<path fill="#c6c7c6" d=" M 101.64 334.48 C 102.38 333.72 103.13 332.96 103.91 332.25 C 103.88 337.50 103.85 342.75 103.88 348.00 C 101.14 347.84 98.39 347.79 95.65 347.88 C 95.69 344.23 95.66 340.57 95.12 336.95 C 93.03 335.99 90.81 335.78 88.78 337.08 C 88.35 336.75 87.48 336.11 87.05 335.79 C 86.78 338.87 86.84 341.97 86.88 345.07 C 86.03 345.33 84.31 345.85 83.46 346.11 C 83.53 342.74 83.46 339.38 83.46 336.02 C 83.06 336.01 82.25 336.00 81.85 336.00 C 81.79 338.85 82.07 341.75 81.47 344.57 C 81.02 346.77 77.20 347.30 76.70 344.92 C 76.20 341.99 76.47 338.99 76.45 336.04 C 76.03 336.06 75.18 336.10 74.76 336.12 C 74.75 339.89 74.53 343.72 75.43 347.43 C 73.31 347.47 71.19 347.69 69.07 347.72 C 49.96 347.58 30.86 347.72 11.76 347.62 C 8.78 347.39 7.66 350.67 6.01 352.51 C 5.99 347.71 6.02 342.91 5.98 338.12 C 7.56 336.97 9.08 335.28 11.22 335.46 C 30.55 335.54 49.89 335.48 69.23 335.52 C 79.98 334.24 90.83 334.68 101.64 334.48 Z" />
<path fill="#000000" d=" M 103.91 332.25 C 104.33 332.12 105.16 331.85 105.58 331.71 C 105.58 332.35 105.57 333.63 105.56 334.27 C 105.55 334.92 105.52 336.22 105.51 336.87 C 107.37 336.39 109.56 335.34 111.25 336.85 C 114.06 339.59 113.27 344.04 111.74 347.26 C 109.53 348.06 107.28 348.18 105.53 346.30 C 105.12 346.72 104.29 347.58 103.88 348.00 C 103.85 342.75 103.88 337.50 103.91 332.25 Z" />
<path fill="#000000" d=" M 137.78 334.77 C 138.20 333.14 140.43 330.39 141.88 332.62 C 140.94 333.93 139.51 335.17 137.78 334.77 Z" />
<path fill="#bdbebd" d=" M 260.14 332.09 C 263.64 331.96 267.15 331.98 270.66 332.01 L 270.69 333.72 C 269.25 333.72 267.83 333.73 266.40 333.74 C 266.39 338.49 266.40 343.25 266.39 348.00 L 264.53 348.00 C 264.50 343.25 264.54 338.50 264.50 333.75 C 263.07 333.74 261.65 333.73 260.24 333.72 C 260.21 333.31 260.16 332.50 260.14 332.09 Z" />
<path fill="#bdbebd" d=" M 300.01 331.86 C 300.48 331.93 301.44 332.09 301.92 332.17 C 303.51 336.42 304.52 340.86 305.90 345.19 C 307.51 340.92 308.32 336.39 310.01 332.15 C 310.48 332.08 311.44 331.95 311.91 331.88 C 310.19 337.23 308.70 342.67 306.79 347.97 C 306.37 347.97 305.53 347.98 305.11 347.99 C 303.24 342.67 301.69 337.24 300.01 331.86 Z" />
<path fill="#bdbebd" d=" M 313.70 332.18 C 315.00 330.51 317.50 333.22 315.68 334.37 C 314.22 335.68 312.43 333.49 313.70 332.18 Z" />
<path fill="#000000" d=" M 128.28 334.68 C 128.60 334.18 128.92 333.67 129.23 333.17 L 129.57 334.16 C 129.66 334.60 129.85 335.49 129.95 335.93 C 130.75 336.02 132.34 336.22 133.14 336.31 C 132.02 336.87 130.88 337.37 129.71 337.82 C 129.72 340.62 129.78 343.42 129.93 346.22 C 130.76 346.32 132.42 346.50 133.25 346.59 C 132.22 348.59 130.02 347.72 128.30 347.33 C 127.93 344.18 127.87 341.01 127.95 337.84 C 127.63 337.57 126.99 337.02 126.68 336.75 C 127.08 336.23 127.88 335.20 128.28 334.68 Z" />
<path fill="#c6cbc6" d=" M 137.78 334.77 C 139.51 335.17 140.94 333.93 141.88 332.62 C 142.21 333.10 142.89 334.04 143.23 334.52 C 166.74 334.55 190.26 334.48 213.78 334.52 C 216.09 334.56 218.45 334.23 220.74 334.73 C 222.37 335.60 223.63 337.02 225.01 338.23 C 224.99 342.97 225.00 347.72 224.99 352.46 C 223.36 350.58 222.28 347.27 219.24 347.60 C 198.05 347.79 176.84 347.35 155.65 347.88 C 155.46 344.34 156.14 340.61 154.91 337.21 C 153.21 335.41 150.69 336.02 148.78 337.11 C 148.34 336.79 147.44 336.15 147.00 335.83 C 146.77 338.94 146.85 342.07 146.88 345.19 C 146.14 344.89 144.66 344.30 143.92 344.00 C 144.64 340.38 142.50 335.17 138.08 336.11 C 134.18 336.98 133.98 341.49 134.40 344.69 C 134.12 345.16 133.54 346.11 133.25 346.59 C 132.42 346.50 130.76 346.32 129.93 346.22 C 129.78 343.42 129.72 340.62 129.71 337.82 C 130.88 337.37 132.02 336.87 133.14 336.31 C 132.34 336.22 130.75 336.02 129.95 335.93 C 129.85 335.49 129.66 334.60 129.57 334.16 C 132.29 334.50 135.04 334.58 137.78 334.77 Z" />
<path fill="#bdbebd" d=" M 293.26 336.75 C 294.76 335.93 295.55 334.40 296.53 333.09 C 296.60 333.81 296.76 335.25 296.83 335.97 C 297.54 335.99 298.95 336.03 299.65 336.04 L 299.60 337.40 C 298.88 337.43 297.45 337.50 296.73 337.53 C 296.71 340.42 296.72 343.32 296.94 346.21 C 297.77 346.31 299.42 346.50 300.25 346.60 C 299.20 348.70 295.66 348.39 295.15 346.05 C 294.77 343.33 294.98 340.57 294.98 337.83 C 294.55 337.56 293.69 337.02 293.26 336.75 Z" />
<path fill="#cecbce" d=" M 105.56 334.27 C 113.13 334.78 120.72 334.09 128.28 334.68 C 127.88 335.20 127.08 336.23 126.68 336.75 C 126.99 337.02 127.63 337.57 127.95 337.84 C 127.87 341.01 127.93 344.18 128.30 347.33 C 126.63 347.31 124.96 347.29 123.30 347.24 C 124.51 344.83 125.66 342.05 124.50 339.39 C 123.77 336.62 120.22 335.03 117.76 336.65 C 114.89 338.20 115.13 341.88 115.43 344.65 C 115.02 345.67 114.61 346.70 114.19 347.73 C 113.37 347.56 112.56 347.41 111.74 347.26 C 113.27 344.04 114.06 339.59 111.25 336.85 C 109.56 335.34 107.37 336.39 105.51 336.87 C 105.52 336.22 105.55 334.92 105.56 334.27 Z" />
<path fill="#000000" d=" M 74.76 336.12 C 75.18 336.10 76.03 336.06 76.45 336.04 C 76.47 338.99 76.20 341.99 76.70 344.92 C 77.20 347.30 81.02 346.77 81.47 344.57 C 82.07 341.75 81.79 338.85 81.85 336.00 C 82.25 336.00 83.06 336.01 83.46 336.02 C 83.46 339.38 83.53 342.74 83.46 346.11 C 83.44 346.70 83.39 347.87 83.37 348.45 C 82.94 347.99 82.06 347.08 81.62 346.62 C 79.78 348.08 77.60 347.89 75.43 347.43 C 74.53 343.72 74.75 339.89 74.76 336.12 Z" />
<path fill="#000000" d=" M 86.88 345.07 C 86.84 341.97 86.78 338.87 87.05 335.79 C 87.48 336.11 88.35 336.75 88.78 337.08 C 90.81 335.78 93.03 335.99 95.12 336.95 C 95.66 340.57 95.69 344.23 95.65 347.88 C 95.20 347.89 94.31 347.90 93.86 347.91 C 93.85 344.91 94.04 341.91 93.74 338.93 C 93.21 336.58 89.47 336.84 88.99 339.06 C 88.32 341.97 88.62 344.98 88.60 347.94 C 88.18 347.95 87.35 347.96 86.93 347.96 C 86.91 346.99 86.90 346.03 86.88 345.07 Z" />
<path fill="#000000" d=" M 117.76 336.65 C 120.22 335.03 123.77 336.62 124.50 339.39 C 125.66 342.05 124.51 344.83 123.30 347.24 C 120.31 348.58 116.82 347.85 115.43 344.65 C 115.13 341.88 114.89 338.20 117.76 336.65 Z" />
<path fill="#000000" d=" M 134.40 344.69 C 133.98 341.49 134.18 336.98 138.08 336.11 C 142.50 335.17 144.64 340.38 143.92 344.00 C 143.02 345.99 141.44 348.14 138.99 348.01 C 136.87 348.06 135.52 346.21 134.40 344.69 Z" />
<path fill="#000000" d=" M 146.88 345.19 C 146.85 342.07 146.77 338.94 147.00 335.83 C 147.44 336.15 148.34 336.79 148.78 337.11 C 150.69 336.02 153.21 335.41 154.91 337.21 C 156.14 340.61 155.46 344.34 155.65 347.88 C 155.20 347.89 154.30 347.91 153.86 347.91 C 153.79 344.73 154.20 341.49 153.57 338.36 C 152.48 336.55 149.37 337.13 148.97 339.15 C 148.33 342.03 148.61 345.01 148.60 347.94 C 148.18 347.95 147.35 347.96 146.93 347.97 C 146.91 347.04 146.90 346.11 146.88 345.19 Z" />
<path fill="#bdbebd" d=" M 232.67 336.07 C 233.14 336.06 234.09 336.05 234.56 336.05 C 234.48 339.42 234.37 342.82 234.89 346.18 C 236.37 346.17 238.36 346.82 239.23 345.14 C 240.14 342.18 239.61 339.01 239.74 335.97 C 240.20 335.99 241.10 336.04 241.55 336.06 C 241.52 340.01 241.52 343.97 241.56 347.93 C 241.20 347.95 240.49 348.00 240.13 348.03 L 239.93 346.37 C 238.19 348.04 235.12 348.76 233.40 346.69 C 232.07 343.33 232.94 339.59 232.67 336.07 Z" />
<path fill="#bdbebd" d=" M 244.80 348.04 C 244.80 343.98 244.68 339.92 244.90 335.86 C 247.31 337.92 250.73 334.52 252.84 337.21 C 254.47 340.49 253.34 344.42 253.67 347.96 C 253.21 347.97 252.29 348.00 251.83 348.02 C 251.79 344.99 251.99 341.96 251.68 338.95 C 251.27 336.66 247.53 336.93 247.02 339.03 C 246.32 341.94 246.73 344.98 246.67 347.95 C 246.20 347.98 245.27 348.02 244.80 348.04 Z" />
<path fill="#bdbebd" d=" M 273.19 345.86 C 271.03 342.56 272.18 335.90 276.99 336.05 C 280.21 335.91 281.26 339.37 281.33 341.97 C 278.82 341.99 276.32 342.00 273.83 342.07 C 274.33 343.51 274.40 345.35 275.92 346.18 C 277.61 346.62 279.29 345.99 280.93 345.62 C 280.80 346.10 280.55 347.05 280.43 347.52 C 277.96 348.06 274.67 348.43 273.19 345.86 Z" />
<path fill="#bdbebd" d=" M 282.58 335.84 C 285.34 335.56 285.85 338.69 287.47 340.25 C 288.60 338.42 289.19 335.54 291.95 335.83 C 290.77 337.86 289.51 339.85 288.26 341.85 C 289.56 343.92 290.86 346.00 292.08 348.13 C 289.16 348.49 288.65 345.04 287.20 343.26 C 285.83 345.12 285.36 348.46 282.38 348.17 C 283.60 346.03 284.90 343.94 286.21 341.85 C 284.98 339.85 283.74 337.87 282.58 335.84 Z" />
<path fill="#bdbebd" d=" M 313.89 347.89 C 313.69 343.97 313.69 340.03 313.89 336.12 C 314.33 336.06 315.20 335.93 315.64 335.87 C 315.65 339.95 315.64 344.03 315.65 348.11 C 315.21 348.05 314.33 347.95 313.89 347.89 Z" />
<path fill="#bdbebd" d=" M 319.15 345.80 C 317.05 342.48 318.21 335.87 323.02 336.05 C 326.22 335.93 327.26 339.38 327.32 341.98 C 324.82 341.99 322.33 342.00 319.83 342.07 C 320.33 343.53 320.39 345.43 322.00 346.20 C 323.62 346.61 325.23 345.98 326.81 345.63 C 326.70 346.24 326.60 346.86 326.51 347.49 C 324.00 348.08 320.63 348.45 319.15 345.80 Z" />
<path fill="#b5b6b5" d=" M 328.19 335.91 C 328.65 335.96 329.59 336.07 330.05 336.12 C 331.08 339.44 331.50 342.92 332.32 346.30 C 333.04 342.89 333.67 339.42 334.93 336.16 C 335.39 336.08 336.32 335.92 336.79 335.84 C 337.54 338.52 338.88 341.50 337.17 344.13 C 336.87 342.79 336.26 340.12 335.96 338.79 C 334.56 341.66 334.34 344.91 333.16 347.86 C 332.66 347.93 331.65 348.07 331.15 348.14 C 330.15 344.06 329.14 339.99 328.19 335.91 Z" />
<path fill="#bdbebd" d=" M 341.50 336.11 C 341.99 336.09 342.96 336.04 343.45 336.02 C 342.44 340.00 341.45 343.98 340.58 348.00 C 337.46 348.92 337.03 344.80 338.92 343.13 L 339.38 346.10 C 340.15 342.79 340.78 339.44 341.50 336.11 Z" />
<path fill="#c6c7c6" d=" M 88.99 339.06 C 89.47 336.84 93.21 336.58 93.74 338.93 C 94.04 341.91 93.85 344.91 93.86 347.91 C 92.10 347.91 90.35 347.91 88.60 347.94 C 88.62 344.98 88.32 341.97 88.99 339.06 Z" />
<path fill="#c6c7c6" d=" M 148.97 339.15 C 149.37 337.13 152.48 336.55 153.57 338.36 C 154.20 341.49 153.79 344.73 153.86 347.91 C 152.10 347.91 150.35 347.91 148.60 347.94 C 148.61 345.01 148.33 342.03 148.97 339.15 Z" />
<path fill="#c6c7c6" d=" M 106.36 338.29 C 107.97 336.75 111.10 337.68 111.09 340.09 C 111.55 342.44 111.42 346.84 107.98 346.43 C 104.69 345.51 105.33 340.76 106.36 338.29 Z" />
<path fill="#c6c7c6" d=" M 118.20 338.12 C 119.68 336.98 122.04 337.50 122.73 339.28 C 123.18 341.06 123.17 343.01 122.67 344.79 C 121.84 347.03 118.10 346.98 117.40 344.63 C 116.89 342.52 116.61 339.85 118.20 338.12 Z" />
<path fill="#c6c7c6" d=" M 137.20 338.11 C 138.67 336.99 141.07 337.49 141.72 339.30 C 142.25 341.03 142.12 342.97 141.70 344.72 C 140.93 347.04 137.09 347.01 136.40 344.62 C 135.89 342.51 135.62 339.85 137.20 338.11 Z" />
<path fill="#000000" d=" M 273.96 340.40 C 274.59 339.47 274.52 337.61 276.06 337.71 C 277.60 337.03 280.00 338.77 278.86 340.40 C 277.23 340.50 275.59 340.43 273.96 340.40 Z" />
<path fill="#000000" d=" M 319.95 340.40 C 320.59 339.44 320.53 337.58 322.11 337.68 C 323.67 337.08 325.99 338.78 324.86 340.41 C 323.22 340.50 321.58 340.43 319.95 340.40 Z" />
<path fill="#bdbabd" d=" M 143.92 344.00 C 144.66 344.30 146.14 344.89 146.88 345.19 C 146.90 346.11 146.91 347.04 146.93 347.97 C 147.35 347.96 148.18 347.95 148.60 347.94 C 150.35 347.91 152.10 347.91 153.86 347.91 C 154.30 347.91 155.20 347.89 155.65 347.88 C 176.84 347.35 198.05 347.79 219.24 347.60 C 222.28 347.27 223.36 350.58 224.99 352.46 C 225.03 356.01 224.94 359.56 225.09 363.11 C 223.53 364.19 222.00 365.72 219.94 365.52 C 152.55 365.41 85.15 365.55 17.75 365.48 C 13.71 365.38 8.95 366.59 5.91 363.10 C 6.06 359.57 5.98 356.04 6.01 352.51 C 7.66 350.67 8.78 347.39 11.76 347.62 C 30.86 347.72 49.96 347.58 69.07 347.72 C 71.19 347.69 73.31 347.47 75.43 347.43 C 77.60 347.89 79.78 348.08 81.62 346.62 C 82.06 347.08 82.94 347.99 83.37 348.45 C 83.39 347.87 83.44 346.70 83.46 346.11 C 84.31 345.85 86.03 345.33 86.88 345.07 C 86.90 346.03 86.91 346.99 86.93 347.96 C 87.35 347.96 88.18 347.95 88.60 347.94 C 90.35 347.91 92.10 347.91 93.86 347.91 C 94.31 347.90 95.20 347.89 95.65 347.88 C 98.39 347.79 101.14 347.84 103.88 348.00 C 104.29 347.58 105.12 346.72 105.53 346.30 C 107.28 348.18 109.53 348.06 111.74 347.26 C 112.56 347.41 113.37 347.56 114.19 347.73 C 114.61 346.70 115.02 345.67 115.43 344.65 C 116.82 347.85 120.31 348.58 123.30 347.24 C 124.96 347.29 126.63 347.31 128.30 347.33 C 130.02 347.72 132.22 348.59 133.25 346.59 C 133.54 346.11 134.12 345.16 134.40 344.69 C 135.52 346.21 136.87 348.06 138.99 348.01 C 141.44 348.14 143.02 345.99 143.92 344.00 Z" />
<path fill="#cecfce" d=" M 5.91 363.10 C 8.95 366.59 13.71 365.38 17.75 365.48 C 85.15 365.55 152.55 365.41 219.94 365.52 C 222.00 365.72 223.53 364.19 225.09 363.11 C 225.49 366.25 223.77 370.33 220.06 370.00 C 150.35 370.00 80.63 370.00 10.92 370.00 C 7.21 370.31 5.50 366.22 5.91 363.10 Z" />
</svg>
