<?xml version="1.0" encoding="UTF-8" ?>
<!DOCTYPE svg PUBLIC "-//W3C//DTD SVG 1.1//EN" "http://www.w3.org/Graphics/SVG/1.1/DTD/svg11.dtd">
<svg width="480pt" height="800pt" viewBox="0 0 480 800" version="1.1" xmlns="http://www.w3.org/2000/svg">
<path fill="#fffbff" d=" M 0.00 0.00 L 480.00 0.00 L 480.00 16.24 C 476.58 16.13 473.11 15.65 469.76 16.57 L 469.76 15.86 C 468.59 15.95 467.43 16.04 466.27 16.13 C 465.44 19.18 464.53 22.20 463.61 25.22 C 462.67 22.15 461.78 19.06 460.93 15.96 C 460.10 15.94 458.43 15.92 457.59 15.90 C 457.59 17.67 457.59 19.44 457.60 21.21 C 456.78 20.18 455.99 19.15 455.15 18.15 C 453.48 15.56 450.17 16.01 447.53 15.90 C 447.56 17.68 447.58 19.45 447.61 21.23 C 445.54 21.22 443.48 21.20 441.42 21.18 C 441.57 17.53 441.25 12.31 436.97 11.19 C 433.30 10.03 430.47 13.22 429.82 16.51 C 429.46 16.67 428.72 16.98 428.36 17.14 C 428.01 13.93 425.57 10.45 421.98 11.02 C 418.96 11.14 417.58 14.02 416.78 16.52 C 415.95 18.53 415.23 20.59 414.66 22.70 C 414.24 22.21 413.41 21.24 412.99 20.75 C 411.72 21.41 410.46 22.11 409.07 22.45 C 408.46 22.27 407.22 21.91 406.61 21.73 C 406.54 18.17 406.60 14.62 406.59 11.06 C 405.56 10.99 404.54 10.92 403.52 10.84 C 397.99 10.18 392.41 10.92 386.88 10.35 C 385.88 8.89 384.52 7.73 382.87 7.09 C 375.97 6.92 369.06 6.84 362.17 7.14 C 359.51 8.08 358.64 10.77 358.36 13.33 C 357.85 13.63 356.83 14.23 356.33 14.53 C 355.87 15.14 355.44 15.77 355.04 16.41 C 352.95 16.16 350.85 16.07 348.76 16.23 C 348.70 13.38 348.71 10.53 348.91 7.69 C 349.19 6.06 348.90 4.46 347.71 3.26 C 338.14 2.71 328.51 3.05 318.92 3.08 L 318.62 3.10 C 317.15 4.26 316.73 5.99 316.95 7.79 C 316.93 10.60 316.93 13.41 316.94 16.22 C 314.93 16.11 312.92 15.99 310.91 15.84 C 310.30 15.19 309.70 14.54 309.10 13.89 C 307.71 13.91 306.33 13.93 304.95 13.95 L 305.00 12.58 C 305.17 9.66 305.12 6.71 304.48 3.84 C 301.82 2.63 298.84 3.03 296.01 2.98 C 290.99 3.06 285.97 2.89 280.96 3.05 C 277.96 4.68 279.25 8.62 278.96 11.38 C 260.22 11.69 241.47 11.46 222.72 11.51 C 149.89 11.55 77.05 11.48 4.22 11.54 C 2.81 11.51 1.40 11.40 0.00 11.21 L 0.00 0.00 Z" />
<path fill="#525552" d=" M 278.96 11.38 C 279.25 8.62 277.96 4.68 280.96 3.05 C 283.92 5.22 287.61 4.07 290.97 4.11 C 295.48 4.09 300.01 4.74 304.48 3.84 C 305.12 6.71 305.17 9.66 305.00 12.58 C 304.68 13.04 304.04 13.94 303.71 14.39 C 305.45 15.13 307.61 15.27 308.92 16.79 C 307.00 17.43 304.99 17.65 303.00 17.84 C 303.00 15.22 302.99 12.59 303.00 9.96 C 301.33 9.96 299.66 9.96 297.99 9.96 C 298.00 10.70 298.00 12.19 298.00 12.94 C 298.50 12.97 299.50 13.02 300.00 13.05 C 300.00 13.54 300.00 14.52 300.00 15.01 C 298.66 15.00 297.32 15.00 295.99 15.00 C 296.00 12.68 296.02 10.36 296.04 8.03 C 298.39 8.04 300.75 8.04 303.10 8.05 C 303.09 7.26 303.05 5.69 303.04 4.91 C 299.86 4.81 296.68 4.80 293.50 4.77 C 292.96 7.51 292.82 10.31 292.86 13.10 C 292.43 12.81 291.57 12.24 291.14 11.95 C 290.98 9.75 291.40 7.39 290.52 5.31 C 287.49 4.22 284.12 5.00 280.96 4.95 C 280.94 5.73 280.91 7.27 280.90 8.04 C 283.26 8.05 285.63 8.05 288.00 8.05 C 288.00 8.52 288.00 9.47 288.00 9.95 C 286.66 9.95 285.33 9.96 283.99 9.97 C 283.99 10.73 284.00 12.24 284.00 12.99 C 285.33 13.00 286.67 13.00 288.00 13.00 C 288.00 13.50 288.00 14.50 288.00 15.00 C 285.65 15.00 283.31 15.00 280.96 15.00 C 280.98 15.59 281.00 16.76 281.02 17.35 C 280.51 16.92 279.50 16.07 278.99 15.64 C 278.99 14.22 278.98 12.80 278.96 11.38 Z" />
<path fill="#2b2a2b" d=" M 280.96 3.05 C 285.97 2.89 290.99 3.06 296.01 2.98 C 298.84 3.03 301.82 2.63 304.48 3.84 C 300.01 4.74 295.48 4.09 290.97 4.11 C 287.61 4.07 283.92 5.22 280.96 3.05 Z" />
<path fill="#636163" d=" M 316.95 7.79 C 316.73 5.99 317.15 4.26 318.62 3.10 L 318.92 3.08 C 323.06 4.84 327.68 3.71 332.04 3.99 C 337.25 3.71 342.62 4.78 347.71 3.26 C 348.90 4.46 349.19 6.06 348.91 7.69 C 348.45 8.52 347.98 9.34 347.50 10.15 C 347.07 7.78 346.00 5.60 344.09 4.09 C 343.14 5.26 341.53 6.27 341.74 8.01 C 341.70 12.13 342.19 16.24 342.07 20.36 C 341.37 17.19 341.59 13.77 340.37 10.74 C 333.09 10.09 325.71 10.79 318.40 10.50 C 317.90 9.61 317.42 8.70 316.95 7.79 Z" />
<path fill="#262526" d=" M 318.92 3.08 C 328.51 3.05 338.14 2.71 347.71 3.26 C 342.62 4.78 337.25 3.71 332.04 3.99 C 327.68 3.71 323.06 4.84 318.92 3.08 Z" />
<path fill="#ffffff" d=" M 280.96 4.95 C 284.12 5.00 287.49 4.22 290.52 5.31 C 291.40 7.39 290.98 9.75 291.14 11.95 C 291.05 13.82 291.32 15.79 290.62 17.56 C 287.59 18.53 284.28 17.87 281.15 18.02 L 281.02 17.35 C 281.00 16.76 280.98 15.59 280.96 15.00 C 283.31 15.00 285.65 15.00 288.00 15.00 C 288.00 14.50 288.00 13.50 288.00 13.00 C 286.67 13.00 285.33 13.00 284.00 12.99 C 284.00 12.24 283.99 10.73 283.99 9.97 C 285.33 9.96 286.66 9.95 288.00 9.95 C 288.00 9.47 288.00 8.52 288.00 8.05 C 285.63 8.05 283.26 8.05 280.90 8.04 C 280.91 7.27 280.94 5.73 280.96 4.95 Z" />
<path fill="#ffffff" d=" M 292.86 13.10 C 292.82 10.31 292.96 7.51 293.50 4.77 C 296.68 4.80 299.86 4.81 303.04 4.91 C 303.05 5.69 303.09 7.26 303.10 8.05 C 300.75 8.04 298.39 8.04 296.04 8.03 C 296.02 10.36 296.00 12.68 295.99 15.00 C 297.32 15.00 298.66 15.00 300.00 15.01 C 300.00 14.52 300.00 13.54 300.00 13.05 C 299.50 13.02 298.50 12.97 298.00 12.94 C 298.00 12.19 298.00 10.70 297.99 9.96 C 299.66 9.96 301.33 9.96 303.00 9.96 C 302.99 12.59 303.00 15.22 303.00 17.84 C 299.82 17.97 296.51 18.48 293.40 17.60 C 292.80 16.18 292.94 14.60 292.86 13.10 Z" />
<path fill="#9c9e9c" d=" M 341.74 8.01 C 341.53 6.27 343.14 5.26 344.09 4.09 C 346.00 5.60 347.07 7.78 347.50 10.15 C 347.67 17.02 346.42 23.81 346.44 30.68 C 346.47 32.88 343.91 32.84 342.37 32.47 C 343.40 31.59 344.43 30.72 345.47 29.85 C 345.34 27.71 345.20 25.57 345.04 23.43 C 344.04 23.33 343.06 23.23 342.08 23.12 C 342.08 22.43 342.07 21.05 342.07 20.36 C 342.19 16.24 341.70 12.13 341.74 8.01 Z" />
<path fill="#525152" d=" M 358.36 13.33 C 358.64 10.77 359.51 8.08 362.17 7.14 C 365.32 8.20 368.67 8.03 371.95 8.00 C 375.60 7.94 379.36 8.36 382.87 7.09 C 384.52 7.73 385.88 8.89 386.88 10.35 C 387.05 13.31 386.99 16.28 387.01 19.24 C 385.75 19.30 384.49 19.35 383.24 19.41 C 381.11 19.31 378.98 19.10 376.86 18.92 C 378.54 17.42 380.21 15.90 381.84 14.34 C 380.09 14.42 378.30 14.25 376.59 14.67 C 375.00 16.01 373.70 17.66 372.31 19.19 C 371.62 18.44 370.97 17.45 369.83 17.54 C 365.64 17.34 361.43 17.57 357.24 17.59 C 357.01 16.83 356.55 15.29 356.33 14.53 C 356.83 14.23 357.85 13.63 358.36 13.33 Z" />
<path fill="#252425" d=" M 362.17 7.14 C 369.06 6.84 375.97 6.92 382.87 7.09 C 379.36 8.36 375.60 7.94 371.95 8.00 C 368.67 8.03 365.32 8.20 362.17 7.14 Z" />
<path fill="#4a4d4a" d=" M 316.95 7.79 C 317.42 8.70 317.90 9.61 318.40 10.50 C 325.71 10.79 333.09 10.09 340.37 10.74 C 341.59 13.77 341.37 17.19 342.07 20.36 C 342.07 21.05 342.08 22.43 342.08 23.12 C 341.98 25.74 341.75 28.35 341.89 30.96 C 341.42 28.43 341.26 25.85 341.02 23.29 C 340.53 23.35 339.55 23.48 339.06 23.54 C 338.93 20.44 339.22 17.31 338.77 14.23 C 337.86 12.43 335.87 13.02 334.42 13.68 C 334.26 15.01 334.14 16.35 334.08 17.69 C 328.40 16.74 322.28 18.87 316.94 16.22 C 316.93 13.41 316.93 10.60 316.95 7.79 Z" />
<path fill="#080808" d=" M 347.50 10.15 C 347.98 9.34 348.45 8.52 348.91 7.69 C 348.71 10.53 348.70 13.38 348.76 16.23 C 348.84 21.94 349.03 27.64 348.95 33.35 C 348.48 33.61 347.53 34.14 347.06 34.40 C 337.65 34.49 328.20 34.69 318.80 34.33 C 317.23 34.45 317.26 32.41 316.93 31.38 C 316.95 29.31 317.02 27.24 317.04 25.17 C 319.21 26.87 318.71 29.93 319.65 32.28 C 323.44 34.17 324.62 29.91 324.24 27.02 C 325.16 28.30 326.02 29.63 326.74 31.04 C 327.18 33.21 330.65 33.21 331.13 31.07 C 331.88 29.57 332.84 28.21 334.13 27.13 C 334.18 28.64 334.26 30.16 334.39 31.67 C 335.71 32.88 337.40 32.74 338.95 32.09 C 339.05 29.24 339.13 26.39 339.06 23.54 C 339.55 23.48 340.53 23.35 341.02 23.29 C 341.26 25.85 341.42 28.43 341.89 30.96 C 342.01 31.34 342.25 32.09 342.37 32.47 C 343.91 32.84 346.47 32.88 346.44 30.68 C 346.42 23.81 347.67 17.02 347.50 10.15 Z" />
<path fill="#94d300" d=" M 367.87 8.91 C 372.92 9.03 378.00 8.61 383.04 9.14 C 384.78 9.51 384.82 11.54 385.23 12.90 C 380.12 13.10 375.02 12.88 369.91 13.04 C 369.34 13.67 368.76 14.31 368.20 14.94 C 368.08 12.93 367.97 10.92 367.87 8.91 Z" />
<path fill="#e7e3e7" d=" M 386.88 10.35 C 392.41 10.92 397.99 10.18 403.52 10.84 C 401.10 15.52 396.77 19.34 395.82 24.67 C 398.26 24.69 400.70 24.69 403.14 24.68 C 403.15 25.53 403.17 27.21 403.18 28.05 C 404.31 28.03 405.44 28.00 406.58 27.97 C 406.59 27.25 406.60 25.81 406.61 25.09 C 408.19 24.98 408.75 23.78 409.07 22.45 C 410.46 22.11 411.72 21.41 412.99 20.75 C 413.41 21.24 414.24 22.21 414.66 22.70 C 415.23 20.59 415.95 18.53 416.78 16.52 C 416.88 19.56 416.54 22.90 418.18 25.63 C 420.02 28.65 424.88 28.79 426.90 25.91 C 428.67 23.36 428.26 20.07 428.36 17.14 C 428.72 16.98 429.46 16.67 429.82 16.51 C 429.89 19.60 429.52 23.02 431.28 25.76 C 433.01 28.48 437.32 28.73 439.50 26.42 C 440.81 25.01 441.07 23.00 441.42 21.18 C 443.48 21.20 445.54 21.22 447.61 21.23 C 447.63 23.45 447.61 25.68 447.59 27.90 C 448.20 27.95 449.44 28.04 450.05 28.08 C 450.03 26.82 450.01 25.56 450.00 24.30 C 451.71 23.74 453.92 23.61 454.87 21.81 C 455.10 20.60 455.20 19.38 455.15 18.15 C 455.99 19.15 456.78 20.18 457.60 21.21 C 458.15 23.60 456.03 28.10 459.68 28.36 C 459.74 25.11 459.66 21.87 459.70 18.63 C 460.72 21.70 461.55 24.82 462.33 27.96 C 462.92 27.96 464.09 27.96 464.67 27.97 C 465.51 24.77 466.43 21.58 467.57 18.47 C 467.58 21.68 467.55 24.89 467.56 28.09 C 468.12 28.06 469.23 27.99 469.78 27.95 C 469.77 24.16 469.77 20.37 469.76 16.57 C 473.11 15.65 476.58 16.13 480.00 16.24 L 480.00 33.31 C 436.32 33.49 392.63 33.43 348.95 33.35 C 349.03 27.64 348.84 21.94 348.76 16.23 C 350.85 16.07 352.95 16.16 355.04 16.41 C 355.03 18.18 354.81 20.01 355.33 21.72 C 356.52 22.99 358.46 23.74 358.73 25.67 C 359.05 26.86 359.37 28.05 359.70 29.24 C 361.43 29.82 363.17 30.53 365.04 30.46 C 371.09 30.48 377.13 30.49 383.18 30.44 C 384.57 29.55 386.42 28.78 386.90 27.03 C 387.16 24.44 386.99 21.84 387.01 19.24 C 386.99 16.28 387.05 13.31 386.88 10.35 Z" />
<path fill="#e7e3e7" d=" M 0.00 11.21 C 1.40 11.40 2.81 11.51 4.22 11.54 C 77.05 11.48 149.89 11.55 222.72 11.51 C 241.47 11.46 260.22 11.69 278.96 11.38 C 278.98 12.80 278.99 14.22 278.99 15.64 C 279.23 17.76 278.42 20.36 279.97 22.11 C 281.57 22.53 283.24 22.51 284.88 22.66 L 285.03 23.75 C 285.09 26.24 284.95 28.74 284.90 31.24 C 261.76 31.85 238.59 31.25 215.44 31.50 C 143.63 31.35 71.81 31.69 0.00 31.34 L 0.00 11.21 Z" />
<path fill="#000000" d=" M 403.52 10.84 C 404.54 10.92 405.56 10.99 406.59 11.06 C 406.60 14.62 406.54 18.17 406.61 21.73 C 407.22 21.91 408.46 22.27 409.07 22.45 C 408.75 23.78 408.19 24.98 406.61 25.09 C 406.60 25.81 406.59 27.25 406.58 27.97 C 405.44 28.00 404.31 28.03 403.18 28.05 C 403.17 27.21 403.15 25.53 403.14 24.68 C 400.70 24.69 398.26 24.69 395.82 24.67 C 396.77 19.34 401.10 15.52 403.52 10.84 Z" />
<path fill="#000000" d=" M 416.78 16.52 C 417.58 14.02 418.96 11.14 421.98 11.02 C 425.57 10.45 428.01 13.93 428.36 17.14 C 428.26 20.07 428.67 23.36 426.90 25.91 C 424.88 28.79 420.02 28.65 418.18 25.63 C 416.54 22.90 416.88 19.56 416.78 16.52 Z" />
<path fill="#000000" d=" M 429.82 16.51 C 430.47 13.22 433.30 10.03 436.97 11.19 C 441.25 12.31 441.57 17.53 441.42 21.18 C 441.07 23.00 440.81 25.01 439.50 26.42 C 437.32 28.73 433.01 28.48 431.28 25.76 C 429.52 23.02 429.89 19.60 429.82 16.51 Z" />
<path fill="#313031" d=" M 291.14 11.95 C 291.57 12.24 292.43 12.81 292.86 13.10 C 292.94 14.60 292.80 16.18 293.40 17.60 C 296.51 18.48 299.82 17.97 303.00 17.84 C 304.99 17.65 307.00 17.43 308.92 16.79 C 307.61 15.27 305.45 15.13 303.71 14.39 C 304.04 13.94 304.68 13.04 305.00 12.58 L 304.95 13.95 C 306.33 13.93 307.71 13.91 309.10 13.89 C 309.70 14.54 310.30 15.19 310.91 15.84 C 310.95 17.68 311.00 19.51 311.02 21.35 C 308.97 21.87 306.85 22.00 304.76 21.63 C 303.33 21.47 301.90 21.34 300.47 21.21 C 300.48 22.53 300.48 23.85 300.47 25.17 C 299.93 25.30 298.83 25.57 298.29 25.70 C 296.67 23.83 295.04 21.97 293.41 20.12 C 291.85 21.97 290.31 23.83 288.76 25.69 C 287.47 25.14 286.23 24.47 285.03 23.75 L 284.88 22.66 C 283.24 22.51 281.57 22.53 279.97 22.11 C 278.42 20.36 279.23 17.76 278.99 15.64 C 279.50 16.07 280.51 16.92 281.02 17.35 L 281.15 18.02 C 284.28 17.87 287.59 18.53 290.62 17.56 C 291.32 15.79 291.05 13.82 291.14 11.95 Z" />
<path fill="#949294" d=" M 334.42 13.68 C 335.87 13.02 337.86 12.43 338.77 14.23 C 339.22 17.31 338.93 20.44 339.06 23.54 C 339.13 26.39 339.05 29.24 338.95 32.09 C 337.40 32.74 335.71 32.88 334.39 31.67 C 335.27 31.38 337.03 30.80 337.91 30.52 C 337.89 28.07 338.31 25.35 336.63 23.31 C 334.39 20.60 334.61 16.98 334.42 13.68 Z" />
<path fill="#7b827b" d=" M 334.08 17.69 C 334.14 16.35 334.26 15.01 334.42 13.68 C 334.61 16.98 334.39 20.60 336.63 23.31 C 338.31 25.35 337.89 28.07 337.91 30.52 C 337.03 30.80 335.27 31.38 334.39 31.67 C 334.26 30.16 334.18 28.64 334.13 27.13 C 334.25 23.98 334.07 20.84 334.08 17.69 Z" />
<path fill="#ffffff" d=" M 376.59 14.67 C 378.30 14.25 380.09 14.42 381.84 14.34 C 380.21 15.90 378.54 17.42 376.86 18.92 C 378.98 19.10 381.11 19.31 383.24 19.41 C 380.54 20.44 378.22 24.02 375.19 23.31 C 375.94 22.42 376.70 21.53 377.46 20.65 C 375.40 20.57 373.33 20.48 371.27 20.41 L 372.31 19.19 C 373.70 17.66 375.00 16.01 376.59 14.67 Z" />
<path fill="#e7e7e7" d=" M 421.09 14.09 C 422.45 13.85 424.27 13.63 424.52 15.47 C 425.10 18.25 425.33 21.43 424.23 24.11 C 423.76 25.69 421.26 25.48 420.90 24.02 C 419.75 20.83 420.13 17.28 421.09 14.09 Z" />
<path fill="#e7e7e7" d=" M 434.22 14.33 C 435.38 13.26 437.34 13.93 437.54 15.52 C 438.13 18.31 438.32 21.47 437.22 24.16 C 436.76 25.63 434.18 25.55 433.91 24.02 C 432.93 20.95 432.76 17.28 434.22 14.33 Z" />
<path fill="#292c29" d=" M 355.04 16.41 C 355.44 15.77 355.87 15.14 356.33 14.53 C 356.55 15.29 357.01 16.83 357.24 17.59 C 361.43 17.57 365.64 17.34 369.83 17.54 C 370.97 17.45 371.62 18.44 372.31 19.19 L 371.27 20.41 C 373.33 20.48 375.40 20.57 377.46 20.65 C 376.70 21.53 375.94 22.42 375.19 23.31 C 373.02 22.02 370.25 21.64 368.14 23.27 C 368.12 23.84 368.07 25.00 368.04 25.57 C 364.94 25.25 361.82 25.29 358.73 25.67 C 358.46 23.74 356.52 22.99 355.33 21.72 C 354.81 20.01 355.03 18.18 355.04 16.41 Z" />
<path fill="#e7e7e7" d=" M 399.11 21.99 C 400.61 19.78 402.03 17.51 403.38 15.19 C 403.22 17.46 403.15 19.73 403.14 22.00 C 401.79 22.00 400.45 21.99 399.11 21.99 Z" />
<path fill="#000000" d=" M 410.50 15.56 C 411.76 15.04 413.15 15.02 414.39 15.66 C 414.36 16.57 414.33 17.49 414.32 18.40 C 413.07 18.65 411.80 18.80 410.56 18.46 C 410.53 17.49 410.51 16.53 410.50 15.56 Z" />
<path fill="#e7e3e7" d=" M 310.91 15.84 C 312.92 15.99 314.93 16.11 316.94 16.22 C 316.99 19.20 316.99 22.19 317.04 25.17 C 317.02 27.24 316.95 29.31 316.93 31.38 C 314.98 31.36 313.02 31.34 311.07 31.32 C 311.06 29.92 311.05 28.52 311.03 27.12 C 311.02 25.19 311.03 23.27 311.02 21.35 C 311.00 19.51 310.95 17.68 310.91 15.84 Z" />
<path fill="#312c31" d=" M 316.94 16.22 C 322.28 18.87 328.40 16.74 334.08 17.69 C 334.07 20.84 334.25 23.98 334.13 27.13 C 332.84 28.21 331.88 29.57 331.13 31.07 C 331.31 27.40 331.60 23.68 331.04 20.04 C 329.98 18.74 327.93 18.72 326.86 20.00 C 326.24 23.64 326.57 27.37 326.74 31.04 C 326.02 29.63 325.16 28.30 324.24 27.02 C 324.40 24.53 322.94 20.46 319.87 22.89 C 318.76 25.89 319.41 29.18 319.65 32.28 C 318.71 29.93 319.21 26.87 317.04 25.17 C 316.99 22.19 316.99 19.20 316.94 16.22 Z" />
<path fill="#000000" d=" M 447.53 15.90 C 450.17 16.01 453.48 15.56 455.15 18.15 C 455.20 19.38 455.10 20.60 454.87 21.81 C 453.92 23.61 451.71 23.74 450.00 24.30 C 450.01 25.56 450.03 26.82 450.05 28.08 C 449.44 28.04 448.20 27.95 447.59 27.90 C 447.61 25.68 447.63 23.45 447.61 21.23 C 447.58 19.45 447.56 17.68 447.53 15.90 Z" />
<path fill="#000000" d=" M 457.60 21.21 C 457.59 19.44 457.59 17.67 457.59 15.90 C 458.43 15.92 460.10 15.94 460.93 15.96 C 461.78 19.06 462.67 22.15 463.61 25.22 C 464.53 22.20 465.44 19.18 466.27 16.13 C 467.43 16.04 468.59 15.95 469.76 15.86 L 469.76 16.57 C 469.77 20.37 469.77 24.16 469.78 27.95 C 469.23 27.99 468.12 28.06 467.56 28.09 C 467.55 24.89 467.58 21.68 467.57 18.47 C 466.43 21.58 465.51 24.77 464.67 27.97 C 464.09 27.96 462.92 27.96 462.33 27.96 C 461.55 24.82 460.72 21.70 459.70 18.63 C 459.66 21.87 459.74 25.11 459.68 28.36 C 456.03 28.10 458.15 23.60 457.60 21.21 Z" />
<path fill="#e7e7e7" d=" M 450.02 17.82 C 453.68 17.10 453.63 22.77 450.04 22.18 C 450.02 20.73 450.01 19.27 450.02 17.82 Z" />
<path fill="#ffffff" d=" M 326.86 20.00 C 327.93 18.72 329.98 18.74 331.04 20.04 C 331.60 23.68 331.31 27.40 331.13 31.07 C 330.65 33.21 327.18 33.21 326.74 31.04 C 326.57 27.37 326.24 23.64 326.86 20.00 Z" />
<path fill="#212021" d=" M 383.24 19.41 C 384.49 19.35 385.75 19.30 387.01 19.24 C 386.99 21.84 387.16 24.44 386.90 27.03 C 386.42 28.78 384.57 29.55 383.18 30.44 L 383.35 29.02 C 384.04 27.71 384.74 26.42 385.38 25.09 C 380.29 24.75 375.16 25.41 370.11 24.75 C 369.62 24.38 368.64 23.64 368.14 23.27 C 370.25 21.64 373.02 22.02 375.19 23.31 C 378.22 24.02 380.54 20.44 383.24 19.41 Z" />
<path fill="#9ca29c" d=" M 293.41 20.12 C 295.04 21.97 296.67 23.83 298.29 25.70 C 297.61 25.87 296.25 26.20 295.57 26.36 C 295.55 28.24 295.53 30.12 295.52 32.00 C 294.53 31.99 292.55 31.96 291.56 31.94 C 291.53 30.07 291.50 28.20 291.47 26.32 C 290.79 26.17 289.44 25.85 288.76 25.69 C 290.31 23.83 291.85 21.97 293.41 20.12 Z" />
<path fill="#b5b2b5" d=" M 300.47 21.21 C 301.90 21.34 303.33 21.47 304.76 21.63 C 304.64 22.69 304.38 24.82 304.25 25.89 C 305.14 26.58 306.06 27.25 307.01 27.87 C 306.76 28.18 306.27 28.79 306.02 29.10 C 304.93 28.14 303.85 27.17 302.79 26.19 C 301.99 26.42 301.20 26.66 300.40 26.90 C 300.42 26.47 300.45 25.60 300.47 25.17 C 300.48 23.85 300.48 22.53 300.47 21.21 Z" />
<path fill="#212021" d=" M 304.76 21.63 C 306.85 22.00 308.97 21.87 311.02 21.35 C 311.03 23.27 311.02 25.19 311.03 27.12 C 309.69 27.39 308.36 27.67 307.01 27.87 C 306.06 27.25 305.14 26.58 304.25 25.89 C 304.38 24.82 304.64 22.69 304.76 21.63 Z" />
<path fill="#ffffff" d=" M 319.87 22.89 C 322.94 20.46 324.40 24.53 324.24 27.02 C 324.62 29.91 323.44 34.17 319.65 32.28 C 319.41 29.18 318.76 25.89 319.87 22.89 Z" />
<path fill="#7b827b" d=" M 342.08 23.12 C 343.06 23.23 344.04 23.33 345.04 23.43 C 345.20 25.57 345.34 27.71 345.47 29.85 C 344.43 30.72 343.40 31.59 342.37 32.47 C 342.25 32.09 342.01 31.34 341.89 30.96 C 341.75 28.35 341.98 25.74 342.08 23.12 Z" />
<path fill="#100c10" d=" M 285.03 23.75 C 286.23 24.47 287.47 25.14 288.76 25.69 C 289.44 25.85 290.79 26.17 291.47 26.32 C 291.50 28.20 291.53 30.07 291.56 31.94 C 292.55 31.96 294.53 31.99 295.52 32.00 C 295.53 30.12 295.55 28.24 295.57 26.36 C 296.25 26.20 297.61 25.87 298.29 25.70 C 298.83 25.57 299.93 25.30 300.47 25.17 C 300.45 25.60 300.42 26.47 300.40 26.90 C 299.76 27.11 298.48 27.51 297.84 27.71 C 299.41 29.53 301.00 31.33 302.59 33.13 C 303.74 31.79 304.90 30.46 306.02 29.10 C 306.27 28.79 306.76 28.18 307.01 27.87 C 308.36 27.67 309.69 27.39 311.03 27.12 C 311.05 28.52 311.06 29.92 311.07 31.32 C 311.04 32.94 310.13 34.90 308.19 34.46 C 301.07 34.50 293.92 34.69 286.81 34.35 C 285.29 34.31 285.09 32.38 284.90 31.24 C 284.95 28.74 285.09 26.24 285.03 23.75 Z" />
<path fill="#739e00" d=" M 368.04 25.57 C 368.07 25.00 368.12 23.84 368.14 23.27 C 368.64 23.64 369.62 24.38 370.11 24.75 C 375.16 25.41 380.29 24.75 385.38 25.09 C 384.74 26.42 384.04 27.71 383.35 29.02 C 378.25 28.53 373.12 28.85 368.00 28.80 C 368.01 27.99 368.03 26.38 368.04 25.57 Z" />
<path fill="#000000" d=" M 410.77 24.78 C 411.78 23.70 413.20 24.47 414.40 24.67 C 414.23 25.89 414.56 27.59 412.96 27.95 C 411.05 28.55 409.79 26.28 410.77 24.78 Z" />
<path fill="#080c08" d=" M 358.73 25.67 C 361.82 25.29 364.94 25.25 368.04 25.57 C 368.03 26.38 368.01 27.99 368.00 28.80 C 373.12 28.85 378.25 28.53 383.35 29.02 L 383.18 30.44 C 377.13 30.49 371.09 30.48 365.04 30.46 C 363.17 30.53 361.43 29.82 359.70 29.24 C 359.37 28.05 359.05 26.86 358.73 25.67 Z" />
<path fill="#8c8e8c" d=" M 300.40 26.90 C 301.20 26.66 301.99 26.42 302.79 26.19 C 303.85 27.17 304.93 28.14 306.02 29.10 C 304.90 30.46 303.74 31.79 302.59 33.13 C 301.00 31.33 299.41 29.53 297.84 27.71 C 298.48 27.51 299.76 27.11 300.40 26.90 Z" />
<path fill="#f7f7f7" d=" M 0.00 31.34 C 71.81 31.69 143.63 31.35 215.44 31.50 C 238.59 31.25 261.76 31.85 284.90 31.24 C 285.09 32.38 285.29 34.31 286.81 34.35 C 293.92 34.69 301.07 34.50 308.19 34.46 C 310.13 34.90 311.04 32.94 311.07 31.32 C 313.02 31.34 314.98 31.36 316.93 31.38 C 317.26 32.41 317.23 34.45 318.80 34.33 C 328.20 34.69 337.65 34.49 347.06 34.40 C 347.53 34.14 348.48 33.61 348.95 33.35 C 392.63 33.43 436.32 33.49 480.00 33.31 L 480.00 38.05 C 320.00 38.07 160.00 37.95 0.00 38.11 L 0.00 31.34 Z" />
<path fill="#949694" d=" M 0.00 38.11 C 160.00 37.95 320.00 38.07 480.00 38.05 L 480.00 53.10 C 478.50 52.59 476.98 51.95 475.38 51.95 C 473.02 52.54 470.64 53.67 468.18 52.82 C 465.88 52.05 463.66 53.00 461.78 54.31 C 457.62 53.87 453.38 53.94 449.22 54.32 C 448.58 54.12 447.94 53.93 447.32 53.74 C 446.92 53.87 446.14 54.13 445.74 54.26 C 442.93 53.98 440.10 53.99 437.29 54.30 C 436.90 54.20 436.11 54.00 435.71 53.90 C 422.93 54.48 410.09 53.74 397.31 54.27 C 396.92 54.17 396.14 53.97 395.75 53.88 C 390.25 54.11 384.70 54.36 379.21 53.86 C 378.81 54.00 378.02 54.30 377.62 54.45 C 376.86 54.22 376.10 53.99 375.35 53.76 C 374.73 53.95 374.12 54.14 373.51 54.33 C 372.23 54.02 370.92 53.92 369.62 54.07 C 368.27 54.06 366.93 54.08 365.59 54.17 C 360.83 53.81 356.04 54.36 351.28 53.93 C 350.89 54.07 350.09 54.35 349.69 54.49 C 348.90 54.24 348.12 53.99 347.33 53.75 C 346.93 53.88 346.13 54.15 345.73 54.29 C 344.29 54.00 342.83 53.92 341.38 54.13 C 336.67 53.88 331.95 54.42 327.25 53.89 C 326.86 54.03 326.08 54.33 325.69 54.47 C 325.02 54.23 324.35 53.99 323.69 53.76 C 323.03 53.92 322.37 54.08 321.72 54.25 C 320.23 53.99 318.73 54.01 317.26 54.29 C 316.87 54.16 316.10 53.89 315.71 53.76 C 315.04 53.93 314.38 54.09 313.73 54.26 C 309.59 54.04 305.43 53.88 301.30 54.26 C 300.90 54.17 300.09 54.00 299.69 53.92 C 296.35 54.36 292.97 53.84 289.63 54.18 C 287.51 54.20 285.39 54.09 283.28 53.88 C 282.89 53.99 282.10 54.21 281.71 54.32 C 276.26 53.79 270.72 54.09 265.25 54.29 C 264.85 54.14 264.06 53.84 263.66 53.68 C 263.01 53.94 262.36 54.21 261.71 54.47 C 260.92 54.23 260.14 53.99 259.36 53.75 C 258.94 53.93 258.11 54.28 257.69 54.46 C 256.91 54.22 256.12 54.00 255.35 53.77 C 254.95 53.89 254.15 54.15 253.76 54.28 C 252.38 54.13 250.99 54.06 249.61 54.16 C 246.82 54.07 244.02 53.91 241.26 54.36 C 240.88 54.24 240.11 54.01 239.72 53.90 C 229.58 54.47 219.38 53.75 209.23 54.25 C 208.86 54.16 208.12 53.98 207.75 53.88 C 201.07 54.34 194.35 54.05 187.66 54.02 C 185.54 54.10 183.43 54.09 181.32 54.23 C 180.67 54.12 180.02 54.02 179.38 53.91 C 172.27 54.12 165.11 54.33 158.01 53.79 C 157.56 51.30 155.95 48.39 153.08 48.41 C 149.89 47.82 147.40 50.58 144.30 50.54 C 133.36 50.54 122.42 50.29 111.49 50.59 C 111.40 50.91 111.21 51.55 111.12 51.87 C 111.29 52.59 111.48 53.30 111.69 54.00 C 110.69 55.31 110.31 56.89 110.21 58.50 C 109.68 58.59 108.64 58.77 108.11 58.86 C 107.75 55.99 107.41 53.12 107.06 50.24 C 106.55 50.35 105.52 50.57 105.01 50.68 C 105.00 50.26 104.99 49.42 104.99 49.00 C 104.25 49.00 102.77 49.01 102.03 49.01 C 102.03 49.40 102.02 50.18 102.01 50.56 C 96.64 49.94 91.25 50.93 85.87 50.36 C 82.83 49.90 79.99 52.42 77.01 51.08 C 73.22 49.61 69.19 50.86 65.26 50.58 C 62.16 50.38 59.05 50.43 55.95 50.16 C 54.79 49.24 54.34 47.76 53.65 46.50 C 50.00 46.58 46.07 46.00 42.67 47.67 C 40.32 52.28 42.29 57.80 40.66 62.63 C 38.75 63.55 35.26 64.10 33.94 61.97 C 33.40 57.65 33.80 53.26 32.95 48.97 C 32.32 49.64 31.69 50.31 31.06 50.98 C 31.03 50.20 30.98 48.64 30.95 47.85 C 30.37 47.95 29.20 48.14 28.61 48.23 L 27.96 48.52 C 24.98 49.84 21.83 50.84 19.08 52.64 C 17.91 50.91 16.84 49.08 15.31 47.64 C 13.02 46.93 9.80 47.15 8.59 49.58 C 6.49 53.19 4.75 57.81 6.60 61.87 C 6.53 62.28 6.39 63.11 6.33 63.53 C 4.24 64.09 2.11 63.87 0.00 63.62 L 0.00 38.11 Z" />
<path fill="#6b6d6b" d=" M 42.67 47.67 C 46.07 46.00 50.00 46.58 53.65 46.50 C 54.34 47.76 54.79 49.24 55.95 50.16 C 59.05 50.43 62.16 50.38 65.26 50.58 C 69.19 50.86 73.22 49.61 77.01 51.08 C 79.99 52.42 82.83 49.90 85.87 50.36 C 91.25 50.93 96.64 49.94 102.01 50.56 C 101.95 55.04 101.94 59.52 101.84 63.99 C 104.76 63.99 107.69 63.99 110.61 64.00 C 110.61 63.32 110.61 61.96 110.61 61.28 C 108.71 61.26 106.81 61.24 104.90 61.21 C 105.03 57.70 105.07 54.19 105.01 50.68 C 105.52 50.57 106.55 50.35 107.06 50.24 C 107.41 53.12 107.75 55.99 108.11 58.86 C 108.64 58.77 109.68 58.59 110.21 58.50 C 110.31 56.89 110.69 55.31 111.69 54.00 C 112.84 57.36 114.35 60.59 115.20 64.04 C 115.31 66.20 113.02 66.13 111.54 66.67 C 111.53 67.23 111.52 68.37 111.51 68.93 C 113.46 68.85 116.04 69.18 117.00 66.99 C 119.23 62.13 120.44 56.86 122.41 51.88 C 121.51 51.89 119.71 51.92 118.81 51.94 C 118.17 54.74 117.43 57.52 116.58 60.27 C 115.86 57.55 115.21 54.81 114.60 52.07 C 113.44 52.00 112.28 51.94 111.12 51.87 C 111.21 51.55 111.40 50.91 111.49 50.59 C 122.42 50.29 133.36 50.54 144.30 50.54 C 147.40 50.58 149.89 47.82 153.08 48.41 C 155.95 48.39 157.56 51.30 158.01 53.79 C 157.40 55.22 156.72 56.61 156.03 58.00 C 157.31 60.32 158.21 62.97 157.51 65.63 C 154.49 68.40 150.42 64.77 146.98 65.79 C 143.22 66.64 138.33 67.96 135.61 64.33 C 133.12 65.27 130.64 66.46 127.93 66.63 C 125.45 66.89 123.40 65.26 121.34 64.14 C 120.20 66.54 119.10 69.25 116.62 70.56 C 114.79 71.72 112.60 70.80 110.63 70.70 C 110.14 69.37 109.62 68.05 109.11 66.73 C 106.32 66.51 103.23 66.80 100.76 65.20 C 99.96 62.58 99.59 59.85 98.88 57.21 C 98.04 59.91 97.59 62.70 97.34 65.51 C 91.94 65.62 86.53 66.42 81.14 65.73 C 77.75 65.23 74.36 66.36 70.97 65.78 C 68.66 65.47 66.32 65.43 63.99 65.61 C 57.45 66.05 50.87 65.28 44.34 66.09 C 43.46 67.27 42.57 68.44 41.68 69.62 C 38.52 69.88 35.34 69.84 32.22 69.23 C 32.36 68.79 32.63 67.91 32.76 67.47 C 35.79 67.35 38.82 67.42 41.85 67.46 C 41.81 67.02 41.73 66.14 41.69 65.70 C 38.87 65.70 36.04 65.60 33.24 65.98 C 28.46 66.84 23.61 65.05 18.87 66.39 C 16.15 67.42 14.18 65.15 12.49 63.41 C 11.51 66.24 8.96 66.92 6.23 66.85 C 6.24 66.14 6.27 64.73 6.29 64.02 C 7.05 64.01 8.58 64.00 9.34 63.99 C 9.61 62.65 9.88 61.30 10.15 59.95 C 11.89 60.07 13.76 59.70 15.42 60.32 C 15.81 61.54 16.15 62.77 16.45 64.02 C 17.55 63.98 18.64 63.93 19.74 63.89 C 17.95 59.02 16.41 54.06 14.93 49.09 C 13.56 49.02 12.19 48.95 10.82 48.87 C 9.40 53.20 8.13 57.58 6.60 61.87 C 4.75 57.81 6.49 53.19 8.59 49.58 C 9.80 47.15 13.02 46.93 15.31 47.64 C 16.84 49.08 17.91 50.91 19.08 52.64 C 21.83 50.84 24.98 49.84 27.96 48.52 C 27.99 50.10 28.06 51.67 28.16 53.25 C 26.45 52.12 23.67 51.26 22.27 53.32 C 20.49 56.02 20.55 60.01 22.29 62.72 C 23.51 64.61 25.95 63.73 27.69 63.29 C 28.85 63.59 30.01 63.90 31.17 64.20 C 31.12 59.79 31.17 55.39 31.06 50.98 C 31.69 50.31 32.32 49.64 32.95 48.97 C 33.80 53.26 33.40 57.65 33.94 61.97 C 35.26 64.10 38.75 63.55 40.66 62.63 C 42.29 57.80 40.32 52.28 42.67 47.67 Z" />
<path fill="#ffffff" d=" M 28.61 48.23 C 29.20 48.14 30.37 47.95 30.95 47.85 C 30.98 48.64 31.03 50.20 31.06 50.98 C 31.17 55.39 31.12 59.79 31.17 64.20 C 30.01 63.90 28.85 63.59 27.69 63.29 C 25.95 63.73 23.51 64.61 22.29 62.72 C 20.55 60.01 20.49 56.02 22.27 53.32 C 23.67 51.26 26.45 52.12 28.16 53.25 C 28.06 51.67 27.99 50.10 27.96 48.52 L 28.61 48.23 Z" />
<path fill="#ffffff" d=" M 43.55 47.86 C 44.36 47.88 46.00 47.93 46.82 47.95 C 46.82 48.47 46.81 49.51 46.81 50.02 C 46.79 54.67 46.80 59.31 46.83 63.96 C 46.01 63.99 44.37 64.05 43.56 64.09 C 43.62 58.68 43.62 53.27 43.55 47.86 Z" />
<path fill="#ffffff" d=" M 49.51 49.77 C 49.04 47.91 51.47 47.28 52.70 48.35 C 52.77 48.97 52.91 50.20 52.98 50.81 C 52.11 50.86 50.38 50.96 49.51 51.01 C 49.51 50.70 49.51 50.08 49.51 49.77 Z" />
<path fill="#ffffff" d=" M 6.60 61.87 C 8.13 57.58 9.40 53.20 10.82 48.87 C 12.19 48.95 13.56 49.02 14.93 49.09 C 16.41 54.06 17.95 59.02 19.74 63.89 C 18.64 63.93 17.55 63.98 16.45 64.02 C 16.15 62.77 15.81 61.54 15.42 60.32 C 13.76 59.70 11.89 60.07 10.15 59.95 C 9.88 61.30 9.61 62.65 9.34 63.99 C 8.58 64.00 7.05 64.01 6.29 64.02 L 6.33 63.53 C 6.39 63.11 6.53 62.28 6.60 61.87 Z" />
<path fill="#ffffff" d=" M 102.03 49.01 C 102.77 49.01 104.25 49.00 104.99 49.00 C 104.99 49.42 105.00 50.26 105.01 50.68 C 105.07 54.19 105.03 57.70 104.90 61.21 C 106.81 61.24 108.71 61.26 110.61 61.28 C 110.61 61.96 110.61 63.32 110.61 64.00 C 107.69 63.99 104.76 63.99 101.84 63.99 C 101.94 59.52 101.95 55.04 102.01 50.56 C 102.02 50.18 102.03 49.40 102.03 49.01 Z" />
<path fill="#ffffff" d=" M 151.34 49.25 C 151.85 49.32 152.87 49.45 153.38 49.52 C 153.27 50.12 153.06 51.31 152.95 51.91 C 153.78 51.98 155.43 52.11 156.26 52.17 C 156.13 52.77 155.86 53.97 155.73 54.57 C 155.05 54.53 153.68 54.46 153.00 54.42 C 153.02 56.68 153.05 58.93 153.09 61.19 C 153.85 61.21 155.35 61.25 156.11 61.27 C 156.06 61.91 155.96 63.20 155.91 63.84 C 154.21 63.78 152.26 64.32 150.80 63.18 C 148.80 60.40 151.62 55.92 148.58 53.81 C 149.20 52.20 150.74 50.95 151.34 49.25 Z" />
<path fill="#575c57" d=" M 46.81 50.02 C 47.48 49.96 48.84 49.83 49.51 49.77 C 49.51 50.08 49.51 50.70 49.51 51.01 L 49.52 51.87 C 49.57 55.56 49.55 59.26 49.50 62.95 C 48.83 63.20 47.50 63.70 46.83 63.96 C 46.80 59.31 46.79 54.67 46.81 50.02 Z" />
<path fill="#848684" d=" M 475.38 51.95 C 476.98 51.95 478.50 52.59 480.00 53.10 L 480.00 75.96 C 320.00 75.97 160.00 75.98 0.00 75.96 L 0.00 63.62 C 2.11 63.87 4.24 64.09 6.33 63.53 L 6.29 64.02 C 6.27 64.73 6.24 66.14 6.23 66.85 C 8.96 66.92 11.51 66.24 12.49 63.41 C 14.18 65.15 16.15 67.42 18.87 66.39 C 23.61 65.05 28.46 66.84 33.24 65.98 C 33.12 66.35 32.88 67.10 32.76 67.47 C 32.63 67.91 32.36 68.79 32.22 69.23 C 35.34 69.84 38.52 69.88 41.68 69.62 C 42.57 68.44 43.46 67.27 44.34 66.09 C 50.87 65.28 57.45 66.05 63.99 65.61 C 66.32 65.43 68.66 65.47 70.97 65.78 C 74.36 66.36 77.75 65.23 81.14 65.73 C 86.53 66.42 91.94 65.62 97.34 65.51 C 97.59 62.70 98.04 59.91 98.88 57.21 C 99.59 59.85 99.96 62.58 100.76 65.20 C 103.23 66.80 106.32 66.51 109.11 66.73 C 109.62 68.05 110.14 69.37 110.63 70.70 C 112.60 70.80 114.79 71.72 116.62 70.56 C 119.10 69.25 120.20 66.54 121.34 64.14 C 123.40 65.26 125.45 66.89 127.93 66.63 C 130.64 66.46 133.12 65.27 135.61 64.33 C 138.33 67.96 143.22 66.64 146.98 65.79 C 150.42 64.77 154.49 68.40 157.51 65.63 C 158.21 62.97 157.31 60.32 156.03 58.00 C 156.72 56.61 157.40 55.22 158.01 53.79 C 165.11 54.33 172.27 54.12 179.38 53.91 C 180.02 54.02 180.67 54.12 181.32 54.23 C 183.43 54.09 185.54 54.10 187.66 54.02 C 194.35 54.05 201.07 54.34 207.75 53.88 C 208.12 53.98 208.86 54.16 209.23 54.25 C 219.38 53.75 229.58 54.47 239.72 53.90 C 240.11 54.01 240.88 54.24 241.26 54.36 C 244.02 53.91 246.82 54.07 249.61 54.16 C 250.99 54.06 252.38 54.13 253.76 54.28 C 254.15 54.15 254.95 53.89 255.35 53.77 C 256.12 54.00 256.91 54.22 257.69 54.46 C 258.11 54.28 258.94 53.93 259.36 53.75 C 260.14 53.99 260.92 54.23 261.71 54.47 C 262.36 54.21 263.01 53.94 263.66 53.68 C 264.06 53.84 264.85 54.14 265.25 54.29 C 270.72 54.09 276.26 53.79 281.71 54.32 C 282.10 54.21 282.89 53.99 283.28 53.88 C 285.39 54.09 287.51 54.20 289.63 54.18 C 292.97 53.84 296.35 54.36 299.69 53.92 C 300.09 54.00 300.90 54.17 301.30 54.26 C 305.43 53.88 309.59 54.04 313.73 54.26 C 314.38 54.09 315.04 53.93 315.71 53.76 C 316.10 53.89 316.87 54.16 317.26 54.29 C 318.73 54.01 320.23 53.99 321.72 54.25 C 322.37 54.08 323.03 53.92 323.69 53.76 C 324.35 53.99 325.02 54.23 325.69 54.47 C 326.08 54.33 326.86 54.03 327.25 53.89 C 331.95 54.42 336.67 53.88 341.38 54.13 C 342.83 53.92 344.29 54.00 345.73 54.29 C 346.13 54.15 346.93 53.88 347.33 53.75 C 348.12 53.99 348.90 54.24 349.69 54.49 C 350.09 54.35 350.89 54.07 351.28 53.93 C 356.04 54.36 360.83 53.81 365.59 54.17 C 366.93 54.08 368.27 54.06 369.62 54.07 C 370.92 53.92 372.23 54.02 373.51 54.33 C 374.12 54.14 374.73 53.95 375.35 53.76 C 376.10 53.99 376.86 54.22 377.62 54.45 C 378.02 54.30 378.81 54.00 379.21 53.86 C 384.70 54.36 390.25 54.11 395.75 53.88 C 396.14 53.97 396.92 54.17 397.31 54.27 C 410.09 53.74 422.93 54.48 435.71 53.90 C 436.11 54.00 436.90 54.20 437.29 54.30 C 440.10 53.99 442.93 53.98 445.74 54.26 C 446.14 54.13 446.92 53.87 447.32 53.74 C 447.94 53.93 448.58 54.12 449.22 54.32 C 453.38 53.94 457.62 53.87 461.78 54.31 C 463.66 53.00 465.88 52.05 468.18 52.82 C 470.64 53.67 473.02 52.54 475.38 51.95 Z" />
<path fill="#313031" d=" M 12.78 51.74 C 13.35 53.51 13.94 55.27 14.55 57.02 C 13.43 57.11 12.31 57.20 11.19 57.29 C 11.71 55.44 12.25 53.59 12.78 51.74 Z" />
<path fill="#ffffff" d=" M 49.50 62.95 C 49.55 59.26 49.57 55.56 49.52 51.87 C 50.35 51.92 52.00 52.03 52.83 52.09 C 52.79 56.06 52.79 60.03 52.82 64.01 C 51.71 63.96 50.60 63.91 49.49 63.86 L 49.50 62.95 Z" />
<path fill="#595d59" d=" M 52.83 52.09 C 53.49 52.07 54.81 52.04 55.47 52.03 C 55.56 55.67 55.58 59.31 55.51 62.95 C 54.84 63.21 53.50 63.74 52.82 64.01 C 52.79 60.03 52.79 56.06 52.83 52.09 Z" />
<path fill="#ffffff" d=" M 55.47 52.03 C 58.38 53.19 61.48 51.49 64.26 52.62 C 66.76 55.82 65.19 60.33 65.66 64.11 C 64.83 64.05 63.16 63.94 62.33 63.89 C 62.35 63.47 62.38 62.61 62.39 62.19 C 62.44 59.70 62.48 57.19 62.15 54.71 C 61.58 54.64 60.44 54.48 59.87 54.41 C 58.24 56.65 58.94 59.60 58.75 62.18 C 58.76 62.65 58.77 63.58 58.78 64.05 C 57.69 63.99 56.59 63.93 55.50 63.88 L 55.51 62.95 C 55.58 59.31 55.56 55.67 55.47 52.03 Z" />
<path fill="#ffffff" d=" M 69.07 54.05 C 70.34 51.76 73.43 51.72 75.63 52.41 C 78.20 53.54 78.07 56.65 78.32 58.99 C 75.79 58.97 73.26 58.95 70.73 59.12 C 71.77 62.33 75.24 61.50 77.78 61.17 C 77.71 61.75 77.57 62.93 77.50 63.52 C 74.87 63.88 71.64 64.64 69.52 62.55 C 67.60 60.22 67.61 56.60 69.07 54.05 Z" />
<path fill="#ffffff" d=" M 80.80 52.79 C 83.57 52.01 88.10 50.94 89.32 54.49 C 89.68 57.64 89.47 60.82 89.61 63.99 C 88.16 64.10 86.86 63.90 86.62 62.23 C 85.26 63.94 82.53 64.73 80.78 63.13 C 79.72 61.52 79.60 59.23 80.57 57.56 C 82.05 55.77 84.55 56.37 86.58 56.13 C 86.31 53.62 83.54 54.56 81.88 54.91 C 81.61 54.38 81.07 53.32 80.80 52.79 Z" />
<path fill="#ffffff" d=" M 92.55 51.66 C 94.23 51.60 95.33 52.34 95.62 53.95 C 95.99 53.50 96.75 52.60 97.13 52.15 C 97.77 52.12 99.06 52.06 99.70 52.03 C 99.71 52.70 99.72 54.04 99.72 54.71 C 98.43 55.07 97.14 55.46 95.86 55.88 C 95.79 58.57 95.75 61.26 95.80 63.95 C 95.00 63.99 93.38 64.06 92.57 64.10 C 92.66 59.95 92.60 55.81 92.55 51.66 Z" />
<path fill="#ffffff" d=" M 111.12 51.87 C 112.28 51.94 113.44 52.00 114.60 52.07 C 115.21 54.81 115.86 57.55 116.58 60.27 C 117.43 57.52 118.17 54.74 118.81 51.94 C 119.71 51.92 121.51 51.89 122.41 51.88 C 120.44 56.86 119.23 62.13 117.00 66.99 C 116.04 69.18 113.46 68.85 111.51 68.93 C 111.52 68.37 111.53 67.23 111.54 66.67 C 113.02 66.13 115.31 66.20 115.20 64.04 C 114.35 60.59 112.84 57.36 111.69 54.00 C 111.48 53.30 111.29 52.59 111.12 51.87 Z" />
<path fill="#ffffff" d=" M 125.48 52.58 C 127.67 51.71 130.74 51.70 132.31 53.72 C 133.91 56.25 134.06 59.80 132.28 62.29 C 129.97 65.14 124.44 64.36 123.42 60.66 C 122.71 57.90 122.90 54.33 125.48 52.58 Z" />
<path fill="#ffffff" d=" M 136.48 51.81 C 137.30 51.86 138.95 51.95 139.77 52.00 C 139.76 52.45 139.75 53.36 139.75 53.82 C 139.73 56.36 139.78 58.90 139.88 61.43 C 140.62 61.31 142.10 61.07 142.85 60.95 C 143.49 58.61 143.35 56.15 143.34 53.75 C 143.33 53.31 143.31 52.43 143.30 51.99 C 144.41 52.01 145.52 52.03 146.63 52.05 C 146.52 56.05 146.52 60.05 146.63 64.05 C 145.11 64.36 144.14 63.86 143.73 62.55 C 141.88 64.34 137.97 64.79 136.91 61.93 C 136.20 58.62 136.62 55.18 136.48 51.81 Z" />
<path fill="#5a615a" d=" M 139.75 53.82 C 140.93 53.61 142.14 53.59 143.34 53.75 C 143.35 56.15 143.49 58.61 142.85 60.95 C 142.10 61.07 140.62 61.31 139.88 61.43 C 139.78 58.90 139.73 56.36 139.75 53.82 Z" />
<path fill="#525952" d=" M 27.30 61.56 C 23.06 62.21 23.11 54.00 27.26 54.50 C 28.47 56.72 28.47 59.32 27.30 61.56 Z" />
<path fill="#313031" d=" M 71.05 56.61 C 71.62 54.02 75.16 53.67 75.17 56.73 C 73.80 56.70 72.42 56.66 71.05 56.61 Z" />
<path fill="#5a595a" d=" M 126.90 54.67 C 131.58 53.06 131.60 63.15 126.99 61.08 C 125.89 59.08 126.41 56.76 126.90 54.67 Z" />
<path fill="#5a5d5a" d=" M 58.75 62.18 C 58.94 59.60 58.24 56.65 59.87 54.41 C 60.44 54.48 61.58 54.64 62.15 54.71 C 62.48 57.19 62.44 59.70 62.39 62.19 C 61.18 62.42 59.95 62.55 58.75 62.18 Z" />
<path fill="#313031" d=" M 83.53 61.46 C 82.46 59.08 84.35 57.52 86.67 58.33 C 86.24 59.34 85.80 60.34 85.36 61.34 C 84.90 61.37 83.99 61.43 83.53 61.46 Z" />
<path fill="#ffffff" d=" M 33.24 65.98 C 36.04 65.60 38.87 65.70 41.69 65.70 C 41.73 66.14 41.81 67.02 41.85 67.46 C 38.82 67.42 35.79 67.35 32.76 67.47 C 32.88 67.10 33.12 66.35 33.24 65.98 Z" />
<path fill="#000000" d=" M 0.00 75.96 C 160.00 75.98 320.00 75.97 480.00 75.96 L 480.00 800.00 L 0.00 800.00 L 0.00 75.96 Z" />
<path fill="#7f807f" d=" M 111.79 94.78 C 112.15 94.67 112.85 94.46 113.21 94.35 C 112.24 97.41 113.22 100.48 114.93 103.07 L 113.30 103.17 C 112.15 108.84 112.30 114.65 111.94 120.40 C 110.91 134.00 110.91 147.69 109.60 161.26 C 107.76 158.47 109.38 155.06 109.22 151.99 C 109.74 132.91 111.54 113.86 111.79 94.78 Z" />
<path fill="#dee3de" d=" M 113.21 94.35 C 114.11 93.29 115.29 93.38 116.77 94.61 C 116.69 97.47 116.62 100.34 116.49 103.20 C 116.10 103.17 115.32 103.10 114.93 103.07 C 113.22 100.48 112.24 97.41 113.21 94.35 Z" />
<path fill="#ffffff" d=" M 113.30 103.17 L 114.93 103.07 C 115.32 103.10 116.10 103.17 116.49 103.20 L 117.74 103.35 C 117.62 103.93 117.37 105.08 117.25 105.66 L 118.22 105.62 C 118.26 113.57 118.69 121.51 118.60 129.45 L 119.37 129.54 C 119.24 136.87 119.72 144.20 119.60 151.53 L 120.40 151.46 C 120.18 156.81 120.72 162.17 120.40 167.52 C 120.22 174.37 121.08 181.21 121.41 188.04 C 121.53 191.04 120.77 194.47 118.11 196.23 C 115.93 197.06 113.24 197.05 111.17 195.95 C 108.57 193.86 108.42 190.12 108.48 187.05 C 109.14 179.49 109.44 171.89 109.53 164.31 C 109.55 163.54 109.58 162.02 109.60 161.26 C 110.91 147.69 110.91 134.00 111.94 120.40 C 112.30 114.65 112.15 108.84 113.30 103.17 Z" />
<path fill="#707070" d=" M 64.83 106.86 C 66.19 105.38 68.85 105.30 69.87 107.19 C 72.49 111.80 75.29 116.32 77.60 121.09 C 76.62 122.94 74.07 124.64 72.25 122.80 C 69.60 118.98 67.58 114.77 65.07 110.85 C 64.23 109.68 64.39 108.15 64.83 106.86 Z" />
<path fill="#6d6e6d" d=" M 159.22 107.25 C 160.27 105.23 162.73 105.76 164.40 106.57 C 164.56 108.07 164.91 109.71 163.91 111.02 C 161.36 115.08 159.41 119.55 156.44 123.34 C 154.23 124.31 152.67 122.64 151.59 120.95 C 153.86 116.24 156.61 111.77 159.22 107.25 Z" />
<path fill="#ffffff" d=" M 66.38 107.33 L 67.02 106.87 C 67.41 107.04 68.19 107.38 68.59 107.55 C 71.19 111.49 73.37 115.72 75.64 119.86 C 75.55 120.43 75.38 121.56 75.29 122.12 L 73.90 122.52 C 70.33 118.63 68.32 113.51 65.57 109.02 C 65.77 108.60 66.18 107.76 66.38 107.33 Z" />
<path fill="#fffbff" d=" M 161.14 107.17 C 163.50 106.15 164.17 109.27 162.69 110.69 C 160.06 114.56 158.58 119.36 155.12 122.57 L 153.82 122.00 C 153.72 121.49 153.52 120.45 153.42 119.94 C 155.98 115.73 157.88 110.78 161.14 107.17 Z" />
<path fill="#6e6f6e" d=" M 30.06 141.98 C 31.01 139.77 33.96 140.24 35.55 141.46 C 39.40 144.01 43.78 145.79 47.33 148.76 C 48.23 150.85 46.80 152.59 45.09 153.62 C 40.45 151.39 36.12 148.61 31.60 146.16 C 30.11 145.45 29.10 143.52 30.06 141.98 Z" />
<path fill="#fffbff" d=" M 31.37 142.36 C 32.13 140.51 34.19 142.21 35.30 142.73 C 39.03 145.17 43.35 146.80 46.63 149.87 C 46.73 152.32 43.66 151.99 42.39 150.93 C 39.16 149.03 35.85 147.26 32.61 145.38 C 31.59 144.92 30.32 143.37 31.37 142.36 Z" />
<path fill="#f7fbf7" d=" M 192.50 142.60 C 194.38 141.66 196.42 141.16 198.54 141.36 C 198.52 142.39 198.47 144.44 198.45 145.47 C 197.98 145.45 197.05 145.41 196.58 145.39 L 196.41 146.56 C 195.95 146.53 195.04 146.48 194.59 146.46 L 194.48 147.47 C 193.43 147.80 192.38 148.14 191.33 148.50 L 191.39 149.61 C 190.93 149.53 190.01 149.39 189.55 149.31 L 189.40 150.58 C 188.96 150.54 188.07 150.46 187.63 150.42 L 187.51 151.39 C 185.93 151.88 183.45 153.59 182.48 151.36 C 182.44 150.67 182.37 149.28 182.34 148.59 L 183.57 148.59 L 183.67 147.38 C 184.11 147.45 185.00 147.58 185.44 147.64 L 185.55 146.37 C 186.01 146.42 186.92 146.54 187.38 146.59 L 187.42 145.32 L 188.64 145.65 L 188.63 144.37 C 189.09 144.46 190.00 144.62 190.46 144.70 L 190.56 143.37 C 191.02 143.44 191.94 143.56 192.39 143.63 L 192.50 142.60 Z" />
<path fill="#848684" d=" M 121.58 160.04 C 120.99 169.45 121.97 178.81 122.62 188.18 C 126.07 189.17 128.84 191.54 131.83 193.41 C 143.70 201.50 155.80 209.25 167.50 217.58 C 169.85 219.12 167.87 222.03 166.51 223.54 C 160.09 221.57 154.35 217.99 148.22 215.31 C 137.10 209.94 126.01 204.49 115.02 198.89 C 111.47 198.14 108.08 195.72 107.56 191.91 C 106.81 181.51 109.16 171.14 108.33 160.74 C 108.77 161.91 109.24 163.08 109.53 164.31 C 109.44 171.89 109.14 179.49 108.48 187.05 C 108.42 190.12 108.57 193.86 111.17 195.95 C 113.24 197.05 115.93 197.06 118.11 196.23 C 120.77 194.47 121.53 191.04 121.41 188.04 C 121.08 181.21 120.22 174.37 120.40 167.52 C 121.27 165.12 121.49 162.57 121.58 160.04 Z" />
<path fill="#666666" d=" M 18.30 187.61 C 23.93 187.71 29.58 187.32 35.18 187.76 C 37.39 189.01 36.96 191.86 35.45 193.47 C 29.87 193.36 24.26 193.74 18.70 193.31 C 16.43 192.01 17.05 189.41 18.30 187.61 Z" />
<path fill="#f7f3f7" d=" M 193.41 188.47 C 199.39 188.39 205.39 188.10 211.36 188.66 C 211.36 189.89 211.36 191.13 211.36 192.37 C 205.41 192.94 199.41 192.62 193.43 192.58 L 193.70 191.36 L 192.62 191.50 C 192.64 191.02 192.68 190.05 192.70 189.57 L 193.75 189.64 L 193.41 188.47 Z" />
<path fill="#ffffff" d=" M 18.90 188.97 C 23.55 188.25 28.34 188.78 33.05 188.67 C 35.16 188.41 36.59 190.42 35.07 192.19 C 30.39 192.64 25.68 192.36 20.98 192.39 C 18.80 193.19 17.39 190.52 18.90 188.97 Z" />
<path fill="#ffffff" d=" M 124.57 191.16 C 128.54 191.99 131.45 195.10 134.96 196.94 C 141.86 201.82 149.07 206.24 155.95 211.17 C 160.09 213.83 164.30 216.44 167.90 219.84 C 167.04 222.13 164.86 222.18 163.07 221.02 C 149.10 214.32 135.05 207.79 121.36 200.55 C 118.96 199.44 121.39 197.54 122.36 196.37 C 123.82 194.99 124.44 193.12 124.57 191.16 Z" />
<path fill="#737473" d=" M 43.36 228.40 C 44.90 227.52 46.28 228.84 47.61 229.46 C 48.44 233.84 43.39 234.59 40.70 236.58 C 37.51 238.10 34.59 241.31 30.76 240.41 C 30.47 239.80 29.89 238.56 29.60 237.95 C 29.83 237.37 30.29 236.22 30.52 235.65 C 34.81 233.26 38.99 230.63 43.36 228.40 Z" />
<path fill="#f7fbf7" d=" M 183.48 229.60 L 183.43 228.51 L 185.57 228.54 L 185.63 229.63 C 186.08 229.55 186.97 229.39 187.42 229.32 L 187.53 230.61 C 187.99 230.56 188.92 230.48 189.38 230.44 L 189.48 231.47 C 190.50 231.85 191.52 232.22 192.54 232.60 L 192.66 233.62 C 193.10 233.56 193.99 233.43 194.43 233.37 L 194.57 234.63 C 195.02 234.58 195.91 234.49 196.35 234.44 L 196.52 235.63 C 196.99 235.62 197.93 235.60 198.40 235.59 C 198.45 236.60 198.55 238.61 198.60 239.62 C 196.92 239.64 195.24 239.59 193.56 239.51 L 193.64 238.27 L 192.43 238.68 L 192.39 237.43 C 191.92 237.49 190.98 237.62 190.52 237.68 L 190.45 236.34 C 189.99 236.42 189.07 236.57 188.61 236.64 L 188.57 235.59 C 187.55 235.21 186.54 234.83 185.52 234.46 L 185.38 233.45 C 184.92 233.50 183.99 233.60 183.53 233.66 L 183.58 232.36 L 182.43 232.48 C 182.39 231.72 182.32 230.20 182.29 229.44 L 183.48 229.60 Z" />
<path fill="#fffbff" d=" M 31.23 236.44 C 36.02 234.37 40.12 230.75 45.11 229.25 C 45.50 229.70 46.28 230.61 46.68 231.06 C 45.22 232.96 42.93 233.85 40.95 235.06 C 37.87 236.68 35.06 238.91 31.64 239.78 C 31.46 238.67 31.33 237.56 31.23 236.44 Z" />
<path fill="#6e6f6e" d=" M 152.45 261.96 C 150.74 259.36 154.42 256.12 156.75 258.11 C 159.48 261.83 161.44 266.07 163.87 269.99 C 164.89 271.28 164.56 272.92 164.46 274.43 C 162.75 275.25 160.25 275.99 159.16 273.84 C 156.95 269.86 154.58 265.97 152.45 261.96 Z" />
<path fill="#f7fbf7" d=" M 72.37 258.28 C 74.63 258.34 77.27 258.33 76.70 261.49 L 75.45 261.64 C 75.50 262.10 75.59 263.03 75.64 263.49 L 74.37 263.67 C 74.44 264.12 74.58 265.04 74.66 265.49 L 73.62 265.49 C 73.22 266.51 72.82 267.52 72.42 268.54 L 71.46 268.68 C 71.52 269.13 71.65 270.02 71.71 270.47 L 70.45 270.60 C 70.48 271.06 70.54 271.97 70.57 272.43 L 69.36 272.53 C 69.39 273.00 69.45 273.95 69.48 274.43 C 68.48 274.46 66.46 274.52 65.46 274.55 C 65.42 273.54 65.35 271.52 65.32 270.52 L 66.52 270.37 C 66.48 269.91 66.39 268.98 66.34 268.52 L 67.61 268.43 C 67.56 267.96 67.45 267.01 67.39 266.53 L 68.71 266.54 C 68.63 266.07 68.47 265.12 68.39 264.65 L 69.70 264.62 L 69.35 263.40 L 70.58 263.32 C 70.53 262.88 70.45 261.99 70.40 261.55 L 71.62 261.44 C 71.58 260.99 71.48 260.08 71.43 259.62 L 72.66 259.50 L 72.37 258.28 Z" />
<path fill="#fffbff" d=" M 154.14 259.08 C 155.39 257.50 156.58 260.02 157.23 260.89 C 159.24 264.61 161.63 268.13 163.41 271.97 C 164.29 274.07 160.86 275.13 160.12 273.03 C 157.92 268.56 154.46 264.58 153.24 259.74 L 154.14 259.08 Z" />
<path fill="#939293" d=" M 111.61 270.69 C 112.64 267.97 116.29 267.91 117.47 270.55 C 117.18 275.70 117.65 280.86 117.23 286.00 C 116.53 287.98 114.28 287.70 112.62 287.54 C 110.73 282.14 112.23 276.29 111.61 270.69 Z" />
<path fill="#ffffff" d=" M 113.20 270.13 C 114.46 270.26 116.58 269.99 116.18 271.99 C 116.26 276.02 116.24 280.06 116.18 284.10 C 116.17 285.63 115.38 286.60 113.81 287.02 C 112.12 281.57 113.03 275.73 113.20 270.13 Z" />
<path fill="#efefef" d=" M 8.00 321.95 C 9.35 320.73 11.32 321.05 12.99 320.98 C 24.35 321.05 35.72 320.94 47.09 321.02 C 49.14 320.76 50.47 322.43 51.75 323.72 C 51.50 326.40 51.42 329.11 50.81 331.75 C 49.83 332.23 48.78 332.56 47.75 332.92 C 47.38 333.91 47.00 334.90 46.63 335.89 C 46.51 335.61 46.28 335.04 46.17 334.76 L 45.95 334.22 C 45.98 331.41 42.94 329.40 40.90 331.85 C 39.53 330.92 37.99 330.62 36.41 331.06 C 29.01 330.99 21.61 331.05 14.22 330.97 C 11.49 331.45 8.91 332.85 6.05 332.45 C 6.53 329.00 4.75 324.42 8.00 321.95 Z" />
<path fill="#d6d7d6" d=" M 51.75 323.72 C 52.09 328.06 52.11 332.43 51.92 336.79 C 51.62 338.42 51.22 340.04 50.84 341.66 C 48.35 341.68 45.83 341.28 43.38 341.75 C 41.06 343.41 39.16 345.58 36.95 347.38 L 36.91 346.03 C 38.00 344.68 39.14 343.36 40.22 342.00 C 42.21 339.59 44.10 337.10 46.17 334.76 C 46.28 335.04 46.51 335.61 46.63 335.89 C 47.00 334.90 47.38 333.91 47.75 332.92 C 48.78 332.56 49.83 332.23 50.81 331.75 C 51.42 329.11 51.50 326.40 51.75 323.72 Z" />
<path fill="#d6dbd6" d=" M 14.22 330.97 C 21.61 331.05 29.01 330.99 36.41 331.06 C 37.99 330.62 39.53 330.92 40.90 331.85 C 36.52 336.53 31.86 340.97 27.13 345.30 C 25.71 346.86 24.19 344.60 22.94 343.97 C 22.10 343.09 21.28 342.19 20.43 341.32 C 17.47 338.75 14.47 342.21 13.53 344.95 C 11.42 345.44 9.28 345.79 7.21 346.44 C 6.83 344.89 6.43 343.34 6.12 341.78 C 5.92 338.67 6.05 335.55 6.05 332.45 C 8.91 332.85 11.49 331.45 14.22 330.97 Z" />
<path fill="#949294" d=" M 40.90 331.85 C 42.94 329.40 45.98 331.41 45.95 334.22 C 44.98 333.19 43.98 332.19 42.99 331.20 C 38.78 334.82 35.36 339.22 31.42 343.11 C 29.68 344.82 27.84 346.42 26.02 348.04 C 24.40 346.86 22.91 345.52 21.61 344.00 L 22.94 343.97 C 24.19 344.60 25.71 346.86 27.13 345.30 C 31.86 340.97 36.52 336.53 40.90 331.85 Z" />
<path fill="#cecbce" d=" M 31.42 343.11 C 35.36 339.22 38.78 334.82 42.99 331.20 C 43.98 332.19 44.98 333.19 45.95 334.22 L 46.17 334.76 C 44.10 337.10 42.21 339.59 40.22 342.00 L 40.11 340.87 C 37.71 343.12 34.60 343.98 31.42 343.11 Z" />
<path fill="#ffffff" d=" M 104.03 334.00 C 104.59 334.00 105.71 334.00 106.27 334.00 C 106.28 336.25 106.26 338.50 106.14 340.75 C 107.91 338.67 111.53 338.24 113.43 340.35 C 115.07 343.98 114.01 348.14 114.29 352.00 C 113.73 352.00 112.61 352.00 112.06 352.00 C 111.80 348.27 112.83 344.27 111.11 340.79 C 109.44 340.83 107.36 340.64 106.66 342.56 C 105.91 345.63 106.37 348.86 106.27 352.00 C 105.71 352.00 104.59 352.00 104.03 352.00 C 104.03 346.00 104.03 340.00 104.03 334.00 Z" />
<path fill="#ffffff" d=" M 142.03 334.00 C 142.58 334.00 143.68 334.00 144.22 334.00 C 144.24 337.73 144.26 341.46 144.08 345.18 C 146.39 342.88 147.65 338.25 151.63 338.95 C 150.03 340.86 148.41 342.75 146.87 344.70 C 148.59 347.10 150.23 349.56 151.89 352.00 C 151.23 351.99 149.91 351.97 149.25 351.96 C 147.98 350.04 146.72 348.12 145.48 346.18 C 145.17 346.37 144.54 346.76 144.23 346.95 C 144.23 348.63 144.22 350.31 144.23 352.00 C 143.68 352.00 142.58 352.00 142.03 352.00 C 142.03 346.00 142.03 340.00 142.03 334.00 Z" />
<path fill="#ffffff" d=" M 154.03 334.00 C 154.59 334.00 155.72 334.00 156.28 334.00 C 156.27 336.09 156.24 338.17 156.14 340.27 C 158.15 338.68 161.53 338.37 163.32 340.43 C 165.22 343.12 165.28 346.97 163.78 349.85 C 162.34 352.74 157.96 352.61 156.09 350.23 L 155.68 351.70 C 155.27 351.82 154.46 352.08 154.05 352.21 C 154.01 346.14 154.04 340.07 154.03 334.00 Z" />
<path fill="#c6c7c6" d=" M 50.84 341.66 C 51.22 340.04 51.62 338.42 51.92 336.79 C 52.00 339.43 52.13 342.10 51.89 344.74 C 51.57 347.02 51.15 349.27 50.76 351.54 C 45.60 351.65 40.38 351.01 35.26 351.70 C 32.09 353.35 30.83 357.15 27.98 359.21 C 26.89 359.22 25.82 359.08 24.77 358.79 C 28.54 357.76 30.20 354.12 32.44 351.33 C 33.92 349.55 35.41 347.79 36.91 346.03 L 36.95 347.38 C 39.16 345.58 41.06 343.41 43.38 341.75 C 45.83 341.28 48.35 341.68 50.84 341.66 Z" />
<path fill="#ffffff" d=" M 58.87 339.00 C 59.43 339.00 60.55 339.00 61.10 339.00 C 61.14 342.07 60.95 345.16 61.22 348.23 C 61.43 350.92 65.60 350.83 66.41 348.57 C 67.38 345.48 66.84 342.18 66.96 339.00 C 67.51 339.00 68.61 339.00 69.16 339.00 C 69.16 343.41 69.19 347.82 69.14 352.23 C 68.52 351.80 67.28 350.95 66.66 350.53 C 64.85 352.60 60.69 352.70 59.33 350.08 C 58.50 346.45 58.98 342.69 58.87 339.00 Z" />
<path fill="#ffffff" d=" M 73.05 338.82 C 73.59 339.23 74.69 340.06 75.23 340.47 C 77.38 338.14 82.59 338.36 83.10 342.03 C 83.53 345.33 83.21 348.68 83.29 352.00 C 82.73 352.00 81.62 352.00 81.06 352.00 C 81.02 348.94 81.19 345.87 80.99 342.82 C 80.92 339.92 76.38 339.86 75.66 342.39 C 74.91 345.52 75.37 348.80 75.27 352.00 C 74.71 352.00 73.59 352.00 73.03 352.00 C 73.04 347.61 73.02 343.21 73.05 338.82 Z" />
<path fill="#ffffff" d=" M 92.93 341.97 C 94.26 338.76 98.33 338.47 101.20 339.55 L 101.00 341.42 C 98.93 340.81 95.70 340.35 94.91 343.02 C 94.51 345.09 94.20 347.62 95.69 349.35 C 97.32 350.79 99.52 349.76 101.38 349.53 C 101.60 352.68 97.98 352.06 95.95 351.76 C 92.00 350.50 91.50 345.27 92.93 341.97 Z" />
<path fill="#ffffff" d=" M 118.32 341.36 C 119.95 338.30 125.11 338.10 126.84 341.15 C 127.76 342.50 127.62 344.20 127.84 345.74 C 125.05 345.78 122.25 345.77 119.46 345.79 C 119.87 347.12 119.86 348.92 121.29 349.65 C 123.17 350.81 125.40 349.60 127.37 349.38 C 127.38 352.83 123.26 352.01 121.01 351.71 C 116.91 350.31 116.33 344.69 118.32 341.36 Z" />
<path fill="#ffffff" d=" M 134.02 351.78 C 128.03 349.90 129.22 338.45 136.02 339.01 C 137.35 339.10 140.41 338.93 139.04 341.41 C 137.29 341.09 135.28 340.42 133.71 341.67 C 132.23 343.64 132.26 346.65 133.29 348.81 C 134.64 350.97 137.46 349.75 139.47 349.62 C 139.42 352.63 136.06 352.07 134.02 351.78 Z" />
<path fill="#ffffff" d=" M 170.42 339.44 C 172.66 338.63 175.59 338.82 177.14 340.84 C 180.13 344.49 178.62 352.31 172.99 351.98 C 166.50 352.40 165.18 342.00 170.42 339.44 Z" />
<path fill="#ffffff" d=" M 180.54 338.96 C 183.92 337.93 184.55 341.80 186.00 343.85 C 187.43 341.79 188.13 338.03 191.47 338.94 C 190.26 341.22 188.01 343.18 187.55 345.71 C 188.83 347.89 190.33 349.94 191.67 352.09 C 188.25 352.90 187.58 349.01 186.00 346.97 C 184.40 349.03 183.73 352.91 180.29 352.11 C 181.75 349.82 183.25 347.56 184.70 345.27 C 183.29 343.18 181.89 341.09 180.54 338.96 Z" />
<path fill="#949294" d=" M 13.53 344.95 C 14.47 342.21 17.47 338.75 20.43 341.32 C 17.69 341.60 15.58 343.28 13.53 344.95 Z" />
<path fill="#bdbebd" d=" M 31.42 343.11 C 34.60 343.98 37.71 343.12 40.11 340.87 L 40.22 342.00 C 39.14 343.36 38.00 344.68 36.91 346.03 C 35.41 347.79 33.92 349.55 32.44 351.33 C 28.39 353.15 23.92 352.38 19.70 351.82 C 21.30 354.20 22.93 356.57 24.77 358.79 C 25.82 359.08 26.89 359.22 27.98 359.21 C 30.83 357.15 32.09 353.35 35.26 351.70 C 40.38 351.01 45.60 351.65 50.76 351.54 C 51.15 349.27 51.57 347.02 51.89 344.74 C 52.05 351.30 52.06 357.87 51.79 364.42 L 51.49 364.43 C 36.69 365.20 21.85 364.15 7.06 365.03 L 6.65 365.06 C 5.36 357.41 6.20 349.52 6.12 341.78 C 6.43 343.34 6.83 344.89 7.21 346.44 C 9.28 345.79 11.42 345.44 13.53 344.95 C 15.58 343.28 17.69 341.60 20.43 341.32 C 21.28 342.19 22.10 343.09 22.94 343.97 L 21.61 344.00 C 22.91 345.52 24.40 346.86 26.02 348.04 C 27.84 346.42 29.68 344.82 31.42 343.11 Z" />
<path fill="#000000" d=" M 119.32 343.82 C 120.07 342.33 120.97 340.25 123.09 340.82 C 124.82 340.86 125.05 342.77 125.45 344.06 C 123.40 344.02 121.36 343.97 119.32 343.82 Z" />
<path fill="#000000" d=" M 157.30 341.54 C 158.85 340.03 161.83 340.79 162.21 343.02 C 162.52 345.41 163.01 349.38 160.01 350.18 C 155.49 350.74 155.40 344.11 157.30 341.54 Z" />
<path fill="#000000" d=" M 171.21 341.19 C 175.53 339.02 177.31 344.88 175.94 348.03 C 175.35 350.98 170.54 350.94 169.88 348.02 C 169.50 345.77 169.11 342.72 171.21 341.19 Z" />
<path fill="#adaead" d=" M 19.70 351.82 C 23.92 352.38 28.39 353.15 32.44 351.33 C 30.20 354.12 28.54 357.76 24.77 358.79 C 22.93 356.57 21.30 354.20 19.70 351.82 Z" />
<path fill="#d1d1d1" d=" M 7.06 365.03 C 21.85 364.15 36.69 365.20 51.49 364.43 C 50.34 365.76 49.06 367.31 47.07 366.99 C 35.03 367.01 22.99 367.01 10.95 367.00 C 9.32 367.21 7.98 366.27 7.06 365.03 Z" />
<path fill="#efefef" d=" M 6.02 385.94 C 5.83 383.31 8.29 380.82 10.92 381.01 C 42.64 380.99 74.36 380.99 106.08 381.01 C 108.71 380.80 111.14 383.28 110.98 385.88 C 111.07 389.49 110.94 393.10 110.97 396.72 C 108.94 395.88 107.01 394.54 104.76 394.43 C 73.78 394.42 42.79 394.46 11.81 394.41 C 9.25 394.25 7.73 396.66 5.99 398.14 C 6.12 394.07 5.92 390.00 6.02 385.94 Z" />
<path fill="#dedbde" d=" M 5.99 398.14 C 7.73 396.66 9.25 394.25 11.81 394.41 C 42.79 394.46 73.78 394.42 104.76 394.43 C 107.01 394.54 108.94 395.88 110.97 396.72 C 111.04 401.98 110.97 407.25 110.94 412.52 C 109.34 410.85 108.62 408.60 107.28 406.79 C 104.63 406.18 101.90 406.55 99.22 406.50 C 94.77 406.63 90.18 405.91 85.91 407.54 C 85.54 406.58 85.16 405.63 84.78 404.69 C 83.70 402.27 81.09 405.12 80.80 406.71 C 78.10 406.40 75.36 406.37 72.66 406.75 C 72.60 406.33 72.47 405.49 72.41 405.07 C 71.52 406.34 70.58 407.56 69.58 408.74 C 69.91 409.01 70.58 409.54 70.91 409.80 C 70.77 412.96 70.82 416.14 71.27 419.28 C 70.44 419.43 69.60 419.58 68.76 419.74 C 68.48 418.64 68.19 417.54 67.94 416.44 C 68.07 413.69 68.10 410.19 65.36 408.62 C 62.90 406.96 59.22 408.60 58.53 411.40 C 58.08 413.21 58.35 415.10 58.38 416.95 C 58.39 417.88 58.40 418.82 58.39 419.76 C 58.01 419.70 57.24 419.57 56.86 419.51 C 56.45 418.84 56.05 418.18 55.64 417.53 C 56.42 414.65 56.60 411.12 54.35 408.84 C 52.61 407.35 50.42 408.26 48.52 408.83 C 48.56 407.18 48.60 405.54 48.63 403.90 C 48.20 403.95 47.33 404.05 46.90 404.10 C 46.41 404.87 45.94 405.66 45.49 406.45 C 34.23 407.01 22.88 405.64 11.71 407.42 C 9.42 407.20 7.61 408.61 5.98 410.02 C 6.07 406.06 5.99 402.10 5.99 398.14 Z" />
<path fill="#c6cbc6" d=" M 45.49 406.45 C 45.94 405.66 46.41 404.87 46.90 404.10 C 46.90 409.42 46.81 414.73 46.89 420.05 C 44.20 419.70 41.49 419.48 38.78 419.69 C 38.40 416.22 39.18 412.51 37.87 409.20 C 36.18 407.37 33.65 408.07 31.75 409.12 C 31.30 408.74 30.41 407.99 29.96 407.61 C 29.87 411.05 29.78 414.50 29.90 417.94 C 29.07 418.34 27.43 419.14 26.60 419.53 C 26.46 415.72 26.46 411.90 26.49 408.08 C 26.08 408.06 25.26 408.01 24.85 407.98 C 24.78 410.82 25.03 413.71 24.48 416.52 C 24.08 418.74 20.16 419.30 19.68 416.88 C 19.21 413.96 19.46 410.98 19.48 408.04 C 19.03 408.07 18.14 408.11 17.69 408.14 C 17.79 411.88 17.50 415.68 18.42 419.36 C 15.58 419.65 12.71 419.44 9.88 419.84 C 8.17 420.90 7.39 422.99 6.05 424.47 C 5.95 419.65 6.04 414.84 5.98 410.02 C 7.61 408.61 9.42 407.20 11.71 407.42 C 22.88 405.64 34.23 407.01 45.49 406.45 Z" />
<path fill="#000000" d=" M 46.90 404.10 C 47.33 404.05 48.20 403.95 48.63 403.90 C 48.60 405.54 48.56 407.18 48.52 408.83 C 50.42 408.26 52.61 407.35 54.35 408.84 C 56.60 411.12 56.42 414.65 55.64 417.53 C 54.11 420.18 50.68 420.76 48.61 418.33 C 48.18 418.76 47.32 419.62 46.89 420.05 C 46.81 414.73 46.90 409.42 46.90 404.10 Z" />
<path fill="#000000" d=" M 80.80 406.71 C 81.09 405.12 83.70 402.27 84.78 404.69 C 83.91 405.98 82.48 407.19 80.80 406.71 Z" />
<path fill="#000000" d=" M 72.41 405.07 C 72.47 405.49 72.60 406.33 72.66 406.75 L 72.78 407.93 C 73.61 408.02 75.28 408.19 76.11 408.27 C 75.06 408.96 73.93 409.45 72.70 409.73 C 72.71 412.57 72.78 415.42 72.97 418.26 C 73.64 418.31 75.00 418.39 75.68 418.44 C 75.70 418.76 75.74 419.41 75.75 419.73 C 74.24 419.92 72.74 419.63 71.27 419.28 C 70.82 416.14 70.77 412.96 70.91 409.80 C 70.58 409.54 69.91 409.01 69.58 408.74 C 70.58 407.56 71.52 406.34 72.41 405.07 Z" />
<path fill="#c6cbc6" d=" M 80.80 406.71 C 82.48 407.19 83.91 405.98 84.78 404.69 C 85.16 405.63 85.54 406.58 85.91 407.54 C 90.18 405.91 94.77 406.63 99.22 406.50 C 101.90 406.55 104.63 406.18 107.28 406.79 C 108.62 408.60 109.34 410.85 110.94 412.52 C 111.06 416.51 111.01 420.50 110.94 424.50 C 109.69 422.99 108.63 421.34 107.81 419.57 C 104.80 419.59 101.80 419.57 98.80 419.71 C 98.67 416.10 98.67 412.48 98.09 408.91 C 96.05 408.01 93.87 407.81 91.86 408.99 C 91.41 408.70 90.51 408.12 90.06 407.83 C 89.68 411.35 89.86 414.89 89.92 418.42 C 89.25 418.43 87.90 418.44 87.23 418.44 C 87.07 418.10 86.77 417.43 86.62 417.09 C 87.01 414.35 87.30 410.96 84.88 409.03 C 82.85 407.26 79.51 407.95 78.14 410.19 C 76.52 413.13 77.05 417.02 79.38 419.45 C 78.17 419.52 76.96 419.61 75.75 419.73 C 75.74 419.41 75.70 418.76 75.68 418.44 C 75.00 418.39 73.64 418.31 72.97 418.26 C 72.78 415.42 72.71 412.57 72.70 409.73 C 73.93 409.45 75.06 408.96 76.11 408.27 C 75.28 408.19 73.61 408.02 72.78 407.93 L 72.66 406.75 C 75.36 406.37 78.10 406.40 80.80 406.71 Z" />
<path fill="#000000" d=" M 17.69 408.14 C 18.14 408.11 19.03 408.07 19.48 408.04 C 19.46 410.98 19.21 413.96 19.68 416.88 C 20.16 419.30 24.08 418.74 24.48 416.52 C 25.03 413.71 24.78 410.82 24.85 407.98 C 25.26 408.01 26.08 408.06 26.49 408.08 C 26.46 411.90 26.46 415.72 26.60 419.53 C 26.24 419.71 25.51 420.06 25.15 420.23 L 24.94 418.43 C 23.02 420.03 20.71 420.06 18.42 419.36 C 17.50 415.68 17.79 411.88 17.69 408.14 Z" />
<path fill="#000000" d=" M 29.90 417.94 C 29.78 414.50 29.87 411.05 29.96 407.61 C 30.41 407.99 31.30 408.74 31.75 409.12 C 33.65 408.07 36.18 407.37 37.87 409.20 C 39.18 412.51 38.40 416.22 38.78 419.69 C 38.30 419.72 37.33 419.79 36.84 419.82 C 36.84 416.89 37.06 413.94 36.73 411.03 C 36.41 408.57 32.45 408.84 31.99 411.07 C 31.29 413.98 31.62 417.02 31.60 419.99 C 31.22 419.99 30.46 419.98 30.08 419.98 C 30.03 419.47 29.94 418.45 29.90 417.94 Z" />
<path fill="#000000" d=" M 58.53 411.40 C 59.22 408.60 62.90 406.96 65.36 408.62 C 68.10 410.19 68.07 413.69 67.94 416.44 C 66.79 418.14 65.28 420.16 62.97 420.01 C 60.94 420.03 59.63 418.28 58.38 416.95 C 58.35 415.10 58.08 413.21 58.53 411.40 Z" />
<path fill="#000000" d=" M 78.14 410.19 C 79.51 407.95 82.85 407.26 84.88 409.03 C 87.30 410.96 87.01 414.35 86.62 417.09 C 85.04 419.66 82.16 420.52 79.38 419.45 C 77.05 417.02 76.52 413.13 78.14 410.19 Z" />
<path fill="#000000" d=" M 89.92 418.42 C 89.86 414.89 89.68 411.35 90.06 407.83 C 90.51 408.12 91.41 408.70 91.86 408.99 C 93.87 407.81 96.05 408.01 98.09 408.91 C 98.67 412.48 98.67 416.10 98.80 419.71 C 98.31 419.73 97.33 419.77 96.84 419.79 C 96.84 416.86 97.05 413.92 96.74 411.01 C 96.36 408.56 92.44 408.84 91.99 411.09 C 91.30 413.98 91.62 416.99 91.61 419.94 C 91.19 419.95 90.37 419.97 89.96 419.98 C 89.95 419.59 89.93 418.81 89.92 418.42 Z" />
<path fill="#c6c7c6" d=" M 31.99 411.07 C 32.45 408.84 36.41 408.57 36.73 411.03 C 37.06 413.94 36.84 416.89 36.84 419.82 C 35.09 419.92 33.34 419.96 31.60 419.99 C 31.62 417.02 31.29 413.98 31.99 411.07 Z" />
<path fill="#c6c7c6" d=" M 91.99 411.09 C 92.44 408.84 96.36 408.56 96.74 411.01 C 97.05 413.92 96.84 416.86 96.84 419.79 C 95.10 419.86 93.35 419.88 91.61 419.94 C 91.62 416.99 91.30 413.98 91.99 411.09 Z" />
<path fill="#c6c7c6" d=" M 49.24 417.85 C 48.72 415.23 47.43 410.51 50.93 409.57 C 54.83 409.17 54.62 414.36 53.81 416.88 C 53.13 418.94 50.79 418.37 49.24 417.85 Z" />
<path fill="#c6c7c6" d=" M 61.22 410.10 C 62.92 408.77 65.61 409.80 65.93 411.95 C 66.22 414.38 66.42 418.41 62.98 418.51 C 59.24 417.96 59.29 412.46 61.22 410.10 Z" />
<path fill="#c6c7c6" d=" M 80.21 410.10 C 85.67 406.83 87.27 418.28 81.96 418.50 C 78.22 417.93 78.31 412.48 80.21 410.10 Z" />
<path fill="#bdbabd" d=" M 58.38 416.95 C 59.63 418.28 60.94 420.03 62.97 420.01 C 65.28 420.16 66.79 418.14 67.94 416.44 C 68.19 417.54 68.48 418.64 68.76 419.74 C 69.60 419.58 70.44 419.43 71.27 419.28 C 72.74 419.63 74.24 419.92 75.75 419.73 C 76.96 419.61 78.17 419.52 79.38 419.45 C 82.16 420.52 85.04 419.66 86.62 417.09 C 86.77 417.43 87.07 418.10 87.23 418.44 C 87.90 418.44 89.25 418.43 89.92 418.42 C 89.93 418.81 89.95 419.59 89.96 419.98 C 90.37 419.97 91.19 419.95 91.61 419.94 C 93.35 419.88 95.10 419.86 96.84 419.79 C 97.33 419.77 98.31 419.73 98.80 419.71 C 101.80 419.57 104.80 419.59 107.81 419.57 C 108.63 421.34 109.69 422.99 110.94 424.50 C 111.07 428.03 110.93 431.57 111.08 435.11 C 107.42 438.52 102.30 437.36 97.78 437.47 C 68.65 437.48 39.51 437.46 10.39 437.50 C 8.57 437.52 7.33 435.97 5.92 435.07 C 6.06 431.53 5.94 428.00 6.05 424.47 C 7.39 422.99 8.17 420.90 9.88 419.84 C 12.71 419.44 15.58 419.65 18.42 419.36 C 20.71 420.06 23.02 420.03 24.94 418.43 L 25.15 420.23 C 25.51 420.06 26.24 419.71 26.60 419.53 C 27.43 419.14 29.07 418.34 29.90 417.94 C 29.94 418.45 30.03 419.47 30.08 419.98 C 30.46 419.98 31.22 419.99 31.60 419.99 C 33.34 419.96 35.09 419.92 36.84 419.82 C 37.33 419.79 38.30 419.72 38.78 419.69 C 41.49 419.48 44.20 419.70 46.89 420.05 C 47.32 419.62 48.18 418.76 48.61 418.33 C 50.68 420.76 54.11 420.18 55.64 417.53 C 56.05 418.18 56.45 418.84 56.86 419.51 C 57.24 419.57 58.01 419.70 58.39 419.76 C 58.40 418.82 58.39 417.88 58.38 416.95 Z" />
<path fill="#cecfce" d=" M 5.92 435.07 C 7.33 435.97 8.57 437.52 10.39 437.50 C 39.51 437.46 68.65 437.48 97.78 437.47 C 102.30 437.36 107.42 438.52 111.08 435.11 C 111.50 438.25 109.77 442.34 106.04 442.00 C 74.33 442.00 42.62 442.00 10.91 442.00 C 7.19 442.30 5.50 438.20 5.92 435.07 Z" />
<path fill="#bdbebd" d=" M 29.12 458.10 C 32.63 457.95 36.14 457.98 39.66 458.02 L 39.71 459.71 C 38.27 459.71 36.84 459.72 35.40 459.73 C 35.39 464.49 35.40 469.24 35.39 474.00 L 33.53 474.00 C 33.48 469.24 33.60 464.47 33.45 459.71 C 32.04 459.71 30.64 459.72 29.23 459.73 C 29.21 459.33 29.15 458.51 29.12 458.10 Z" />
<path fill="#bdbebd" d=" M 69.00 457.87 C 69.48 457.94 70.44 458.08 70.91 458.16 C 72.50 462.38 73.53 466.79 74.82 471.11 C 76.65 466.93 77.27 462.34 79.00 458.13 C 79.48 458.08 80.44 457.97 80.92 457.92 C 79.17 463.25 77.69 468.67 75.80 473.95 C 75.37 473.96 74.53 473.98 74.11 473.99 C 72.24 468.67 70.70 463.24 69.00 457.87 Z" />
<path fill="#bdbebd" d=" M 82.63 460.31 C 81.40 458.94 83.51 456.66 84.86 458.16 C 86.35 459.51 83.88 461.73 82.63 460.31 Z" />
<path fill="#bdbebd" d=" M 62.24 463.15 C 63.45 461.88 64.53 460.52 65.53 459.09 C 65.60 459.81 65.75 461.25 65.83 461.98 C 66.53 461.99 67.94 462.02 68.64 462.04 L 68.63 463.37 C 67.90 463.42 66.43 463.53 65.70 463.58 C 65.71 466.46 65.73 469.34 65.94 472.22 C 66.75 472.30 68.37 472.46 69.17 472.54 C 68.32 474.77 64.65 474.36 64.15 472.08 C 63.74 469.31 64.10 466.51 63.91 463.74 C 63.49 463.59 62.66 463.30 62.24 463.15 Z" />
<path fill="#bdbebd" d=" M 1.88 471.17 C 1.73 468.17 1.24 464.83 2.03 462.00 C 2.40 462.03 3.14 462.10 3.51 462.13 C 3.61 465.48 3.31 468.85 3.89 472.17 C 5.38 472.18 7.41 472.82 8.25 471.10 C 9.15 468.08 8.60 464.86 8.76 461.77 C 9.20 461.90 10.07 462.15 10.51 462.28 C 10.57 466.07 10.60 469.88 10.49 473.68 C 10.18 473.82 9.55 474.12 9.23 474.26 L 8.84 472.36 C 6.99 474.64 2.26 474.62 1.88 471.17 Z" />
<path fill="#bdbebd" d=" M 13.87 473.88 C 13.83 469.87 13.44 465.78 14.06 461.81 C 14.54 462.08 15.49 462.61 15.97 462.87 C 17.95 461.87 21.13 461.40 22.23 463.87 C 23.08 467.11 22.50 470.56 22.70 473.90 C 22.23 473.94 21.30 474.02 20.83 474.06 C 20.79 471.02 20.99 467.97 20.68 464.94 C 20.26 462.70 16.62 462.90 16.06 464.95 C 15.26 467.90 15.76 471.02 15.68 474.05 C 15.23 474.01 14.33 473.92 13.87 473.88 Z" />
<path fill="#bdbebd" d=" M 42.15 471.80 C 40.05 468.50 41.19 461.95 45.96 462.04 C 49.17 461.90 50.30 465.35 50.31 467.98 C 47.82 467.99 45.32 468.00 42.83 468.07 C 43.34 469.50 43.37 471.44 44.99 472.18 C 46.64 472.64 48.27 471.97 49.87 471.61 C 49.76 472.09 49.55 473.05 49.44 473.53 C 46.94 474.05 43.61 474.44 42.15 471.80 Z" />
<path fill="#bdbebd" d=" M 51.58 461.84 C 54.45 461.49 54.69 464.83 56.57 466.20 C 57.61 464.39 58.22 461.44 60.94 461.86 C 59.75 463.88 58.50 465.87 57.26 467.87 C 58.57 469.93 59.87 472.00 61.08 474.12 C 58.14 474.59 57.68 471.05 56.37 469.25 C 54.85 471.08 54.36 474.38 51.38 474.18 C 52.59 472.03 53.90 469.95 55.21 467.87 C 53.99 465.86 52.75 463.88 51.58 461.84 Z" />
<path fill="#bdbebd" d=" M 82.84 473.66 C 82.82 469.82 82.51 465.92 82.98 462.11 C 83.41 462.07 84.25 461.99 84.68 461.94 C 84.63 466.00 84.64 470.06 84.66 474.12 C 84.21 474.00 83.29 473.77 82.84 473.66 Z" />
<path fill="#bdbebd" d=" M 88.19 471.85 C 86.02 468.54 87.19 461.87 92.03 462.04 C 95.22 461.95 96.28 465.38 96.32 467.98 C 93.82 467.99 91.33 468.00 88.83 468.07 C 89.35 469.50 89.36 471.47 91.01 472.17 C 92.64 472.66 94.26 471.96 95.84 471.60 C 95.75 472.08 95.58 473.02 95.49 473.49 C 93.01 474.06 89.68 474.46 88.19 471.85 Z" />
<path fill="#b5b6b5" d=" M 97.18 461.96 C 97.64 462.00 98.58 462.06 99.05 462.10 C 100.07 465.38 100.43 468.83 101.34 472.15 C 102.07 468.78 102.70 465.36 103.92 462.13 C 104.39 462.07 105.33 461.94 105.80 461.87 C 106.55 464.55 107.88 467.52 106.17 470.14 C 105.87 468.19 105.41 466.29 104.78 464.43 C 103.80 467.54 103.31 470.81 102.17 473.87 C 101.66 473.93 100.65 474.07 100.14 474.13 C 99.15 470.07 98.16 466.02 97.18 461.96 Z" />
<path fill="#bdbebd" d=" M 110.48 462.11 C 110.98 462.10 111.96 462.10 112.46 462.09 C 111.41 466.06 110.45 470.05 109.55 474.06 C 106.37 474.81 106.13 470.80 107.90 469.08 C 108.09 469.86 108.47 471.42 108.66 472.20 C 109.07 468.80 109.75 465.44 110.48 462.11 Z" />
<path fill="#000000" d=" M 43.03 466.43 C 43.06 463.60 46.93 462.42 48.21 465.13 C 48.06 467.66 44.67 465.98 43.03 466.43 Z" />
<path fill="#000000" d=" M 88.99 466.42 C 89.60 465.47 89.50 463.55 91.09 463.71 C 92.56 463.01 95.09 464.83 93.84 466.40 C 92.22 466.50 90.60 466.44 88.99 466.42 Z" />
</svg>
