<?xml version="1.0" encoding="UTF-8" ?>
<!DOCTYPE svg PUBLIC "-//W3C//DTD SVG 1.1//EN" "http://www.w3.org/Graphics/SVG/1.1/DTD/svg11.dtd">
<svg width="413pt" height="690pt" viewBox="0 0 413 690" version="1.1" xmlns="http://www.w3.org/2000/svg">
<path fill="#010101" d=" M 0.00 0.00 L 413.00 0.00 L 413.00 690.00 L 0.00 690.00 L 0.00 0.00 Z" />
<path fill="#e1e1e1" d=" M 1.00 4.00 C 137.63 4.00 274.25 3.99 410.88 4.01 C 410.87 14.91 410.69 25.81 410.87 36.71 C 274.25 36.67 137.62 36.81 1.00 36.64 C 1.13 25.76 0.96 14.88 1.00 4.00 Z" />
<path fill="#838482" d=" M 229.41 6.55 C 233.59 6.09 237.81 6.47 242.01 6.33 C 244.29 6.44 246.79 5.99 248.88 7.15 C 250.13 10.00 249.54 13.23 249.46 16.23 C 249.11 15.77 248.40 14.84 248.05 14.38 C 247.90 13.96 247.62 13.14 247.48 12.73 C 246.15 12.74 244.84 12.75 243.52 12.76 C 243.54 13.09 243.58 13.75 243.59 14.08 C 244.24 15.05 244.89 16.02 245.53 17.00 C 244.62 17.00 242.80 17.00 241.89 17.00 C 241.89 15.00 241.89 13.00 241.89 11.01 C 244.00 11.00 246.11 10.97 248.23 10.91 C 247.71 6.86 242.89 8.26 240.05 8.46 C 238.40 10.61 238.92 13.65 238.75 16.21 C 238.50 13.65 238.31 11.08 237.82 8.56 C 235.06 8.29 232.24 7.93 229.49 8.48 C 229.26 9.09 228.79 10.30 228.56 10.91 C 230.90 10.98 233.23 11.00 235.58 11.03 C 234.05 12.28 232.51 13.51 231.01 14.79 C 232.01 14.86 234.00 14.99 235.00 15.06 C 235.00 15.55 235.00 16.52 235.00 17.00 C 232.86 16.99 230.72 17.03 228.58 16.96 C 228.41 16.70 228.08 16.17 227.92 15.91 C 227.81 17.30 227.72 18.70 227.62 20.10 C 227.94 20.66 228.56 21.77 228.87 22.33 C 230.20 22.46 231.53 22.59 232.87 22.72 C 232.68 25.85 232.52 28.99 232.39 32.13 C 232.26 29.40 232.14 26.67 232.05 23.95 C 230.43 23.36 227.85 23.97 227.12 21.98 C 226.85 17.97 226.99 13.94 227.06 9.92 C 227.02 8.47 227.70 6.59 229.41 6.55 Z" />
<path fill="#838482" d=" M 260.19 7.12 C 260.39 7.12 260.79 7.12 260.98 7.12 C 269.13 8.01 277.33 6.95 285.48 7.74 C 286.14 14.81 285.46 21.94 285.21 29.02 C 285.41 31.53 282.36 33.96 281.12 30.79 C 280.24 25.76 281.01 20.46 278.94 15.64 C 278.43 21.30 279.50 27.19 277.48 32.63 C 276.77 32.29 275.36 31.62 274.65 31.28 C 274.27 26.32 273.61 21.39 273.48 16.41 C 269.07 16.53 264.57 16.96 260.26 15.76 L 259.42 15.57 C 259.58 12.75 259.57 9.89 260.19 7.12 Z" />
<path fill="#010101" d=" M 260.98 7.12 C 265.30 6.40 269.69 6.84 274.04 6.74 C 278.20 6.84 282.48 6.25 286.53 7.52 C 286.68 15.04 286.86 22.56 286.96 30.08 C 287.10 31.41 286.74 33.56 284.97 33.36 C 276.91 33.54 268.84 33.48 260.79 33.35 C 260.51 32.83 259.96 31.80 259.68 31.28 C 259.52 26.09 259.97 20.93 260.26 15.76 C 264.57 16.96 269.07 16.53 273.48 16.41 C 273.61 21.39 274.27 26.32 274.65 31.28 C 275.36 31.62 276.77 32.29 277.48 32.63 C 279.50 27.19 278.43 21.30 278.94 15.64 C 281.01 20.46 280.24 25.76 281.12 30.79 C 282.36 33.96 285.41 31.53 285.21 29.02 C 285.46 21.94 286.14 14.81 285.48 7.74 C 277.33 6.95 269.13 8.01 260.98 7.12 Z" />
<path fill="#838482" d=" M 205.18 8.29 C 209.31 10.13 213.74 11.22 217.77 13.27 C 216.92 18.21 215.48 23.38 212.57 27.53 C 212.66 26.95 212.83 25.78 212.91 25.19 C 211.05 25.33 209.19 25.41 207.33 25.46 C 207.04 26.81 206.74 28.16 206.44 29.51 C 208.25 30.07 210.12 30.47 212.02 30.53 C 211.75 30.91 211.19 31.67 210.91 32.05 C 206.62 30.98 202.35 29.64 198.31 27.84 C 198.20 27.18 197.97 25.84 197.86 25.17 L 199.14 25.55 C 199.07 27.88 201.34 27.63 203.01 27.78 C 203.21 27.35 203.62 26.51 203.82 26.08 C 204.23 26.67 205.05 27.86 205.46 28.45 C 206.08 27.48 206.27 26.42 206.03 25.27 L 205.26 24.78 C 203.54 23.62 202.10 22.10 200.75 20.53 L 200.33 20.05 C 201.94 16.12 203.36 12.12 205.18 8.29 Z" />
<path fill="#838482" d=" M 195.75 15.99 C 195.65 13.24 196.83 10.78 198.67 8.82 C 198.54 11.47 198.12 14.35 195.75 15.99 Z" />
<path fill="#e1e1e1" d=" M 229.49 8.48 C 232.24 7.93 235.06 8.29 237.82 8.56 C 237.74 12.22 237.73 15.88 237.61 19.53 C 234.69 19.58 231.78 19.60 228.87 19.61 C 228.79 18.95 228.65 17.63 228.58 16.96 C 230.72 17.03 232.86 16.99 235.00 17.00 C 235.00 16.52 235.00 15.55 235.00 15.06 C 234.00 14.99 232.01 14.86 231.01 14.79 C 232.51 13.51 234.05 12.28 235.58 11.03 C 233.23 11.00 230.90 10.98 228.56 10.91 C 228.79 10.30 229.26 9.09 229.49 8.48 Z" />
<path fill="#010101" d=" M 237.82 8.56 C 238.31 11.08 238.50 13.65 238.75 16.21 C 238.87 17.33 239.01 18.45 239.19 19.57 C 242.27 19.61 245.36 19.59 248.45 19.53 C 248.33 17.81 248.20 16.09 248.05 14.38 C 248.40 14.84 249.11 15.77 249.46 16.23 C 251.18 16.16 254.12 15.69 254.36 18.12 C 254.33 23.09 255.12 28.22 254.06 33.10 C 247.44 33.89 240.72 33.27 234.07 33.41 C 233.51 32.98 232.95 32.55 232.39 32.13 C 232.52 28.99 232.68 25.85 232.87 22.72 C 231.53 22.59 230.20 22.46 228.87 22.33 C 228.56 21.77 227.94 20.66 227.62 20.10 C 227.72 18.70 227.81 17.30 227.92 15.91 C 228.08 16.17 228.41 16.70 228.58 16.96 C 228.65 17.63 228.79 18.95 228.87 19.61 C 231.78 19.60 234.69 19.58 237.61 19.53 C 237.73 15.88 237.74 12.22 237.82 8.56 Z" />
<path fill="#e1e1e1" d=" M 238.75 16.21 C 238.92 13.65 238.40 10.61 240.05 8.46 C 242.89 8.26 247.71 6.86 248.23 10.91 C 246.11 10.97 244.00 11.00 241.89 11.01 C 241.89 13.00 241.89 15.00 241.89 17.00 C 242.80 17.00 244.62 17.00 245.53 17.00 C 244.89 16.02 244.24 15.05 243.59 14.08 C 243.58 13.75 243.54 13.09 243.52 12.76 C 244.84 12.75 246.15 12.74 247.48 12.73 C 247.62 13.14 247.90 13.96 248.05 14.38 C 248.20 16.09 248.33 17.81 248.45 19.53 C 245.36 19.59 242.27 19.61 239.19 19.57 C 239.01 18.45 238.87 17.33 238.75 16.21 Z" />
<path fill="#838482" d=" M 196.89 20.24 C 198.00 16.35 199.33 12.28 202.32 9.40 C 200.97 13.06 201.17 18.70 196.89 20.24 Z" />
<path fill="#838482" d=" M 294.52 16.37 C 294.94 13.96 295.69 11.56 297.78 10.08 C 303.91 11.44 310.24 10.96 316.45 10.46 C 318.23 10.40 319.41 12.43 319.52 14.03 C 319.85 18.30 320.16 22.62 319.81 26.90 C 319.52 27.22 318.92 27.87 318.62 28.19 C 318.87 24.98 318.71 21.76 318.62 18.54 C 317.92 19.11 316.54 20.25 315.84 20.82 C 314.24 20.56 312.63 20.30 311.04 20.04 C 312.30 18.74 313.56 17.45 314.81 16.14 C 310.89 15.85 308.30 18.64 306.13 21.48 C 305.34 21.42 303.77 21.29 302.98 21.23 C 303.45 22.72 303.59 24.38 304.59 25.65 C 306.23 25.61 307.84 25.34 309.41 24.82 C 309.64 24.86 310.11 24.92 310.34 24.95 C 312.70 25.28 315.09 25.48 317.47 25.62 C 317.56 26.97 317.66 28.33 317.79 29.69 L 317.80 29.83 L 316.92 28.74 C 311.44 28.11 305.91 28.50 300.41 28.51 C 299.87 24.56 299.48 20.59 299.34 16.61 C 297.73 16.52 296.12 16.43 294.52 16.37 Z" />
<path fill="#010101" d=" M 297.78 10.08 C 303.99 10.31 310.28 9.71 316.45 10.46 C 310.24 10.96 303.91 11.44 297.78 10.08 Z" />
<path fill="#e1e1e1" d=" M 203.13 22.36 C 204.18 18.57 205.40 14.83 206.72 11.13 C 209.48 12.18 212.20 13.31 214.87 14.58 C 213.37 18.04 211.94 21.54 210.43 24.99 C 208.00 24.09 205.57 23.21 203.13 22.36 Z" />
<path fill="#010101" d=" M 339.08 17.44 C 341.23 15.67 343.27 13.32 346.29 13.25 C 346.39 18.13 346.33 23.01 346.41 27.88 C 345.37 27.91 344.34 27.93 343.31 27.95 C 343.34 24.33 343.33 20.70 343.38 17.08 C 341.95 18.20 340.48 18.97 339.08 17.44 Z" />
<path fill="#010101" d=" M 357.10 13.42 C 359.60 13.46 362.11 13.46 364.62 13.46 C 364.66 14.08 364.74 15.31 364.79 15.93 C 363.07 15.96 361.35 15.98 359.65 16.00 C 359.58 16.91 359.51 17.83 359.46 18.74 C 360.17 18.69 361.60 18.60 362.32 18.55 C 364.93 19.67 366.36 22.27 365.45 25.08 C 363.65 28.49 359.29 28.18 356.11 27.30 C 356.17 26.57 356.29 25.09 356.35 24.36 C 356.69 24.63 357.36 25.19 357.70 25.47 C 359.27 25.42 360.84 25.37 362.41 25.31 C 362.41 24.48 362.41 22.82 362.42 21.99 C 360.89 20.56 358.47 21.43 356.59 21.13 C 356.73 18.56 356.91 15.99 357.10 13.42 Z" />
<path fill="#010101" d=" M 369.97 13.90 C 372.31 12.62 374.90 14.03 376.33 15.99 C 376.59 19.06 376.63 22.15 376.51 25.23 C 375.40 27.04 373.31 28.39 371.13 27.85 C 368.43 27.47 367.14 24.53 367.20 22.08 C 367.05 19.19 367.01 15.48 369.97 13.90 Z" />
<path fill="#010101" d=" M 328.14 17.21 C 330.32 15.58 332.30 13.27 335.24 13.26 C 335.33 18.13 335.31 23.00 335.36 27.86 C 334.58 27.89 333.01 27.95 332.23 27.98 C 332.24 24.26 332.27 20.55 332.20 16.84 C 331.61 17.33 330.41 18.32 329.81 18.82 C 329.25 18.28 328.70 17.75 328.14 17.21 Z" />
<path fill="#010101" d=" M 292.47 18.04 C 292.47 16.95 293.49 16.26 294.52 16.37 C 296.12 16.43 297.73 16.52 299.34 16.61 C 299.48 20.59 299.87 24.56 300.41 28.51 C 305.91 28.50 311.44 28.11 316.92 28.74 L 316.10 30.04 C 310.69 30.49 305.24 30.02 299.82 30.28 C 298.37 29.63 296.94 28.94 295.53 28.24 C 295.50 26.98 295.48 25.72 295.48 24.47 L 294.48 24.54 L 294.50 23.79 C 291.55 23.58 292.25 20.07 292.47 18.04 Z" />
<path fill="#e1e1e1" d=" M 306.13 21.48 C 308.30 18.64 310.89 15.85 314.81 16.14 C 313.56 17.45 312.30 18.74 311.04 20.04 C 312.63 20.30 314.24 20.56 315.84 20.82 C 314.03 22.23 312.18 23.59 310.34 24.95 C 310.11 24.92 309.64 24.86 309.41 24.82 C 309.55 23.82 309.70 22.81 309.87 21.80 C 308.62 21.70 307.37 21.59 306.13 21.48 Z" />
<path fill="#e1e1e1" d=" M 370.69 16.56 C 371.30 16.41 372.51 16.10 373.12 15.94 C 374.48 18.91 374.31 22.39 373.16 25.40 C 370.04 26.47 370.28 23.06 370.14 21.01 C 370.12 19.52 370.13 17.97 370.69 16.56 Z" />
<path fill="#838482" d=" M 376.33 15.99 C 377.62 18.94 377.64 22.23 376.51 25.23 C 376.63 22.15 376.59 19.06 376.33 15.99 Z" />
<path fill="#010101" d=" M 353.73 20.13 C 351.40 21.09 349.19 17.90 351.91 16.69 C 353.95 16.82 353.66 18.66 353.73 20.13 Z" />
<path fill="#010101" d=" M 384.47 17.70 C 385.02 17.68 386.10 17.65 386.65 17.64 C 387.86 20.57 388.93 23.57 389.55 26.69 C 390.08 26.95 391.15 27.46 391.68 27.72 C 391.68 24.40 391.68 21.08 391.71 17.77 C 392.60 17.74 393.49 17.71 394.39 17.69 C 395.19 20.29 395.95 22.90 396.77 25.50 C 397.49 23.37 398.10 21.20 398.84 19.07 C 398.72 17.32 401.93 16.90 402.08 18.78 C 402.34 21.78 402.18 24.80 402.23 27.81 C 401.74 27.83 400.77 27.88 400.28 27.91 C 400.31 25.48 400.30 23.06 400.21 20.63 C 399.17 23.15 398.30 25.72 397.50 28.32 C 395.54 27.82 394.95 25.76 393.84 24.34 C 393.73 25.22 393.50 26.97 393.39 27.85 C 391.53 27.91 389.67 27.80 387.82 27.79 C 387.74 27.19 387.58 25.99 387.51 25.39 C 386.60 25.41 384.79 25.45 383.89 25.46 C 383.76 27.19 382.60 28.03 381.02 28.35 C 381.97 24.74 383.12 21.18 384.47 17.70 Z" />
<path fill="#838482" d=" M 266.59 22.70 C 267.26 21.58 267.91 20.44 268.68 19.38 C 269.39 19.62 270.82 20.10 271.53 20.33 C 270.71 20.71 269.06 21.46 268.24 21.84 C 267.80 25.09 268.01 28.39 268.10 31.66 C 267.34 28.72 267.15 25.68 266.59 22.70 Z" />
<path fill="#010101" d=" M 315.84 20.82 C 316.54 20.25 317.92 19.11 318.62 18.54 C 318.71 21.76 318.87 24.98 318.62 28.19 C 318.41 28.56 318.00 29.32 317.79 29.69 C 317.66 28.33 317.56 26.97 317.47 25.62 C 315.09 25.48 312.70 25.28 310.34 24.95 C 312.18 23.59 314.03 22.23 315.84 20.82 Z" />
<path fill="#e1e1e1" d=" M 385.35 19.57 C 385.91 20.93 386.47 22.29 387.01 23.65 C 386.31 23.64 384.92 23.62 384.22 23.61 C 384.59 22.27 384.95 20.92 385.35 19.57 Z" />
<path fill="#010101" d=" M 200.75 20.53 C 202.10 22.10 203.54 23.62 205.26 24.78 C 204.90 25.11 204.18 25.76 203.82 26.08 C 203.62 26.51 203.21 27.35 203.01 27.78 C 201.34 27.63 199.07 27.88 199.14 25.55 C 199.56 23.84 200.20 22.20 200.75 20.53 Z" />
<path fill="#838482" d=" M 213.43 32.16 C 213.83 27.71 215.84 23.63 218.35 20.00 C 218.21 24.31 217.28 29.68 213.43 32.16 Z" />
<path fill="#e1e1e1" d=" M 268.24 21.84 C 269.06 21.46 270.71 20.71 271.53 20.33 L 272.27 20.13 C 271.98 23.97 273.19 28.25 271.24 31.76 C 270.46 31.73 268.88 31.69 268.10 31.66 C 268.01 28.39 267.80 25.09 268.24 21.84 Z" />
<path fill="#010101" d=" M 302.98 21.23 C 303.77 21.29 305.34 21.42 306.13 21.48 C 307.37 21.59 308.62 21.70 309.87 21.80 C 309.70 22.81 309.55 23.82 309.41 24.82 C 307.84 25.34 306.23 25.61 304.59 25.65 C 303.59 24.38 303.45 22.72 302.98 21.23 Z" />
<path fill="#838482" d=" M 237.43 27.19 C 234.63 25.11 237.82 22.70 238.93 20.66 C 240.88 21.94 242.54 23.60 243.82 25.57 C 241.08 26.41 241.61 29.23 241.39 31.45 C 240.18 31.41 238.98 31.37 237.78 31.33 C 237.67 29.95 237.56 28.57 237.43 27.19 Z" />
<path fill="#838482" d=" M 244.14 29.08 C 244.53 26.56 244.91 24.02 245.35 21.50 C 246.42 21.53 248.56 21.60 249.63 21.63 C 249.54 23.29 249.46 24.96 249.37 26.62 C 249.86 26.96 250.85 27.63 251.35 27.97 C 250.02 29.29 249.08 31.38 247.20 31.92 C 246.11 31.04 245.14 30.05 244.14 29.08 Z" />
<path fill="#e1e1e1" d=" M 261.48 23.63 C 262.17 23.36 263.54 22.84 264.23 22.57 C 267.11 24.53 265.36 28.72 265.54 31.66 C 264.23 31.64 262.93 31.60 261.63 31.53 C 261.50 28.90 261.48 26.26 261.48 23.63 Z" />
<path fill="#838482" d=" M 218.87 24.84 C 219.31 24.71 220.18 24.46 220.62 24.33 C 219.94 27.23 219.89 30.85 216.97 32.51 C 216.94 29.82 217.82 27.28 218.87 24.84 Z" />
<path fill="#010101" d=" M 350.59 26.49 C 350.31 24.71 352.14 24.64 353.40 24.33 C 353.52 25.51 353.64 26.69 353.74 27.88 C 352.58 27.65 350.58 28.28 350.59 26.49 Z" />
<path fill="#e1e1e1" d=" M 203.82 26.08 C 204.18 25.76 204.90 25.11 205.26 24.78 L 206.03 25.27 C 206.27 26.42 206.08 27.48 205.46 28.45 C 205.05 27.86 204.23 26.67 203.82 26.08 Z" />
<path fill="#010101" d=" M 207.33 25.46 C 209.19 25.41 211.05 25.33 212.91 25.19 C 212.83 25.78 212.66 26.95 212.57 27.53 C 212.44 28.28 212.16 29.78 212.02 30.53 C 210.12 30.47 208.25 30.07 206.44 29.51 C 206.74 28.16 207.04 26.81 207.33 25.46 Z" />
<path fill="#838482" d=" M 1.00 36.64 C 137.62 36.81 274.25 36.67 410.87 36.71 C 410.95 47.43 410.74 58.15 410.78 68.88 C 274.22 68.91 137.65 68.86 1.08 68.90 C 1.03 58.15 0.98 47.39 1.00 36.64 Z" />
<path fill="#e1e1e1" d=" M 35.35 45.40 C 36.98 44.86 37.55 45.41 37.07 47.04 C 35.44 47.58 34.87 47.04 35.35 45.40 Z" />
<path fill="#e1e1e1" d=" M 16.26 48.58 C 17.91 48.83 20.35 47.79 21.29 49.77 C 22.04 52.67 21.64 55.72 21.68 58.68 C 21.02 58.73 19.71 58.83 19.06 58.88 C 18.99 56.34 19.00 53.79 19.00 51.25 C 18.06 50.38 17.13 49.51 16.26 48.58 Z" />
<path fill="#e1e1e1" d=" M 40.14 48.41 C 42.61 48.83 45.51 47.98 47.67 49.31 C 49.17 52.17 48.39 55.62 48.62 58.73 C 47.66 58.69 46.70 58.66 45.75 58.63 C 45.84 56.05 46.00 53.45 45.66 50.89 C 45.01 50.90 43.71 50.94 43.07 50.96 C 42.69 53.53 42.72 56.14 42.65 58.74 C 42.02 58.75 40.76 58.77 40.13 58.79 C 39.99 55.33 39.99 51.87 40.14 48.41 Z" />
<path fill="#e1e1e1" d=" M 7.53 48.56 C 9.72 48.64 11.91 48.64 14.10 48.55 C 14.89 49.44 15.69 50.32 16.43 51.25 C 16.06 53.75 15.89 56.28 15.74 58.80 C 15.12 58.78 13.87 58.75 13.24 58.74 C 13.18 56.18 13.31 53.60 12.90 51.07 C 12.63 49.71 11.04 50.88 10.45 51.32 C 10.02 53.69 10.24 56.11 10.06 58.50 C 9.46 58.53 8.27 58.58 7.67 58.60 C 7.41 55.26 7.54 51.91 7.53 48.56 Z" />
<path fill="#e1e1e1" d=" M 24.55 48.90 C 26.89 48.84 30.49 47.36 31.85 50.11 C 32.36 52.89 32.19 55.73 32.27 58.54 C 29.57 57.70 24.72 60.14 24.00 56.15 C 23.03 52.32 27.52 51.93 30.08 51.49 C 28.18 50.75 25.45 51.19 24.55 48.90 Z" />
<path fill="#e1e1e1" d=" M 35.01 48.58 C 35.62 48.57 36.84 48.54 37.44 48.53 C 37.74 51.99 37.59 55.47 37.55 58.94 C 36.92 58.80 35.66 58.52 35.03 58.38 C 34.78 55.12 34.78 51.84 35.01 48.58 Z" />
<path fill="#838482" d=" M 27.43 56.78 C 25.40 54.73 27.94 53.39 29.84 53.21 C 29.42 54.66 29.26 56.52 27.43 56.78 Z" />
<path fill="#e1e1e1" d=" M 46.57 99.81 C 47.61 99.74 48.65 99.67 49.68 99.61 C 49.46 100.88 50.23 103.18 48.14 102.84 C 46.47 102.80 46.81 100.92 46.57 99.81 Z" />
<path fill="#e1e1e1" d=" M 11.23 100.46 C 11.90 100.46 13.22 100.46 13.89 100.46 C 14.18 105.62 13.41 110.87 14.38 115.97 C 15.52 119.45 20.02 119.00 22.46 117.24 C 23.80 111.83 22.92 106.23 23.26 100.73 C 23.91 100.61 25.19 100.37 25.84 100.25 C 25.86 105.46 26.20 110.70 25.68 115.90 C 24.48 122.82 12.67 122.88 11.42 115.95 C 10.91 110.81 11.30 105.62 11.23 100.46 Z" />
<path fill="#e1e1e1" d=" M 88.51 99.61 C 89.23 99.63 90.65 99.67 91.36 99.69 C 91.35 106.88 91.39 114.07 91.34 121.26 C 88.45 121.68 88.63 118.63 87.96 116.69 C 88.64 114.09 88.98 110.97 87.28 108.66 C 85.61 107.15 82.73 107.64 81.82 109.74 C 81.04 111.89 81.01 114.38 81.69 116.56 C 82.68 119.31 86.19 118.32 88.17 119.91 C 85.41 121.65 81.05 121.51 79.51 118.25 C 78.04 114.65 77.83 109.71 80.82 106.81 C 82.98 104.71 86.20 105.63 88.60 106.77 C 88.52 104.38 88.51 102.00 88.51 99.61 Z" />
<path fill="#e1e1e1" d=" M 102.45 103.67 C 104.81 99.91 109.48 100.05 113.34 100.90 C 113.42 101.56 113.58 102.86 113.66 103.51 C 110.95 103.55 106.34 101.43 105.17 105.11 C 104.72 108.77 109.15 109.12 111.43 110.67 C 114.62 112.03 115.53 116.59 113.04 119.04 C 110.29 121.98 105.86 120.99 102.35 120.47 C 102.37 119.49 102.39 118.51 102.42 117.53 C 105.48 118.79 111.89 119.97 111.62 114.92 C 110.29 111.89 106.33 111.92 104.15 109.73 C 102.29 108.27 102.70 105.74 102.45 103.67 Z" />
<path fill="#e1e1e1" d=" M 115.16 107.34 C 117.39 105.87 118.37 103.29 120.41 101.66 C 120.47 102.64 120.60 104.58 120.67 105.55 C 122.04 105.59 123.42 105.63 124.80 105.69 C 125.01 108.37 122.09 107.24 120.63 107.76 C 120.63 111.20 120.40 114.66 120.81 118.09 C 122.09 118.59 123.44 118.85 124.85 118.88 C 124.73 122.55 118.35 121.50 118.12 118.18 C 117.81 114.67 118.07 111.15 117.98 107.63 C 117.27 107.56 115.87 107.41 115.16 107.34 Z" />
<path fill="#e1e1e1" d=" M 54.49 105.13 C 55.14 103.76 56.05 102.60 57.21 101.64 C 57.27 102.62 57.41 104.59 57.47 105.57 C 58.75 105.59 60.03 105.61 61.31 105.64 C 61.34 106.10 61.42 107.01 61.46 107.47 C 60.12 107.53 58.79 107.58 57.45 107.64 C 57.39 111.25 57.34 114.87 57.63 118.48 C 58.89 118.55 60.15 118.62 61.41 118.69 C 61.42 119.22 61.45 120.30 61.46 120.84 C 59.26 121.03 56.04 121.60 55.19 118.87 C 54.36 115.22 55.03 111.39 54.79 107.67 C 54.10 107.57 52.73 107.36 52.04 107.26 C 52.85 106.55 53.67 105.85 54.49 105.13 Z" />
<path fill="#e1e1e1" d=" M 140.19 107.40 C 141.93 105.54 143.47 103.51 145.08 101.55 C 145.17 102.55 145.34 104.57 145.43 105.58 C 146.73 105.60 148.04 105.63 149.35 105.66 L 149.32 107.49 C 148.00 107.54 146.68 107.58 145.37 107.62 C 145.31 111.26 145.21 114.91 145.62 118.54 C 146.86 118.59 148.10 118.63 149.35 118.67 C 149.37 119.20 149.42 120.26 149.45 120.79 C 147.31 120.98 144.14 121.65 143.19 119.05 C 142.22 115.37 142.96 111.43 142.71 107.64 C 142.08 107.58 140.82 107.46 140.19 107.40 Z" />
<path fill="#e1e1e1" d=" M 46.77 105.67 C 47.71 105.64 48.66 105.61 49.60 105.59 C 49.64 110.69 49.57 115.80 49.66 120.91 C 48.94 120.96 47.51 121.04 46.79 121.09 C 46.76 115.95 46.78 110.81 46.77 105.67 Z" />
<path fill="#e1e1e1" d=" M 30.68 105.44 C 32.45 106.19 34.36 107.21 36.04 105.65 C 38.44 105.43 41.59 105.60 42.37 108.38 C 43.28 112.51 42.65 116.81 42.82 121.00 C 42.15 121.00 40.81 121.00 40.15 121.00 C 40.20 116.75 40.33 112.46 39.51 108.27 C 37.44 108.25 34.61 107.43 33.73 110.01 C 33.08 113.58 33.69 117.24 33.28 120.84 C 32.63 120.93 31.32 121.11 30.66 121.20 C 30.64 115.95 30.63 110.69 30.68 105.44 Z" />
<path fill="#e1e1e1" d=" M 65.69 106.78 C 67.23 105.41 69.41 105.68 71.31 105.43 C 74.28 107.13 75.90 110.24 75.47 113.69 C 72.27 113.73 69.07 113.71 65.87 113.71 C 66.24 115.37 66.41 117.29 67.95 118.35 C 69.67 118.64 71.42 118.51 73.15 118.49 C 73.52 118.19 74.24 117.60 74.61 117.31 C 74.59 118.31 74.53 119.32 74.44 120.32 C 70.73 121.79 65.46 121.37 63.73 117.20 C 62.79 113.75 62.68 109.30 65.69 106.78 Z" />
<path fill="#e1e1e1" d=" M 127.10 108.59 C 128.03 103.70 137.81 104.58 137.57 109.90 C 137.74 113.70 137.62 117.51 137.60 121.31 C 136.38 121.10 135.48 120.46 134.90 119.39 C 133.15 120.73 131.00 121.55 128.80 120.83 C 125.71 120.07 125.71 116.01 126.72 113.63 C 128.79 111.11 132.26 111.61 135.16 111.55 C 134.72 110.29 134.95 108.32 133.29 107.98 C 131.24 107.52 129.15 108.46 127.10 108.59 Z" />
<path fill="#e1e1e1" d=" M 152.29 108.34 C 153.61 105.66 156.75 105.51 159.36 105.44 C 162.20 107.24 163.80 110.29 163.39 113.70 C 160.23 113.73 157.08 113.71 153.93 113.69 C 154.32 115.23 154.12 117.25 155.72 118.15 C 158.00 119.15 160.59 117.87 162.92 118.59 C 162.59 121.76 158.30 120.99 156.04 120.88 C 150.65 119.64 149.94 112.44 152.29 108.34 Z" />
<path fill="#e1e1e1" d=" M 168.14 112.76 C 165.32 111.46 165.88 106.62 168.93 105.95 C 171.64 105.40 175.89 104.68 176.47 108.43 C 174.09 108.37 171.66 107.38 169.32 108.18 C 168.06 111.35 171.93 111.73 173.85 112.97 C 176.50 113.87 177.33 117.50 175.45 119.53 C 173.44 121.46 170.32 121.15 167.78 120.80 C 166.31 120.86 166.23 119.25 165.70 118.28 C 168.30 118.48 170.91 118.67 173.52 118.58 C 174.78 114.79 170.43 114.36 168.14 112.76 Z" />
<path fill="#010101" d=" M 65.71 111.54 C 66.36 109.75 67.49 107.30 69.83 107.79 C 71.78 107.96 72.21 109.99 72.86 111.47 C 70.47 111.56 68.09 111.58 65.71 111.54 Z" />
<path fill="#010101" d=" M 153.74 111.57 C 154.27 109.87 155.05 107.86 157.13 107.76 C 159.33 107.51 160.14 109.81 160.83 111.44 C 158.46 111.55 156.10 111.58 153.74 111.57 Z" />
<path fill="#010101" d=" M 130.05 113.98 C 131.63 113.29 133.42 113.41 135.11 113.18 C 134.73 114.90 134.96 117.07 133.41 118.27 C 132.10 118.80 130.62 118.55 129.25 118.67 C 129.05 117.10 128.31 114.99 130.05 113.98 Z" />
<path fill="#e1e1e1" d=" M 68.72 182.49 C 69.27 182.47 70.37 182.45 70.92 182.43 C 71.20 184.07 70.91 185.50 69.16 186.04 C 68.66 185.38 68.16 184.73 67.66 184.08 C 67.93 183.68 68.46 182.88 68.72 182.49 Z" />
<path fill="#e1e1e1" d=" M 75.75 182.58 C 76.70 182.50 77.66 182.43 78.61 182.36 C 78.65 189.52 78.63 196.68 78.62 203.85 C 77.91 203.83 76.50 203.81 75.79 203.80 C 75.76 196.73 75.82 189.65 75.75 182.58 Z" />
<path fill="#e1e1e1" d=" M 11.35 183.26 C 14.63 183.32 18.01 182.87 21.20 183.76 C 25.22 185.20 25.13 191.60 21.23 193.18 C 25.68 194.48 25.93 201.04 21.95 203.03 C 18.65 204.51 14.86 203.72 11.35 203.84 C 11.33 196.98 11.33 190.12 11.35 183.26 Z" />
<path fill="#010101" d=" M 14.23 185.50 C 16.77 185.63 21.73 185.08 21.42 188.97 C 21.56 192.76 16.80 192.13 14.30 192.31 C 14.24 190.04 14.22 187.77 14.23 185.50 Z" />
<path fill="#e1e1e1" d=" M 54.50 188.43 C 57.78 188.44 61.12 188.05 64.37 188.66 C 63.40 193.58 59.56 197.37 57.17 201.70 C 59.70 201.74 62.22 201.75 64.75 201.81 C 64.61 202.31 64.33 203.31 64.19 203.81 C 60.71 204.02 57.22 203.91 53.74 203.75 C 55.51 198.81 58.88 194.67 61.68 190.30 C 59.36 190.36 57.05 190.44 54.73 190.46 C 54.68 189.95 54.56 188.94 54.50 188.43 Z" />
<path fill="#e1e1e1" d=" M 68.29 188.42 C 68.93 188.40 70.21 188.36 70.85 188.34 C 70.95 193.53 70.95 198.73 70.84 203.92 C 70.20 203.90 68.92 203.84 68.28 203.82 C 68.26 198.69 68.26 193.55 68.29 188.42 Z" />
<path fill="#e1e1e1" d=" M 28.82 188.23 C 30.67 188.13 31.61 188.99 31.64 190.83 C 32.37 190.03 33.10 189.23 33.84 188.44 C 34.83 188.46 36.81 188.48 37.80 188.50 C 37.72 192.03 32.78 190.02 32.17 193.18 C 31.20 196.63 31.84 200.31 31.67 203.86 C 30.95 203.84 29.52 203.80 28.80 203.78 C 28.80 198.60 28.78 193.41 28.82 188.23 Z" />
<path fill="#e1e1e1" d=" M 40.23 189.31 C 43.48 188.26 48.36 187.22 50.27 190.97 C 50.86 195.44 50.58 199.99 50.35 204.49 C 49.72 203.93 48.45 202.83 47.82 202.27 C 45.43 204.31 40.93 204.78 39.38 201.52 C 38.05 199.75 39.36 197.68 39.78 195.84 C 42.36 194.30 45.35 194.28 48.26 194.25 C 48.01 193.06 47.58 191.96 46.94 190.96 C 44.81 190.30 42.65 191.08 40.55 191.49 C 40.47 190.94 40.31 189.85 40.23 189.31 Z" />
<path fill="#010101" d=" M 14.23 201.56 C 14.22 199.14 14.23 196.72 14.32 194.30 C 16.69 194.55 19.42 194.09 21.36 195.80 C 21.79 197.29 21.58 198.86 21.59 200.39 C 19.28 201.48 16.73 201.54 14.23 201.56 Z" />
<path fill="#010101" d=" M 42.34 197.24 C 44.02 196.04 46.20 196.24 48.14 195.98 C 47.94 198.35 47.28 201.90 44.12 201.59 C 41.57 202.04 41.30 198.83 42.34 197.24 Z" />
<path fill="#e1e1e1" d=" M 68.13 267.01 C 69.13 266.09 70.05 264.65 71.61 265.33 C 72.06 266.39 72.01 267.42 71.46 268.44 C 70.09 268.85 69.16 267.66 68.13 267.01 Z" />
<path fill="#e1e1e1" d=" M 11.34 266.06 C 15.25 266.20 20.82 264.93 23.04 269.13 C 24.73 272.56 22.75 276.01 20.12 278.22 C 21.55 281.22 23.60 283.86 25.08 286.84 C 20.32 287.37 19.54 281.67 17.16 278.72 C 16.19 278.67 15.22 278.62 14.25 278.58 C 14.22 281.22 14.22 283.86 14.25 286.50 C 13.28 286.57 12.32 286.64 11.36 286.71 C 11.31 279.83 11.34 272.94 11.34 266.06 Z" />
<path fill="#010101" d=" M 14.25 268.34 C 16.44 268.55 19.23 268.09 20.51 270.37 C 20.81 271.86 21.01 273.67 20.03 274.97 C 18.47 276.38 16.22 276.19 14.27 276.45 C 14.22 273.75 14.22 271.04 14.25 268.34 Z" />
<path fill="#e1e1e1" d=" M 27.24 271.17 C 27.87 271.17 29.14 271.17 29.77 271.16 C 29.88 274.80 29.60 278.45 29.96 282.07 C 30.02 285.37 35.65 285.03 36.11 282.07 C 36.88 278.47 36.42 274.76 36.53 271.12 C 37.49 271.20 38.45 271.28 39.41 271.37 C 39.30 276.54 39.42 281.71 39.32 286.88 C 38.80 286.74 37.75 286.45 37.23 286.31 L 36.60 284.78 C 34.29 287.31 29.28 287.64 27.60 284.23 C 26.79 279.94 27.33 275.52 27.24 271.17 Z" />
<path fill="#e1e1e1" d=" M 55.97 272.96 C 58.37 270.15 62.49 271.25 65.58 272.05 C 64.42 275.35 60.40 272.98 57.85 273.75 C 57.69 278.88 66.50 277.35 65.47 282.98 C 64.56 287.60 59.05 286.67 55.60 286.41 C 55.41 285.44 55.22 284.48 55.04 283.52 C 57.65 284.24 60.38 284.73 62.98 283.65 C 62.94 280.14 59.05 279.86 56.83 278.13 C 55.08 277.14 54.99 274.51 55.97 272.96 Z" />
<path fill="#e1e1e1" d=" M 69.29 271.07 C 69.91 271.11 71.15 271.19 71.77 271.23 C 71.79 276.36 71.80 281.48 71.76 286.61 C 71.14 286.64 69.89 286.70 69.26 286.73 C 68.63 281.53 68.63 276.26 69.29 271.07 Z" />
<path fill="#e1e1e1" d=" M 77.00 272.01 C 79.65 271.40 82.67 270.50 85.24 271.87 C 87.71 273.31 87.22 276.59 87.29 279.02 C 87.09 281.74 87.88 284.74 86.33 287.19 C 85.03 283.58 82.36 287.09 79.97 286.67 C 76.34 287.07 74.29 282.10 76.35 279.42 C 78.32 276.56 82.20 277.39 85.14 276.72 C 84.55 275.63 84.18 274.35 83.18 273.54 C 81.21 273.25 79.30 273.92 77.43 274.43 C 77.32 273.83 77.10 272.62 77.00 272.01 Z" />
<path fill="#e1e1e1" d=" M 42.99 273.12 C 45.43 270.25 49.98 270.76 52.84 272.70 C 52.32 273.20 51.79 273.71 51.27 274.23 C 49.31 273.62 47.28 273.40 45.26 273.81 C 45.31 274.43 45.41 275.67 45.46 276.29 C 47.71 277.49 50.28 278.27 52.11 280.10 C 53.66 282.64 51.98 286.31 48.94 286.52 C 46.30 286.66 41.88 287.48 41.91 283.56 C 44.57 284.16 47.33 284.69 50.01 283.83 C 50.36 280.43 46.73 279.91 44.51 278.46 C 42.54 277.53 42.04 274.95 42.99 273.12 Z" />
<path fill="#010101" d=" M 78.57 280.82 C 79.88 278.64 82.74 279.23 84.87 278.88 C 84.60 281.19 84.06 284.70 80.94 284.43 C 78.63 284.82 78.26 282.53 78.57 280.82 Z" />
<path fill="#e1e1e1" d=" M 11.34 348.92 C 14.88 348.92 18.42 348.92 21.97 348.93 C 21.87 349.55 21.69 350.79 21.59 351.41 C 19.14 351.37 16.69 351.37 14.23 351.36 C 14.23 353.43 14.23 355.51 14.23 357.59 C 16.62 357.59 19.02 357.59 21.42 357.60 C 21.45 358.20 21.51 359.40 21.54 360.00 C 19.10 360.00 16.65 360.00 14.21 360.02 C 14.22 362.29 14.22 364.56 14.22 366.83 C 16.86 366.85 19.51 366.99 22.14 367.25 C 22.01 367.76 21.75 368.78 21.62 369.29 C 18.20 369.61 14.77 369.41 11.34 369.41 C 11.33 362.58 11.33 355.75 11.34 348.92 Z" />
<path fill="#e1e1e1" d=" M 67.88 355.21 C 69.74 353.74 70.95 351.70 72.44 349.91 C 72.63 351.25 72.80 352.59 72.94 353.94 C 74.23 353.98 75.53 354.02 76.82 354.08 C 76.71 354.62 76.49 355.68 76.39 356.21 C 75.20 356.19 74.02 356.19 72.84 356.18 C 72.88 359.89 72.39 363.71 73.58 367.30 C 74.38 367.27 76.00 367.21 76.81 367.18 C 76.74 367.76 76.60 368.90 76.53 369.47 C 74.44 369.28 71.58 370.04 70.65 367.53 C 69.60 364.02 70.33 360.24 70.09 356.63 C 69.35 356.14 68.62 355.69 67.88 355.21 Z" />
<path fill="#e1e1e1" d=" M 28.15 354.26 C 31.07 353.88 34.13 353.71 37.05 354.23 C 37.51 355.56 36.93 356.38 35.29 356.68 C 35.41 358.67 35.93 360.95 34.49 362.62 C 33.10 364.47 30.50 364.19 28.45 364.61 C 28.40 365.17 28.28 366.28 28.23 366.84 C 31.24 367.38 36.09 366.10 37.02 370.00 C 38.03 373.13 35.10 375.92 32.14 376.16 C 29.40 376.36 25.70 376.74 24.08 373.96 C 22.66 372.03 24.62 370.11 25.43 368.43 C 25.93 366.92 26.20 365.36 26.62 363.84 C 24.27 361.03 24.02 355.51 28.15 354.26 Z" />
<path fill="#e1e1e1" d=" M 38.18 354.18 C 38.82 354.16 40.10 354.12 40.74 354.10 C 41.95 358.20 43.45 362.20 44.92 366.22 C 46.04 362.14 47.18 358.05 48.78 354.14 C 49.48 354.05 50.86 353.89 51.55 353.81 C 49.23 360.75 46.86 367.68 44.30 374.53 C 42.72 375.18 41.03 376.21 39.25 375.79 C 38.96 374.23 41.15 374.08 42.02 373.25 C 42.54 372.17 42.99 371.07 43.38 369.95 C 42.24 364.52 39.11 359.63 38.18 354.18 Z" />
<path fill="#e1e1e1" d=" M 53.77 353.57 C 54.97 353.94 55.98 354.59 56.79 355.53 C 59.27 353.10 63.96 353.53 65.45 356.85 C 67.09 360.39 67.06 365.24 64.20 368.16 C 62.85 369.70 60.70 369.30 58.88 369.52 C 58.08 368.99 57.29 368.47 56.49 367.96 C 56.45 370.71 56.46 373.47 56.46 376.22 C 55.77 376.23 54.40 376.24 53.71 376.25 C 53.74 368.69 53.63 361.13 53.77 353.57 Z" />
<path fill="#010101" d=" M 28.42 356.55 C 29.70 355.91 31.19 356.46 32.55 356.44 C 32.48 358.48 33.67 361.83 30.88 362.47 C 27.67 363.04 26.28 358.47 28.42 356.55 Z" />
<path fill="#010101" d=" M 59.99 367.69 C 55.27 366.00 55.92 360.07 57.73 356.42 C 59.16 356.38 60.58 356.46 62.00 356.65 C 64.61 359.82 64.48 366.18 59.99 367.69 Z" />
<path fill="#010101" d=" M 26.42 373.23 C 25.23 368.23 31.54 369.46 34.49 369.70 C 35.74 374.36 29.35 375.44 26.42 373.23 Z" />
<path fill="#838482" d=" M 37.49 375.40 C 37.53 372.98 40.52 373.92 42.02 373.25 C 41.15 374.08 38.96 374.23 39.25 375.79 C 41.03 376.21 42.72 375.18 44.30 374.53 C 42.77 376.25 38.76 378.21 37.49 375.40 Z" />
<path fill="#e1e1e1" d=" M 11.26 431.58 C 12.16 431.65 13.06 431.73 13.96 431.82 C 13.83 438.57 14.07 445.32 13.85 452.07 C 13.96 454.82 11.54 457.17 8.85 457.24 C 7.96 455.29 9.96 454.16 11.10 452.95 C 11.34 445.83 11.09 438.70 11.26 431.58 Z" />
<path fill="#e1e1e1" d=" M 50.67 437.64 C 53.82 436.91 58.30 435.62 60.29 439.08 C 61.34 443.50 60.69 448.15 60.69 452.66 C 59.99 452.20 58.59 451.28 57.89 450.82 C 55.53 452.56 51.49 453.08 49.75 450.26 C 48.93 448.21 48.92 445.35 50.92 443.97 C 53.05 442.45 55.83 442.90 58.28 442.74 C 57.97 441.56 57.66 440.39 57.34 439.22 C 55.04 439.27 52.74 439.44 50.44 439.63 C 50.50 439.13 50.61 438.14 50.67 437.64 Z" />
<path fill="#e1e1e1" d=" M 18.28 439.39 C 20.27 435.74 25.00 436.73 28.27 437.73 C 29.83 442.55 29.11 447.69 29.11 452.67 C 28.12 452.03 27.17 451.37 26.25 450.63 C 24.05 452.85 19.50 453.09 18.04 449.93 C 16.79 447.86 18.12 445.64 18.92 443.71 C 21.56 443.00 24.28 442.74 27.00 442.59 C 26.60 441.51 26.24 440.43 25.71 439.42 C 23.24 439.15 20.76 439.51 18.28 439.39 Z" />
<path fill="#e1e1e1" d=" M 33.77 437.27 C 35.30 436.77 36.68 436.67 36.73 438.70 C 38.45 437.28 40.72 436.08 42.97 437.13 C 46.14 438.20 46.92 442.00 46.79 444.97 C 46.77 447.65 45.82 450.89 43.03 451.90 C 40.96 452.86 38.75 451.66 36.74 451.15 C 36.79 453.80 36.79 456.45 36.79 459.11 C 36.03 459.04 34.51 458.89 33.74 458.81 C 34.55 451.64 33.75 444.46 33.77 437.27 Z" />
<path fill="#e1e1e1" d=" M 65.68 436.57 C 66.75 436.95 67.82 437.35 68.88 437.75 C 71.33 436.69 73.96 436.71 76.46 437.54 C 78.73 442.10 77.54 447.32 77.82 452.20 C 77.15 452.20 75.81 452.20 75.14 452.20 C 75.21 447.90 75.34 443.57 74.42 439.35 C 72.29 439.27 69.34 438.78 68.68 441.51 C 68.15 445.04 68.50 448.63 68.42 452.19 C 67.73 452.20 66.34 452.21 65.65 452.22 C 65.66 447.00 65.62 441.79 65.68 436.57 Z" />
<path fill="#010101" d=" M 37.86 439.80 C 39.71 438.96 42.75 438.63 43.58 441.01 C 44.05 443.99 44.18 447.23 42.47 449.87 C 40.93 449.90 39.43 449.69 37.98 449.25 C 36.30 446.43 36.37 442.68 37.86 439.80 Z" />
<path fill="#010101" d=" M 20.37 449.48 C 20.76 447.96 20.05 445.59 22.11 445.13 C 23.61 444.62 25.17 444.41 26.80 444.48 C 26.51 446.32 26.39 448.42 24.78 449.67 C 23.31 449.88 21.83 449.62 20.37 449.48 Z" />
<path fill="#010101" d=" M 52.30 445.54 C 54.26 444.92 56.28 444.55 58.33 444.42 C 58.00 445.97 57.82 447.60 57.15 449.06 C 55.78 450.12 53.92 449.62 52.33 449.77 C 52.29 448.36 52.29 446.94 52.30 445.54 Z" />
</svg>
