<?xml version="1.0" encoding="UTF-8" ?>
<!DOCTYPE svg PUBLIC "-//W3C//DTD SVG 1.1//EN" "http://www.w3.org/Graphics/SVG/1.1/DTD/svg11.dtd">
<svg width="415pt" height="344pt" viewBox="0 0 415 344" version="1.1" xmlns="http://www.w3.org/2000/svg">
<path fill="#000000" d=" M 0.00 0.00 L 2.01 0.00 C 2.03 4.23 2.03 8.46 2.09 12.69 C 1.93 18.43 2.06 24.17 2.07 29.91 C 138.64 29.89 275.21 29.92 411.78 29.90 C 411.84 19.93 411.85 9.97 411.92 0.00 L 415.00 0.00 L 415.00 344.00 L 411.80 344.00 C 411.78 319.55 411.81 295.11 411.80 270.66 C 275.22 270.64 138.63 270.65 2.05 270.65 C 2.04 295.10 2.05 319.55 2.04 344.00 L 0.00 344.00 L 0.00 0.00 Z" />
<path fill="#909090" d=" M 2.01 0.00 L 411.14 0.00 C 411.16 5.22 411.46 10.51 410.55 15.67 C 408.81 17.74 405.92 16.72 403.59 17.00 C 397.50 17.48 391.43 16.92 385.33 17.24 C 380.49 16.89 375.52 17.93 370.83 16.32 C 369.28 15.65 367.78 16.63 366.28 16.95 C 364.44 17.48 362.57 16.73 360.77 16.36 C 360.64 16.66 360.39 17.27 360.26 17.57 C 357.86 16.92 354.94 16.05 352.99 18.20 C 350.27 17.65 347.52 15.73 344.73 16.87 C 340.93 18.25 336.90 16.56 332.99 17.40 C 329.02 16.75 325.05 17.82 321.10 17.14 C 315.61 16.62 310.12 17.41 304.67 16.90 C 300.92 18.02 297.07 16.84 293.25 17.41 C 289.64 16.56 285.92 17.98 282.39 16.70 C 282.16 17.09 281.72 17.86 281.50 18.24 C 274.97 16.97 268.21 16.56 261.61 17.50 C 258.85 17.75 256.12 16.74 253.38 17.37 C 250.63 17.91 248.03 15.79 245.31 16.77 C 241.31 17.89 237.10 17.75 232.99 17.57 C 231.58 17.59 230.52 16.56 229.37 15.90 C 224.75 18.72 219.55 15.37 214.70 17.26 C 211.98 17.21 209.25 16.72 206.54 17.16 C 203.31 17.77 200.10 16.62 196.86 17.03 C 196.04 16.81 195.21 16.57 194.39 16.35 C 193.66 17.00 192.82 17.55 191.79 17.21 C 188.01 16.64 184.19 17.32 180.40 16.90 L 180.33 17.17 C 177.70 17.18 174.33 15.85 172.32 18.16 C 167.68 16.08 162.70 18.36 158.01 16.57 L 157.75 17.26 C 157.55 17.13 157.17 16.88 156.98 16.75 C 156.41 16.97 155.84 17.19 155.27 17.40 C 155.01 14.25 155.05 10.80 152.88 8.24 C 152.49 8.27 151.70 8.32 151.30 8.35 C 147.75 8.44 144.20 8.40 140.65 8.20 C 140.67 7.66 140.71 6.57 140.73 6.03 C 140.19 6.10 139.11 6.22 138.56 6.29 C 138.55 6.64 138.51 7.35 138.50 7.71 C 135.33 8.03 131.06 6.39 128.97 9.51 C 128.02 11.34 127.61 13.38 128.26 15.39 C 127.59 13.71 126.97 12.01 126.28 10.33 C 125.79 10.37 124.81 10.45 124.33 10.49 C 122.04 9.63 119.53 9.23 117.46 10.83 C 116.59 9.19 115.72 7.55 114.66 6.03 C 113.98 6.02 112.61 6.00 111.92 6.00 C 111.92 10.58 111.91 15.16 112.10 19.74 C 111.82 19.74 111.26 19.74 110.99 19.74 C 111.10 15.40 111.39 11.02 110.52 6.73 C 110.21 10.80 110.74 14.99 109.56 18.95 C 107.38 20.05 103.84 19.55 102.77 17.04 C 102.34 14.75 102.53 12.38 102.07 10.09 L 102.03 9.54 C 99.18 9.46 96.30 9.57 93.61 10.58 C 93.17 10.53 92.28 10.44 91.84 10.39 C 91.63 13.07 91.47 15.75 91.35 18.44 C 89.63 18.55 87.91 18.66 86.19 18.77 C 85.42 17.09 83.86 15.39 84.62 13.44 C 84.91 11.33 86.57 8.42 84.07 7.02 C 80.98 6.39 77.96 5.49 74.94 4.61 C 71.30 4.73 67.71 5.55 64.05 5.59 C 61.92 5.42 60.39 7.11 58.77 8.21 C 56.32 6.77 54.33 3.65 51.10 4.52 C 49.65 4.67 49.47 6.64 48.67 7.60 C 40.61 7.72 32.54 7.38 24.49 7.60 C 23.44 9.43 20.88 11.38 22.90 13.52 C 22.12 13.58 20.58 13.69 19.81 13.75 C 18.93 11.47 18.45 9.00 17.17 6.90 C 14.46 4.44 10.41 5.14 7.19 6.00 C 7.39 7.46 7.61 8.92 7.78 10.39 C 7.76 10.86 7.73 11.80 7.71 12.27 C 7.08 14.53 6.53 16.84 6.71 19.20 C 5.90 19.66 5.09 20.12 4.28 20.57 C 3.64 17.92 2.83 15.31 2.09 12.69 C 2.03 8.46 2.03 4.23 2.01 0.00 Z" />
<path fill="#808080" d=" M 411.14 0.00 L 411.92 0.00 C 411.85 9.97 411.84 19.93 411.78 29.90 C 275.21 29.92 138.64 29.89 2.07 29.91 C 2.06 24.17 1.93 18.43 2.09 12.69 C 2.83 15.31 3.64 17.92 4.28 20.57 C 5.09 20.12 5.90 19.66 6.71 19.20 C 6.92 19.81 7.35 21.01 7.56 21.62 C 9.94 21.79 12.32 21.99 14.70 22.18 C 15.01 23.36 15.32 24.55 15.62 25.73 C 19.45 25.45 23.36 25.23 26.96 23.77 C 26.55 23.54 25.73 23.08 25.32 22.85 C 25.17 22.41 24.87 21.53 24.73 21.09 C 29.57 21.64 34.86 22.62 39.39 20.23 C 41.52 20.95 43.66 21.92 45.96 21.72 C 50.08 21.47 54.25 22.11 58.31 21.23 C 61.55 20.44 64.76 21.90 68.02 21.81 C 73.70 21.78 79.37 21.37 85.05 21.37 C 84.96 21.68 84.78 22.31 84.69 22.63 L 84.45 23.60 C 88.49 24.88 92.80 25.03 96.98 25.58 C 101.98 25.01 106.98 24.39 111.96 23.69 C 111.59 23.59 110.84 23.38 110.46 23.28 C 110.37 22.69 110.17 21.53 110.08 20.94 C 112.28 21.40 114.50 20.94 116.71 20.82 C 119.35 21.15 122.01 21.50 124.68 21.24 C 125.41 22.58 126.14 23.92 126.85 25.27 C 129.59 25.50 132.52 26.13 135.17 25.10 C 136.50 24.00 137.61 22.65 139.00 21.60 C 143.75 20.97 148.56 21.63 153.33 21.35 C 153.66 18.19 153.75 15.01 153.47 11.85 C 153.22 14.48 153.08 17.12 152.97 19.76 L 151.77 19.75 C 151.52 16.20 152.74 12.00 149.98 9.16 C 150.31 8.95 150.97 8.55 151.30 8.35 C 151.70 8.32 152.49 8.27 152.88 8.24 C 155.05 10.80 155.01 14.25 155.27 17.40 C 155.84 17.19 156.41 16.97 156.98 16.75 C 157.17 16.88 157.55 17.13 157.75 17.26 L 158.01 16.57 C 162.70 18.36 167.68 16.08 172.32 18.16 C 174.33 15.85 177.70 17.18 180.33 17.17 L 180.40 16.90 C 184.19 17.32 188.01 16.64 191.79 17.21 C 192.82 17.55 193.66 17.00 194.39 16.35 C 195.21 16.57 196.04 16.81 196.86 17.03 C 200.10 16.62 203.31 17.77 206.54 17.16 C 209.25 16.72 211.98 17.21 214.70 17.26 C 219.55 15.37 224.75 18.72 229.37 15.90 C 230.52 16.56 231.58 17.59 232.99 17.57 C 237.10 17.75 241.31 17.89 245.31 16.77 C 248.03 15.79 250.63 17.91 253.38 17.37 C 256.12 16.74 258.85 17.75 261.61 17.50 C 268.21 16.56 274.97 16.97 281.50 18.24 C 281.72 17.86 282.16 17.09 282.39 16.70 C 285.92 17.98 289.64 16.56 293.25 17.41 C 297.07 16.84 300.92 18.02 304.67 16.90 C 310.12 17.41 315.61 16.62 321.10 17.14 C 325.05 17.82 329.02 16.75 332.99 17.40 C 336.90 16.56 340.93 18.25 344.73 16.87 C 347.52 15.73 350.27 17.65 352.99 18.20 C 354.94 16.05 357.86 16.92 360.26 17.57 C 360.39 17.27 360.64 16.66 360.77 16.36 C 362.57 16.73 364.44 17.48 366.28 16.95 C 367.78 16.63 369.28 15.65 370.83 16.32 C 375.52 17.93 380.49 16.89 385.33 17.24 C 391.43 16.92 397.50 17.48 403.59 17.00 C 405.92 16.72 408.81 17.74 410.55 15.67 C 411.46 10.51 411.16 5.22 411.14 0.00 Z" />
<path fill="#707270" d=" M 48.67 7.60 C 49.47 6.64 49.65 4.67 51.10 4.52 C 54.33 3.65 56.32 6.77 58.77 8.21 C 60.39 7.11 61.92 5.42 64.05 5.59 C 67.71 5.55 71.30 4.73 74.94 4.61 C 77.96 5.49 80.98 6.39 84.07 7.02 C 86.57 8.42 84.91 11.33 84.62 13.44 C 83.86 15.39 85.42 17.09 86.19 18.77 C 87.91 18.66 89.63 18.55 91.35 18.44 C 91.47 15.75 91.63 13.07 91.84 10.39 C 92.28 10.44 93.17 10.53 93.61 10.58 C 93.35 12.36 93.72 14.08 94.48 15.68 C 94.54 17.84 93.58 19.72 92.40 21.45 C 89.95 21.30 87.50 21.23 85.05 21.37 C 79.37 21.37 73.70 21.78 68.02 21.81 C 64.76 21.90 61.55 20.44 58.31 21.23 C 54.25 22.11 50.08 21.47 45.96 21.72 C 43.66 21.92 41.52 20.95 39.39 20.23 C 34.86 22.62 29.57 21.64 24.73 21.09 C 22.28 20.73 19.78 20.65 17.34 21.06 C 17.26 21.51 17.10 22.41 17.02 22.87 C 19.78 22.92 22.55 22.86 25.32 22.85 C 25.73 23.08 26.55 23.54 26.96 23.77 C 23.36 25.23 19.45 25.45 15.62 25.73 C 15.32 24.55 15.01 23.36 14.70 22.18 C 12.32 21.99 9.94 21.79 7.56 21.62 C 7.35 21.01 6.92 19.81 6.71 19.20 C 6.53 16.84 7.08 14.53 7.71 12.27 C 7.98 12.82 8.51 13.91 8.78 14.46 C 10.62 14.86 12.49 14.59 14.33 14.30 C 13.75 17.35 10.98 17.67 8.34 17.65 C 7.59 20.86 11.37 19.47 12.97 19.32 C 17.02 17.33 17.44 11.34 15.03 7.95 C 13.20 6.46 10.77 7.22 8.69 7.59 C 8.47 8.29 8.01 9.69 7.78 10.39 C 7.61 8.92 7.39 7.46 7.19 6.00 C 10.41 5.14 14.46 4.44 17.17 6.90 C 18.45 9.00 18.93 11.47 19.81 13.75 C 20.58 13.69 22.12 13.58 22.90 13.52 C 20.88 11.38 23.44 9.43 24.49 7.60 C 32.54 7.38 40.61 7.72 48.67 7.60 Z" />
<path fill="#fbfbfb" d=" M 51.30 6.07 C 51.93 6.05 53.21 6.02 53.84 6.01 C 53.82 7.60 53.78 9.20 53.72 10.80 C 55.02 9.76 56.48 9.32 58.12 9.49 C 60.20 12.30 60.82 17.28 57.62 19.47 C 55.53 19.58 53.42 19.23 51.36 19.75 C 51.39 15.19 51.39 10.63 51.30 6.07 Z" />
<path fill="#fbfbfb" d=" M 73.32 6.28 C 74.47 6.12 75.59 6.25 76.68 6.68 C 76.38 7.19 75.77 8.22 75.47 8.73 C 76.05 12.37 76.49 16.09 75.83 19.75 C 75.25 19.73 74.08 19.68 73.49 19.65 C 73.19 15.20 74.01 10.70 73.32 6.28 Z" />
<path fill="#f1f1f1" d=" M 111.92 6.00 C 112.61 6.00 113.98 6.02 114.66 6.03 C 114.58 10.60 114.58 15.17 114.62 19.74 C 113.99 19.74 112.73 19.74 112.10 19.74 C 111.91 15.16 111.92 10.58 111.92 6.00 Z" />
<path fill="#5f625f" d=" M 114.66 6.03 C 115.72 7.55 116.59 9.19 117.46 10.83 C 116.25 13.10 115.91 16.29 117.66 18.37 C 118.90 20.17 121.42 19.73 123.26 19.37 C 126.08 17.35 125.92 13.24 124.33 10.49 C 124.81 10.45 125.79 10.37 126.28 10.33 C 126.97 12.01 127.59 13.71 128.26 15.39 C 128.95 17.52 127.86 19.43 126.54 21.01 C 126.84 21.64 127.43 22.91 127.72 23.54 C 130.28 23.82 133.39 24.53 135.44 22.50 C 136.33 21.01 135.81 19.28 135.47 17.71 C 133.48 17.55 131.40 17.60 129.57 16.68 C 131.14 16.24 132.73 15.84 134.31 15.45 C 134.89 13.41 135.61 11.42 136.57 9.53 C 134.03 9.39 131.50 9.40 128.97 9.51 C 131.06 6.39 135.33 8.03 138.50 7.71 C 138.38 11.71 138.32 15.71 138.36 19.71 C 138.98 19.72 140.21 19.75 140.83 19.76 C 140.96 15.91 140.81 12.05 140.65 8.20 C 144.20 8.40 147.75 8.44 151.30 8.35 C 150.97 8.55 150.31 8.95 149.98 9.16 C 147.85 9.87 145.60 9.57 143.42 9.37 C 143.43 12.84 143.43 16.30 143.45 19.77 C 144.16 19.73 145.58 19.64 146.29 19.60 C 146.16 16.89 146.15 14.17 146.56 11.49 C 147.45 11.59 148.34 11.68 149.24 11.78 C 149.29 14.43 149.31 17.07 149.29 19.72 C 149.91 19.72 151.15 19.74 151.77 19.75 L 152.97 19.76 C 153.08 17.12 153.22 14.48 153.47 11.85 C 153.75 15.01 153.66 18.19 153.33 21.35 C 148.56 21.63 143.75 20.97 139.00 21.60 C 137.61 22.65 136.50 24.00 135.17 25.10 C 132.52 26.13 129.59 25.50 126.85 25.27 C 126.14 23.92 125.41 22.58 124.68 21.24 C 122.01 21.50 119.35 21.15 116.71 20.82 C 114.50 20.94 112.28 21.40 110.08 20.94 C 107.66 20.57 105.22 20.69 102.79 20.79 C 102.78 21.39 102.74 22.57 102.73 23.17 C 105.30 23.16 107.88 23.14 110.46 23.28 C 110.84 23.38 111.59 23.59 111.96 23.69 C 106.98 24.39 101.98 25.01 96.98 25.58 C 92.80 25.03 88.49 24.88 84.45 23.60 L 84.69 22.63 C 87.93 22.76 91.39 21.89 94.43 23.40 C 96.27 24.24 98.44 24.04 100.28 23.30 C 102.16 22.25 102.42 19.42 101.08 17.85 C 99.20 17.47 97.24 17.40 95.44 16.69 C 97.04 16.23 98.65 15.81 100.26 15.41 C 100.79 13.61 101.40 11.84 102.07 10.09 C 102.53 12.38 102.34 14.75 102.77 17.04 C 103.84 19.55 107.38 20.05 109.56 18.95 C 110.74 14.99 110.21 10.80 110.52 6.73 C 111.39 11.02 111.10 15.40 110.99 19.74 C 111.26 19.74 111.82 19.74 112.10 19.74 C 112.73 19.74 113.99 19.74 114.62 19.74 C 114.58 15.17 114.58 10.60 114.66 6.03 Z" />
<path fill="#fbfbfb" d=" M 138.56 6.29 C 139.11 6.22 140.19 6.10 140.73 6.03 C 140.71 6.57 140.67 7.66 140.65 8.20 C 140.81 12.05 140.96 15.91 140.83 19.76 C 140.21 19.75 138.98 19.72 138.36 19.71 C 138.32 15.71 138.38 11.71 138.50 7.71 C 138.51 7.35 138.55 6.64 138.56 6.29 Z" />
<path fill="#f9f9f9" d=" M 8.69 7.59 C 10.77 7.22 13.20 6.46 15.03 7.95 C 17.44 11.34 17.02 17.33 12.97 19.32 C 11.37 19.47 7.59 20.86 8.34 17.65 C 10.98 17.67 13.75 17.35 14.33 14.30 C 12.49 14.59 10.62 14.86 8.78 14.46 C 8.51 13.91 7.98 12.82 7.71 12.27 C 7.73 11.80 7.76 10.86 7.78 10.39 C 8.01 9.69 8.47 8.29 8.69 7.59 Z" />
<path fill="#fbfbfb" d=" M 62.57 19.74 C 62.79 15.44 62.50 11.14 62.64 6.84 C 63.30 6.83 64.64 6.80 65.31 6.79 C 65.16 8.78 65.06 10.77 65.05 12.77 C 66.84 11.14 67.92 8.95 69.05 6.86 C 69.83 6.87 71.39 6.90 72.16 6.91 C 70.81 8.89 69.36 10.81 68.20 12.91 C 69.62 15.09 70.98 17.32 72.07 19.69 C 71.36 19.67 69.93 19.63 69.22 19.60 C 68.24 17.67 67.20 15.77 66.02 13.95 C 64.68 15.56 65.18 17.62 65.29 19.50 C 64.38 19.58 63.48 19.66 62.57 19.74 Z" />
<path fill="#fcfcfc" d=" M 78.06 10.36 C 79.02 9.10 79.58 7.14 81.44 7.05 C 81.46 7.65 81.49 8.84 81.51 9.44 C 82.10 9.45 83.30 9.48 83.89 9.50 C 83.90 10.00 83.90 11.01 83.91 11.52 C 83.28 11.51 82.03 11.50 81.41 11.50 C 81.42 13.46 81.44 15.43 81.50 17.39 C 82.14 17.39 83.43 17.39 84.08 17.39 C 84.00 17.95 83.83 19.09 83.75 19.66 C 82.39 19.57 81.03 19.49 79.67 19.41 C 78.56 16.47 79.65 13.14 78.06 10.36 Z" />
<path fill="#393b39" d=" M 10.58 9.45 C 11.52 9.49 12.46 9.54 13.41 9.58 C 13.42 10.55 13.43 11.53 13.45 12.50 C 12.47 12.51 11.50 12.50 10.53 12.49 C 10.55 11.47 10.56 10.46 10.58 9.45 Z" />
<path fill="#f1f3f1" d=" M 25.12 9.38 C 25.77 9.37 27.05 9.35 27.69 9.34 C 28.19 11.58 28.60 13.83 29.05 16.07 C 29.86 13.92 30.45 11.69 30.77 9.41 C 31.60 9.44 33.27 9.50 34.10 9.53 C 34.32 11.56 34.57 13.58 34.84 15.61 C 34.22 15.35 32.96 14.85 32.34 14.60 L 33.22 12.70 L 32.08 12.52 C 31.58 14.94 31.07 17.35 30.58 19.77 C 29.60 19.69 28.63 19.60 27.65 19.52 C 26.90 16.12 25.85 12.79 25.12 9.38 Z" />
<path fill="#f8f8f8" d=" M 128.97 9.51 C 131.50 9.40 134.03 9.39 136.57 9.53 C 135.61 11.42 134.89 13.41 134.31 15.45 C 132.73 15.84 131.14 16.24 129.57 16.68 C 131.40 17.60 133.48 17.55 135.47 17.71 C 135.81 19.28 136.33 21.01 135.44 22.50 C 133.39 24.53 130.28 23.82 127.72 23.54 C 127.43 22.91 126.84 21.64 126.54 21.01 C 127.86 19.43 128.95 17.52 128.26 15.39 C 127.61 13.38 128.02 11.34 128.97 9.51 Z" />
<path fill="#fbfbfb" d=" M 143.42 9.37 C 145.60 9.57 147.85 9.87 149.98 9.16 C 152.74 12.00 151.52 16.20 151.77 19.75 C 151.15 19.74 149.91 19.72 149.29 19.72 C 149.31 17.07 149.29 14.43 149.24 11.78 C 148.34 11.68 147.45 11.59 146.56 11.49 C 146.15 14.17 146.16 16.89 146.29 19.60 C 145.58 19.64 144.16 19.73 143.45 19.77 C 143.43 16.30 143.43 12.84 143.42 9.37 Z" />
<path fill="#eff0ef" d=" M 35.16 15.64 C 36.82 13.45 35.36 7.99 39.67 9.38 C 38.66 12.77 37.74 16.19 36.95 19.63 C 36.16 19.62 34.57 19.60 33.78 19.58 C 31.50 16.10 34.84 16.62 36.53 16.19 L 35.16 15.64 Z" />
<path fill="#f9f9f9" d=" M 44.07 19.56 C 39.58 18.68 39.49 11.91 42.91 9.65 C 44.30 9.42 45.68 9.42 47.06 9.66 C 49.01 10.90 49.11 13.27 49.14 15.34 C 47.14 15.30 45.15 15.27 43.15 15.26 C 43.26 15.78 43.49 16.84 43.61 17.36 C 45.36 17.68 47.12 17.54 48.87 17.26 C 49.49 20.42 45.82 19.47 44.07 19.56 Z" />
<path fill="#f8f8f8" d=" M 93.61 10.58 C 96.30 9.57 99.18 9.46 102.03 9.54 L 102.07 10.09 C 101.40 11.84 100.79 13.61 100.26 15.41 C 98.65 15.81 97.04 16.23 95.44 16.69 C 97.24 17.40 99.20 17.47 101.08 17.85 C 102.42 19.42 102.16 22.25 100.28 23.30 C 98.44 24.04 96.27 24.24 94.43 23.40 C 91.39 21.89 87.93 22.76 84.69 22.63 C 84.78 22.31 84.96 21.68 85.05 21.37 C 87.50 21.23 89.95 21.30 92.40 21.45 C 93.58 19.72 94.54 17.84 94.48 15.68 C 93.72 14.08 93.35 12.36 93.61 10.58 Z" />
<path fill="#f8f8f8" d=" M 117.46 10.83 C 119.53 9.23 122.04 9.63 124.33 10.49 C 125.92 13.24 126.08 17.35 123.26 19.37 C 121.42 19.73 118.90 20.17 117.66 18.37 C 115.91 16.29 116.25 13.10 117.46 10.83 Z" />
<path fill="#393b39" d=" M 43.81 11.66 C 44.61 11.67 45.41 11.69 46.21 11.70 C 46.32 12.14 46.54 13.03 46.64 13.48 C 45.52 13.50 44.39 13.52 43.26 13.54 C 43.40 13.07 43.67 12.13 43.81 11.66 Z" />
<path fill="#535653" d=" M 96.43 14.58 C 95.61 12.71 96.04 10.48 98.47 11.54 C 98.39 12.45 98.32 13.37 98.25 14.28 C 97.80 14.36 96.89 14.51 96.43 14.58 Z" />
<path fill="#393b39" d=" M 130.53 14.52 C 130.05 12.73 130.05 10.67 132.47 11.46 C 132.41 12.40 132.36 13.35 132.31 14.29 C 131.86 14.35 130.98 14.46 130.53 14.52 Z" />
<path fill="#515251" d=" M 56.18 17.44 C 53.21 18.00 53.18 12.84 54.95 11.72 C 57.10 10.92 56.77 13.93 57.46 15.05 C 57.14 15.65 56.50 16.84 56.18 17.44 Z" />
<path fill="#535653" d=" M 119.75 17.35 C 119.50 15.41 118.34 12.24 121.00 11.53 C 123.63 12.26 122.28 15.33 122.29 17.28 C 121.44 17.30 120.60 17.32 119.75 17.35 Z" />
<path fill="#393b39" d=" M 95.54 19.69 C 96.77 19.71 98.00 19.73 99.24 19.76 C 99.30 20.18 99.44 21.04 99.51 21.47 C 98.07 21.61 96.63 21.72 95.19 21.78 C 95.28 21.26 95.45 20.21 95.54 19.69 Z" />
<path fill="#393b39" d=" M 129.64 19.72 C 130.89 19.72 132.13 19.73 133.37 19.73 C 133.42 20.18 133.51 21.09 133.56 21.54 C 132.13 21.64 130.70 21.70 129.27 21.72 C 129.36 21.22 129.55 20.22 129.64 19.72 Z" />
<path fill="#c2c2c2" d=" M 17.34 21.06 C 19.78 20.65 22.28 20.73 24.73 21.09 C 24.87 21.53 25.17 22.41 25.32 22.85 C 22.55 22.86 19.78 22.92 17.02 22.87 C 17.10 22.41 17.26 21.51 17.34 21.06 Z" />
<path fill="#c4c5c4" d=" M 102.79 20.79 C 105.22 20.69 107.66 20.57 110.08 20.94 C 110.17 21.53 110.37 22.69 110.46 23.28 C 107.88 23.14 105.30 23.16 102.73 23.17 C 102.74 22.57 102.78 21.39 102.79 20.79 Z" />
<path fill="#afb3af" d=" M 49.87 36.91 C 50.28 36.81 51.09 36.62 51.50 36.53 C 51.62 38.28 51.65 40.04 51.63 41.80 C 53.82 40.86 56.85 40.53 58.25 42.90 C 59.40 46.19 59.42 51.49 55.07 52.27 C 53.35 51.49 51.53 50.93 49.86 52.19 C 49.87 47.10 49.85 42.00 49.87 36.91 Z" />
<path fill="#a2a3a2" d=" M 3.82 37.71 C 4.60 37.66 5.39 37.60 6.17 37.55 C 8.54 41.25 10.51 45.20 13.14 48.73 C 13.22 44.97 13.01 41.20 13.28 37.44 C 13.73 37.51 14.64 37.64 15.10 37.71 C 15.10 42.52 15.11 47.34 15.10 52.15 C 14.56 52.12 13.49 52.06 12.95 52.03 C 10.16 48.59 8.59 44.26 5.71 40.85 C 5.56 44.74 6.06 48.66 5.41 52.53 C 5.02 52.27 4.25 51.77 3.86 51.52 C 3.72 46.92 3.89 42.31 3.82 37.71 Z" />
<path fill="#adaead" d=" M 21.32 41.40 C 25.81 39.26 29.81 44.98 27.76 48.93 C 26.86 52.72 20.83 53.26 19.25 49.72 C 17.81 47.04 18.32 42.77 21.32 41.40 Z" />
<path fill="#9c9e9c" d=" M 31.02 40.80 C 31.72 41.07 33.13 41.61 33.84 41.88 C 32.97 45.21 33.04 48.67 33.09 52.09 C 32.57 52.10 31.52 52.11 31.00 52.12 C 31.00 48.35 30.98 44.57 31.02 40.80 Z" />
<path fill="#959895" d=" M 33.74 42.64 C 34.07 39.64 37.55 41.18 39.19 41.97 C 41.41 40.86 44.89 40.16 45.99 43.11 C 46.66 45.93 46.11 48.92 46.37 51.80 C 45.83 51.89 44.74 52.08 44.20 52.18 C 44.17 49.47 44.35 46.76 44.06 44.06 C 43.83 41.67 40.31 42.04 39.86 44.09 C 39.46 46.69 39.78 49.33 39.61 51.95 C 39.13 52.03 38.16 52.19 37.68 52.27 C 37.23 49.11 38.65 45.30 36.64 42.56 C 35.92 42.58 34.47 42.62 33.74 42.64 Z" />
<path fill="#afb3af" d=" M 61.82 51.71 C 61.75 48.11 61.79 44.51 61.89 40.91 C 63.82 42.21 65.91 41.29 67.97 40.99 C 68.38 43.26 66.13 42.57 64.72 42.71 C 64.47 43.29 63.98 44.45 63.74 45.03 C 63.56 47.40 63.59 49.79 63.63 52.17 C 63.17 52.05 62.27 51.82 61.82 51.71 Z" />
<path fill="#afb3af" d=" M 72.32 51.54 C 67.65 49.25 69.39 40.19 75.04 41.08 C 77.86 41.32 78.59 44.37 78.72 46.70 C 76.32 46.78 73.92 46.79 71.52 46.81 C 71.89 48.03 72.30 49.23 72.76 50.41 C 74.60 50.43 76.44 50.35 78.28 50.21 C 77.71 52.76 74.17 52.33 72.32 51.54 Z" />
<path fill="#000000" d=" M 72.77 42.64 C 74.60 42.22 76.96 43.06 76.44 45.31 C 74.81 45.26 73.18 45.22 71.54 45.17 C 71.85 44.54 72.47 43.27 72.77 42.64 Z" />
<path fill="#000000" d=" M 21.73 50.51 C 20.05 48.14 19.95 44.86 21.83 42.55 C 26.66 41.39 27.01 47.38 25.23 50.41 C 24.35 50.43 22.60 50.49 21.73 50.51 Z" />
<path fill="#000000" d=" M 52.80 42.66 C 53.65 42.68 55.34 42.72 56.18 42.74 C 57.51 45.18 57.43 47.90 56.20 50.36 C 55.34 50.39 53.60 50.45 52.73 50.48 C 52.47 49.88 51.95 48.69 51.68 48.09 C 51.53 46.18 51.73 44.29 52.80 42.66 Z" />
<path fill="#c6c6c6" d=" M 5.62 62.79 C 6.35 60.79 8.35 60.71 9.74 59.54 C 141.32 59.47 272.89 59.52 404.46 59.51 L 404.62 60.64 C 405.06 60.54 405.94 60.34 406.38 60.24 L 406.41 61.48 L 407.42 61.44 C 408.44 63.11 409.23 64.97 409.18 66.97 C 409.26 79.31 409.19 91.64 409.24 103.98 C 409.19 105.39 409.40 106.95 408.54 108.18 L 408.49 107.26 C 408.07 96.60 408.86 85.89 407.88 75.24 C 407.35 71.70 407.05 67.29 403.77 65.15 C 398.37 63.87 392.78 65.05 387.31 65.09 C 381.21 64.36 375.11 65.47 369.01 64.73 C 363.35 65.49 357.69 65.07 352.02 64.76 C 346.72 65.58 341.42 64.38 336.12 64.98 C 332.51 65.19 328.90 64.57 325.30 65.01 C 318.95 65.72 312.61 64.11 306.28 65.05 C 302.08 65.02 297.88 64.41 293.70 65.09 C 280.44 65.25 267.21 64.91 253.97 64.69 C 248.35 65.63 242.73 64.35 237.11 64.99 C 233.09 65.21 229.08 64.34 225.08 65.00 C 219.73 65.78 214.38 64.27 209.04 64.96 C 205.34 65.41 201.65 64.40 197.95 64.87 C 193.73 65.43 189.51 64.50 185.29 64.96 C 178.76 65.52 172.23 64.32 165.70 65.06 C 160.80 64.52 155.91 64.94 151.01 65.19 C 144.99 64.75 138.95 65.62 132.95 64.80 C 128.95 64.42 124.96 65.56 120.96 64.91 C 116.40 64.24 111.84 64.98 107.28 65.07 C 101.19 64.39 95.09 65.38 89.00 64.71 C 83.34 65.47 77.67 65.12 72.01 64.74 C 62.67 65.86 53.28 64.74 43.93 64.68 C 37.86 65.62 31.76 64.19 25.70 65.13 C 20.43 65.75 15.20 64.06 9.95 64.79 C 8.21 66.09 7.60 68.29 6.97 70.27 C 5.12 76.34 5.69 82.75 5.59 89.01 C 5.65 95.54 5.38 102.08 5.85 108.60 L 4.72 108.45 C 4.55 93.92 4.56 79.39 4.75 64.86 C 4.96 64.34 5.40 63.31 5.62 62.79 Z" />
<path fill="#dddedd" d=" M 6.97 70.27 C 7.60 68.29 8.21 66.09 9.95 64.79 C 15.20 64.06 20.43 65.75 25.70 65.13 C 31.76 64.19 37.86 65.62 43.93 64.68 C 53.28 64.74 62.67 65.86 72.01 64.74 C 77.67 65.12 83.34 65.47 89.00 64.71 C 95.09 65.38 101.19 64.39 107.28 65.07 C 111.84 64.98 116.40 64.24 120.96 64.91 C 124.96 65.56 128.95 64.42 132.95 64.80 C 138.95 65.62 144.99 64.75 151.01 65.19 C 155.91 64.94 160.80 64.52 165.70 65.06 C 172.23 64.32 178.76 65.52 185.29 64.96 C 189.51 64.50 193.73 65.43 197.95 64.87 C 201.65 64.40 205.34 65.41 209.04 64.96 C 214.38 64.27 219.73 65.78 225.08 65.00 C 229.08 64.34 233.09 65.21 237.11 64.99 C 242.73 64.35 248.35 65.63 253.97 64.69 C 267.21 64.91 280.44 65.25 293.70 65.09 C 297.88 64.41 302.08 65.02 306.28 65.05 C 312.61 64.11 318.95 65.72 325.30 65.01 C 328.90 64.57 332.51 65.19 336.12 64.98 C 341.42 64.38 346.72 65.58 352.02 64.76 C 357.69 65.07 363.35 65.49 369.01 64.73 C 375.11 65.47 381.21 64.36 387.31 65.09 C 392.78 65.05 398.37 63.87 403.77 65.15 C 407.05 67.29 407.35 71.70 407.88 75.24 C 408.86 85.89 408.07 96.60 408.49 107.26 C 407.10 107.87 405.69 108.47 404.22 108.85 C 409.01 102.57 406.68 94.25 407.16 86.97 C 406.99 82.57 407.28 75.75 401.74 74.62 C 390.82 74.98 379.89 75.92 368.95 75.10 C 364.70 74.67 360.45 75.89 356.21 75.01 C 347.19 75.59 338.10 75.43 329.06 75.16 C 323.03 73.97 317.04 75.81 310.99 75.34 C 304.31 75.76 297.65 74.36 290.99 75.44 C 278.23 75.11 265.43 75.88 252.68 74.91 C 247.81 75.45 242.91 75.56 238.01 75.41 C 230.40 75.09 222.77 75.92 215.20 74.95 C 203.21 75.77 191.17 75.15 179.16 75.40 C 158.15 75.38 137.15 75.33 116.14 75.40 C 110.06 75.94 104.03 74.37 97.98 75.43 C 90.21 75.15 82.42 75.81 74.69 74.93 C 62.85 75.96 50.96 75.02 39.11 75.37 C 34.67 75.43 30.22 75.74 25.80 75.23 C 20.37 74.50 14.90 75.58 9.45 75.34 C 6.11 82.75 6.75 91.12 6.72 99.04 C 6.60 102.39 7.63 105.61 9.18 108.55 C 8.07 108.52 6.96 108.52 5.85 108.60 C 5.38 102.08 5.65 95.54 5.59 89.01 C 5.69 82.75 5.12 76.34 6.97 70.27 Z" />
<path fill="#f1f1f1" d=" M 9.45 75.34 C 14.90 75.58 20.37 74.50 25.80 75.23 C 30.22 75.74 34.67 75.43 39.11 75.37 C 50.96 75.02 62.85 75.96 74.69 74.93 C 82.42 75.81 90.21 75.15 97.98 75.43 C 104.03 74.37 110.06 75.94 116.14 75.40 C 137.15 75.33 158.15 75.38 179.16 75.40 C 191.17 75.15 203.21 75.77 215.20 74.95 C 222.77 75.92 230.40 75.09 238.01 75.41 C 242.91 75.56 247.81 75.45 252.68 74.91 C 265.43 75.88 278.23 75.11 290.99 75.44 C 297.65 74.36 304.31 75.76 310.99 75.34 C 317.04 75.81 323.03 73.97 329.06 75.16 C 338.10 75.43 347.19 75.59 356.21 75.01 C 360.45 75.89 364.70 74.67 368.95 75.10 C 379.89 75.92 390.82 74.98 401.74 74.62 C 407.28 75.75 406.99 82.57 407.16 86.97 C 406.68 94.25 409.01 102.57 404.22 108.85 C 379.82 108.33 355.45 108.85 331.05 108.59 C 223.75 108.62 116.47 108.71 9.18 108.55 C 7.63 105.61 6.60 102.39 6.72 99.04 C 6.75 91.12 6.11 82.75 9.45 75.34 Z" />
<path fill="#151615" d=" M 17.60 82.21 C 18.01 82.10 18.84 81.88 19.25 81.77 C 19.34 82.44 19.53 83.79 19.62 84.46 C 21.21 80.83 26.40 81.52 27.51 85.05 C 27.99 88.14 28.56 92.53 25.27 94.31 C 23.36 95.59 21.13 94.49 19.55 93.24 C 19.74 95.76 19.74 98.30 19.69 100.83 C 19.16 100.81 18.10 100.76 17.57 100.73 C 17.64 94.56 17.52 88.38 17.60 82.21 Z" />
<path fill="#131413" d=" M 31.30 81.94 C 31.75 82.00 32.65 82.14 33.10 82.21 C 34.21 85.60 32.16 90.00 34.85 92.75 C 35.67 92.78 37.31 92.85 38.14 92.89 C 39.69 90.48 40.35 86.86 38.39 84.51 C 37.15 83.01 34.70 84.89 33.71 82.92 C 36.18 81.40 39.94 81.77 41.02 84.80 C 41.88 87.99 42.21 92.74 38.64 94.41 C 36.87 95.61 34.84 94.40 33.37 93.34 C 33.42 95.80 33.42 98.27 33.43 100.74 C 32.91 100.76 31.85 100.80 31.33 100.83 C 31.31 94.53 31.33 88.23 31.30 81.94 Z" />
<path fill="#f2f2f2" d=" M 20.33 84.58 C 21.04 84.31 22.44 83.78 23.15 83.52 C 26.64 84.96 26.53 89.92 24.59 92.55 C 23.27 93.29 21.38 93.18 20.36 91.97 C 19.44 89.58 19.70 87.00 20.33 84.58 Z" />
<path fill="#d6d8d6" d=" M 404.22 108.85 C 405.69 108.47 407.10 107.87 408.49 107.26 L 408.54 108.18 C 408.28 111.08 404.85 112.98 402.08 112.82 C 272.05 112.83 142.02 112.83 12.00 112.83 C 9.05 113.18 6.68 111.13 5.06 108.92 L 5.85 108.60 C 6.96 108.52 8.07 108.52 9.18 108.55 C 116.47 108.71 223.75 108.62 331.05 108.59 C 355.45 108.85 379.82 108.33 404.22 108.85 Z" />
<path fill="#b1b4b1" d=" M 3.93 131.05 C 5.26 127.30 9.98 126.53 13.32 127.76 C 13.32 128.19 13.30 129.06 13.30 129.49 C 11.40 129.11 9.27 128.37 7.49 129.57 C 4.76 131.33 5.09 135.13 5.83 137.86 C 7.40 140.76 10.95 140.07 13.64 139.83 C 12.83 142.57 9.51 141.79 7.39 141.46 C 3.14 140.15 2.72 134.63 3.93 131.05 Z" />
<path fill="#a3a7a3" d=" M 87.07 129.59 C 87.94 125.20 92.19 129.00 94.72 127.19 C 94.17 131.71 89.55 127.73 87.07 129.59 Z" />
<path fill="#a3a7a3" d=" M 38.43 131.53 C 39.42 130.29 40.14 128.80 41.42 127.82 C 40.83 130.51 42.77 130.98 45.05 131.01 C 44.06 131.88 42.90 132.37 41.59 132.47 C 41.54 134.92 41.57 137.37 41.79 139.81 C 42.60 140.02 44.23 140.44 45.05 140.65 C 44.05 142.13 42.20 141.77 40.70 141.51 C 38.29 138.56 41.27 134.00 38.43 131.53 Z" />
<path fill="#b1b4b1" d=" M 27.76 130.33 C 29.88 133.03 33.11 128.89 35.32 131.55 C 37.36 134.44 35.99 138.40 36.37 141.73 C 35.91 141.75 35.00 141.77 34.54 141.78 C 34.55 138.69 34.55 135.59 34.40 132.49 C 33.50 132.44 31.69 132.33 30.78 132.27 C 28.40 134.73 29.87 138.69 29.44 141.80 C 29.00 141.78 28.12 141.74 27.67 141.72 C 27.69 137.92 27.60 134.12 27.76 130.33 Z" />
<path fill="#b3b6b3" d=" M 46.56 131.07 C 46.74 129.45 48.11 131.48 48.37 131.98 C 49.12 131.54 49.87 131.09 50.63 130.65 C 51.07 130.65 51.94 130.66 52.38 130.66 C 52.38 131.04 52.38 131.80 52.38 132.18 C 51.20 132.36 50.02 132.55 48.83 132.73 C 48.11 135.62 48.19 138.60 48.32 141.55 C 47.86 141.62 46.94 141.76 46.47 141.83 C 46.53 138.24 46.30 134.65 46.56 131.07 Z" />
<path fill="#afb3af" d=" M 17.37 131.37 C 20.58 128.98 25.06 132.22 24.63 135.95 C 25.24 139.15 22.42 142.48 19.08 141.68 C 14.37 141.06 13.92 133.78 17.37 131.37 Z" />
<path fill="#afb3af" d=" M 55.04 132.51 C 55.29 129.79 58.46 130.89 60.21 130.68 C 64.35 132.79 61.96 138.35 62.46 142.04 C 61.53 141.71 60.87 141.06 60.48 140.10 C 59.60 142.02 57.26 142.08 55.56 141.36 C 53.77 139.98 53.75 136.95 55.54 135.56 C 57.24 134.89 59.10 134.89 60.89 134.68 C 60.77 134.14 60.52 133.05 60.39 132.51 C 58.62 132.25 56.82 132.37 55.04 132.51 Z" />
<path fill="#afb3af" d=" M 65.70 131.94 C 66.21 131.62 67.23 130.98 67.74 130.65 C 68.66 130.66 70.50 130.68 71.41 130.68 C 71.65 131.17 72.13 132.15 72.37 132.64 C 70.70 132.39 69.02 132.32 67.33 132.37 C 67.34 132.88 67.36 133.91 67.37 134.42 C 69.34 135.51 72.70 135.99 72.67 138.85 C 72.40 142.36 66.37 142.92 64.89 140.14 C 66.85 140.12 68.86 140.33 70.76 139.74 C 70.73 139.24 70.67 138.24 70.63 137.74 C 68.20 136.78 64.31 135.30 65.70 131.94 Z" />
<path fill="#afb3af" d=" M 75.30 138.76 C 73.67 135.40 75.88 129.98 80.17 130.63 C 82.89 131.16 83.87 133.99 83.74 136.45 C 81.32 136.43 78.89 136.46 76.47 136.60 C 76.70 140.57 80.70 140.40 83.63 139.80 C 82.18 143.23 76.29 142.07 75.30 138.76 Z" />
<path fill="#b3b6b3" d=" M 86.59 141.75 C 86.61 137.92 86.44 134.09 86.74 130.28 C 88.30 132.52 90.18 130.61 92.18 130.63 C 97.15 131.73 94.72 138.21 95.23 141.81 C 94.78 141.79 93.88 141.74 93.44 141.72 C 93.47 138.64 93.46 135.57 93.33 132.50 C 91.81 132.19 90.30 132.21 88.79 132.56 C 88.29 135.60 88.32 138.69 88.36 141.77 C 87.92 141.76 87.03 141.75 86.59 141.75 Z" />
<path fill="#afb3af" d=" M 98.13 132.30 C 100.03 130.18 103.17 130.20 105.45 131.66 C 106.50 134.91 106.10 138.35 106.16 141.71 C 103.74 140.67 101.25 142.18 98.80 141.37 C 97.58 139.65 97.16 137.33 98.82 135.73 C 100.74 134.96 102.86 134.87 104.84 134.28 C 103.83 131.24 100.47 132.65 98.13 132.30 Z" />
<path fill="#000000" d=" M 17.63 132.60 C 19.17 132.30 20.74 132.30 22.27 132.67 C 22.72 134.88 22.71 137.14 22.43 139.37 C 20.80 140.43 19.09 140.34 17.43 139.40 C 17.18 137.13 17.18 134.84 17.63 132.60 Z" />
<path fill="#020302" d=" M 76.48 134.81 C 77.07 132.48 79.11 131.81 81.23 132.56 C 81.36 133.14 81.63 134.29 81.77 134.86 C 80.00 134.91 78.24 134.90 76.48 134.81 Z" />
<path fill="#000000" d=" M 56.48 136.53 C 57.95 136.34 59.44 136.23 60.92 136.20 C 60.70 138.01 60.21 140.22 57.96 140.37 C 55.64 140.31 56.35 138.06 56.48 136.53 Z" />
<path fill="#000000" d=" M 99.64 138.02 C 99.76 135.63 103.04 136.14 104.65 136.56 C 104.15 137.80 103.66 139.04 103.18 140.29 C 101.82 140.35 98.75 140.19 99.64 138.02 Z" />
<path fill="#f9932b" d=" M 2.37 153.19 C 3.26 151.16 4.97 149.78 6.87 148.75 C 8.40 149.78 10.13 150.51 12.01 150.39 C 142.33 150.33 272.66 150.38 402.98 150.37 C 404.46 150.26 405.81 149.73 407.01 148.77 C 408.90 149.72 410.42 151.17 411.56 152.95 C 410.50 153.34 409.44 153.73 408.38 154.12 C 406.89 152.80 405.14 151.82 403.08 152.11 C 272.37 152.13 141.66 152.12 10.95 152.11 C 8.86 151.83 7.03 152.70 5.54 154.10 L 4.97 153.94 C 4.32 153.75 3.02 153.38 2.37 153.19 Z" />
<path fill="#fba555" d=" M 6.87 148.75 C 10.25 148.48 13.64 148.57 17.03 148.57 C 142.67 148.57 268.31 148.57 393.95 148.57 C 398.30 148.63 402.66 148.39 407.01 148.77 C 405.81 149.73 404.46 150.26 402.98 150.37 C 272.66 150.38 142.33 150.33 12.01 150.39 C 10.13 150.51 8.40 149.78 6.87 148.75 Z" />
<path fill="#d9d9d9" d=" M 5.54 154.10 C 7.03 152.70 8.86 151.83 10.95 152.11 C 141.66 152.12 272.37 152.13 403.08 152.11 C 405.14 151.82 406.89 152.80 408.38 154.12 C 408.31 168.79 408.46 183.46 408.30 198.13 C 407.74 198.50 406.60 199.22 406.04 199.59 C 405.60 199.48 404.72 199.28 404.28 199.17 C 405.49 196.95 406.92 194.70 407.02 192.08 C 407.45 185.41 407.11 178.71 407.10 172.03 C 407.11 168.64 406.62 165.25 405.33 162.10 C 399.54 161.96 393.74 162.63 387.97 161.86 C 385.13 161.16 382.47 163.61 379.71 162.44 C 375.87 161.15 371.86 162.42 367.93 162.15 C 360.96 161.63 353.97 161.92 347.00 161.80 C 344.74 161.68 342.59 162.44 340.41 162.81 C 337.57 162.07 334.70 161.34 331.75 161.81 C 325.02 162.66 318.14 160.98 311.52 162.75 C 304.47 161.02 297.18 162.18 290.01 161.87 C 283.50 162.12 276.84 160.96 270.50 162.86 C 267.42 161.93 264.23 161.54 261.03 162.03 C 254.37 162.83 247.72 161.35 241.06 161.98 C 235.04 162.09 229.01 161.51 222.99 162.02 C 215.48 162.77 207.81 160.55 200.44 162.81 C 193.76 160.29 186.82 162.91 179.98 162.04 C 170.99 161.30 161.98 162.59 152.99 161.87 C 148.00 161.65 143.01 162.60 138.03 161.94 C 135.44 161.48 132.93 162.21 130.44 162.81 C 124.33 161.56 118.08 162.13 111.89 162.13 C 104.97 161.77 98.04 161.61 91.13 162.13 C 77.78 161.88 64.41 162.67 51.08 161.63 C 48.00 161.56 44.97 162.40 41.88 162.20 C 33.59 161.56 25.28 161.90 16.97 161.93 C 16.94 161.27 16.88 159.96 16.85 159.30 C 14.75 159.98 15.79 162.57 15.47 164.15 C 13.61 165.39 11.40 165.68 9.21 165.72 C 7.75 168.25 6.90 171.07 6.81 173.99 C 6.53 180.45 6.52 186.95 7.27 193.37 C 7.39 195.50 8.64 197.26 9.70 199.03 C 9.27 199.18 8.41 199.48 7.98 199.63 C 7.38 199.26 6.18 198.53 5.57 198.16 C 5.35 183.47 5.49 168.79 5.54 154.10 Z" />
<path fill="#f97b00" d=" M 2.26 153.16 L 2.37 153.19 C 3.02 153.38 4.32 153.75 4.97 153.94 C 4.88 160.00 4.89 166.06 4.48 172.10 C 2.63 170.54 2.69 167.85 2.12 165.67 C 2.00 161.50 1.92 157.32 2.26 153.16 Z" />
<path fill="#ea6500" d=" M 408.38 154.12 C 409.44 153.73 410.50 153.34 411.56 152.95 C 412.27 164.95 411.56 177.00 411.78 189.02 C 411.58 192.74 412.44 196.69 410.79 200.19 C 409.96 199.50 409.13 198.82 408.30 198.13 C 408.46 183.46 408.31 168.79 408.38 154.12 Z" />
<path fill="#e76100" d=" M 4.97 153.94 L 5.54 154.10 C 5.49 168.79 5.35 183.47 5.57 198.16 C 4.77 198.90 3.97 199.65 3.17 200.40 C 2.36 198.70 1.90 196.86 2.03 194.98 C 2.15 185.21 1.89 175.44 2.12 165.67 C 2.69 167.85 2.63 170.54 4.48 172.10 C 4.89 166.06 4.88 160.00 4.97 153.94 Z" />
<path fill="#5f625f" d=" M 15.47 164.15 C 15.79 162.57 14.75 159.98 16.85 159.30 C 16.88 159.96 16.94 161.27 16.97 161.93 C 17.03 164.71 16.95 167.49 16.94 170.28 C 16.85 177.43 17.08 184.59 16.79 191.74 C 15.02 190.74 15.60 188.60 15.49 186.94 C 15.59 179.34 15.47 171.74 15.47 164.15 Z" />
<path fill="#e6e6e6" d=" M 41.88 162.20 C 44.97 162.40 48.00 161.56 51.08 161.63 C 64.41 162.67 77.78 161.88 91.13 162.13 C 98.04 161.61 104.97 161.77 111.89 162.13 C 118.08 162.13 124.33 161.56 130.44 162.81 C 132.93 162.21 135.44 161.48 138.03 161.94 C 143.01 162.60 148.00 161.65 152.99 161.87 C 161.98 162.59 170.99 161.30 179.98 162.04 C 186.82 162.91 193.76 160.29 200.44 162.81 C 207.81 160.55 215.48 162.77 222.99 162.02 C 229.01 161.51 235.04 162.09 241.06 161.98 C 247.72 161.35 254.37 162.83 261.03 162.03 C 264.23 161.54 267.42 161.93 270.50 162.86 C 276.84 160.96 283.50 162.12 290.01 161.87 C 297.18 162.18 304.47 161.02 311.52 162.75 C 318.14 160.98 325.02 162.66 331.75 161.81 C 334.70 161.34 337.57 162.07 340.41 162.81 C 342.59 162.44 344.74 161.68 347.00 161.80 C 353.97 161.92 360.96 161.63 367.93 162.15 C 371.86 162.42 375.87 161.15 379.71 162.44 C 382.47 163.61 385.13 161.16 387.97 161.86 C 393.74 162.63 399.54 161.96 405.33 162.10 C 406.62 165.25 407.11 168.64 407.10 172.03 C 402.13 168.36 395.91 170.25 390.24 169.93 C 386.25 170.51 382.24 170.21 378.27 169.87 C 374.38 171.99 370.09 169.28 365.97 170.24 C 364.48 170.07 364.06 171.64 363.31 172.57 C 363.10 172.02 362.68 170.91 362.46 170.36 C 361.90 170.22 360.77 169.95 360.20 169.82 C 359.57 170.71 358.96 171.61 358.35 172.51 C 358.12 171.96 357.67 170.85 357.45 170.30 C 350.16 170.03 342.84 169.92 335.53 170.26 C 335.30 170.81 334.85 171.90 334.62 172.44 C 333.62 171.46 333.04 169.26 331.32 169.78 C 324.29 170.92 317.13 170.52 310.09 169.72 C 308.40 169.30 306.95 170.23 305.57 171.03 C 302.35 169.11 298.55 169.48 294.99 169.79 C 294.50 170.69 294.01 171.60 293.53 172.50 C 292.64 171.40 292.46 168.78 290.56 169.47 C 289.73 170.43 289.05 171.51 288.34 172.56 C 288.11 172.00 287.65 170.89 287.42 170.33 C 284.93 169.99 282.40 169.69 279.90 170.05 C 275.37 170.91 270.76 168.60 266.32 170.52 C 264.10 171.67 262.20 169.32 259.95 169.82 C 256.33 170.15 252.69 170.03 249.10 169.52 C 248.52 170.55 247.95 171.58 247.38 172.62 C 247.14 172.04 246.67 170.87 246.43 170.28 C 243.37 170.14 240.18 170.18 237.39 168.73 C 236.84 169.52 236.29 170.32 235.75 171.11 C 231.75 169.39 227.31 169.63 223.27 171.08 C 222.50 170.43 221.73 169.78 220.96 169.13 C 220.17 170.20 219.37 171.26 218.58 172.34 C 216.18 167.55 210.41 170.40 206.42 170.79 C 201.04 169.26 195.49 170.77 190.03 169.95 C 186.20 169.55 182.40 170.36 178.57 170.36 C 178.35 170.89 177.91 171.95 177.69 172.48 C 177.05 171.73 176.45 170.97 175.75 170.30 C 170.22 169.11 164.58 170.62 159.00 170.01 C 156.37 169.48 153.44 172.43 151.48 169.55 C 149.97 170.30 148.41 171.44 146.68 170.53 C 141.89 168.81 136.92 170.65 132.02 170.13 C 129.40 170.13 125.73 169.08 124.61 172.33 C 123.85 171.55 123.33 170.11 121.99 170.31 C 118.09 170.29 114.20 170.01 110.31 169.69 C 109.15 169.52 108.41 170.63 107.52 171.16 C 106.65 170.65 105.78 170.15 104.92 169.64 C 101.65 169.94 98.40 170.66 95.12 170.71 C 91.20 169.88 87.07 169.38 83.31 171.15 C 82.67 170.49 82.03 169.83 81.40 169.18 C 80.35 170.06 79.42 171.06 78.60 172.16 C 76.13 168.58 71.26 170.21 67.65 170.37 C 67.39 170.91 66.88 172.00 66.63 172.55 C 66.22 171.84 65.82 171.13 65.42 170.42 C 62.33 169.84 59.18 169.50 56.04 169.78 C 55.57 170.66 55.11 171.54 54.64 172.43 C 51.70 166.17 44.14 172.65 39.69 168.97 C 38.70 169.43 37.77 170.12 36.65 170.25 C 30.08 170.76 23.51 169.53 16.94 170.28 C 16.95 167.49 17.03 164.71 16.97 161.93 C 25.28 161.90 33.59 161.56 41.88 162.20 Z" />
<path fill="#f1f1f1" d=" M 9.21 165.72 C 11.40 165.68 13.61 165.39 15.47 164.15 C 15.47 171.74 15.59 179.34 15.49 186.94 C 15.60 188.60 15.02 190.74 16.79 191.74 C 17.08 184.59 16.85 177.43 16.94 170.28 C 23.51 169.53 30.08 170.76 36.65 170.25 C 37.77 170.12 38.70 169.43 39.69 168.97 C 44.14 172.65 51.70 166.17 54.64 172.43 C 55.11 171.54 55.57 170.66 56.04 169.78 C 59.18 169.50 62.33 169.84 65.42 170.42 C 65.82 171.13 66.22 171.84 66.63 172.55 C 66.88 172.00 67.39 170.91 67.65 170.37 C 71.26 170.21 76.13 168.58 78.60 172.16 C 79.42 171.06 80.35 170.06 81.40 169.18 C 82.03 169.83 82.67 170.49 83.31 171.15 C 87.07 169.38 91.20 169.88 95.12 170.71 C 98.40 170.66 101.65 169.94 104.92 169.64 C 105.78 170.15 106.65 170.65 107.52 171.16 C 108.41 170.63 109.15 169.52 110.31 169.69 C 114.20 170.01 118.09 170.29 121.99 170.31 C 123.33 170.11 123.85 171.55 124.61 172.33 C 125.73 169.08 129.40 170.13 132.02 170.13 C 136.92 170.65 141.89 168.81 146.68 170.53 C 148.41 171.44 149.97 170.30 151.48 169.55 C 153.44 172.43 156.37 169.48 159.00 170.01 C 164.58 170.62 170.22 169.11 175.75 170.30 C 176.45 170.97 177.05 171.73 177.69 172.48 C 177.91 171.95 178.35 170.89 178.57 170.36 C 182.40 170.36 186.20 169.55 190.03 169.95 C 195.49 170.77 201.04 169.26 206.42 170.79 C 210.41 170.40 216.18 167.55 218.58 172.34 C 219.37 171.26 220.17 170.20 220.96 169.13 C 221.73 169.78 222.50 170.43 223.27 171.08 C 227.31 169.63 231.75 169.39 235.75 171.11 C 236.29 170.32 236.84 169.52 237.39 168.73 C 240.18 170.18 243.37 170.14 246.43 170.28 C 246.67 170.87 247.14 172.04 247.38 172.62 C 247.95 171.58 248.52 170.55 249.10 169.52 C 252.69 170.03 256.33 170.15 259.95 169.82 C 262.20 169.32 264.10 171.67 266.32 170.52 C 270.76 168.60 275.37 170.91 279.90 170.05 C 282.40 169.69 284.93 169.99 287.42 170.33 C 287.65 170.89 288.11 172.00 288.34 172.56 C 289.05 171.51 289.73 170.43 290.56 169.47 C 292.46 168.78 292.64 171.40 293.53 172.50 C 294.01 171.60 294.50 170.69 294.99 169.79 C 298.55 169.48 302.35 169.11 305.57 171.03 C 306.95 170.23 308.40 169.30 310.09 169.72 C 317.13 170.52 324.29 170.92 331.32 169.78 C 333.04 169.26 333.62 171.46 334.62 172.44 C 334.85 171.90 335.30 170.81 335.53 170.26 C 342.84 169.92 350.16 170.03 357.45 170.30 C 357.67 170.85 358.12 171.96 358.35 172.51 C 358.96 171.61 359.57 170.71 360.20 169.82 C 360.77 169.95 361.90 170.22 362.46 170.36 C 362.68 170.91 363.10 172.02 363.31 172.57 C 364.06 171.64 364.48 170.07 365.97 170.24 C 370.09 169.28 374.38 171.99 378.27 169.87 C 382.24 170.21 386.25 170.51 390.24 169.93 C 395.91 170.25 402.13 168.36 407.10 172.03 C 407.11 178.71 407.45 185.41 407.02 192.08 C 406.92 194.70 405.49 196.95 404.28 199.17 C 404.72 199.28 405.60 199.48 406.04 199.59 C 309.04 199.84 212.03 199.62 115.03 199.69 C 79.35 199.65 43.67 199.78 7.98 199.63 C 8.41 199.48 9.27 199.18 9.70 199.03 C 8.64 197.26 7.39 195.50 7.27 193.37 C 6.52 186.95 6.53 180.45 6.81 173.99 C 6.90 171.07 7.75 168.25 9.21 165.72 Z" />
<path fill="#f17700" d=" M 3.17 200.40 C 3.97 199.65 4.77 198.90 5.57 198.16 C 6.18 198.53 7.38 199.26 7.98 199.63 C 43.67 199.78 79.35 199.65 115.03 199.69 C 212.03 199.62 309.04 199.84 406.04 199.59 C 406.60 199.22 407.74 198.50 408.30 198.13 C 409.13 198.82 409.96 199.50 410.79 200.19 C 409.38 201.91 407.35 203.31 405.03 203.20 C 273.01 203.22 140.99 203.20 8.97 203.21 C 6.65 203.39 4.73 201.92 3.17 200.40 Z" />
<path fill="#ebebeb" d=" M 7.50 212.91 C 9.56 210.20 13.12 210.96 16.06 210.89 C 144.74 210.91 273.41 210.90 402.08 210.89 C 404.36 210.64 406.80 212.60 406.64 214.98 C 406.74 217.73 406.62 220.48 406.68 223.23 C 405.95 222.39 405.24 221.55 404.52 220.71 C 356.40 220.49 308.26 220.78 260.14 220.68 C 255.29 220.34 250.48 221.04 245.65 221.19 C 232.34 220.05 218.97 221.08 205.64 220.66 C 151.57 220.59 97.49 220.76 43.44 220.63 C 43.24 221.05 42.84 221.89 42.64 222.30 C 40.97 221.32 39.17 220.46 37.18 220.61 C 28.78 220.84 20.35 220.21 11.98 221.18 C 10.47 221.48 9.01 221.03 7.66 220.36 C 7.67 217.87 7.63 215.39 7.50 212.91 Z" />
<path fill="#b6b7b6" d=" M 7.03 221.95 C 7.05 218.93 6.78 215.87 7.50 212.91 C 7.63 215.39 7.67 217.87 7.66 220.36 C 7.69 223.58 7.74 226.80 7.73 230.02 C 7.71 234.84 7.35 239.72 8.51 244.45 C 48.94 244.69 89.38 244.37 129.81 244.56 C 146.98 244.17 164.17 244.98 181.32 244.27 C 183.67 244.02 186.22 244.44 188.40 243.34 C 189.12 242.40 189.58 241.28 190.07 240.20 C 190.62 238.27 191.00 236.30 191.52 234.36 L 192.27 234.13 C 192.10 237.22 192.24 240.32 192.51 243.40 C 194.83 244.33 197.31 243.64 199.72 243.83 C 199.65 240.61 199.65 237.38 199.70 234.16 L 201.33 234.45 C 201.67 234.75 202.34 235.35 202.68 235.65 C 202.62 238.17 202.65 240.70 202.70 243.23 C 204.03 243.96 205.44 244.62 206.84 243.57 C 206.33 242.69 205.16 242.58 204.41 242.00 C 204.14 239.80 204.22 237.59 204.20 235.39 C 205.60 235.15 207.00 234.92 208.40 234.70 C 208.57 237.50 208.65 240.31 208.70 243.12 C 209.30 243.46 210.49 244.14 211.09 244.48 C 211.72 244.00 212.35 243.53 212.99 243.06 C 210.48 243.13 209.96 241.43 210.24 239.29 C 210.77 239.35 211.83 239.47 212.37 239.53 C 213.02 238.24 213.67 236.96 214.37 235.69 C 213.76 239.09 213.75 243.61 217.98 244.45 C 219.05 243.97 220.12 243.51 221.19 243.05 C 221.73 241.45 222.22 239.83 222.51 238.17 L 224.70 238.31 C 224.71 240.17 224.72 242.03 224.71 243.90 C 225.12 244.01 225.95 244.22 226.36 244.33 C 227.79 244.46 229.24 244.38 230.67 244.27 C 231.10 244.25 231.96 244.20 232.39 244.18 C 238.54 245.01 244.74 244.66 250.92 244.71 C 283.19 244.45 315.47 244.74 347.75 244.55 C 357.06 245.02 366.38 244.44 375.70 244.63 C 378.30 244.68 380.86 243.76 383.46 244.26 C 389.61 245.27 395.89 243.98 402.06 244.95 C 404.44 245.13 405.31 247.74 406.71 249.28 C 406.65 253.14 406.83 257.01 406.55 260.87 L 406.05 260.75 C 404.06 260.30 402.06 259.85 400.03 259.77 C 269.06 259.77 138.09 259.73 7.12 259.78 C 7.16 247.17 7.05 234.56 7.03 221.95 Z" />
<path fill="#dcdcdc" d=" M 7.66 220.36 C 9.01 221.03 10.47 221.48 11.98 221.18 C 20.35 220.21 28.78 220.84 37.18 220.61 C 39.17 220.46 40.97 221.32 42.64 222.30 C 42.84 221.89 43.24 221.05 43.44 220.63 C 97.49 220.76 151.57 220.59 205.64 220.66 C 218.97 221.08 232.34 220.05 245.65 221.19 C 250.48 221.04 255.29 220.34 260.14 220.68 C 308.26 220.78 356.40 220.49 404.52 220.71 C 405.24 221.55 405.95 222.39 406.68 223.23 C 406.68 225.74 406.66 228.25 406.70 230.76 C 399.54 227.43 391.53 230.43 384.02 229.28 C 380.89 228.67 377.80 229.67 374.67 229.66 C 368.99 229.71 363.30 229.44 357.62 229.55 C 352.58 229.57 347.51 229.97 342.51 229.21 C 338.73 228.63 334.99 230.31 331.22 229.41 C 324.68 228.14 318.11 230.56 311.60 229.09 C 303.87 230.36 296.04 229.17 288.26 229.72 C 278.43 229.31 268.57 230.09 258.76 229.19 C 252.50 228.98 246.28 229.86 240.01 229.61 C 235.44 230.04 230.90 228.69 226.36 229.38 C 219.86 230.10 213.33 229.27 206.83 229.63 C 204.02 229.81 201.25 228.67 198.46 229.29 C 194.45 230.19 190.25 229.05 186.34 230.44 C 184.69 230.50 183.03 230.53 181.39 230.31 C 176.43 229.19 171.25 228.88 166.20 229.63 C 160.82 229.33 155.37 228.67 150.00 229.60 C 146.84 230.15 143.72 228.61 140.57 229.29 C 134.99 230.34 129.31 229.27 123.68 229.58 C 119.10 229.95 114.54 228.62 109.98 229.42 C 107.20 229.92 104.41 229.38 101.64 229.18 C 94.06 230.04 86.44 229.30 78.84 229.59 C 66.86 229.33 54.83 230.17 42.90 229.10 C 39.08 229.82 35.26 229.49 31.43 229.15 C 27.67 229.76 23.89 229.64 20.12 229.17 C 15.99 229.42 11.86 229.69 7.73 230.02 C 7.74 226.80 7.69 223.58 7.66 220.36 Z" />
<path fill="#c9c9c9" d=" M 7.73 230.02 C 11.86 229.69 15.99 229.42 20.12 229.17 C 23.89 229.64 27.67 229.76 31.43 229.15 C 35.26 229.49 39.08 229.82 42.90 229.10 C 54.83 230.17 66.86 229.33 78.84 229.59 C 86.44 229.30 94.06 230.04 101.64 229.18 C 104.41 229.38 107.20 229.92 109.98 229.42 C 114.54 228.62 119.10 229.95 123.68 229.58 C 129.31 229.27 134.99 230.34 140.57 229.29 C 143.72 228.61 146.84 230.15 150.00 229.60 C 155.37 228.67 160.82 229.33 166.20 229.63 C 171.25 228.88 176.43 229.19 181.39 230.31 C 181.28 234.96 181.32 239.61 181.32 244.27 C 164.17 244.98 146.98 244.17 129.81 244.56 C 89.38 244.37 48.94 244.69 8.51 244.45 C 7.35 239.72 7.71 234.84 7.73 230.02 Z" />
<path fill="#cfcfcf" d=" M 198.46 229.29 C 201.25 228.67 204.02 229.81 206.83 229.63 C 213.33 229.27 219.86 230.10 226.36 229.38 C 230.90 228.69 235.44 230.04 240.01 229.61 C 246.28 229.86 252.50 228.98 258.76 229.19 C 268.57 230.09 278.43 229.31 288.26 229.72 C 296.04 229.17 303.87 230.36 311.60 229.09 C 318.11 230.56 324.68 228.14 331.22 229.41 C 334.99 230.31 338.73 228.63 342.51 229.21 C 347.51 229.97 352.58 229.57 357.62 229.55 C 363.30 229.44 368.99 229.71 374.67 229.66 C 377.80 229.67 380.89 228.67 384.02 229.28 C 391.53 230.43 399.54 227.43 406.70 230.76 C 406.67 233.28 406.67 235.81 406.70 238.33 C 405.93 237.44 405.17 236.56 404.42 235.68 C 402.16 235.93 399.89 236.16 397.62 235.92 C 393.08 235.41 388.54 236.28 384.00 235.89 C 376.63 235.29 369.24 236.50 361.88 235.70 C 350.83 236.30 339.77 235.56 328.71 235.83 C 323.25 236.57 317.81 235.25 312.34 235.77 C 304.93 236.46 297.52 235.46 290.11 235.77 C 275.07 236.36 260.02 235.23 245.00 236.18 C 240.77 235.99 236.53 235.45 232.31 236.03 C 230.94 232.82 227.30 234.85 224.77 233.98 C 224.73 235.42 224.69 236.86 224.70 238.31 L 222.51 238.17 C 221.80 235.91 220.33 234.19 217.97 233.59 C 216.74 234.25 215.52 234.91 214.37 235.69 C 213.67 236.96 213.02 238.24 212.37 239.53 C 211.83 239.47 210.77 239.35 210.24 239.29 C 210.25 238.35 210.29 236.48 210.30 235.55 C 211.25 235.29 212.21 235.04 213.17 234.80 C 211.84 234.18 210.57 233.48 209.64 232.33 C 208.22 233.98 206.56 234.89 204.36 233.95 C 204.32 233.36 204.25 232.19 204.21 231.60 C 203.28 232.58 202.35 233.55 201.33 234.45 L 199.70 234.16 C 199.34 234.10 198.60 233.98 198.24 233.92 C 198.19 236.76 198.40 239.73 197.26 242.41 C 196.62 242.48 195.36 242.61 194.73 242.68 C 192.92 240.07 193.93 236.69 193.65 233.73 C 193.31 233.83 192.62 234.03 192.27 234.13 L 191.52 234.36 C 191.00 236.30 190.62 238.27 190.07 240.20 C 189.45 239.21 188.84 238.21 188.23 237.22 C 188.98 235.52 189.42 233.71 189.15 231.85 C 188.22 231.37 187.28 230.90 186.34 230.44 C 190.25 229.05 194.45 230.19 198.46 229.29 Z" />
<path fill="#020402" d=" M 181.39 230.31 C 183.03 230.53 184.69 230.50 186.34 230.44 C 187.28 230.90 188.22 231.37 189.15 231.85 C 189.42 233.71 188.98 235.52 188.23 237.22 C 188.84 238.21 189.45 239.21 190.07 240.20 C 189.58 241.28 189.12 242.40 188.40 243.34 C 186.22 244.44 183.67 244.02 181.32 244.27 C 181.32 239.61 181.28 234.96 181.39 230.31 Z" />
<path fill="#cecdce" d=" M 183.16 231.66 C 184.65 231.75 186.11 232.09 187.54 232.56 C 187.54 233.87 187.53 235.18 187.52 236.50 C 186.03 236.49 184.55 236.50 183.07 236.52 C 183.04 234.90 183.06 233.27 183.16 231.66 Z" />
<path fill="#181818" d=" M 201.33 234.45 C 202.35 233.55 203.28 232.58 204.21 231.60 C 204.25 232.19 204.32 233.36 204.36 233.95 C 206.56 234.89 208.22 233.98 209.64 232.33 C 210.57 233.48 211.84 234.18 213.17 234.80 C 212.21 235.04 211.25 235.29 210.30 235.55 C 210.29 236.48 210.25 238.35 210.24 239.29 C 209.96 241.43 210.48 243.13 212.99 243.06 C 212.35 243.53 211.72 244.00 211.09 244.48 C 210.49 244.14 209.30 243.46 208.70 243.12 C 208.65 240.31 208.57 237.50 208.40 234.70 C 207.00 234.92 205.60 235.15 204.20 235.39 C 204.22 237.59 204.14 239.80 204.41 242.00 C 205.16 242.58 206.33 242.69 206.84 243.57 C 205.44 244.62 204.03 243.96 202.70 243.23 C 202.65 240.70 202.62 238.17 202.68 235.65 C 202.34 235.35 201.67 234.75 201.33 234.45 Z" />
<path fill="#181a18" d=" M 192.27 234.13 C 192.62 234.03 193.31 233.83 193.65 233.73 C 193.93 236.69 192.92 240.07 194.73 242.68 C 195.36 242.61 196.62 242.48 197.26 242.41 C 198.40 239.73 198.19 236.76 198.24 233.92 C 198.60 233.98 199.34 234.10 199.70 234.16 C 199.65 237.38 199.65 240.61 199.72 243.83 C 197.31 243.64 194.83 244.33 192.51 243.40 C 192.24 240.32 192.10 237.22 192.27 234.13 Z" />
<path fill="#0d0e0d" d=" M 214.37 235.69 C 215.52 234.91 216.74 234.25 217.97 233.59 C 220.33 234.19 221.80 235.91 222.51 238.17 C 222.22 239.83 221.73 241.45 221.19 243.05 C 220.12 243.51 219.05 243.97 217.98 244.45 C 213.75 243.61 213.76 239.09 214.37 235.69 Z" />
<path fill="#171817" d=" M 224.70 238.31 C 224.69 236.86 224.73 235.42 224.77 233.98 C 227.30 234.85 230.94 232.82 232.31 236.03 C 232.39 238.75 232.38 241.46 232.39 244.18 C 231.96 244.20 231.10 244.25 230.67 244.27 C 230.18 241.33 232.00 237.05 229.17 235.11 C 228.57 235.26 227.36 235.58 226.75 235.73 C 226.24 238.57 226.35 241.46 226.36 244.33 C 225.95 244.22 225.12 244.01 224.71 243.90 C 224.72 242.03 224.71 240.17 224.70 238.31 Z" />
<path fill="#c3c3c3" d=" M 232.31 236.03 C 236.53 235.45 240.77 235.99 245.00 236.18 C 260.02 235.23 275.07 236.36 290.11 235.77 C 297.52 235.46 304.93 236.46 312.34 235.77 C 317.81 235.25 323.25 236.57 328.71 235.83 C 339.77 235.56 350.83 236.30 361.88 235.70 C 369.24 236.50 376.63 235.29 384.00 235.89 C 388.54 236.28 393.08 235.41 397.62 235.92 C 399.89 236.16 402.16 235.93 404.42 235.68 C 405.17 236.56 405.93 237.44 406.70 238.33 C 406.71 241.98 406.63 245.63 406.71 249.28 C 405.31 247.74 404.44 245.13 402.06 244.95 C 395.89 243.98 389.61 245.27 383.46 244.26 C 380.86 243.76 378.30 244.68 375.70 244.63 C 366.38 244.44 357.06 245.02 347.75 244.55 C 315.47 244.74 283.19 244.45 250.92 244.71 C 244.74 244.66 238.54 245.01 232.39 244.18 C 232.38 241.46 232.39 238.75 232.31 236.03 Z" />
<path fill="#c8c6c8" d=" M 216.78 242.72 C 214.61 240.51 214.91 234.37 219.12 235.47 C 221.51 236.93 220.24 240.02 220.26 242.27 C 219.39 242.38 217.65 242.60 216.78 242.72 Z" />
<path fill="#c3c4c3" d=" M 226.75 235.73 C 227.36 235.58 228.57 235.26 229.17 235.11 C 232.00 237.05 230.18 241.33 230.67 244.27 C 229.24 244.38 227.79 244.46 226.36 244.33 C 226.35 241.46 226.24 238.57 226.75 235.73 Z" />
<path fill="#c3c3c3" d=" M 183.13 237.62 C 185.09 237.69 187.46 237.80 188.34 239.92 C 188.09 240.55 187.58 241.81 187.33 242.44 C 185.91 242.56 184.49 242.66 183.07 242.77 C 183.02 241.05 183.04 239.33 183.13 237.62 Z" />
<path fill="#d0d0d0" d=" M 7.12 259.78 C 138.09 259.73 269.06 259.77 400.03 259.77 C 402.06 259.85 404.06 260.30 406.05 260.75 C 405.38 262.35 403.76 263.19 402.08 262.99 C 272.05 263.00 142.01 262.99 11.98 263.00 C 9.67 263.42 8.03 261.67 7.12 259.78 Z" />
<path fill="#fafafa" d=" M 2.05 270.65 C 138.63 270.65 275.22 270.64 411.80 270.66 C 411.81 295.11 411.78 319.55 411.80 344.00 L 2.04 344.00 C 2.05 319.55 2.04 295.10 2.05 270.65 Z" />
<path fill="#141414" d=" M 24.77 285.28 L 26.47 284.96 C 26.60 290.15 26.53 295.35 26.52 300.54 L 24.72 300.52 C 24.75 295.44 24.61 290.36 24.77 285.28 Z" />
<path fill="#0c0d0c" d=" M 77.90 285.10 C 78.35 285.12 79.26 285.15 79.71 285.17 C 79.72 286.95 79.73 288.74 79.73 290.54 C 81.33 289.15 84.02 288.83 85.54 290.51 C 87.10 291.53 86.05 293.82 87.37 295.00 C 86.16 296.80 86.78 299.66 84.14 300.46 C 83.11 300.34 81.04 300.09 80.01 299.97 C 81.17 299.23 82.49 298.64 83.91 298.75 C 85.59 296.51 85.55 293.34 83.90 291.09 C 83.16 291.11 81.67 291.15 80.92 291.17 C 80.62 291.56 80.02 292.33 79.72 292.72 C 79.55 294.39 79.76 295.99 80.36 297.52 C 80.11 298.93 79.33 300.09 78.23 300.98 C 77.52 295.72 78.04 290.39 77.90 285.10 Z" />
<path fill="#141514" d=" M 130.62 285.14 L 132.42 285.14 C 132.45 290.27 132.44 295.40 132.42 300.54 L 130.62 300.53 C 130.61 295.40 130.60 290.27 130.62 285.14 Z" />
<path fill="#0c0d0c" d=" M 235.75 285.07 C 236.19 285.12 237.09 285.22 237.54 285.27 C 237.43 290.15 237.60 295.05 237.46 299.94 C 237.46 301.67 235.74 299.90 235.43 299.26 C 234.15 300.27 232.56 300.98 230.93 300.31 C 227.29 298.13 227.35 291.91 230.88 289.64 C 232.58 289.01 234.37 289.55 235.69 290.70 C 235.69 288.82 235.71 286.94 235.75 285.07 Z" />
<path fill="#0a0d0a" d=" M 247.07 285.08 C 247.50 285.10 248.36 285.14 248.79 285.16 C 248.81 287.03 248.82 288.90 248.82 290.79 C 250.69 288.95 254.23 288.77 255.49 291.38 C 255.86 294.43 255.61 297.51 255.63 300.58 C 255.19 300.55 254.30 300.51 253.86 300.48 C 253.88 297.43 253.97 294.37 253.65 291.33 C 252.67 291.30 250.70 291.26 249.71 291.24 C 248.37 294.25 248.96 297.57 248.67 300.76 C 248.25 300.66 247.41 300.45 246.98 300.34 C 247.06 295.26 246.96 290.17 247.07 285.08 Z" />
<path fill="#090a09" d=" M 288.05 285.09 C 288.48 285.11 289.34 285.14 289.77 285.15 C 289.76 290.34 289.86 295.53 289.70 300.72 C 288.47 300.85 287.90 300.31 288.01 299.11 C 287.97 294.44 287.98 289.76 288.05 285.09 Z" />
<path fill="#2d2e2d" d=" M 293.02 285.10 C 293.53 285.11 294.56 285.11 295.07 285.12 C 295.03 290.11 295.18 295.11 295.02 300.11 C 294.58 300.31 293.70 300.70 293.26 300.90 C 292.70 295.66 293.11 290.37 293.02 285.10 Z" />
<path fill="#090a09" d=" M 337.60 285.17 C 338.05 285.17 338.95 285.17 339.40 285.18 C 339.34 290.40 339.49 295.63 339.30 300.85 C 338.54 300.31 337.78 299.77 337.04 299.23 C 335.65 301.61 331.87 300.58 331.00 298.25 C 329.57 295.02 330.46 289.00 335.04 289.41 C 335.67 289.69 336.94 290.25 337.57 290.53 C 337.57 288.74 337.58 286.95 337.60 285.17 Z" />
<path fill="#020402" d=" M 14.32 286.02 C 16.88 285.97 19.46 285.96 22.02 286.16 C 21.92 289.02 18.12 287.11 16.35 287.60 C 16.28 289.08 16.23 290.56 16.20 292.05 C 17.97 292.09 19.74 292.12 21.52 292.18 L 21.58 293.65 C 19.80 293.68 18.02 293.70 16.24 293.72 C 16.24 295.42 16.24 297.13 16.24 298.84 C 18.03 298.83 19.83 298.83 21.62 298.83 L 21.79 300.51 C 19.31 300.53 16.83 300.53 14.35 300.54 C 14.30 295.70 14.35 290.86 14.32 286.02 Z" />
<path fill="#1d1d1d" d=" M 35.77 289.30 C 38.15 290.52 40.76 288.63 43.11 289.85 C 45.72 292.74 44.16 297.06 44.52 300.58 C 44.07 300.57 43.16 300.56 42.71 300.55 C 42.65 297.71 42.86 294.86 42.53 292.04 C 41.57 290.21 39.04 290.21 38.11 292.04 C 37.34 294.81 37.73 297.73 37.63 300.57 C 37.16 300.55 36.21 300.51 35.74 300.48 C 35.74 296.75 35.72 293.03 35.77 289.30 Z" />
<path fill="#020302" d=" M 50.49 289.58 C 55.54 287.97 58.59 295.00 55.68 298.60 C 54.26 300.96 50.49 301.29 48.72 299.18 C 46.09 296.52 46.71 290.85 50.49 289.58 Z" />
<path fill="#0c0d0c" d=" M 59.53 290.04 C 59.57 288.11 61.57 290.34 61.89 291.04 C 62.49 288.63 65.59 289.27 67.10 290.30 C 68.44 291.26 69.53 288.95 71.01 289.39 C 72.61 289.21 74.22 290.52 74.39 292.11 C 74.65 294.91 74.49 297.73 74.50 300.54 C 74.05 300.53 73.16 300.52 72.72 300.52 C 72.69 297.67 72.88 294.81 72.54 291.98 C 71.69 290.61 70.49 290.24 68.96 290.88 C 67.25 293.32 68.01 296.38 67.82 299.15 C 67.99 300.40 67.49 300.90 66.33 300.68 C 64.86 297.39 67.93 292.28 64.01 290.33 C 63.42 290.68 62.24 291.38 61.65 291.73 C 61.16 294.61 61.24 297.54 61.28 300.46 C 60.84 300.49 59.96 300.56 59.51 300.60 C 59.50 297.08 59.40 293.56 59.53 290.04 Z" />
<path fill="#090a09" d=" M 89.95 295.96 C 90.30 293.62 89.09 290.63 91.05 288.84 C 91.25 289.38 91.64 290.46 91.84 290.99 C 92.99 289.99 94.31 289.29 95.85 289.19 C 95.85 289.65 95.84 290.58 95.84 291.05 C 95.06 291.15 93.50 291.36 92.71 291.46 C 92.48 292.04 92.01 293.21 91.78 293.79 C 91.75 296.09 91.73 298.41 91.67 300.72 C 88.99 300.94 90.24 297.55 89.95 295.96 Z" />
<path fill="#181a18" d=" M 99.03 290.04 C 102.80 287.64 107.25 291.19 106.27 295.30 C 103.95 295.30 101.63 295.30 99.30 295.33 C 99.67 296.21 100.41 297.96 100.78 298.84 C 102.48 298.80 104.18 298.72 105.88 298.57 C 105.74 299.01 105.46 299.88 105.33 300.32 C 103.16 300.56 100.51 301.09 98.96 299.11 C 96.58 297.14 97.82 293.75 97.90 291.16 C 98.57 291.98 99.22 292.82 99.85 293.68 C 101.48 293.67 103.11 293.59 104.73 293.43 C 104.21 290.37 100.81 291.73 99.03 290.04 Z" />
<path fill="#111211" d=" M 113.56 289.72 C 113.99 289.57 114.85 289.29 115.28 289.14 C 116.53 292.36 117.56 295.67 118.52 298.99 C 119.49 295.70 120.47 292.41 121.70 289.21 C 122.16 289.34 123.07 289.60 123.53 289.72 C 120.98 294.75 120.32 300.60 117.23 305.37 C 116.11 305.44 113.59 306.42 113.58 304.64 C 115.37 303.97 117.84 303.45 117.50 300.95 C 116.62 297.11 115.05 293.38 113.56 289.72 Z" />
<path fill="#151615" d=" M 135.65 291.35 C 136.39 288.84 139.43 289.24 141.42 289.67 C 144.75 292.28 142.60 297.34 143.07 300.97 C 142.61 300.52 141.70 299.62 141.24 299.17 C 139.05 301.80 134.70 300.63 134.61 297.04 C 134.86 296.47 135.37 295.32 135.62 294.75 C 137.34 293.46 139.47 293.56 141.50 293.55 C 141.72 289.96 137.86 291.37 135.65 291.35 Z" />
<path fill="#000000" d=" M 152.44 289.08 C 153.36 289.39 154.05 289.99 154.53 290.88 C 155.39 289.16 157.55 289.22 159.08 289.74 C 162.36 292.18 162.31 297.85 159.02 300.27 C 157.29 300.93 155.49 300.34 154.12 299.22 C 153.47 301.17 155.59 305.85 152.35 305.81 C 152.32 300.23 152.17 294.65 152.44 289.08 Z" />
<path fill="#1c201c" d=" M 164.22 291.31 C 164.88 288.79 168.20 289.20 170.19 289.71 C 173.18 292.45 171.44 297.09 171.77 300.65 C 170.23 300.05 168.63 300.17 167.05 300.50 C 163.91 301.36 162.07 296.49 164.44 294.65 C 165.97 293.17 168.30 293.76 170.20 293.39 C 169.96 289.92 166.46 291.45 164.22 291.31 Z" />
<path fill="#0c0d0c" d=" M 174.80 294.11 C 172.63 289.75 179.90 287.47 181.88 291.13 C 179.98 291.17 178.07 291.17 176.17 291.22 C 175.95 294.21 179.65 294.34 181.50 295.77 C 181.47 296.92 181.45 298.07 181.43 299.22 C 179.47 300.68 174.83 301.80 174.20 298.66 C 176.07 298.81 177.95 298.86 179.82 298.70 C 180.39 295.61 176.79 295.29 174.80 294.11 Z" />
<path fill="#1e211e" d=" M 184.91 289.87 C 186.64 289.05 188.59 289.44 190.39 289.74 C 190.46 290.14 190.58 290.93 190.64 291.33 C 188.91 291.18 187.16 291.14 185.43 291.31 C 185.32 294.20 189.06 294.25 190.79 295.86 C 192.60 300.46 184.56 302.68 183.20 298.66 C 185.11 298.75 187.02 298.82 188.94 298.81 C 189.77 295.58 185.72 295.33 183.81 293.98 C 183.66 292.52 183.62 290.86 184.91 289.87 Z" />
<path fill="#1f201f" d=" M 192.27 289.13 C 195.50 289.76 194.42 294.51 195.46 296.93 C 195.76 296.84 196.37 296.67 196.67 296.58 C 195.58 294.10 198.15 293.95 199.38 295.09 C 196.95 295.58 197.84 298.63 197.17 300.41 C 196.37 300.46 195.57 300.52 194.78 300.58 C 193.92 296.77 192.35 293.08 192.27 289.13 Z" />
<path fill="#2b2d2b" d=" M 198.16 292.80 C 197.13 290.93 198.18 288.80 200.43 289.28 C 201.25 291.98 201.68 294.85 203.06 297.35 C 203.61 294.75 204.19 292.16 204.80 289.58 C 205.30 289.50 206.31 289.32 206.82 289.24 C 206.08 293.02 204.88 296.69 204.20 300.48 C 203.28 300.46 201.70 301.14 201.62 299.65 C 201.18 297.06 199.22 294.38 200.28 291.78 C 199.62 292.25 198.92 292.59 198.16 292.80 Z" />
<path fill="#1b1d1b" d=" M 211.41 289.63 C 215.75 287.87 219.05 293.20 217.57 296.98 C 216.99 300.83 211.38 301.92 209.29 298.66 C 207.55 295.88 207.86 290.89 211.41 289.63 Z" />
<path fill="#020402" d=" M 220.65 289.17 C 221.75 289.53 222.44 290.29 222.73 291.45 C 223.22 289.59 225.03 289.39 226.58 289.31 C 226.54 289.76 226.48 290.66 226.45 291.11 C 225.80 291.12 224.51 291.13 223.86 291.14 C 221.43 293.65 222.61 297.36 222.36 300.50 C 221.92 300.51 221.04 300.53 220.60 300.55 C 220.60 296.75 220.54 292.96 220.65 289.17 Z" />
<path fill="#171717" d=" M 258.82 291.04 C 260.55 288.48 265.76 288.61 266.48 291.98 C 266.67 295.04 266.87 298.16 266.19 301.17 C 265.72 300.63 264.79 299.54 264.32 298.99 C 262.53 302.66 256.74 299.65 258.40 296.04 C 259.24 293.11 262.63 293.63 264.98 293.52 C 264.96 289.85 261.09 291.62 258.82 291.04 Z" />
<path fill="#121212" d=" M 269.91 289.33 C 272.65 290.69 276.83 287.73 278.33 291.44 C 279.03 294.40 278.56 297.53 278.64 300.56 C 278.19 300.56 277.28 300.56 276.83 300.56 C 276.79 297.69 276.97 294.81 276.68 291.96 C 275.74 290.77 274.51 290.35 272.99 290.69 C 271.06 293.66 272.08 297.32 271.73 300.64 C 271.27 300.59 270.36 300.51 269.90 300.47 C 269.89 296.76 269.90 293.04 269.91 289.33 Z" />
<path fill="#121512" d=" M 311.42 289.58 C 313.64 289.16 315.92 289.42 318.16 289.43 C 317.82 290.32 317.22 290.99 316.38 291.47 C 316.94 293.08 316.74 295.44 314.88 296.11 C 313.40 296.46 310.62 296.27 311.23 298.75 C 313.32 298.72 315.47 298.72 317.38 299.70 C 317.98 301.17 318.33 302.88 317.14 304.18 C 314.77 306.38 310.85 306.16 308.39 304.21 C 308.38 302.65 308.21 300.94 309.79 300.02 C 309.56 298.56 309.68 297.14 310.65 295.96 C 308.34 294.57 308.71 290.35 311.42 289.58 Z" />
<path fill="#0d0e0d" d=" M 320.04 291.25 C 320.88 288.68 324.04 289.48 326.07 289.70 C 326.40 290.17 327.08 291.11 327.41 291.58 C 327.49 294.67 327.51 297.77 327.36 300.86 C 326.64 300.33 325.93 299.79 325.23 299.26 C 324.14 300.94 321.68 300.92 320.18 299.83 C 318.98 298.44 319.53 296.54 319.71 294.91 C 320.26 294.62 321.37 294.03 321.92 293.74 C 323.18 293.68 324.45 293.63 325.72 293.59 C 325.68 293.02 325.58 291.87 325.54 291.30 C 323.71 291.14 321.86 291.16 320.04 291.25 Z" />
<path fill="#020302" d=" M 342.60 292.63 C 343.81 290.88 345.47 288.89 347.87 289.45 C 353.42 290.03 353.49 299.92 347.93 300.50 C 345.48 301.09 343.79 299.06 342.63 297.24 C 342.63 295.70 342.62 294.16 342.60 292.63 Z" />
<path fill="#131413" d=" M 300.93 300.32 C 296.38 298.40 296.86 290.01 302.01 289.41 C 305.30 288.82 307.22 292.46 306.68 295.30 C 304.41 295.29 302.15 295.29 299.89 295.29 C 299.35 299.47 303.86 299.03 306.63 298.68 C 305.69 301.08 302.96 300.70 300.93 300.32 Z" />
<path fill="#fbfbfb" d=" M 50.24 298.68 C 48.12 296.38 48.34 291.33 51.95 290.56 C 56.73 291.42 55.69 301.08 50.24 298.68 Z" />
<path fill="#fbfbfb" d=" M 154.89 290.80 C 155.75 290.76 157.45 290.67 158.30 290.63 C 159.97 293.05 160.01 296.18 158.64 298.76 C 157.35 298.78 156.06 298.75 154.77 298.69 C 153.89 296.12 153.82 293.33 154.89 290.80 Z" />
<path fill="#fbfbfb" d=" M 211.32 291.43 C 212.55 290.84 214.18 290.94 215.25 291.84 C 216.02 293.87 216.00 296.19 215.21 298.22 C 213.79 299.22 210.79 299.33 210.44 297.16 C 210.39 295.31 209.67 292.76 211.32 291.43 Z" />
<path fill="#fbfbfb" d=" M 230.59 297.56 C 229.81 295.43 229.66 290.94 232.91 291.09 C 236.62 291.00 235.71 296.04 235.25 298.42 C 233.75 298.73 231.21 299.60 230.59 297.56 Z" />
<path fill="#fafafa" d=" M 299.84 293.68 C 299.67 291.32 302.11 290.77 303.96 291.16 C 304.28 291.98 304.60 292.80 304.92 293.62 C 303.22 293.65 301.53 293.67 299.84 293.68 Z" />
<path fill="#e5e6e5" d=" M 311.29 291.23 C 313.97 288.90 316.08 293.14 314.32 295.28 C 311.60 296.51 310.01 293.39 311.29 291.23 Z" />
<path fill="#f9f9f9" d=" M 332.46 291.89 C 333.98 290.83 335.85 290.96 337.43 291.82 C 337.55 293.98 337.55 296.14 337.42 298.30 C 335.80 298.96 334.11 298.99 332.51 298.28 C 332.33 296.15 332.33 294.01 332.46 291.89 Z" />
<path fill="#fbfbfb" d=" M 344.77 291.97 C 345.95 290.67 347.79 291.22 349.30 291.31 C 350.63 293.64 350.56 296.36 349.29 298.69 C 347.70 298.93 346.11 298.86 344.64 298.20 C 344.48 296.14 344.02 293.97 344.77 291.97 Z" />
<path fill="#fafafa" d=" M 137.58 295.39 C 138.72 294.75 139.97 294.50 141.33 294.64 C 141.29 296.17 141.27 299.21 138.96 298.87 C 136.62 299.76 136.08 296.41 137.58 295.39 Z" />
<path fill="#fbfbfb" d=" M 165.38 297.60 C 164.93 295.34 167.89 294.46 169.64 294.53 C 169.83 295.87 169.65 297.21 169.40 298.53 C 168.07 298.59 165.67 299.63 165.38 297.60 Z" />
<path fill="#fafafa" d=" M 260.68 299.00 C 258.87 296.07 261.96 294.27 264.60 294.51 C 264.71 295.81 264.53 297.11 264.27 298.39 C 263.08 298.63 261.88 298.83 260.68 299.00 Z" />
<path fill="#e8e8e8" d=" M 321.47 299.03 C 320.15 296.02 322.66 293.96 325.64 294.56 C 325.61 295.49 325.55 297.36 325.52 298.29 C 324.21 298.73 322.85 298.98 321.47 299.03 Z" />
<path fill="#020302" d=" M 354.63 298.27 C 355.16 298.23 356.21 298.15 356.73 298.10 C 356.39 299.77 355.84 301.38 355.28 302.99 C 354.82 302.87 353.90 302.64 353.44 302.52 C 353.68 302.22 354.17 301.63 354.41 301.33 C 354.46 300.56 354.58 299.04 354.63 298.27 Z" />
<path fill="#f3f3f3" d=" M 310.41 300.54 C 312.37 300.91 317.08 299.29 316.05 302.91 C 314.20 305.54 308.26 304.58 310.41 300.54 Z" />
<path fill="#393b39" d=" M 97.26 309.31 C 98.72 308.16 99.84 309.89 99.32 311.21 C 98.85 311.26 97.92 311.35 97.45 311.40 C 97.40 310.88 97.31 309.83 97.26 309.31 Z" />
<path fill="#393b39" d=" M 211.08 309.04 C 212.59 307.74 214.26 310.41 212.71 311.40 C 211.30 312.49 209.73 310.05 211.08 309.04 Z" />
<path fill="#000000" d=" M 204.05 313.36 C 204.51 312.36 204.97 311.36 205.44 310.36 C 205.71 312.41 206.45 313.98 208.75 313.41 C 208.74 313.70 208.74 314.29 208.73 314.58 C 208.09 314.59 206.80 314.60 206.15 314.60 C 206.14 317.29 205.96 319.99 206.35 322.67 C 206.92 322.71 208.08 322.80 208.66 322.84 C 208.63 323.25 208.58 324.08 208.55 324.50 C 207.01 324.50 204.98 324.48 204.50 322.62 C 204.18 319.92 204.47 317.19 204.19 314.48 C 201.64 314.70 199.10 314.98 196.57 315.41 C 195.58 317.73 195.61 320.28 196.72 322.56 C 198.40 322.67 200.09 322.70 201.79 322.73 C 201.04 325.18 197.99 324.63 196.23 323.84 C 193.57 321.91 193.42 317.80 194.99 315.14 C 197.10 312.14 201.05 314.00 204.05 313.36 Z" />
<path fill="#000000" d=" M 276.62 314.09 C 278.59 313.76 278.63 311.51 280.36 310.87 C 280.36 311.48 280.36 312.69 280.36 313.30 C 281.01 313.31 282.32 313.35 282.97 313.37 C 282.96 313.67 282.94 314.28 282.93 314.59 C 282.29 314.59 281.02 314.61 280.39 314.62 C 280.37 317.29 280.24 319.97 280.54 322.64 C 281.10 322.69 282.22 322.78 282.79 322.82 C 282.77 323.25 282.74 324.09 282.72 324.51 C 281.80 324.43 280.89 324.35 279.98 324.27 C 279.64 323.81 278.96 322.90 278.62 322.45 C 278.58 319.90 278.68 317.35 278.55 314.80 C 278.07 314.63 277.10 314.27 276.62 314.09 Z" />
<path fill="#1b1e1b" d=" M 13.88 318.15 C 11.61 314.16 17.17 311.80 20.14 313.94 C 20.14 314.30 20.15 315.02 20.16 315.38 C 18.54 315.41 15.92 313.89 15.10 315.93 C 15.86 318.71 21.39 318.13 20.53 321.91 C 19.88 325.17 16.15 324.47 13.70 324.34 C 13.49 323.87 13.09 322.92 12.89 322.44 C 14.83 322.30 18.76 324.14 18.91 320.98 C 17.45 319.69 15.60 318.99 13.88 318.15 Z" />
<path fill="#0d0e0d" d=" M 23.81 314.89 C 25.70 312.49 29.91 312.80 31.33 315.55 C 33.81 319.38 31.00 325.74 25.91 324.44 C 25.39 324.09 24.35 323.41 23.82 323.06 C 22.41 320.62 21.77 317.17 23.81 314.89 Z" />
<path fill="#1b1b1b" d=" M 34.79 313.33 C 37.46 314.71 41.37 311.63 43.14 314.90 C 44.15 317.99 43.56 321.34 43.60 324.54 C 43.14 324.49 42.21 324.39 41.75 324.34 C 41.72 321.56 41.89 318.78 41.62 316.02 C 41.08 313.90 37.66 314.28 37.16 316.18 C 36.18 318.84 37.47 322.05 36.30 324.50 L 34.78 324.31 C 34.81 320.65 34.79 316.99 34.79 313.33 Z" />
<path fill="#101010" d=" M 52.50 312.99 C 53.30 313.41 54.03 313.93 54.70 314.55 C 55.88 313.13 57.68 313.22 59.32 313.49 C 63.32 316.56 62.02 325.98 55.80 324.32 L 54.56 322.86 C 54.08 325.04 54.19 327.28 54.23 329.50 C 53.78 329.53 52.88 329.60 52.43 329.63 C 52.39 324.09 52.28 318.53 52.50 312.99 Z" />
<path fill="#020402" d=" M 64.44 313.18 C 66.96 314.41 70.38 312.06 72.26 314.70 C 75.06 318.10 73.30 325.67 67.89 324.39 C 67.48 324.04 66.68 323.34 66.28 322.98 C 65.57 325.22 67.56 329.19 64.58 329.94 C 64.16 324.36 64.42 318.76 64.44 313.18 Z" />
<path fill="#0a0d0a" d=" M 80.32 313.35 C 80.78 313.34 81.70 313.33 82.16 313.32 C 83.11 316.53 84.33 319.66 85.39 322.84 C 86.15 319.81 87.00 316.80 87.98 313.83 C 88.50 313.65 89.53 313.28 90.05 313.10 C 88.26 318.03 87.03 323.21 84.79 327.96 C 84.11 329.92 81.76 329.55 80.15 329.41 C 81.29 327.59 84.63 327.77 84.31 324.82 C 83.33 320.90 81.48 317.23 80.32 313.35 Z" />
<path fill="#2f302f" d=" M 97.32 313.25 C 97.81 313.28 98.79 313.34 99.28 313.37 C 98.74 318.63 100.45 324.34 98.20 329.28 C 96.69 329.57 94.83 330.33 94.59 328.11 C 95.15 327.98 96.27 327.71 96.83 327.58 C 97.91 322.96 96.97 318.00 97.32 313.25 Z" />
<path fill="#2f302f" d=" M 102.31 313.26 C 102.81 313.28 103.81 313.34 104.30 313.36 C 104.25 316.39 104.23 319.42 104.48 322.45 C 108.92 324.47 109.90 318.88 108.87 315.83 C 109.06 315.09 109.43 313.60 109.62 312.86 L 111.13 313.76 C 111.28 317.26 111.23 320.77 111.15 324.28 L 109.83 324.51 L 109.12 323.33 C 107.35 324.82 104.29 325.18 102.81 323.11 C 101.78 319.94 102.40 316.52 102.31 313.26 Z" />
<path fill="#363736" d=" M 114.83 315.22 C 113.86 313.31 117.91 312.98 119.15 313.22 C 124.27 314.41 121.65 321.15 122.17 324.84 C 120.05 321.70 116.02 326.89 114.00 322.94 C 112.20 318.91 116.55 316.58 120.00 317.36 C 120.59 313.74 116.97 315.42 114.83 315.22 Z" />
<path fill="#2a2a2a" d=" M 125.50 313.13 C 126.06 313.32 127.17 313.68 127.72 313.87 C 129.50 313.06 131.45 313.09 133.21 313.91 C 135.08 317.14 134.06 320.98 134.28 324.52 C 133.49 324.40 132.70 324.28 131.90 324.16 C 131.87 321.16 132.14 318.13 131.70 315.15 C 125.83 312.95 127.62 321.15 127.39 324.42 C 126.91 324.43 125.95 324.45 125.47 324.46 C 125.43 320.68 125.41 316.91 125.50 313.13 Z" />
<path fill="#0c0d0c" d=" M 143.51 313.17 C 144.26 313.43 145.01 313.70 145.77 313.96 C 147.01 313.57 148.28 313.22 149.59 313.47 C 149.47 313.79 149.22 314.44 149.10 314.76 C 147.94 315.05 146.77 315.35 145.61 315.67 C 145.23 318.54 145.25 321.44 145.30 324.33 C 144.85 324.36 143.93 324.43 143.48 324.46 C 143.45 320.69 143.43 316.93 143.51 313.17 Z" />
<path fill="#101410" d=" M 151.69 315.01 C 153.33 313.44 156.03 312.48 157.95 314.14 C 159.72 315.22 159.56 317.43 159.54 319.23 C 157.14 319.17 154.72 319.13 152.34 319.52 C 152.98 323.16 156.45 323.12 159.32 322.38 C 159.11 322.87 158.69 323.84 158.48 324.32 C 156.18 324.69 153.89 324.41 151.93 323.09 C 151.50 321.72 151.06 320.35 150.64 318.98 C 151.04 317.67 151.39 316.34 151.69 315.01 Z" />
<path fill="#232623" d=" M 161.64 314.87 C 163.51 313.05 166.10 312.96 168.48 313.72 C 168.51 314.11 168.57 314.88 168.60 315.26 C 166.97 315.12 165.34 314.98 163.72 315.12 C 162.52 317.48 166.14 317.83 167.47 318.83 C 169.36 319.49 168.65 321.86 168.52 323.37 C 166.48 324.70 164.08 324.60 161.77 324.25 C 161.69 323.81 161.54 322.93 161.47 322.49 C 163.36 322.56 168.19 323.84 166.66 320.39 C 164.46 319.09 160.71 318.23 161.64 314.87 Z" />
<path fill="#000000" d=" M 171.63 313.21 C 172.18 313.39 173.28 313.76 173.84 313.94 C 176.16 312.81 179.23 313.27 180.24 315.91 C 180.78 318.39 180.82 321.15 179.35 323.34 C 177.58 324.62 175.04 325.04 173.53 323.05 C 173.39 325.19 173.35 327.35 173.39 329.50 L 171.61 329.53 C 171.63 324.09 171.61 318.65 171.63 313.21 Z" />
<path fill="#111311" d=" M 185.20 323.61 C 181.36 320.94 182.75 312.91 188.03 313.26 C 191.05 313.46 192.30 316.59 191.59 319.24 C 189.39 319.21 187.19 319.22 184.99 319.27 C 185.27 320.31 185.54 321.35 185.82 322.40 C 187.75 322.80 189.72 322.69 191.67 322.52 C 191.53 322.93 191.24 323.76 191.09 324.18 C 189.13 324.32 186.89 324.98 185.20 323.61 Z" />
<path fill="#090a09" d=" M 214.25 313.79 C 214.75 313.62 215.76 313.29 216.26 313.12 C 217.51 316.42 218.48 319.82 219.82 323.10 C 220.38 319.66 221.46 316.34 222.66 313.08 C 223.08 313.21 223.93 313.47 224.36 313.59 C 223.26 316.55 222.23 319.54 221.34 322.57 C 221.26 324.20 219.77 324.70 218.35 324.49 C 217.39 321.21 215.97 318.08 215.23 314.74 C 214.98 314.50 214.49 314.03 214.25 313.79 Z" />
<path fill="#141514" d=" M 226.62 313.80 C 228.96 313.12 231.61 312.92 233.46 314.81 C 233.59 318.01 233.59 321.21 233.56 324.41 C 231.34 323.93 229.08 324.43 226.84 324.41 C 225.65 322.92 224.85 320.76 225.94 318.99 C 227.34 317.10 229.86 317.61 231.88 317.42 C 232.37 313.93 228.49 315.05 226.36 315.28 C 226.43 314.91 226.56 314.17 226.62 313.80 Z" />
<path fill="#393b39" d=" M 236.85 313.20 C 237.76 313.42 238.68 313.64 239.61 313.86 C 240.68 313.33 241.82 313.10 243.02 313.17 C 243.13 313.72 243.37 314.83 243.48 315.38 C 241.85 314.36 238.86 314.53 239.24 317.11 C 239.05 319.48 239.15 321.86 239.17 324.24 C 238.39 324.31 237.61 324.38 236.83 324.46 C 236.84 320.71 236.83 316.95 236.85 313.20 Z" />
<path fill="#000000" d=" M 243.02 313.17 C 243.50 313.57 244.46 314.37 244.95 314.77 C 246.78 313.12 249.56 312.81 251.50 314.45 C 251.94 317.64 252.00 320.87 251.80 324.08 C 251.47 324.23 250.79 324.54 250.45 324.70 C 250.26 321.81 250.56 318.91 250.20 316.04 C 249.60 314.03 246.30 314.01 245.67 316.04 C 245.11 318.78 245.45 321.63 245.37 324.42 C 244.93 324.42 244.05 324.43 243.62 324.43 C 243.55 321.41 243.76 318.39 243.48 315.38 C 243.37 314.83 243.13 313.72 243.02 313.17 Z" />
<path fill="#111411" d=" M 255.70 314.95 C 257.34 313.38 260.09 312.50 261.97 314.19 C 263.53 315.15 263.41 317.08 263.66 318.67 C 261.29 319.62 258.65 318.91 256.22 319.61 C 256.66 320.36 257.52 321.86 257.95 322.61 C 259.67 322.71 261.39 322.66 263.10 322.52 C 262.93 322.97 262.60 323.87 262.43 324.33 C 260.16 324.58 257.82 324.60 255.95 323.09 C 255.55 322.14 255.14 321.21 254.72 320.29 C 254.60 318.44 255.05 316.66 255.70 314.95 Z" />
<path fill="#2d2e2d" d=" M 266.37 313.14 C 267.14 313.38 267.90 313.63 268.67 313.87 C 270.39 313.09 272.46 312.86 274.07 314.07 C 275.95 317.15 274.93 320.91 275.17 324.32 C 274.71 324.39 273.78 324.53 273.32 324.59 C 272.88 321.51 273.83 318.18 272.53 315.28 C 271.22 313.95 269.72 315.09 268.44 315.77 C 268.29 318.63 268.24 321.50 268.28 324.37 C 267.80 324.40 266.84 324.47 266.36 324.50 C 266.28 320.71 266.28 316.92 266.37 313.14 Z" />
<path fill="#020402" d=" M 285.44 314.81 C 287.39 313.36 290.55 312.46 292.31 314.70 C 293.18 315.88 294.45 318.63 292.29 319.17 C 290.24 319.24 288.20 319.23 286.16 319.38 C 286.68 320.51 287.24 321.62 287.81 322.73 C 289.57 322.72 291.32 322.66 293.08 322.53 C 292.88 322.97 292.49 323.87 292.29 324.32 C 290.84 324.35 289.38 324.37 287.94 324.38 C 284.90 323.12 284.43 319.57 284.52 316.68 C 286.80 317.52 289.20 317.76 291.62 317.54 C 292.40 314.72 286.43 313.25 286.93 316.87 C 286.43 316.18 285.94 315.49 285.44 314.81 Z" />
<path fill="#262826" d=" M 210.94 313.48 C 211.45 313.43 212.49 313.32 213.00 313.27 C 213.00 317.01 213.01 320.75 213.00 324.49 C 212.49 324.44 211.46 324.33 210.95 324.27 C 210.84 320.68 210.86 317.08 210.94 313.48 Z" />
<path fill="#fbfafb" d=" M 25.00 316.06 C 25.67 314.44 27.81 315.31 29.12 315.01 C 30.64 317.32 30.51 320.28 29.25 322.68 C 28.35 322.70 26.56 322.74 25.67 322.76 C 24.37 320.82 23.83 318.18 25.00 316.06 Z" />
<path fill="#fafafa" d=" M 55.11 322.63 C 54.08 320.15 53.32 316.30 56.01 314.65 C 60.48 313.83 60.34 320.17 58.56 322.72 C 57.41 322.69 56.26 322.66 55.11 322.63 Z" />
<path fill="#fbfafb" d=" M 66.80 322.56 C 66.22 320.02 65.19 316.04 68.02 314.58 C 71.71 313.76 72.17 318.43 71.42 320.95 C 71.19 323.47 68.43 322.64 66.80 322.56 Z" />
<path fill="#fbfafb" d=" M 152.92 317.55 C 152.81 314.95 155.51 314.31 157.42 315.54 C 157.47 316.04 157.56 317.06 157.60 317.57 C 156.04 317.56 154.48 317.56 152.92 317.55 Z" />
<path fill="#fbfafb" d=" M 173.12 314.14 C 174.84 315.03 177.30 313.94 178.47 315.92 C 179.04 318.09 178.74 320.36 178.19 322.50 C 176.69 322.80 175.20 322.77 173.72 322.39 C 172.95 319.67 174.21 316.72 173.12 314.14 Z" />
<path fill="#fafafa" d=" M 185.47 315.46 C 186.65 315.24 187.84 315.05 189.03 314.87 C 189.40 315.74 189.72 316.63 190.01 317.54 C 188.38 317.55 186.76 317.56 185.14 317.56 C 185.22 317.04 185.39 315.98 185.47 315.46 Z" />
<path fill="#f9f9f9" d=" M 257.24 315.42 C 258.64 314.66 260.07 314.97 261.46 315.60 C 261.48 316.09 261.52 317.06 261.55 317.54 C 260.06 317.55 258.57 317.56 257.09 317.58 C 257.13 317.04 257.20 315.96 257.24 315.42 Z" />
<path fill="#e3e3e3" d=" M 116.06 322.36 C 114.37 319.56 118.13 318.02 120.32 318.81 C 120.66 321.15 118.48 324.25 116.06 322.36 Z" />
<path fill="#f8f8f8" d=" M 227.38 321.06 C 226.86 318.47 230.12 318.71 231.70 318.46 C 231.65 319.78 231.55 321.10 231.41 322.42 C 230.06 322.59 226.59 323.63 227.38 321.06 Z" />
<path fill="#020302" d=" M 296.47 321.74 C 296.94 321.76 297.87 321.80 298.34 321.81 C 298.36 322.64 298.39 323.48 298.42 324.31 C 297.93 324.35 296.96 324.42 296.48 324.45 C 296.47 323.54 296.46 322.64 296.47 321.74 Z" />
</svg>
