<?xml version="1.0" encoding="UTF-8" ?>
<!DOCTYPE svg PUBLIC "-//W3C//DTD SVG 1.1//EN" "http://www.w3.org/Graphics/SVG/1.1/DTD/svg11.dtd">
<svg width="247pt" height="321pt" viewBox="0 0 247 321" version="1.1" xmlns="http://www.w3.org/2000/svg">
<path fill="#000000" d=" M 0.00 0.00 L 237.00 0.00 C 236.99 5.27 237.02 10.54 236.98 15.81 C 234.93 14.15 232.57 12.95 230.12 12.01 C 230.12 9.76 230.35 7.45 229.70 5.26 C 228.72 5.66 227.74 6.07 226.77 6.49 C 227.33 6.56 228.44 6.70 229.00 6.77 C 229.00 8.37 229.00 9.97 229.00 11.57 L 228.20 11.37 C 225.76 10.64 223.19 10.61 220.71 10.08 C 220.77 12.05 220.86 14.02 220.84 15.99 L 220.62 15.97 C 220.28 13.99 220.10 11.93 219.19 10.10 C 217.57 10.43 215.95 10.76 214.33 11.08 C 214.33 9.10 214.32 7.13 214.28 5.15 C 211.64 6.39 210.83 9.60 209.07 11.77 C 209.35 11.82 209.89 11.94 210.17 12.00 C 210.33 12.45 210.66 13.34 210.82 13.78 C 210.42 13.51 209.61 12.98 209.21 12.71 C 205.88 14.25 202.93 16.53 200.44 19.22 C 195.98 18.66 191.47 18.90 186.98 18.83 C 124.66 18.91 62.33 18.78 0.00 18.91 L 0.00 0.00 Z" />
<path fill="#ffffff" d=" M 237.00 0.00 L 247.00 0.00 L 247.00 32.33 C 245.60 25.87 242.10 20.01 236.98 15.81 C 237.02 10.54 236.99 5.27 237.00 0.00 Z" />
<path fill="#bfbfbf" d=" M 179.20 4.35 C 179.75 2.08 182.64 4.60 184.04 3.26 C 184.30 3.44 184.80 3.80 185.05 3.98 C 183.14 3.90 183.24 5.46 183.29 6.90 C 184.19 6.65 185.08 6.40 185.98 6.15 C 185.96 6.51 185.92 7.25 185.90 7.62 C 184.55 7.62 183.20 7.57 181.85 7.47 C 181.36 8.86 179.55 8.40 178.91 7.45 C 179.47 7.43 180.59 7.40 181.15 7.39 C 180.91 6.94 180.42 6.04 180.17 5.59 L 181.20 3.94 L 179.20 4.35 Z" />
<path fill="#4c4c4c" d=" M 188.83 15.20 C 189.24 11.27 186.74 5.41 191.35 3.27 C 190.92 7.12 191.58 11.12 191.08 14.88 C 190.51 14.96 189.39 15.12 188.83 15.20 Z" />
<path fill="#bfbfbf" d=" M 196.69 3.71 C 198.89 3.61 201.10 3.61 203.30 3.74 C 202.83 7.08 204.01 10.33 203.67 13.67 C 201.23 13.71 198.79 13.71 196.35 13.68 C 195.97 10.33 197.20 7.07 196.69 3.71 Z" />
<path fill="#282828" d=" M 197.07 4.05 C 198.99 4.24 200.92 4.28 202.85 4.17 L 202.87 6.77 C 202.43 6.83 201.56 6.95 201.12 7.01 C 201.62 7.08 202.63 7.22 203.14 7.29 C 202.92 9.48 200.01 9.47 199.03 11.47 C 199.14 10.85 199.35 9.61 199.45 9.00 L 197.29 9.01 C 197.25 7.36 197.18 5.70 197.07 4.05 Z" />
<path fill="#bfbfbf" d=" M 226.77 6.49 C 227.74 6.07 228.72 5.66 229.70 5.26 C 230.35 7.45 230.12 9.76 230.12 12.01 C 229.64 11.85 228.68 11.53 228.20 11.37 L 229.00 11.57 C 229.00 9.97 229.00 8.37 229.00 6.77 C 228.44 6.70 227.33 6.56 226.77 6.49 Z" />
<path fill="#bfbfbf" d=" M 209.07 11.77 C 210.83 9.60 211.64 6.39 214.28 5.15 C 214.32 7.13 214.33 9.10 214.33 11.08 C 212.94 11.38 211.55 11.69 210.17 12.00 C 209.89 11.94 209.35 11.82 209.07 11.77 Z" />
<path fill="#dedede" d=" M 220.16 9.84 C 221.49 8.70 222.98 4.04 224.76 7.21 L 223.40 7.60 C 223.38 8.20 223.33 9.40 223.31 10.00 C 222.98 9.50 222.33 8.52 222.00 8.02 C 221.99 9.37 221.38 9.98 220.16 9.84 Z" />
<path fill="#bfbfbf" d=" M 185.69 15.16 C 185.98 12.09 184.83 8.33 187.99 6.35 C 188.28 9.28 188.17 12.22 188.24 15.16 C 187.60 15.16 186.33 15.16 185.69 15.16 Z" />
<path fill="#000000" d=" M 211.31 10.88 C 210.92 9.98 211.91 8.44 212.83 8.29 C 214.00 9.32 212.93 11.81 211.31 10.88 Z" />
<path fill="#bfbfbf" d=" M 217.15 8.05 L 217.85 8.05 L 217.84 8.75 L 217.15 8.74 L 217.15 8.05 Z" />
<path fill="#bfbfbf" d=" M 182.45 13.66 C 183.26 12.46 183.21 10.47 184.96 10.03 C 185.00 11.67 185.67 13.53 184.77 15.05 C 183.54 16.30 182.39 12.73 181.20 15.19 L 180.36 14.71 C 180.81 13.76 181.50 13.41 182.45 13.66 Z" />
<path fill="#ff0000" d=" M 214.33 11.08 C 215.95 10.76 217.57 10.43 219.19 10.10 C 220.10 11.93 220.28 13.99 220.62 15.97 C 214.49 16.13 208.33 18.64 204.39 23.43 C 198.40 30.45 197.95 41.31 202.84 49.05 C 203.06 49.37 203.50 50.02 203.72 50.34 C 204.67 51.41 205.63 52.48 206.66 53.49 C 206.98 53.70 207.61 54.12 207.92 54.33 C 208.34 54.59 209.19 55.09 209.62 55.34 C 212.78 57.50 216.63 58.16 220.37 58.45 C 220.36 60.35 220.36 62.25 220.35 64.15 C 212.79 64.06 205.23 60.86 200.28 55.07 C 199.92 54.63 199.21 53.76 198.86 53.32 C 198.12 52.25 197.45 51.14 196.83 50.00 C 196.67 49.69 196.36 49.07 196.21 48.76 C 191.83 39.20 193.37 27.10 200.44 19.22 C 202.93 16.53 205.88 14.25 209.21 12.71 C 209.61 12.98 210.42 13.51 210.82 13.78 C 210.66 13.34 210.33 12.45 210.17 12.00 C 211.55 11.69 212.94 11.38 214.33 11.08 Z" />
<path fill="#ff0000" d=" M 220.84 15.99 C 220.86 14.02 220.77 12.05 220.71 10.08 C 223.19 10.61 225.76 10.64 228.20 11.37 C 228.68 11.53 229.64 11.85 230.12 12.01 C 232.57 12.95 234.93 14.15 236.98 15.81 C 242.10 20.01 245.60 25.87 247.00 32.33 L 247.00 37.24 C 245.33 37.28 243.67 37.32 242.00 37.36 C 241.85 34.55 241.32 31.78 240.36 29.13 C 241.41 28.71 242.51 28.52 243.67 28.55 C 243.51 28.15 243.19 27.34 243.03 26.94 C 242.17 27.52 241.31 28.11 240.46 28.70 C 239.38 26.93 238.37 25.12 237.02 23.55 C 234.88 21.21 232.33 19.30 229.52 17.86 C 229.48 17.43 229.41 16.55 229.37 16.11 L 229.33 17.74 C 226.58 16.83 223.75 16.12 220.84 15.99 Z" />
<path fill="#050506" d=" M 204.39 23.43 C 208.33 18.64 214.49 16.13 220.62 15.97 L 220.84 15.99 C 223.75 16.12 226.58 16.83 229.33 17.74 L 229.37 16.11 C 229.41 16.55 229.48 17.43 229.52 17.86 C 232.33 19.30 234.88 21.21 237.02 23.55 C 236.98 32.41 237.01 41.28 236.99 50.15 C 234.37 50.36 231.94 49.58 229.46 48.94 C 229.18 48.96 228.62 49.00 228.34 49.02 C 228.37 50.05 228.52 52.28 230.02 51.95 C 231.93 50.64 234.28 50.62 236.32 51.68 C 235.51 52.43 234.69 53.14 233.84 53.84 C 233.94 53.41 234.14 52.57 234.24 52.15 C 229.18 54.12 223.51 53.97 218.20 53.32 C 217.82 53.28 217.07 53.19 216.70 53.15 C 214.82 53.19 212.94 53.23 211.06 53.25 C 211.36 52.46 211.95 50.90 212.24 50.11 L 211.54 50.06 C 210.19 50.19 207.60 49.14 206.99 50.74 C 208.20 50.69 209.26 51.05 210.17 51.81 C 209.01 52.39 207.84 52.95 206.66 53.49 C 205.63 52.48 204.67 51.41 203.72 50.34 C 204.24 50.07 205.28 49.55 205.80 49.29 C 205.06 49.23 203.58 49.11 202.84 49.05 C 197.95 41.31 198.40 30.45 204.39 23.43 Z" />
<path fill="#050506" d=" M 0.00 18.91 C 62.33 18.78 124.66 18.91 186.98 18.83 C 191.47 18.90 195.98 18.66 200.44 19.22 C 193.37 27.10 191.83 39.20 196.21 48.76 C 195.31 49.15 194.41 49.53 193.50 49.91 C 192.39 47.96 190.19 50.41 188.72 48.96 L 189.15 50.08 C 189.35 50.26 189.76 50.63 189.96 50.81 C 190.38 50.71 191.23 50.51 191.65 50.41 C 193.32 51.74 195.03 49.85 196.83 50.00 C 197.45 51.14 198.12 52.25 198.86 53.32 C 198.21 53.38 196.92 53.49 196.28 53.55 L 195.90 53.04 L 195.19 53.13 C 193.22 53.29 191.24 53.39 189.29 53.69 C 188.86 52.50 188.00 51.94 186.72 52.02 L 186.44 51.79 C 188.51 51.52 187.90 48.83 186.00 49.05 L 185.17 48.86 C 185.15 49.28 185.11 50.11 185.09 50.53 L 184.50 51.81 L 186.39 52.35 L 186.83 53.63 L 184.84 53.30 L 184.05 53.19 L 183.28 53.13 L 182.02 53.71 C 179.55 51.46 176.05 51.73 173.31 53.33 C 172.65 53.43 171.34 53.61 170.68 53.71 C 171.84 53.53 172.54 52.97 172.78 52.02 L 172.82 51.33 L 172.13 51.29 C 171.09 51.32 170.20 51.75 169.47 52.58 C 168.77 53.15 167.99 53.49 167.11 53.59 C 166.98 53.21 166.72 52.43 166.59 52.05 L 168.31 51.75 C 169.64 51.00 169.54 50.47 168.02 50.14 C 167.78 50.29 167.31 50.59 167.08 50.74 C 166.22 50.95 164.51 51.39 163.66 51.60 L 164.43 50.68 L 163.98 50.46 C 163.06 50.25 162.31 50.75 161.74 51.97 C 162.89 52.62 164.11 53.14 165.36 53.58 C 163.90 53.41 162.46 53.15 161.03 52.85 C 162.63 49.62 158.20 51.49 156.93 52.34 L 156.93 52.64 C 157.71 52.74 159.29 52.93 160.07 53.03 C 158.47 53.37 156.84 53.47 155.23 53.70 C 154.80 53.24 153.93 52.30 153.50 51.83 L 152.87 52.21 C 152.41 52.52 151.49 53.14 151.03 53.45 L 150.15 53.25 L 149.33 53.12 C 148.79 53.20 147.73 53.36 147.19 53.44 C 146.38 53.34 144.74 53.13 143.92 53.02 L 142.61 52.98 L 143.19 51.96 L 143.96 51.87 L 144.92 51.95 C 144.84 51.56 144.68 50.78 144.61 50.39 L 143.79 50.36 L 142.95 50.34 L 142.01 50.29 L 141.07 49.91 C 140.79 49.73 140.22 49.39 139.93 49.22 L 139.08 49.15 C 139.34 49.33 139.84 49.69 140.09 49.87 C 140.71 50.87 141.02 51.95 141.01 53.13 C 139.71 53.16 138.42 53.18 137.14 53.20 C 135.65 52.79 134.19 52.87 132.75 53.45 C 130.79 53.36 128.80 54.00 126.91 53.11 C 125.10 53.17 123.29 53.37 121.50 53.69 C 120.39 52.22 118.46 50.91 116.57 51.03 C 117.08 51.42 118.11 52.18 118.63 52.56 L 117.16 53.63 C 116.65 53.52 115.64 53.29 115.13 53.18 C 113.73 53.27 112.33 53.32 110.93 53.33 C 110.45 53.23 109.47 53.04 108.98 52.94 C 109.55 51.58 109.19 50.68 107.90 50.24 L 106.96 49.88 C 106.71 49.71 106.21 49.36 105.96 49.19 L 105.18 49.13 L 105.21 49.81 L 106.08 49.86 C 106.38 50.46 106.97 51.65 107.27 52.25 C 106.95 52.49 106.32 52.95 106.00 53.19 C 102.88 53.87 99.68 52.82 96.63 53.35 C 95.89 53.38 94.41 53.45 93.67 53.48 L 93.32 53.46 C 92.48 53.56 90.81 53.76 89.97 53.86 C 89.26 52.62 87.26 51.35 89.12 49.81 L 88.08 50.01 L 87.28 50.20 C 87.03 50.72 86.54 51.78 86.29 52.30 C 85.58 51.89 84.87 51.46 84.16 51.04 L 85.77 49.94 C 83.83 50.43 82.25 51.59 80.93 53.06 C 78.63 53.58 76.25 53.31 73.92 53.36 C 49.28 53.36 24.64 53.35 0.00 53.37 L 0.00 18.91 Z" />
<path fill="#ff4747" d=" M 237.04 20.87 C 236.92 19.48 237.53 18.87 238.87 19.03 C 239.04 20.44 238.43 21.06 237.04 20.87 Z" />
<path fill="#ffffff" d=" M 237.02 23.55 C 238.37 25.12 239.38 26.93 240.46 28.70 C 241.31 28.11 242.17 27.52 243.03 26.94 C 243.19 27.34 243.51 28.15 243.67 28.55 C 242.51 28.52 241.41 28.71 240.36 29.13 C 241.32 31.78 241.85 34.55 242.00 37.36 C 243.67 37.32 245.33 37.28 247.00 37.24 L 247.00 37.52 C 245.33 37.57 243.67 37.62 242.01 37.67 C 241.60 42.78 240.08 48.01 236.32 51.68 C 234.28 50.62 231.93 50.64 230.02 51.95 C 229.88 51.20 229.60 49.70 229.46 48.94 C 231.94 49.58 234.37 50.36 236.99 50.15 C 237.01 41.28 236.98 32.41 237.02 23.55 Z" />
<path fill="#95c734" d=" M 11.90 31.69 C 11.88 30.43 10.83 27.26 13.07 27.32 C 17.98 27.26 22.89 27.31 27.81 27.32 C 28.30 28.56 28.47 29.85 28.30 31.20 C 27.38 31.19 25.53 31.18 24.60 31.17 C 24.59 30.74 24.55 29.88 24.54 29.45 C 22.88 29.70 21.31 30.28 19.76 30.89 C 19.44 30.50 18.78 29.72 18.45 29.33 C 17.61 31.24 15.76 30.69 14.51 29.53 C 13.64 30.25 12.77 30.97 11.90 31.69 Z" />
<path fill="#f3f3f3" d=" M 11.90 31.69 C 12.77 30.97 13.64 30.25 14.51 29.53 C 15.76 30.69 17.61 31.24 18.45 29.33 C 18.78 29.72 19.44 30.50 19.76 30.89 C 21.31 30.28 22.88 29.70 24.54 29.45 C 24.55 29.88 24.59 30.74 24.60 31.17 C 25.53 31.18 27.38 31.19 28.30 31.20 C 27.92 33.80 29.28 36.85 27.29 38.98 C 27.39 39.74 27.59 41.24 27.70 41.99 C 27.53 41.38 27.21 40.15 27.04 39.53 C 26.64 39.54 25.84 39.56 25.44 39.57 C 25.55 39.20 25.77 38.45 25.87 38.07 C 24.60 37.62 23.44 36.57 22.01 36.76 C 20.52 37.37 19.21 38.73 17.49 38.48 C 17.59 38.83 17.79 39.54 17.89 39.89 C 16.06 39.82 14.23 39.75 12.40 39.68 C 12.21 37.02 12.23 34.34 11.90 31.69 Z" />
<path fill="#828282" d=" M 214.89 28.89 C 216.31 28.88 217.72 28.88 219.14 28.89 C 219.17 30.32 219.19 31.74 219.19 33.16 C 217.75 33.19 216.31 33.19 214.88 33.16 C 214.87 31.74 214.88 30.31 214.89 28.89 Z" />
<path fill="#dedede" d=" M 11.64 31.20 L 11.90 31.69 C 12.23 34.34 12.21 37.02 12.40 39.68 C 14.23 39.75 16.06 39.82 17.89 39.89 C 17.91 40.80 17.95 42.63 17.97 43.54 C 18.94 43.03 19.91 42.53 20.89 42.04 C 19.73 43.18 18.49 44.30 16.84 44.64 C 16.94 45.19 17.13 46.28 17.23 46.83 C 15.37 46.86 13.51 46.84 11.66 46.74 C 11.75 41.56 11.67 36.38 11.64 31.20 Z" />
<path fill="#dedede" d=" M 35.95 34.97 C 35.55 30.78 43.02 30.91 42.99 35.00 C 40.94 34.91 40.36 31.68 37.88 33.22 C 37.68 33.68 37.30 34.61 37.11 35.07 C 38.98 36.74 43.44 36.53 42.93 40.00 C 41.85 43.36 36.05 42.71 35.31 39.35 C 36.77 38.37 37.02 40.10 37.97 40.79 C 39.37 41.37 41.97 41.14 41.62 39.03 C 40.31 37.01 36.34 37.85 35.95 34.97 Z" />
<path fill="#f3f3f3" d=" M 51.08 34.44 C 53.00 35.38 55.38 33.47 56.82 35.70 C 57.38 34.11 58.92 34.56 60.14 34.59 C 61.99 36.61 61.16 39.51 61.33 41.98 L 60.03 42.02 C 59.90 39.89 60.45 37.57 59.41 35.61 C 55.63 34.96 56.91 39.81 56.77 42.03 C 56.43 41.97 55.74 41.85 55.40 41.80 C 55.33 39.28 56.66 34.43 52.41 35.53 C 51.51 37.56 53.92 41.70 50.96 42.21 C 50.95 39.62 50.89 37.03 51.08 34.44 Z" />
<path fill="#f3f3f3" d=" M 63.63 41.40 C 61.60 39.00 62.76 33.74 66.52 34.54 C 68.62 34.66 68.82 37.01 68.88 38.62 C 67.20 38.59 65.52 38.59 63.84 38.64 C 63.91 41.39 66.66 41.40 68.53 40.45 C 69.06 42.03 66.95 41.79 66.05 42.32 C 65.44 42.09 64.23 41.63 63.63 41.40 Z" />
<path fill="#f3f3f3" d=" M 70.10 34.42 C 71.77 35.55 74.21 33.42 75.49 35.42 C 76.28 37.54 75.80 39.92 75.93 42.15 C 72.98 41.78 75.57 37.66 74.38 35.74 C 73.65 35.67 72.20 35.55 71.47 35.49 C 70.53 37.42 72.91 41.82 69.97 42.12 C 69.97 39.55 69.85 36.98 70.10 34.42 Z" />
<path fill="#f3f3f3" d=" M 78.54 41.41 C 78.05 39.20 76.95 35.88 78.94 34.16 C 79.80 36.36 78.81 38.85 79.72 41.06 C 83.98 41.85 82.32 36.91 82.66 34.40 C 82.95 34.53 83.55 34.77 83.84 34.89 C 83.98 37.32 83.84 39.75 84.04 42.17 C 82.43 40.55 80.15 43.01 78.54 41.41 Z" />
<path fill="#828383" d=" M 214.87 34.89 C 216.31 34.88 217.74 34.88 219.18 34.89 C 219.19 36.31 219.18 37.73 219.17 39.15 C 217.75 39.18 216.32 39.20 214.90 39.19 C 214.88 37.76 214.87 36.32 214.87 34.89 Z" />
<path fill="#050506" d=" M 64.37 36.28 C 65.04 34.34 68.86 36.20 67.12 37.58 C 66.16 37.70 63.20 38.20 64.37 36.28 Z" />
<path fill="#86b22c" d=" M 17.49 38.48 C 19.21 38.73 20.52 37.37 22.01 36.76 C 23.44 36.57 24.60 37.62 25.87 38.07 C 25.77 38.45 25.55 39.20 25.44 39.57 C 25.84 39.56 26.64 39.54 27.04 39.53 C 27.21 40.15 27.53 41.38 27.70 41.99 C 27.59 41.24 27.39 39.74 27.29 38.98 L 28.31 39.42 C 28.39 41.86 28.24 44.29 28.33 46.72 C 24.63 46.84 20.92 46.97 17.23 46.83 C 17.13 46.28 16.94 45.19 16.84 44.64 C 18.49 44.30 19.73 43.18 20.89 42.04 C 19.91 42.53 18.94 43.03 17.97 43.54 C 17.95 42.63 17.91 40.80 17.89 39.89 C 17.79 39.54 17.59 38.83 17.49 38.48 Z" />
<path fill="#ff0000" d=" M 242.01 37.67 C 243.67 37.62 245.33 37.57 247.00 37.52 L 247.00 42.44 C 245.42 48.73 242.13 54.57 236.99 58.61 C 235.42 59.92 233.64 60.93 231.80 61.79 C 228.28 63.34 224.47 64.09 220.63 64.13 C 220.60 62.23 220.58 60.32 220.56 58.42 C 223.28 58.28 226.02 57.90 228.58 56.90 C 227.76 59.25 231.85 58.91 230.18 56.47 L 231.46 55.19 C 232.33 54.90 233.21 54.53 233.84 53.84 C 234.69 53.14 235.51 52.43 236.32 51.68 C 240.08 48.01 241.60 42.78 242.01 37.67 Z" />
<path fill="#838383" d=" M 214.89 40.88 C 216.31 40.87 217.73 40.87 219.15 40.88 C 219.18 41.72 219.22 43.39 219.24 44.23 C 219.04 45.87 217.08 45.05 216.04 45.24 C 213.94 45.23 215.14 42.16 214.89 40.88 Z" />
<path fill="#f1f1f1" d=" M 44.07 42.77 C 44.95 41.18 48.53 42.13 50.28 42.28 C 49.28 43.77 45.86 42.98 44.07 42.77 Z" />
<path fill="#ffffff" d=" M 236.99 58.61 C 242.13 54.57 245.42 48.73 247.00 42.44 L 247.00 321.00 L 236.36 321.00 C 236.51 320.55 236.81 319.64 236.95 319.18 C 237.04 302.53 236.98 285.86 237.00 269.20 C 236.98 253.11 237.01 237.02 237.01 220.93 C 236.97 202.28 237.01 183.64 237.01 165.00 C 236.94 146.22 237.09 127.45 236.94 108.68 C 237.04 91.99 236.99 75.30 236.99 58.61 Z" />
<path fill="#ff5c5c" d=" M 241.22 46.15 C 241.64 46.15 242.48 46.14 242.90 46.14 L 242.93 46.85 C 242.51 46.85 241.66 46.85 241.24 46.85 L 241.22 46.15 Z" />
<path fill="#96e7f6" d=" M 105.18 49.13 L 105.96 49.19 L 106.08 49.86 L 105.21 49.81 L 105.18 49.13 Z" />
<path fill="#bd5115" d=" M 105.96 49.19 C 106.21 49.36 106.71 49.71 106.96 49.88 L 106.08 49.86 L 105.96 49.19 Z" />
<path fill="#ffffff" d=" M 112.86 51.16 C 113.25 49.28 115.30 48.67 116.98 48.96 C 118.25 49.27 120.53 48.27 121.09 49.93 C 118.31 50.09 115.33 49.54 112.86 51.16 Z" />
<path fill="#96e7f6" d=" M 139.08 49.15 L 139.93 49.22 L 140.09 49.87 C 139.84 49.69 139.34 49.33 139.08 49.15 Z" />
<path fill="#bd5115" d=" M 139.93 49.22 C 140.22 49.39 140.79 49.73 141.07 49.91 L 140.09 49.87 L 139.93 49.22 Z" />
<path fill="#11378d" d=" M 150.28 49.80 C 150.39 49.60 150.61 49.21 150.72 49.02 L 150.91 49.67 L 150.28 49.80 Z" />
<path fill="#f3f3f3" d=" M 150.72 49.02 C 152.87 50.32 155.39 49.63 157.70 50.44 C 155.57 51.52 152.87 50.90 150.91 49.67 L 150.72 49.02 Z" />
<path fill="#96e7f6" d=" M 173.19 49.18 L 173.98 49.20 L 173.98 49.83 L 173.19 49.84 L 173.19 49.18 Z" />
<path fill="#bd5115" d=" M 173.98 49.20 L 174.74 49.19 L 174.74 49.83 L 173.98 49.83 L 173.98 49.20 Z" />
<path fill="#ffffff" d=" M 185.17 48.86 L 186.00 49.05 C 186.11 49.74 186.33 51.11 186.44 51.79 C 186.10 51.48 185.43 50.84 185.09 50.53 C 185.11 50.11 185.15 49.28 185.17 48.86 Z" />
<path fill="#ff0000" d=" M 186.00 49.05 C 187.90 48.83 188.51 51.52 186.44 51.79 C 186.33 51.11 186.11 49.74 186.00 49.05 Z" />
<path fill="#f3f3f3" d=" M 188.72 48.96 C 190.19 50.41 192.39 47.96 193.50 49.91 C 194.41 49.53 195.31 49.15 196.21 48.76 C 196.36 49.07 196.67 49.69 196.83 50.00 C 195.03 49.85 193.32 51.74 191.65 50.41 C 191.23 50.51 190.38 50.71 189.96 50.81 C 189.76 50.63 189.35 50.26 189.15 50.08 L 188.72 48.96 Z" />
<path fill="#ffffff" d=" M 202.84 49.05 C 203.58 49.11 205.06 49.23 205.80 49.29 C 205.28 49.55 204.24 50.07 203.72 50.34 C 203.50 50.02 203.06 49.37 202.84 49.05 Z" />
<path fill="#ffffff" d=" M 218.22 51.15 C 216.89 52.19 214.79 48.74 216.88 48.85 C 217.21 49.42 217.88 50.58 218.22 51.15 Z" />
<path fill="#ff0000" d=" M 216.88 48.85 C 218.16 47.82 220.16 50.99 218.22 51.15 C 217.88 50.58 217.21 49.42 216.88 48.85 Z" />
<path fill="#3f6ca4" d=" M 228.34 49.02 C 228.62 49.00 229.18 48.96 229.46 48.94 C 229.60 49.70 229.88 51.20 230.02 51.95 C 228.52 52.28 228.37 50.05 228.34 49.02 Z" />
<path fill="#c6e0d3" d=" M 79.12 50.19 C 79.63 50.19 80.64 50.20 81.14 50.20 L 81.15 50.80 C 80.64 50.80 79.63 50.81 79.13 50.82 L 79.12 50.19 Z" />
<path fill="#3790b2" d=" M 80.93 53.06 C 82.25 51.59 83.83 50.43 85.77 49.94 L 84.16 51.04 C 84.87 51.46 85.58 51.89 86.29 52.30 C 86.54 51.78 87.03 50.72 87.28 50.20 L 88.08 50.01 C 87.55 51.07 87.01 52.17 87.21 53.38 C 88.64 53.75 90.06 54.15 91.50 54.49 C 89.46 55.28 87.28 55.21 85.13 55.08 C 56.76 54.91 28.38 55.06 0.00 55.00 L 0.00 53.37 C 24.64 53.35 49.28 53.36 73.92 53.36 C 76.25 53.31 78.63 53.58 80.93 53.06 Z" />
<path fill="#ffffff" d=" M 88.08 50.01 L 89.12 49.81 C 87.26 51.35 89.26 52.62 89.97 53.86 C 90.81 53.76 92.48 53.56 93.32 53.46 C 93.41 53.47 93.58 53.47 93.67 53.48 C 94.41 53.45 95.89 53.38 96.63 53.35 C 96.64 53.75 96.64 54.56 96.64 54.97 C 94.94 54.67 93.23 54.45 91.50 54.49 C 90.06 54.15 88.64 53.75 87.21 53.38 C 87.01 52.17 87.55 51.07 88.08 50.01 Z" />
<path fill="#ffffff" d=" M 92.23 51.94 C 90.76 52.46 89.31 49.88 91.38 49.79 C 91.59 50.33 92.01 51.40 92.23 51.94 Z" />
<path fill="#ff0000" d=" M 91.38 49.79 C 93.92 48.58 94.73 54.09 92.23 51.94 C 92.01 51.40 91.59 50.33 91.38 49.79 Z" />
<path fill="#ffffff" d=" M 94.71 50.94 C 95.32 49.52 98.52 49.86 99.97 50.23 C 100.31 50.68 100.99 51.58 101.33 52.03 C 99.25 51.03 96.94 51.27 94.71 50.94 Z" />
<path fill="#612c10" d=" M 99.97 50.23 C 101.18 48.69 103.61 52.14 101.33 52.03 C 100.99 51.58 100.31 50.68 99.97 50.23 Z" />
<path fill="#113878" d=" M 106.08 49.86 L 106.96 49.88 C 107.17 50.17 107.59 50.76 107.80 51.05 L 107.85 52.12 L 107.27 52.25 C 106.97 51.65 106.38 50.46 106.08 49.86 Z" />
<path fill="#ddf9cb" d=" M 106.96 49.88 L 107.90 50.24 L 107.80 51.05 C 107.59 50.76 107.17 50.17 106.96 49.88 Z" />
<path fill="#b46d32" d=" M 107.90 50.24 C 109.19 50.68 109.55 51.58 108.98 52.94 L 108.20 52.84 L 107.85 52.12 L 107.80 51.05 L 107.90 50.24 Z" />
<path fill="#f3f3f3" d=" M 121.85 50.45 C 124.52 48.82 121.88 53.44 121.16 51.34 L 121.85 50.45 Z" />
<path fill="#f3f3f3" d=" M 124.73 49.72 C 126.03 49.76 127.39 52.07 128.64 50.69 C 129.66 49.49 131.15 50.10 131.63 51.37 C 130.41 50.85 129.35 51.05 128.46 51.96 C 127.18 51.83 124.36 51.63 124.73 49.72 Z" />
<path fill="#aac9be" d=" M 133.17 50.08 C 133.68 50.35 134.71 50.89 135.23 51.16 L 135.10 51.82 C 133.77 52.00 133.12 51.43 133.17 50.08 Z" />
<path fill="#2f8ebb" d=" M 140.09 49.87 L 141.07 49.91 C 141.24 50.18 141.57 50.74 141.74 51.02 C 141.84 51.51 142.03 52.49 142.13 52.98 L 142.61 52.98 L 143.92 53.02 C 144.37 54.45 146.40 54.69 147.19 53.44 C 147.73 53.36 148.79 53.20 149.33 53.12 C 149.49 53.29 149.83 53.62 150.00 53.78 C 150.26 53.70 150.77 53.54 151.03 53.45 C 151.49 53.14 152.41 52.52 152.87 52.21 C 153.27 52.65 154.08 53.53 154.48 53.98 L 155.23 53.70 C 156.84 53.47 158.47 53.37 160.07 53.03 L 161.03 52.85 C 162.46 53.15 163.90 53.41 165.36 53.58 L 166.23 53.68 L 167.11 53.59 C 167.99 53.49 168.77 53.15 169.47 52.58 C 169.77 52.86 170.38 53.43 170.68 53.71 C 171.34 53.61 172.65 53.43 173.31 53.33 L 174.57 53.42 C 177.06 51.74 179.67 53.83 182.02 53.71 L 183.28 53.13 C 183.46 53.29 183.81 53.62 183.98 53.78 C 184.20 53.66 184.63 53.42 184.84 53.30 L 186.83 53.63 L 186.39 52.35 L 184.50 51.81 L 185.09 50.53 C 185.43 50.84 186.10 51.48 186.44 51.79 L 186.72 52.02 C 187.18 52.51 188.08 53.49 188.54 53.98 L 189.29 53.69 C 191.24 53.39 193.22 53.29 195.19 53.13 L 195.56 53.66 L 196.28 53.55 C 196.92 53.49 198.21 53.38 198.86 53.32 C 199.21 53.76 199.92 54.63 200.28 55.07 C 181.85 55.16 163.41 55.07 144.98 55.13 C 143.67 55.11 142.37 55.01 141.08 54.84 C 141.06 54.41 141.02 53.56 141.01 53.13 C 141.02 51.95 140.71 50.87 140.09 49.87 Z" />
<path fill="#ddf9cb" d=" M 141.07 49.91 L 142.01 50.29 L 141.74 51.02 C 141.57 50.74 141.24 50.18 141.07 49.91 Z" />
<path fill="#b36d32" d=" M 142.01 50.29 L 142.95 50.34 L 143.16 51.06 L 143.19 51.96 L 142.61 52.98 L 142.13 52.98 C 142.03 52.49 141.84 51.51 141.74 51.02 L 142.01 50.29 Z" />
<path fill="#ddf9cb" d=" M 142.95 50.34 L 143.79 50.36 L 143.71 51.06 L 143.16 51.06 L 142.95 50.34 Z" />
<path fill="#b17c41" d=" M 143.79 50.36 L 144.61 50.39 C 144.68 50.78 144.84 51.56 144.92 51.95 L 143.96 51.87 L 143.71 51.06 L 143.79 50.36 Z" />
<path fill="#96e7f6" d=" M 147.19 50.17 L 147.98 50.18 L 147.98 50.80 L 147.19 50.83 L 147.19 50.17 Z" />
<path fill="#bd5115" d=" M 147.98 50.18 L 148.73 50.16 L 148.74 50.80 L 147.98 50.80 L 147.98 50.18 Z" />
<path fill="#ffffff" d=" M 161.74 51.97 C 162.31 50.75 163.06 50.25 163.98 50.46 L 163.16 51.47 L 163.66 51.60 C 164.51 51.39 166.22 50.95 167.08 50.74 L 167.76 50.87 L 168.31 51.75 L 166.59 52.05 C 166.35 52.26 165.87 52.69 165.63 52.91 L 166.23 53.68 L 165.36 53.58 C 164.11 53.14 162.89 52.62 161.74 51.97 Z" />
<path fill="#d06a21" d=" M 163.98 50.46 L 164.43 50.68 L 163.66 51.60 L 163.16 51.47 L 163.98 50.46 Z" />
<path fill="#2471d4" d=" M 167.08 50.74 C 167.31 50.59 167.78 50.29 168.02 50.14 L 167.76 50.87 L 167.08 50.74 Z" />
<path fill="#e2b96c" d=" M 168.02 50.14 C 169.54 50.47 169.64 51.00 168.31 51.75 L 167.76 50.87 L 168.02 50.14 Z" />
<path fill="#ffffff" d=" M 177.07 50.85 C 177.07 50.68 177.06 50.34 177.06 50.17 L 177.07 50.85 Z" />
<path fill="#95c734" d=" M 177.06 50.17 C 178.83 48.17 178.98 52.63 177.07 50.85 L 177.06 50.17 Z" />
<path fill="#96e7f6" d=" M 181.15 50.15 L 181.97 50.18 L 181.96 50.80 L 181.14 50.80 L 181.15 50.15 Z" />
<path fill="#bc5015" d=" M 181.97 50.18 L 182.74 50.18 L 182.73 50.82 L 181.96 50.80 L 181.97 50.18 Z" />
<path fill="#0f3a96" d=" M 189.15 50.08 C 189.35 50.26 189.76 50.63 189.96 50.81 C 189.76 50.63 189.35 50.26 189.15 50.08 Z" />
<path fill="#adcbd5" d=" M 206.99 50.74 C 207.60 49.14 210.19 50.19 211.54 50.06 C 211.20 50.50 210.52 51.37 210.17 51.81 C 209.26 51.05 208.20 50.69 206.99 50.74 Z" />
<path fill="#a46a39" d=" M 211.54 50.06 L 212.24 50.11 C 211.95 50.90 211.36 52.46 211.06 53.25 L 210.39 53.25 C 210.34 52.89 210.23 52.17 210.17 51.81 C 210.52 51.37 211.20 50.50 211.54 50.06 Z" />
<path fill="#4ea6ea" d=" M 220.20 50.22 L 220.99 50.20 L 221.01 50.82 L 220.23 50.87 L 220.20 50.22 Z" />
<path fill="#e9a142" d=" M 220.99 50.20 L 221.77 50.16 L 221.79 50.81 L 221.01 50.82 L 220.99 50.20 Z" />
<path fill="#ebe5c7" d=" M 223.29 50.15 L 224.02 50.16 L 224.01 50.85 L 223.28 50.84 L 223.29 50.15 Z" />
<path fill="#96e7f6" d=" M 103.19 51.15 L 103.98 51.16 L 103.98 51.79 L 103.19 51.81 L 103.19 51.15 Z" />
<path fill="#bd5115" d=" M 103.98 51.16 L 104.74 51.15 L 104.74 51.79 L 103.98 51.79 L 103.98 51.16 Z" />
<path fill="#ffffff" d=" M 116.57 51.03 C 118.46 50.91 120.39 52.22 121.50 53.69 L 121.10 54.36 C 120.08 54.13 119.25 53.53 118.63 52.56 C 118.11 52.18 117.08 51.42 116.57 51.03 Z" />
<path fill="#be5719" d=" M 135.23 51.16 L 135.88 51.26 L 135.77 51.90 L 135.10 51.82 L 135.23 51.16 Z" />
<path fill="#96e7f6" d=" M 137.19 51.15 L 137.98 51.16 L 137.98 51.79 L 137.19 51.82 L 137.19 51.15 Z" />
<path fill="#bd5115" d=" M 137.98 51.16 L 138.74 51.16 L 138.74 51.80 L 137.98 51.79 L 137.98 51.16 Z" />
<path fill="#216dd2" d=" M 143.16 51.06 L 143.71 51.06 L 143.96 51.87 L 143.19 51.96 L 143.16 51.06 Z" />
<path fill="#ffffff" d=" M 156.93 52.34 C 158.20 51.49 162.63 49.62 161.03 52.85 L 160.07 53.03 C 159.29 52.93 157.71 52.74 156.93 52.64 L 156.93 52.34 Z" />
<path fill="#d8e9da" d=" M 169.47 52.58 C 170.20 51.75 171.09 51.32 172.13 51.29 C 172.29 51.48 172.62 51.84 172.78 52.02 C 172.54 52.97 171.84 53.53 170.68 53.71 C 170.38 53.43 169.77 52.86 169.47 52.58 Z" />
<path fill="#bd5115" d=" M 172.13 51.29 L 172.82 51.33 L 172.78 52.02 C 172.62 51.84 172.29 51.48 172.13 51.29 Z" />
<path fill="#76d6f9" d=" M 213.20 51.18 L 213.99 51.19 L 213.99 51.82 L 213.20 51.84 L 213.20 51.18 Z" />
<path fill="#d47225" d=" M 213.99 51.19 L 214.76 51.18 L 214.76 51.82 L 213.99 51.82 L 213.99 51.19 Z" />
<path fill="#96e7f7" d=" M 225.15 51.15 L 225.97 51.19 L 225.95 51.82 L 225.13 51.80 L 225.15 51.15 Z" />
<path fill="#bf5315" d=" M 225.97 51.19 L 226.75 51.22 L 226.72 51.86 L 225.95 51.82 L 225.97 51.19 Z" />
<path fill="#ffffff" d=" M 107.27 52.25 L 107.85 52.12 L 108.20 52.84 C 107.93 53.32 107.39 54.29 107.12 54.77 C 106.35 54.88 104.80 55.09 104.03 55.20 L 104.10 54.64 C 104.57 54.28 105.52 53.55 106.00 53.19 C 106.32 52.95 106.95 52.49 107.27 52.25 Z" />
<path fill="#ffffff" d=" M 152.87 52.21 L 153.50 51.83 C 153.93 52.30 154.80 53.24 155.23 53.70 L 154.48 53.98 C 154.08 53.53 153.27 52.65 152.87 52.21 Z" />
<path fill="#ff0000" d=" M 165.63 52.91 C 165.87 52.69 166.35 52.26 166.59 52.05 C 166.72 52.43 166.98 53.21 167.11 53.59 L 166.23 53.68 L 165.63 52.91 Z" />
<path fill="#ffffff" d=" M 173.31 53.33 C 176.05 51.73 179.55 51.46 182.02 53.71 C 179.67 53.83 177.06 51.74 174.57 53.42 L 173.31 53.33 Z" />
<path fill="#ffffff" d=" M 186.72 52.02 C 188.00 51.94 188.86 52.50 189.29 53.69 L 188.54 53.98 C 188.08 53.49 187.18 52.51 186.72 52.02 Z" />
<path fill="#93e2fb" d=" M 191.26 52.18 L 192.12 52.20 L 192.12 52.83 L 191.26 52.84 L 191.26 52.18 Z" />
<path fill="#f0d6a3" d=" M 192.12 52.20 L 192.99 52.19 L 192.99 52.83 L 192.12 52.83 L 192.12 52.20 Z" />
<path fill="#2c779a" d=" M 206.66 53.49 C 207.84 52.95 209.01 52.39 210.17 51.81 C 210.23 52.17 210.34 52.89 210.39 53.25 L 211.06 53.25 C 212.94 53.23 214.82 53.19 216.70 53.15 L 216.08 53.69 C 216.30 54.05 216.74 54.75 216.95 55.11 C 215.38 55.11 213.81 55.03 212.25 54.98 C 211.87 53.14 209.20 54.25 207.92 54.33 C 207.61 54.12 206.98 53.70 206.66 53.49 Z" />
<path fill="#f3f3f3" d=" M 218.20 53.32 C 223.51 53.97 229.18 54.12 234.24 52.15 C 234.14 52.57 233.94 53.41 233.84 53.84 C 233.21 54.53 232.33 54.90 231.46 55.19 C 229.40 54.55 227.26 54.36 225.11 54.47 C 223.70 53.69 222.01 53.71 220.56 54.36 C 219.67 54.22 218.88 53.88 218.20 53.32 Z" />
<path fill="#ffffff" d=" M 83.14 52.38 C 86.19 51.87 85.78 54.35 83.00 52.97 L 83.14 52.38 Z" />
<path fill="#d1edc2" d=" M 93.32 53.46 L 93.67 53.48 C 93.58 53.47 93.41 53.47 93.32 53.46 Z" />
<path fill="#4b8aa3" d=" M 96.63 53.35 C 99.68 52.82 102.88 53.87 106.00 53.19 C 105.52 53.55 104.57 54.28 104.10 54.64 C 103.64 54.57 102.72 54.42 102.26 54.35 L 101.96 55.06 C 100.18 55.19 98.40 55.24 96.64 54.97 C 96.64 54.56 96.64 53.75 96.63 53.35 Z" />
<path fill="#2b9ad9" d=" M 108.20 52.84 L 108.98 52.94 C 109.24 53.45 109.77 54.49 110.03 55.00 C 109.30 54.94 107.85 54.83 107.12 54.77 C 107.39 54.29 107.93 53.32 108.20 52.84 Z" />
<path fill="#c6c79d" d=" M 108.98 52.94 C 109.47 53.04 110.45 53.23 110.93 53.33 C 110.92 53.75 110.90 54.57 110.89 54.98 L 110.03 55.00 C 109.77 54.49 109.24 53.45 108.98 52.94 Z" />
<path fill="#2982ab" d=" M 110.93 53.33 C 112.33 53.32 113.73 53.27 115.13 53.18 C 115.44 54.55 116.11 54.70 117.16 53.63 L 118.63 52.56 C 119.25 53.53 120.08 54.13 121.10 54.36 L 121.50 53.69 C 123.29 53.37 125.10 53.17 126.91 53.11 C 126.97 53.57 127.08 54.49 127.13 54.95 C 122.38 55.29 117.59 55.22 112.83 54.98 L 112.88 54.28 L 112.25 54.26 L 112.13 54.96 L 110.89 54.98 C 110.90 54.57 110.92 53.75 110.93 53.33 Z" />
<path fill="#ffffff" d=" M 115.13 53.18 C 115.64 53.29 116.65 53.52 117.16 53.63 C 116.11 54.70 115.44 54.55 115.13 53.18 Z" />
<path fill="#ffffff" d=" M 126.91 53.11 C 128.80 54.00 130.79 53.36 132.75 53.45 C 133.84 54.95 136.01 54.32 137.14 53.20 C 138.42 53.18 139.71 53.16 141.01 53.13 C 141.02 53.56 141.06 54.41 141.08 54.84 C 140.46 54.77 139.22 54.63 138.60 54.56 L 138.81 54.05 C 138.58 54.16 138.12 54.38 137.88 54.49 C 134.33 55.47 130.72 54.05 127.13 54.95 C 127.08 54.49 126.97 53.57 126.91 53.11 Z" />
<path fill="#26698b" d=" M 132.75 53.45 C 134.19 52.87 135.65 52.79 137.14 53.20 C 136.01 54.32 133.84 54.95 132.75 53.45 Z" />
<path fill="#bac5bc" d=" M 143.92 53.02 C 144.74 53.13 146.38 53.34 147.19 53.44 C 146.40 54.69 144.37 54.45 143.92 53.02 Z" />
<path fill="#8edff1" d=" M 149.33 53.12 L 150.15 53.25 L 150.00 53.78 C 149.83 53.62 149.49 53.29 149.33 53.12 Z" />
<path fill="#c1855c" d=" M 150.15 53.25 L 151.03 53.45 C 150.77 53.54 150.26 53.70 150.00 53.78 L 150.15 53.25 Z" />
<path fill="#8edff0" d=" M 183.28 53.13 L 184.05 53.19 L 183.98 53.78 C 183.81 53.62 183.46 53.29 183.28 53.13 Z" />
<path fill="#bf845c" d=" M 184.05 53.19 L 184.84 53.30 C 184.63 53.42 184.20 53.66 183.98 53.78 L 184.05 53.19 Z" />
<path fill="#cfeac0" d=" M 195.19 53.13 L 195.90 53.04 L 196.28 53.55 L 195.56 53.66 L 195.19 53.13 Z" />
<path fill="#82b9c4" d=" M 216.70 53.15 C 217.07 53.19 217.82 53.28 218.20 53.32 C 218.88 53.88 219.67 54.22 220.56 54.36 L 220.78 54.87 C 219.51 55.03 218.23 55.10 216.95 55.11 C 216.74 54.75 216.30 54.05 216.08 53.69 L 216.70 53.15 Z" />
<path fill="#a7c6c1" d=" M 102.26 54.35 C 102.72 54.42 103.64 54.57 104.10 54.64 L 104.03 55.20 C 103.51 55.16 102.47 55.09 101.96 55.06 L 102.26 54.35 Z" />
<path fill="#e0d488" d=" M 112.25 54.26 L 112.88 54.28 L 112.83 54.98 L 112.13 54.96 L 112.25 54.26 Z" />
<path fill="#2ba1f0" d=" M 137.88 54.49 C 138.12 54.38 138.58 54.16 138.81 54.05 L 138.60 54.56 L 137.88 54.49 Z" />
<path fill="#bfc2c6" d=" M 207.92 54.33 C 209.20 54.25 211.87 53.14 212.25 54.98 C 211.59 55.07 210.27 55.25 209.62 55.34 C 209.19 55.09 208.34 54.59 207.92 54.33 Z" />
<path fill="#a1bdb2" d=" M 220.56 54.36 C 222.01 53.71 223.70 53.69 225.11 54.47 C 223.73 55.20 222.28 55.33 220.78 54.87 L 220.56 54.36 Z" />
<path fill="#ff3333" d=" M 237.10 54.10 C 240.15 52.68 237.49 57.34 237.10 54.10 Z" />
<path fill="#0a0c0d" d=" M 0.00 55.00 C 28.38 55.06 56.76 54.91 85.13 55.08 C 85.05 57.30 85.60 59.76 84.25 61.71 C 82.85 63.01 82.79 65.11 84.20 66.44 C 84.92 67.49 85.24 68.70 85.14 69.97 C 85.18 77.06 84.99 84.15 85.19 91.24 L 85.19 91.79 C 85.14 103.70 84.70 115.65 85.46 127.55 C 122.63 127.92 159.81 127.56 196.98 127.77 C 208.55 127.62 220.13 127.94 231.69 127.67 C 232.28 115.71 231.88 103.72 231.85 91.75 L 231.85 91.24 C 231.96 81.42 231.97 71.60 231.80 61.79 C 233.64 60.93 235.42 59.92 236.99 58.61 C 236.99 75.30 237.04 91.99 236.94 108.68 C 234.90 114.21 234.51 120.17 233.94 125.98 C 233.88 128.52 231.49 130.87 229.00 131.02 C 220.66 131.15 212.38 132.35 204.05 131.96 C 171.72 132.08 139.38 131.94 107.05 132.07 C 102.25 132.23 97.51 131.19 92.71 131.48 C 89.79 131.24 85.87 131.72 84.32 128.63 C 82.94 121.23 83.00 113.62 81.34 106.26 C 80.85 103.78 80.83 101.23 80.21 98.78 C 79.44 97.01 77.30 97.59 75.78 97.50 C 52.92 97.54 30.05 97.50 7.18 97.50 C 4.79 97.56 2.38 97.62 0.00 97.30 L 0.00 63.64 C 0.95 63.60 2.84 63.52 3.79 63.47 C 4.09 64.71 3.11 66.69 4.78 67.27 C 4.87 64.45 4.85 61.63 4.69 58.82 C 3.10 59.43 4.19 61.52 3.77 62.71 C 2.83 62.71 0.94 62.71 0.00 62.71 L 0.00 55.00 Z" />
<path fill="#303030" d=" M 85.13 55.08 C 87.28 55.21 89.46 55.28 91.50 54.49 C 93.23 54.45 94.94 54.67 96.64 54.97 C 98.40 55.24 100.18 55.19 101.96 55.06 C 102.47 55.09 103.51 55.16 104.03 55.20 C 104.80 55.09 106.35 54.88 107.12 54.77 C 107.85 54.83 109.30 54.94 110.03 55.00 L 110.89 54.98 L 112.13 54.96 L 112.83 54.98 C 117.59 55.22 122.38 55.29 127.13 54.95 C 130.72 54.05 134.33 55.47 137.88 54.49 L 138.60 54.56 C 139.22 54.63 140.46 54.77 141.08 54.84 C 142.37 55.01 143.67 55.11 144.98 55.13 C 163.41 55.07 181.85 55.16 200.28 55.07 C 205.23 60.86 212.79 64.06 220.35 64.15 C 220.36 62.25 220.36 60.35 220.37 58.45 C 216.63 58.16 212.78 57.50 209.62 55.34 C 210.27 55.25 211.59 55.07 212.25 54.98 C 213.81 55.03 215.38 55.11 216.95 55.11 C 218.23 55.10 219.51 55.03 220.78 54.87 C 222.28 55.33 223.73 55.20 225.11 54.47 C 227.26 54.36 229.40 54.55 231.46 55.19 L 230.18 56.47 C 231.85 58.91 227.76 59.25 228.58 56.90 C 226.02 57.90 223.28 58.28 220.56 58.42 C 220.58 60.32 220.60 62.23 220.63 64.13 C 224.47 64.09 228.28 63.34 231.80 61.79 C 231.97 71.60 231.96 81.42 231.85 91.24 C 182.96 91.39 134.08 91.33 85.19 91.24 C 84.99 84.15 85.18 77.06 85.14 69.97 C 85.24 68.70 84.92 67.49 84.20 66.44 C 85.66 65.51 85.76 62.63 84.25 61.71 C 85.60 59.76 85.05 57.30 85.13 55.08 Z" />
<path fill="#959595" d=" M 13.23 58.06 C 14.91 60.59 13.59 64.09 14.00 67.00 L 12.78 67.00 C 12.94 64.03 12.28 60.94 13.23 58.06 Z" />
<path fill="#bfbfbf" d=" M 15.81 66.64 C 16.27 63.91 14.78 60.36 16.68 58.16 C 16.91 61.16 16.79 64.17 16.86 67.18 C 16.60 67.04 16.07 66.77 15.81 66.64 Z" />
<path fill="#bfbfbf" d=" M 47.92 61.28 C 47.43 59.93 47.70 58.90 48.73 58.21 C 48.86 61.20 48.80 64.20 48.86 67.19 C 46.71 66.84 48.39 64.22 47.82 63.02 C 47.08 62.47 46.34 61.94 45.60 61.41 C 44.61 63.09 44.64 65.00 44.78 66.88 L 43.74 67.05 C 43.76 65.26 43.73 63.47 43.63 61.68 C 44.95 60.91 46.47 61.15 47.92 61.28 Z" />
<path fill="#bfbfbf" d=" M 54.49 58.38 C 54.71 58.43 55.15 58.52 55.36 58.57 C 55.52 61.18 55.37 63.79 55.50 66.40 C 56.15 66.38 57.45 66.33 58.10 66.30 C 57.61 67.26 57.05 68.19 56.45 69.08 C 56.47 68.44 56.51 67.16 56.53 66.51 C 54.67 66.32 51.48 68.01 50.67 65.51 C 49.74 63.06 51.65 59.94 54.50 61.41 C 54.50 60.65 54.49 59.14 54.49 58.38 Z" />
<path fill="#bfbfbf" d=" M 3.77 62.71 C 4.19 61.52 3.10 59.43 4.69 58.82 C 4.85 61.63 4.87 64.45 4.78 67.27 C 3.11 66.69 4.09 64.71 3.79 63.47 C 2.84 63.52 0.95 63.60 0.00 63.64 L 0.00 62.71 C 0.94 62.71 2.83 62.71 3.77 62.71 Z" />
<path fill="#bfbfbf" d=" M 27.32 59.16 C 29.63 59.17 28.55 62.56 29.37 64.04 C 30.80 62.78 30.80 60.64 31.51 58.99 C 33.23 59.29 32.55 61.52 32.80 62.68 L 34.52 62.89 C 34.88 61.56 34.80 59.99 35.77 58.90 C 36.85 61.35 34.31 64.13 34.66 66.83 C 34.33 66.82 33.66 66.79 33.33 66.78 C 33.39 65.07 32.99 62.72 31.06 62.18 C 30.38 63.73 31.43 66.61 29.20 67.15 C 28.62 64.47 28.02 61.81 27.32 59.16 Z" />
<path fill="#bfbfbf" d=" M 61.55 60.99 C 62.34 58.15 67.85 58.53 66.89 61.92 C 66.14 59.96 62.68 58.53 62.39 61.67 L 64.77 61.87 C 64.13 62.45 63.49 63.04 62.87 63.63 C 62.54 62.97 61.88 61.65 61.55 60.99 Z" />
<path fill="#bfbfbf" d=" M 6.61 65.01 C 5.85 62.52 8.19 60.31 10.65 61.33 C 11.25 63.12 10.86 64.33 9.47 64.96 C 9.63 64.21 9.94 62.73 10.09 61.98 C 9.57 61.99 8.52 61.99 8.00 61.99 C 8.74 63.40 8.59 64.73 7.56 65.97 C 8.41 66.03 10.12 66.14 10.98 66.20 L 10.90 66.97 C 9.34 66.81 6.79 67.21 6.61 65.01 Z" />
<path fill="#bfbfbf" d=" M 19.00 66.00 C 17.93 64.34 18.51 61.06 20.95 61.17 C 23.99 60.85 24.30 64.92 22.80 66.73 C 21.55 66.65 19.74 67.44 19.00 66.00 Z" />
<path fill="#bfbfbf" d=" M 38.54 61.55 C 42.75 58.68 44.58 67.50 39.96 66.92 C 37.17 67.15 36.79 62.95 38.54 61.55 Z" />
<path fill="#bfbfbf" d=" M 73.68 61.48 C 75.77 60.79 77.88 62.04 79.90 61.16 C 82.89 61.26 81.39 65.25 81.85 67.18 C 78.97 66.47 82.93 61.07 78.67 61.79 C 77.62 63.36 79.66 66.69 77.28 67.05 C 77.21 64.97 78.28 61.37 74.95 61.74 C 74.70 63.46 74.70 65.21 74.78 66.94 C 72.63 66.82 74.22 63.06 73.68 61.48 Z" />
<path fill="#0a0c0d" d=" M 19.97 62.25 C 22.88 60.12 23.91 66.45 21.01 66.13 C 18.96 66.50 19.36 63.36 19.97 62.25 Z" />
<path fill="#0a0c0d" d=" M 39.00 61.99 C 41.76 60.82 42.19 64.33 41.23 66.12 C 38.35 67.21 38.00 63.86 39.00 61.99 Z" />
<path fill="#0a0c0d" d=" M 54.29 66.07 C 50.51 67.64 50.61 61.00 54.25 61.74 C 54.43 63.18 54.45 64.62 54.29 66.07 Z" />
<path fill="#5f5f60" d=" M 84.25 61.71 C 85.76 62.63 85.66 65.51 84.20 66.44 C 82.79 65.11 82.85 63.01 84.25 61.71 Z" />
<path fill="#bfbfbf" d=" M 66.34 64.65 C 65.24 64.37 64.61 63.58 64.43 62.28 C 66.66 62.13 68.15 65.90 66.02 66.82 C 64.39 66.91 61.83 67.35 61.73 65.02 C 63.00 65.89 66.29 67.39 66.34 64.65 Z" />
<path fill="#919292" d=" M 68.05 67.24 C 69.38 66.94 72.46 66.24 72.96 67.74 C 71.63 68.05 68.51 68.79 68.05 67.24 Z" />
<path fill="#888888" d=" M 120.08 67.08 C 121.66 66.70 122.20 67.28 121.67 68.83 C 120.03 69.39 119.49 68.81 120.08 67.08 Z" />
<path fill="#f3f3f3" d=" M 99.42 68.65 C 101.57 66.96 105.30 68.18 105.68 70.97 C 105.89 72.70 105.99 74.54 105.35 76.19 C 104.03 78.59 100.29 78.85 98.67 76.65 C 97.43 74.24 97.28 70.58 99.42 68.65 Z" />
<path fill="#dedede" d=" M 116.80 68.48 C 117.78 68.91 118.04 70.37 118.92 71.03 C 118.57 71.44 117.86 72.25 117.51 72.65 C 117.97 74.14 116.67 76.92 118.92 77.28 L 119.07 78.06 C 114.32 79.17 117.49 73.05 115.29 71.02 C 115.77 70.16 116.27 69.31 116.80 68.48 Z" />
<path fill="#bfbfbf" d=" M 142.11 69.41 C 142.51 67.77 144.69 68.35 145.92 67.98 C 146.05 71.34 146.00 74.71 145.99 78.08 C 145.56 78.02 144.70 77.90 144.27 77.84 C 144.15 75.20 144.55 72.53 144.13 69.91 C 143.63 69.78 142.62 69.54 142.11 69.41 Z" />
<path fill="#303030" d=" M 101.02 69.10 C 104.57 68.28 105.02 72.56 104.42 75.01 C 104.11 77.60 99.59 77.73 99.38 75.05 C 99.17 73.06 98.62 69.94 101.02 69.10 Z" />
<path fill="#f3f3f3" d=" M 108.10 70.42 C 109.66 71.38 111.49 69.83 112.99 70.92 C 115.51 73.38 114.33 79.43 109.88 77.96 L 109.81 77.21 C 114.20 78.23 113.88 70.08 109.56 71.47 C 109.02 74.65 109.85 77.87 109.16 81.05 L 108.15 80.75 C 107.76 77.33 107.94 73.85 108.10 70.42 Z" />
<path fill="#f3f3f3" d=" M 125.96 78.35 C 121.63 78.13 121.46 70.46 125.86 70.47 C 129.40 70.23 130.11 75.08 128.35 77.39 C 127.75 77.63 126.56 78.11 125.96 78.35 Z" />
<path fill="#f3f3f3" d=" M 131.10 70.40 C 132.76 71.53 135.15 69.47 136.46 71.37 C 137.30 73.49 136.79 75.91 136.93 78.16 C 133.97 77.65 136.64 73.62 135.31 71.70 C 134.60 71.65 133.17 71.55 132.46 71.50 C 131.55 73.47 133.89 77.69 130.98 78.17 C 130.95 75.58 130.88 72.98 131.10 70.40 Z" />
<path fill="#dadada" d=" M 120.22 73.99 C 119.86 72.52 120.09 71.46 120.91 70.80 C 121.43 73.03 121.51 75.71 120.93 77.91 C 119.33 77.64 120.59 75.11 120.22 73.99 Z" />
<path fill="#303030" d=" M 124.90 71.84 C 128.18 69.72 129.35 77.09 126.04 76.99 C 123.50 77.22 123.29 73.10 124.90 71.84 Z" />
<path fill="#828282" d=" M 85.19 91.24 C 134.08 91.33 182.96 91.39 231.85 91.24 L 231.85 91.75 C 182.96 91.69 134.08 91.58 85.19 91.79 L 85.19 91.24 Z" />
<path fill="#303030" d=" M 85.19 91.79 C 134.08 91.58 182.96 91.69 231.85 91.75 C 231.88 103.72 232.28 115.71 231.69 127.67 C 220.13 127.94 208.55 127.62 196.98 127.77 C 159.81 127.56 122.63 127.92 85.46 127.55 C 84.70 115.65 85.14 103.70 85.19 91.79 Z" />
<path fill="#121417" d=" M 0.00 97.30 C 2.38 97.62 4.79 97.56 7.18 97.50 C 30.05 97.50 52.92 97.54 75.78 97.50 C 77.30 97.59 79.44 97.01 80.21 98.78 C 80.83 101.23 80.85 103.78 81.34 106.26 C 83.00 113.62 82.94 121.23 84.32 128.63 C 85.87 131.72 89.79 131.24 92.71 131.48 C 97.51 131.19 102.25 132.23 107.05 132.07 C 139.38 131.94 171.72 132.08 204.05 131.96 C 212.38 132.35 220.66 131.15 229.00 131.02 C 231.49 130.87 233.88 128.52 233.94 125.98 C 234.51 120.17 234.90 114.21 236.94 108.68 C 237.09 127.45 236.94 146.22 237.01 165.00 C 234.30 162.45 230.41 164.27 227.32 162.64 C 226.66 162.93 226.01 163.22 225.35 163.52 C 224.92 163.29 224.05 162.83 223.62 162.60 C 222.53 162.99 221.46 163.53 220.28 163.53 C 175.77 163.47 131.26 163.52 86.76 163.47 C 84.33 163.52 81.75 163.96 79.58 162.56 C 78.84 162.87 78.10 163.18 77.37 163.50 C 76.95 163.26 76.12 162.80 75.70 162.56 C 74.94 162.86 74.19 163.16 73.43 163.46 C 72.74 163.12 72.05 162.78 71.36 162.44 C 70.93 162.70 70.08 163.22 69.66 163.48 C 68.97 163.17 68.29 162.86 67.61 162.56 C 66.85 162.87 66.10 163.18 65.35 163.50 C 64.93 163.25 64.08 162.75 63.65 162.50 C 62.98 162.80 62.31 163.10 61.64 163.41 C 60.89 163.13 60.15 162.85 59.41 162.57 C 58.70 162.89 57.99 163.21 57.28 163.54 C 56.87 163.27 56.04 162.72 55.63 162.45 C 54.95 162.80 54.27 163.16 53.58 163.51 C 52.93 163.19 52.28 162.86 51.63 162.54 C 50.88 162.84 50.14 163.14 49.40 163.45 C 48.96 163.21 48.10 162.74 47.66 162.51 C 46.91 162.83 46.15 163.15 45.40 163.47 C 44.96 163.24 44.10 162.79 43.66 162.56 C 42.89 162.87 42.11 163.19 41.34 163.51 C 40.93 163.27 40.11 162.79 39.70 162.54 C 38.94 162.82 38.19 163.10 37.44 163.38 C 36.75 163.06 36.06 162.75 35.37 162.44 C 34.94 162.69 34.09 163.19 33.66 163.44 C 32.91 163.18 32.15 162.92 31.40 162.67 C 30.16 163.33 28.85 163.37 27.63 162.66 C 26.88 162.88 26.14 163.11 25.40 163.35 C 24.96 163.15 24.08 162.76 23.64 162.57 C 22.90 162.83 22.15 163.10 21.41 163.37 C 20.08 162.38 18.63 162.71 17.29 163.48 C 16.89 163.23 16.08 162.75 15.68 162.51 C 14.91 162.86 14.14 163.21 13.37 163.57 C 12.92 163.28 12.02 162.70 11.57 162.41 C 10.84 162.77 10.11 163.14 9.37 163.51 C 8.95 163.27 8.09 162.78 7.66 162.53 C 6.90 162.85 6.14 163.17 5.38 163.49 C 4.94 163.26 4.07 162.78 3.64 162.54 C 2.48 163.00 1.28 163.43 0.00 163.39 L 0.00 97.30 Z" />
<path fill="#888888" d=" M 120.05 104.10 C 121.61 103.64 122.15 104.20 121.68 105.79 C 120.06 106.41 119.51 105.85 120.05 104.10 Z" />
<path fill="#f3f3f3" d=" M 99.44 105.63 C 101.59 103.98 105.27 105.17 105.67 107.94 C 105.89 109.68 106.00 111.53 105.35 113.20 C 103.95 115.86 99.35 115.84 98.32 112.92 C 97.48 110.60 97.43 107.35 99.44 105.63 Z" />
<path fill="#dedede" d=" M 116.81 105.42 C 117.47 106.31 118.86 107.26 118.66 108.42 C 116.84 109.59 117.65 111.97 117.78 113.71 C 120.91 114.43 117.41 116.30 116.48 114.52 C 115.74 112.52 116.95 110.08 115.42 108.34 C 115.39 107.24 116.35 106.37 116.81 105.42 Z" />
<path fill="#f3f3f3" d=" M 141.33 107.58 C 142.09 105.03 145.27 104.19 147.31 105.77 C 149.19 109.19 145.23 111.61 143.38 113.91 C 145.19 114.07 147.28 113.49 148.85 114.68 C 146.44 115.26 143.94 114.95 141.48 114.96 C 142.79 112.34 145.60 110.75 146.62 107.99 C 146.94 105.10 142.80 105.50 142.65 108.05 C 142.32 107.93 141.66 107.70 141.33 107.58 Z" />
<path fill="#303030" d=" M 101.00 106.10 C 105.27 105.12 105.81 112.27 102.91 113.81 C 98.47 115.37 97.87 107.49 101.00 106.10 Z" />
<path fill="#f3f3f3" d=" M 108.16 107.44 C 109.71 108.38 111.56 106.77 113.00 107.97 C 115.97 110.38 113.58 117.47 109.52 114.29 C 114.10 115.49 114.06 107.10 109.53 108.49 C 109.03 111.59 109.87 114.73 109.18 117.82 L 108.12 117.98 C 107.91 114.47 107.78 110.93 108.16 107.44 Z" />
<path fill="#f3f3f3" d=" M 123.33 113.78 C 121.55 111.42 123.12 106.77 126.50 107.49 C 129.64 107.92 129.89 112.24 128.34 114.41 C 126.76 115.39 124.34 115.59 123.33 113.78 Z" />
<path fill="#f3f3f3" d=" M 131.12 107.35 C 132.71 108.62 135.14 106.43 136.44 108.35 C 137.31 110.48 136.79 112.91 136.94 115.17 C 133.96 114.67 136.59 110.68 135.36 108.73 C 134.63 108.67 133.18 108.55 132.46 108.49 C 131.51 110.52 133.95 114.64 130.99 115.20 C 130.94 112.58 130.87 109.96 131.12 107.35 Z" />
<path fill="#dadada" d=" M 120.23 111.02 C 119.86 109.54 120.09 108.46 120.89 107.78 C 121.45 110.00 121.46 112.66 120.96 114.89 C 119.32 114.76 120.60 112.09 120.23 111.02 Z" />
<path fill="#303030" d=" M 124.93 108.79 C 128.92 106.78 129.06 115.68 124.95 114.06 C 123.74 112.58 123.39 110.16 124.93 108.79 Z" />
<path fill="#181b1f" d=" M 0.00 163.39 C 1.28 163.43 2.48 163.00 3.64 162.54 C 4.07 162.78 4.94 163.26 5.38 163.49 C 6.14 163.17 6.90 162.85 7.66 162.53 C 8.09 162.78 8.95 163.27 9.37 163.51 C 10.11 163.14 10.84 162.77 11.57 162.41 C 12.02 162.70 12.92 163.28 13.37 163.57 C 14.14 163.21 14.91 162.86 15.68 162.51 C 16.08 162.75 16.89 163.23 17.29 163.48 C 18.63 162.71 20.08 162.38 21.41 163.37 C 22.15 163.10 22.90 162.83 23.64 162.57 C 24.08 162.76 24.96 163.15 25.40 163.35 C 26.14 163.11 26.88 162.88 27.63 162.66 C 28.85 163.37 30.16 163.33 31.40 162.67 C 32.15 162.92 32.91 163.18 33.66 163.44 C 34.09 163.19 34.94 162.69 35.37 162.44 C 36.06 162.75 36.75 163.06 37.44 163.38 C 38.19 163.10 38.94 162.82 39.70 162.54 C 40.11 162.79 40.93 163.27 41.34 163.51 C 42.11 163.19 42.89 162.87 43.66 162.56 C 44.10 162.79 44.96 163.24 45.40 163.47 C 46.15 163.15 46.91 162.83 47.66 162.51 C 48.10 162.74 48.96 163.21 49.40 163.45 C 50.14 163.14 50.88 162.84 51.63 162.54 C 52.28 162.86 52.93 163.19 53.58 163.51 C 54.27 163.16 54.95 162.80 55.63 162.45 C 56.04 162.72 56.87 163.27 57.28 163.54 C 57.99 163.21 58.70 162.89 59.41 162.57 C 60.15 162.85 60.89 163.13 61.64 163.41 C 62.31 163.10 62.98 162.80 63.65 162.50 C 64.08 162.75 64.93 163.25 65.35 163.50 C 66.10 163.18 66.85 162.87 67.61 162.56 C 68.29 162.86 68.97 163.17 69.66 163.48 C 70.08 163.22 70.93 162.70 71.36 162.44 C 72.05 162.78 72.74 163.12 73.43 163.46 C 74.19 163.16 74.94 162.86 75.70 162.56 C 76.12 162.80 76.95 163.26 77.37 163.50 C 78.10 163.18 78.84 162.87 79.58 162.56 C 81.75 163.96 84.33 163.52 86.76 163.47 C 131.26 163.52 175.77 163.47 220.28 163.53 C 221.46 163.53 222.53 162.99 223.62 162.60 C 224.05 162.83 224.92 163.29 225.35 163.52 C 226.01 163.22 226.66 162.93 227.32 162.64 C 230.41 164.27 234.30 162.45 237.01 165.00 C 237.01 183.64 236.97 202.28 237.01 220.93 C 236.09 220.45 235.29 219.66 234.26 219.50 C 183.76 219.48 133.25 219.54 82.74 219.46 C 80.68 219.40 78.81 220.47 76.77 220.53 C 56.41 220.49 36.06 220.52 15.70 220.48 C 10.47 220.67 5.21 220.13 0.00 220.76 L 0.00 163.39 Z" />
<path fill="#1e2328" d=" M 76.77 220.53 C 78.81 220.47 80.68 219.40 82.74 219.46 C 133.25 219.54 183.76 219.48 234.26 219.50 C 235.29 219.66 236.09 220.45 237.01 220.93 C 237.01 237.02 236.98 253.11 237.00 269.20 C 229.44 269.89 221.82 269.30 214.24 269.51 C 209.84 269.13 205.51 270.25 201.34 271.49 C 200.68 271.15 200.02 270.82 199.36 270.48 C 198.91 270.74 198.02 271.27 197.58 271.53 C 196.84 271.20 196.11 270.88 195.38 270.57 C 194.96 270.78 194.11 271.22 193.69 271.44 C 192.91 271.16 192.14 270.89 191.37 270.62 C 190.93 270.83 190.05 271.25 189.62 271.45 C 188.94 271.14 188.27 270.84 187.60 270.54 C 186.95 270.84 186.30 271.15 185.65 271.47 C 184.96 271.18 184.28 270.89 183.59 270.61 C 182.85 270.92 182.11 271.23 181.37 271.54 C 180.95 271.26 180.13 270.71 179.71 270.43 C 179.01 270.78 178.31 271.13 177.62 271.49 C 176.97 271.17 176.33 270.85 175.69 270.53 C 174.90 270.84 174.12 271.15 173.34 271.47 C 172.93 271.25 172.10 270.81 171.69 270.59 C 170.33 271.36 168.90 271.49 167.57 270.58 C 166.82 270.86 166.07 271.15 165.33 271.44 C 164.91 271.23 164.06 270.81 163.64 270.59 C 162.33 271.25 160.93 271.48 159.61 270.70 C 158.85 270.92 158.10 271.16 157.35 271.40 C 156.69 271.11 156.02 270.83 155.36 270.55 C 154.93 270.79 154.06 271.28 153.62 271.52 C 152.96 271.19 152.30 270.87 151.64 270.56 C 150.89 270.87 150.15 271.19 149.41 271.52 C 148.96 271.26 148.08 270.75 147.64 270.49 C 146.86 270.83 146.09 271.17 145.33 271.51 C 144.90 271.24 144.05 270.70 143.63 270.42 C 142.94 270.79 142.26 271.15 141.58 271.52 C 140.92 271.18 140.26 270.85 139.60 270.53 C 138.85 270.84 138.10 271.15 137.35 271.47 C 136.67 271.11 135.99 270.76 135.32 270.41 C 134.90 270.68 134.07 271.22 133.65 271.49 C 132.97 271.17 132.29 270.86 131.61 270.55 C 130.95 270.84 130.29 271.13 129.63 271.42 C 128.88 271.12 128.14 270.82 127.39 270.53 C 126.97 270.77 126.13 271.25 125.70 271.49 C 124.93 271.19 124.16 270.89 123.39 270.60 C 122.71 270.89 122.03 271.18 121.36 271.48 C 120.95 271.23 120.12 270.74 119.71 270.50 C 119.02 270.81 118.33 271.12 117.64 271.44 C 116.85 271.15 116.07 270.85 115.28 270.56 C 114.64 270.86 113.99 271.16 113.35 271.47 C 112.68 271.15 112.02 270.82 111.36 270.51 C 110.95 270.73 110.11 271.19 109.70 271.42 C 108.91 271.13 108.13 270.86 107.35 270.58 C 106.93 270.81 106.08 271.26 105.65 271.49 C 104.89 271.19 104.13 270.89 103.36 270.61 C 102.06 271.58 100.62 271.24 99.28 270.57 C 98.86 270.79 98.02 271.22 97.60 271.44 C 96.85 271.16 96.11 270.88 95.36 270.61 C 94.93 270.82 94.06 271.24 93.62 271.45 C 92.96 271.16 92.29 270.88 91.63 270.61 C 89.59 272.28 87.39 269.83 85.29 271.37 C 84.87 271.17 84.04 270.78 83.62 270.58 C 82.87 270.86 82.13 271.14 81.38 271.43 C 80.17 270.39 78.82 270.39 77.59 271.40 C 76.84 271.11 76.10 270.82 75.35 270.54 C 74.69 270.87 74.03 271.20 73.36 271.54 C 72.93 271.27 72.08 270.72 71.65 270.44 C 70.88 270.80 70.11 271.16 69.34 271.52 C 68.93 271.24 68.09 270.68 67.67 270.40 C 66.99 270.75 66.31 271.11 65.63 271.47 C 64.90 271.17 64.17 270.88 63.43 270.60 C 62.10 271.57 60.66 271.31 59.32 270.52 C 58.91 270.75 58.07 271.20 57.65 271.42 C 56.25 270.54 54.75 270.49 53.35 271.41 C 52.69 271.13 52.03 270.84 51.37 270.57 C 50.96 270.78 50.12 271.20 49.70 271.41 C 48.91 271.12 48.12 270.83 47.33 270.55 C 46.68 270.84 46.04 271.14 45.39 271.44 C 44.98 271.21 44.14 270.76 43.72 270.53 C 42.30 271.46 40.78 271.40 39.34 270.56 C 38.91 270.80 38.04 271.27 37.61 271.50 C 36.96 271.17 36.32 270.83 35.68 270.51 C 34.90 270.82 34.12 271.14 33.34 271.46 C 32.90 271.25 32.03 270.82 31.60 270.60 C 30.84 270.90 30.08 271.19 29.33 271.49 C 28.91 271.24 28.07 270.75 27.65 270.50 C 26.89 270.81 26.13 271.13 25.37 271.46 C 24.93 271.24 24.07 270.80 23.63 270.59 C 22.98 270.87 22.33 271.15 21.68 271.43 C 20.92 271.16 20.15 270.89 19.39 270.63 C 18.14 271.60 16.78 271.44 15.55 270.53 C 14.90 270.82 14.25 271.12 13.61 271.42 C 12.86 271.12 12.12 270.83 11.38 270.54 C 10.70 270.83 10.02 271.12 9.34 271.42 C 8.70 271.13 8.07 270.85 7.43 270.57 C 6.75 270.88 6.07 271.20 5.39 271.52 C 4.72 271.16 4.05 270.81 3.39 270.46 C 2.96 270.72 2.09 271.23 1.66 271.49 C 1.25 271.42 0.42 271.28 0.00 271.21 L 0.00 220.76 C 5.21 220.13 10.47 220.67 15.70 220.48 C 36.06 220.52 56.41 220.49 76.77 220.53 Z" />
<path fill="#252a30" d=" M 201.34 271.49 C 205.51 270.25 209.84 269.13 214.24 269.51 C 221.82 269.30 229.44 269.89 237.00 269.20 C 236.98 285.86 237.04 302.53 236.95 319.18 C 236.81 319.64 236.51 320.55 236.36 321.00 L 0.00 321.00 L 0.00 271.21 C 0.42 271.28 1.25 271.42 1.66 271.49 C 2.09 271.23 2.96 270.72 3.39 270.46 C 4.05 270.81 4.72 271.16 5.39 271.52 C 6.07 271.20 6.75 270.88 7.43 270.57 C 8.07 270.85 8.70 271.13 9.34 271.42 C 10.02 271.12 10.70 270.83 11.38 270.54 C 12.12 270.83 12.86 271.12 13.61 271.42 C 14.25 271.12 14.90 270.82 15.55 270.53 C 16.78 271.44 18.14 271.60 19.39 270.63 C 20.15 270.89 20.92 271.16 21.68 271.43 C 22.33 271.15 22.98 270.87 23.63 270.59 C 24.07 270.80 24.93 271.24 25.37 271.46 C 26.13 271.13 26.89 270.81 27.65 270.50 C 28.07 270.75 28.91 271.24 29.33 271.49 C 30.08 271.19 30.84 270.90 31.60 270.60 C 32.03 270.82 32.90 271.25 33.34 271.46 C 34.12 271.14 34.90 270.82 35.68 270.51 C 36.32 270.83 36.96 271.17 37.61 271.50 C 38.04 271.27 38.91 270.80 39.34 270.56 C 40.78 271.40 42.30 271.46 43.72 270.53 C 44.14 270.76 44.98 271.21 45.39 271.44 C 46.04 271.14 46.68 270.84 47.33 270.55 C 48.12 270.83 48.91 271.12 49.70 271.41 C 50.12 271.20 50.96 270.78 51.37 270.57 C 52.03 270.84 52.69 271.13 53.35 271.41 C 54.75 270.49 56.25 270.54 57.65 271.42 C 58.07 271.20 58.91 270.75 59.32 270.52 C 60.66 271.31 62.10 271.57 63.43 270.60 C 64.17 270.88 64.90 271.17 65.63 271.47 C 66.31 271.11 66.99 270.75 67.67 270.40 C 68.09 270.68 68.93 271.24 69.34 271.52 C 70.11 271.16 70.88 270.80 71.65 270.44 C 72.08 270.72 72.93 271.27 73.36 271.54 C 74.03 271.20 74.69 270.87 75.35 270.54 C 76.10 270.82 76.84 271.11 77.59 271.40 C 78.82 270.39 80.17 270.39 81.38 271.43 C 82.13 271.14 82.87 270.86 83.62 270.58 C 84.04 270.78 84.87 271.17 85.29 271.37 C 87.39 269.83 89.59 272.28 91.63 270.61 C 92.29 270.88 92.96 271.16 93.62 271.45 C 94.06 271.24 94.93 270.82 95.36 270.61 C 96.11 270.88 96.85 271.16 97.60 271.44 C 98.02 271.22 98.86 270.79 99.28 270.57 C 100.62 271.24 102.06 271.58 103.36 270.61 C 104.13 270.89 104.89 271.19 105.65 271.49 C 106.08 271.26 106.93 270.81 107.35 270.58 C 108.13 270.86 108.91 271.13 109.70 271.42 C 110.11 271.19 110.95 270.73 111.36 270.51 C 112.02 270.82 112.68 271.15 113.35 271.47 C 113.99 271.16 114.64 270.86 115.28 270.56 C 116.07 270.85 116.85 271.15 117.64 271.44 C 118.33 271.12 119.02 270.81 119.71 270.50 C 120.12 270.74 120.95 271.23 121.36 271.48 C 122.03 271.18 122.71 270.89 123.39 270.60 C 124.16 270.89 124.93 271.19 125.70 271.49 C 126.13 271.25 126.97 270.77 127.39 270.53 C 128.14 270.82 128.88 271.12 129.63 271.42 C 130.29 271.13 130.95 270.84 131.61 270.55 C 132.29 270.86 132.97 271.17 133.65 271.49 C 134.07 271.22 134.90 270.68 135.32 270.41 C 135.99 270.76 136.67 271.11 137.35 271.47 C 138.10 271.15 138.85 270.84 139.60 270.53 C 140.26 270.85 140.92 271.18 141.58 271.52 C 142.26 271.15 142.94 270.79 143.63 270.42 C 144.05 270.70 144.90 271.24 145.33 271.51 C 146.09 271.17 146.86 270.83 147.64 270.49 C 148.08 270.75 148.96 271.26 149.41 271.52 C 150.15 271.19 150.89 270.87 151.64 270.56 C 152.30 270.87 152.96 271.19 153.62 271.52 C 154.06 271.28 154.93 270.79 155.36 270.55 C 156.02 270.83 156.69 271.11 157.35 271.40 C 158.10 271.16 158.85 270.92 159.61 270.70 C 160.93 271.48 162.33 271.25 163.64 270.59 C 164.06 270.81 164.91 271.23 165.33 271.44 C 166.07 271.15 166.82 270.86 167.57 270.58 C 168.90 271.49 170.33 271.36 171.69 270.59 C 172.10 270.81 172.93 271.25 173.34 271.47 C 174.12 271.15 174.90 270.84 175.69 270.53 C 176.33 270.85 176.97 271.17 177.62 271.49 C 178.31 271.13 179.01 270.78 179.71 270.43 C 180.13 270.71 180.95 271.26 181.37 271.54 C 182.11 271.23 182.85 270.92 183.59 270.61 C 184.28 270.89 184.96 271.18 185.65 271.47 C 186.30 271.15 186.95 270.84 187.60 270.54 C 188.27 270.84 188.94 271.14 189.62 271.45 C 190.05 271.25 190.93 270.83 191.37 270.62 C 192.14 270.89 192.91 271.16 193.69 271.44 C 194.11 271.22 194.96 270.78 195.38 270.57 C 196.11 270.88 196.84 271.20 197.58 271.53 C 198.02 271.27 198.91 270.74 199.36 270.48 C 200.02 270.82 200.68 271.15 201.34 271.49 Z" />
</svg>
