<?xml version="1.0" encoding="UTF-8" ?>
<!DOCTYPE svg PUBLIC "-//W3C//DTD SVG 1.1//EN" "http://www.w3.org/Graphics/SVG/1.1/DTD/svg11.dtd">
<svg width="414pt" height="455pt" viewBox="0 0 414 455" version="1.1" xmlns="http://www.w3.org/2000/svg">
<path fill="#000000" d=" M 0.00 0.00 L 414.00 0.00 L 414.00 455.00 L 0.00 455.00 L 0.00 0.00 Z" />
<path fill="#f7f7f7" d=" M 3.03 5.04 C 139.42 5.03 275.80 5.03 412.19 5.04 C 412.18 8.15 412.21 11.25 412.18 14.35 C 410.31 14.51 408.45 14.66 406.59 14.80 C 406.36 14.17 405.91 12.92 405.68 12.29 C 405.26 12.99 404.85 13.69 404.45 14.40 C 395.46 14.76 386.45 14.47 377.45 14.39 C 376.53 14.40 375.61 14.41 374.70 14.43 C 372.81 17.44 370.76 20.36 368.83 23.35 C 368.55 23.21 367.99 22.92 367.70 22.78 C 366.94 22.40 365.41 21.63 364.64 21.24 C 366.99 20.29 367.71 18.21 367.30 15.90 C 364.61 14.30 361.47 14.13 358.52 15.03 C 358.47 15.52 358.38 16.51 358.34 17.01 C 355.52 16.12 352.62 16.56 350.21 18.22 C 349.75 17.92 348.83 17.32 348.38 17.02 C 348.38 16.36 348.39 15.04 348.39 14.39 C 347.47 14.42 346.54 14.46 345.63 14.50 C 343.91 15.88 342.26 17.36 340.93 19.13 C 339.07 17.83 338.32 15.59 336.98 13.85 C 336.01 13.82 335.12 14.09 334.33 14.66 L 333.61 15.13 C 329.56 14.31 325.42 14.61 321.32 14.50 L 321.24 13.53 C 320.54 12.54 319.52 11.88 318.53 11.24 C 312.41 10.81 306.23 10.84 300.10 11.21 C 299.20 11.83 298.35 12.51 297.47 13.15 C 295.43 14.06 293.25 14.58 291.09 15.09 C 290.29 14.04 289.50 12.99 288.71 11.95 C 288.61 10.38 289.05 8.26 287.00 7.80 C 279.12 7.48 271.20 7.64 263.32 7.76 C 262.91 8.05 262.11 8.62 261.70 8.91 C 261.13 12.06 260.73 15.24 260.47 18.43 C 259.15 18.94 257.83 19.45 256.52 19.96 C 256.49 19.37 256.45 18.18 256.42 17.59 C 254.78 17.27 253.12 16.98 251.48 16.68 C 250.97 13.80 252.85 9.19 249.52 7.69 C 243.29 7.43 237.00 7.38 230.78 7.72 C 228.35 9.31 229.66 12.74 229.24 15.15 C 228.00 14.95 226.77 14.74 225.54 14.54 C 225.32 14.00 224.89 12.93 224.67 12.40 C 224.15 13.12 223.64 13.85 223.13 14.57 C 221.94 14.30 220.75 14.03 219.57 13.74 C 215.28 12.76 211.23 11.02 207.19 9.32 C 207.03 9.72 206.71 10.50 206.55 10.90 C 205.52 10.58 204.52 10.25 203.50 9.93 C 203.14 10.78 202.40 12.48 202.03 13.33 C 201.83 12.86 201.42 11.93 201.22 11.47 C 200.03 8.10 198.02 12.86 197.60 14.32 C 190.35 16.57 182.77 15.00 175.34 15.48 C 170.55 15.35 165.72 15.74 160.95 15.14 C 158.22 14.91 155.51 15.54 152.78 15.54 C 133.85 14.93 114.91 15.67 95.98 15.38 C 67.37 15.44 38.76 15.47 10.15 15.40 C 7.72 15.45 4.93 16.19 2.98 14.24 C 3.10 11.17 3.04 8.11 3.03 5.04 Z" />
<path fill="#dedfde" d=" M 412.19 5.04 L 412.89 5.08 C 412.63 15.95 413.15 26.89 412.56 37.72 L 412.38 38.66 L 412.30 37.53 C 412.24 36.87 412.13 35.55 412.07 34.88 C 411.96 33.67 411.86 32.45 411.77 31.24 C 397.20 30.41 382.63 31.43 368.04 31.17 C 359.04 31.38 350.04 30.73 341.04 30.98 C 333.86 30.60 326.66 31.30 319.50 30.59 C 319.92 30.16 320.78 29.28 321.20 28.84 C 321.96 24.10 321.33 19.27 321.32 14.50 C 325.42 14.61 329.56 14.31 333.61 15.13 C 332.66 16.39 328.42 19.05 331.83 19.53 C 332.44 19.14 333.67 18.34 334.28 17.94 C 334.23 21.63 334.25 25.32 334.26 29.01 C 335.03 28.96 336.58 28.88 337.35 28.84 C 337.31 24.02 337.29 19.21 337.27 14.40 C 336.54 14.46 335.07 14.60 334.33 14.66 C 335.12 14.09 336.01 13.82 336.98 13.85 C 338.32 15.59 339.07 17.83 340.93 19.13 C 342.59 19.66 344.07 19.27 345.37 17.98 C 345.30 21.65 345.32 25.32 345.33 29.00 C 346.35 28.97 347.37 28.94 348.40 28.91 C 348.36 24.94 348.34 20.98 348.38 17.02 C 348.83 17.32 349.75 17.92 350.21 18.22 C 352.62 16.56 355.52 16.12 358.34 17.01 C 360.25 17.40 362.19 16.91 364.13 17.09 C 365.41 19.78 362.33 20.72 360.25 20.62 C 360.26 21.01 360.29 21.81 360.30 22.20 C 361.75 22.55 363.32 22.64 364.63 23.44 C 364.59 24.43 364.52 25.41 364.41 26.39 C 360.85 26.42 357.17 26.91 353.79 25.52 C 353.26 26.04 352.73 26.56 352.22 27.07 C 352.88 28.41 354.13 28.98 355.56 29.26 L 355.14 27.56 C 356.32 27.69 357.51 27.85 358.69 28.04 C 361.35 29.68 364.97 29.04 367.23 26.97 C 367.49 25.59 367.65 24.19 367.70 22.78 C 367.99 22.92 368.55 23.21 368.83 23.35 C 368.70 24.08 368.43 25.55 368.30 26.28 C 370.31 26.28 372.33 26.26 374.35 26.24 C 374.39 26.91 374.45 28.26 374.49 28.93 C 375.40 28.94 376.31 28.94 377.23 28.95 C 377.15 27.04 378.46 25.87 379.84 24.82 C 379.00 24.36 378.17 23.89 377.34 23.43 L 377.43 22.34 C 380.04 21.36 382.79 20.72 385.60 20.80 C 384.63 23.60 383.82 26.45 383.01 29.29 C 384.70 29.13 385.74 28.20 385.89 26.48 C 386.73 26.46 388.43 26.44 389.27 26.43 C 389.30 29.87 393.11 28.61 395.40 28.87 C 395.49 28.06 395.69 26.44 395.78 25.63 L 396.95 26.58 C 397.15 27.15 397.56 28.29 397.76 28.87 C 398.23 28.90 399.16 28.96 399.63 28.99 C 400.43 26.44 401.30 23.91 402.22 21.39 C 402.26 23.92 402.28 26.44 402.28 28.96 C 402.77 28.92 403.74 28.85 404.23 28.81 C 404.20 25.45 404.18 22.08 404.19 18.72 C 404.69 19.69 405.19 20.66 405.70 21.63 C 407.58 21.50 410.14 22.22 411.32 20.26 C 412.18 18.43 412.03 16.33 412.18 14.35 C 412.21 11.25 412.18 8.15 412.19 5.04 Z" />
<path fill="#464646" d=" M 230.78 7.72 C 237.00 7.38 243.29 7.43 249.52 7.69 C 252.85 9.19 250.97 13.80 251.48 16.68 C 251.05 16.59 250.20 16.42 249.77 16.33 C 249.77 15.63 249.77 14.23 249.76 13.53 C 248.34 13.52 246.92 13.52 245.51 13.51 C 245.45 14.00 245.34 15.00 245.28 15.50 C 245.90 15.88 247.16 16.63 247.78 17.01 C 246.54 17.65 245.21 18.00 243.80 18.06 C 243.80 16.07 243.80 14.09 243.80 12.10 C 245.75 12.11 247.70 12.11 249.65 12.12 C 249.70 11.41 249.79 9.99 249.83 9.28 C 246.96 9.21 244.09 9.24 241.24 9.47 C 241.21 12.14 241.11 14.81 240.98 17.48 C 240.32 14.82 239.82 12.11 239.53 9.38 C 236.58 9.26 233.64 9.23 230.69 9.27 C 229.87 13.48 234.93 11.63 237.40 12.28 C 236.74 13.93 234.83 13.41 233.46 13.68 C 233.47 14.29 233.51 15.52 233.52 16.14 C 234.39 16.16 236.12 16.20 236.99 16.23 C 236.99 16.63 237.00 17.45 237.00 17.86 C 234.96 17.85 232.93 17.85 230.89 17.83 C 230.67 17.83 230.22 17.82 229.99 17.82 C 230.11 19.39 230.05 21.00 230.49 22.52 C 232.17 23.47 234.16 23.96 235.47 25.46 C 235.05 28.11 234.67 30.75 234.35 33.41 C 234.33 32.97 234.29 32.11 234.27 31.67 C 234.12 29.50 234.69 27.21 233.76 25.16 C 232.66 24.22 231.25 24.20 229.90 24.10 C 229.73 23.60 229.39 22.61 229.22 22.11 C 229.13 19.79 229.21 17.47 229.24 15.15 C 229.66 12.74 228.35 9.31 230.78 7.72 Z" />
<path fill="#575857" d=" M 261.70 8.91 C 262.11 8.62 262.91 8.05 263.32 7.76 C 270.11 8.83 277.00 7.86 283.84 8.36 C 282.02 12.29 283.17 16.58 283.20 20.72 C 283.05 21.61 282.75 23.39 282.60 24.29 C 281.94 21.81 281.21 19.35 280.63 16.85 C 279.45 16.59 278.27 16.33 277.09 16.07 C 274.93 21.71 279.01 26.95 278.16 32.57 C 278.72 32.55 279.83 32.52 280.38 32.50 C 279.23 32.68 277.53 33.79 276.77 32.31 C 275.58 29.94 276.02 27.11 275.98 24.55 C 276.18 22.05 276.05 19.54 275.76 17.05 C 271.10 16.69 266.42 16.71 261.75 16.79 C 261.77 14.16 261.76 11.53 261.70 8.91 Z" />
<path fill="#0d0c0d" d=" M 263.32 7.76 C 271.20 7.64 279.12 7.48 287.00 7.80 C 289.05 8.26 288.61 10.38 288.71 11.95 C 288.73 15.00 288.76 18.06 288.83 21.12 C 288.87 24.69 289.06 28.26 288.98 31.84 C 288.76 32.73 288.53 33.62 288.28 34.51 C 280.86 34.46 273.42 34.55 266.00 34.52 C 264.50 34.56 263.09 34.04 261.69 33.61 C 261.71 30.39 261.70 27.16 261.70 23.93 C 262.16 24.16 263.07 24.60 263.53 24.82 C 263.61 27.36 263.60 29.90 263.68 32.44 C 264.95 32.51 266.23 32.55 267.51 32.57 C 267.64 30.01 267.68 27.46 267.73 24.90 C 269.34 27.00 269.23 29.80 269.80 32.28 C 270.68 32.42 272.43 32.70 273.31 32.84 C 273.42 32.53 273.64 31.91 273.75 31.59 C 274.64 29.30 275.46 26.96 275.98 24.55 C 276.02 27.11 275.58 29.94 276.77 32.31 C 277.53 33.79 279.23 32.68 280.38 32.50 C 280.57 27.29 280.77 22.07 280.63 16.85 C 281.21 19.35 281.94 21.81 282.60 24.29 C 282.70 26.77 282.49 29.32 283.16 31.74 C 283.49 33.47 286.39 33.47 286.79 31.80 C 287.76 27.43 287.32 22.88 287.42 18.44 C 287.59 15.38 287.63 12.32 287.71 9.27 C 286.42 8.94 285.13 8.63 283.84 8.36 C 277.00 7.86 270.11 8.83 263.32 7.76 Z" />
<path fill="#5b5a5b" d=" M 207.19 9.32 C 211.23 11.02 215.28 12.76 219.57 13.74 C 219.51 15.62 219.13 17.47 218.42 19.22 C 217.32 22.30 216.24 25.40 214.90 28.39 C 214.41 27.64 213.44 26.15 212.95 25.40 C 214.29 21.94 216.04 18.62 216.80 14.96 C 213.95 13.86 211.09 12.71 208.05 12.29 C 207.64 15.02 206.66 17.59 205.66 20.14 C 205.25 21.72 205.07 23.34 204.85 24.95 C 204.31 24.07 203.21 22.31 202.66 21.43 C 203.78 17.86 205.14 14.36 206.55 10.90 C 206.71 10.50 207.03 9.72 207.19 9.32 Z" />
<path fill="#dfdfdf" d=" M 260.47 18.43 C 260.73 15.24 261.13 12.06 261.70 8.91 C 261.76 11.53 261.77 14.16 261.75 16.79 C 261.73 19.17 261.70 21.55 261.70 23.93 C 261.70 27.16 261.71 30.39 261.69 33.61 C 260.07 33.21 258.39 33.24 256.73 33.21 C 256.66 28.79 256.65 24.38 256.52 19.96 C 257.83 19.45 259.15 18.94 260.47 18.43 Z" />
<path fill="#a0a1a0" d=" M 283.84 8.36 C 285.13 8.63 286.42 8.94 287.71 9.27 C 287.63 12.32 287.59 15.38 287.42 18.44 C 286.69 20.10 286.03 21.79 285.46 23.51 C 284.71 22.57 283.96 21.64 283.20 20.72 C 283.17 16.58 282.02 12.29 283.84 8.36 Z" />
<path fill="#9c9c9c" d=" M 197.60 14.32 C 198.02 12.86 200.03 8.10 201.22 11.47 C 200.54 13.53 199.58 15.52 197.96 17.01 C 197.87 16.34 197.69 14.99 197.60 14.32 Z" />
<path fill="#e1e1e1" d=" M 203.50 9.93 C 204.52 10.25 205.52 10.58 206.55 10.90 C 205.14 14.36 203.78 17.86 202.66 21.43 C 201.83 23.93 200.83 26.40 200.39 29.01 C 202.72 29.33 205.03 29.82 207.22 30.72 C 208.21 31.51 209.18 32.34 210.16 33.16 C 207.16 32.87 204.18 32.26 201.15 32.35 C 184.34 32.66 167.54 32.14 150.73 32.49 C 139.78 31.96 128.82 32.71 117.87 32.34 C 83.46 32.36 49.04 32.41 14.63 32.42 C 10.74 32.55 6.48 31.48 2.99 33.74 C 3.15 27.24 3.01 20.74 2.98 14.24 C 4.93 16.19 7.72 15.45 10.15 15.40 C 38.76 15.47 67.37 15.44 95.98 15.38 C 114.91 15.67 133.85 14.93 152.78 15.54 C 155.51 15.54 158.22 14.91 160.95 15.14 C 165.72 15.74 170.55 15.35 175.34 15.48 C 182.77 15.00 190.35 16.57 197.60 14.32 C 197.69 14.99 197.87 16.34 197.96 17.01 C 199.58 15.52 200.54 13.53 201.22 11.47 C 201.42 11.93 201.83 12.86 202.03 13.33 C 200.94 15.89 199.73 18.41 198.97 21.10 C 201.56 20.68 201.98 17.89 202.78 15.87 C 203.51 13.98 203.67 11.94 203.50 9.93 Z" />
<path fill="#f8f8f8" d=" M 230.69 9.27 C 233.64 9.23 236.58 9.26 239.53 9.38 C 239.67 13.04 239.60 16.70 239.42 20.37 C 236.60 20.42 233.77 20.44 230.95 20.44 C 230.94 19.79 230.91 18.48 230.89 17.83 C 232.93 17.85 234.96 17.85 237.00 17.86 C 237.00 17.45 236.99 16.63 236.99 16.23 C 236.12 16.20 234.39 16.16 233.52 16.14 C 233.51 15.52 233.47 14.29 233.46 13.68 C 234.83 13.41 236.74 13.93 237.40 12.28 C 234.93 11.63 229.87 13.48 230.69 9.27 Z" />
<path fill="#2f2e2f" d=" M 239.53 9.38 C 239.82 12.11 240.32 14.82 240.98 17.48 C 241.18 18.46 241.38 19.43 241.59 20.40 C 244.32 20.43 247.05 20.43 249.78 20.43 C 249.77 19.06 249.77 17.70 249.77 16.33 C 250.20 16.42 251.05 16.59 251.48 16.68 C 253.12 16.98 254.78 17.27 256.42 17.59 C 256.45 18.18 256.49 19.37 256.52 19.96 C 256.65 24.38 256.66 28.79 256.73 33.21 C 256.12 33.70 255.50 34.17 254.84 34.57 C 255.94 32.11 256.79 29.25 254.86 26.96 C 254.23 27.81 253.59 28.66 252.94 29.49 C 252.22 28.69 251.48 27.90 250.76 27.11 C 250.78 25.82 250.81 24.54 250.84 23.25 C 249.75 23.26 248.67 23.26 247.59 23.27 C 247.58 24.97 247.58 26.68 247.50 28.38 C 247.12 28.77 246.36 29.56 245.97 29.95 C 245.22 29.25 244.45 28.55 243.72 27.82 L 243.76 27.31 L 244.86 26.34 C 243.86 24.94 242.78 23.61 241.72 22.26 C 240.77 23.29 239.82 24.32 238.88 25.36 C 238.54 25.72 237.88 26.46 237.55 26.82 C 236.82 26.41 236.13 25.96 235.47 25.46 C 234.16 23.96 232.17 23.47 230.49 22.52 C 230.05 21.00 230.11 19.39 229.99 17.82 C 230.22 17.82 230.67 17.83 230.89 17.83 C 230.91 18.48 230.94 19.79 230.95 20.44 C 233.77 20.44 236.60 20.42 239.42 20.37 C 239.60 16.70 239.67 13.04 239.53 9.38 Z" />
<path fill="#f9f9f9" d=" M 241.24 9.47 C 244.09 9.24 246.96 9.21 249.83 9.28 C 249.79 9.99 249.70 11.41 249.65 12.12 C 247.70 12.11 245.75 12.11 243.80 12.10 C 243.80 14.09 243.80 16.07 243.80 18.06 C 245.21 18.00 246.54 17.65 247.78 17.01 C 247.16 16.63 245.90 15.88 245.28 15.50 C 245.34 15.00 245.45 14.00 245.51 13.51 C 246.92 13.52 248.34 13.52 249.76 13.53 C 249.77 14.23 249.77 15.63 249.77 16.33 C 249.77 17.70 249.77 19.06 249.78 20.43 C 247.05 20.43 244.32 20.43 241.59 20.40 C 241.38 19.43 241.18 18.46 240.98 17.48 C 241.11 14.81 241.21 12.14 241.24 9.47 Z" />
<path fill="#717470" d=" M 203.50 9.93 C 203.67 11.94 203.51 13.98 202.78 15.87 C 201.98 17.89 201.56 20.68 198.97 21.10 C 199.73 18.41 200.94 15.89 202.03 13.33 C 202.40 12.48 203.14 10.78 203.50 9.93 Z" />
<path fill="#5b5b5b" d=" M 297.47 13.15 C 298.35 12.51 299.20 11.83 300.10 11.21 C 306.11 12.52 312.50 12.38 318.53 11.24 C 319.52 11.88 320.54 12.54 321.24 13.53 C 321.03 13.98 320.62 14.88 320.41 15.33 C 319.62 14.47 318.83 13.61 318.05 12.75 C 313.81 12.70 309.56 12.69 305.32 12.71 C 305.26 13.68 305.14 15.62 305.08 16.60 C 309.96 15.81 314.92 16.37 319.82 15.81 C 319.01 16.47 318.18 17.09 317.33 17.68 C 315.73 17.56 314.12 17.44 312.51 17.41 C 307.41 17.57 302.32 17.09 297.29 16.25 C 297.34 15.48 297.42 13.93 297.47 13.15 Z" />
<path fill="#2f2e2f" d=" M 300.10 11.21 C 306.23 10.84 312.41 10.81 318.53 11.24 C 312.50 12.38 306.11 12.52 300.10 11.21 Z" />
<path fill="#eae9ea" d=" M 223.13 14.57 C 223.64 13.85 224.15 13.12 224.67 12.40 C 224.89 12.93 225.32 14.00 225.54 14.54 C 226.77 14.74 228.00 14.95 229.24 15.15 C 229.21 17.47 229.13 19.79 229.22 22.11 C 225.59 21.52 221.08 22.38 218.42 19.22 C 219.13 17.47 219.51 15.62 219.57 13.74 C 220.75 14.03 221.94 14.30 223.13 14.57 Z" />
<path fill="#eae9ea" d=" M 288.71 11.95 C 289.50 12.99 290.29 14.04 291.09 15.09 C 293.25 14.58 295.43 14.06 297.47 13.15 C 297.42 13.93 297.34 15.48 297.29 16.25 C 294.66 17.21 293.75 19.69 293.71 22.32 C 292.08 21.90 290.45 21.50 288.83 21.12 C 288.76 18.06 288.73 15.00 288.71 11.95 Z" />
<path fill="#ebeaeb" d=" M 404.45 14.40 C 404.85 13.69 405.26 12.99 405.68 12.29 C 405.91 12.92 406.36 14.17 406.59 14.80 C 408.45 14.66 410.31 14.51 412.18 14.35 C 412.03 16.33 412.18 18.43 411.32 20.26 C 410.14 22.22 407.58 21.50 405.70 21.63 C 405.19 20.66 404.69 19.69 404.19 18.72 C 403.41 18.73 401.85 18.75 401.07 18.76 C 400.38 21.37 399.60 23.94 398.82 26.52 C 398.03 23.88 397.27 21.24 396.42 18.63 C 395.50 18.66 394.58 18.70 393.66 18.73 C 393.64 21.48 393.64 24.24 393.68 27.00 C 393.08 27.49 392.49 27.99 391.90 28.48 C 391.12 25.12 390.02 21.84 388.73 18.63 C 388.17 18.63 387.05 18.61 386.49 18.60 C 386.17 19.33 385.88 20.06 385.60 20.80 C 382.79 20.72 380.04 21.36 377.43 22.34 C 377.51 19.69 377.46 17.04 377.45 14.39 C 386.45 14.47 395.46 14.76 404.45 14.40 Z" />
<path fill="#e7e6e7" d=" M 208.05 12.29 C 211.09 12.71 213.95 13.86 216.80 14.96 C 216.04 18.62 214.29 21.94 212.95 25.40 L 212.45 26.67 C 210.30 25.74 208.15 24.64 205.75 24.57 C 205.71 23.09 205.64 21.62 205.66 20.14 C 206.66 17.59 207.64 15.02 208.05 12.29 Z" />
<path fill="#90d100" d=" M 305.32 12.71 C 309.56 12.69 313.81 12.70 318.05 12.75 C 318.83 13.61 319.62 14.47 320.41 15.33 L 319.82 15.81 C 314.92 16.37 309.96 15.81 305.08 16.60 C 305.14 15.62 305.26 13.68 305.32 12.71 Z" />
<path fill="#434043" d=" M 320.41 15.33 C 320.62 14.88 321.03 13.98 321.24 13.53 L 321.32 14.50 C 321.33 19.27 321.96 24.10 321.20 28.84 C 321.19 26.35 320.99 23.87 320.78 21.39 C 319.93 21.45 319.08 21.51 318.24 21.57 C 316.43 21.50 314.61 21.28 312.81 21.07 C 314.25 19.86 315.75 18.72 317.33 17.68 C 318.18 17.09 319.01 16.47 319.82 15.81 L 320.41 15.33 Z" />
<path fill="#080808" d=" M 345.63 14.50 C 346.54 14.46 347.47 14.42 348.39 14.39 C 348.39 15.04 348.38 16.36 348.38 17.02 C 348.34 20.98 348.36 24.94 348.40 28.91 C 347.37 28.94 346.35 28.97 345.33 29.00 C 345.32 25.32 345.30 21.65 345.37 17.98 C 344.07 19.27 342.59 19.66 340.93 19.13 C 342.26 17.36 343.91 15.88 345.63 14.50 Z" />
<path fill="#010101" d=" M 358.52 15.03 C 361.47 14.13 364.61 14.30 367.30 15.90 C 367.71 18.21 366.99 20.29 364.64 21.24 C 365.41 21.63 366.94 22.40 367.70 22.78 C 367.65 24.19 367.49 25.59 367.23 26.97 C 364.97 29.04 361.35 29.68 358.69 28.04 C 357.51 27.85 356.32 27.69 355.14 27.56 L 355.56 29.26 C 354.13 28.98 352.88 28.41 352.22 27.07 C 352.73 26.56 353.26 26.04 353.79 25.52 C 357.17 26.91 360.85 26.42 364.41 26.39 C 364.52 25.41 364.59 24.43 364.63 23.44 C 363.32 22.64 361.75 22.55 360.30 22.20 C 360.29 21.81 360.26 21.01 360.25 20.62 C 362.33 20.72 365.41 19.78 364.13 17.09 C 362.19 16.91 360.25 17.40 358.34 17.01 C 358.38 16.51 358.47 15.52 358.52 15.03 Z" />
<path fill="#050505" d=" M 374.70 14.43 C 375.61 14.41 376.53 14.40 377.45 14.39 C 377.46 17.04 377.51 19.69 377.43 22.34 L 377.34 23.43 C 378.17 23.89 379.00 24.36 379.84 24.82 C 378.46 25.87 377.15 27.04 377.23 28.95 C 376.31 28.94 375.40 28.94 374.49 28.93 C 374.45 28.26 374.39 26.91 374.35 26.24 C 372.33 26.26 370.31 26.28 368.30 26.28 C 368.43 25.55 368.70 24.08 368.83 23.35 C 370.76 20.36 372.81 17.44 374.70 14.43 Z" />
<path fill="#000000" d=" M 333.61 15.13 L 334.33 14.66 C 335.07 14.60 336.54 14.46 337.27 14.40 C 337.29 19.21 337.31 24.02 337.35 28.84 C 336.58 28.88 335.03 28.96 334.26 29.01 C 334.25 25.32 334.23 21.63 334.28 17.94 C 333.67 18.34 332.44 19.14 331.83 19.53 C 328.42 19.05 332.66 16.39 333.61 15.13 Z" />
<path fill="#909090" d=" M 277.09 16.07 C 278.27 16.33 279.45 16.59 280.63 16.85 C 280.77 22.07 280.57 27.29 280.38 32.50 C 279.83 32.52 278.72 32.55 278.16 32.57 C 279.01 26.95 274.93 21.71 277.09 16.07 Z" />
<path fill="#404040" d=" M 297.29 16.25 C 302.32 17.09 307.41 17.57 312.51 17.41 C 311.03 19.03 309.55 20.67 308.06 22.28 C 303.78 22.12 297.97 19.70 295.07 24.07 L 294.85 23.93 C 294.56 23.53 293.99 22.72 293.71 22.32 C 293.75 19.69 294.66 17.21 297.29 16.25 Z" />
<path fill="#3a373a" d=" M 261.75 16.79 C 266.42 16.71 271.10 16.69 275.76 17.05 C 276.05 19.54 276.18 22.05 275.98 24.55 C 275.46 26.96 274.64 29.30 273.75 31.59 C 273.67 28.22 274.18 24.73 273.26 21.44 C 271.50 20.89 270.38 21.44 269.92 23.09 C 269.62 26.15 269.83 29.22 269.80 32.28 C 269.23 29.80 269.34 27.00 267.73 24.90 C 267.28 24.70 266.40 24.29 265.96 24.09 C 265.15 24.35 264.34 24.59 263.53 24.82 C 263.07 24.60 262.16 24.16 261.70 23.93 C 261.70 21.55 261.73 19.17 261.75 16.79 Z" />
<path fill="#f9f9f9" d=" M 312.51 17.41 C 314.12 17.44 315.73 17.56 317.33 17.68 C 315.75 18.72 314.25 19.86 312.81 21.07 C 314.61 21.28 316.43 21.50 318.24 21.57 C 316.18 22.74 314.30 24.19 312.43 25.63 C 312.11 25.69 311.47 25.80 311.14 25.85 C 311.61 24.76 312.16 23.71 312.78 22.70 C 311.20 22.59 309.62 22.45 308.06 22.28 C 309.55 20.67 311.03 19.03 312.51 17.41 Z" />
<path fill="#010101" d=" M 352.37 19.80 C 352.74 18.99 353.25 18.30 353.92 17.72 C 355.73 17.85 355.88 19.18 355.65 20.64 C 355.23 20.83 354.38 21.22 353.95 21.42 C 353.42 20.88 352.89 20.34 352.37 19.80 Z" />
<path fill="#090a09" d=" M 386.49 18.60 C 387.05 18.61 388.17 18.63 388.73 18.63 C 390.02 21.84 391.12 25.12 391.90 28.48 C 392.49 27.99 393.08 27.49 393.68 27.00 C 393.64 24.24 393.64 21.48 393.66 18.73 C 394.58 18.70 395.50 18.66 396.42 18.63 C 397.27 21.24 398.03 23.88 398.82 26.52 C 399.60 23.94 400.38 21.37 401.07 18.76 C 401.85 18.75 403.41 18.73 404.19 18.72 C 404.18 22.08 404.20 25.45 404.23 28.81 C 403.74 28.85 402.77 28.92 402.28 28.96 C 402.28 26.44 402.26 23.92 402.22 21.39 C 401.30 23.91 400.43 26.44 399.63 28.99 C 399.16 28.96 398.23 28.90 397.76 28.87 C 397.56 28.29 397.15 27.15 396.95 26.58 L 395.78 25.63 C 395.69 26.44 395.49 28.06 395.40 28.87 C 393.11 28.61 389.30 29.87 389.27 26.43 C 388.43 26.44 386.73 26.46 385.89 26.48 C 385.74 28.20 384.70 29.13 383.01 29.29 C 383.82 26.45 384.63 23.60 385.60 20.80 C 385.88 20.06 386.17 19.33 386.49 18.60 Z" />
<path fill="#dcdedc" d=" M 214.90 28.39 C 216.24 25.40 217.32 22.30 218.42 19.22 C 221.08 22.38 225.59 21.52 229.22 22.11 C 229.39 22.61 229.73 23.60 229.90 24.10 C 231.25 24.20 232.66 24.22 233.76 25.16 C 234.69 27.21 234.12 29.50 234.27 31.67 C 229.85 31.58 225.28 30.88 220.98 32.25 C 221.57 29.87 222.11 27.47 222.45 25.03 C 219.87 26.85 219.37 30.08 218.64 32.92 C 215.82 33.12 212.99 33.16 210.16 33.16 C 209.18 32.34 208.21 31.51 207.22 30.72 C 209.14 31.42 211.08 32.06 213.04 32.67 C 213.65 31.24 214.27 29.81 214.90 28.39 Z" />
<path fill="#818181" d=" M 285.46 23.51 C 286.03 21.79 286.69 20.10 287.42 18.44 C 287.32 22.88 287.76 27.43 286.79 31.80 C 286.39 33.47 283.49 33.47 283.16 31.74 C 282.49 29.32 282.70 26.77 282.60 24.29 C 282.75 23.39 283.05 21.61 283.20 20.72 C 283.96 21.64 284.71 22.57 285.46 23.51 Z" />
<path fill="#dfdfdf" d=" M 371.09 23.84 C 372.17 22.15 373.24 20.47 374.39 18.83 C 374.44 20.50 374.46 22.17 374.50 23.83 C 373.36 23.84 372.22 23.84 371.09 23.84 Z" />
<path fill="#151615" d=" M 204.85 24.95 C 205.07 23.34 205.25 21.72 205.66 20.14 C 205.64 21.62 205.71 23.09 205.75 24.57 C 208.15 24.64 210.30 25.74 212.45 26.67 L 212.95 25.40 C 213.44 26.15 214.41 27.64 214.90 28.39 C 214.27 29.81 213.65 31.24 213.04 32.67 C 211.08 32.06 209.14 31.42 207.22 30.72 C 205.03 29.82 202.72 29.33 200.39 29.01 C 200.83 26.40 201.83 23.93 202.66 21.43 C 203.21 22.31 204.31 24.07 204.85 24.95 Z" />
<path fill="#dcdedc" d=" M 288.83 21.12 C 290.45 21.50 292.08 21.90 293.71 22.32 C 293.99 22.72 294.56 23.53 294.85 23.93 C 295.66 24.61 296.49 25.27 297.34 25.91 C 297.38 26.57 297.45 27.89 297.49 28.55 C 298.05 29.24 298.62 29.93 299.18 30.62 C 295.75 30.72 292.36 31.33 288.98 31.84 C 289.06 28.26 288.87 24.69 288.83 21.12 Z" />
<path fill="#232123" d=" M 318.24 21.57 C 319.08 21.51 319.93 21.45 320.78 21.39 C 320.99 23.87 321.19 26.35 321.20 28.84 C 320.78 29.28 319.92 30.16 319.50 30.59 C 319.52 29.22 319.56 27.85 319.60 26.48 C 317.19 26.46 314.76 26.30 312.43 25.63 C 314.30 24.19 316.18 22.74 318.24 21.57 Z" />
<path fill="#dadada" d=" M 386.22 24.62 C 386.64 23.22 387.07 21.83 387.51 20.43 C 387.97 21.84 388.46 23.26 388.93 24.67 C 388.25 24.66 386.90 24.63 386.22 24.62 Z" />
<path fill="#717470" d=" M 219.35 22.46 C 219.71 22.35 220.41 22.12 220.77 22.01 C 219.47 25.41 218.90 29.13 217.01 32.27 L 215.54 32.82 C 215.98 29.13 217.75 25.76 219.35 22.46 Z" />
<path fill="#f9f9f9" d=" M 269.92 23.09 C 270.38 21.44 271.50 20.89 273.26 21.44 C 274.18 24.73 273.67 28.22 273.75 31.59 C 273.64 31.91 273.42 32.53 273.31 32.84 C 272.43 32.70 270.68 32.42 269.80 32.28 C 269.83 29.22 269.62 26.15 269.92 23.09 Z" />
<path fill="#262626" d=" M 295.07 24.07 C 297.97 19.70 303.78 22.12 308.06 22.28 C 309.62 22.45 311.20 22.59 312.78 22.70 C 312.16 23.71 311.61 24.76 311.14 25.85 C 309.08 26.50 307.00 26.16 305.01 25.45 C 302.55 25.22 300.07 25.41 297.62 25.65 C 296.98 25.25 295.71 24.46 295.07 24.07 Z" />
<path fill="#a6a4a6" d=" M 238.88 25.36 C 239.82 24.32 240.77 23.29 241.72 22.26 C 242.78 23.61 243.86 24.94 244.86 26.34 L 243.76 27.31 C 243.12 27.79 242.48 28.26 241.83 28.73 C 240.85 27.60 239.86 26.48 238.88 25.36 Z" />
<path fill="#aeaeae" d=" M 247.59 23.27 C 248.67 23.26 249.75 23.26 250.84 23.25 C 250.81 24.54 250.78 25.82 250.76 27.11 C 250.43 27.43 249.77 28.07 249.44 28.39 C 248.79 28.38 248.15 28.38 247.50 28.38 C 247.58 26.68 247.58 24.97 247.59 23.27 Z" />
<path fill="#f9f9f9" d=" M 263.53 24.82 C 264.34 24.59 265.15 24.35 265.96 24.09 C 266.40 24.29 267.28 24.70 267.73 24.90 C 267.68 27.46 267.64 30.01 267.51 32.57 C 266.23 32.55 264.95 32.51 263.68 32.44 C 263.60 29.90 263.61 27.36 263.53 24.82 Z" />
<path fill="#0f0f0f" d=" M 294.85 23.93 L 295.07 24.07 C 295.71 24.46 296.98 25.25 297.62 25.65 C 300.07 25.41 302.55 25.22 305.01 25.45 C 305.14 26.83 305.26 28.22 305.38 29.61 C 309.40 29.66 313.44 29.36 317.45 29.84 L 319.16 30.57 C 312.60 31.76 305.77 31.54 299.18 30.62 C 298.62 29.93 298.05 29.24 297.49 28.55 C 297.45 27.89 297.38 26.57 297.34 25.91 C 296.49 25.27 295.66 24.61 294.85 23.93 Z" />
<path fill="#808080" d=" M 218.64 32.92 C 219.37 30.08 219.87 26.85 222.45 25.03 C 222.11 27.47 221.57 29.87 220.98 32.25 C 220.40 32.42 219.23 32.76 218.64 32.92 Z" />
<path fill="#7e807e" d=" M 237.55 26.82 C 237.88 26.46 238.54 25.72 238.88 25.36 C 239.86 26.48 240.85 27.60 241.83 28.73 C 242.48 28.26 243.12 27.79 243.76 27.31 L 243.72 27.82 C 243.60 29.36 243.49 30.90 243.39 32.44 C 242.20 32.39 241.01 32.34 239.83 32.28 C 239.74 30.81 239.66 29.33 239.52 27.87 C 239.03 27.61 238.04 27.08 237.55 26.82 Z" />
<path fill="#719b00" d=" M 305.01 25.45 C 307.00 26.16 309.08 26.50 311.14 25.85 C 311.47 25.80 312.11 25.69 312.43 25.63 C 314.76 26.30 317.19 26.46 319.60 26.48 C 319.56 27.85 319.52 29.22 319.50 30.59 C 319.41 30.59 319.25 30.57 319.16 30.57 L 317.45 29.84 C 313.44 29.36 309.40 29.66 305.38 29.61 C 305.26 28.22 305.14 26.83 305.01 25.45 Z" />
<path fill="#eae9ea" d=" M 206.33 26.50 C 207.70 25.31 209.80 27.53 208.15 28.61 C 206.81 29.69 204.60 27.54 206.33 26.50 Z" />
<path fill="#0a090a" d=" M 235.47 25.46 C 236.13 25.96 236.82 26.41 237.55 26.82 C 238.04 27.08 239.03 27.61 239.52 27.87 C 239.66 29.33 239.74 30.81 239.83 32.28 C 241.01 32.34 242.20 32.39 243.39 32.44 C 243.49 30.90 243.60 29.36 243.72 27.82 C 244.45 28.55 245.22 29.25 245.97 29.95 C 247.11 31.02 248.24 32.11 249.37 33.21 C 250.60 32.01 251.82 30.80 252.94 29.49 C 253.59 28.66 254.23 27.81 254.86 26.96 C 256.79 29.25 255.94 32.11 254.84 34.57 C 248.54 34.30 242.21 34.85 235.94 34.28 C 235.54 34.06 234.75 33.62 234.35 33.41 C 234.67 30.75 235.05 28.11 235.47 25.46 Z" />
<path fill="#7d7e7d" d=" M 249.44 28.39 C 249.77 28.07 250.43 27.43 250.76 27.11 C 251.48 27.90 252.22 28.69 252.94 29.49 C 251.82 30.80 250.60 32.01 249.37 33.21 C 248.24 32.11 247.11 31.02 245.97 29.95 C 246.36 29.56 247.12 28.77 247.50 28.38 C 248.15 28.38 248.79 28.38 249.44 28.39 Z" />
<path fill="#ececec" d=" M 319.16 30.57 C 319.25 30.57 319.41 30.59 319.50 30.59 C 326.66 31.30 333.86 30.60 341.04 30.98 C 350.04 30.73 359.04 31.38 368.04 31.17 C 382.63 31.43 397.20 30.41 411.77 31.24 C 411.86 32.45 411.96 33.67 412.07 34.88 C 376.06 34.79 340.06 34.77 304.06 34.80 C 298.79 34.93 293.53 34.92 288.28 34.51 C 288.53 33.62 288.76 32.73 288.98 31.84 C 292.36 31.33 295.75 30.72 299.18 30.62 C 305.77 31.54 312.60 31.76 319.16 30.57 Z" />
<path fill="#f2f1f2" d=" M 220.98 32.25 C 225.28 30.88 229.85 31.58 234.27 31.67 C 234.29 32.11 234.33 32.97 234.35 33.41 C 234.75 33.62 235.54 34.06 235.94 34.28 C 242.21 34.85 248.54 34.30 254.84 34.57 C 255.50 34.17 256.12 33.70 256.73 33.21 C 258.39 33.24 260.07 33.21 261.69 33.61 C 263.09 34.04 264.50 34.56 266.00 34.52 C 273.42 34.55 280.86 34.46 288.28 34.51 C 293.53 34.92 298.79 34.93 304.06 34.80 C 340.06 34.77 376.06 34.79 412.07 34.88 C 412.13 35.55 412.24 36.87 412.30 37.53 C 275.88 37.56 139.45 37.59 3.03 37.52 C 3.02 36.57 3.00 34.68 2.99 33.74 C 6.48 31.48 10.74 32.55 14.63 32.42 C 49.04 32.41 83.46 32.36 117.87 32.34 C 128.82 32.71 139.78 31.96 150.73 32.49 C 167.54 32.14 184.34 32.66 201.15 32.35 C 204.18 32.26 207.16 32.87 210.16 33.16 C 212.99 33.16 215.82 33.12 218.64 32.92 C 219.23 32.76 220.40 32.42 220.98 32.25 Z" />
<path fill="#909090" d=" M 3.03 37.52 C 139.45 37.59 275.88 37.56 412.30 37.53 L 412.38 38.66 C 412.02 43.78 412.38 48.93 411.82 54.04 C 411.84 55.50 410.81 56.57 410.00 57.67 C 405.64 56.12 401.25 58.30 396.84 58.05 C 388.44 56.45 379.81 57.14 371.36 58.12 C 369.54 56.96 367.42 56.74 365.33 56.78 C 365.11 57.17 364.66 57.95 364.44 58.34 C 361.51 57.79 358.52 57.21 355.55 57.78 C 352.79 58.27 350.13 56.69 347.37 57.19 C 341.76 58.06 336.07 56.84 330.46 57.84 C 320.17 57.32 309.84 57.37 299.54 57.82 C 296.41 57.35 293.27 57.49 290.14 57.90 C 285.63 57.50 281.14 58.33 276.64 57.65 C 273.06 58.21 269.53 57.62 266.00 57.17 C 258.09 58.62 250.07 56.71 242.12 57.85 C 237.19 57.43 232.27 58.17 227.35 57.72 C 224.33 58.48 221.42 57.27 218.48 56.96 C 213.61 58.91 208.43 56.92 203.39 57.54 C 199.45 58.02 195.48 58.03 191.67 56.81 C 190.11 59.81 187.02 57.74 184.81 56.89 C 181.48 58.05 178.04 57.05 174.68 56.68 C 174.26 57.21 173.84 57.74 173.42 58.27 C 169.12 56.19 164.56 57.57 160.09 57.84 C 155.40 57.25 150.58 58.09 146.01 56.62 C 144.92 57.19 143.84 57.77 142.76 58.35 C 142.13 57.84 141.49 57.34 140.87 56.83 C 136.39 58.15 131.74 57.25 127.18 57.14 C 118.94 57.81 110.59 57.83 102.38 56.77 C 102.02 57.30 101.65 57.83 101.29 58.35 C 94.60 55.05 87.35 59.18 80.37 57.74 C 71.43 57.86 62.48 57.80 53.55 57.52 C 53.07 54.82 52.61 52.04 51.17 49.66 C 49.25 46.01 44.36 48.54 41.40 46.73 C 39.61 45.81 37.85 43.65 35.64 44.67 C 34.64 45.50 33.80 46.51 32.91 47.46 C 31.25 47.52 29.57 47.61 27.91 47.49 C 25.03 47.35 23.01 44.15 20.02 44.71 C 16.25 45.37 12.47 44.59 8.68 44.60 C 7.86 49.43 7.66 54.34 7.65 59.24 C 6.87 59.69 6.09 60.15 5.31 60.61 C 4.62 57.94 3.81 55.30 3.16 52.62 C 2.90 47.60 3.07 42.55 3.03 37.52 Z" />
<path fill="#808080" d=" M 412.38 38.66 L 412.56 37.72 C 413.33 48.41 412.59 59.17 412.80 69.88 C 276.22 69.94 139.64 69.88 3.07 69.92 C 3.12 64.15 2.82 58.38 3.16 52.62 C 3.81 55.30 4.62 57.94 5.31 60.61 C 6.09 60.15 6.87 59.69 7.65 59.24 C 7.94 59.77 8.52 60.82 8.81 61.35 C 15.48 62.47 22.22 61.22 28.93 61.58 C 35.64 61.28 42.36 61.80 49.06 61.46 C 50.55 61.55 51.25 59.95 51.56 58.73 C 51.96 55.71 51.50 52.66 51.17 49.66 C 52.61 52.04 53.07 54.82 53.55 57.52 C 62.48 57.80 71.43 57.86 80.37 57.74 C 87.35 59.18 94.60 55.05 101.29 58.35 C 101.65 57.83 102.02 57.30 102.38 56.77 C 110.59 57.83 118.94 57.81 127.18 57.14 C 131.74 57.25 136.39 58.15 140.87 56.83 C 141.49 57.34 142.13 57.84 142.76 58.35 C 143.84 57.77 144.92 57.19 146.01 56.62 C 150.58 58.09 155.40 57.25 160.09 57.84 C 164.56 57.57 169.12 56.19 173.42 58.27 C 173.84 57.74 174.26 57.21 174.68 56.68 C 178.04 57.05 181.48 58.05 184.81 56.89 C 187.02 57.74 190.11 59.81 191.67 56.81 C 195.48 58.03 199.45 58.02 203.39 57.54 C 208.43 56.92 213.61 58.91 218.48 56.96 C 221.42 57.27 224.33 58.48 227.35 57.72 C 232.27 58.17 237.19 57.43 242.12 57.85 C 250.07 56.71 258.09 58.62 266.00 57.17 C 269.53 57.62 273.06 58.21 276.64 57.65 C 281.14 58.33 285.63 57.50 290.14 57.90 C 293.27 57.49 296.41 57.35 299.54 57.82 C 309.84 57.37 320.17 57.32 330.46 57.84 C 336.07 56.84 341.76 58.06 347.37 57.19 C 350.13 56.69 352.79 58.27 355.55 57.78 C 358.52 57.21 361.51 57.79 364.44 58.34 C 364.66 57.95 365.11 57.17 365.33 56.78 C 367.42 56.74 369.54 56.96 371.36 58.12 C 379.81 57.14 388.44 56.45 396.84 58.05 C 401.25 58.30 405.64 56.12 410.00 57.67 C 410.81 56.57 411.84 55.50 411.82 54.04 C 412.38 48.93 412.02 43.78 412.38 38.66 Z" />
<path fill="#717470" d=" M 8.68 44.60 C 12.47 44.59 16.25 45.37 20.02 44.71 C 23.01 44.15 25.03 47.35 27.91 47.49 C 29.57 47.61 31.25 47.52 32.91 47.46 C 33.80 46.51 34.64 45.50 35.64 44.67 C 37.85 43.65 39.61 45.81 41.40 46.73 C 44.36 48.54 49.25 46.01 51.17 49.66 C 51.50 52.66 51.96 55.71 51.56 58.73 C 51.25 59.95 50.55 61.55 49.06 61.46 C 42.36 61.80 35.64 61.28 28.93 61.58 C 22.22 61.22 15.48 62.47 8.81 61.35 C 8.52 60.82 7.94 59.77 7.65 59.24 C 7.66 54.34 7.86 49.43 8.68 44.60 Z" />
<path fill="#fbfbfb" d=" M 36.20 46.14 C 36.83 46.15 38.07 46.17 38.70 46.18 C 38.26 50.66 38.89 55.16 38.67 59.65 C 38.07 59.67 36.86 59.71 36.25 59.73 C 35.98 55.20 36.60 50.66 36.20 46.14 Z" />
<path fill="#fafafa" d=" M 9.73 46.83 C 11.03 46.91 12.32 46.99 13.62 47.08 C 14.50 50.18 14.91 53.49 16.50 56.35 C 17.50 53.33 18.30 50.24 18.94 47.12 C 20.24 47.04 21.53 46.96 22.82 46.89 C 22.76 51.16 22.78 55.44 22.76 59.71 C 22.17 59.70 20.99 59.68 20.40 59.67 C 20.43 57.12 20.47 54.57 20.46 52.01 C 18.16 53.56 18.46 57.16 17.39 59.60 C 16.82 59.65 15.68 59.74 15.11 59.79 C 14.11 56.86 13.42 53.84 12.61 50.85 C 12.14 53.68 12.15 56.54 12.18 59.40 C 11.58 59.49 10.37 59.67 9.77 59.76 C 9.87 55.45 9.86 51.14 9.73 46.83 Z" />
<path fill="#fafafa" d=" M 41.33 49.35 C 43.64 49.77 45.99 49.72 48.31 49.47 C 50.41 52.52 49.49 56.34 49.68 59.79 C 49.06 59.72 47.82 59.58 47.20 59.51 C 46.85 56.78 48.06 53.60 46.17 51.28 C 40.74 51.28 47.07 60.63 41.30 59.80 C 41.27 56.32 41.28 52.83 41.33 49.35 Z" />
<path fill="#f8f8f8" d=" M 26.29 51.68 C 26.38 51.13 26.55 50.04 26.64 49.49 C 28.47 49.53 30.31 49.55 32.15 49.58 C 33.98 52.71 33.33 56.44 33.21 59.88 C 32.26 59.61 31.31 59.34 30.36 59.07 C 28.40 59.93 25.19 59.99 25.26 57.08 C 24.24 53.43 28.28 53.06 30.78 52.75 C 30.69 50.63 27.66 51.92 26.29 51.68 Z" />
<path fill="#464646" d=" M 28.46 54.60 C 29.00 54.59 30.06 54.58 30.60 54.57 C 30.50 55.46 30.41 56.35 30.32 57.24 C 29.79 57.31 28.73 57.43 28.20 57.50 C 28.28 56.53 28.36 55.56 28.46 54.60 Z" />
<path fill="#b7b7b7" d=" M 8.05 75.93 C 7.86 73.97 9.50 72.76 10.76 71.60 C 32.92 71.66 55.08 71.66 77.24 71.60 C 78.59 72.68 80.14 73.95 79.95 75.90 C 80.13 90.88 79.77 105.86 79.96 120.84 C 79.04 120.23 78.11 119.45 76.92 119.71 C 62.66 120.61 48.36 119.77 34.09 120.22 C 25.46 120.50 16.73 119.05 8.18 120.70 L 8.09 120.72 C 8.22 105.79 7.97 90.85 8.05 75.93 Z" />
<path fill="#e5e6e5" d=" M 8.84 76.00 C 9.06 74.02 11.37 73.54 13.01 73.84 C 16.67 74.52 20.31 73.31 23.98 73.72 C 30.65 74.47 37.36 73.47 44.03 74.11 C 47.01 73.83 50.02 73.39 53.00 74.00 C 55.98 74.59 58.94 73.36 61.93 73.85 C 67.25 74.67 72.60 72.97 77.95 73.81 C 80.86 76.65 78.92 81.49 79.30 85.16 C 77.38 84.39 75.47 83.63 73.55 82.88 C 71.24 85.46 67.86 83.78 64.94 83.80 C 57.26 83.45 49.56 83.97 41.88 83.75 C 37.22 82.94 32.53 83.50 27.84 83.25 C 27.12 82.93 26.42 82.61 25.71 82.29 C 25.56 82.64 25.25 83.34 25.10 83.69 C 21.74 83.44 18.35 83.45 15.04 84.13 C 14.22 83.56 13.39 82.99 12.56 82.42 C 11.30 83.66 10.04 84.91 8.78 86.15 C 8.67 82.77 8.32 79.36 8.84 76.00 Z" />
<path fill="#dadada" d=" M 8.78 86.15 C 10.04 84.91 11.30 83.66 12.56 82.42 C 13.39 82.99 14.22 83.56 15.04 84.13 C 18.35 83.45 21.74 83.44 25.10 83.69 C 25.25 83.34 25.56 82.64 25.71 82.29 C 26.42 82.61 27.12 82.93 27.84 83.25 C 32.53 83.50 37.22 82.94 41.88 83.75 C 49.56 83.97 57.26 83.45 64.94 83.80 C 67.86 83.78 71.24 85.46 73.55 82.88 C 75.47 83.63 77.38 84.39 79.30 85.16 C 79.31 87.40 79.30 89.63 79.32 91.87 C 77.72 90.79 75.90 89.99 73.94 90.45 C 70.73 91.04 67.56 89.83 64.36 90.31 C 55.04 91.37 45.68 89.93 36.34 90.42 C 27.12 90.32 17.88 90.02 8.68 90.69 C 8.72 89.17 8.75 87.66 8.78 86.15 Z" />
<path fill="#cccdcc" d=" M 64.36 90.31 C 67.56 89.83 70.73 91.04 73.94 90.45 C 75.90 89.99 77.72 90.79 79.32 91.87 C 79.41 96.09 79.33 100.31 78.93 104.51 C 75.83 103.77 72.64 103.63 69.47 103.82 C 69.27 100.87 70.29 97.27 68.00 94.92 C 65.95 94.58 63.86 94.79 61.80 94.77 C 61.81 96.31 61.82 97.84 61.84 99.38 L 59.59 98.97 C 58.88 97.63 58.51 95.85 56.98 95.18 C 55.06 93.67 53.15 95.56 51.47 96.45 L 50.67 96.92 L 49.85 95.53 C 48.65 94.70 47.25 94.05 46.82 92.52 C 46.41 93.15 45.59 94.42 45.18 95.05 C 43.32 94.77 41.01 94.95 40.83 92.48 C 40.54 92.93 39.96 93.82 39.67 94.26 C 38.92 94.33 37.40 94.48 36.65 94.56 L 35.48 94.73 C 35.14 97.58 35.81 100.75 34.18 103.31 C 33.61 103.34 32.48 103.41 31.91 103.45 C 29.83 100.97 31.04 97.44 30.69 94.49 C 30.37 94.61 29.73 94.86 29.41 94.99 L 28.40 95.37 C 28.21 97.32 28.03 99.27 27.77 101.21 L 27.14 100.53 C 26.48 99.71 25.83 98.87 25.19 98.03 C 25.82 96.43 26.90 94.76 26.16 92.99 C 24.38 90.56 21.02 91.45 18.44 91.20 C 18.41 95.41 18.39 99.62 18.40 103.82 C 15.34 103.75 12.28 103.92 9.28 104.51 C 8.83 99.92 8.51 95.31 8.68 90.69 C 17.88 90.02 27.12 90.32 36.34 90.42 C 45.68 89.93 55.04 91.37 64.36 90.31 Z" />
<path fill="#070807" d=" M 18.44 91.20 C 21.02 91.45 24.38 90.56 26.16 92.99 C 26.90 94.76 25.82 96.43 25.19 98.03 C 25.83 98.87 26.48 99.71 27.14 100.53 C 27.02 105.23 21.86 105.30 18.40 104.90 L 18.40 103.82 C 18.39 99.62 18.41 95.41 18.44 91.20 Z" />
<path fill="#cecdce" d=" M 20.11 92.64 C 21.59 92.81 23.30 92.49 24.54 93.53 C 24.74 94.86 24.59 96.22 24.61 97.56 C 23.13 97.32 21.64 97.17 20.14 97.12 C 20.13 95.63 20.12 94.13 20.11 92.64 Z" />
<path fill="#090a09" d=" M 39.67 94.26 C 39.96 93.82 40.54 92.93 40.83 92.48 C 41.01 94.95 43.32 94.77 45.18 95.05 C 45.59 94.42 46.41 93.15 46.82 92.52 C 47.25 94.05 48.65 94.70 49.85 95.53 C 46.31 94.83 47.41 98.90 47.27 101.04 C 46.94 102.98 48.14 103.95 50.01 103.74 C 49.25 105.73 46.14 105.08 45.82 103.12 C 45.63 100.45 45.97 97.73 45.26 95.11 C 44.30 95.30 42.37 95.69 41.41 95.88 C 41.33 98.35 41.15 100.84 41.56 103.30 C 42.18 103.42 43.42 103.65 44.03 103.77 C 42.94 106.19 39.16 104.52 39.80 102.06 C 40.11 99.46 39.05 96.75 39.67 94.26 Z" />
<path fill="#0f0f0f" d=" M 61.80 94.77 C 63.86 94.79 65.95 94.58 68.00 94.92 C 70.29 97.27 69.27 100.87 69.47 103.82 L 69.41 104.59 C 69.02 104.74 68.26 105.05 67.88 105.20 C 67.32 101.81 69.72 95.78 64.59 95.23 C 63.02 98.25 63.35 101.67 63.39 104.95 C 63.00 104.91 62.22 104.83 61.83 104.79 C 61.85 102.98 61.86 101.18 61.84 99.38 C 61.82 97.84 61.81 96.31 61.80 94.77 Z" />
<path fill="#151615" d=" M 29.41 94.99 C 29.73 94.86 30.37 94.61 30.69 94.49 C 31.04 97.44 29.83 100.97 31.91 103.45 C 32.48 103.41 33.61 103.34 34.18 103.31 C 35.81 100.75 35.14 97.58 35.48 94.73 L 36.65 94.56 C 36.73 98.00 36.71 101.44 36.79 104.88 C 34.45 103.71 31.43 106.13 29.63 103.65 C 29.13 100.80 29.30 97.86 29.41 94.99 Z" />
<path fill="#070807" d=" M 51.47 96.45 C 53.15 95.56 55.06 93.67 56.98 95.18 C 58.51 95.85 58.88 97.63 59.59 98.97 C 59.71 101.95 57.48 105.97 53.99 104.72 C 50.57 103.53 50.99 99.30 51.47 96.45 Z" />
<path fill="#c3c6c3" d=" M 56.08 103.46 C 51.92 104.22 51.83 98.45 53.71 96.12 C 54.63 96.23 56.48 96.47 57.40 96.58 C 57.36 98.87 58.69 102.12 56.08 103.46 Z" />
<path fill="#c3c4c3" d=" M 20.08 98.60 C 21.46 98.67 22.83 98.75 24.20 98.83 C 24.51 99.37 25.13 100.45 25.44 100.99 C 25.11 101.57 24.46 102.73 24.14 103.31 C 22.80 103.38 21.47 103.45 20.14 103.51 C 20.12 101.87 20.10 100.24 20.08 98.60 Z" />
<path fill="#cacbca" d=" M 76.92 119.71 C 78.11 119.45 79.04 120.23 79.96 120.84 C 78.82 121.97 77.93 123.97 76.01 123.70 C 54.66 123.78 33.30 123.78 11.95 123.70 C 10.04 123.94 9.12 121.98 8.18 120.70 C 16.73 119.05 25.46 120.50 34.09 120.22 C 48.36 119.77 62.66 120.61 76.92 119.71 Z" />
<path fill="#585a58" d=" M 115.33 335.33 C 117.71 334.18 120.46 334.65 123.02 334.54 C 180.69 334.59 238.36 334.52 296.04 334.58 C 301.01 334.44 305.31 339.05 305.20 343.97 C 305.29 353.64 305.19 363.32 305.24 373.00 C 305.31 376.38 303.84 380.09 300.76 381.77 C 297.51 383.73 293.58 383.12 289.98 383.20 C 234.99 383.19 180.01 383.19 125.02 383.20 C 121.18 383.13 116.87 383.77 113.57 381.36 C 110.57 379.30 109.58 375.43 109.73 371.98 C 109.81 362.64 109.68 353.29 109.80 343.95 C 109.77 340.29 112.01 336.85 115.33 335.33 Z" />
<path fill="#434343" d=" M 117.28 337.41 C 120.16 336.86 123.11 337.06 126.03 337.04 C 182.34 337.01 238.66 337.09 294.98 337.06 C 297.33 336.99 299.86 337.79 301.24 339.82 C 303.10 342.50 302.70 345.92 302.79 349.01 C 302.64 357.36 302.94 365.72 302.68 374.07 C 302.77 378.04 298.89 381.16 295.04 380.71 C 236.69 380.74 178.34 380.69 119.99 380.72 C 117.71 380.78 115.20 380.15 113.83 378.17 C 111.97 375.52 112.25 372.12 112.21 369.06 C 112.37 361.00 112.06 352.94 112.27 344.89 C 112.24 341.72 113.92 338.10 117.28 337.41 Z" />
<path fill="#353535" d=" M 133.41 349.35 C 136.79 349.38 140.26 348.97 143.60 349.67 C 143.90 350.09 144.50 350.94 144.80 351.37 C 144.51 351.64 143.92 352.18 143.63 352.45 C 143.62 356.50 143.39 360.57 143.74 364.61 C 144.12 364.94 144.87 365.61 145.25 365.94 C 145.64 360.94 145.56 355.92 145.31 350.91 L 145.27 349.98 C 147.62 350.62 147.73 353.57 148.84 355.37 C 149.66 354.28 150.48 353.20 151.30 352.12 C 151.70 352.44 152.49 353.08 152.89 353.40 C 152.47 353.97 151.62 355.13 151.20 355.71 C 151.57 356.36 151.95 357.01 152.33 357.67 C 152.33 359.67 152.25 361.69 152.47 363.70 C 152.73 365.73 155.57 365.15 156.98 365.31 C 156.32 364.25 155.38 363.55 154.16 363.22 C 154.11 361.02 154.10 358.83 154.08 356.65 C 155.14 356.42 156.20 356.20 157.26 355.97 C 156.71 355.73 155.61 355.26 155.05 355.02 C 155.05 354.39 155.04 353.13 155.04 352.50 C 161.52 353.52 168.23 353.86 174.72 352.74 C 175.75 352.56 176.78 352.59 177.80 352.84 C 177.44 353.51 176.71 354.86 176.34 355.53 C 177.10 358.27 177.04 361.12 177.37 363.92 C 177.64 365.75 181.00 366.00 181.60 364.39 C 180.69 363.94 179.76 363.52 178.83 363.14 C 178.82 361.00 178.81 358.86 178.79 356.73 C 179.83 356.41 180.87 356.10 181.91 355.79 C 180.02 355.55 178.84 354.58 178.36 352.90 C 180.51 352.22 182.79 353.18 184.99 353.13 C 186.88 353.49 189.23 352.76 190.74 354.24 C 193.82 356.47 192.79 360.73 192.69 363.98 C 192.36 366.69 189.08 366.94 186.96 367.20 C 180.00 367.35 173.00 366.76 166.07 367.58 C 162.75 367.92 159.47 366.97 156.15 367.25 C 154.26 367.48 152.43 366.96 150.66 366.35 C 149.81 362.86 150.08 359.00 148.24 355.82 C 147.58 359.10 147.85 362.45 147.60 365.77 C 146.25 367.11 144.24 367.33 142.43 367.46 C 139.36 367.55 136.15 368.11 133.24 366.79 C 133.01 363.54 132.88 360.30 132.88 357.05 C 132.46 356.50 132.04 355.95 131.62 355.41 C 133.29 353.83 133.13 351.45 133.41 349.35 Z" />
<path fill="#efeeef" d=" M 144.80 351.37 L 145.31 350.91 C 145.56 355.92 145.64 360.94 145.25 365.94 C 144.87 365.61 144.12 364.94 143.74 364.61 C 143.39 360.57 143.62 356.50 143.63 352.45 C 143.92 352.18 144.51 351.64 144.80 351.37 Z" />
<path fill="#eeeeee" d=" M 134.50 351.60 C 136.77 351.60 139.04 351.60 141.31 351.60 L 141.32 353.29 C 139.60 353.28 137.90 353.27 136.19 353.27 C 136.19 354.72 136.20 356.17 136.22 357.63 C 137.71 357.60 139.21 357.56 140.71 357.53 L 140.77 359.29 C 139.25 359.26 137.72 359.24 136.20 359.22 C 136.20 360.69 136.21 362.17 136.23 363.66 C 137.92 363.64 139.62 363.63 141.32 363.62 L 141.30 365.29 C 139.03 365.29 136.76 365.29 134.48 365.30 C 134.51 360.73 134.50 356.17 134.50 351.60 Z" />
<path fill="#363536" d=" M 259.99 353.26 C 263.03 353.36 266.19 352.10 269.14 353.18 C 268.48 354.08 267.81 354.97 267.13 355.85 C 267.46 356.29 268.10 357.15 268.42 357.58 C 268.42 359.81 268.26 362.08 268.65 364.30 C 269.54 365.51 271.15 365.22 272.46 365.47 C 272.52 365.08 272.63 364.32 272.68 363.94 C 268.66 364.08 270.69 359.27 270.17 356.75 C 271.20 356.43 272.23 356.12 273.27 355.80 C 272.72 355.58 271.63 355.13 271.08 354.91 C 271.07 354.29 271.05 353.06 271.04 352.44 C 274.04 354.93 278.97 351.27 280.98 354.99 L 279.78 355.05 C 278.07 355.06 276.39 355.35 274.73 355.73 C 273.99 358.24 272.78 361.25 274.55 363.61 C 275.80 365.75 278.50 365.14 280.56 365.47 C 280.92 365.78 281.63 366.40 281.99 366.71 C 279.16 368.32 276.05 366.84 273.06 366.91 C 269.57 366.95 266.10 366.81 262.64 366.43 C 258.14 365.87 253.80 367.82 249.29 367.38 C 246.82 369.63 244.12 372.61 240.39 371.72 C 237.48 371.81 235.98 368.93 235.69 366.41 C 232.45 366.79 229.20 367.75 225.92 367.23 C 220.39 366.40 214.79 367.03 209.23 366.75 C 209.12 366.40 208.90 365.70 208.79 365.35 C 208.74 362.24 207.09 355.53 212.33 356.45 C 212.48 359.40 212.51 362.36 212.49 365.32 C 212.97 365.32 213.92 365.32 214.40 365.32 C 214.38 362.40 214.44 359.49 214.64 356.58 C 215.52 356.61 217.29 356.68 218.18 356.71 C 218.25 359.66 218.30 362.60 218.40 365.56 C 218.84 365.45 219.72 365.23 220.16 365.13 C 220.04 362.02 220.71 358.67 219.30 355.77 C 217.84 354.36 215.75 355.48 214.03 355.59 C 211.63 355.27 209.21 355.18 206.80 355.10 C 206.79 358.30 206.53 361.51 206.82 364.71 C 206.97 365.42 207.19 366.11 207.48 366.79 C 203.72 367.31 199.88 367.85 196.29 366.27 C 195.04 363.01 194.33 359.10 195.79 355.82 C 198.10 351.81 203.21 353.51 206.98 353.15 C 211.72 353.60 217.33 351.60 221.31 355.01 C 222.81 354.37 224.23 353.41 225.88 353.20 C 237.25 352.96 248.62 353.48 259.99 353.26 Z" />
<path fill="#efeeef" d=" M 152.89 353.40 C 153.01 353.24 153.26 352.91 153.38 352.75 C 153.80 353.32 154.64 354.45 155.05 355.02 C 155.61 355.26 156.71 355.73 157.26 355.97 C 156.20 356.20 155.14 356.42 154.08 356.65 C 154.10 358.83 154.11 361.02 154.16 363.22 C 155.38 363.55 156.32 364.25 156.98 365.31 C 155.57 365.15 152.73 365.73 152.47 363.70 C 152.25 361.69 152.33 359.67 152.33 357.67 C 151.95 357.01 151.57 356.36 151.20 355.71 C 151.62 355.13 152.47 353.97 152.89 353.40 Z" />
<path fill="#efeeef" d=" M 177.80 352.84 L 178.11 352.28 L 178.36 352.90 C 178.84 354.58 180.02 355.55 181.91 355.79 C 180.87 356.10 179.83 356.41 178.79 356.73 C 178.81 358.86 178.82 361.00 178.83 363.14 C 179.76 363.52 180.69 363.94 181.60 364.39 C 181.00 366.00 177.64 365.75 177.37 363.92 C 177.04 361.12 177.10 358.27 176.34 355.53 C 176.71 354.86 177.44 353.51 177.80 352.84 Z" />
<path fill="#e7e9e7" d=" M 269.14 353.18 C 269.20 353.10 269.32 352.92 269.38 352.83 C 269.81 353.35 270.66 354.39 271.08 354.91 C 271.63 355.13 272.72 355.58 273.27 355.80 C 272.23 356.12 271.20 356.43 270.17 356.75 C 270.69 359.27 268.66 364.08 272.68 363.94 C 272.63 364.32 272.52 365.08 272.46 365.47 C 271.15 365.22 269.54 365.51 268.65 364.30 C 268.26 362.08 268.42 359.81 268.42 357.58 C 268.10 357.15 267.46 356.29 267.13 355.85 C 267.81 354.97 268.48 354.08 269.14 353.18 Z" />
<path fill="#f6f5f6" d=" M 158.82 355.78 C 160.58 355.02 162.49 355.04 164.33 355.55 C 165.02 357.00 165.46 358.56 165.54 360.17 C 163.44 360.15 161.34 360.12 159.24 360.13 C 159.56 361.39 160.03 362.60 160.64 363.76 C 162.79 363.75 165.35 362.63 167.10 364.40 C 167.79 362.85 168.66 361.39 169.61 360.00 C 168.50 358.29 167.41 356.58 166.41 354.81 C 168.60 354.67 169.57 356.31 170.07 358.14 C 171.87 357.18 172.21 354.57 174.73 354.80 C 173.72 356.56 172.64 358.30 171.53 360.01 C 172.65 361.78 173.78 363.54 174.89 365.32 C 172.10 366.26 172.14 362.69 170.13 361.89 C 169.39 363.69 168.39 365.42 166.32 365.88 C 165.92 365.37 165.52 364.87 165.12 364.37 C 163.20 365.85 159.94 365.76 158.53 363.62 C 156.73 361.29 157.76 358.19 158.82 355.78 Z" />
<path fill="#f2f2f2" d=" M 184.39 355.52 C 186.67 354.28 190.04 355.26 190.60 357.99 C 191.42 360.67 190.63 365.45 187.04 365.31 C 181.99 365.93 180.70 357.95 184.39 355.52 Z" />
<path fill="#f2f2f2" d=" M 197.37 357.54 C 197.84 354.94 201.34 354.43 203.30 355.66 C 204.67 356.65 204.53 358.46 204.90 359.93 C 202.67 360.05 200.42 360.09 198.24 360.60 C 198.64 361.35 199.45 362.84 199.86 363.58 C 201.55 363.57 203.25 363.53 204.95 363.56 C 203.84 365.40 201.78 365.46 199.84 365.30 C 199.33 364.99 198.31 364.37 197.80 364.06 C 197.12 361.95 196.37 359.68 197.37 357.54 Z" />
<path fill="#eeedee" d=" M 206.82 364.71 C 206.53 361.51 206.79 358.30 206.80 355.10 C 209.21 355.18 211.63 355.27 214.03 355.59 C 215.75 355.48 217.84 354.36 219.30 355.77 C 220.71 358.67 220.04 362.02 220.16 365.13 C 219.72 365.23 218.84 365.45 218.40 365.56 C 218.30 362.60 218.25 359.66 218.18 356.71 C 217.29 356.68 215.52 356.61 214.64 356.58 C 214.44 359.49 214.38 362.40 214.40 365.32 C 213.92 365.32 212.97 365.32 212.49 365.32 C 212.51 362.36 212.48 359.40 212.33 356.45 C 207.09 355.53 208.74 362.24 208.79 365.35 C 208.30 365.19 207.32 364.87 206.82 364.71 Z" />
<path fill="#eae9ea" d=" M 223.93 355.89 C 225.47 354.43 227.59 355.17 229.38 355.63 C 229.83 357.11 230.21 358.60 230.54 360.13 C 228.35 360.11 226.17 360.14 224.00 360.35 C 224.12 363.93 227.38 363.92 230.03 363.36 C 229.90 363.84 229.64 364.81 229.51 365.29 C 227.57 365.20 225.29 365.78 223.79 364.17 C 221.85 361.93 221.91 358.05 223.93 355.89 Z" />
<path fill="#e5e4e5" d=" M 232.37 355.00 C 232.93 355.13 234.06 355.38 234.62 355.51 C 235.52 355.40 237.30 355.19 238.20 355.08 C 237.82 356.90 235.71 356.96 234.37 357.74 C 234.32 360.24 234.32 362.75 234.33 365.26 C 233.85 365.29 232.89 365.35 232.41 365.38 C 232.39 361.92 232.41 358.46 232.37 355.00 Z" />
<path fill="#ececec" d=" M 239.65 355.42 C 242.06 355.07 244.55 354.66 246.95 355.30 C 245.78 356.74 245.28 358.42 245.40 360.31 C 243.62 361.09 241.08 361.00 240.39 363.22 C 242.47 363.57 244.71 363.50 246.57 364.68 C 246.52 365.86 246.49 367.04 246.48 368.23 C 244.24 370.04 241.34 369.57 238.70 369.33 C 238.11 367.60 237.96 365.69 239.45 364.38 C 240.41 361.29 237.71 358.26 239.65 355.42 Z" />
<path fill="#efeeef" d=" M 248.29 361.99 C 247.34 358.91 249.08 354.10 253.03 355.08 C 255.59 355.28 255.87 358.10 256.00 360.10 C 253.98 360.13 251.96 360.15 249.95 360.19 C 250.20 361.30 250.47 362.41 250.74 363.53 C 252.50 363.53 254.26 363.49 256.03 363.48 C 254.55 366.86 248.65 365.59 248.29 361.99 Z" />
<path fill="#ececec" d=" M 257.80 355.16 C 260.22 355.79 263.00 354.29 265.16 355.85 C 266.25 358.79 265.80 362.04 265.78 365.12 C 265.28 365.17 264.28 365.29 263.78 365.34 C 263.80 362.88 263.93 360.43 263.73 357.98 C 264.06 355.57 260.06 355.97 260.01 358.06 C 259.68 360.49 259.84 362.96 259.83 365.42 C 259.34 365.34 258.35 365.16 257.85 365.08 C 257.71 361.77 257.88 358.46 257.80 355.16 Z" />
<path fill="#e6e6e6" d=" M 274.73 355.73 C 276.39 355.35 278.07 355.06 279.78 355.05 C 281.02 356.38 281.47 358.16 281.80 359.91 C 279.67 360.06 277.53 360.09 275.40 360.12 C 275.70 361.39 276.16 362.61 276.77 363.79 C 278.17 363.64 279.58 363.50 280.99 363.37 C 280.89 363.89 280.67 364.94 280.56 365.47 C 278.50 365.14 275.80 365.75 274.55 363.61 C 272.78 361.25 273.99 358.24 274.73 355.73 Z" />
<path fill="#262626" d=" M 199.63 356.60 C 200.49 356.63 201.36 356.65 202.22 356.68 C 202.39 357.16 202.73 358.11 202.90 358.59 C 201.61 358.59 200.33 358.59 199.04 358.60 C 199.19 358.10 199.48 357.10 199.63 356.60 Z" />
<path fill="#262626" d=" M 240.73 356.74 C 241.67 356.63 242.62 356.53 243.57 356.44 C 243.62 357.56 243.65 358.68 243.69 359.82 C 242.62 359.69 241.57 359.57 240.51 359.44 C 240.58 358.54 240.65 357.64 240.73 356.74 Z" />
<path fill="#262626" d=" M 159.59 357.94 C 160.08 356.31 163.04 356.19 163.51 357.89 C 162.86 359.13 160.27 359.15 159.59 357.94 Z" />
<path fill="#383638" d=" M 184.78 356.75 C 185.65 356.73 187.38 356.68 188.25 356.66 C 189.25 358.93 189.18 361.33 188.32 363.64 C 187.42 363.60 185.60 363.51 184.70 363.46 C 184.10 361.23 184.09 358.95 184.78 356.75 Z" />
<path fill="#262626" d=" M 224.55 357.93 C 224.96 356.25 227.91 356.23 228.39 357.88 C 227.80 359.14 225.16 359.21 224.55 357.93 Z" />
<path fill="#2b2a2b" d=" M 251.54 357.34 C 251.96 357.36 252.78 357.38 253.20 357.40 L 253.20 358.15 C 252.79 358.13 251.96 358.11 251.55 358.10 L 251.54 357.34 Z" />
<path fill="#262626" d=" M 275.95 358.63 C 275.99 355.77 279.16 356.28 279.95 358.43 C 278.62 358.51 277.28 358.58 275.95 358.63 Z" />
<path fill="#2f2e2f" d=" M 240.26 365.31 C 241.71 365.32 243.16 365.34 244.62 365.38 C 244.66 365.93 244.75 367.04 244.80 367.60 C 243.34 367.76 241.56 368.89 240.25 367.76 C 240.25 367.15 240.26 365.92 240.26 365.31 Z" />
</svg>
