<?xml version="1.0" encoding="UTF-8" ?>
<!DOCTYPE svg PUBLIC "-//W3C//DTD SVG 1.1//EN" "http://www.w3.org/Graphics/SVG/1.1/DTD/svg11.dtd">
<svg width="416pt" height="692pt" viewBox="0 0 416 692" version="1.1" xmlns="http://www.w3.org/2000/svg">
<path fill="#000000" d=" M 0.00 0.00 L 416.00 0.00 L 416.00 692.00 L 0.00 692.00 L 0.00 0.00 Z" />
<path fill="#f7f7f7" d=" M 3.03 5.04 C 139.43 5.03 275.82 5.04 412.22 5.04 C 412.21 8.12 412.24 11.20 412.18 14.29 C 410.28 14.46 408.38 14.62 406.48 14.79 C 406.21 14.07 405.95 13.35 405.70 12.62 C 402.29 15.37 397.78 14.62 393.74 14.63 C 391.66 14.69 389.84 13.63 388.10 12.64 C 387.98 13.16 387.75 14.22 387.63 14.75 C 384.34 14.38 381.02 14.23 377.72 14.33 C 375.20 14.39 372.69 14.39 370.18 14.48 C 368.54 14.55 366.91 14.67 365.29 14.80 L 365.24 14.06 C 363.92 14.46 362.62 14.92 361.40 15.57 C 357.06 15.00 352.68 14.64 348.32 15.20 L 348.30 14.04 C 345.15 14.48 342.78 16.67 340.90 19.08 C 339.09 17.13 337.70 12.04 334.34 14.55 L 333.56 14.94 C 329.48 14.43 325.38 14.49 321.28 14.52 L 321.10 13.53 C 320.45 12.58 319.50 11.89 318.59 11.21 C 312.48 10.88 306.30 10.69 300.21 11.33 C 299.50 11.62 298.78 11.91 298.08 12.20 C 295.88 13.13 293.56 13.72 291.22 14.17 C 290.38 13.43 289.55 12.69 288.72 11.94 C 288.63 10.58 288.54 9.21 288.15 7.89 C 279.91 7.41 271.63 7.63 263.39 7.81 C 262.96 8.05 262.09 8.53 261.66 8.77 C 261.13 11.97 260.82 15.20 260.65 18.43 C 259.31 18.53 257.97 18.63 256.64 18.71 C 255.51 16.98 253.33 16.96 251.51 16.59 C 250.97 13.75 252.82 9.20 249.53 7.73 C 243.29 7.39 236.97 7.32 230.74 7.78 C 228.43 9.39 229.62 12.77 229.19 15.16 C 227.85 15.08 226.51 14.98 225.17 14.86 C 225.06 14.20 224.82 12.87 224.71 12.20 C 224.23 13.10 223.76 14.01 223.30 14.91 C 222.04 14.49 220.78 14.07 219.52 13.69 C 215.39 12.73 211.54 10.91 207.51 9.64 C 207.24 9.90 206.68 10.42 206.41 10.68 C 205.45 10.52 204.50 10.33 203.54 10.19 C 203.11 11.02 202.24 12.69 201.80 13.52 C 201.61 13.03 201.23 12.04 201.05 11.54 C 200.86 11.08 200.49 10.15 200.30 9.68 C 199.27 11.45 198.28 13.24 197.29 15.03 C 181.66 15.67 166.00 15.31 150.36 15.35 C 137.99 14.75 125.61 15.62 113.24 15.42 C 87.82 15.29 62.42 15.45 37.01 15.34 C 26.11 15.66 15.20 15.05 4.31 15.53 C 3.99 15.13 3.36 14.33 3.05 13.93 C 3.06 10.97 3.04 8.00 3.03 5.04 Z" />
<path fill="#dedfde" d=" M 412.22 5.04 L 412.89 5.09 C 412.86 15.89 412.70 26.69 412.90 37.49 L 412.20 37.49 C 412.17 36.78 412.11 35.36 412.08 34.66 C 411.91 33.63 411.68 32.62 411.39 31.62 C 408.87 31.05 406.26 31.29 403.69 31.33 C 380.75 31.30 357.81 31.34 334.87 31.27 C 329.78 31.11 324.56 32.02 319.58 30.56 C 319.93 30.17 320.62 29.40 320.96 29.01 C 322.21 24.30 321.32 19.33 321.28 14.52 C 325.38 14.49 329.48 14.43 333.56 14.94 C 332.36 16.28 331.14 17.60 330.12 19.07 C 331.59 19.34 333.00 19.05 334.34 18.20 C 334.22 21.78 334.24 25.36 334.22 28.93 C 335.00 28.92 336.56 28.90 337.33 28.89 C 337.04 24.34 337.94 19.62 336.78 15.20 C 336.17 15.03 334.95 14.71 334.34 14.55 C 337.70 12.04 339.09 17.13 340.90 19.08 C 342.49 19.39 343.99 19.11 345.42 18.24 C 345.30 21.82 345.31 25.40 345.29 28.98 C 346.34 28.94 347.39 28.89 348.45 28.84 C 348.34 24.29 348.37 19.75 348.32 15.20 C 352.68 14.64 357.06 15.00 361.40 15.57 C 360.25 16.56 359.15 17.62 358.08 18.67 C 359.54 19.95 361.09 18.91 362.52 18.19 C 362.41 21.76 362.40 25.33 362.35 28.89 C 363.38 28.90 364.42 28.91 365.46 28.90 C 365.34 24.20 365.46 19.50 365.29 14.80 C 366.91 14.67 368.54 14.55 370.18 14.48 C 369.99 16.99 369.79 19.51 369.63 22.03 C 371.56 22.17 373.54 22.12 375.43 22.63 C 375.57 23.86 375.55 25.09 375.57 26.33 C 374.01 26.38 372.45 26.42 370.90 26.44 C 370.45 26.17 369.55 25.64 369.10 25.37 C 369.26 26.37 369.45 27.37 369.68 28.36 C 372.57 29.36 376.46 29.23 378.32 26.44 C 378.96 24.67 378.42 22.73 378.32 20.90 C 379.17 21.16 380.01 21.42 380.86 21.70 C 381.51 21.29 382.16 20.89 382.83 20.48 C 383.48 20.68 384.80 21.09 385.46 21.29 C 384.51 23.99 383.69 26.74 383.03 29.52 C 384.40 28.90 385.52 27.93 386.21 26.57 C 387.01 26.51 388.61 26.40 389.41 26.34 C 389.53 26.96 389.76 28.18 389.88 28.80 C 391.75 28.82 393.62 28.86 395.50 28.92 C 395.55 27.79 395.64 25.53 395.69 24.41 C 396.78 26.19 397.56 28.28 399.32 29.56 C 400.23 27.08 401.11 24.57 402.12 22.13 C 402.23 24.38 402.27 26.64 402.30 28.90 C 402.78 28.89 403.74 28.88 404.22 28.87 C 404.20 25.47 404.18 22.07 404.21 18.66 C 404.69 19.70 405.18 20.74 405.66 21.78 C 407.55 21.48 409.92 21.94 411.31 20.32 C 412.01 18.39 412.05 16.31 412.18 14.29 C 412.24 11.20 412.21 8.12 412.22 5.04 Z" />
<path fill="#464646" d=" M 230.74 7.78 C 236.97 7.32 243.29 7.39 249.53 7.73 C 252.82 9.20 250.97 13.75 251.51 16.59 C 251.07 16.51 250.20 16.36 249.76 16.28 C 249.75 15.58 249.74 14.17 249.73 13.47 C 248.30 13.50 246.88 13.52 245.45 13.55 C 245.42 14.03 245.34 14.98 245.31 15.46 C 245.95 15.90 247.24 16.79 247.89 17.23 C 246.53 17.54 245.17 17.85 243.81 18.18 C 243.80 16.18 243.80 14.18 243.81 12.19 C 246.33 11.87 250.25 13.20 250.27 9.32 C 247.26 9.24 244.24 9.26 241.24 9.42 C 241.13 12.11 241.11 14.79 241.04 17.48 C 240.46 14.79 240.02 12.07 239.58 9.34 C 236.51 9.26 233.44 9.23 230.37 9.35 C 230.61 13.29 235.16 11.68 237.73 12.58 C 236.22 13.19 234.62 13.59 233.05 14.00 C 233.41 16.04 235.28 16.21 236.98 16.49 C 236.98 16.84 237.00 17.55 237.01 17.90 C 234.93 17.88 232.85 17.88 230.78 17.75 C 230.56 17.65 230.12 17.45 229.90 17.35 C 230.00 19.11 230.03 20.90 230.35 22.65 C 231.74 23.40 233.23 23.94 234.67 24.61 C 234.82 25.01 235.11 25.83 235.26 26.24 C 235.19 28.20 235.16 30.16 235.16 32.13 C 234.96 32.27 234.56 32.54 234.36 32.68 C 234.01 29.95 234.19 27.18 234.27 24.44 C 232.70 24.37 231.14 24.31 229.58 24.23 C 229.25 21.22 229.15 18.19 229.19 15.16 C 229.62 12.77 228.43 9.39 230.74 7.78 Z" />
<path fill="#575857" d=" M 261.66 8.77 C 262.09 8.53 262.96 8.05 263.39 7.81 C 270.08 8.96 276.87 7.92 283.61 8.45 C 282.55 12.45 282.98 16.58 283.09 20.66 C 282.97 21.57 282.73 23.40 282.61 24.31 C 282.06 21.82 281.42 19.34 280.59 16.93 C 279.37 16.58 278.15 16.25 276.93 15.94 C 275.43 21.53 278.66 26.69 278.29 32.22 C 278.81 32.33 279.85 32.54 280.37 32.65 C 279.14 32.86 277.78 33.31 276.72 32.39 C 275.82 29.85 275.95 27.11 275.95 24.47 C 276.06 21.96 276.01 19.46 275.94 16.95 C 271.21 16.84 266.48 16.80 261.76 16.85 C 261.77 14.16 261.74 11.47 261.66 8.77 Z" />
<path fill="#0d0c0d" d=" M 263.39 7.81 C 271.63 7.63 279.91 7.41 288.15 7.89 C 288.54 9.21 288.63 10.58 288.72 11.94 C 288.76 15.00 288.75 18.06 288.82 21.12 C 288.87 24.47 289.04 27.81 289.02 31.16 C 288.82 32.31 288.56 33.45 288.30 34.59 C 279.48 34.16 270.59 35.16 261.82 34.04 C 261.69 30.69 261.69 27.34 261.70 24.00 C 262.15 24.20 263.05 24.59 263.50 24.79 C 263.60 27.35 263.60 29.91 263.69 32.46 C 264.96 32.52 266.23 32.57 267.50 32.60 C 267.64 30.06 267.68 27.51 267.76 24.97 C 269.27 27.08 269.29 29.78 269.85 32.23 C 270.72 32.40 272.44 32.76 273.30 32.94 C 273.41 32.56 273.64 31.81 273.75 31.43 C 274.51 29.12 275.32 26.82 275.95 24.47 C 275.95 27.11 275.82 29.85 276.72 32.39 C 277.78 33.31 279.14 32.86 280.37 32.65 C 280.64 27.41 280.75 22.17 280.59 16.93 C 281.42 19.34 282.06 21.82 282.61 24.31 C 282.57 27.31 282.95 30.28 283.59 33.21 C 284.38 33.06 285.98 32.77 286.77 32.62 C 287.39 27.92 287.50 23.17 287.46 18.44 C 287.50 15.44 287.62 12.44 287.68 9.44 C 286.33 9.09 284.97 8.75 283.61 8.45 C 276.87 7.92 270.08 8.96 263.39 7.81 Z" />
<path fill="#5b5a5b" d=" M 207.51 9.64 C 211.54 10.91 215.39 12.73 219.52 13.69 C 219.19 18.97 216.76 23.76 214.78 28.56 C 214.70 27.94 214.53 26.70 214.45 26.09 C 213.86 26.33 212.68 26.81 212.09 27.05 C 211.13 26.73 210.16 26.41 209.20 26.09 C 208.88 27.57 208.56 29.05 208.25 30.53 C 210.08 30.88 211.93 31.22 213.77 31.53 C 213.65 31.86 213.40 32.53 213.27 32.86 C 208.83 31.93 204.64 30.12 200.24 29.01 C 200.38 28.23 200.52 27.45 200.69 26.68 C 201.89 27.64 203.16 28.51 204.46 29.33 C 204.79 28.78 205.46 27.69 205.79 27.14 C 205.52 28.86 207.94 29.56 208.76 28.11 C 208.34 27.56 207.50 26.44 207.08 25.89 C 205.51 24.58 204.01 23.21 202.50 21.84 C 203.81 18.12 205.11 14.40 206.41 10.68 C 206.68 10.42 207.24 9.90 207.51 9.64 Z" />
<path fill="#dfe0df" d=" M 260.65 18.43 C 260.82 15.20 261.13 11.97 261.66 8.77 C 261.74 11.47 261.77 14.16 261.76 16.85 C 261.74 19.24 261.70 21.62 261.70 24.00 C 261.69 27.34 261.69 30.69 261.82 34.04 C 260.16 33.71 258.49 33.42 256.83 33.18 C 256.57 28.36 256.62 23.53 256.64 18.71 C 257.97 18.63 259.31 18.53 260.65 18.43 Z" />
<path fill="#a0a1a0" d=" M 283.61 8.45 C 284.97 8.75 286.33 9.09 287.68 9.44 C 287.62 12.44 287.50 15.44 287.46 18.44 C 286.78 20.16 286.12 21.88 285.47 23.62 C 284.68 22.63 283.89 21.64 283.09 20.66 C 282.98 16.58 282.55 12.45 283.61 8.45 Z" />
<path fill="#818181" d=" M 197.29 15.03 C 198.28 13.24 199.27 11.45 200.30 9.68 C 200.49 10.15 200.86 11.08 201.05 11.54 C 200.19 13.47 199.20 15.33 198.21 17.18 C 197.98 16.65 197.52 15.57 197.29 15.03 Z" />
<path fill="#e3e2e3" d=" M 203.54 10.19 C 204.50 10.33 205.45 10.52 206.41 10.68 C 205.11 14.40 203.81 18.12 202.50 21.84 C 201.91 23.46 201.28 25.06 200.69 26.68 C 200.52 27.45 200.38 28.23 200.24 29.01 C 204.64 30.12 208.83 31.93 213.27 32.86 C 213.40 32.53 213.65 31.86 213.77 31.53 C 214.02 30.79 214.53 29.30 214.78 28.56 C 216.76 23.76 219.19 18.97 219.52 13.69 C 220.78 14.07 222.04 14.49 223.30 14.91 C 223.76 14.01 224.23 13.10 224.71 12.20 C 224.82 12.87 225.06 14.20 225.17 14.86 C 226.51 14.98 227.85 15.08 229.19 15.16 C 229.15 18.19 229.25 21.22 229.58 24.23 C 231.14 24.31 232.70 24.37 234.27 24.44 C 234.19 27.18 234.01 29.95 234.36 32.68 C 234.51 33.13 234.79 34.03 234.93 34.48 C 227.63 34.75 220.32 34.65 213.02 34.64 C 144.66 34.60 76.31 34.67 7.96 34.62 C 5.79 34.46 3.71 34.97 3.32 37.46 L 2.98 37.46 C 3.14 29.62 3.00 21.77 3.05 13.93 C 3.36 14.33 3.99 15.13 4.31 15.53 C 15.20 15.05 26.11 15.66 37.01 15.34 C 62.42 15.45 87.82 15.29 113.24 15.42 C 125.61 15.62 137.99 14.75 150.36 15.35 C 166.00 15.31 181.66 15.67 197.29 15.03 C 197.52 15.57 197.98 16.65 198.21 17.18 C 199.20 15.33 200.19 13.47 201.05 11.54 C 201.23 12.04 201.61 13.03 201.80 13.52 C 200.79 16.12 199.72 18.71 199.02 21.43 C 202.73 19.07 203.50 14.25 203.54 10.19 Z" />
<path fill="#f8f8f8" d=" M 230.37 9.35 C 233.44 9.23 236.51 9.26 239.58 9.34 C 239.65 13.02 239.58 16.70 239.43 20.37 C 236.66 20.41 233.89 20.43 231.12 20.44 C 231.03 19.77 230.86 18.42 230.78 17.75 C 232.85 17.88 234.93 17.88 237.01 17.90 C 237.00 17.55 236.98 16.84 236.98 16.49 C 235.28 16.21 233.41 16.04 233.05 14.00 C 234.62 13.59 236.22 13.19 237.73 12.58 C 235.16 11.68 230.61 13.29 230.37 9.35 Z" />
<path fill="#303130" d=" M 239.58 9.34 C 240.02 12.07 240.46 14.79 241.04 17.48 C 241.20 18.46 241.36 19.43 241.53 20.41 C 244.27 20.42 247.02 20.43 249.77 20.44 C 249.76 19.05 249.76 17.67 249.76 16.28 C 250.20 16.36 251.07 16.51 251.51 16.59 C 253.33 16.96 255.51 16.98 256.64 18.71 C 256.62 23.53 256.57 28.36 256.83 33.18 C 256.46 33.44 255.73 33.96 255.37 34.22 L 255.04 34.43 C 255.61 31.97 256.97 29.10 255.18 26.83 C 253.94 27.02 252.71 27.23 251.48 27.46 C 251.35 27.32 251.07 27.05 250.93 26.91 C 250.84 25.69 250.77 24.47 250.71 23.26 C 249.71 23.26 248.70 23.27 247.70 23.28 C 247.57 24.95 247.45 26.62 247.21 28.28 C 247.01 28.81 246.60 29.85 246.39 30.38 C 245.52 29.57 244.67 28.75 243.85 27.89 L 243.95 27.17 L 244.61 26.17 C 243.74 24.81 242.76 23.51 241.82 22.20 C 240.54 23.62 239.27 25.04 238.00 26.46 C 237.36 25.72 236.70 25.00 236.04 24.27 C 235.84 24.76 235.45 25.75 235.26 26.24 C 235.11 25.83 234.82 25.01 234.67 24.61 C 233.23 23.94 231.74 23.40 230.35 22.65 C 230.03 20.90 230.00 19.11 229.90 17.35 C 230.12 17.45 230.56 17.65 230.78 17.75 C 230.86 18.42 231.03 19.77 231.12 20.44 C 233.89 20.43 236.66 20.41 239.43 20.37 C 239.58 16.70 239.65 13.02 239.58 9.34 Z" />
<path fill="#f9f9f9" d=" M 241.24 9.42 C 244.24 9.26 247.26 9.24 250.27 9.32 C 250.25 13.20 246.33 11.87 243.81 12.19 C 243.80 14.18 243.80 16.18 243.81 18.18 C 245.17 17.85 246.53 17.54 247.89 17.23 C 247.24 16.79 245.95 15.90 245.31 15.46 C 245.34 14.98 245.42 14.03 245.45 13.55 C 246.88 13.52 248.30 13.50 249.73 13.47 C 249.74 14.17 249.75 15.58 249.76 16.28 C 249.76 17.67 249.76 19.05 249.77 20.44 C 247.02 20.43 244.27 20.42 241.53 20.41 C 241.36 19.43 241.20 18.46 241.04 17.48 C 241.11 14.79 241.13 12.11 241.24 9.42 Z" />
<path fill="#6d6d6d" d=" M 203.54 10.19 C 203.50 14.25 202.73 19.07 199.02 21.43 C 199.72 18.71 200.79 16.12 201.80 13.52 C 202.24 12.69 203.11 11.02 203.54 10.19 Z" />
<path fill="#5b5b5b" d=" M 298.08 12.20 C 298.78 11.91 299.50 11.62 300.21 11.33 C 306.28 12.38 312.54 12.34 318.59 11.21 C 319.50 11.89 320.45 12.58 321.10 13.53 C 320.95 14.02 320.65 15.01 320.50 15.50 C 319.69 14.58 318.89 13.67 318.10 12.75 C 313.85 12.70 309.61 12.69 305.37 12.71 C 305.33 13.64 305.26 15.50 305.23 16.44 C 310.06 16.03 314.92 16.21 319.76 16.00 C 318.93 16.55 318.10 17.11 317.28 17.68 C 315.67 17.56 314.06 17.47 312.45 17.43 C 307.31 17.42 302.13 17.18 297.15 15.82 C 297.44 14.61 297.75 13.40 298.08 12.20 Z" />
<path fill="#2f2e2f" d=" M 300.21 11.33 C 306.30 10.69 312.48 10.88 318.59 11.21 C 312.54 12.34 306.28 12.38 300.21 11.33 Z" />
<path fill="#ebebeb" d=" M 288.72 11.94 C 289.55 12.69 290.38 13.43 291.22 14.17 C 293.56 13.72 295.88 13.13 298.08 12.20 C 297.75 13.40 297.44 14.61 297.15 15.82 C 295.21 17.52 293.68 19.58 293.62 22.27 C 292.02 21.86 290.42 21.49 288.82 21.12 C 288.75 18.06 288.76 15.00 288.72 11.94 Z" />
<path fill="#ebeaeb" d=" M 388.10 12.64 C 389.84 13.63 391.66 14.69 393.74 14.63 C 397.78 14.62 402.29 15.37 405.70 12.62 C 405.95 13.35 406.21 14.07 406.48 14.79 C 408.38 14.62 410.28 14.46 412.18 14.29 C 412.05 16.31 412.01 18.39 411.31 20.32 C 409.92 21.94 407.55 21.48 405.66 21.78 C 405.18 20.74 404.69 19.70 404.21 18.66 C 403.43 18.70 401.87 18.77 401.08 18.80 C 400.38 21.33 399.61 23.84 398.79 26.33 C 397.98 23.77 397.22 21.20 396.44 18.64 C 395.51 18.67 394.58 18.70 393.66 18.72 C 393.64 22.00 393.64 25.27 393.62 28.55 C 393.13 28.37 392.15 28.03 391.66 27.85 C 390.99 24.66 389.92 21.57 388.69 18.56 C 388.12 18.59 386.97 18.63 386.40 18.65 C 386.08 19.53 385.77 20.41 385.46 21.29 C 384.80 21.09 383.48 20.68 382.83 20.48 C 382.16 20.89 381.51 21.29 380.86 21.70 C 380.01 21.42 379.17 21.16 378.32 20.90 C 376.44 20.33 374.54 19.84 372.64 19.39 C 372.62 18.82 372.58 17.70 372.56 17.13 C 374.33 17.04 376.10 16.97 377.88 16.91 C 377.84 16.26 377.76 14.98 377.72 14.33 C 381.02 14.23 384.34 14.38 387.63 14.75 C 387.75 14.22 387.98 13.16 388.10 12.64 Z" />
<path fill="#e7e6e7" d=" M 207.99 12.35 C 211.05 12.63 213.86 13.92 216.74 14.91 C 216.05 18.91 214.09 22.49 212.46 26.16 C 209.96 25.25 207.46 24.34 204.96 23.45 C 205.93 19.74 207.36 16.15 207.99 12.35 Z" />
<path fill="#90d100" d=" M 305.37 12.71 C 309.61 12.69 313.85 12.70 318.10 12.75 C 318.89 13.67 319.69 14.58 320.50 15.50 L 319.76 16.00 C 314.92 16.21 310.06 16.03 305.23 16.44 C 305.26 15.50 305.33 13.64 305.37 12.71 Z" />
<path fill="#434043" d=" M 320.50 15.50 C 320.65 15.01 320.95 14.02 321.10 13.53 L 321.28 14.52 C 321.32 19.33 322.21 24.30 320.96 29.01 C 320.91 26.44 320.74 23.88 320.61 21.32 C 319.86 21.43 319.11 21.54 318.37 21.66 C 316.52 21.52 314.67 21.28 312.83 21.07 C 314.29 19.90 315.76 18.75 317.28 17.68 C 318.10 17.11 318.93 16.55 319.76 16.00 L 320.50 15.50 Z" />
<path fill="#080808" d=" M 340.90 19.08 C 342.78 16.67 345.15 14.48 348.30 14.04 L 348.32 15.20 C 348.37 19.75 348.34 24.29 348.45 28.84 C 347.39 28.89 346.34 28.94 345.29 28.98 C 345.31 25.40 345.30 21.82 345.42 18.24 C 343.99 19.11 342.49 19.39 340.90 19.08 Z" />
<path fill="#000000" d=" M 361.40 15.57 C 362.62 14.92 363.92 14.46 365.24 14.06 L 365.29 14.80 C 365.46 19.50 365.34 24.20 365.46 28.90 C 364.42 28.91 363.38 28.90 362.35 28.89 C 362.40 25.33 362.41 21.76 362.52 18.19 C 361.09 18.91 359.54 19.95 358.08 18.67 C 359.15 17.62 360.25 16.56 361.40 15.57 Z" />
<path fill="#000000" d=" M 370.18 14.48 C 372.69 14.39 375.20 14.39 377.72 14.33 C 377.76 14.98 377.84 16.26 377.88 16.91 C 376.10 16.97 374.33 17.04 372.56 17.13 C 372.58 17.70 372.62 18.82 372.64 19.39 C 374.54 19.84 376.44 20.33 378.32 20.90 C 378.42 22.73 378.96 24.67 378.32 26.44 C 376.46 29.23 372.57 29.36 369.68 28.36 C 369.45 27.37 369.26 26.37 369.10 25.37 C 369.55 25.64 370.45 26.17 370.90 26.44 C 372.45 26.42 374.01 26.38 375.57 26.33 C 375.55 25.09 375.57 23.86 375.43 22.63 C 373.54 22.12 371.56 22.17 369.63 22.03 C 369.79 19.51 369.99 16.99 370.18 14.48 Z" />
<path fill="#000000" d=" M 333.56 14.94 L 334.34 14.55 C 334.95 14.71 336.17 15.03 336.78 15.20 C 337.94 19.62 337.04 24.34 337.33 28.89 C 336.56 28.90 335.00 28.92 334.22 28.93 C 334.24 25.36 334.22 21.78 334.34 18.20 C 333.00 19.05 331.59 19.34 330.12 19.07 C 331.14 17.60 332.36 16.28 333.56 14.94 Z" />
<path fill="#909090" d=" M 276.93 15.94 C 278.15 16.25 279.37 16.58 280.59 16.93 C 280.75 22.17 280.64 27.41 280.37 32.65 C 279.85 32.54 278.81 32.33 278.29 32.22 C 278.66 26.69 275.43 21.53 276.93 15.94 Z" />
<path fill="#414041" d=" M 293.62 22.27 C 293.68 19.58 295.21 17.52 297.15 15.82 C 302.13 17.18 307.31 17.42 312.45 17.43 C 311.00 19.05 309.54 20.66 308.09 22.27 C 304.23 21.87 300.25 21.20 296.43 22.20 C 296.26 22.64 295.91 23.51 295.74 23.94 L 295.16 24.13 C 294.77 23.66 294.00 22.73 293.62 22.27 Z" />
<path fill="#3b3b3b" d=" M 261.76 16.85 C 266.48 16.80 271.21 16.84 275.94 16.95 C 276.01 19.46 276.06 21.96 275.95 24.47 C 275.32 26.82 274.51 29.12 273.75 31.43 C 273.83 28.11 273.75 24.78 273.56 21.46 C 272.47 21.45 271.38 21.44 270.30 21.45 C 269.81 25.02 269.67 28.63 269.85 32.23 C 269.29 29.78 269.27 27.08 267.76 24.97 C 267.34 24.75 266.51 24.31 266.10 24.08 C 265.23 24.34 264.37 24.57 263.50 24.79 C 263.05 24.59 262.15 24.20 261.70 24.00 C 261.70 21.62 261.74 19.24 261.76 16.85 Z" />
<path fill="#f9f9f9" d=" M 312.45 17.43 C 314.06 17.47 315.67 17.56 317.28 17.68 C 315.76 18.75 314.29 19.90 312.83 21.07 C 314.67 21.28 316.52 21.52 318.37 21.66 C 315.99 23.02 313.74 24.64 311.21 25.73 C 311.80 24.75 312.39 23.76 312.99 22.78 C 311.35 22.62 309.72 22.45 308.09 22.27 C 309.54 20.66 311.00 19.05 312.45 17.43 Z" />
<path fill="#000000" d=" M 352.68 18.56 C 354.51 17.19 356.25 18.46 355.76 20.57 C 355.26 20.81 354.26 21.30 353.77 21.54 C 353.24 20.61 352.55 19.69 352.68 18.56 Z" />
<path fill="#090a09" d=" M 386.40 18.65 C 386.97 18.63 388.12 18.59 388.69 18.56 C 389.92 21.57 390.99 24.66 391.66 27.85 C 392.15 28.03 393.13 28.37 393.62 28.55 C 393.64 25.27 393.64 22.00 393.66 18.72 C 394.58 18.70 395.51 18.67 396.44 18.64 C 397.22 21.20 397.98 23.77 398.79 26.33 C 399.61 23.84 400.38 21.33 401.08 18.80 C 401.87 18.77 403.43 18.70 404.21 18.66 C 404.18 22.07 404.20 25.47 404.22 28.87 C 403.74 28.88 402.78 28.89 402.30 28.90 C 402.27 26.64 402.23 24.38 402.12 22.13 C 401.11 24.57 400.23 27.08 399.32 29.56 C 397.56 28.28 396.78 26.19 395.69 24.41 C 395.64 25.53 395.55 27.79 395.50 28.92 C 393.62 28.86 391.75 28.82 389.88 28.80 C 389.76 28.18 389.53 26.96 389.41 26.34 C 388.61 26.40 387.01 26.51 386.21 26.57 C 385.52 27.93 384.40 28.90 383.03 29.52 C 383.69 26.74 384.51 23.99 385.46 21.29 C 385.77 20.41 386.08 19.53 386.40 18.65 Z" />
<path fill="#818181" d=" M 285.47 23.62 C 286.12 21.88 286.78 20.16 287.46 18.44 C 287.50 23.17 287.39 27.92 286.77 32.62 C 285.98 32.77 284.38 33.06 283.59 33.21 C 282.95 30.28 282.57 27.31 282.61 24.31 C 282.73 23.40 282.97 21.57 283.09 20.66 C 283.89 21.64 284.68 22.63 285.47 23.62 Z" />
<path fill="#f9f9f9" d=" M 270.30 21.45 C 271.38 21.44 272.47 21.45 273.56 21.46 C 273.75 24.78 273.83 28.11 273.75 31.43 C 273.64 31.81 273.41 32.56 273.30 32.94 C 272.44 32.76 270.72 32.40 269.85 32.23 C 269.67 28.63 269.81 25.02 270.30 21.45 Z" />
<path fill="#dcdedc" d=" M 288.82 21.12 C 290.42 21.49 292.02 21.86 293.62 22.27 C 294.00 22.73 294.77 23.66 295.16 24.13 C 295.81 24.82 296.52 25.44 297.31 25.99 C 297.36 26.65 297.46 27.97 297.51 28.63 C 298.11 29.35 298.71 30.06 299.31 30.77 C 295.88 30.92 292.45 31.11 289.02 31.16 C 289.04 27.81 288.87 24.47 288.82 21.12 Z" />
<path fill="#101210" d=" M 318.37 21.66 C 319.11 21.54 319.86 21.43 320.61 21.32 C 320.74 23.88 320.91 26.44 320.96 29.01 C 320.62 29.40 319.93 30.17 319.58 30.56 C 312.91 31.82 306.04 31.36 299.31 30.77 C 298.71 30.06 298.11 29.35 297.51 28.63 C 297.46 27.97 297.36 26.65 297.31 25.99 C 296.52 25.44 295.81 24.82 295.16 24.13 L 295.74 23.94 C 298.28 26.22 301.79 25.11 304.86 25.39 L 305.45 25.52 C 305.43 26.54 305.40 28.57 305.38 29.58 C 309.91 29.50 314.48 29.95 318.98 29.25 C 319.28 28.55 319.86 27.14 320.16 26.43 C 315.70 26.25 311.18 26.82 306.80 25.81 C 308.27 25.83 309.74 25.80 311.21 25.73 C 313.74 24.64 315.99 23.02 318.37 21.66 Z" />
<path fill="#dcdedc" d=" M 386.15 24.56 C 386.63 23.26 387.11 21.96 387.62 20.67 C 388.05 22.01 388.49 23.36 388.91 24.72 C 388.22 24.68 386.84 24.60 386.15 24.56 Z" />
<path fill="#1a1a1a" d=" M 202.50 21.84 C 204.01 23.21 205.51 24.58 207.08 25.89 C 206.76 26.20 206.12 26.83 205.79 27.14 C 205.46 27.69 204.79 28.78 204.46 29.33 C 203.16 28.51 201.89 27.64 200.69 26.68 C 201.28 25.06 201.91 23.46 202.50 21.84 Z" />
<path fill="#6d6d6d" d=" M 215.64 33.07 C 216.33 29.08 217.31 24.29 220.72 21.75 C 219.33 25.60 219.18 30.47 215.64 33.07 Z" />
<path fill="#262626" d=" M 296.43 22.20 C 300.25 21.20 304.23 21.87 308.09 22.27 C 309.72 22.45 311.35 22.62 312.99 22.78 C 312.39 23.76 311.80 24.75 311.21 25.73 C 309.74 25.80 308.27 25.83 306.80 25.81 L 305.45 25.52 L 304.86 25.39 C 301.79 25.11 298.28 26.22 295.74 23.94 C 295.91 23.51 296.26 22.64 296.43 22.20 Z" />
<path fill="#a6a4a6" d=" M 238.00 26.46 C 239.27 25.04 240.54 23.62 241.82 22.20 C 242.76 23.51 243.74 24.81 244.61 26.17 L 243.95 27.17 C 243.40 27.63 242.84 28.09 242.29 28.55 C 240.87 27.83 239.44 27.13 238.00 26.46 Z" />
<path fill="#aeaeae" d=" M 247.70 23.28 C 248.70 23.27 249.71 23.26 250.71 23.26 C 250.77 24.47 250.84 25.69 250.93 26.91 C 250.64 27.28 250.05 28.03 249.76 28.41 C 248.90 28.50 248.05 28.46 247.21 28.28 C 247.45 26.62 247.57 24.95 247.70 23.28 Z" />
<path fill="#060806" d=" M 236.04 24.27 C 236.70 25.00 237.36 25.72 238.00 26.46 C 238.33 26.89 238.99 27.73 239.32 28.16 C 239.55 29.53 239.73 30.91 239.91 32.29 C 241.04 32.37 242.17 32.45 243.30 32.53 C 243.49 30.98 243.66 29.44 243.85 27.89 C 244.67 28.75 245.52 29.57 246.39 30.38 C 247.47 31.40 248.61 32.37 249.74 33.35 C 250.87 31.94 252.02 30.54 253.08 29.07 C 252.68 28.67 251.88 27.86 251.48 27.46 C 252.71 27.23 253.94 27.02 255.18 26.83 C 256.97 29.10 255.61 31.97 255.04 34.43 C 248.34 34.65 241.63 34.45 234.93 34.48 C 234.79 34.03 234.51 33.13 234.36 32.68 C 234.56 32.54 234.96 32.27 235.16 32.13 C 235.16 30.16 235.19 28.20 235.26 26.24 C 235.45 25.75 235.84 24.76 236.04 24.27 Z" />
<path fill="#f9f9f9" d=" M 263.50 24.79 C 264.37 24.57 265.23 24.34 266.10 24.08 C 266.51 24.31 267.34 24.75 267.76 24.97 C 267.68 27.51 267.64 30.06 267.50 32.60 C 266.23 32.57 264.96 32.52 263.69 32.46 C 263.60 29.91 263.60 27.35 263.50 24.79 Z" />
<path fill="#7e807e" d=" M 218.96 33.37 C 218.98 30.21 219.87 26.85 222.55 24.92 C 222.06 27.89 222.08 31.84 218.96 33.37 Z" />
<path fill="#080808" d=" M 353.04 25.54 C 353.65 25.57 354.88 25.63 355.49 25.66 C 355.59 26.73 355.67 27.80 355.73 28.87 C 355.09 28.83 353.80 28.75 353.16 28.71 C 352.22 27.84 352.90 26.57 353.04 25.54 Z" />
<path fill="#e7e6e7" d=" M 205.79 27.14 C 206.12 26.83 206.76 26.20 207.08 25.89 C 207.50 26.44 208.34 27.56 208.76 28.11 C 207.94 29.56 205.52 28.86 205.79 27.14 Z" />
<path fill="#100f10" d=" M 209.20 26.09 C 210.16 26.41 211.13 26.73 212.09 27.05 C 212.68 26.81 213.86 26.33 214.45 26.09 C 214.53 26.70 214.70 27.94 214.78 28.56 C 214.53 29.30 214.02 30.79 213.77 31.53 C 211.93 31.22 210.08 30.88 208.25 30.53 C 208.56 29.05 208.88 27.57 209.20 26.09 Z" />
<path fill="#709800" d=" M 305.45 25.52 L 306.80 25.81 C 311.18 26.82 315.70 26.25 320.16 26.43 C 319.86 27.14 319.28 28.55 318.98 29.25 C 314.48 29.95 309.91 29.50 305.38 29.58 C 305.40 28.57 305.43 26.54 305.45 25.52 Z" />
<path fill="#7e807e" d=" M 238.00 26.46 C 239.44 27.13 240.87 27.83 242.29 28.55 C 242.84 28.09 243.40 27.63 243.95 27.17 L 243.85 27.89 C 243.66 29.44 243.49 30.98 243.30 32.53 C 242.17 32.45 241.04 32.37 239.91 32.29 C 239.73 30.91 239.55 29.53 239.32 28.16 C 238.99 27.73 238.33 26.89 238.00 26.46 Z" />
<path fill="#7d7e7d" d=" M 249.76 28.41 C 250.05 28.03 250.64 27.28 250.93 26.91 C 251.07 27.05 251.35 27.32 251.48 27.46 C 251.88 27.86 252.68 28.67 253.08 29.07 C 252.02 30.54 250.87 31.94 249.74 33.35 C 248.61 32.37 247.47 31.40 246.39 30.38 C 246.60 29.85 247.01 28.81 247.21 28.28 C 248.05 28.46 248.90 28.50 249.76 28.41 Z" />
<path fill="#ecedec" d=" M 299.31 30.77 C 306.04 31.36 312.91 31.82 319.58 30.56 C 324.56 32.02 329.78 31.11 334.87 31.27 C 357.81 31.34 380.75 31.30 403.69 31.33 C 406.26 31.29 408.87 31.05 411.39 31.62 C 411.68 32.62 411.91 33.63 412.08 34.66 C 399.41 34.85 386.73 34.64 374.06 34.94 C 359.79 34.29 345.53 35.11 331.27 34.71 C 325.85 34.27 320.44 35.05 315.03 34.93 C 306.12 34.67 297.21 35.10 288.30 34.59 C 288.56 33.45 288.82 32.31 289.02 31.16 C 292.45 31.11 295.88 30.92 299.31 30.77 Z" />
<path fill="#f9f6f9" d=" M 256.83 33.18 C 258.49 33.42 260.16 33.71 261.82 34.04 C 270.59 35.16 279.48 34.16 288.30 34.59 C 297.21 35.10 306.12 34.67 315.03 34.93 C 320.44 35.05 325.85 34.27 331.27 34.71 C 345.53 35.11 359.79 34.29 374.06 34.94 C 386.73 34.64 399.41 34.85 412.08 34.66 C 412.11 35.36 412.17 36.78 412.20 37.49 C 275.91 37.50 139.61 37.55 3.32 37.46 C 3.71 34.97 5.79 34.46 7.96 34.62 C 76.31 34.67 144.66 34.60 213.02 34.64 C 220.32 34.65 227.63 34.75 234.93 34.48 C 241.63 34.45 248.34 34.65 255.04 34.43 L 255.37 34.22 C 255.73 33.96 256.46 33.44 256.83 33.18 Z" />
<path fill="#303430" d=" M 2.98 37.46 L 3.32 37.46 C 139.61 37.55 275.91 37.50 412.20 37.49 L 412.90 37.49 C 412.83 48.25 412.70 59.02 412.72 69.79 C 276.19 69.93 139.67 69.79 3.15 69.86 C 3.10 59.06 2.94 48.26 2.98 37.46 Z" />
<path fill="#606360" d=" M 97.26 46.92 C 98.10 46.62 98.93 46.31 99.77 46.00 C 99.75 50.59 99.85 55.17 99.76 59.75 C 99.18 59.73 98.01 59.69 97.43 59.67 C 97.35 56.09 97.42 52.50 97.85 48.94 C 97.70 48.43 97.41 47.43 97.26 46.92 Z" />
<path fill="#5d605d" d=" M 112.94 46.05 C 113.62 46.12 115.00 46.25 115.69 46.32 C 115.52 50.74 115.52 55.17 115.63 59.60 C 115.03 59.64 113.81 59.72 113.21 59.76 C 112.95 55.19 112.82 50.62 112.94 46.05 Z" />
<path fill="#606260" d=" M 9.97 46.97 C 12.61 47.25 17.36 46.26 17.74 50.03 C 18.65 53.28 15.52 55.02 12.78 55.28 C 12.69 56.73 12.60 58.19 12.52 59.65 C 11.95 59.69 10.79 59.78 10.21 59.83 C 9.86 55.55 9.84 51.26 9.97 46.97 Z" />
<path fill="#606260" d=" M 85.08 46.92 C 87.44 47.13 89.94 46.93 92.20 47.76 C 95.23 49.99 95.30 54.54 93.47 57.54 C 91.34 59.79 88.05 59.60 85.23 59.81 C 85.00 55.52 84.98 51.22 85.08 46.92 Z" />
<path fill="#2e2f2e" d=" M 12.30 49.30 C 12.97 49.25 14.31 49.13 14.98 49.08 C 14.96 50.31 14.96 51.54 14.97 52.78 C 14.29 52.80 12.94 52.85 12.26 52.87 C 12.27 51.68 12.29 50.49 12.30 49.30 Z" />
<path fill="#595c59" d=" M 20.94 49.56 C 22.65 49.73 24.37 49.69 26.06 49.43 C 26.33 50.06 26.60 50.69 26.86 51.32 C 25.72 52.16 23.35 52.18 23.51 54.04 C 22.86 55.97 24.21 59.88 21.15 59.89 C 20.30 56.51 20.63 52.99 20.94 49.56 Z" />
<path fill="#606260" d=" M 31.39 49.46 C 36.02 48.67 38.53 55.40 35.29 58.34 C 33.35 60.90 28.19 59.38 28.23 56.12 C 27.81 53.56 28.36 50.07 31.39 49.46 Z" />
<path fill="#606360" d=" M 40.85 49.79 C 43.08 49.19 45.44 49.43 47.72 49.34 C 46.68 52.66 45.32 56.19 41.45 56.93 C 43.21 57.30 45.01 57.60 46.70 58.26 C 47.38 59.64 47.19 61.20 46.56 62.56 C 44.64 64.01 41.85 64.20 39.66 63.32 C 36.88 61.72 39.97 59.09 39.76 56.86 C 39.98 54.49 38.01 51.13 40.85 49.79 Z" />
<path fill="#595b59" d=" M 50.08 49.21 C 50.96 49.44 51.84 49.65 52.72 49.87 C 54.34 49.09 55.47 49.72 56.07 51.29 C 54.94 51.78 53.82 52.31 52.73 52.87 C 51.86 55.36 53.20 59.07 50.07 60.13 C 49.52 56.51 49.54 52.83 50.08 49.21 Z" />
<path fill="#606360" d=" M 57.27 55.99 C 56.63 53.28 57.75 49.42 61.07 49.39 C 64.20 48.87 65.00 52.49 65.83 54.70 C 63.51 55.02 61.21 55.38 58.93 55.87 C 60.44 57.91 62.89 57.63 65.10 57.52 C 63.87 61.43 57.41 59.81 57.27 55.99 Z" />
<path fill="#555755" d=" M 67.17 53.08 C 66.24 49.04 73.01 47.87 74.17 51.51 C 72.63 51.68 71.09 51.86 69.55 52.03 C 70.95 53.09 72.40 54.10 73.71 55.29 C 76.03 59.70 67.34 61.97 66.69 57.34 C 68.24 57.16 70.21 58.15 71.49 56.91 C 70.12 55.55 68.30 54.66 67.17 53.08 Z" />
<path fill="#545654" d=" M 75.66 51.89 C 75.91 48.62 82.13 48.16 82.50 51.69 C 80.96 51.82 79.42 51.94 77.87 52.05 C 79.77 53.53 83.13 54.64 82.58 57.64 C 81.44 60.22 78.46 59.68 76.19 59.83 C 76.13 59.23 76.02 58.02 75.96 57.42 C 77.49 57.49 79.11 57.59 80.38 56.57 C 78.67 55.18 75.39 54.69 75.66 51.89 Z" />
<path fill="#262826" d=" M 87.46 49.41 C 91.87 47.93 93.68 54.07 90.86 56.76 C 90.07 56.97 88.50 57.38 87.71 57.59 C 87.62 54.86 87.55 52.13 87.46 49.41 Z" />
<path fill="#606160" d=" M 102.93 51.37 C 103.72 48.43 108.39 48.73 109.59 51.20 C 110.16 54.08 109.83 57.05 109.74 59.96 C 108.96 59.49 108.18 59.02 107.40 58.56 C 105.75 59.67 103.90 59.53 102.12 58.84 C 102.34 57.19 101.98 55.35 102.80 53.85 C 104.42 53.33 106.11 53.05 107.76 52.62 C 106.35 51.60 104.57 51.64 102.93 51.37 Z" />
<path fill="#606260" d=" M 130.06 49.94 C 132.26 49.17 134.65 49.44 136.94 49.29 C 136.43 51.27 136.03 53.33 135.08 55.16 C 133.65 55.81 132.10 56.14 130.61 56.63 C 132.54 57.43 134.63 57.66 136.61 58.30 C 137.70 60.85 135.94 63.85 133.10 63.81 C 131.49 63.77 128.60 64.23 128.28 62.02 C 128.65 59.58 129.68 57.20 129.31 54.69 C 129.38 53.16 128.46 50.97 130.06 49.94 Z" />
<path fill="#595b59" d=" M 119.33 50.30 C 120.63 49.29 122.47 49.55 123.98 49.87 C 127.94 51.94 126.88 59.79 121.93 59.68 C 117.35 59.88 116.17 52.76 119.33 50.30 Z" />
<path fill="#292c29" d=" M 42.17 51.27 C 43.91 50.75 44.65 53.73 42.91 54.15 C 41.25 54.54 40.55 51.74 42.17 51.27 Z" />
<path fill="#303230" d=" M 61.01 51.23 C 62.82 50.58 63.97 53.64 61.90 54.00 C 60.01 54.69 58.90 51.61 61.01 51.23 Z" />
<path fill="#222622" d=" M 132.24 51.27 C 133.81 51.35 133.79 54.08 132.21 54.10 C 130.65 54.00 130.67 51.30 132.24 51.27 Z" />
<path fill="#1e1f1e" d=" M 30.74 51.79 C 31.52 51.88 33.10 52.05 33.88 52.14 C 33.50 54.02 34.83 57.27 32.02 57.54 C 29.74 56.74 31.13 53.60 30.74 51.79 Z" />
<path fill="#1f201f" d=" M 120.23 52.03 C 121.34 52.12 122.46 52.24 123.57 52.38 C 123.49 54.15 124.52 56.99 122.00 57.39 C 119.36 57.01 120.66 53.85 120.23 52.03 Z" />
<path fill="#1d201d" d=" M 105.29 55.12 C 106.92 54.60 107.45 55.15 106.86 56.79 C 105.23 57.31 104.70 56.75 105.29 55.12 Z" />
<path fill="#252625" d=" M 40.43 61.06 C 40.76 58.60 43.96 60.28 45.50 59.85 C 44.87 61.97 41.73 63.40 40.43 61.06 Z" />
<path fill="#2a2b2a" d=" M 130.32 60.27 C 131.39 59.52 132.62 59.33 134.01 59.70 C 137.23 61.97 128.93 63.83 130.32 60.27 Z" />
<path fill="#505550" d=" M 9.17 73.20 C 10.67 71.64 12.99 71.74 14.98 71.67 C 34.64 71.75 54.29 71.70 73.94 71.70 C 76.03 71.69 78.80 72.04 79.56 74.35 C 80.31 78.06 80.05 81.90 79.70 85.64 C 78.84 91.69 79.11 97.82 78.73 103.90 C 78.41 102.93 78.08 101.96 77.76 100.99 C 75.90 100.11 74.07 99.17 72.24 98.24 C 71.53 99.40 70.85 100.58 70.21 101.78 C 69.55 99.53 69.86 96.59 67.94 94.92 C 65.96 94.26 63.83 94.75 61.81 94.89 L 61.26 95.35 C 61.02 96.82 60.85 98.30 60.68 99.78 C 60.28 98.77 59.88 97.76 59.45 96.77 C 58.09 95.87 56.79 94.42 55.03 94.52 C 52.84 94.36 51.87 96.66 50.63 98.03 C 49.69 99.28 48.72 100.51 47.72 101.72 C 47.57 100.12 47.45 98.51 47.36 96.91 C 47.99 96.53 49.24 95.77 49.87 95.39 C 48.80 94.74 47.74 94.08 46.63 93.50 C 46.28 93.56 45.58 93.68 45.22 93.74 C 44.41 93.74 42.78 93.74 41.97 93.74 C 41.55 93.68 40.71 93.58 40.30 93.53 C 40.00 93.61 39.39 93.79 39.09 93.87 C 38.56 94.06 37.50 94.42 36.97 94.61 C 36.51 94.80 35.57 95.18 35.10 95.37 C 34.82 97.82 34.72 100.29 34.58 102.75 C 33.52 102.77 32.46 102.78 31.41 102.80 C 31.32 100.18 31.33 97.55 30.91 94.97 C 30.41 94.87 29.40 94.67 28.89 94.57 C 28.29 96.75 27.86 98.98 27.29 101.18 C 26.72 100.13 26.16 99.08 25.61 98.03 C 26.19 96.00 27.29 93.29 25.11 91.77 C 22.94 91.03 20.58 91.27 18.33 91.13 C 18.31 94.35 18.34 97.58 18.35 100.80 C 16.56 99.26 14.46 98.19 12.04 98.69 C 12.55 99.38 13.06 100.07 13.57 100.76 C 12.11 101.04 10.64 101.33 9.17 101.61 C 8.89 93.97 9.15 86.31 8.26 78.72 C 8.20 76.88 7.73 74.65 9.17 73.20 Z" />
<path fill="#464746" d=" M 8.26 78.72 C 9.15 86.31 8.89 93.97 9.17 101.61 C 10.64 101.33 12.11 101.04 13.57 100.76 C 13.06 100.07 12.55 99.38 12.04 98.69 C 14.46 98.19 16.56 99.26 18.35 100.80 C 18.34 102.20 18.34 103.59 18.32 104.99 C 20.45 104.94 22.61 105.08 24.70 104.62 C 25.98 103.88 26.56 102.40 27.29 101.18 C 27.86 98.98 28.29 96.75 28.89 94.57 C 29.01 97.92 28.50 101.56 30.04 104.67 C 32.38 104.95 34.74 104.84 37.09 104.77 C 37.09 101.38 37.04 97.99 36.97 94.61 C 37.50 94.42 38.56 94.06 39.09 93.87 C 39.35 97.44 39.56 101.05 40.37 104.55 C 41.62 104.77 42.88 104.95 44.14 105.09 C 43.27 104.19 42.39 103.29 41.50 102.40 C 41.44 100.42 41.39 98.45 41.34 96.47 C 41.96 96.25 43.22 95.81 43.85 95.59 C 43.23 94.96 42.60 94.34 41.97 93.74 C 42.78 93.74 44.41 93.74 45.22 93.74 C 45.42 97.11 45.47 100.52 46.16 103.83 C 47.02 104.90 48.67 104.74 49.86 105.27 C 49.15 104.09 48.41 102.92 47.72 101.72 C 48.72 100.51 49.69 99.28 50.63 98.03 C 50.96 99.78 50.95 101.65 51.72 103.29 C 53.30 105.88 57.73 105.61 58.87 102.74 C 59.49 100.82 59.33 98.76 59.45 96.77 C 59.88 97.76 60.28 98.77 60.68 99.78 C 60.85 98.30 61.02 96.82 61.26 95.35 L 61.81 94.89 C 61.77 98.49 61.75 102.10 62.18 105.67 C 64.38 102.86 63.47 99.02 63.99 95.73 C 65.12 95.99 66.25 96.30 67.36 96.66 C 67.92 99.65 67.90 102.72 68.23 105.74 C 68.89 104.42 69.54 103.10 70.21 101.78 C 70.85 100.58 71.53 99.40 72.24 98.24 C 74.07 99.17 75.90 100.11 77.76 100.99 C 78.08 101.96 78.41 102.93 78.73 103.90 C 79.11 97.82 78.84 91.69 79.70 85.64 C 80.34 95.73 79.69 105.86 79.92 115.97 C 79.84 118.54 80.32 122.00 77.58 123.43 C 74.77 124.04 71.87 123.77 69.02 123.81 C 50.32 123.76 31.62 123.81 12.93 123.79 C 9.70 124.31 7.62 120.85 8.12 117.99 C 8.36 104.90 7.66 91.79 8.26 78.72 Z" />
<path fill="#060806" d=" M 18.33 91.13 C 20.58 91.27 22.94 91.03 25.11 91.77 C 27.29 93.29 26.19 96.00 25.61 98.03 C 26.16 99.08 26.72 100.13 27.29 101.18 C 26.56 102.40 25.98 103.88 24.70 104.62 C 22.61 105.08 20.45 104.94 18.32 104.99 C 18.34 103.59 18.34 102.20 18.35 100.80 C 18.34 97.58 18.31 94.35 18.33 91.13 Z" />
<path fill="#504f50" d=" M 20.15 92.71 C 21.79 93.03 24.88 92.39 24.68 94.95 C 24.87 97.58 21.85 96.97 20.13 97.23 C 20.13 95.73 20.14 94.22 20.15 92.71 Z" />
<path fill="#0f100f" d=" M 40.30 93.53 C 40.71 93.58 41.55 93.68 41.97 93.74 C 42.60 94.34 43.23 94.96 43.85 95.59 C 43.22 95.81 41.96 96.25 41.34 96.47 C 41.39 98.45 41.44 100.42 41.50 102.40 C 42.39 103.29 43.27 104.19 44.14 105.09 C 42.88 104.95 41.62 104.77 40.37 104.55 C 39.56 101.05 39.35 97.44 39.09 93.87 C 39.39 93.79 40.00 93.61 40.30 93.53 Z" />
<path fill="#080808" d=" M 46.63 93.50 C 47.74 94.08 48.80 94.74 49.87 95.39 C 49.24 95.77 47.99 96.53 47.36 96.91 C 47.45 98.51 47.57 100.12 47.72 101.72 C 48.41 102.92 49.15 104.09 49.86 105.27 C 48.67 104.74 47.02 104.90 46.16 103.83 C 45.47 100.52 45.42 97.11 45.22 93.74 C 45.58 93.68 46.28 93.56 46.63 93.50 Z" />
<path fill="#080808" d=" M 61.81 94.89 C 63.83 94.75 65.96 94.26 67.94 94.92 C 69.86 96.59 69.55 99.53 70.21 101.78 C 69.54 103.10 68.89 104.42 68.23 105.74 C 67.90 102.72 67.92 99.65 67.36 96.66 C 66.25 96.30 65.12 95.99 63.99 95.73 C 63.47 99.02 64.38 102.86 62.18 105.67 C 61.75 102.10 61.77 98.49 61.81 94.89 Z" />
<path fill="#181918" d=" M 28.89 94.57 C 29.40 94.67 30.41 94.87 30.91 94.97 C 31.33 97.55 31.32 100.18 31.41 102.80 C 32.46 102.78 33.52 102.77 34.58 102.75 C 34.72 100.29 34.82 97.82 35.10 95.37 C 35.57 95.18 36.51 94.80 36.97 94.61 C 37.04 97.99 37.09 101.38 37.09 104.77 C 34.74 104.84 32.38 104.95 30.04 104.67 C 28.50 101.56 29.01 97.92 28.89 94.57 Z" />
<path fill="#141614" d=" M 50.63 98.03 C 51.87 96.66 52.84 94.36 55.03 94.52 C 56.79 94.42 58.09 95.87 59.45 96.77 C 59.33 98.76 59.49 100.82 58.87 102.74 C 57.73 105.61 53.30 105.88 51.72 103.29 C 50.95 101.65 50.96 99.78 50.63 98.03 Z" />
<path fill="#484d48" d=" M 53.22 103.04 C 53.01 100.68 51.98 95.99 55.73 96.18 C 58.13 97.36 58.17 100.67 56.78 102.65 C 55.60 102.82 54.41 102.95 53.22 103.04 Z" />
<path fill="#484c48" d=" M 20.08 98.69 C 21.72 98.86 23.35 99.03 24.98 99.22 C 24.87 100.32 24.73 101.42 24.55 102.52 C 23.27 103.45 21.64 103.27 20.16 103.42 C 20.13 101.84 20.10 100.26 20.08 98.69 Z" />
<path fill="#fbfbfb" d=" M 44.42 345.69 C 47.07 344.27 50.18 344.93 53.05 344.79 C 158.72 344.82 264.40 344.79 370.07 344.80 C 373.55 344.51 377.10 347.22 376.90 350.88 C 376.98 381.94 376.93 413.00 376.92 444.05 C 377.27 447.35 374.49 450.81 371.08 450.62 C 263.37 450.68 155.65 450.63 47.94 450.65 C 44.34 451.07 40.97 447.60 41.46 444.01 C 41.47 412.98 41.44 381.95 41.47 350.92 C 41.23 348.72 42.65 346.82 44.42 345.69 Z" />
<path fill="#3f3f3f" d=" M 46.38 347.53 C 49.22 347.15 52.10 347.39 54.96 347.35 C 160.00 347.36 265.04 347.36 370.08 347.35 C 371.97 347.02 373.30 348.31 374.48 349.60 C 374.23 381.09 374.47 412.58 374.36 444.06 C 374.80 446.59 372.43 448.41 370.05 448.07 C 266.02 448.11 161.99 448.08 57.96 448.09 C 54.28 448.02 50.58 448.27 46.91 447.95 C 44.94 447.89 43.79 445.91 44.04 444.09 C 43.98 413.40 44.04 382.70 44.01 352.01 C 43.81 350.17 44.44 348.11 46.38 347.53 Z" />
<path fill="#b2b2b2" d=" M 132.57 391.23 C 133.07 391.20 134.06 391.14 134.55 391.11 C 134.30 395.72 134.62 400.35 134.35 404.97 C 134.34 406.78 132.24 407.31 131.06 408.21 C 133.66 402.90 132.54 396.91 132.57 391.23 Z" />
<path fill="#8c8b8c" d=" M 189.02 391.16 C 190.64 390.63 191.20 391.18 190.69 392.81 C 189.06 393.35 188.51 392.80 189.02 391.16 Z" />
<path fill="#b0b0b0" d=" M 55.39 392.13 C 59.06 392.65 62.62 393.72 66.17 394.76 C 66.22 396.60 66.27 398.45 66.34 400.31 C 62.74 401.48 59.10 402.61 55.32 402.96 C 55.11 399.35 55.14 395.73 55.39 392.13 Z" />
<path fill="#b0b0b0" d=" M 154.90 394.74 C 155.58 393.89 156.28 393.08 156.95 392.23 C 157.69 393.39 158.70 394.25 159.99 394.80 C 156.69 395.68 157.52 399.25 157.43 401.90 C 158.41 402.77 159.36 403.71 160.13 404.78 C 158.70 404.39 156.50 404.90 156.00 403.02 C 155.58 400.55 155.80 398.02 155.83 395.53 C 153.39 395.60 150.95 395.80 148.54 396.14 C 149.63 398.10 151.84 398.85 153.39 400.34 C 153.54 401.43 153.65 402.53 153.73 403.64 C 151.48 404.53 148.72 405.26 146.72 403.41 C 148.40 402.70 152.48 404.11 151.82 401.21 C 149.52 399.73 146.66 398.59 147.23 395.27 C 149.65 394.08 152.32 394.38 154.90 394.74 Z" />
<path fill="#aeaeae" d=" M 192.46 394.80 C 193.02 393.95 193.59 393.11 194.17 392.27 C 195.39 393.34 196.66 394.37 197.96 395.36 C 197.23 395.46 195.78 395.65 195.06 395.74 C 195.10 398.21 195.11 400.68 195.16 403.15 C 197.21 403.11 199.26 402.86 201.16 402.04 C 201.09 402.65 200.95 403.89 200.88 404.51 C 198.47 404.11 196.04 404.65 193.62 404.39 C 193.43 401.17 193.44 397.90 192.46 394.80 Z" />
<path fill="#a6a6a6" d=" M 137.99 394.30 L 139.08 394.02 C 139.56 396.75 139.29 399.55 139.60 402.31 C 140.56 403.24 143.18 403.21 143.32 401.52 C 144.00 398.89 142.71 395.51 145.08 393.56 C 145.53 397.14 145.47 400.77 145.38 404.38 C 143.26 404.41 141.12 404.59 139.00 404.37 C 136.81 401.64 137.41 397.51 137.99 394.30 Z" />
<path fill="#b2b2b2" d=" M 164.36 394.01 C 166.98 394.34 166.69 397.22 167.35 399.15 C 167.57 400.78 168.91 401.85 169.82 403.11 C 168.99 403.77 168.18 404.44 167.37 405.13 C 166.19 401.47 165.21 397.76 164.36 394.01 Z" />
<path fill="#b0b0b0" d=" M 168.63 401.48 C 169.04 398.78 168.91 395.24 171.69 393.77 C 172.53 396.56 173.35 399.37 174.38 402.11 C 174.95 399.18 174.75 395.74 177.12 393.55 C 177.25 397.21 176.02 400.72 175.26 404.26 C 174.78 404.40 173.83 404.67 173.35 404.81 C 172.67 402.47 172.03 400.11 171.41 397.76 C 170.52 399.02 169.66 400.31 168.63 401.48 Z" />
<path fill="#aeaeae" d=" M 179.26 395.61 C 180.95 393.91 184.95 393.37 185.88 396.04 C 186.66 398.71 186.22 401.55 186.27 404.29 C 183.99 403.93 180.29 405.77 179.12 403.02 C 177.79 400.73 180.36 397.56 182.77 399.23 C 182.36 400.43 179.23 401.61 181.12 402.80 C 181.79 402.81 183.14 402.81 183.81 402.81 C 184.25 400.61 184.11 398.35 184.05 396.13 C 182.45 395.93 180.86 395.76 179.26 395.61 Z" />
<path fill="#abacab" d=" M 188.85 394.36 L 190.60 394.34 C 190.64 397.75 190.63 401.16 190.59 404.57 L 188.85 404.47 C 188.81 401.09 188.81 397.72 188.85 394.36 Z" />
<path fill="#8f8e8f" d=" M 204.25 402.22 C 205.72 401.00 207.35 403.59 205.88 404.59 C 204.43 405.74 202.80 403.21 204.25 402.22 Z" />
<path fill="#b2b2b2" d=" M 209.22 402.18 C 209.83 402.21 211.04 402.28 211.65 402.32 C 211.55 402.80 211.35 403.78 211.24 404.27 C 210.80 404.37 209.90 404.58 209.46 404.69 C 209.40 404.06 209.28 402.81 209.22 402.18 Z" />
<path fill="#a6a6a6" d=" M 56.88 407.40 C 60.46 406.34 64.08 405.37 67.81 405.03 C 68.43 406.62 69.69 408.11 69.66 409.88 C 67.49 412.61 64.76 414.83 62.17 417.15 C 59.94 414.18 57.94 411.00 56.88 407.40 Z" />
<path fill="#9d9d9d" d=" M 65.54 420.25 C 68.02 417.81 70.25 415.09 73.05 413.02 C 74.80 413.45 76.35 414.43 77.93 415.26 C 77.14 418.81 76.21 422.32 75.26 425.83 C 71.59 424.80 68.32 422.82 65.54 420.25 Z" />
<path fill="#6d6d6d" d=" M 79.98 427.64 C 79.92 423.68 81.18 419.91 82.73 416.33 C 84.43 416.58 86.23 416.50 87.84 417.18 C 89.22 420.37 89.86 423.81 90.81 427.15 C 87.24 427.79 83.60 427.72 79.98 427.64 Z" />
</svg>
