<?xml version="1.0" encoding="UTF-8" ?>
<!DOCTYPE svg PUBLIC "-//W3C//DTD SVG 1.1//EN" "http://www.w3.org/Graphics/SVG/1.1/DTD/svg11.dtd">
<svg width="281pt" height="166pt" viewBox="0 0 281 166" version="1.1" xmlns="http://www.w3.org/2000/svg">
<path fill="#ffffff" d=" M 0.00 0.00 L 281.00 0.00 L 281.00 166.00 L 0.00 166.00 L 0.00 0.00 Z" />
<path fill="#0000ff" d=" M 21.26 21.21 C 39.25 15.92 58.53 17.44 76.87 20.20 C 103.67 24.92 130.21 31.63 155.64 41.41 C 161.04 43.54 165.52 47.38 169.79 51.20 C 200.12 78.94 230.96 106.12 261.30 133.84 C 259.80 135.93 258.30 138.02 256.79 140.10 C 224.15 111.49 192.21 82.07 159.85 53.13 C 154.44 48.43 147.13 47.00 140.64 44.39 C 108.74 34.24 75.70 25.62 41.98 25.92 C 31.86 25.80 20.89 28.09 13.83 35.90 C 11.50 38.91 7.66 36.16 4.69 35.87 C 8.59 29.41 13.69 23.35 21.26 21.21 Z" />
<path fill="#0000ff" d=" M 39.46 46.61 C 39.96 47.74 40.98 49.99 41.48 51.12 C 42.93 51.27 44.39 51.43 45.84 51.61 C 45.75 55.40 45.58 59.20 45.05 62.95 C 37.94 60.74 40.36 52.42 39.46 46.61 Z" />
<path fill="#0000ff" d=" M 47.79 46.99 C 48.44 47.00 49.74 47.01 50.39 47.02 C 50.00 52.21 49.95 57.46 48.80 62.55 C 48.55 58.66 48.04 50.88 47.79 46.99 Z" />
<path fill="#0000ff" d=" M 30.15 49.40 C 34.14 48.58 29.30 53.38 30.15 49.40 Z" />
<path fill="#0000ff" d=" M 67.28 49.56 C 67.86 49.41 69.04 49.09 69.62 48.93 C 70.39 52.67 71.16 56.40 72.05 60.11 C 74.27 56.52 76.06 52.42 79.70 50.01 C 78.98 55.21 77.98 60.35 76.66 65.43 C 76.67 62.77 76.69 57.44 76.70 54.78 C 74.99 58.01 73.29 61.24 71.53 64.43 C 70.58 60.90 69.72 57.34 68.77 53.81 C 68.09 57.03 67.41 60.27 66.55 63.45 C 66.72 58.82 66.93 54.19 67.28 49.56 Z" />
<path fill="#0000ff" d=" M 54.27 51.13 C 61.68 49.80 60.63 64.35 53.15 62.06 C 51.01 59.00 50.95 53.45 54.27 51.13 Z" />
<path fill="#0000ff" d=" M 34.17 52.09 C 37.03 52.60 39.18 54.27 38.64 58.07 C 37.12 56.09 35.69 54.06 34.17 52.09 Z" />
<path fill="#ffffff" d=" M 41.04 53.31 C 42.07 52.87 43.10 52.42 44.13 51.96 C 44.30 54.46 44.48 56.95 44.66 59.46 C 43.99 59.62 42.65 59.95 41.99 60.11 C 41.69 57.84 41.37 55.58 41.04 53.31 Z" />
<path fill="#ffffff" d=" M 54.10 52.20 C 59.09 53.00 56.97 57.78 56.56 61.31 C 55.73 61.10 54.08 60.70 53.25 60.49 C 53.51 57.72 53.78 54.96 54.10 52.20 Z" />
<path fill="#0000ff" d=" M 33.89 55.82 C 35.84 57.72 37.77 59.63 39.64 61.59 C 38.77 61.68 37.04 61.85 36.17 61.94 C 35.38 59.91 34.61 57.88 33.89 55.82 Z" />
<path fill="#0000ff" d=" M 80.43 64.67 C 79.97 59.58 82.37 54.70 88.34 55.06 C 89.30 59.62 89.20 64.28 85.48 67.47 C 83.80 66.53 82.11 65.60 80.43 64.67 Z" />
<path fill="#ffffff" d=" M 83.91 56.06 C 85.26 56.82 86.64 57.55 87.91 58.45 C 87.78 60.75 87.05 62.94 86.41 65.14 C 85.43 65.09 83.47 64.99 82.49 64.94 C 82.79 61.96 83.30 59.00 83.91 56.06 Z" />
<path fill="#0000ff" d=" M 92.85 57.46 C 95.33 58.10 97.85 58.61 100.34 59.21 C 99.59 62.65 98.59 66.03 97.51 69.39 C 97.32 65.79 97.16 62.18 96.94 58.58 C 94.62 61.57 92.72 64.86 90.67 68.04 C 91.33 64.50 92.08 60.98 92.85 57.46 Z" />
<path fill="#0000ff" d=" M 101.82 70.67 C 102.06 66.23 102.12 61.40 104.72 57.57 C 105.44 58.77 106.18 59.95 106.96 61.11 C 103.83 63.60 103.16 67.59 104.16 71.29 C 103.58 71.14 102.40 70.82 101.82 70.67 Z" />
<path fill="#0000ff" d=" M 110.12 61.18 C 113.25 62.21 117.16 63.84 116.11 67.92 C 113.53 68.48 110.89 67.95 108.30 67.79 C 110.06 69.91 111.98 71.88 113.85 73.91 C 111.54 72.96 107.13 72.39 107.20 68.94 C 107.62 66.18 109.02 63.71 110.12 61.18 Z" />
<path fill="#ffffff" d=" M 109.41 64.37 C 110.96 64.20 112.51 64.04 114.06 63.89 C 113.99 64.79 113.86 66.59 113.79 67.49 C 112.29 66.51 110.84 65.46 109.41 64.37 Z" />
<path fill="#0000ff" d=" M 118.18 65.50 C 120.60 65.66 123.03 65.92 125.43 66.26 C 123.55 66.34 121.67 66.39 119.78 66.44 C 121.06 69.11 122.36 71.78 123.55 74.49 C 120.81 75.26 117.98 75.07 115.42 73.79 C 117.31 73.75 119.20 73.75 121.09 73.75 C 119.90 71.09 118.58 68.42 118.18 65.50 Z" />
<path fill="#0000ff" d=" M 124.22 76.93 C 124.22 72.44 126.57 68.65 130.06 66.11 C 131.38 68.60 132.62 71.11 133.68 73.73 C 130.95 73.57 128.24 73.37 125.52 73.23 C 127.34 75.30 129.31 77.24 131.23 79.22 C 128.87 78.55 126.53 77.77 124.22 76.93 Z" />
<path fill="#ffffff" d=" M 126.35 70.64 C 128.01 70.01 129.67 69.41 131.33 68.80 C 131.53 69.71 131.91 71.53 132.10 72.44 C 130.19 71.82 128.26 71.25 126.35 70.64 Z" />
<path fill="#0000ff" d=" M 142.43 74.24 C 143.92 71.88 145.89 69.89 148.05 68.15 C 147.07 73.48 146.39 78.91 144.22 83.94 C 142.83 83.54 141.44 83.15 140.05 82.77 C 140.58 80.35 141.15 77.95 141.64 75.53 C 140.31 77.44 139.07 79.41 138.00 81.47 C 136.40 80.71 134.82 79.91 133.24 79.12 C 134.43 75.95 135.70 72.80 137.04 69.68 C 139.35 70.51 142.29 70.90 142.43 74.24 Z" />
</svg>
