<?xml version="1.0" encoding="UTF-8" ?>
<!DOCTYPE svg PUBLIC "-//W3C//DTD SVG 1.1//EN" "http://www.w3.org/Graphics/SVG/1.1/DTD/svg11.dtd">
<svg width="410pt" height="179pt" viewBox="0 0 410 179" version="1.1" xmlns="http://www.w3.org/2000/svg">
<path fill="#000000" d=" M 0.00 0.00 L 410.00 0.00 L 410.00 179.00 L 0.00 179.00 L 0.00 160.67 C 126.36 160.48 252.71 160.67 379.07 160.58 C 389.10 160.50 399.13 160.83 409.16 160.45 C 272.78 160.40 136.39 160.33 0.00 160.48 L 0.00 78.00 C 131.66 78.00 263.31 78.00 394.97 78.00 C 399.83 78.06 404.74 78.29 409.54 77.37 C 404.39 76.63 399.19 76.80 394.01 76.85 C 262.67 76.87 131.34 76.84 0.00 76.86 L 0.00 0.00 Z" />
<path fill="#f7f7f7" d=" M 83.85 12.34 C 84.96 12.39 86.06 12.44 87.17 12.49 C 85.49 14.33 84.04 16.97 81.18 16.82 C 82.05 15.32 82.97 13.84 83.85 12.34 Z" />
<path fill="#f7f6f7" d=" M 26.67 13.69 C 28.22 13.70 29.77 13.70 31.31 13.68 C 34.22 14.64 36.14 17.03 37.39 19.73 C 37.55 22.55 37.55 25.39 37.37 28.21 C 36.12 30.26 35.01 32.83 32.52 33.59 C 28.40 35.21 22.82 33.87 21.19 29.39 C 19.18 23.85 20.05 15.58 26.67 13.69 Z" />
<path fill="#f1f1f1" d=" M 70.72 16.43 C 70.90 15.41 69.70 13.65 71.03 13.14 C 72.51 11.40 73.06 14.35 73.69 15.19 C 72.69 15.60 71.71 16.02 70.72 16.43 Z" />
<path fill="#cdcecd" d=" M 121.60 13.64 C 122.49 13.67 123.38 13.70 124.27 13.73 C 124.27 20.55 124.27 27.36 124.27 34.17 C 123.55 34.18 122.10 34.21 121.37 34.22 C 121.37 28.48 121.32 22.74 121.42 17.00 C 119.87 18.19 117.88 20.95 116.28 18.08 C 118.05 16.59 119.84 15.13 121.60 13.64 Z" />
<path fill="#000000" d=" M 26.43 16.52 C 28.68 15.92 31.65 15.77 33.23 17.84 C 35.47 21.24 35.48 26.08 33.53 29.60 C 31.14 33.43 24.24 32.16 23.56 27.57 C 22.95 23.83 22.60 18.71 26.43 16.52 Z" />
<path fill="#e9e9e9" d=" M 346.50 19.51 C 347.75 18.37 349.04 16.89 350.93 17.13 C 360.98 17.06 371.04 17.08 381.09 17.12 C 382.76 16.96 384.06 18.07 385.40 18.86 C 385.33 21.34 385.26 23.82 385.26 26.30 C 383.52 26.58 381.77 27.06 381.47 29.25 C 381.33 29.11 381.04 28.82 380.90 28.68 C 380.28 27.52 379.73 26.32 379.21 25.12 C 378.03 25.70 376.85 26.29 375.73 26.98 C 366.03 25.84 356.23 27.05 346.50 26.31 C 346.51 24.04 346.52 21.77 346.50 19.51 Z" />
<path fill="#fbfbfb" d=" M 41.47 41.02 C 41.66 33.41 41.20 25.78 41.73 18.19 L 42.98 19.43 C 44.17 23.33 43.05 27.57 44.66 31.39 C 46.52 31.65 48.40 31.68 50.28 31.69 C 51.34 28.38 51.80 24.79 50.23 21.56 C 49.02 20.70 47.76 19.91 46.49 19.15 C 49.50 18.00 52.95 19.94 53.54 23.08 C 53.98 26.52 54.39 30.83 51.39 33.30 C 49.16 34.95 46.49 33.86 44.16 33.09 C 44.20 35.67 44.20 38.26 44.24 40.84 C 43.55 40.89 42.16 40.98 41.47 41.02 Z" />
<path fill="#b9b9b9" d=" M 42.98 19.43 C 44.15 19.34 45.32 19.25 46.49 19.15 C 47.76 19.91 49.02 20.70 50.23 21.56 C 48.67 21.46 47.10 21.35 45.53 21.22 C 43.90 24.40 44.25 27.97 44.66 31.39 C 43.05 27.57 44.17 23.33 42.98 19.43 Z" />
<path fill="#f5f5f5" d=" M 61.94 34.09 C 54.54 32.75 55.12 18.98 62.95 18.82 C 64.89 18.56 67.28 18.92 67.32 21.36 C 65.20 21.36 63.09 21.33 60.98 21.53 C 60.65 22.13 59.97 23.33 59.64 23.94 C 59.61 25.65 59.59 27.37 59.63 29.08 C 59.96 29.69 60.61 30.90 60.94 31.51 C 63.19 31.72 65.46 31.66 67.72 31.64 C 67.18 34.39 64.10 34.45 61.94 34.09 Z" />
<path fill="#fbfbfb" d=" M 70.57 18.49 C 71.22 18.74 72.53 19.25 73.18 19.50 C 73.27 24.17 73.27 28.85 73.17 33.51 C 72.52 33.77 71.22 34.27 70.57 34.53 C 70.48 29.18 70.48 23.83 70.57 18.49 Z" />
<path fill="#f6f6f6" d=" M 81.06 19.09 C 84.00 18.08 87.61 19.50 88.81 22.44 C 91.02 26.94 89.00 34.48 83.03 34.22 C 75.24 34.45 74.04 21.13 81.06 19.09 Z" />
<path fill="#fafafa" d=" M 93.58 18.59 C 94.38 18.88 96.00 19.48 96.80 19.77 L 96.79 21.21 C 96.78 21.33 96.75 21.58 96.73 21.70 C 96.03 25.64 96.36 29.65 96.20 33.63 C 95.55 33.84 94.24 34.27 93.59 34.49 C 93.51 29.19 93.54 23.89 93.58 18.59 Z" />
<path fill="#f6f6f6" d=" M 97.08 19.53 C 99.43 18.66 101.91 18.84 104.24 19.67 C 106.37 24.23 105.23 29.35 105.49 34.19 C 104.80 34.18 103.41 34.17 102.71 34.16 C 102.69 29.91 102.89 25.64 102.41 21.40 C 100.51 21.26 98.60 21.31 96.73 21.70 C 96.75 21.58 96.78 21.33 96.79 21.21 L 97.08 19.53 Z" />
<path fill="#b9b9b9" d=" M 385.40 18.86 C 386.31 29.55 385.50 40.30 385.73 51.02 C 386.09 53.23 384.83 54.99 383.40 56.51 L 382.88 56.24 C 377.80 53.12 371.60 54.98 366.00 54.56 C 360.39 54.95 354.24 53.19 349.12 56.20 L 348.82 56.32 C 348.08 55.54 347.33 54.76 346.59 53.98 C 346.47 50.27 346.48 46.55 346.49 42.83 C 349.50 42.06 352.51 41.28 355.50 40.42 C 358.07 43.57 360.56 46.85 363.83 49.33 C 364.95 48.07 366.12 46.83 367.22 45.54 C 369.85 44.72 371.79 42.66 374.18 41.39 C 377.64 40.57 381.23 40.88 384.76 40.79 C 384.89 38.85 385.03 36.91 385.14 34.97 C 385.27 32.08 385.27 29.19 385.26 26.30 C 385.26 23.82 385.33 21.34 385.40 18.86 Z" />
<path fill="#000000" d=" M 80.66 31.74 C 78.70 28.54 78.59 24.26 80.82 21.16 C 82.66 21.54 85.57 20.45 86.27 22.87 C 87.38 25.63 87.29 29.10 85.41 31.51 C 83.85 31.84 82.24 31.73 80.66 31.74 Z" />
<path fill="#000000" d=" M 44.66 31.39 C 44.25 27.97 43.90 24.40 45.53 21.22 C 47.10 21.35 48.67 21.46 50.23 21.56 C 51.80 24.79 51.34 28.38 50.28 31.69 C 48.40 31.68 46.52 31.65 44.66 31.39 Z" />
<path fill="#000000" d=" M 375.73 26.98 C 376.85 26.29 378.03 25.70 379.21 25.12 C 379.73 26.32 380.28 27.52 380.90 28.68 L 380.70 28.48 C 380.27 27.81 379.42 26.47 378.99 25.80 C 372.97 28.40 369.92 34.74 364.65 38.37 C 362.62 40.04 360.94 37.27 359.70 35.99 C 361.07 36.81 362.16 38.94 363.95 38.54 C 368.25 35.09 371.83 30.85 375.73 26.98 Z" />
<path fill="#d5d6d5" d=" M 346.50 26.31 C 356.23 27.05 366.03 25.84 375.73 26.98 C 371.83 30.85 368.25 35.09 363.95 38.54 C 362.16 38.94 361.07 36.81 359.70 35.99 C 359.56 35.82 359.28 35.49 359.14 35.32 C 358.35 33.38 356.24 33.16 354.53 33.95 C 351.85 34.16 349.18 34.31 346.50 34.43 C 346.50 31.72 346.48 29.01 346.50 26.31 Z" />
<path fill="#d4d5d4" d=" M 381.47 29.25 C 381.77 27.06 383.52 26.58 385.26 26.30 C 385.27 29.19 385.27 32.08 385.14 34.97 C 382.46 34.32 379.78 33.66 377.11 32.98 C 378.32 31.48 379.50 29.98 380.70 28.48 L 380.90 28.68 C 381.04 28.82 381.33 29.11 381.47 29.25 Z" />
<path fill="#02d208" d=" M 364.65 38.37 C 369.92 34.74 372.97 28.40 378.99 25.80 C 379.42 26.47 380.27 27.81 380.70 28.48 C 379.50 29.98 378.32 31.48 377.11 32.98 C 373.77 37.13 370.41 41.27 367.22 45.54 C 366.12 46.83 364.95 48.07 363.83 49.33 C 360.56 46.85 358.07 43.57 355.50 40.42 C 353.72 38.70 352.82 36.39 354.91 34.49 C 356.19 35.50 357.60 35.78 359.14 35.32 C 359.28 35.49 359.56 35.82 359.70 35.99 C 360.94 37.27 362.62 40.04 364.65 38.37 Z" />
<path fill="#000000" d=" M 354.53 33.95 C 356.24 33.16 358.35 33.38 359.14 35.32 C 357.60 35.78 356.19 35.50 354.91 34.49 L 354.53 33.95 Z" />
<path fill="#c7c7c7" d=" M 367.22 45.54 C 370.41 41.27 373.77 37.13 377.11 32.98 C 379.78 33.66 382.46 34.32 385.14 34.97 C 385.03 36.91 384.89 38.85 384.76 40.79 C 381.23 40.88 377.64 40.57 374.18 41.39 C 371.79 42.66 369.85 44.72 367.22 45.54 Z" />
<path fill="#c6c6c6" d=" M 346.50 34.43 C 349.18 34.31 351.85 34.16 354.53 33.95 L 354.91 34.49 C 352.82 36.39 353.72 38.70 355.50 40.42 C 352.51 41.28 349.50 42.06 346.49 42.83 C 346.50 40.03 346.49 37.23 346.50 34.43 Z" />
<path fill="#aeb1ae" d=" M 20.41 47.75 C 22.72 47.91 25.20 47.66 27.35 48.69 C 30.57 51.40 30.74 56.96 27.96 60.05 C 25.98 62.05 22.95 61.38 20.42 61.60 C 20.39 56.98 20.39 52.37 20.41 47.75 Z" />
<path fill="#9b9d9b" d=" M 64.38 48.05 C 65.44 46.38 67.64 48.51 66.50 49.86 C 65.44 51.55 63.29 49.39 64.38 48.05 Z" />
<path fill="#9b9d9b" d=" M 87.46 48.05 C 88.55 46.38 90.70 48.54 89.55 49.88 C 88.47 51.57 86.33 49.37 87.46 48.05 Z" />
<path fill="#a9a9a9" d=" M 94.79 48.70 C 95.94 48.45 97.09 48.22 98.25 48.01 C 97.19 48.80 96.10 49.55 94.97 50.25 C 96.80 51.49 99.49 52.48 99.69 55.08 C 100.58 58.27 98.20 62.60 94.46 61.45 C 90.00 59.85 90.38 52.52 94.81 50.92 C 94.80 50.37 94.79 49.26 94.79 48.70 Z" />
<path fill="#9b9d9b" d=" M 145.46 48.13 C 146.43 46.39 148.71 48.42 147.66 49.83 C 146.71 51.59 144.42 49.52 145.46 48.13 Z" />
<path fill="#9b9d9b" d=" M 153.44 48.46 C 156.26 45.36 156.10 51.74 153.24 50.05 C 153.29 49.65 153.39 48.85 153.44 48.46 Z" />
<path fill="#9b9d9b" d=" M 174.61 51.66 C 175.56 49.79 176.99 48.03 179.19 47.66 C 179.81 52.27 179.31 56.95 179.43 61.59 C 178.99 61.55 178.13 61.47 177.69 61.43 C 177.69 57.76 177.67 54.09 177.74 50.42 C 176.96 50.73 175.39 51.35 174.61 51.66 Z" />
<path fill="#000000" d=" M 22.14 49.18 C 23.86 49.58 26.18 49.12 27.17 50.97 C 28.48 53.12 28.35 56.01 27.29 58.24 C 26.24 60.09 23.90 59.70 22.13 60.07 C 22.07 56.44 22.06 52.81 22.14 49.18 Z" />
<path fill="#a1a2a1" d=" M 41.79 51.53 C 43.81 51.27 46.07 50.87 47.61 52.58 C 45.67 52.81 43.69 52.95 41.88 53.74 C 43.72 55.12 46.06 55.98 47.42 57.91 C 48.00 61.92 42.10 62.88 40.19 59.98 C 42.04 59.82 43.91 59.83 45.75 59.56 C 45.99 57.35 43.32 56.93 41.90 55.96 C 41.60 55.48 40.99 54.53 40.68 54.05 C 40.96 53.42 41.51 52.16 41.79 51.53 Z" />
<path fill="#a3a7a3" d=" M 49.81 60.19 C 47.22 57.35 48.56 51.02 53.01 51.20 C 53.80 51.52 55.83 51.02 55.48 52.46 C 54.06 52.80 52.62 53.04 51.21 53.39 C 50.13 54.64 50.29 56.49 50.48 58.01 C 50.82 60.67 54.13 59.49 55.89 60.19 C 54.34 61.96 51.29 62.15 49.81 60.19 Z" />
<path fill="#adaead" d=" M 57.70 51.42 C 59.65 51.60 61.79 51.06 63.55 52.13 C 62.24 52.67 60.92 53.19 59.60 53.70 C 59.49 56.31 59.44 58.93 59.42 61.55 C 59.00 61.53 58.17 61.50 57.76 61.48 C 57.77 58.13 57.77 54.77 57.70 51.42 Z" />
<path fill="#a1a2a1" d=" M 64.57 51.22 C 65.02 51.24 65.91 51.28 66.36 51.30 C 66.36 54.68 66.36 58.07 66.36 61.46 C 65.91 61.49 65.02 61.54 64.57 61.57 C 64.55 58.12 64.55 54.67 64.57 51.22 Z" />
<path fill="#adaead" d=" M 68.77 51.40 C 71.39 51.69 75.16 50.29 76.42 53.49 C 77.16 56.13 77.22 59.79 74.53 61.39 C 73.07 61.95 71.76 60.86 70.47 60.39 C 70.50 62.21 70.51 64.03 70.51 65.85 C 70.09 65.81 69.23 65.74 68.81 65.71 C 68.82 60.94 68.85 56.17 68.77 51.40 Z" />
<path fill="#a9a9a9" d=" M 80.10 52.14 C 81.74 50.68 84.21 51.11 85.80 52.39 C 84.17 53.17 81.14 52.15 80.53 54.39 C 79.82 56.18 80.53 58.06 81.01 59.81 C 82.48 59.82 83.97 59.85 85.45 59.90 C 84.78 61.92 82.56 61.75 80.92 61.27 C 77.90 59.39 77.61 54.55 80.10 52.14 Z" />
<path fill="#a1a0a1" d=" M 87.74 50.71 C 88.12 50.98 88.88 51.53 89.27 51.81 C 89.57 55.04 89.37 58.30 89.37 61.54 L 87.61 61.50 C 87.60 57.90 87.54 54.30 87.74 50.71 Z" />
<path fill="#8a8b8a" d=" M 101.86 51.39 C 104.19 51.67 106.98 50.46 108.99 52.02 C 110.75 54.92 109.74 58.57 109.83 61.78 C 109.34 61.66 108.36 61.42 107.87 61.29 C 107.88 58.53 108.10 55.73 107.52 53.01 C 102.35 51.11 104.49 58.38 103.82 61.22 C 103.33 61.35 102.36 61.62 101.88 61.75 C 101.84 58.30 101.86 54.85 101.86 51.39 Z" />
<path fill="#b0b1b0" d=" M 119.36 51.36 C 124.16 50.19 126.19 57.25 123.27 60.21 C 121.78 62.15 118.34 62.01 117.09 59.86 C 115.31 57.20 115.80 52.21 119.36 51.36 Z" />
<path fill="#a9a9a9" d=" M 126.78 51.39 C 129.22 51.76 132.67 50.29 134.16 52.95 C 135.41 55.52 135.25 59.10 133.08 61.16 C 131.55 62.06 129.92 61.05 128.50 60.47 C 128.53 62.26 128.56 64.05 128.57 65.84 C 128.13 65.81 127.25 65.75 126.81 65.72 C 126.83 60.94 126.85 56.17 126.78 51.39 Z" />
<path fill="#a9a9a9" d=" M 136.52 56.02 C 136.11 52.08 140.98 49.68 143.85 52.36 C 142.21 53.17 139.15 52.17 138.54 54.43 C 137.92 56.19 138.57 58.01 138.95 59.74 C 140.46 59.80 141.97 59.88 143.48 59.97 C 141.21 64.01 135.40 59.84 136.52 56.02 Z" />
<path fill="#a9a8a9" d=" M 145.66 51.29 C 146.10 51.28 146.97 51.25 147.40 51.24 C 147.41 54.67 147.41 58.11 147.40 61.54 C 146.97 61.53 146.10 61.49 145.67 61.47 C 145.67 58.08 145.67 54.68 145.66 51.29 Z" />
<path fill="#aeb1ae" d=" M 152.40 51.39 C 157.45 49.97 159.42 57.25 156.52 60.38 C 155.42 61.83 153.53 61.58 151.96 61.35 C 148.44 59.27 148.32 52.79 152.40 51.39 Z" />
<path fill="#838383" d=" M 159.85 51.43 C 162.43 51.68 166.48 49.89 167.70 53.17 C 168.43 55.98 167.97 58.93 167.89 61.79 C 167.39 61.67 166.38 61.42 165.87 61.29 C 165.89 58.54 166.07 55.75 165.57 53.03 L 164.08 52.57 C 163.64 52.77 162.77 53.17 162.33 53.37 C 161.90 56.07 162.07 58.82 162.05 61.54 C 161.51 61.52 160.41 61.47 159.86 61.45 C 159.87 58.11 159.86 54.77 159.85 51.43 Z" />
<path fill="#aeb1ae" d=" M 33.39 60.64 C 30.03 58.07 31.23 51.34 35.90 51.12 C 35.22 52.10 34.51 53.06 33.75 53.98 C 33.62 54.18 33.37 54.58 33.24 54.77 C 34.64 54.80 36.04 54.82 37.44 54.85 L 37.42 53.21 L 35.21 53.08 C 36.00 52.48 36.79 51.88 37.57 51.28 C 38.53 52.85 39.15 54.57 39.65 56.33 C 37.41 56.39 35.17 56.44 32.92 56.51 C 33.26 57.30 33.95 58.88 34.29 59.67 C 35.80 59.80 37.32 59.84 38.84 59.78 C 38.73 60.21 38.52 61.08 38.41 61.52 C 36.75 61.30 34.72 61.92 33.39 60.64 Z" />
<path fill="#000000" d=" M 70.61 59.52 C 70.56 56.87 69.75 51.14 74.19 52.63 C 75.59 54.68 75.38 57.40 74.49 59.60 C 73.22 59.98 71.89 59.61 70.61 59.52 Z" />
<path fill="#000000" d=" M 94.11 53.18 C 98.12 50.64 99.37 57.89 96.82 59.78 C 92.79 61.39 91.97 55.22 94.11 53.18 Z" />
<path fill="#000000" d=" M 118.72 52.52 C 123.30 51.76 123.39 56.81 122.18 59.90 C 120.92 59.84 119.66 59.78 118.41 59.73 C 117.66 57.32 117.77 54.85 118.72 52.52 Z" />
<path fill="#000000" d=" M 132.62 59.90 C 127.17 61.93 127.02 50.82 132.20 52.65 C 133.84 54.77 132.98 57.51 132.62 59.90 Z" />
<path fill="#000000" d=" M 151.79 52.62 C 156.54 51.19 157.73 58.59 154.09 60.28 C 150.04 60.19 151.04 55.22 151.79 52.62 Z" />
<path fill="#d0d0d0" d=" M 349.12 56.20 C 354.24 53.19 360.39 54.95 366.00 54.56 C 371.60 54.98 377.80 53.12 382.88 56.24 C 371.63 56.47 360.36 56.55 349.12 56.20 Z" />
<path fill="#222322" d=" M 0.00 76.86 C 131.34 76.84 262.67 76.87 394.01 76.85 C 399.19 76.80 404.39 76.63 409.54 77.37 C 404.74 78.29 399.83 78.06 394.97 78.00 C 263.31 78.00 131.66 78.00 0.00 78.00 L 0.00 76.86 Z" />
<path fill="#f1f1f1" d=" M 70.41 95.66 C 71.34 95.70 72.27 95.73 73.20 95.76 C 73.24 96.72 73.27 97.69 73.31 98.65 C 70.92 99.32 70.04 97.83 70.41 95.66 Z" />
<path fill="#f7f7f7" d=" M 83.80 95.21 C 84.90 95.31 86.00 95.39 87.10 95.46 C 85.45 97.30 83.91 99.71 81.16 99.80 C 82.03 98.26 82.89 96.73 83.80 95.21 Z" />
<path fill="#f7f7f7" d=" M 21.66 100.38 C 22.62 98.70 24.29 97.63 25.84 96.57 C 27.95 96.54 30.06 96.55 32.17 96.57 C 34.49 98.05 36.38 100.12 37.41 102.70 C 37.55 105.49 37.54 108.29 37.36 111.09 C 35.83 114.36 32.95 117.45 29.00 117.02 C 25.03 117.46 22.04 114.52 20.59 111.14 C 20.49 107.56 19.73 103.63 21.66 100.38 Z" />
<path fill="#fafafa" d=" M 116.61 100.63 C 115.42 98.57 117.36 97.46 118.85 96.53 C 121.79 96.35 125.96 96.27 126.86 99.83 C 128.52 106.10 122.32 110.25 118.82 114.48 C 121.83 114.60 124.84 114.59 127.85 114.56 C 127.88 115.17 127.94 116.39 127.96 117.00 C 123.71 116.97 119.46 117.06 115.21 116.92 C 116.70 110.33 126.16 107.43 124.51 99.72 C 121.85 98.01 119.03 99.04 116.61 100.63 Z" />
<path fill="#000000" d=" M 23.94 102.08 C 25.41 97.75 32.50 97.68 34.03 101.98 C 35.31 105.50 35.45 110.00 33.02 113.06 C 31.55 115.15 28.77 114.38 26.61 114.60 C 22.65 111.80 22.56 106.28 23.94 102.08 Z" />
<path fill="#eeedee" d=" M 347.30 100.74 C 351.42 99.52 355.74 100.00 359.97 99.93 C 367.33 100.02 374.71 99.75 382.07 100.05 C 384.72 100.10 385.86 102.93 385.81 105.22 C 379.08 104.92 372.36 104.55 365.62 104.66 C 359.79 104.16 353.97 105.66 348.18 104.55 C 348.01 103.78 347.67 102.24 347.50 101.47 L 347.30 100.74 Z" />
<path fill="#f3f4f3" d=" M 58.91 102.80 C 61.19 101.72 63.68 101.48 66.18 101.66 C 66.58 102.05 67.37 102.81 67.77 103.20 C 65.97 105.19 63.06 103.31 60.96 104.66 C 59.00 106.61 59.69 109.49 59.66 111.97 C 60.00 112.58 60.68 113.79 61.02 114.40 C 63.11 114.56 65.21 114.51 67.31 114.41 C 67.30 114.92 67.27 115.94 67.26 116.45 C 64.42 117.03 60.92 117.63 58.71 115.23 C 55.83 111.67 56.45 106.42 58.91 102.80 Z" />
<path fill="#fbfbfb" d=" M 70.51 101.70 C 71.07 101.65 72.19 101.54 72.76 101.49 C 73.66 106.56 73.03 111.73 73.25 116.84 C 72.56 116.89 71.18 116.98 70.49 117.03 C 70.53 111.92 70.51 106.81 70.51 101.70 Z" />
<path fill="#f9f9f9" d=" M 41.60 101.22 C 42.27 101.64 43.62 102.49 44.29 102.91 C 45.14 102.53 45.97 102.12 46.79 101.68 C 47.66 101.66 49.41 101.61 50.28 101.59 C 52.90 103.22 53.77 106.16 54.25 109.02 C 53.68 111.37 53.68 114.10 51.68 115.79 C 49.60 117.79 46.29 117.05 44.15 115.53 C 44.21 118.17 44.32 120.81 44.12 123.45 C 43.48 123.63 42.21 123.98 41.57 124.16 C 41.46 116.51 41.41 108.86 41.60 101.22 Z" />
<path fill="#fafafa" d=" M 78.83 102.84 C 79.37 102.55 80.45 101.95 80.99 101.66 C 84.44 100.99 88.07 102.57 89.20 106.06 C 89.75 108.96 89.95 112.39 87.97 114.83 C 85.45 117.99 79.71 117.72 77.71 114.13 C 75.74 110.56 76.26 105.97 78.83 102.84 Z" />
<path fill="#f1f1f1" d=" M 93.54 101.46 C 95.26 102.43 97.06 102.86 98.89 101.96 C 101.61 100.67 104.99 102.42 105.36 105.41 C 105.71 109.25 105.42 113.12 105.54 116.98 C 104.83 116.97 103.40 116.96 102.69 116.96 C 102.72 112.83 102.80 108.69 102.53 104.57 C 100.64 103.50 97.92 103.35 96.70 105.47 C 95.85 109.18 96.40 113.06 96.30 116.84 C 95.61 116.89 94.23 117.01 93.53 117.07 C 93.53 111.87 93.52 106.66 93.54 101.46 Z" />
<path fill="#e3e4e3" d=" M 346.50 110.77 C 346.75 107.69 345.71 104.22 347.50 101.47 C 347.67 102.24 348.01 103.78 348.18 104.55 C 353.97 105.66 359.79 104.16 365.62 104.66 C 372.36 104.55 379.08 104.92 385.81 105.22 C 385.68 107.80 385.68 110.38 385.70 112.96 C 383.57 113.45 381.45 113.94 379.34 114.51 C 380.03 112.47 380.68 110.42 381.20 108.33 C 378.46 107.74 375.87 108.53 374.07 110.69 C 364.88 110.54 355.70 110.21 346.50 110.77 Z" />
<path fill="#000000" d=" M 79.70 105.61 C 80.49 103.98 82.44 103.82 84.01 103.55 C 84.56 103.92 85.66 104.66 86.21 105.03 C 87.28 108.20 87.24 111.72 85.38 114.60 C 83.83 114.61 82.28 114.61 80.73 114.58 C 78.99 111.94 78.79 108.58 79.70 105.61 Z" />
<path fill="#000000" d=" M 44.41 112.95 C 44.45 109.85 42.92 105.02 46.83 103.67 C 48.05 103.84 49.24 104.12 50.42 104.51 C 51.64 107.75 51.48 111.23 50.18 114.42 C 48.75 114.52 47.31 114.60 45.88 114.65 C 45.51 114.23 44.77 113.38 44.41 112.95 Z" />
<path fill="#b9b8b9" d=" M 374.07 110.69 C 375.87 108.53 378.46 107.74 381.20 108.33 C 377.93 110.01 374.94 112.23 372.89 115.33 C 373.65 115.65 375.18 116.30 375.95 116.62 C 373.79 119.76 371.70 122.95 369.81 126.25 C 372.45 124.17 374.75 121.63 377.66 119.90 C 380.40 119.73 383.06 120.68 385.74 121.17 C 385.70 126.59 385.94 132.02 385.44 137.43 L 384.96 137.34 C 379.66 136.46 374.32 137.84 369.00 137.34 C 361.75 136.80 354.45 136.61 347.22 137.50 L 346.64 137.55 C 346.46 133.60 346.47 129.63 346.50 125.67 C 349.48 125.38 352.48 125.12 355.47 124.88 C 354.42 122.57 353.41 120.24 352.43 117.89 C 353.06 117.67 354.33 117.21 354.96 116.98 C 358.03 117.98 360.27 120.31 362.76 122.21 C 363.65 122.98 364.63 121.97 365.35 121.48 C 367.58 119.65 369.13 117.19 370.80 114.88 C 371.87 113.47 372.92 112.05 374.07 110.69 Z" />
<path fill="#d6d6d6" d=" M 346.50 110.77 C 355.70 110.21 364.88 110.54 374.07 110.69 C 372.92 112.05 371.87 113.47 370.80 114.88 C 368.46 117.39 365.83 119.62 363.20 121.81 C 361.16 119.95 359.12 118.10 357.08 116.25 C 356.55 116.43 355.49 116.80 354.96 116.98 C 354.33 117.21 353.06 117.67 352.43 117.89 C 350.45 117.20 348.48 116.51 346.49 115.84 C 346.50 114.15 346.49 112.46 346.50 110.77 Z" />
<path fill="#cccecc" d=" M 381.20 108.33 C 380.68 110.42 380.03 112.47 379.34 114.51 C 381.45 113.94 383.57 113.45 385.70 112.96 C 385.73 115.70 385.71 118.44 385.74 121.17 C 383.06 120.68 380.40 119.73 377.66 119.90 C 374.75 121.63 372.45 124.17 369.81 126.25 C 371.70 122.95 373.79 119.76 375.95 116.62 C 375.18 116.30 373.65 115.65 372.89 115.33 C 374.94 112.23 377.93 110.01 381.20 108.33 Z" />
<path fill="#888888" d=" M 370.80 114.88 C 369.13 117.19 367.58 119.65 365.35 121.48 C 364.63 121.97 363.65 122.98 362.76 122.21 C 360.27 120.31 358.03 117.98 354.96 116.98 C 355.49 116.80 356.55 116.43 357.08 116.25 C 359.12 118.10 361.16 119.95 363.20 121.81 C 365.83 119.62 368.46 117.39 370.80 114.88 Z" />
<path fill="#c5c5c5" d=" M 346.49 115.84 C 348.48 116.51 350.45 117.20 352.43 117.89 C 353.41 120.24 354.42 122.57 355.47 124.88 C 352.48 125.12 349.48 125.38 346.50 125.67 C 346.50 122.39 346.48 119.12 346.49 115.84 Z" />
<path fill="#9b9d9b" d=" M 64.48 130.56 C 64.97 130.57 65.97 130.57 66.46 130.57 C 67.39 131.54 66.62 133.81 65.11 133.38 C 64.02 132.64 63.81 131.71 64.48 130.56 Z" />
<path fill="#9b9d9b" d=" M 87.49 130.59 C 87.99 130.58 88.98 130.57 89.48 130.56 C 90.17 131.69 89.99 132.64 88.91 133.39 C 87.41 133.80 86.60 131.59 87.49 130.59 Z" />
<path fill="#9b9d9b" d=" M 94.85 133.06 C 93.89 131.57 96.22 129.55 97.63 130.45 C 98.53 131.88 96.24 133.96 94.85 133.06 Z" />
<path fill="#9d9f9d" d=" M 145.56 130.60 C 146.03 130.59 146.99 130.57 147.47 130.56 C 149.15 132.16 145.82 134.43 145.25 131.98 C 145.32 131.64 145.48 130.95 145.56 130.60 Z" />
<path fill="#9b9d9b" d=" M 152.85 133.06 C 151.95 131.57 154.27 129.54 155.67 130.48 C 156.53 131.93 154.24 134.01 152.85 133.06 Z" />
<path fill="#aeb1ae" d=" M 20.41 130.54 C 23.05 130.52 25.69 130.78 28.17 131.73 C 30.34 135.30 30.34 139.75 28.06 143.27 C 25.59 144.06 23.01 144.44 20.42 144.44 C 20.39 139.80 20.39 135.17 20.41 130.54 Z" />
<path fill="#a3a7a3" d=" M 174.25 131.62 C 176.58 130.71 180.18 129.59 181.32 132.73 C 182.50 136.83 178.32 139.69 176.30 142.65 C 178.13 142.66 179.96 142.67 181.79 142.67 C 181.80 143.09 181.80 143.92 181.81 144.34 C 179.21 144.35 176.61 144.44 174.02 144.28 C 174.66 139.77 181.26 137.48 179.64 132.21 C 177.99 132.37 176.35 132.62 174.72 132.93 L 174.25 131.62 Z" />
<path fill="#000000" d=" M 22.13 132.06 C 23.85 132.45 26.21 131.90 27.21 133.75 C 28.61 136.37 28.55 140.23 26.12 142.25 C 24.83 142.63 23.47 142.72 22.15 142.93 C 22.06 139.31 22.07 135.68 22.13 132.06 Z" />
<path fill="#a3a7a3" d=" M 32.61 135.49 C 33.93 133.51 36.43 134.24 38.35 134.60 C 38.76 136.12 39.17 137.63 39.57 139.15 C 37.36 139.19 35.16 139.23 32.95 139.31 C 33.60 140.37 33.55 142.10 34.90 142.57 C 36.28 142.64 37.65 142.64 39.03 142.60 C 38.85 143.01 38.48 143.82 38.30 144.23 C 37.00 144.29 35.70 144.35 34.40 144.41 C 31.51 142.44 30.46 138.41 32.61 135.49 Z" />
<path fill="#9d9f9d" d=" M 40.80 136.09 C 41.90 133.41 45.92 133.30 47.54 135.54 C 45.66 135.68 43.71 135.63 42.03 136.64 C 43.50 137.71 45.06 138.66 46.55 139.71 C 47.03 139.91 48.00 140.30 48.49 140.50 C 48.56 138.52 49.08 136.63 49.70 134.77 C 51.61 134.27 53.63 133.60 55.52 134.59 C 55.79 136.57 52.67 135.21 51.59 135.74 C 50.12 137.72 50.39 140.14 50.75 142.43 C 52.17 142.51 53.58 142.59 55.00 142.66 C 54.91 143.13 54.72 144.06 54.63 144.52 C 52.39 144.42 49.85 144.19 49.08 141.62 C 46.96 143.59 44.36 144.81 41.40 144.41 C 41.24 143.95 40.93 143.04 40.78 142.58 C 42.59 142.37 45.12 143.36 46.14 141.19 C 44.21 139.73 40.70 139.12 40.80 136.09 Z" />
<path fill="#aeaeae" d=" M 57.77 144.22 C 57.74 140.87 57.77 137.52 57.79 134.17 C 59.68 134.61 61.62 134.32 63.53 134.25 C 62.32 135.23 60.96 135.99 59.73 136.94 C 59.30 139.40 59.45 141.92 59.41 144.41 C 59.00 144.36 58.18 144.27 57.77 144.22 Z" />
<path fill="#a2a2a2" d=" M 64.55 134.08 C 65.01 134.09 65.91 134.10 66.37 134.11 C 66.38 137.51 66.35 140.91 66.31 144.30 C 65.88 144.32 65.02 144.34 64.58 144.36 C 64.56 140.93 64.56 137.50 64.55 134.08 Z" />
<path fill="#adaead" d=" M 68.80 134.20 C 71.39 134.60 75.29 133.11 76.44 136.38 C 77.78 139.48 76.29 146.02 71.80 143.93 L 71.13 142.90 C 71.99 142.82 73.72 142.67 74.58 142.60 C 75.23 140.16 75.24 137.64 74.37 135.25 C 73.46 135.38 71.62 135.62 70.71 135.75 C 70.60 137.92 70.62 140.10 70.84 142.27 C 70.66 144.37 70.50 146.47 70.41 148.59 L 68.82 148.57 C 68.81 143.78 68.83 138.99 68.80 134.20 Z" />
<path fill="#adaead" d=" M 79.04 141.99 C 77.00 138.43 79.86 132.49 84.43 134.32 C 84.68 134.66 85.18 135.35 85.43 135.69 C 84.44 135.65 82.47 135.55 81.48 135.51 C 79.93 137.66 80.05 140.28 81.03 142.64 C 82.54 142.67 84.05 142.71 85.57 142.77 C 84.08 145.41 80.10 144.52 79.04 141.99 Z" />
<path fill="#a5a5a5" d=" M 87.59 134.12 C 88.04 134.11 88.94 134.08 89.39 134.07 C 89.39 137.48 89.39 140.90 89.37 144.31 C 88.93 144.31 88.06 144.30 87.62 144.29 C 87.62 140.90 87.61 137.51 87.59 134.12 Z" />
<path fill="#a9a9a9" d=" M 93.43 134.59 C 95.27 133.51 97.95 134.04 98.98 135.98 C 100.66 138.80 99.90 143.77 96.13 144.34 C 91.07 144.92 89.62 137.01 93.43 134.59 Z" />
<path fill="#888888" d=" M 101.86 144.17 C 101.85 140.84 101.85 137.52 101.87 134.20 C 104.48 134.65 108.41 132.75 109.64 136.00 C 110.25 138.83 109.98 141.75 109.95 144.61 C 105.14 144.05 110.49 136.40 106.00 135.27 C 102.51 136.73 104.55 141.58 103.78 144.57 C 103.30 144.47 102.34 144.27 101.86 144.17 Z" />
<path fill="#aeb1ae" d=" M 117.62 134.50 C 119.00 134.40 120.40 133.99 121.78 134.31 C 126.32 136.12 125.20 144.88 119.85 144.33 C 115.28 143.43 115.50 137.61 117.62 134.50 Z" />
<path fill="#a9a9a9" d=" M 126.81 134.20 C 129.25 134.66 132.74 133.13 134.22 135.81 C 136.09 139.33 134.47 146.14 129.10 144.15 C 130.22 143.32 131.46 142.70 132.69 142.06 C 133.40 139.56 133.86 134.36 129.79 135.36 C 128.14 136.89 128.79 139.22 128.80 141.20 C 128.93 143.68 128.57 146.14 128.47 148.60 L 126.83 148.56 C 126.82 143.77 126.84 138.98 126.81 134.20 Z" />
<path fill="#a9a9a9" d=" M 137.56 135.53 C 138.94 133.75 142.52 133.19 143.49 135.68 C 142.49 135.65 140.49 135.58 139.49 135.55 C 138.00 137.69 138.10 140.29 139.07 142.62 C 140.58 142.66 142.09 142.70 143.60 142.77 C 142.44 144.95 139.36 144.81 137.87 143.14 C 136.02 141.11 136.10 137.76 137.56 135.53 Z" />
<path fill="#a9a9a9" d=" M 145.64 134.13 C 146.09 134.12 146.98 134.10 147.43 134.09 C 147.41 137.50 147.41 140.91 147.40 144.33 C 146.97 144.31 146.11 144.29 145.68 144.28 C 145.67 140.90 145.67 137.52 145.64 134.13 Z" />
<path fill="#aeb1ae" d=" M 151.40 134.66 C 153.20 133.57 156.00 133.99 156.99 135.99 C 158.72 138.82 157.87 143.96 154.00 144.32 C 149.11 144.71 147.75 137.11 151.40 134.66 Z" />
<path fill="#a5a5a5" d=" M 160.16 134.25 C 162.56 134.32 164.96 134.29 167.35 134.56 C 167.71 138.08 168.57 141.88 166.94 145.22 C 165.56 142.04 167.03 138.31 165.23 135.31 C 159.51 134.70 163.53 142.52 160.80 144.68 C 159.59 141.39 160.46 137.70 160.16 134.25 Z" />
<path fill="#000000" d=" M 33.68 136.88 C 33.98 135.26 36.89 135.20 37.29 136.79 C 36.93 138.28 34.13 138.32 33.68 136.88 Z" />
<path fill="#000000" d=" M 94.02 135.92 C 94.84 135.79 96.47 135.54 97.29 135.42 C 98.06 137.79 98.08 140.27 97.44 142.68 C 96.48 142.66 94.57 142.61 93.61 142.59 C 93.32 140.41 92.43 137.82 94.02 135.92 Z" />
<path fill="#000000" d=" M 118.63 135.58 C 119.55 135.61 121.39 135.67 122.32 135.70 C 122.88 138.03 122.91 140.43 122.14 142.72 C 120.93 142.69 119.73 142.67 118.52 142.66 C 117.73 140.31 117.70 137.89 118.63 135.58 Z" />
<path fill="#000000" d=" M 152.01 135.86 C 152.85 135.75 154.52 135.54 155.36 135.43 C 156.10 137.80 156.12 140.26 155.52 142.67 C 154.20 142.63 152.87 142.59 151.55 142.54 C 151.28 140.33 150.53 137.82 152.01 135.86 Z" />
<path fill="#d4d5d4" d=" M 347.22 137.50 C 354.45 136.61 361.75 136.80 369.00 137.34 C 374.32 137.84 379.66 136.46 384.96 137.34 C 383.35 139.73 380.46 139.13 378.02 139.20 C 369.00 139.13 359.99 139.24 350.97 139.17 C 349.47 139.39 348.34 138.26 347.22 137.50 Z" />
<path fill="#838383" d=" M 0.00 160.48 C 136.39 160.33 272.78 160.40 409.16 160.45 C 399.13 160.83 389.10 160.50 379.07 160.58 C 252.71 160.67 126.36 160.48 0.00 160.67 L 0.00 160.48 Z" />
</svg>
