<?xml version="1.0" encoding="utf-8"?>
<!-- Generator: Adobe Illustrator 16.0.0, SVG Export Plug-In . SVG Version: 6.00 Build 0)  -->
<!DOCTYPE svg PUBLIC "-//W3C//DTD SVG 1.1//EN" "http://www.w3.org/Graphics/SVG/1.1/DTD/svg11.dtd">
<svg version="1.1" id="Capa_1" xmlns="http://www.w3.org/2000/svg" xmlns:xlink="http://www.w3.org/1999/xlink" x="0px" y="0px"
	 width="419.645px" height="387.445px" viewBox="0 0 419.645 387.445" enable-background="new 0 0 419.645 387.445"
	 xml:space="preserve">
<g id="Capa_2" display="none">
	<rect x="-55.88" y="-51.325" display="inline" fill="#CC0000" width="512.163" height="479.73"/>
</g>
<g id="Layer_1" display="none">
	<path display="inline" fill="#282828" d="M419.644,300.753c0,12.524-4.483,17.012-17.011,17.012h-43.471
		c-12.522,0-17.01-4.484-17.01-17.012v-86.938c0-12.526,4.483-17.01,17.01-17.01h43.471c12.525,0,17.011,4.48,17.011,17.01V300.753z
		"/>
	<circle display="inline" fill="#282828" cx="94.643" cy="60.532" r="60.532"/>
	<circle display="inline" fill="#282828" cx="249.921" cy="60.532" r="60.532"/>
	<g display="inline">
		<path fill="#282828" d="M306.123,127.118H29.404C13.166,127.118,0,140.284,0,156.521v201.521c0,16.24,13.166,29.403,29.404,29.403
			h276.719c16.236,0,29.402-13.163,29.402-29.403V156.521C335.525,140.284,322.359,127.118,306.123,127.118z M131.044,235.438
			c-2.347,0-4.115,0.354-5.303,1.067c-1.188,0.714-2.062,2.063-2.62,4.047l-13.457,48.125H86.901L78.81,259.08l-8.468,29.598H47.831
			L33.2,235.438h-6.037l0.042-14.799H63.3v14.799h-5.911l6.665,25.067l10.899-39.866h17.146l10.606,38.566l5.659-20.876
			c0.335-1.229,0.168-2.02-0.503-2.369c-0.671-0.349-2.041-0.522-4.108-0.522V220.64h27.291V235.438z M193.213,248.224h-11.78
			l-2.599-12.785h-4.444v38.146h6.875v15.093h-37.352v-15.093h6.875v-38.146h-4.192l-2.683,12.785h-11.78v-27.542h61.079
			L193.213,248.224L193.213,248.224z M252.488,248.476h-11.905l-2.683-13.037h-8.553v11.359h8.469v14.925h-8.469v11.904h6.457
			v15.051h-36.766v-15.051h6.624v-38.188h-6.624V220.64h53.449V248.476L252.488,248.476z M284.957,286.979
			c-2.307,1.887-5.163,2.83-8.572,2.83c-3.326,0-6.093-0.943-8.301-2.83c-2.208-1.886-3.313-4.437-3.313-7.65
			c0-3.157,1.084-5.659,3.25-7.504c2.164-1.844,4.953-2.767,8.362-2.767c3.55,0,6.441,0.923,8.679,2.767
			c2.234,1.845,3.354,4.347,3.354,7.504C288.416,282.544,287.262,285.094,284.957,286.979z M306.128,240.762
			c-0.546,1.704-1.237,3.207-2.075,4.507c-0.839,1.3-1.922,2.551-3.249,3.752c-1.328,1.202-2.628,2.222-3.897,3.061
			c-1.272,0.838-2.768,1.67-4.486,2.494c-1.718,0.824-3.229,1.495-4.527,2.012c-1.299,0.519-2.802,1.069-4.506,1.656v7.839H268.84
			l0.042-14.756c11.067-5.002,16.601-10.005,16.601-15.008c0-0.446-0.049-0.929-0.146-1.446c-0.099-0.517-0.267-1.109-0.503-1.78
			c-0.238-0.672-0.65-1.224-1.236-1.656c-0.588-0.434-1.301-0.649-2.139-0.649c-3.354,0-5.171,2.265-5.45,6.791h-19.788
			c0.391-6.314,2.954-11.514,7.691-15.595c4.736-4.08,10.695-6.12,17.879-6.12c4.723,0,9.006,0.838,12.85,2.515
			c3.843,1.678,6.854,4.004,9.033,6.98c2.181,2.976,3.271,6.309,3.271,9.998C306.945,237.255,306.673,239.058,306.128,240.762z"/>
	</g>
</g>
<g>
	<polygon fill="#FFFFFF" points="4.043,167.981 119.111,236.175 120.61,270.539 120.252,306.144 4.043,373.097 	"/>
	<g>
		<path fill="#FFFFFF" d="M364.587,167.738H138.928c-13.243,0-23.979,10.737-23.979,23.978v164.336
			c0,13.243,10.736,23.978,23.979,23.978h225.659c13.241,0,23.977-10.734,23.977-23.978V191.716
			C388.563,178.475,377.828,167.738,364.587,167.738z M221.813,256.07c-1.914,0-3.355,0.289-4.325,0.869
			c-0.968,0.584-1.681,1.683-2.137,3.303l-10.973,39.246h-18.561l-6.599-24.138l-6.907,24.138h-18.356l-11.931-43.418H137.1
			l0.036-12.066h29.435v12.066h-4.823l5.438,20.442l8.886-32.509h13.984l8.647,31.449l4.616-17.025c0.273-1,0.137-1.646-0.411-1.93
			c-0.549-0.284-1.665-0.428-3.351-0.428v-12.066h22.255V256.07z M272.51,266.496h-9.604l-2.119-10.424h-3.626v31.107h5.607v12.309
			h-30.46v-12.309h5.606v-31.107h-3.416l-2.19,10.424h-9.605v-22.458h49.808V266.496L272.51,266.496z M320.851,266.702h-9.711
			l-2.188-10.63h-6.975v9.263h6.906v12.171h-6.906v9.707h5.267v12.275h-29.982v-12.275h5.402v-31.141h-5.402v-12.068h43.59V266.702
			L320.851,266.702z M347.326,298.1c-1.882,1.539-4.212,2.308-6.991,2.308c-2.712,0-4.968-0.769-6.768-2.308
			c-1.804-1.535-2.702-3.618-2.702-6.238c0-2.575,0.882-4.613,2.65-6.118c1.764-1.503,4.038-2.257,6.819-2.257
			c2.895,0,5.251,0.754,7.077,2.257c1.821,1.505,2.733,3.543,2.733,6.118C350.146,294.482,349.203,296.565,347.326,298.1z
			 M364.591,260.412c-0.446,1.39-1.01,2.617-1.692,3.677c-0.685,1.061-1.567,2.08-2.65,3.058c-1.083,0.981-2.144,1.813-3.18,2.497
			c-1.037,0.683-2.254,1.362-3.655,2.033c-1.402,0.673-2.634,1.22-3.693,1.643c-1.06,0.419-2.284,0.87-3.676,1.348v6.396h-11.861
			l0.034-12.034c9.025-4.078,13.537-8.159,13.537-12.239c0-0.365-0.039-0.757-0.119-1.177c-0.08-0.422-0.217-0.908-0.409-1.454
			c-0.194-0.548-0.531-0.997-1.009-1.352c-0.478-0.353-1.06-0.527-1.744-0.527c-2.736,0-4.217,1.845-4.444,5.537h-16.138
			c0.32-5.148,2.408-9.39,6.273-12.719c3.863-3.325,8.724-4.988,14.58-4.988c3.851,0,7.342,0.681,10.479,2.049
			c3.135,1.368,5.591,3.266,7.367,5.692c1.778,2.427,2.668,5.146,2.668,8.154C365.258,257.552,365.035,259.022,364.591,260.412z"/>
	</g>
	<circle fill="#FFFFFF" cx="163.285" cy="94.932" r="68.932"/>
	<circle fill="#FFFFFF" cx="339.227" cy="94.932" r="68.932"/>
</g>
</svg>
