<?xml version="1.0" encoding="UTF-8" standalone="no"?>
<!-- Created with Inkscape (http://www.inkscape.org/) -->

<svg
   xmlns:osb="http://www.openswatchbook.org/uri/2009/osb"
   xmlns:dc="http://purl.org/dc/elements/1.1/"
   xmlns:cc="http://creativecommons.org/ns#"
   xmlns:rdf="http://www.w3.org/1999/02/22-rdf-syntax-ns#"
   xmlns:svg="http://www.w3.org/2000/svg"
   xmlns="http://www.w3.org/2000/svg"
   xmlns:xlink="http://www.w3.org/1999/xlink"
   xmlns:sodipodi="http://sodipodi.sourceforge.net/DTD/sodipodi-0.dtd"
   xmlns:inkscape="http://www.inkscape.org/namespaces/inkscape"
   width="188"
   height="188.16719"
   id="svg3175"
   version="1.1"
   inkscape:version="0.48.3.1 r9886"
   sodipodi:docname="red_flower.svg">
  <defs
     id="defs3177">
    <linearGradient
       id="linearGradient5216"
       osb:paint="solid">
      <stop
         style="stop-color:#ff0000;stop-opacity:1;"
         offset="0"
         id="stop5218" />
    </linearGradient>
    <linearGradient
       id="linearGradient3762"
       osb:paint="solid">
      <stop
         style="stop-color:#0000ff;stop-opacity:1;"
         offset="0"
         id="stop3764" />
    </linearGradient>
    <linearGradient
       inkscape:collect="always"
       xlink:href="#linearGradient5216"
       id="linearGradient5220"
       x1="66.880691"
       y1="30.102905"
       x2="141.06458"
       y2="30.102905"
       gradientUnits="userSpaceOnUse" />
  </defs>
  <sodipodi:namedview
     id="base"
     pagecolor="#ffffff"
     bordercolor="#666666"
     borderopacity="1.0"
     inkscape:pageopacity="0.0"
     inkscape:pageshadow="2"
     inkscape:zoom="1.4"
     inkscape:cx="9.6689671"
     inkscape:cy="112.56416"
     inkscape:document-units="px"
     inkscape:current-layer="layer2"
     showgrid="false"
     fit-margin-top="0"
     fit-margin-left="0"
     fit-margin-right="0"
     fit-margin-bottom="0"
     inkscape:window-width="1366"
     inkscape:window-height="719"
     inkscape:window-x="0"
     inkscape:window-y="25"
     inkscape:window-maximized="1" />
  <metadata
     id="metadata3180">
    <rdf:RDF>
      <cc:Work
         rdf:about="">
        <dc:format>image/svg+xml</dc:format>
        <dc:type
           rdf:resource="http://purl.org/dc/dcmitype/StillImage" />
        <dc:title />
      </cc:Work>
    </rdf:RDF>
  </metadata>
  <g
     inkscape:label="Layer 1"
     inkscape:groupmode="layer"
     id="layer1"
     transform="translate(-239.61134,-278.29103)">
    <g
       id="g3582"
       transform="translate(5.0000003,-1.4285714)">
      <path
         style="fill:#ffff00"
         d="m 310.68266,466.55452 c -9.37419,-2.69223 -17.79148,-12.18092 -18.70271,-21.08329 -0.84278,-8.23368 -0.7801,-8.18183 -6.10619,-5.05106 -23.66282,13.90941 -51.47063,-23.62351 -32.51836,-43.89087 3.23116,-3.45537 2.43712,-5.36521 -2.56308,-6.16477 -25.73604,-4.11536 -18.35922,-53.49951 8.01,-53.62297 5.81495,-0.0272 6.577,-1.13469 3.62929,-5.27437 -15.96059,-22.41458 22.92417,-51.99121 43.37003,-32.98824 3.02484,2.81137 5.8097,2.44333 5.8097,-0.7678 0,-7.00116 8.15204,-15.11389 17.09393,-17.01148 18.81723,-3.99329 36.90607,7.48936 36.90607,23.42767 0,4.99979 1.29073,6.48366 3.81301,4.38358 22.3684,-18.62412 53.47074,20.69774 34.0263,43.01855 -3.19648,3.66934 -2.97393,5.19013 0.75955,5.19013 7.40335,0 15.47405,7.91915 17.42107,17.09393 4.00665,18.88019 -7.13601,36.90607 -22.81343,36.90607 -6.3837,0 -6.62993,0.42283 -3.42511,5.88166 13.9656,23.78783 -27.12959,52.88746 -44.73356,31.67598 -2.21484,-2.66872 -3.76671,-1.73115 -4.95667,2.99459 -3.17533,12.6104 -19.50751,19.73777 -35.01984,15.28269 z m 15.23745,-2.96806 c 15.09964,-3.03244 19.76674,-14.86805 14.142,-35.86357 -3.06393,-11.43672 -2.87838,-11.22697 -10.1841,-11.51241 -3.21909,-0.12577 -8.47373,-0.99057 -11.67699,-1.92179 -12.67146,-3.68369 -27.58329,24.48404 -20.59929,38.91105 4.41252,9.11505 15.11111,13.03912 28.31838,10.38672 z m 51.43868,-14.4283 c 17.26577,-8.6039 22.51897,-26.38004 10.96394,-37.10053 -12.49692,-11.59434 -22.4784,-14.57102 -28.53861,-8.51081 -3.23663,3.23663 -8.42458,7.12738 -11.52878,8.64613 -3.1042,1.51874 -5.644,2.95987 -5.644,3.20249 0,1.2644 6.22582,25.23056 7.1789,27.63504 3.29494,8.3126 17.04909,11.36975 27.56855,6.12768 z M 285.19482,435.6256 c 4.792,-3.43125 8.55438,-8.7045 15.89011,-22.27113 2.97358,-5.49932 2.97358,-5.49932 -3.09736,-11.82159 -3.33903,-3.47724 -6.82619,-7.78274 -7.74927,-9.56777 -2.02268,-3.91142 -2.12287,-3.91554 -15.49096,-0.63708 -15.31413,3.75572 -20.68553,7.50665 -23.07587,16.11424 -6.10509,21.98428 16.1044,40.65597 33.52335,28.18333 z M 401.8045,406.54358 c 10.02929,-3.00485 16.93291,-13.65707 16.96025,-26.1695 0.0409,-18.73008 -9.23395,-23.96426 -32.16445,-18.15168 -16.05499,4.06973 -14.98896,3.21852 -14.98896,11.96847 0,5.05753 -0.69082,9.51696 -2.10922,13.61553 -2.47557,7.15336 -3.17005,6.19977 10.09321,13.85897 11.23951,6.49052 14.4639,7.19875 22.20917,4.87821 z m -130.87438,-21.3451 c 15.34817,-3.80058 14.27748,-2.86058 14.96372,-13.13729 0.32473,-4.86288 1.30533,-10.84276 2.17912,-13.28865 1.48518,-4.15725 1.47303,-4.55746 -0.18645,-6.14126 -22.31008,-21.2926 -49.17732,-13.28421 -49.25321,14.68104 -0.0512,18.87014 8.71584,23.72539 32.29682,17.88616 z m 113.55371,-29.42332 c 22.90475,-5.84207 29.60236,-23.91683 15.01764,-40.52792 -12.36113,-14.07855 -27.26689,-9.02453 -40.31481,13.66934 -6.65513,11.57508 -6.54979,10.46257 -1.45357,15.35007 2.26696,2.17412 5.65579,6.31545 7.53073,9.20295 4.05633,6.24695 3.85964,6.22336 19.22001,2.30556 z m -87.04534,-11.97795 c 2.70731,-2.70731 7.67874,-6.31379 11.04762,-8.01439 3.36888,-1.70061 6.12523,-3.50105 6.12523,-4.00099 0,-11.56031 -8.69183,-32.19987 -14.5997,-34.66834 -22.61575,-9.44946 -48.9004,22.38296 -31.46496,38.10611 12.96112,11.68824 22.84638,14.62304 28.89181,8.57761 z m 56.01198,-19.4545 c 15.91978,-25.84878 9.27564,-41.58688 -17.09045,-40.48244 -19.09154,0.79972 -25.11443,11.87072 -19.13612,35.17514 3.2768,12.77349 2.81242,12.29786 12.6432,12.94929 4.53433,0.30046 9.81924,1.24612 11.74424,2.10146 1.925,0.85533 3.79977,1.57277 4.16616,1.5943 0.36639,0.0215 3.81923,-5.08046 7.67297,-11.33775 z"
         id="path3586"
         inkscape:connector-curvature="0" />
      <path
         style="fill:#4e4643"
         d="m 310.68266,466.55452 c -9.37419,-2.69223 -17.79148,-12.18092 -18.70271,-21.08329 -0.84278,-8.23368 -0.7801,-8.18183 -6.10619,-5.05106 -23.66282,13.90941 -51.47063,-23.62351 -32.51836,-43.89087 3.23116,-3.45537 2.43712,-5.36521 -2.56308,-6.16477 -25.73604,-4.11536 -18.35922,-53.49951 8.01,-53.62297 5.81495,-0.0272 6.577,-1.13469 3.62929,-5.27437 -15.96059,-22.41458 22.92417,-51.99121 43.37003,-32.98824 3.02484,2.81137 5.8097,2.44333 5.8097,-0.7678 0,-7.00116 8.15204,-15.11389 17.09393,-17.01148 18.81723,-3.99329 36.90607,7.48936 36.90607,23.42767 0,4.99979 1.29073,6.48366 3.81301,4.38358 22.3684,-18.62412 53.47074,20.69774 34.0263,43.01855 -3.19648,3.66934 -2.97393,5.19013 0.75955,5.19013 7.40335,0 15.47405,7.91915 17.42107,17.09393 4.00665,18.88019 -7.13601,36.90607 -22.81343,36.90607 -6.3837,0 -6.62993,0.42283 -3.42511,5.88166 13.9656,23.78783 -27.12959,52.88746 -44.73356,31.67598 -2.21484,-2.66872 -3.76671,-1.73115 -4.95667,2.99459 -3.17533,12.6104 -19.50751,19.73777 -35.01984,15.28269 z m 15.23745,-2.96806 c 15.09964,-3.03244 19.76674,-14.86805 14.142,-35.86357 -3.06393,-11.43672 -2.87838,-11.22697 -10.1841,-11.51241 -3.21909,-0.12577 -8.47373,-0.99057 -11.67699,-1.92179 -12.67146,-3.68369 -27.58329,24.48404 -20.59929,38.91105 4.41252,9.11505 15.11111,13.03912 28.31838,10.38672 z m 51.43868,-14.4283 c 17.26577,-8.6039 22.51897,-26.38004 10.96394,-37.10053 -12.49692,-11.59434 -22.4784,-14.57102 -28.53861,-8.51081 -3.23663,3.23663 -8.42458,7.12738 -11.52878,8.64613 -3.1042,1.51874 -5.644,2.95987 -5.644,3.20249 0,1.2644 6.22582,25.23056 7.1789,27.63504 3.29494,8.3126 17.04909,11.36975 27.56855,6.12768 z M 285.19482,435.6256 c 4.792,-3.43125 8.55438,-8.7045 15.89011,-22.27113 2.97358,-5.49932 2.97358,-5.49932 -3.09736,-11.82159 -3.33903,-3.47724 -6.82619,-7.78274 -7.74927,-9.56777 -2.02268,-3.91142 -2.12287,-3.91554 -15.49096,-0.63708 -15.31413,3.75572 -20.68553,7.50665 -23.07587,16.11424 -6.10509,21.98428 16.1044,40.65597 33.52335,28.18333 z m 58.68601,-28.79599 c 41.0056,-19.57017 21.36323,-79.01849 -22.69345,-68.68251 -28.88103,6.77567 -40.19494,40.27848 -20.83768,61.70465 9.92286,10.98342 28.79848,14.00911 43.53113,6.97786 z m 57.92367,-0.28603 c 10.02929,-3.00485 16.93291,-13.65707 16.96025,-26.1695 0.0409,-18.73008 -9.23395,-23.96426 -32.16445,-18.15168 -16.05499,4.06973 -14.98896,3.21852 -14.98896,11.96847 0,5.05753 -0.69082,9.51696 -2.10922,13.61553 -2.47557,7.15336 -3.17005,6.19977 10.09321,13.85897 11.23951,6.49052 14.4639,7.19875 22.20917,4.87821 z m -130.87438,-21.3451 c 15.34817,-3.80058 14.27748,-2.86058 14.96372,-13.13729 0.32473,-4.86288 1.30533,-10.84276 2.17912,-13.28865 1.48518,-4.15725 1.47303,-4.55746 -0.18645,-6.14126 -22.31008,-21.2926 -49.17732,-13.28421 -49.25321,14.68104 -0.0512,18.87014 8.71584,23.72539 32.29682,17.88616 z m 113.55371,-29.42332 c 22.90475,-5.84207 29.60236,-23.91683 15.01764,-40.52792 -12.36113,-14.07855 -27.26689,-9.02453 -40.31481,13.66934 -6.65513,11.57508 -6.54979,10.46257 -1.45357,15.35007 2.26696,2.17412 5.65579,6.31545 7.53073,9.20295 4.05633,6.24695 3.85964,6.22336 19.22001,2.30556 z m -87.04534,-11.97795 c 2.70731,-2.70731 7.67874,-6.31379 11.04762,-8.01439 3.36888,-1.70061 6.12523,-3.50105 6.12523,-4.00099 0,-11.56031 -8.69183,-32.19987 -14.5997,-34.66834 -22.61575,-9.44946 -48.9004,22.38296 -31.46496,38.10611 12.96112,11.68824 22.84638,14.62304 28.89181,8.57761 z m 56.01198,-19.4545 c 15.91978,-25.84878 9.27564,-41.58688 -17.09045,-40.48244 -19.09154,0.79972 -25.11443,11.87072 -19.13612,35.17514 3.2768,12.77349 2.81242,12.29786 12.6432,12.94929 4.53433,0.30046 9.81924,1.24612 11.74424,2.10146 1.925,0.85533 3.79977,1.57277 4.16616,1.5943 0.36639,0.0215 3.81923,-5.08046 7.67297,-11.33775 z"
         id="path3584"
         inkscape:connector-curvature="0" />
    </g>
  </g>
  <g
     inkscape:groupmode="layer"
     id="layer2"
     inkscape:label="color">
    <path
       style="fill:#ff0000;fill-opacity:1;stroke:url(#linearGradient5220);stroke-width:0;stroke-miterlimit:4;stroke-opacity:1;stroke-dasharray:none"
       d="m 106.4996,54.020466 c -2.01815,-0.697537 -6.99854,-1.630424 -11.067539,-2.073084 -5.333228,-0.580193 -7.751514,-1.158169 -8.66408,-2.070734 -2.108947,-2.108947 -5.614693,-17.360043 -5.7001,-24.797229 -0.06337,-5.518383 0.193021,-7.035643 1.771574,-10.483657 3.307358,-7.2242209 10.451287,-10.2014774 23.309565,-9.7143386 10.92508,0.4138994 16.52076,3.1483238 19.45563,9.5073216 2.56184,5.550755 1.2703,13.625351 -3.7672,23.552267 -3.40788,6.715571 -10.32115,17.557054 -11.11675,17.433431 -0.30345,-0.04715 -2.20295,-0.656442 -4.2211,-1.353977 z"
       id="path3756"
       inkscape:connector-curvature="0" />
    <path
       style="fill:#ff0000;fill-opacity:1;stroke:#000000;stroke-width:0;stroke-miterlimit:4;stroke-opacity:1;stroke-dasharray:none"
       d="m 131.41822,73.878776 c -1.86566,-2.441197 -5.24032,-6.450946 -7.49925,-8.910554 -2.25893,-2.459608 -4.10715,-4.812236 -4.10715,-5.228063 0,-1.281229 3.56035,-7.920488 7.51583,-14.015367 9.47262,-14.596076 19.98856,-20.291507 29.49785,-15.976028 4.05228,1.838997 10.03369,8.137907 12.66716,13.339563 1.80844,3.572041 2.10488,4.962319 2.10488,9.871846 0,6.818658 -1.15956,9.608683 -5.96063,14.341933 -4.13118,4.072824 -9.88862,6.82886 -19.16881,9.175947 -10.75051,2.718948 -11.02121,2.672195 -15.04988,-2.599277 z"
       id="path5222"
       inkscape:connector-curvature="0" />
    <path
       style="fill:#ff0000;fill-opacity:1;stroke:#000000;stroke-width:0;stroke-miterlimit:4;stroke-opacity:1;stroke-dasharray:none"
       d="m 153.99212,125.95422 c -4.40849,-1.86184 -10.30628,-5.07632 -16.14458,-8.79929 -4.29073,-2.73611 -4.34964,-2.99545 -2.37071,-10.43679 0.75862,-2.85259 1.5852,-7.918681 1.83686,-11.257967 0.25166,-3.339285 0.60739,-6.603878 0.7905,-7.25465 1.03363,-3.673392 26.26886,-8.615203 34.78597,-6.812131 4.12553,0.873375 8.1373,4.90015 9.4786,9.514051 1.51076,5.19685 1.50275,13.230887 -0.0184,18.458567 -4.00579,13.76638 -17.01764,21.3777 -28.35822,16.58821 l 0,0 z"
       id="path5224"
       inkscape:connector-curvature="0" />
    <path
       style="fill:#ff0000;fill-opacity:1;stroke:#000000;stroke-width:0;stroke-miterlimit:4;stroke-opacity:1;stroke-dasharray:none"
       d="m 127.20021,171.14488 c -7.26922,-1.43817 -10.62706,-4.61177 -12.8165,-12.11328 -1.62324,-5.56162 -6.01477,-23.09611 -5.81224,-23.20713 5.18064,-2.83962 11.3278,-6.80382 13.30174,-8.57807 4.49156,-4.03718 8.02048,-6.07194 10.53063,-6.07194 7.56545,0 22.4643,10.56358 25.68937,18.21428 4.90904,11.64553 -5.55024,27.43135 -20.80858,31.40565 -4.58142,1.19331 -5.63864,1.23005 -10.08442,0.35049 z"
       id="path5226"
       inkscape:connector-curvature="0" />
    <path
       style="fill:#ff0000;fill-opacity:1;stroke:#000000;stroke-width:0;stroke-miterlimit:4;stroke-opacity:1;stroke-dasharray:none"
       d="m 74.605565,182.80321 c -4.324972,-1.44174 -9.228962,-5.72533 -11.188372,-9.77292 -4.711798,-9.73328 1.920272,-29.77566 11.995857,-36.25197 3.633624,-2.33559 2.983059,-2.31153 16.184489,-0.59845 9.409711,1.22106 9.520601,1.2577 10.697901,3.53434 0.59457,1.14977 1.9199,5.40404 2.94517,9.45394 5.82181,22.9965 -1.68049,34.94497 -21.857357,34.8109 -2.946429,-0.0196 -6.896388,-0.54871 -8.777688,-1.17584 z"
       id="path5228"
       inkscape:connector-curvature="0" />
    <path
       style="fill:#ff0000;fill-opacity:1;stroke:#000000;stroke-width:0;stroke-miterlimit:4;stroke-opacity:1;stroke-dasharray:none"
       d="m 33.740396,158.74673 c -6.854544,-2.16781 -11.967287,-6.78747 -15.099978,-13.6437 -1.607523,-3.51824 -1.960827,-5.30901 -1.972909,-10 -0.02312,-8.97417 3.323887,-15.01106 10.287172,-18.55467 3.947466,-2.00887 17.526654,-5.95291 22.513625,-6.53903 l 3.670026,-0.43134 2.801032,3.81989 c 1.540567,2.10094 4.807452,6.07621 7.259743,8.83395 2.768354,3.11316 4.460825,5.65051 4.464286,6.69285 0.0067,2.01742 -6.555024,13.90282 -11.036087,19.98991 -3.662907,4.97571 -9.236242,8.99526 -13.958339,10.06691 -4.057838,0.9209 -5.384671,0.88601 -8.928571,-0.23477 z"
       id="path5230"
       inkscape:connector-curvature="0" />
    <path
       style="fill:#ff0000;fill-opacity:1;stroke:#000000;stroke-width:0;stroke-miterlimit:4;stroke-opacity:1;stroke-dasharray:none"
       d="M 16.562596,106.97313 C 9.4988856,105.75338 5.8639681,101.23431 4.8785143,92.447031 3.3676761,78.974898 8.102436,68.158691 17.539251,63.52452 c 5.26525,-2.585625 13.261274,-2.751394 19.59653,-0.406262 4.426839,1.63869 12.746683,6.865934 15.352384,9.645693 l 1.604913,1.712119 -1.370672,6.384908 c -0.75387,3.5117 -1.595755,8.956338 -1.870857,12.099195 -0.275101,3.142858 -0.808168,6.303998 -1.184591,7.024756 -0.945094,1.809621 -3.867283,2.896011 -13.426562,4.991631 -9.509665,2.08474 -15.592813,2.70195 -19.6778,1.99657 z"
       id="path5232"
       inkscape:connector-curvature="0" />
    <path
       style="fill:#800000;fill-opacity:1;stroke:#000000;stroke-width:0;stroke-miterlimit:4;stroke-opacity:1;stroke-dasharray:none"
       d="M 50.168967,65.621964 C 42.808439,62.957203 32.979051,55.170131 30.492659,50.033931 26.866029,42.542312 29.502403,32.819283 37.265241,25.056447 46.551816,15.769871 61.167075,13.354032 67.73697,20.019602 c 4.56235,4.628791 10.934178,20.673296 11.501274,28.960649 l 0.216437,3.162935 -6.234362,3.979922 c -3.4289,2.188958 -7.995916,5.37479 -10.148926,7.07963 -4.683664,3.708711 -7.751684,4.28397 -12.902426,2.419226 z"
       id="path5234"
       inkscape:connector-curvature="0" />
    <path
       style="fill:#800000;fill-opacity:1;stroke:#000000;stroke-width:0;stroke-miterlimit:4;stroke-opacity:1;stroke-dasharray:none"
       d="M 107.95115,54.047671 C 107.12421,53.713456 102.31273,52.750476 97.258991,51.907714 92.205248,51.064953 87.661134,50.035789 87.16096,49.620681 86.660786,49.205574 85.631392,46.733571 84.873419,44.127343 79.036747,24.058432 80.830594,12.513752 90.52611,7.7482658 94.206673,5.939216 95.063429,5.8173163 104.09754,5.8173163 c 10.44624,0 13.57274,0.6769818 17.19232,3.7226621 8.31424,6.9959736 6.25862,19.5686126 -6.43479,39.3565076 -3.80158,5.926334 -4.21773,6.236831 -6.90392,5.151185 z"
       id="path5236"
       inkscape:connector-curvature="0" />
    <path
       style="fill:#800000;fill-opacity:1;stroke:#000000;stroke-width:0;stroke-miterlimit:4;stroke-opacity:1;stroke-dasharray:none"
       d="m 134.69969,76.772477 c -2.55793,-2.064313 -14.17358,-16.547202 -14.17358,-17.672228 0,-1.047811 6.01988,-11.520042 9.48612,-16.502123 2.6833,-3.856743 9.50429,-10.0761 12.9147,-11.775582 3.62489,-1.806354 7.39116,-2.225402 11.89873,-1.323889 1.49426,0.298852 4.0615,2.095493 7.12859,4.988834 8.0887,7.630465 10.97164,15.947009 8.55021,24.665086 -0.90878,3.271943 -6.13335,9.164358 -10.28071,11.594872 -7.59956,4.453641 -22.97416,8.082861 -25.52406,6.02503 l 0,0 z"
       id="path5238"
       inkscape:connector-curvature="0" />
    <path
       style="fill:#800000;fill-opacity:1;stroke:#000000;stroke-width:0;stroke-miterlimit:4;stroke-opacity:1;stroke-dasharray:none"
       d="m 156.2404,126.2184 c -6.15246,-1.88653 -20.63008,-10.54851 -21.16301,-12.66187 -0.2145,-0.85057 0.11755,-3.90414 0.73788,-6.78571 0.62034,-2.88157 1.46799,-8.108444 1.88369,-11.615277 0.41569,-3.506832 0.92081,-6.643047 1.12248,-6.969365 1.28916,-2.085895 9.26927,-4.411083 20.63324,-6.011964 11.40342,-1.606437 16.34995,-0.565672 19.85745,4.178065 2.18034,2.948822 2.62744,4.196338 3.39216,9.465037 1.40125,9.654164 -1.79608,19.334704 -8.37051,25.343364 -5.4028,4.93785 -12.24591,6.85074 -18.09338,5.05772 z"
       id="path5240"
       inkscape:connector-curvature="0" />
    <path
       style="fill:#800000;fill-opacity:1;stroke:#000000;stroke-width:0;stroke-miterlimit:4;stroke-opacity:1;stroke-dasharray:none"
       d="m 124.74024,170.06286 c -3.87273,-1.19286 -6.78993,-3.8583 -8.5553,-7.81697 -1.91277,-4.28922 -7.2947,-26.35947 -6.49303,-26.6267 0.69022,-0.23007 10.21813,-6.62274 16.80778,-11.27704 4.09452,-2.89198 7.68283,-3.19403 12.41675,-1.0452 6.93474,3.14783 15.72589,10.54492 18.25466,15.35993 4.27972,8.14896 -0.34878,20.16832 -10.42889,27.0819 -7.23331,4.96107 -14.98676,6.48487 -22.00197,4.32408 z"
       id="path5242"
       inkscape:connector-curvature="0" />
    <path
       style="fill:#800000;fill-opacity:1;stroke:#000000;stroke-width:0;stroke-miterlimit:4;stroke-opacity:1;stroke-dasharray:none"
       d="m 74.687129,182.35567 c -3.483668,-1.29518 -8.005887,-4.94214 -9.871668,-7.96104 -4.361104,-7.05642 -2.523194,-20.00216 4.287728,-30.20159 3.866458,-5.79007 8.146715,-8.74266 12.61112,-8.69936 5.665887,0.0549 18.868371,2.47927 19.595511,3.59824 1.3275,2.04287 4.167,12.60595 4.92984,18.33921 0.54186,4.0725 0.56214,7.10484 0.0655,9.79151 -2.04506,11.06276 -8.04436,15.4981 -21.493316,15.8902 -5.07595,0.14799 -8.348318,-0.0967 -10.124695,-0.75717 z"
       id="path5244"
       inkscape:connector-curvature="0" />
    <path
       style="fill:#800000;fill-opacity:1;stroke:#000000;stroke-width:0;stroke-miterlimit:4;stroke-opacity:1;stroke-dasharray:none"
       d="m 33.299169,158.04547 c -6.38199,-2.2806 -10.998159,-6.55283 -13.984387,-12.94244 -1.728111,-3.69763 -1.993961,-5.11884 -1.937392,-10.35714 0.133823,-12.392 4.555447,-16.90977 21.284055,-21.74686 3.492291,-1.0098 8.08039,-2.10741 10.195774,-2.43913 l 3.846154,-0.60314 7.193931,8.92818 c 8.363233,10.37937 8.27074,9.80421 3.067407,19.07424 -9.64174,17.1773 -19.371147,23.765 -29.665542,20.08629 l 0,0 z"
       id="path5246"
       inkscape:connector-curvature="0" />
    <path
       style="fill:#800000;fill-opacity:1;stroke:#000000;stroke-width:0;stroke-miterlimit:4;stroke-opacity:1;stroke-dasharray:none"
       d="M 15.52611,106.43736 C 8.9220046,103.74693 6.7911899,100.85626 5.4570301,92.777613 3.4083713,80.372512 8.8910229,67.998896 18.275684,63.847614 c 4.437642,-1.96298 10.914391,-2.369038 16.088448,-1.008662 4.565452,1.200361 14.362073,6.767052 17.293094,9.826379 l 1.833436,1.913695 -1.451616,8.833431 c -0.798388,4.858386 -1.669061,10.403151 -1.934829,12.321699 -0.773216,5.581764 -1.807636,6.183964 -15.649536,9.110534 -6.849528,1.44818 -17.154805,2.31528 -18.928571,1.59267 z"
       id="path5248"
       inkscape:connector-curvature="0" />
    <path
       style="fill:#ff0000;fill-opacity:1;stroke:#000000;stroke-width:0;stroke-miterlimit:4;stroke-opacity:1;stroke-dasharray:none"
       d="M 83.383253,129.44712 C 71.752489,126.8813 62.19272,118.15603 58.484417,106.72176 56.302146,99.992902 55.967378,95.183429 57.253078,89.031602 60.912427,71.522313 75.390388,59.162642 93.806714,57.82618 c 23.726816,-1.721841 41.930456,20.257468 36.356796,43.89768 -1.59419,6.76164 -4.22572,11.25475 -9.87837,16.86649 -9.94288,9.87093 -23.410235,13.83311 -36.901887,10.85677 z"
       id="path5250"
       inkscape:connector-curvature="0" />
    <path
       style="fill:#ff8d00;fill-opacity:1;stroke:#000000;stroke-width:0;stroke-miterlimit:4;stroke-opacity:1;stroke-dasharray:none"
       d="m 82.029418,128.65308 c -11.767756,-3.27922 -20.74706,-12.68551 -23.94317,-25.08172 -4.083273,-15.837109 4.50327,-33.122719 20.297005,-40.860003 15.740473,-7.711191 31.596107,-5.355304 42.832697,6.364235 3.71048,3.86996 7.36073,10.571873 8.53495,15.670296 1.04425,4.534083 0.93456,13.266416 -0.22117,17.607012 -2.86816,10.77202 -12.86882,21.1773 -24.38872,25.37544 -5.545861,2.02106 -17.465801,2.498 -23.111592,0.92474 l 0,0 z"
       id="path5252"
       inkscape:connector-curvature="0" />
  </g>
</svg>
