<?xml version="1.0" encoding="UTF-8" standalone="no"?>
<!-- Created with Inkscape (http://www.inkscape.org/) -->

<svg
   xmlns:dc="http://purl.org/dc/elements/1.1/"
   xmlns:cc="http://creativecommons.org/ns#"
   xmlns:rdf="http://www.w3.org/1999/02/22-rdf-syntax-ns#"
   xmlns:svg="http://www.w3.org/2000/svg"
   xmlns="http://www.w3.org/2000/svg"
   xmlns:sodipodi="http://sodipodi.sourceforge.net/DTD/sodipodi-0.dtd"
   xmlns:inkscape="http://www.inkscape.org/namespaces/inkscape"
   width="188"
   height="188.16719"
   id="svg3175"
   version="1.1"
   inkscape:version="0.48.3.1 r9886"
   sodipodi:docname="flower.svg">
  <defs
     id="defs3177" />
  <sodipodi:namedview
     id="base"
     pagecolor="#ffffff"
     bordercolor="#666666"
     borderopacity="1.0"
     inkscape:pageopacity="0.0"
     inkscape:pageshadow="2"
     inkscape:zoom="1.4"
     inkscape:cx="130.02611"
     inkscape:cy="112.56416"
     inkscape:document-units="px"
     inkscape:current-layer="g3582"
     showgrid="false"
     fit-margin-top="0"
     fit-margin-left="0"
     fit-margin-right="0"
     fit-margin-bottom="0"
     inkscape:window-width="696"
     inkscape:window-height="726"
     inkscape:window-x="110"
     inkscape:window-y="25"
     inkscape:window-maximized="0" />
  <metadata
     id="metadata3180">
    <rdf:RDF>
      <cc:Work
         rdf:about="">
        <dc:format>image/svg+xml</dc:format>
        <dc:type
           rdf:resource="http://purl.org/dc/dcmitype/StillImage" />
        <dc:title />
      </cc:Work>
    </rdf:RDF>
  </metadata>
  <g
     inkscape:label="Layer 1"
     inkscape:groupmode="layer"
     id="layer1"
     transform="translate(-239.61134,-278.29103)">
    <g
       id="g3582"
       transform="translate(5.0000003,-1.4285714)">
      <path
         style="fill:#ffff00"
         d="m 310.68266,466.55452 c -9.37419,-2.69223 -17.79148,-12.18092 -18.70271,-21.08329 -0.84278,-8.23368 -0.7801,-8.18183 -6.10619,-5.05106 -23.66282,13.90941 -51.47063,-23.62351 -32.51836,-43.89087 3.23116,-3.45537 2.43712,-5.36521 -2.56308,-6.16477 -25.73604,-4.11536 -18.35922,-53.49951 8.01,-53.62297 5.81495,-0.0272 6.577,-1.13469 3.62929,-5.27437 -15.96059,-22.41458 22.92417,-51.99121 43.37003,-32.98824 3.02484,2.81137 5.8097,2.44333 5.8097,-0.7678 0,-7.00116 8.15204,-15.11389 17.09393,-17.01148 18.81723,-3.99329 36.90607,7.48936 36.90607,23.42767 0,4.99979 1.29073,6.48366 3.81301,4.38358 22.3684,-18.62412 53.47074,20.69774 34.0263,43.01855 -3.19648,3.66934 -2.97393,5.19013 0.75955,5.19013 7.40335,0 15.47405,7.91915 17.42107,17.09393 4.00665,18.88019 -7.13601,36.90607 -22.81343,36.90607 -6.3837,0 -6.62993,0.42283 -3.42511,5.88166 13.9656,23.78783 -27.12959,52.88746 -44.73356,31.67598 -2.21484,-2.66872 -3.76671,-1.73115 -4.95667,2.99459 -3.17533,12.6104 -19.50751,19.73777 -35.01984,15.28269 z m 15.23745,-2.96806 c 15.09964,-3.03244 19.76674,-14.86805 14.142,-35.86357 -3.06393,-11.43672 -2.87838,-11.22697 -10.1841,-11.51241 -3.21909,-0.12577 -8.47373,-0.99057 -11.67699,-1.92179 -12.67146,-3.68369 -27.58329,24.48404 -20.59929,38.91105 4.41252,9.11505 15.11111,13.03912 28.31838,10.38672 z m 51.43868,-14.4283 c 17.26577,-8.6039 22.51897,-26.38004 10.96394,-37.10053 -12.49692,-11.59434 -22.4784,-14.57102 -28.53861,-8.51081 -3.23663,3.23663 -8.42458,7.12738 -11.52878,8.64613 -3.1042,1.51874 -5.644,2.95987 -5.644,3.20249 0,1.2644 6.22582,25.23056 7.1789,27.63504 3.29494,8.3126 17.04909,11.36975 27.56855,6.12768 z M 285.19482,435.6256 c 4.792,-3.43125 8.55438,-8.7045 15.89011,-22.27113 2.97358,-5.49932 2.97358,-5.49932 -3.09736,-11.82159 -3.33903,-3.47724 -6.82619,-7.78274 -7.74927,-9.56777 -2.02268,-3.91142 -2.12287,-3.91554 -15.49096,-0.63708 -15.31413,3.75572 -20.68553,7.50665 -23.07587,16.11424 -6.10509,21.98428 16.1044,40.65597 33.52335,28.18333 z M 401.8045,406.54358 c 10.02929,-3.00485 16.93291,-13.65707 16.96025,-26.1695 0.0409,-18.73008 -9.23395,-23.96426 -32.16445,-18.15168 -16.05499,4.06973 -14.98896,3.21852 -14.98896,11.96847 0,5.05753 -0.69082,9.51696 -2.10922,13.61553 -2.47557,7.15336 -3.17005,6.19977 10.09321,13.85897 11.23951,6.49052 14.4639,7.19875 22.20917,4.87821 z m -130.87438,-21.3451 c 15.34817,-3.80058 14.27748,-2.86058 14.96372,-13.13729 0.32473,-4.86288 1.30533,-10.84276 2.17912,-13.28865 1.48518,-4.15725 1.47303,-4.55746 -0.18645,-6.14126 -22.31008,-21.2926 -49.17732,-13.28421 -49.25321,14.68104 -0.0512,18.87014 8.71584,23.72539 32.29682,17.88616 z m 113.55371,-29.42332 c 22.90475,-5.84207 29.60236,-23.91683 15.01764,-40.52792 -12.36113,-14.07855 -27.26689,-9.02453 -40.31481,13.66934 -6.65513,11.57508 -6.54979,10.46257 -1.45357,15.35007 2.26696,2.17412 5.65579,6.31545 7.53073,9.20295 4.05633,6.24695 3.85964,6.22336 19.22001,2.30556 z m -87.04534,-11.97795 c 2.70731,-2.70731 7.67874,-6.31379 11.04762,-8.01439 3.36888,-1.70061 6.12523,-3.50105 6.12523,-4.00099 0,-11.56031 -8.69183,-32.19987 -14.5997,-34.66834 -22.61575,-9.44946 -48.9004,22.38296 -31.46496,38.10611 12.96112,11.68824 22.84638,14.62304 28.89181,8.57761 z m 56.01198,-19.4545 c 15.91978,-25.84878 9.27564,-41.58688 -17.09045,-40.48244 -19.09154,0.79972 -25.11443,11.87072 -19.13612,35.17514 3.2768,12.77349 2.81242,12.29786 12.6432,12.94929 4.53433,0.30046 9.81924,1.24612 11.74424,2.10146 1.925,0.85533 3.79977,1.57277 4.16616,1.5943 0.36639,0.0215 3.81923,-5.08046 7.67297,-11.33775 z"
         id="path3586"
         inkscape:connector-curvature="0" />
      <path
         style="fill:#4e4643"
         d="m 310.68266,466.55452 c -9.37419,-2.69223 -17.79148,-12.18092 -18.70271,-21.08329 -0.84278,-8.23368 -0.7801,-8.18183 -6.10619,-5.05106 -23.66282,13.90941 -51.47063,-23.62351 -32.51836,-43.89087 3.23116,-3.45537 2.43712,-5.36521 -2.56308,-6.16477 -25.73604,-4.11536 -18.35922,-53.49951 8.01,-53.62297 5.81495,-0.0272 6.577,-1.13469 3.62929,-5.27437 -15.96059,-22.41458 22.92417,-51.99121 43.37003,-32.98824 3.02484,2.81137 5.8097,2.44333 5.8097,-0.7678 0,-7.00116 8.15204,-15.11389 17.09393,-17.01148 18.81723,-3.99329 36.90607,7.48936 36.90607,23.42767 0,4.99979 1.29073,6.48366 3.81301,4.38358 22.3684,-18.62412 53.47074,20.69774 34.0263,43.01855 -3.19648,3.66934 -2.97393,5.19013 0.75955,5.19013 7.40335,0 15.47405,7.91915 17.42107,17.09393 4.00665,18.88019 -7.13601,36.90607 -22.81343,36.90607 -6.3837,0 -6.62993,0.42283 -3.42511,5.88166 13.9656,23.78783 -27.12959,52.88746 -44.73356,31.67598 -2.21484,-2.66872 -3.76671,-1.73115 -4.95667,2.99459 -3.17533,12.6104 -19.50751,19.73777 -35.01984,15.28269 z m 15.23745,-2.96806 c 15.09964,-3.03244 19.76674,-14.86805 14.142,-35.86357 -3.06393,-11.43672 -2.87838,-11.22697 -10.1841,-11.51241 -3.21909,-0.12577 -8.47373,-0.99057 -11.67699,-1.92179 -12.67146,-3.68369 -27.58329,24.48404 -20.59929,38.91105 4.41252,9.11505 15.11111,13.03912 28.31838,10.38672 z m 51.43868,-14.4283 c 17.26577,-8.6039 22.51897,-26.38004 10.96394,-37.10053 -12.49692,-11.59434 -22.4784,-14.57102 -28.53861,-8.51081 -3.23663,3.23663 -8.42458,7.12738 -11.52878,8.64613 -3.1042,1.51874 -5.644,2.95987 -5.644,3.20249 0,1.2644 6.22582,25.23056 7.1789,27.63504 3.29494,8.3126 17.04909,11.36975 27.56855,6.12768 z M 285.19482,435.6256 c 4.792,-3.43125 8.55438,-8.7045 15.89011,-22.27113 2.97358,-5.49932 2.97358,-5.49932 -3.09736,-11.82159 -3.33903,-3.47724 -6.82619,-7.78274 -7.74927,-9.56777 -2.02268,-3.91142 -2.12287,-3.91554 -15.49096,-0.63708 -15.31413,3.75572 -20.68553,7.50665 -23.07587,16.11424 -6.10509,21.98428 16.1044,40.65597 33.52335,28.18333 z m 58.68601,-28.79599 c 41.0056,-19.57017 21.36323,-79.01849 -22.69345,-68.68251 -28.88103,6.77567 -40.19494,40.27848 -20.83768,61.70465 9.92286,10.98342 28.79848,14.00911 43.53113,6.97786 z m 57.92367,-0.28603 c 10.02929,-3.00485 16.93291,-13.65707 16.96025,-26.1695 0.0409,-18.73008 -9.23395,-23.96426 -32.16445,-18.15168 -16.05499,4.06973 -14.98896,3.21852 -14.98896,11.96847 0,5.05753 -0.69082,9.51696 -2.10922,13.61553 -2.47557,7.15336 -3.17005,6.19977 10.09321,13.85897 11.23951,6.49052 14.4639,7.19875 22.20917,4.87821 z m -130.87438,-21.3451 c 15.34817,-3.80058 14.27748,-2.86058 14.96372,-13.13729 0.32473,-4.86288 1.30533,-10.84276 2.17912,-13.28865 1.48518,-4.15725 1.47303,-4.55746 -0.18645,-6.14126 -22.31008,-21.2926 -49.17732,-13.28421 -49.25321,14.68104 -0.0512,18.87014 8.71584,23.72539 32.29682,17.88616 z m 113.55371,-29.42332 c 22.90475,-5.84207 29.60236,-23.91683 15.01764,-40.52792 -12.36113,-14.07855 -27.26689,-9.02453 -40.31481,13.66934 -6.65513,11.57508 -6.54979,10.46257 -1.45357,15.35007 2.26696,2.17412 5.65579,6.31545 7.53073,9.20295 4.05633,6.24695 3.85964,6.22336 19.22001,2.30556 z m -87.04534,-11.97795 c 2.70731,-2.70731 7.67874,-6.31379 11.04762,-8.01439 3.36888,-1.70061 6.12523,-3.50105 6.12523,-4.00099 0,-11.56031 -8.69183,-32.19987 -14.5997,-34.66834 -22.61575,-9.44946 -48.9004,22.38296 -31.46496,38.10611 12.96112,11.68824 22.84638,14.62304 28.89181,8.57761 z m 56.01198,-19.4545 c 15.91978,-25.84878 9.27564,-41.58688 -17.09045,-40.48244 -19.09154,0.79972 -25.11443,11.87072 -19.13612,35.17514 3.2768,12.77349 2.81242,12.29786 12.6432,12.94929 4.53433,0.30046 9.81924,1.24612 11.74424,2.10146 1.925,0.85533 3.79977,1.57277 4.16616,1.5943 0.36639,0.0215 3.81923,-5.08046 7.67297,-11.33775 z"
         id="path3584"
         inkscape:connector-curvature="0" />
    </g>
  </g>
</svg>
