<?xml version="1.0" encoding="UTF-8" ?>
<!DOCTYPE svg PUBLIC "-//W3C//DTD SVG 1.1//EN" "http://www.w3.org/Graphics/SVG/1.1/DTD/svg11.dtd">
<svg width="924pt" height="334pt" viewBox="0 0 924 334" version="1.1" xmlns="http://www.w3.org/2000/svg">
<path fill="#ffffff" d=" M 0.00 0.00 L 288.85 0.00 C 288.77 47.90 288.69 95.80 288.90 143.69 C 404.85 143.79 520.81 143.80 636.76 143.69 C 636.84 95.79 636.86 47.90 636.75 0.00 L 924.00 0.00 L 924.00 210.00 C 878.54 210.02 833.07 209.96 787.61 210.03 C 762.05 185.67 735.91 161.92 710.19 137.73 C 693.76 122.58 677.47 107.27 661.06 92.10 C 662.22 90.85 663.40 89.61 664.57 88.37 C 659.35 85.98 654.14 83.59 648.92 81.19 C 651.60 86.26 654.38 91.26 657.13 96.28 C 658.29 95.04 659.46 93.79 660.62 92.53 C 686.39 116.69 712.32 140.67 738.17 164.74 C 754.24 179.93 770.77 194.64 786.58 210.10 C 738.74 209.95 690.89 209.99 643.05 210.08 C 642.85 251.38 643.02 292.69 642.96 334.00 L 282.00 334.00 C 282.02 294.00 281.96 254.00 282.04 214.00 C 281.75 212.80 282.63 210.51 280.92 210.18 C 278.63 209.85 276.32 209.99 274.02 209.98 C 227.79 210.10 181.55 209.88 135.33 210.09 C 161.05 185.55 187.45 161.73 213.36 137.38 C 226.72 125.29 239.62 112.69 253.14 100.79 C 252.85 100.49 252.56 100.19 252.27 99.90 C 247.14 105.90 240.76 110.64 235.20 116.23 C 209.25 140.25 183.39 164.37 157.40 188.35 C 149.76 195.70 141.71 202.61 134.23 210.12 C 89.49 210.19 44.74 210.02 0.00 210.20 L 0.00 0.00 Z" />
<path fill="#000000" d=" M 288.85 0.00 L 636.75 0.00 C 636.86 47.90 636.84 95.79 636.76 143.69 C 520.81 143.80 404.85 143.79 288.90 143.69 C 288.69 95.80 288.77 47.90 288.85 0.00 Z" />
<path fill="#99ccff" d=" M 289.65 1.00 C 405.10 1.00 520.54 1.00 635.99 1.00 C 636.03 48.30 636.04 95.60 635.99 142.90 C 520.55 142.90 405.10 142.89 289.65 142.90 C 289.65 95.60 289.65 48.30 289.65 1.00 Z" />
<path fill="#000000" d=" M 416.59 21.02 C 421.19 21.32 427.87 19.28 429.97 24.92 C 429.70 26.78 429.95 29.05 428.39 30.43 C 426.19 32.47 422.92 31.90 420.17 32.17 C 420.21 34.44 420.23 36.72 420.24 39.00 C 419.48 39.04 417.97 39.12 417.21 39.15 L 416.59 39.18 C 416.59 33.13 416.59 27.07 416.59 21.02 Z" />
<path fill="#99ccff" d=" M 419.96 23.80 L 421.03 24.40 C 422.46 25.37 424.26 25.48 425.94 25.28 C 425.66 26.41 425.47 27.55 425.24 28.69 C 423.53 28.94 421.80 29.01 420.08 29.10 C 420.04 27.33 420.00 25.57 419.96 23.80 Z" />
<path fill="#ffffff" d=" M 421.03 24.40 C 422.36 23.51 425.38 23.55 425.94 25.28 C 424.26 25.48 422.46 25.37 421.03 24.40 Z" />
<path fill="#412007" d=" M 425.94 25.28 C 428.26 25.13 427.32 29.66 425.24 28.69 C 425.47 27.55 425.66 26.41 425.94 25.28 Z" />
<path fill="#ffffff" d=" M 429.97 24.92 C 430.81 26.97 431.41 29.83 429.50 31.47 C 427.29 33.38 424.07 32.69 421.41 33.12 C 421.43 35.36 421.48 37.60 421.53 39.84 C 420.05 39.82 418.56 39.82 417.21 39.15 C 417.97 39.12 419.48 39.04 420.24 39.00 C 420.23 36.72 420.21 34.44 420.17 32.17 C 422.92 31.90 426.19 32.47 428.39 30.43 C 429.95 29.05 429.70 26.78 429.97 24.92 Z" />
<path fill="#000000" d=" M 433.21 28.26 C 433.89 25.94 437.22 25.78 439.25 26.13 C 440.45 27.28 441.65 28.46 442.79 29.68 C 442.93 30.45 443.20 31.98 443.34 32.74 C 440.83 33.05 438.31 33.02 435.79 33.09 L 434.56 33.12 C 435.28 34.12 435.42 35.80 436.74 36.27 C 438.18 37.12 439.24 35.37 440.22 34.65 C 441.02 34.80 442.62 35.09 443.41 35.23 C 442.18 36.72 440.99 38.54 438.95 38.93 C 437.17 39.00 435.42 38.65 433.66 38.49 C 432.68 35.86 431.90 33.16 431.57 30.36 L 431.95 29.94 C 432.26 29.52 432.89 28.68 433.21 28.26 Z" />
<path fill="#4e7dbb" d=" M 439.25 26.13 C 441.25 24.65 444.36 27.67 442.79 29.68 C 441.65 28.46 440.45 27.28 439.25 26.13 Z" />
<path fill="#86752f" d=" M 445.00 26.00 L 446.01 25.71 C 446.00 30.29 446.19 34.89 445.59 39.44 C 445.02 37.65 444.90 35.77 444.97 33.90 C 444.97 33.54 444.98 32.81 444.98 32.45 C 445.00 30.30 445.00 28.15 445.00 26.00 Z" />
<path fill="#000000" d=" M 446.01 25.71 C 446.55 25.87 447.63 26.21 448.16 26.38 L 448.41 26.80 L 448.92 27.75 C 449.24 27.21 449.57 26.67 449.89 26.13 C 450.83 26.12 452.70 26.09 453.64 26.08 L 453.39 26.79 C 453.22 27.30 452.87 28.30 452.69 28.81 C 451.97 28.89 450.52 29.06 449.80 29.15 C 449.44 30.11 449.08 31.07 448.74 32.03 C 447.62 34.14 447.07 36.70 448.35 38.88 C 447.66 39.02 446.28 39.30 445.59 39.44 C 446.19 34.89 446.00 30.29 446.01 25.71 Z" />
<path fill="#033ab3" d=" M 448.16 26.38 C 448.22 26.49 448.35 26.70 448.41 26.80 L 448.16 26.38 Z" />
<path fill="#000000" d=" M 455.29 28.17 C 457.62 24.67 464.28 25.18 465.80 29.32 C 462.82 30.23 459.71 26.53 457.38 29.71 C 460.59 31.12 465.53 30.82 466.54 35.03 C 465.07 39.50 459.84 39.61 456.13 38.18 C 455.76 37.53 455.01 36.24 454.64 35.60 L 454.40 35.16 C 457.30 33.52 459.30 37.80 462.03 36.16 C 462.34 35.77 462.97 34.99 463.28 34.60 C 460.35 33.44 454.08 33.56 454.98 29.01 L 455.29 28.17 Z" />
<path fill="#000000" d=" M 468.25 30.02 C 469.23 26.78 473.11 25.31 476.21 26.21 C 477.40 27.19 478.56 28.25 479.96 28.95 L 479.92 30.31 C 479.77 31.90 479.95 33.51 480.43 35.04 C 479.45 36.46 478.41 38.02 476.69 38.58 C 474.08 39.79 471.39 38.25 469.04 37.21 C 468.13 34.96 467.22 32.39 468.25 30.02 Z" />
<path fill="#5387c7" d=" M 476.21 26.21 C 477.82 24.72 480.92 26.99 479.96 28.95 C 478.56 28.25 477.40 27.19 476.21 26.21 Z" />
<path fill="#91924c" d=" M 483.00 26.04 L 484.00 25.92 C 484.00 30.29 484.00 34.66 483.99 39.03 L 483.01 38.98 C 483.00 34.67 482.99 30.36 483.00 26.04 Z" />
<path fill="#060405" d=" M 484.00 25.92 C 484.48 25.98 485.45 26.10 485.93 26.16 C 486.01 26.56 486.17 27.36 486.24 27.77 L 486.97 27.45 C 489.19 25.84 491.85 25.75 494.32 26.88 L 494.31 27.60 C 494.25 31.41 494.23 35.21 494.21 39.02 L 493.44 39.13 L 492.03 39.29 C 492.00 35.92 492.08 32.55 491.81 29.19 L 490.93 28.42 C 489.42 28.71 487.30 28.75 486.94 30.65 C 486.22 33.37 486.04 36.20 485.82 38.99 L 484.86 39.01 L 483.99 39.03 C 484.00 34.66 484.00 30.29 484.00 25.92 Z" />
<path fill="#0d2c79" d=" M 485.93 26.16 L 486.70 25.95 C 486.77 26.33 486.90 27.07 486.97 27.45 L 486.24 27.77 C 486.17 27.36 486.01 26.56 485.93 26.16 Z" />
<path fill="#4c422a" d=" M 497.99 30.34 C 495.88 29.39 498.01 25.86 499.89 26.33 C 499.49 27.77 498.89 29.15 497.99 30.34 Z" />
<path fill="#000000" d=" M 499.89 26.33 C 502.29 25.93 505.14 25.56 507.09 27.40 C 507.06 30.78 507.11 34.19 507.89 37.50 L 508.10 38.63 L 508.21 39.23 C 506.90 38.91 505.62 38.57 504.35 38.18 C 501.76 39.31 499.01 39.01 496.69 37.40 C 496.68 36.64 496.65 35.11 496.64 34.35 C 497.32 32.89 498.70 31.94 500.23 31.53 C 501.52 31.23 502.79 30.91 504.09 30.60 C 505.54 29.94 505.53 29.35 504.05 28.84 C 503.57 28.79 502.61 28.70 502.13 28.65 C 500.74 29.21 499.38 29.80 497.99 30.34 C 498.89 29.15 499.49 27.77 499.89 26.33 Z" />
<path fill="#d1dfeb" d=" M 453.39 26.79 C 453.87 27.14 454.82 27.83 455.29 28.17 L 454.98 29.01 C 454.62 30.96 452.43 30.22 451.05 30.53 C 450.15 33.70 450.16 37.01 450.18 40.28 C 448.64 39.98 447.10 39.78 445.59 39.44 C 446.28 39.30 447.66 39.02 448.35 38.88 L 448.76 38.80 C 449.40 36.59 449.05 34.27 448.74 32.03 C 449.08 31.07 449.44 30.11 449.80 29.15 C 450.52 29.06 451.97 28.89 452.69 28.81 C 452.87 28.30 453.22 27.30 453.39 26.79 Z" />
<path fill="#79693c" d=" M 432.30 28.20 L 433.21 28.26 C 432.89 28.68 432.26 29.52 431.95 29.94 L 431.65 29.06 L 432.30 28.20 Z" />
<path fill="#ffffff" d=" M 437.45 28.48 C 438.88 28.39 439.67 29.71 440.50 30.65 C 438.50 30.79 436.50 30.85 434.50 30.75 C 435.43 29.96 436.18 28.77 437.45 28.48 Z" />
<path fill="#ffffff" d=" M 472.67 28.74 C 473.98 28.84 475.27 28.95 476.59 29.10 L 476.27 29.26 C 475.58 29.59 474.19 30.26 473.50 30.59 C 473.03 31.77 472.58 32.94 472.12 34.11 C 472.30 32.32 472.50 30.53 472.67 28.74 Z" />
<path fill="#070b36" d=" M 494.31 27.60 C 494.46 27.94 494.75 28.63 494.90 28.97 C 495.25 32.27 495.16 35.59 495.16 38.90 L 494.21 39.02 C 494.23 35.21 494.25 31.41 494.31 27.60 Z" />
<path fill="#1e3977" d=" M 507.09 27.40 C 507.28 27.73 507.67 28.39 507.87 28.72 C 508.03 31.65 507.86 34.57 507.89 37.50 C 507.11 34.19 507.06 30.78 507.09 27.40 Z" />
<path fill="#99ccff" d=" M 471.59 34.56 C 470.42 32.56 471.60 30.46 472.67 28.74 C 472.50 30.53 472.30 32.32 472.12 34.11 C 472.58 32.94 473.03 31.77 473.50 30.59 C 474.19 30.26 475.58 29.59 476.27 29.26 C 476.52 30.79 476.85 32.31 477.14 33.84 C 476.81 36.54 472.49 37.13 471.59 34.56 Z" />
<path fill="#583312" d=" M 476.59 29.10 C 478.55 29.22 478.96 33.39 477.14 33.84 C 476.85 32.31 476.52 30.79 476.27 29.26 L 476.59 29.10 Z" />
<path fill="#cedce7" d=" M 486.94 30.65 C 487.30 28.75 489.42 28.71 490.93 28.42 L 490.87 29.22 C 487.32 31.74 488.48 36.31 488.18 40.04 C 487.33 40.05 485.62 40.06 484.77 40.07 L 484.86 39.01 L 485.82 38.99 L 487.01 38.98 C 486.98 36.20 486.91 33.42 486.94 30.65 Z" />
<path fill="#919255" d=" M 490.93 28.42 L 491.81 29.19 C 492.08 32.55 492.00 35.92 492.03 39.29 L 491.08 38.97 C 491.07 35.71 490.94 32.47 490.87 29.22 L 490.93 28.42 Z" />
<path fill="#ffffff" d=" M 494.90 28.97 C 495.67 30.69 496.46 32.45 496.64 34.35 C 496.65 35.11 496.68 36.64 496.69 37.40 C 499.01 39.01 501.76 39.31 504.35 38.18 C 505.62 38.57 506.90 38.91 508.21 39.23 C 508.71 39.35 509.73 39.60 510.23 39.73 C 505.71 39.41 500.85 40.58 496.73 38.14 C 495.87 39.91 493.98 39.97 492.27 40.03 L 493.44 39.13 L 494.21 39.02 L 495.16 38.90 C 495.16 35.59 495.25 32.27 494.90 28.97 Z" />
<path fill="#ffffff" d=" M 497.99 30.34 C 499.38 29.80 500.74 29.21 502.13 28.65 C 502.61 28.70 503.57 28.79 504.05 28.84 C 504.06 29.28 504.08 30.16 504.09 30.60 C 502.79 30.91 501.52 31.23 500.23 31.53 C 499.46 31.16 498.72 30.76 497.99 30.34 Z" />
<path fill="#886836" d=" M 504.05 28.84 C 505.53 29.35 505.54 29.94 504.09 30.60 C 504.08 30.16 504.06 29.28 504.05 28.84 Z" />
<path fill="#d5e3f3" d=" M 507.87 28.72 C 510.19 31.46 509.48 35.61 508.10 38.63 L 507.89 37.50 C 507.86 34.57 508.03 31.65 507.87 28.72 Z" />
<path fill="#345895" d=" M 479.92 30.31 C 480.23 30.41 480.85 30.61 481.16 30.70 C 481.40 32.16 481.30 33.80 480.43 35.04 C 479.95 33.51 479.77 31.90 479.92 30.31 Z" />
<path fill="#808565" d=" M 433.66 38.49 C 431.76 36.22 430.59 33.31 431.57 30.36 C 431.90 33.16 432.68 35.86 433.66 38.49 Z" />
<path fill="#ffffff" d=" M 481.16 30.70 C 482.61 33.54 481.85 37.42 478.99 39.07 C 475.69 40.88 471.66 39.62 469.04 37.21 C 471.39 38.25 474.08 39.79 476.69 38.58 C 478.41 38.02 479.45 36.46 480.43 35.04 C 481.30 33.80 481.40 32.16 481.16 30.70 Z" />
<path fill="#050533" d=" M 485.82 38.99 C 486.04 36.20 486.22 33.37 486.94 30.65 C 486.91 33.42 486.98 36.20 487.01 38.98 L 485.82 38.99 Z" />
<path fill="#e5e8ee" d=" M 443.34 32.74 C 443.75 32.67 444.57 32.52 444.98 32.45 C 444.98 32.81 444.97 33.54 444.97 33.90 C 441.91 34.04 438.84 34.17 435.79 34.27 L 435.79 33.09 C 438.31 33.02 440.83 33.05 443.34 32.74 Z" />
<path fill="#112158" d=" M 448.35 38.88 C 447.07 36.70 447.62 34.14 448.74 32.03 C 449.05 34.27 449.40 36.59 448.76 38.80 L 448.35 38.88 Z" />
<path fill="#ffffff" d=" M 500.18 34.31 C 501.34 33.18 503.03 33.23 504.52 32.97 C 504.30 33.54 503.85 34.69 503.62 35.27 C 503.52 37.47 499.24 36.61 500.18 34.31 Z" />
<path fill="#8c6b3e" d=" M 504.52 32.97 C 506.32 33.08 505.03 36.43 503.62 35.27 C 503.85 34.69 504.30 33.54 504.52 32.97 Z" />
<path fill="#91965d" d=" M 454.64 35.60 C 454.58 35.49 454.46 35.27 454.40 35.16 L 454.64 35.60 Z" />
<path fill="#ffffff" d=" M 466.54 35.03 C 467.74 36.46 466.60 38.52 465.16 39.26 C 462.20 40.52 458.71 40.06 456.13 38.18 C 459.84 39.61 465.07 39.50 466.54 35.03 Z" />
<path fill="#ffffff" d=" M 438.95 38.93 C 440.94 38.79 442.54 37.43 444.30 36.61 C 442.28 40.71 437.12 40.54 433.66 38.49 C 435.42 38.65 437.17 39.00 438.95 38.93 Z" />
<path fill="#887932" d=" M 338.45 48.28 L 339.28 48.32 C 339.28 48.71 339.28 49.50 339.28 49.90 L 338.45 49.93 L 337.97 49.11 L 338.45 48.28 Z" />
<path fill="#000000" d=" M 339.28 48.32 L 340.13 48.28 L 340.61 49.11 L 340.12 49.94 L 339.28 49.90 C 339.28 49.50 339.28 48.71 339.28 48.32 Z" />
<path fill="#887932" d=" M 362.45 48.29 L 363.28 48.32 C 363.28 48.71 363.28 49.50 363.28 49.90 L 362.45 49.94 L 361.97 49.12 L 362.45 48.29 Z" />
<path fill="#000000" d=" M 363.28 48.32 L 364.13 48.28 L 364.61 49.11 L 364.12 49.94 L 363.28 49.90 C 363.28 49.50 363.28 48.71 363.28 48.32 Z" />
<path fill="#2b1200" d=" M 441.08 48.34 C 441.55 48.18 442.50 47.86 442.97 47.70 C 443.03 53.80 442.99 59.90 443.00 66.01 C 442.52 66.00 441.56 66.00 441.08 65.99 C 440.92 60.11 440.71 54.21 441.08 48.34 Z" />
<path fill="#115ccd" d=" M 442.97 47.70 L 444.01 48.03 C 444.03 54.02 444.03 60.01 444.00 66.00 L 443.00 66.01 C 442.99 59.90 443.03 53.80 442.97 47.70 Z" />
<path fill="#887932" d=" M 518.43 48.31 L 519.26 48.32 C 519.27 48.72 519.29 49.51 519.29 49.90 L 518.47 49.96 L 517.97 49.14 L 518.43 48.31 Z" />
<path fill="#000000" d=" M 519.26 48.32 L 520.11 48.27 L 520.61 49.09 L 520.13 49.93 L 519.29 49.90 C 519.29 49.51 519.27 48.72 519.26 48.32 Z" />
<path fill="#1c0c0f" d=" M 312.35 49.39 C 312.78 49.32 313.63 49.18 314.06 49.10 C 313.65 50.29 313.69 51.44 314.18 52.54 L 314.63 52.73 L 316.48 53.47 C 315.65 54.00 314.82 54.54 313.99 55.09 L 313.21 55.64 C 313.01 58.22 312.88 60.98 314.27 63.28 C 314.34 63.45 314.50 63.79 314.58 63.96 L 315.99 64.45 C 316.04 64.85 316.15 65.63 316.21 66.03 C 314.61 65.99 312.73 66.21 311.83 64.59 C 311.51 61.37 313.07 57.46 310.98 54.69 L 309.95 53.79 C 310.27 53.56 310.91 53.11 311.23 52.89 C 312.06 52.27 312.36 51.41 312.14 50.31 L 312.35 49.39 Z" />
<path fill="#5db6fc" d=" M 314.06 49.10 C 315.56 49.29 315.61 51.87 314.63 52.73 L 314.18 52.54 C 313.69 51.44 313.65 50.29 314.06 49.10 Z" />
<path fill="#1c0c0f" d=" M 332.46 49.32 C 332.86 49.27 333.66 49.15 334.06 49.10 C 333.65 50.29 333.69 51.44 334.18 52.55 L 334.64 52.74 L 336.46 53.45 C 335.65 54.00 334.84 54.55 334.04 55.10 L 333.27 55.67 C 332.97 58.20 332.94 60.84 333.96 63.24 C 334.18 63.41 334.61 63.75 334.83 63.92 L 335.98 64.48 C 336.04 64.87 336.15 65.65 336.20 66.04 C 334.63 65.98 332.80 66.19 331.84 64.67 C 331.54 61.41 333.05 57.50 330.95 54.67 C 330.68 54.35 330.15 53.69 329.88 53.36 L 331.16 52.83 C 332.10 52.35 332.42 51.52 332.14 50.33 L 332.46 49.32 Z" />
<path fill="#5db6fc" d=" M 334.06 49.10 C 335.54 49.31 335.62 51.87 334.64 52.74 L 334.18 52.55 C 333.69 51.44 333.65 50.29 334.06 49.10 Z" />
<path fill="#1c0c0f" d=" M 381.40 49.38 C 381.81 49.31 382.64 49.15 383.05 49.08 C 382.91 50.18 382.22 52.26 383.65 52.72 L 385.77 53.38 C 385.08 53.78 383.70 54.56 383.02 54.95 L 382.98 55.22 L 382.99 54.97 C 382.05 57.66 381.67 60.63 383.09 63.24 C 383.25 63.41 383.58 63.77 383.74 63.95 L 385.00 64.47 C 385.05 64.86 385.14 65.64 385.19 66.04 C 383.61 65.97 381.71 66.22 380.84 64.58 C 380.52 61.35 382.05 57.47 380.00 54.67 L 378.85 53.71 C 379.22 53.51 379.97 53.10 380.34 52.90 L 380.91 52.60 C 380.95 52.02 381.04 50.86 381.08 50.28 L 381.40 49.38 Z" />
<path fill="#5db6fc" d=" M 383.05 49.08 C 384.52 49.31 384.62 51.84 383.65 52.72 C 382.22 52.26 382.91 50.18 383.05 49.08 Z" />
<path fill="#1c0c0f" d=" M 473.03 49.59 C 473.53 49.48 474.55 49.28 475.06 49.18 C 474.65 50.36 474.69 51.49 475.20 52.57 L 475.66 52.75 L 477.47 53.44 C 476.64 53.99 475.81 54.54 474.99 55.09 L 474.28 55.61 C 474.00 58.21 473.83 60.99 475.26 63.32 C 475.33 63.48 475.48 63.78 475.55 63.93 L 477.01 64.44 C 477.05 64.84 477.14 65.64 477.18 66.03 C 475.58 66.00 473.70 66.20 472.83 64.55 C 472.55 61.31 474.02 57.47 471.97 54.66 C 471.71 54.32 471.18 53.65 470.92 53.31 L 472.16 52.82 C 473.15 52.36 473.45 51.53 473.08 50.34 L 473.03 49.59 Z" />
<path fill="#5db6fc" d=" M 475.06 49.18 C 476.56 49.30 476.64 51.91 475.66 52.75 L 475.20 52.57 C 474.69 51.49 474.65 50.36 475.06 49.18 Z" />
<path fill="#98bba5" d=" M 311.23 52.89 C 310.19 51.44 310.50 50.58 312.14 50.31 C 312.36 51.41 312.06 52.27 311.23 52.89 Z" />
<path fill="#98bba5" d=" M 331.16 52.83 C 330.22 51.40 330.55 50.57 332.14 50.33 C 332.42 51.52 332.10 52.35 331.16 52.83 Z" />
<path fill="#98bba5" d=" M 380.34 52.90 C 379.21 51.50 379.46 50.63 381.08 50.28 C 381.04 50.86 380.95 52.02 380.91 52.60 L 380.34 52.90 Z" />
<path fill="#98bba5" d=" M 472.16 52.82 C 471.23 51.42 471.54 50.59 473.08 50.34 C 473.45 51.53 473.15 52.36 472.16 52.82 Z" />
<path fill="#000000" d=" M 299.10 56.05 C 299.41 52.93 303.56 52.49 305.95 53.32 C 306.70 54.50 307.41 55.72 308.20 56.89 C 306.10 56.05 304.10 54.04 301.69 55.19 C 299.87 55.36 300.96 58.10 302.44 57.91 C 303.93 58.30 305.55 58.43 306.91 59.24 C 307.32 60.33 308.07 60.90 309.15 60.95 C 309.02 61.61 308.75 62.92 308.61 63.57 C 308.60 63.60 308.58 63.64 308.57 63.66 C 306.25 67.55 299.88 66.48 298.26 62.43 C 298.85 62.23 300.03 61.84 300.62 61.64 L 301.32 63.31 C 301.44 63.41 301.68 63.61 301.80 63.71 C 303.11 63.96 304.42 63.97 305.74 63.74 L 306.39 63.68 C 306.42 63.10 306.49 61.95 306.53 61.37 L 305.91 61.18 C 303.36 60.06 298.48 59.95 299.10 56.05 Z" />
<path fill="#3267ab" d=" M 305.95 53.32 C 307.83 52.19 310.64 56.21 308.20 56.89 C 307.41 55.72 306.70 54.50 305.95 53.32 Z" />
<path fill="#4f9ddf" d=" M 316.48 53.47 L 317.28 53.19 C 314.02 55.79 314.79 60.27 314.58 63.96 C 314.50 63.79 314.34 63.45 314.27 63.28 C 314.09 60.55 314.04 57.82 313.99 55.09 C 314.82 54.54 315.65 54.00 316.48 53.47 Z" />
<path fill="#828777" d=" M 317.87 56.87 C 316.82 55.11 319.12 52.52 320.96 53.37 C 320.06 54.57 319.22 55.82 318.30 57.01 L 317.87 56.87 Z" />
<path fill="#000000" d=" M 320.96 53.37 C 323.39 52.46 325.95 53.17 328.21 54.18 C 327.85 57.95 327.77 61.79 328.77 65.47 L 328.97 66.44 C 327.95 66.02 327.07 65.42 326.32 64.63 C 324.38 65.73 322.20 66.18 319.98 65.92 C 319.78 64.68 319.05 64.10 317.78 64.18 L 317.89 62.90 C 318.43 61.64 319.02 60.40 319.68 59.19 C 321.82 58.64 324.01 58.26 326.18 57.77 C 327.58 57.29 327.64 56.68 326.37 55.94 C 325.00 55.16 323.45 54.97 321.92 54.91 L 321.23 54.85 C 320.92 55.33 320.31 56.29 320.00 56.77 L 318.30 57.01 C 319.22 55.82 320.06 54.57 320.96 53.37 Z" />
<path fill="#4f9ddf" d=" M 336.46 53.45 L 337.32 53.22 C 333.74 55.74 334.61 60.14 334.83 63.92 C 334.61 63.75 334.18 63.41 333.96 63.24 C 333.91 60.52 333.99 57.81 334.04 55.10 C 334.84 54.55 335.65 54.00 336.46 53.45 Z" />
<path fill="#887932" d=" M 338.00 53.00 L 339.00 53.00 C 339.00 57.33 339.00 61.67 339.00 66.00 L 338.01 66.01 C 337.98 61.67 337.98 57.33 338.00 53.00 Z" />
<path fill="#000000" d=" M 339.00 53.00 L 340.00 53.00 C 340.00 57.33 340.00 61.66 340.00 66.00 L 339.00 66.00 C 339.00 61.67 339.00 57.33 339.00 53.00 Z" />
<path fill="#002ea4" d=" M 340.00 53.00 L 341.03 53.01 C 341.04 57.34 341.04 61.67 341.03 66.00 L 340.00 66.00 C 340.00 61.66 340.00 57.33 340.00 53.00 Z" />
<path fill="#8ba29f" d=" M 346.93 66.21 C 340.48 65.00 340.21 53.97 346.91 52.84 C 345.55 53.96 344.33 55.25 343.37 56.73 C 342.73 58.35 342.38 60.61 343.31 62.21 C 344.32 63.71 345.54 65.05 346.93 66.21 Z" />
<path fill="#000000" d=" M 346.91 52.84 C 349.48 52.72 352.24 53.48 353.46 55.97 L 353.19 56.37 L 352.30 57.61 C 350.90 55.89 349.18 54.23 346.75 54.86 C 344.18 57.30 344.14 61.66 346.69 64.13 C 347.53 64.09 349.20 64.01 350.04 63.97 C 351.36 64.04 351.70 62.44 352.32 61.57 L 353.25 61.14 C 353.17 61.55 353.00 62.37 352.92 62.78 C 352.87 65.70 349.16 66.11 346.93 66.21 C 345.54 65.05 344.32 63.71 343.31 62.21 C 344.36 60.58 344.38 58.38 343.37 56.73 C 344.33 55.25 345.55 53.96 346.91 52.84 Z" />
<path fill="#887932" d=" M 362.00 53.00 L 363.00 53.00 C 363.00 57.34 363.00 61.68 363.00 66.02 L 362.00 65.98 C 361.98 61.65 361.98 57.32 362.00 53.00 Z" />
<path fill="#000000" d=" M 363.00 53.00 L 364.00 52.99 C 364.00 57.33 364.00 61.66 364.00 65.99 L 363.00 66.02 C 363.00 61.68 363.00 57.34 363.00 53.00 Z" />
<path fill="#002ea4" d=" M 364.00 52.99 L 365.03 53.01 C 365.04 57.34 365.04 61.68 365.03 66.01 L 364.00 65.99 C 364.00 61.66 364.00 57.33 364.00 52.99 Z" />
<path fill="#86752f" d=" M 366.99 65.95 C 367.31 61.49 366.17 56.79 367.72 52.50 C 368.15 56.99 367.98 61.51 367.99 66.01 L 366.99 65.95 Z" />
<path fill="#050507" d=" M 367.72 52.50 L 369.37 53.54 C 369.47 53.57 369.68 53.61 369.78 53.64 C 371.50 53.43 373.20 52.94 374.95 53.02 C 375.65 53.66 376.35 54.30 377.05 54.95 C 377.09 58.64 377.12 62.32 377.14 66.01 L 375.99 65.99 C 375.81 62.30 376.77 58.17 374.57 54.91 C 373.84 54.90 372.39 54.87 371.66 54.86 C 367.81 57.17 369.41 62.30 369.04 66.00 L 367.99 66.01 C 367.98 61.51 368.15 56.99 367.72 52.50 Z" />
<path fill="#1564d2" d=" M 369.37 53.54 C 369.47 53.57 369.68 53.61 369.78 53.64 C 369.68 53.61 369.47 53.57 369.37 53.54 Z" />
<path fill="#1448b0" d=" M 374.95 53.02 C 380.05 55.11 377.44 61.77 378.03 65.99 L 377.14 66.01 C 377.12 62.32 377.09 58.64 377.05 54.95 C 376.35 54.30 375.65 53.66 374.95 53.02 Z" />
<path fill="#4f9ddf" d=" M 385.77 53.38 L 386.12 53.19 L 386.53 54.41 C 382.08 55.25 384.62 60.82 383.74 63.95 C 383.58 63.77 383.25 63.41 383.09 63.24 C 382.96 60.57 382.95 57.89 382.98 55.22 L 383.02 54.95 C 383.70 54.56 385.08 53.78 385.77 53.38 Z" />
<path fill="#86752f" d=" M 394.00 66.00 C 394.30 61.52 393.18 56.81 394.71 52.50 C 395.15 56.99 394.97 61.50 394.99 66.00 L 394.00 66.00 Z" />
<path fill="#050507" d=" M 394.71 52.50 L 396.36 53.54 C 396.47 53.56 396.67 53.61 396.77 53.63 C 398.49 53.43 400.19 52.93 401.95 53.02 C 402.65 53.65 403.35 54.28 404.04 54.92 C 404.09 58.61 404.13 62.30 404.14 65.99 L 402.99 66.00 C 402.82 62.32 403.75 58.21 401.60 54.93 C 400.88 54.91 399.44 54.86 398.72 54.84 C 394.79 57.09 396.42 62.29 396.04 66.00 L 394.99 66.00 C 394.97 61.50 395.15 56.99 394.71 52.50 Z" />
<path fill="#1564d2" d=" M 396.36 53.54 C 396.47 53.56 396.67 53.61 396.77 53.63 C 396.67 53.61 396.47 53.56 396.36 53.54 Z" />
<path fill="#1448b0" d=" M 401.95 53.02 C 403.09 53.75 404.71 54.33 404.84 55.94 C 405.28 59.28 405.01 62.67 405.03 66.03 L 404.14 65.99 C 404.13 62.30 404.09 58.61 404.04 54.92 C 403.35 54.28 402.65 53.65 401.95 53.02 Z" />
<path fill="#837949" d=" M 406.99 52.98 L 407.84 53.00 C 407.85 56.71 407.89 60.42 407.94 64.13 C 408.67 64.68 409.41 65.23 410.17 65.76 C 409.59 65.58 408.43 65.21 407.86 65.02 C 406.55 61.14 406.98 57.00 406.99 52.98 Z" />
<path fill="#060406" d=" M 407.84 53.00 L 409.00 52.99 C 409.15 56.74 408.27 60.90 410.47 64.22 C 412.15 64.12 414.00 63.93 415.18 62.58 C 416.24 59.50 416.04 56.21 416.04 53.01 L 417.01 52.98 C 417.01 57.49 416.89 62.00 417.22 66.50 L 415.87 65.83 C 416.43 64.38 416.01 64.06 414.62 64.86 C 413.43 65.96 411.69 66.41 410.17 65.76 C 409.41 65.23 408.67 64.68 407.94 64.13 C 407.89 60.42 407.85 56.71 407.84 53.00 Z" />
<path fill="#0f46b5" d=" M 409.00 52.99 L 410.03 53.01 C 409.93 56.75 409.97 60.50 410.47 64.22 C 408.27 60.90 409.15 56.74 409.00 52.99 Z" />
<path fill="#7d5f20" d=" M 415.00 52.99 L 416.04 53.01 C 416.04 56.21 416.24 59.50 415.18 62.58 C 414.94 59.39 414.94 56.19 415.00 52.99 Z" />
<path fill="#053eb8" d=" M 417.01 52.98 L 418.02 53.04 C 417.65 57.49 418.94 62.27 417.22 66.50 C 416.89 62.00 417.01 57.49 417.01 52.98 Z" />
<path fill="#86752f" d=" M 419.99 65.98 C 420.35 61.52 419.09 56.75 420.76 52.49 C 421.12 56.99 420.98 61.50 421.00 66.01 L 419.99 65.98 Z" />
<path fill="#09020d" d=" M 420.76 52.49 L 422.10 53.15 C 421.59 54.60 422.02 54.91 423.41 54.07 C 425.24 52.04 427.94 53.25 429.83 54.53 L 430.84 55.03 C 429.56 58.61 429.80 62.48 430.14 66.21 C 429.55 66.20 428.36 66.19 427.76 66.18 C 428.10 62.42 428.50 58.49 427.17 54.86 C 425.79 54.89 424.47 55.17 423.20 55.69 C 421.77 58.93 422.07 62.54 422.04 65.99 L 421.00 66.01 C 420.98 61.50 421.12 56.99 420.76 52.49 Z" />
<path fill="#14579b" d=" M 422.10 53.15 C 422.43 53.38 423.08 53.84 423.41 54.07 C 422.02 54.91 421.59 54.60 422.10 53.15 Z" />
<path fill="#0c0a09" d=" M 429.83 54.53 C 431.33 53.45 433.08 52.94 434.92 52.84 C 435.60 53.58 436.29 54.33 436.99 55.07 C 437.02 58.72 437.02 62.36 437.02 66.00 L 435.90 66.00 C 435.76 62.32 436.53 58.32 434.64 54.96 C 433.92 54.98 432.48 55.00 431.75 55.02 L 430.84 55.03 L 429.83 54.53 Z" />
<path fill="#2876d6" d=" M 434.92 52.84 C 435.49 53.13 436.64 53.70 437.21 53.98 C 438.33 57.90 438.07 61.99 438.00 66.00 L 437.02 66.00 C 437.02 62.36 437.02 58.72 436.99 55.07 C 436.29 54.33 435.60 53.58 434.92 52.84 Z" />
<path fill="#86752f" d=" M 447.00 66.02 C 447.31 61.53 446.17 56.81 447.71 52.50 C 448.15 56.99 447.98 61.50 447.99 66.00 L 447.00 66.02 Z" />
<path fill="#050507" d=" M 447.71 52.50 L 449.37 53.55 C 449.48 53.57 449.68 53.62 449.78 53.64 C 451.53 53.44 453.26 53.07 455.02 52.81 C 455.67 53.58 456.33 54.35 456.99 55.13 C 457.10 58.75 457.13 62.38 457.14 66.00 L 455.99 66.00 C 455.80 62.30 456.79 58.14 454.54 54.88 C 453.81 54.89 452.34 54.89 451.60 54.89 C 447.84 57.25 449.41 62.31 449.04 66.01 L 447.99 66.00 C 447.98 61.50 448.15 56.99 447.71 52.50 Z" />
<path fill="#1564d2" d=" M 449.37 53.55 C 449.48 53.57 449.68 53.62 449.78 53.64 C 449.68 53.62 449.48 53.57 449.37 53.55 Z" />
<path fill="#1448b0" d=" M 455.02 52.81 C 459.89 55.31 457.53 61.63 458.03 66.00 L 457.14 66.00 C 457.13 62.38 457.10 58.75 456.99 55.13 C 456.33 54.35 455.67 53.58 455.02 52.81 Z" />
<path fill="#000000" d=" M 460.10 56.02 C 460.44 52.92 464.60 52.47 466.98 53.34 C 467.72 54.53 468.43 55.73 469.22 56.89 C 467.11 56.07 465.11 54.05 462.70 55.17 C 460.88 55.32 461.95 58.09 463.43 57.90 C 464.91 58.30 466.55 58.41 467.90 59.25 C 468.32 60.33 469.07 60.90 470.16 60.93 C 470.03 61.57 469.77 62.83 469.64 63.47 C 469.63 63.48 469.62 63.52 469.61 63.53 C 467.44 67.58 460.81 66.53 459.26 62.37 C 459.87 62.20 461.09 61.85 461.70 61.68 L 462.35 63.33 C 462.47 63.43 462.72 63.64 462.84 63.74 C 464.12 63.95 465.42 63.95 466.72 63.76 L 467.36 63.70 C 467.41 63.12 467.50 61.97 467.54 61.39 L 466.92 61.20 C 464.38 60.05 459.45 59.95 460.10 56.02 Z" />
<path fill="#3267ab" d=" M 466.98 53.34 C 468.86 52.22 471.66 56.20 469.22 56.89 C 468.43 55.73 467.72 54.53 466.98 53.34 Z" />
<path fill="#4f9ddf" d=" M 477.47 53.44 L 478.49 53.42 C 477.68 54.03 476.89 54.65 476.10 55.28 C 475.94 58.16 475.80 61.05 475.55 63.93 C 475.48 63.78 475.33 63.48 475.26 63.32 C 475.13 60.58 475.04 57.84 474.99 55.09 C 475.81 54.54 476.64 53.99 477.47 53.44 Z" />
<path fill="#828777" d=" M 478.87 56.86 C 477.78 55.11 480.09 52.53 481.94 53.38 C 481.04 54.58 480.22 55.82 479.31 57.00 L 478.87 56.86 Z" />
<path fill="#000000" d=" M 481.94 53.38 C 484.30 52.61 487.06 52.82 489.11 54.34 C 488.93 58.08 488.80 61.87 489.77 65.53 L 489.97 66.44 C 488.96 66.01 488.07 65.41 487.31 64.64 C 485.36 65.72 483.19 66.19 480.97 65.90 C 480.75 64.66 480.01 64.09 478.76 64.17 L 478.89 62.90 C 479.43 61.64 480.03 60.39 480.69 59.19 C 482.83 58.64 485.02 58.26 487.18 57.77 C 488.57 57.30 488.64 56.69 487.37 55.94 C 486.01 55.14 484.44 55.01 482.91 54.91 L 482.22 54.84 C 481.92 55.32 481.32 56.29 481.01 56.77 L 479.31 57.00 C 480.22 55.82 481.04 54.58 481.94 53.38 Z" />
<path fill="#86752f" d=" M 491.99 65.98 C 492.30 61.51 491.18 56.80 492.71 52.50 C 493.15 56.99 492.98 61.51 492.99 66.01 L 491.99 65.98 Z" />
<path fill="#050507" d=" M 492.71 52.50 L 494.36 53.54 C 494.46 53.56 494.66 53.61 494.77 53.63 C 496.50 53.43 498.20 52.93 499.97 53.03 C 500.66 53.66 501.35 54.29 502.04 54.93 C 502.09 58.62 502.12 62.31 502.14 66.01 L 500.99 66.00 C 500.82 62.30 501.76 58.18 499.58 54.91 C 498.83 54.90 497.35 54.89 496.61 54.88 C 492.83 57.22 494.41 62.30 494.04 65.99 L 492.99 66.01 C 492.98 61.51 493.15 56.99 492.71 52.50 Z" />
<path fill="#1564d2" d=" M 494.36 53.54 C 494.46 53.56 494.66 53.61 494.77 53.63 C 494.66 53.61 494.46 53.56 494.36 53.54 Z" />
<path fill="#1448b0" d=" M 499.97 53.03 C 505.06 55.12 502.43 61.78 503.03 66.00 L 502.14 66.01 C 502.12 62.31 502.09 58.62 502.04 54.93 C 501.35 54.29 500.66 53.66 499.97 53.03 Z" />
<path fill="#8ba29f" d=" M 509.86 66.19 C 503.46 64.90 503.26 53.99 509.90 52.83 C 508.54 53.97 507.33 55.28 506.36 56.75 C 505.73 58.39 505.37 60.67 506.34 62.26 C 507.35 63.70 508.54 65.02 509.86 66.19 Z" />
<path fill="#000000" d=" M 509.90 52.83 C 512.47 52.72 515.26 53.47 516.46 55.99 L 516.18 56.38 L 515.29 57.61 C 513.92 55.87 512.19 54.29 509.79 54.84 C 507.16 57.27 507.11 61.71 509.74 64.16 C 510.57 64.11 512.24 64.00 513.07 63.95 C 514.38 64.00 514.72 62.41 515.35 61.55 L 516.27 61.12 C 516.18 61.53 516.01 62.35 515.92 62.76 C 515.89 65.72 512.11 66.13 509.86 66.19 C 508.54 65.02 507.35 63.70 506.34 62.26 C 507.38 60.61 507.34 58.42 506.36 56.75 C 507.33 55.28 508.54 53.97 509.90 52.83 Z" />
<path fill="#887932" d=" M 518.00 53.00 L 519.00 53.00 C 519.00 57.33 519.00 61.66 519.00 65.99 L 518.01 66.01 C 518.00 61.67 517.98 57.33 518.00 53.00 Z" />
<path fill="#000000" d=" M 519.00 53.00 L 520.00 53.00 C 520.00 57.34 520.00 61.67 520.00 66.01 L 519.00 65.99 C 519.00 61.66 519.00 57.33 519.00 53.00 Z" />
<path fill="#002ea4" d=" M 520.00 53.00 L 521.03 53.00 C 521.04 57.33 521.04 61.66 521.03 65.99 L 520.00 66.01 C 520.00 61.67 520.00 57.34 520.00 53.00 Z" />
<path fill="#828777" d=" M 523.29 56.98 C 521.25 55.86 524.09 52.24 525.97 53.38 C 525.06 54.57 524.22 55.81 523.29 56.98 Z" />
<path fill="#000000" d=" M 525.97 53.38 C 528.38 52.45 530.95 53.18 533.20 54.18 C 532.84 57.97 532.79 61.82 533.77 65.53 L 533.96 66.44 C 532.95 66.01 532.07 65.41 531.32 64.63 C 529.31 65.76 527.03 66.11 524.76 66.10 C 522.80 63.92 522.74 61.18 524.57 58.89 C 526.80 58.71 529.01 58.34 531.19 57.78 C 532.57 57.29 532.63 56.67 531.36 55.93 C 530.00 55.13 528.44 55.00 526.91 54.91 L 526.22 54.84 C 525.92 55.32 525.33 56.30 525.03 56.78 L 523.29 56.98 C 524.22 55.81 525.06 54.57 525.97 53.38 Z" />
<path fill="#000000" d=" M 536.23 55.15 C 538.45 51.56 544.72 52.48 545.98 56.55 C 543.21 57.23 541.45 53.53 538.67 55.20 C 536.85 55.41 538.01 58.11 539.48 57.92 C 540.94 58.26 542.48 58.49 543.88 59.13 C 544.28 60.06 544.94 60.73 545.87 61.16 C 545.89 61.63 545.91 62.57 545.93 63.04 C 545.64 63.48 545.06 64.35 544.77 64.79 C 541.66 67.24 536.77 66.07 535.27 62.36 C 535.86 62.19 537.05 61.84 537.65 61.66 L 538.34 63.33 C 538.47 63.43 538.71 63.63 538.83 63.73 C 540.12 63.94 541.41 63.95 542.72 63.75 L 543.36 63.70 C 543.41 63.12 543.50 61.97 543.54 61.39 L 542.93 61.19 C 540.03 60.15 534.76 59.54 536.23 55.15 Z" />
<path fill="#2e6ebb" d=" M 302.44 57.91 C 300.96 58.10 299.87 55.36 301.69 55.19 C 302.82 55.90 303.07 56.81 302.44 57.91 Z" />
<path fill="#98bca7" d=" M 310.98 54.69 C 313.07 57.46 311.51 61.37 311.83 64.59 C 310.84 61.38 310.90 58.00 310.98 54.69 Z" />
<path fill="#000034" d=" M 313.21 55.64 L 313.99 55.09 C 314.04 57.82 314.09 60.55 314.27 63.28 C 312.88 60.98 313.01 58.22 313.21 55.64 Z" />
<path fill="#4f94e5" d=" M 321.23 54.85 L 321.92 54.91 C 322.26 56.56 321.63 57.18 320.00 56.77 C 320.31 56.29 320.92 55.33 321.23 54.85 Z" />
<path fill="#0338af" d=" M 328.21 54.18 C 329.43 57.83 329.11 61.72 328.77 65.47 C 327.77 61.79 327.85 57.95 328.21 54.18 Z" />
<path fill="#98bca7" d=" M 330.95 54.67 C 333.05 57.50 331.54 61.41 331.84 64.67 C 330.71 61.46 330.98 58.02 330.95 54.67 Z" />
<path fill="#000034" d=" M 333.27 55.67 L 334.04 55.10 C 333.99 57.81 333.91 60.52 333.96 63.24 C 332.94 60.84 332.97 58.20 333.27 55.67 Z" />
<path fill="#3a84d8" d=" M 346.69 64.13 C 344.14 61.66 344.18 57.30 346.75 54.86 C 345.53 57.88 345.55 61.09 346.69 64.13 Z" />
<path fill="#1649af" d=" M 369.04 66.00 C 369.41 62.30 367.81 57.17 371.66 54.86 C 371.28 55.34 370.52 56.30 370.14 56.78 C 370.04 59.85 370.02 62.93 370.02 66.01 L 369.04 66.00 Z" />
<path fill="#867b42" d=" M 374.57 54.91 C 376.77 58.17 375.81 62.30 375.99 65.99 L 374.98 66.03 C 375.05 62.32 375.05 58.59 374.57 54.91 Z" />
<path fill="#98bca7" d=" M 380.00 54.67 C 382.05 57.47 380.52 61.35 380.84 64.58 C 379.82 61.38 379.88 57.99 380.00 54.67 Z" />
<path fill="#000034" d=" M 382.99 54.97 L 382.98 55.22 C 382.95 57.89 382.96 60.57 383.09 63.24 C 381.67 60.63 382.05 57.66 382.99 54.97 Z" />
<path fill="#1649af" d=" M 396.04 66.00 C 396.42 62.29 394.79 57.09 398.72 54.84 C 398.33 55.31 397.55 56.26 397.16 56.73 C 397.04 59.82 397.02 62.91 397.02 66.01 L 396.04 66.00 Z" />
<path fill="#867b42" d=" M 401.60 54.93 C 403.75 58.21 402.82 62.32 402.99 66.00 L 401.98 66.00 C 402.05 62.31 402.04 58.60 401.60 54.93 Z" />
<path fill="#93b098" d=" M 427.17 54.86 C 428.50 58.49 428.10 62.42 427.76 66.18 C 426.80 62.49 427.18 58.63 427.17 54.86 Z" />
<path fill="#52a8f4" d=" M 430.84 55.03 L 431.75 55.02 C 430.61 58.66 431.44 62.63 430.14 66.21 C 429.80 62.48 429.56 58.61 430.84 55.03 Z" />
<path fill="#6e471b" d=" M 434.64 54.96 C 436.53 58.32 435.76 62.32 435.90 66.00 L 434.95 66.00 C 435.03 62.32 434.97 58.63 434.64 54.96 Z" />
<path fill="#1649af" d=" M 449.04 66.01 C 449.41 62.31 447.84 57.25 451.60 54.89 C 451.24 55.35 450.52 56.28 450.16 56.74 C 450.04 59.82 450.01 62.91 450.02 65.99 L 449.04 66.01 Z" />
<path fill="#867b42" d=" M 454.54 54.88 C 456.79 58.14 455.80 62.30 455.99 66.00 L 454.98 66.01 C 455.05 62.29 455.07 58.57 454.54 54.88 Z" />
<path fill="#2e6ebb" d=" M 463.43 57.90 C 461.95 58.09 460.88 55.32 462.70 55.17 C 463.82 55.90 464.06 56.80 463.43 57.90 Z" />
<path fill="#98bca7" d=" M 471.97 54.66 C 474.02 57.47 472.55 61.31 472.83 64.55 C 471.82 61.35 471.91 57.97 471.97 54.66 Z" />
<path fill="#000034" d=" M 474.28 55.61 L 474.99 55.09 C 475.04 57.84 475.13 60.58 475.26 63.32 C 473.83 60.99 474.00 58.21 474.28 55.61 Z" />
<path fill="#4f94e5" d=" M 482.22 54.84 L 482.91 54.91 C 483.26 56.57 482.63 57.19 481.01 56.77 C 481.32 56.29 481.92 55.32 482.22 54.84 Z" />
<path fill="#0338af" d=" M 489.11 54.34 C 490.62 57.88 490.02 61.81 489.77 65.53 C 488.80 61.87 488.93 58.08 489.11 54.34 Z" />
<path fill="#1649af" d=" M 494.04 65.99 C 494.41 62.30 492.83 57.22 496.61 54.88 C 496.24 55.36 495.51 56.32 495.14 56.80 C 495.04 59.88 495.02 62.96 495.02 66.04 L 494.04 65.99 Z" />
<path fill="#867b42" d=" M 499.58 54.91 C 501.76 58.18 500.82 62.30 500.99 66.00 L 499.98 66.01 C 500.05 62.31 500.06 58.59 499.58 54.91 Z" />
<path fill="#3a84d8" d=" M 509.74 64.16 C 507.11 61.71 507.16 57.27 509.79 54.84 C 508.51 57.87 508.53 61.10 509.74 64.16 Z" />
<path fill="#4f94e5" d=" M 526.22 54.84 L 526.91 54.91 C 527.28 56.55 526.65 57.17 525.03 56.78 C 525.33 56.30 525.92 55.32 526.22 54.84 Z" />
<path fill="#0338af" d=" M 533.20 54.18 C 534.44 57.84 534.11 61.75 533.77 65.53 C 532.79 61.82 532.84 57.97 533.20 54.18 Z" />
<path fill="#2e6ebb" d=" M 539.48 57.92 C 538.01 58.11 536.85 55.41 538.67 55.20 C 539.80 55.89 540.07 56.80 539.48 57.92 Z" />
<path fill="#7a5a1d" d=" M 326.37 55.94 C 327.64 56.68 327.58 57.29 326.18 57.77 C 326.22 57.31 326.32 56.39 326.37 55.94 Z" />
<path fill="#196ed9" d=" M 353.46 55.97 C 353.39 56.07 353.25 56.27 353.19 56.37 L 353.46 55.97 Z" />
<path fill="#1246b2" d=" M 422.04 65.99 C 422.07 62.54 421.77 58.93 423.20 55.69 C 423.09 59.13 423.00 62.57 423.02 66.02 L 422.04 65.99 Z" />
<path fill="#7a5a1d" d=" M 487.37 55.94 C 488.64 56.69 488.57 57.30 487.18 57.77 C 487.22 57.31 487.32 56.40 487.37 55.94 Z" />
<path fill="#196ed9" d=" M 516.46 55.99 C 516.39 56.09 516.25 56.28 516.18 56.38 L 516.46 55.99 Z" />
<path fill="#7a5a1d" d=" M 531.36 55.93 C 532.63 56.67 532.57 57.29 531.19 57.78 C 531.23 57.32 531.32 56.39 531.36 55.93 Z" />
<path fill="#300900" d=" M 343.31 62.21 C 342.38 60.61 342.73 58.35 343.37 56.73 C 344.38 58.38 344.36 60.58 343.31 62.21 Z" />
<path fill="#300900" d=" M 506.34 62.26 C 505.37 60.67 505.73 58.39 506.36 56.75 C 507.34 58.42 507.38 60.61 506.34 62.26 Z" />
<path fill="#326abb" d=" M 306.91 59.24 C 308.51 58.75 309.25 59.32 309.15 60.95 C 308.07 60.90 307.32 60.33 306.91 59.24 Z" />
<path fill="#8ca197" d=" M 317.89 62.90 C 315.34 62.47 317.63 58.10 319.68 59.19 C 319.02 60.40 318.43 61.64 317.89 62.90 Z" />
<path fill="#326abb" d=" M 467.90 59.25 C 469.49 58.73 470.24 59.30 470.16 60.93 C 469.07 60.90 468.32 60.33 467.90 59.25 Z" />
<path fill="#8ca197" d=" M 478.89 62.90 C 476.34 62.43 478.65 58.09 480.69 59.19 C 480.03 60.39 479.43 61.64 478.89 62.90 Z" />
<path fill="#8da39e" d=" M 522.77 65.05 C 521.75 62.70 522.16 60.13 524.57 58.89 C 522.74 61.18 522.80 63.92 524.76 66.10 C 524.26 65.84 523.26 65.32 522.77 65.05 Z" />
<path fill="#326abb" d=" M 543.88 59.13 C 545.63 58.73 546.30 59.41 545.87 61.16 C 544.94 60.73 544.28 60.06 543.88 59.13 Z" />
<path fill="#4885c9" d=" M 320.62 63.80 C 318.13 62.47 321.53 58.83 323.59 60.28 C 323.05 60.81 322.53 61.35 322.04 61.91 C 321.68 62.39 320.97 63.33 320.62 63.80 Z" />
<path fill="#99ccff" d=" M 323.59 60.28 C 324.27 60.18 325.63 59.98 326.31 59.88 C 326.20 60.28 325.99 61.07 325.88 61.47 C 326.30 64.35 322.49 64.48 320.62 63.80 C 320.97 63.33 321.68 62.39 322.04 61.91 C 322.53 61.35 323.05 60.81 323.59 60.28 Z" />
<path fill="#7a591b" d=" M 326.31 59.88 C 327.63 60.87 327.48 61.40 325.88 61.47 C 325.99 61.07 326.20 60.28 326.31 59.88 Z" />
<path fill="#4885c9" d=" M 481.62 63.80 C 479.12 62.49 482.54 58.81 484.60 60.28 C 484.05 60.81 483.53 61.36 483.03 61.92 C 482.67 62.39 481.97 63.33 481.62 63.80 Z" />
<path fill="#99ccff" d=" M 484.60 60.28 C 485.28 60.18 486.64 59.98 487.32 59.87 C 487.21 60.27 486.99 61.07 486.88 61.46 C 487.29 64.35 483.49 64.48 481.62 63.80 C 481.97 63.33 482.67 62.39 483.03 61.92 C 483.53 61.36 484.05 60.81 484.60 60.28 Z" />
<path fill="#7a591b" d=" M 487.32 59.87 C 488.63 60.87 488.48 61.40 486.88 61.46 C 486.99 61.07 487.21 60.27 487.32 59.87 Z" />
<path fill="#4885c9" d=" M 525.61 63.79 C 523.13 62.46 526.57 58.80 528.61 60.28 C 528.05 60.82 527.52 61.37 527.01 61.93 C 526.66 62.40 525.96 63.33 525.61 63.79 Z" />
<path fill="#99ccff" d=" M 528.61 60.28 C 529.29 60.18 530.64 59.97 531.31 59.86 C 531.21 60.26 530.99 61.06 530.89 61.46 C 531.29 64.34 527.48 64.49 525.61 63.79 C 525.96 63.33 526.66 62.40 527.01 61.93 C 527.52 61.37 528.05 60.82 528.61 60.28 Z" />
<path fill="#7a591b" d=" M 531.31 59.86 C 532.63 60.84 532.49 61.38 530.89 61.46 C 530.99 61.06 531.21 60.26 531.31 59.86 Z" />
<path fill="#ffffff" d=" M 305.91 61.18 L 306.53 61.37 C 306.49 61.95 306.42 63.10 306.39 63.68 L 305.74 63.74 C 305.64 63.28 305.42 62.35 305.31 61.88 L 305.91 61.18 Z" />
<path fill="#7f7f63" d=" M 350.04 63.97 C 349.10 62.73 351.02 60.43 352.32 61.57 C 351.70 62.44 351.36 64.04 350.04 63.97 Z" />
<path fill="#2463ca" d=" M 353.25 61.14 C 354.65 62.01 354.55 62.56 352.92 62.78 C 353.00 62.37 353.17 61.55 353.25 61.14 Z" />
<path fill="#ffffff" d=" M 466.92 61.20 L 467.54 61.39 C 467.50 61.97 467.41 63.12 467.36 63.70 L 466.72 63.76 C 466.62 63.29 466.42 62.35 466.32 61.89 L 466.92 61.20 Z" />
<path fill="#7f7f63" d=" M 513.07 63.95 C 512.08 62.70 514.04 60.46 515.35 61.55 C 514.72 62.41 514.38 64.00 513.07 63.95 Z" />
<path fill="#2463ca" d=" M 516.27 61.12 C 517.65 62.03 517.53 62.57 515.92 62.76 C 516.01 62.35 516.18 61.53 516.27 61.12 Z" />
<path fill="#ffffff" d=" M 542.93 61.19 L 543.54 61.39 C 543.50 61.97 543.41 63.12 543.36 63.70 L 542.72 63.75 C 542.62 63.29 542.42 62.35 542.32 61.89 L 542.93 61.19 Z" />
<path fill="#063386" d=" M 301.32 63.31 C 301.44 63.41 301.68 63.61 301.80 63.71 C 301.68 63.61 301.44 63.41 301.32 63.31 Z" />
<path fill="#002a91" d=" M 308.57 63.66 C 308.58 63.64 308.60 63.60 308.61 63.57 C 308.60 63.60 308.58 63.64 308.57 63.66 Z" />
<path fill="#063386" d=" M 462.35 63.33 C 462.47 63.43 462.72 63.64 462.84 63.74 C 462.72 63.64 462.47 63.43 462.35 63.33 Z" />
<path fill="#002a91" d=" M 469.61 63.53 C 469.62 63.52 469.63 63.48 469.64 63.47 C 469.63 63.48 469.62 63.52 469.61 63.53 Z" />
<path fill="#063386" d=" M 538.34 63.33 C 538.47 63.43 538.71 63.63 538.83 63.73 C 538.71 63.63 538.47 63.43 538.34 63.33 Z" />
<path fill="#2a69c3" d=" M 544.77 64.79 C 545.06 64.35 545.64 63.48 545.93 63.04 L 546.27 63.88 L 545.67 64.77 L 544.77 64.79 Z" />
<path fill="#2d89ea" d=" M 315.99 64.45 C 317.56 64.67 317.64 65.20 316.21 66.03 C 316.15 65.63 316.04 64.85 315.99 64.45 Z" />
<path fill="#879187" d=" M 317.78 64.18 C 319.05 64.10 319.78 64.68 319.98 65.92 C 318.51 66.26 317.77 65.68 317.78 64.18 Z" />
<path fill="#2d89ea" d=" M 335.98 64.48 C 337.57 64.69 337.64 65.21 336.20 66.04 C 336.15 65.65 336.04 64.87 335.98 64.48 Z" />
<path fill="#2d89ea" d=" M 385.00 64.47 C 386.58 64.71 386.64 65.23 385.19 66.04 C 385.14 65.64 385.05 64.86 385.00 64.47 Z" />
<path fill="#677e4e" d=" M 414.62 64.86 C 416.01 64.06 416.43 64.38 415.87 65.83 C 415.56 65.59 414.93 65.10 414.62 64.86 Z" />
<path fill="#2d89ea" d=" M 477.01 64.44 C 478.58 64.73 478.63 65.25 477.18 66.03 C 477.14 65.64 477.05 64.84 477.01 64.44 Z" />
<path fill="#879187" d=" M 478.76 64.17 C 480.01 64.09 480.75 64.66 480.97 65.90 C 479.50 66.25 478.76 65.68 478.76 64.17 Z" />
<path fill="#ff0000" d=" M 648.92 81.19 C 654.14 83.59 659.35 85.98 664.57 88.37 C 663.40 89.61 662.22 90.85 661.06 92.10 C 677.47 107.27 693.76 122.58 710.19 137.73 C 735.91 161.92 762.05 185.67 787.61 210.03 L 788.72 211.07 L 787.98 211.03 C 787.63 210.80 786.93 210.33 786.58 210.10 C 770.77 194.64 754.24 179.93 738.17 164.74 C 712.32 140.67 686.39 116.69 660.62 92.53 C 659.46 93.79 658.29 95.04 657.13 96.28 C 654.38 91.26 651.60 86.26 648.92 81.19 Z" />
<path fill="#ff0000" d=" M 250.25 94.28 C 255.52 91.91 260.79 89.56 266.02 87.10 C 263.16 92.12 260.50 97.25 257.64 102.28 C 255.12 99.67 252.64 97.02 250.25 94.28 Z" />
<path fill="#ff0000" d=" M 252.27 99.90 C 252.56 100.19 252.85 100.49 253.14 100.79 C 239.62 112.69 226.72 125.29 213.36 137.38 C 187.45 161.73 161.05 185.55 135.33 210.09 C 134.97 210.33 134.26 210.80 133.90 211.03 L 133.21 211.06 L 134.23 210.12 C 141.71 202.61 149.76 195.70 157.40 188.35 C 183.39 164.37 209.25 140.25 235.20 116.23 C 240.76 110.64 247.14 105.90 252.27 99.90 Z" />
<path fill="#000000" d=" M 0.00 210.20 C 44.74 210.02 89.49 210.19 134.23 210.12 L 133.21 211.06 C 89.15 211.22 45.08 211.09 1.01 211.13 C 1.01 252.08 0.96 293.04 1.04 334.00 L 0.00 334.00 L 0.00 210.20 Z" />
<path fill="#1b1e21" d=" M 133.90 211.03 C 134.26 210.80 134.97 210.33 135.33 210.09 C 181.55 209.88 227.79 210.10 274.02 209.98 C 276.32 209.99 278.63 209.85 280.92 210.18 C 282.63 210.51 281.75 212.80 282.04 214.00 C 281.96 254.00 282.02 294.00 282.00 334.00 L 280.98 334.00 C 281.02 293.05 281.00 252.10 280.99 211.15 C 231.96 211.08 182.93 211.31 133.90 211.03 Z" />
<path fill="#171c22" d=" M 643.05 210.08 C 690.89 209.99 738.74 209.95 786.58 210.10 C 786.93 210.33 787.63 210.80 787.98 211.03 C 739.99 211.31 692.00 211.08 644.01 211.15 C 644.02 252.10 643.95 293.05 644.04 334.00 L 642.96 334.00 C 643.02 292.69 642.85 251.38 643.05 210.08 Z" />
<path fill="#1b2026" d=" M 787.61 210.03 C 833.07 209.96 878.54 210.02 924.00 210.00 L 924.00 211.17 C 878.91 211.08 833.81 211.29 788.72 211.07 L 787.61 210.03 Z" />
<path fill="#99ccff" d=" M 1.01 211.13 C 45.08 211.09 89.15 211.22 133.21 211.06 L 133.90 211.03 C 182.93 211.31 231.96 211.08 280.99 211.15 C 281.00 252.10 281.02 293.05 280.98 334.00 L 1.04 334.00 C 0.96 293.04 1.01 252.08 1.01 211.13 Z" />
<path fill="#99ccff" d=" M 644.01 211.15 C 692.00 211.08 739.99 211.31 787.98 211.03 L 788.72 211.07 C 833.81 211.29 878.91 211.08 924.00 211.17 L 924.00 334.00 L 644.04 334.00 C 643.95 293.05 644.02 252.10 644.01 211.15 Z" />
<path fill="#000000" d=" M 107.35 222.38 C 111.29 220.88 115.65 223.04 117.13 226.91 C 116.03 227.22 114.93 227.52 113.82 227.79 C 113.41 227.22 112.59 226.08 112.17 225.51 C 110.65 225.15 108.81 224.63 107.51 225.84 C 105.06 227.88 105.69 231.49 105.96 234.29 C 106.64 236.25 108.97 237.48 110.97 236.77 C 112.52 236.29 113.02 234.54 113.92 233.37 C 114.81 233.69 116.60 234.32 117.49 234.63 L 116.75 235.74 C 115.08 239.07 111.43 240.61 107.82 239.92 C 100.24 237.58 99.91 224.99 107.35 222.38 Z" />
<path fill="#919551" d=" M 119.00 222.04 L 119.99 222.00 C 120.02 228.09 119.99 234.18 120.03 240.27 L 119.01 239.98 C 118.99 234.00 119.00 228.02 119.00 222.04 Z" />
<path fill="#030000" d=" M 119.99 222.00 C 120.50 222.00 121.52 222.00 122.03 222.00 C 122.13 227.99 122.11 233.98 122.06 239.97 L 121.39 240.08 L 120.03 240.27 C 119.99 234.18 120.02 228.09 119.99 222.00 Z" />
<path fill="#050533" d=" M 122.03 222.00 L 123.09 221.99 L 123.08 222.55 C 122.91 228.30 123.02 234.06 123.00 239.82 L 122.06 239.97 C 122.11 233.98 122.13 227.99 122.03 222.00 Z" />
<path fill="#919551" d=" M 126.88 224.91 C 125.31 225.24 125.29 221.87 126.86 222.22 C 126.87 222.89 126.87 224.24 126.88 224.91 Z" />
<path fill="#030112" d=" M 126.86 222.22 C 127.77 222.18 129.60 222.10 130.51 222.06 L 130.01 223.50 C 129.88 223.78 129.62 224.32 129.49 224.59 C 129.23 224.73 128.71 225.00 128.45 225.14 L 126.88 224.91 C 126.87 224.24 126.87 222.89 126.86 222.22 Z" />
<path fill="#000000" d=" M 727.59 222.01 C 731.87 221.99 736.15 222.00 740.43 222.00 C 740.37 222.74 740.26 224.23 740.20 224.98 C 737.17 224.99 734.14 225.00 731.13 225.00 C 731.11 226.33 731.11 227.66 731.12 228.99 C 731.50 228.99 732.26 228.99 732.64 229.00 C 735.01 228.99 737.39 229.01 739.78 229.06 L 739.76 230.06 C 739.75 230.55 739.74 231.51 739.73 232.00 C 736.85 232.00 733.98 232.00 731.12 232.00 C 731.11 233.66 731.11 235.33 731.12 237.00 C 731.51 237.00 732.29 237.00 732.69 237.00 C 735.41 236.99 738.14 237.00 740.87 237.08 L 740.85 237.63 C 740.81 238.22 740.75 239.40 740.72 240.00 C 736.71 240.00 732.71 239.98 728.72 240.02 L 727.59 240.03 C 727.59 234.02 727.59 228.01 727.59 222.01 Z" />
<path fill="#919551" d=" M 779.00 222.06 L 779.99 221.99 C 780.02 228.08 779.99 234.16 780.02 240.25 L 779.01 239.97 C 778.99 234.00 779.00 228.03 779.00 222.06 Z" />
<path fill="#030000" d=" M 779.99 221.99 C 780.51 221.99 781.54 222.01 782.05 222.01 C 782.15 228.00 782.10 233.99 782.02 239.97 L 781.34 240.08 L 780.02 240.25 C 779.99 234.16 780.02 228.08 779.99 221.99 Z" />
<path fill="#050533" d=" M 782.05 222.01 L 783.12 221.96 L 783.10 222.46 C 782.88 228.25 783.02 234.04 783.00 239.83 L 782.02 239.97 C 782.10 233.99 782.15 228.00 782.05 222.01 Z" />
<path fill="#94a87b" d=" M 820.56 227.73 C 819.43 226.33 819.13 222.99 820.86 222.18 C 821.14 224.03 821.17 225.93 820.93 227.79 L 820.56 227.73 Z" />
<path fill="#000000" d=" M 820.86 222.18 C 821.70 222.13 823.39 222.05 824.23 222.00 C 824.23 222.18 824.23 222.54 824.23 222.72 C 824.13 228.44 824.19 234.15 824.19 239.87 C 823.43 239.95 821.92 240.12 821.16 240.20 C 821.18 239.74 821.23 238.81 821.25 238.35 C 818.25 240.83 813.42 240.33 812.15 236.26 C 813.02 234.53 813.04 232.42 812.11 230.72 C 813.02 229.34 814.35 228.34 815.51 227.18 L 815.79 226.90 C 817.37 227.16 818.96 227.44 820.56 227.73 L 820.93 227.79 C 821.17 225.93 821.14 224.03 820.86 222.18 Z" />
<path fill="#c3dbf6" d=" M 123.08 222.55 C 123.43 222.83 124.14 223.38 124.49 223.66 C 124.92 229.40 124.43 235.19 124.69 240.96 C 123.18 240.97 121.67 240.96 120.17 240.94 L 121.39 240.08 L 122.06 239.97 L 123.00 239.82 C 123.02 234.06 122.91 228.30 123.08 222.55 Z" />
<path fill="#dde4ea" d=" M 130.01 223.50 C 133.47 223.72 128.88 228.48 128.45 225.14 C 128.71 225.00 129.23 224.73 129.49 224.59 C 129.62 224.32 129.88 223.78 130.01 223.50 Z" />
<path fill="#000000" d=" M 162.62 223.87 C 163.39 223.46 164.16 223.05 164.93 222.65 C 164.94 223.97 164.95 225.30 164.97 226.63 C 165.57 226.84 166.79 227.26 167.40 227.46 L 167.43 227.75 L 167.58 229.48 C 166.98 229.54 165.79 229.66 165.19 229.72 C 165.20 232.03 165.16 234.34 165.25 236.65 C 165.54 236.78 166.12 237.04 166.42 237.17 L 167.99 237.84 C 167.70 238.24 167.12 239.04 166.83 239.44 C 166.24 239.66 165.07 240.12 164.48 240.35 C 163.90 239.88 162.75 238.94 162.18 238.47 C 162.10 235.68 162.07 232.88 162.05 230.09 C 161.63 229.65 160.78 228.79 160.36 228.36 C 161.25 226.93 162.02 225.43 162.62 223.87 Z" />
<path fill="#d5e1ef" d=" M 740.73 224.97 C 741.04 224.40 741.64 223.27 741.95 222.70 C 741.96 223.52 741.98 225.17 741.99 226.00 C 738.95 226.06 735.93 226.12 732.91 226.17 C 732.84 226.87 732.71 228.29 732.64 229.00 C 732.26 228.99 731.50 228.99 731.12 228.99 C 731.11 227.66 731.11 226.33 731.13 225.00 C 734.14 225.00 737.17 224.99 740.20 224.98 L 740.73 224.97 Z" />
<path fill="#c3dbf6" d=" M 783.10 222.46 C 785.50 224.44 784.72 228.03 785.37 230.75 C 785.28 232.37 785.21 233.99 785.16 235.62 C 785.04 237.40 784.80 239.17 784.60 240.94 C 783.13 240.97 781.67 240.99 780.23 240.99 L 781.34 240.08 L 782.02 239.97 L 783.00 239.83 C 783.02 234.04 782.88 228.25 783.10 222.46 Z" />
<path fill="#ffffff" d=" M 824.19 239.87 C 824.19 234.15 824.13 228.44 824.23 222.72 C 825.75 224.09 825.29 226.17 825.39 227.99 C 825.30 232.23 825.31 236.48 825.45 240.72 C 822.33 240.67 819.18 240.91 816.09 240.50 C 813.81 239.98 812.48 237.91 811.11 236.24 C 810.83 236.98 810.28 238.46 810.01 239.21 L 809.96 238.41 C 810.14 235.91 810.38 233.42 810.49 230.92 C 812.15 229.39 813.85 227.91 815.74 226.64 C 815.68 226.78 815.57 227.05 815.51 227.18 C 814.35 228.34 813.02 229.34 812.11 230.72 C 811.15 232.34 811.27 234.61 812.15 236.26 C 813.42 240.33 818.25 240.83 821.25 238.35 C 821.23 238.81 821.18 239.74 821.16 240.20 C 821.92 240.12 823.43 239.95 824.19 239.87 Z" />
<path fill="#81896c" d=" M 159.78 227.46 C 160.71 226.25 161.63 225.03 162.62 223.87 C 162.02 225.43 161.25 226.93 160.36 228.36 C 160.78 228.79 161.63 229.65 162.05 230.09 C 162.07 232.88 162.10 235.68 162.18 238.47 C 162.75 238.94 163.90 239.88 164.48 240.35 C 163.54 239.61 161.64 239.57 161.60 238.03 C 161.27 234.45 161.27 230.80 159.78 227.46 Z" />
<path fill="#ffffff" d=" M 107.51 225.84 C 108.81 224.63 110.65 225.15 112.17 225.51 C 110.69 226.25 108.65 226.36 107.71 227.90 C 106.81 229.92 106.51 232.15 105.96 234.29 C 105.69 231.49 105.06 227.88 107.51 225.84 Z" />
<path fill="#ffffff" d=" M 117.13 226.91 L 117.87 226.69 C 117.80 227.19 117.66 228.19 117.59 228.68 C 115.94 228.48 114.29 228.27 112.64 228.06 L 113.82 227.79 C 114.93 227.52 116.03 227.22 117.13 226.91 Z" />
<path fill="#919551" d=" M 126.01 227.00 L 127.00 227.00 C 127.01 231.34 127.01 235.68 127.00 240.03 L 126.01 239.99 C 125.99 235.65 125.99 231.32 126.01 227.00 Z" />
<path fill="#030000" d=" M 127.00 227.00 C 127.51 227.00 128.53 227.00 129.04 227.00 C 129.11 231.33 129.12 235.66 129.06 239.99 L 127.88 240.01 L 127.00 240.03 C 127.01 235.68 127.01 231.34 127.00 227.00 Z" />
<path fill="#050533" d=" M 129.04 227.00 L 130.10 226.98 L 130.08 227.53 C 129.94 231.67 129.99 235.82 130.00 239.97 L 129.06 239.99 C 129.12 235.66 129.11 231.33 129.04 227.00 Z" />
<path fill="#000000" d=" M 133.97 228.66 C 135.77 227.32 138.03 226.56 140.28 227.14 C 141.47 228.29 142.66 229.46 143.79 230.67 C 143.93 231.44 144.20 232.97 144.34 233.74 C 141.65 234.06 138.94 234.01 136.24 234.17 L 135.56 234.20 C 136.32 235.40 136.70 237.42 138.50 237.45 C 139.67 237.72 140.28 236.09 141.21 235.65 C 142.01 235.80 143.62 236.11 144.43 236.26 C 143.18 237.71 142.00 239.52 139.98 239.93 C 138.19 240.01 136.42 239.65 134.65 239.47 C 132.97 236.08 132.46 232.22 133.97 228.66 Z" />
<path fill="#4e7dbb" d=" M 140.28 227.14 C 142.29 225.65 145.37 228.66 143.79 230.67 C 142.66 229.46 141.47 228.29 140.28 227.14 Z" />
<path fill="#91924c" d=" M 146.01 227.01 L 147.00 226.92 C 146.99 231.37 146.98 235.82 147.01 240.28 L 146.00 239.95 C 146.00 238.25 146.01 236.56 146.02 234.86 C 146.02 234.51 146.02 233.80 146.02 233.45 C 146.02 231.30 146.01 229.15 146.01 227.01 Z" />
<path fill="#060405" d=" M 147.00 226.92 C 147.46 226.98 148.40 227.10 148.87 227.17 C 148.98 227.54 149.19 228.28 149.30 228.65 L 150.03 228.42 C 152.28 226.94 155.33 226.26 157.42 228.45 C 157.32 232.29 157.20 236.13 157.16 239.97 L 156.40 240.08 L 155.03 240.26 C 155.01 236.89 155.08 233.53 154.80 230.18 L 153.93 229.42 C 152.42 229.68 150.43 229.76 149.93 231.56 C 149.13 234.30 149.00 237.17 148.86 240.00 L 148.36 240.09 L 147.01 240.28 C 146.98 235.82 146.99 231.37 147.00 226.92 Z" />
<path fill="#0d2c79" d=" M 148.87 227.17 L 149.68 226.98 C 149.77 227.34 149.94 228.06 150.03 228.42 L 149.30 228.65 C 149.19 228.28 148.98 227.54 148.87 227.17 Z" />
<path fill="#1a71dc" d=" M 167.40 227.46 C 167.47 227.58 167.61 227.82 167.68 227.94 L 167.43 227.75 L 167.40 227.46 Z" />
<path fill="#000000" d=" M 169.36 229.85 C 170.70 227.46 173.69 226.48 176.28 227.14 C 177.48 228.29 178.66 229.47 179.79 230.70 C 179.93 231.47 180.22 233.03 180.37 233.80 C 177.83 233.98 175.29 234.02 172.76 234.09 L 171.56 234.13 C 172.27 235.13 172.42 236.75 173.70 237.26 C 175.18 238.15 176.22 236.37 177.22 235.64 C 178.02 235.80 179.63 236.10 180.43 236.26 C 179.18 237.75 177.95 239.54 175.91 239.96 C 174.16 240.01 172.43 239.63 170.71 239.40 C 169.05 236.73 167.77 233.46 169.16 230.36 L 169.36 229.85 Z" />
<path fill="#4e7dbb" d=" M 176.28 227.14 C 178.31 225.70 181.40 228.68 179.79 230.70 C 178.66 229.47 177.48 228.29 176.28 227.14 Z" />
<path fill="#000000" d=" M 743.32 226.84 C 744.62 227.09 745.94 227.37 747.25 227.68 C 749.45 226.93 751.92 226.64 753.65 228.54 C 755.89 227.02 759.82 225.89 761.22 229.07 C 762.02 232.64 761.52 236.35 761.62 239.98 C 760.85 240.02 759.33 240.10 758.57 240.13 L 758.33 240.15 C 758.33 236.91 758.46 233.68 758.21 230.46 L 758.11 229.44 C 756.92 229.69 755.74 229.98 754.58 230.28 C 753.92 233.40 753.97 236.60 753.99 239.77 C 753.59 239.87 752.80 240.06 752.41 240.15 L 750.67 240.47 C 750.77 236.79 750.72 233.12 750.62 229.45 C 749.17 229.83 746.87 229.65 746.90 231.72 C 746.53 234.44 746.61 237.19 746.57 239.93 C 745.85 240.01 744.40 240.18 743.67 240.27 L 743.35 240.31 C 743.34 235.82 743.35 231.33 743.32 226.84 Z" />
<path fill="#8b8238" d=" M 764.00 227.00 L 765.00 226.94 C 765.01 233.07 764.96 239.20 765.03 245.33 L 764.00 244.97 C 763.99 238.98 763.99 232.99 764.00 227.00 Z" />
<path fill="#000000" d=" M 765.00 226.94 C 765.57 226.99 766.72 227.08 767.30 227.13 C 766.53 228.54 766.88 228.93 768.35 228.29 C 769.82 227.08 771.92 226.43 773.68 227.52 C 776.82 229.23 776.94 233.44 776.32 236.54 C 775.00 240.20 770.66 240.73 767.79 238.57 L 767.49 238.44 C 766.62 240.49 766.54 242.83 767.43 244.90 L 766.50 245.08 L 765.03 245.33 C 764.96 239.20 765.01 233.07 765.00 226.94 Z" />
<path fill="#0e3383" d=" M 767.30 227.13 C 767.56 227.42 768.08 228.00 768.35 228.29 C 766.88 228.93 766.53 228.54 767.30 227.13 Z" />
<path fill="#000000" d=" M 786.95 228.71 C 788.73 227.31 791.01 226.56 793.28 227.14 C 794.47 228.29 795.66 229.46 796.79 230.68 C 796.93 231.48 797.21 233.08 797.35 233.88 C 794.38 234.08 791.41 234.08 788.45 234.31 C 789.51 235.57 790.65 236.77 791.83 237.95 C 792.34 237.32 793.36 236.08 793.87 235.45 C 794.88 235.57 796.92 235.80 797.93 235.92 C 796.44 237.41 795.20 239.60 792.91 239.93 C 791.14 240.00 789.40 239.65 787.66 239.47 C 785.97 236.10 785.46 232.26 786.95 228.71 Z" />
<path fill="#4e7dbb" d=" M 793.28 227.14 C 795.30 225.66 798.36 228.65 796.79 230.68 C 795.66 229.46 794.47 228.29 793.28 227.14 Z" />
<path fill="#4c422a" d=" M 799.96 231.33 C 797.88 230.32 800.05 226.86 801.94 227.31 C 801.50 228.75 800.87 230.13 799.96 231.33 Z" />
<path fill="#000000" d=" M 801.94 227.31 C 804.40 226.98 807.98 226.35 809.35 229.08 C 809.87 232.16 809.57 235.31 809.96 238.41 L 810.01 239.21 L 810.07 240.20 C 809.54 240.08 808.46 239.83 807.93 239.71 C 807.38 239.51 806.85 239.31 806.33 239.10 C 804.33 239.76 801.97 240.63 800.11 239.14 C 797.88 238.11 798.52 235.38 799.53 233.70 C 800.24 233.40 801.64 232.81 802.35 232.52 C 803.59 232.21 804.83 231.90 806.09 231.60 C 807.54 230.92 807.52 230.34 806.05 229.84 C 805.57 229.79 804.62 229.70 804.14 229.65 C 802.74 230.21 801.36 230.80 799.96 231.33 C 800.87 230.13 801.50 228.75 801.94 227.31 Z" />
<path fill="#000000" d=" M 827.26 231.00 C 828.24 227.78 832.10 226.31 835.18 227.20 C 836.38 228.18 837.55 229.24 838.97 229.95 L 838.94 231.29 C 838.80 232.89 838.98 234.50 839.45 236.04 C 838.46 237.43 837.42 238.99 835.72 239.57 C 833.10 240.81 830.39 239.24 828.02 238.18 C 827.12 235.93 826.21 233.36 827.26 231.00 Z" />
<path fill="#5387c7" d=" M 835.18 227.20 C 836.80 225.72 839.90 227.98 838.97 229.95 C 837.55 229.24 836.38 228.18 835.18 227.20 Z" />
<path fill="#c4dbf6" d=" M 130.08 227.53 C 131.30 228.25 132.12 229.27 132.54 230.57 C 132.40 232.24 132.27 233.91 132.17 235.58 C 132.01 237.44 131.65 239.29 131.30 241.13 C 130.43 241.13 128.69 241.13 127.82 241.12 L 127.88 240.01 L 129.06 239.99 L 130.00 239.97 C 129.99 235.82 129.94 231.67 130.08 227.53 Z" />
<path fill="#ffffff" d=" M 167.43 227.75 L 167.68 227.94 C 168.10 228.42 168.94 229.37 169.36 229.85 L 169.16 230.36 C 168.48 230.52 167.13 230.82 166.45 230.98 C 166.43 233.04 166.41 235.11 166.42 237.17 C 166.12 237.04 165.54 236.78 165.25 236.65 C 165.16 234.34 165.20 232.03 165.19 229.72 C 165.79 229.66 166.98 229.54 167.58 229.48 L 167.43 227.75 Z" />
<path fill="#838a6e" d=" M 132.54 230.57 C 132.90 230.10 133.61 229.14 133.97 228.66 C 132.46 232.22 132.97 236.08 134.65 239.47 C 133.76 238.22 132.83 236.97 132.17 235.58 C 132.27 233.91 132.40 232.24 132.54 230.57 Z" />
<path fill="#ffffff" d=" M 135.57 231.80 C 136.90 229.28 140.22 228.68 141.47 231.64 C 139.51 231.78 137.54 231.86 135.57 231.80 Z" />
<path fill="#070b36" d=" M 157.42 228.45 C 157.50 228.74 157.65 229.34 157.73 229.64 C 158.14 233.02 158.01 236.44 158.00 239.85 L 157.16 239.97 C 157.20 236.13 157.32 232.29 157.42 228.45 Z" />
<path fill="#ffffff" d=" M 174.50 229.48 C 175.90 229.42 176.68 230.73 177.51 231.63 C 175.52 231.78 173.53 231.85 171.54 231.79 C 172.45 230.97 173.19 229.69 174.50 229.48 Z" />
<path fill="#ffffff" d=" M 746.90 231.72 C 746.87 229.65 749.17 229.83 750.62 229.45 C 750.72 233.12 750.77 236.79 750.67 240.47 C 750.14 237.14 750.17 233.77 749.95 230.42 C 746.29 232.75 748.01 237.52 747.76 241.10 C 746.37 240.88 745.01 240.62 743.67 240.27 C 744.40 240.18 745.85 240.01 746.57 239.93 L 746.99 239.86 C 747.04 237.15 746.91 234.43 746.90 231.72 Z" />
<path fill="#838a6e" d=" M 785.37 230.75 C 785.76 230.24 786.55 229.22 786.95 228.71 C 785.46 232.26 785.97 236.10 787.66 239.47 C 786.76 238.23 785.83 237.00 785.16 235.62 C 785.21 233.99 785.28 232.37 785.37 230.75 Z" />
<path fill="#ffffff" d=" M 788.52 231.79 C 789.55 230.93 790.41 229.27 791.99 229.53 C 792.96 230.03 793.89 230.61 794.78 231.28 C 792.74 231.84 790.61 231.91 788.52 231.79 Z" />
<path fill="#ffffff" d=" M 816.06 229.86 C 817.52 229.58 818.98 229.66 820.38 230.22 L 820.11 230.35 C 819.42 230.65 818.05 231.25 817.36 231.55 C 816.97 232.72 816.61 233.90 816.26 235.08 C 816.19 233.56 816.13 232.05 816.08 230.53 L 816.06 229.86 Z" />
<path fill="#ffffff" d=" M 831.64 229.75 C 832.95 229.84 834.25 229.94 835.58 230.07 L 835.27 230.24 C 834.57 230.58 833.18 231.28 832.48 231.63 C 832.01 232.78 831.57 233.93 831.12 235.08 C 831.29 233.30 831.48 231.53 831.64 229.75 Z" />
<path fill="#cedce7" d=" M 149.93 231.56 C 150.43 229.76 152.42 229.68 153.93 229.42 L 153.87 230.25 C 150.32 232.80 151.47 237.39 151.20 241.14 C 150.19 241.03 148.18 240.82 147.17 240.71 L 148.36 240.09 L 148.86 240.00 L 150.01 239.82 C 149.99 237.06 149.92 234.31 149.93 231.56 Z" />
<path fill="#919255" d=" M 153.93 229.42 L 154.80 230.18 C 155.08 233.53 155.01 236.89 155.03 240.26 L 154.09 239.98 C 154.07 236.73 153.93 233.49 153.87 230.25 L 153.93 229.42 Z" />
<path fill="#c4dbf5" d=" M 157.73 229.64 C 161.30 232.10 159.06 237.27 159.71 240.92 C 158.20 240.95 156.70 240.97 155.20 240.96 L 156.40 240.08 L 157.16 239.97 L 158.00 239.85 C 158.01 236.44 158.14 233.02 157.73 229.64 Z" />
<path fill="#d2e0ee" d=" M 739.76 230.06 L 741.14 230.02 C 741.15 230.78 741.18 232.30 741.19 233.06 C 738.39 233.08 735.60 233.10 732.81 233.13 C 732.76 234.41 732.72 235.71 732.69 237.00 C 732.29 237.00 731.51 237.00 731.12 237.00 C 731.11 235.33 731.11 233.66 731.12 232.00 C 733.98 232.00 736.85 232.00 739.73 232.00 C 739.74 231.51 739.75 230.55 739.76 230.06 Z" />
<path fill="#d8e0f5" d=" M 754.58 230.28 C 755.74 229.98 756.92 229.69 758.11 229.44 L 758.21 230.46 C 754.27 232.36 756.17 237.49 755.76 240.95 C 754.26 240.95 752.77 240.92 751.28 240.88 L 752.41 240.15 C 752.80 240.06 753.59 239.87 753.99 239.77 L 754.72 239.57 C 754.87 236.47 754.73 233.37 754.58 230.28 Z" />
<path fill="#dbe5f1" d=" M 762.13 239.95 C 762.04 236.50 761.84 232.99 762.66 229.60 C 763.29 233.45 763.20 237.36 763.14 241.25 C 761.57 241.02 759.94 240.98 758.57 240.13 C 759.33 240.10 760.85 240.02 761.62 239.98 L 762.13 239.95 Z" />
<path fill="#ffffff" d=" M 767.85 235.45 C 767.73 233.09 767.76 229.72 770.89 229.49 C 771.48 229.90 772.66 230.73 773.25 231.14 C 772.45 231.13 770.86 231.11 770.06 231.10 C 769.31 232.54 768.55 233.98 767.85 235.45 Z" />
<path fill="#ffffff" d=" M 799.96 231.33 C 801.36 230.80 802.74 230.21 804.14 229.65 C 804.62 229.70 805.57 229.79 806.05 229.84 C 806.06 230.28 806.08 231.16 806.09 231.60 C 804.83 231.90 803.59 232.21 802.35 232.52 C 801.53 232.15 800.73 231.76 799.96 231.33 Z" />
<path fill="#886836" d=" M 806.05 229.84 C 807.52 230.34 807.54 230.92 806.09 231.60 C 806.08 231.16 806.06 230.28 806.05 229.84 Z" />
<path fill="#898c69" d=" M 820.38 230.22 L 820.67 230.09 C 821.18 232.68 821.26 235.42 819.49 237.56 C 819.72 235.16 819.89 232.75 820.11 230.35 L 820.38 230.22 Z" />
<path fill="#99ccff" d=" M 830.63 235.64 C 829.40 233.63 830.57 231.51 831.64 229.75 C 831.48 231.53 831.29 233.30 831.12 235.08 C 831.57 233.93 832.01 232.78 832.48 231.63 C 833.18 231.28 834.57 230.58 835.27 230.24 C 835.52 231.75 835.84 233.26 836.15 234.78 C 835.86 237.48 831.60 238.16 830.63 235.64 Z" />
<path fill="#583312" d=" M 835.58 230.07 C 837.53 230.20 837.99 234.38 836.15 234.78 C 835.84 233.26 835.52 231.75 835.27 230.24 L 835.58 230.07 Z" />
<path fill="#8bb8d3" d=" M 753.99 239.77 C 753.97 236.60 753.92 233.40 754.58 230.28 C 754.73 233.37 754.87 236.47 754.72 239.57 L 753.99 239.77 Z" />
<path fill="#99ccff" d=" M 770.06 231.10 C 770.86 231.11 772.45 231.13 773.25 231.14 C 772.87 233.04 772.68 234.97 772.35 236.87 C 770.64 237.83 768.72 237.07 767.85 235.45 C 768.55 233.98 769.31 232.54 770.06 231.10 Z" />
<path fill="#54310d" d=" M 773.25 231.14 C 775.04 232.17 774.74 236.72 772.35 236.87 C 772.68 234.97 772.87 233.04 773.25 231.14 Z" />
<path fill="#ffffff" d=" M 777.49 231.21 L 777.86 231.23 C 777.57 233.91 778.35 237.16 776.28 239.30 C 774.54 241.58 771.43 240.48 769.03 240.54 C 768.96 242.33 768.89 244.14 768.84 245.94 C 767.92 245.86 766.09 245.69 765.18 245.60 L 766.50 245.08 L 767.43 244.90 L 767.81 244.82 C 768.49 242.80 768.45 240.59 767.79 238.57 C 770.66 240.73 775.00 240.20 776.32 236.54 C 777.18 234.90 777.17 233.00 777.49 231.21 Z" />
<path fill="#370d00" d=" M 812.15 236.26 C 811.27 234.61 811.15 232.34 812.11 230.72 C 813.04 232.42 813.02 234.53 812.15 236.26 Z" />
<path fill="#99ccff" d=" M 819.49 237.56 C 815.47 238.07 813.90 233.36 816.08 230.53 C 816.13 232.05 816.19 233.56 816.26 235.08 C 816.61 233.90 816.97 232.72 817.36 231.55 C 818.05 231.25 819.42 230.65 820.11 230.35 C 819.89 232.75 819.72 235.16 819.49 237.56 Z" />
<path fill="#345895" d=" M 838.94 231.29 C 839.25 231.39 839.88 231.58 840.19 231.68 C 840.42 233.14 840.33 234.79 839.45 236.04 C 838.98 234.50 838.80 232.89 838.94 231.29 Z" />
<path fill="#050533" d=" M 148.86 240.00 C 149.00 237.17 149.13 234.30 149.93 231.56 C 149.92 234.31 149.99 237.06 150.01 239.82 L 148.86 240.00 Z" />
<path fill="#99ccff" d=" M 746.57 239.93 C 746.61 237.19 746.53 234.44 746.90 231.72 C 746.91 234.43 747.04 237.15 746.99 239.86 L 746.57 239.93 Z" />
<path fill="#ffffff" d=" M 840.19 231.68 C 842.45 235.37 839.54 240.97 835.11 240.88 C 832.40 241.25 830.00 239.83 828.02 238.18 C 830.39 239.24 833.10 240.81 835.72 239.57 C 837.42 238.99 838.46 237.43 839.45 236.04 C 840.33 234.79 840.42 233.14 840.19 231.68 Z" />
<path fill="#e5e8ef" d=" M 144.34 233.74 C 144.76 233.67 145.60 233.52 146.02 233.45 C 146.02 233.80 146.02 234.51 146.02 234.86 C 142.82 234.68 139.02 236.26 136.24 234.17 C 138.94 234.01 141.65 234.06 144.34 233.74 Z" />
<path fill="#e5e8ef" d=" M 180.37 233.80 C 180.87 233.76 181.87 233.69 182.37 233.65 C 179.86 236.13 175.86 234.81 172.71 235.26 L 172.76 234.09 C 175.29 234.02 177.83 233.98 180.37 233.80 Z" />
<path fill="#ffffff" d=" M 797.35 233.88 C 798.06 233.83 798.80 233.77 799.53 233.70 C 798.52 235.38 797.88 238.11 800.11 239.14 C 801.97 240.63 804.33 239.76 806.33 239.10 C 806.85 239.31 807.38 239.51 807.93 239.71 C 808.46 239.83 809.54 240.08 810.07 240.20 C 810.62 240.31 811.72 240.54 812.26 240.65 C 807.52 240.40 802.14 241.93 798.25 238.40 C 795.51 241.48 791.02 241.48 787.66 239.47 C 789.40 239.65 791.14 240.00 792.91 239.93 C 795.20 239.60 796.44 237.41 797.93 235.92 C 796.92 235.80 794.88 235.57 793.87 235.45 C 793.36 236.08 792.34 237.32 791.83 237.95 C 790.65 236.77 789.51 235.57 788.45 234.31 C 791.41 234.08 794.38 234.08 797.35 233.88 Z" />
<path fill="#ffffff" d=" M 802.25 236.83 C 801.37 234.20 804.88 234.27 806.52 233.96 C 806.29 234.54 805.84 235.69 805.62 236.27 C 805.68 238.05 803.09 237.67 802.25 236.83 Z" />
<path fill="#8c6b3e" d=" M 806.52 233.96 C 808.32 234.06 807.04 237.42 805.62 236.27 C 805.84 235.69 806.29 234.54 806.52 233.96 Z" />
<path fill="#ffffff" d=" M 116.75 235.74 L 118.01 234.77 C 118.06 239.75 111.75 242.68 107.82 239.92 C 111.43 240.61 115.08 239.07 116.75 235.74 Z" />
<path fill="#ffffff" d=" M 139.98 239.93 C 141.96 239.79 143.54 238.38 145.28 237.57 C 143.32 241.73 138.11 241.54 134.65 239.47 C 136.42 239.65 138.19 240.01 139.98 239.93 Z" />
<path fill="#ffffff" d=" M 175.91 239.96 C 177.97 239.79 179.60 238.34 181.40 237.50 C 179.36 241.59 174.15 241.70 170.71 239.40 C 172.43 239.63 174.16 240.01 175.91 239.96 Z" />
<path fill="#ebedf0" d=" M 740.85 237.63 C 741.45 238.68 742.01 239.77 742.51 240.89 C 737.94 241.08 733.37 241.02 728.80 241.00 L 728.72 240.02 C 732.71 239.98 736.71 240.00 740.72 240.00 C 740.75 239.40 740.81 238.22 740.85 237.63 Z" />
<path fill="#0c1549" d=" M 767.49 238.44 L 767.79 238.57 C 768.45 240.59 768.49 242.80 767.81 244.82 L 767.43 244.90 C 766.54 242.83 766.62 240.49 767.49 238.44 Z" />
<path fill="#e2e7f0" d=" M 166.83 239.44 C 167.36 239.47 168.42 239.52 168.95 239.55 C 169.11 241.48 164.94 241.86 164.48 240.35 C 165.07 240.12 166.24 239.66 166.83 239.44 Z" />
</svg>
