<svg xmlns="http://www.w3.org/2000/svg" xmlns:xlink="http://www.w3.org/1999/xlink" width="540" height="560"><g transform="translate(-340 -300)"><path d="M708 320c17.67 0 32 8.95 32 20s-14.33 20-32 20h-96c-17.67 0-32-8.95-32-20s14.33-20 32-20z" stroke="#000" stroke-width="2" fill="#fff"/><use xlink:href="#a" transform="matrix(1,0,0,1,580,320) translate(59.05500000000001 24.4)"/><path d="M488 660c17.67 0 32 8.95 32 20s-14.33 20-32 20h-96c-17.67 0-32-8.95-32-20s14.33-20 32-20z" stroke="#000" stroke-width="2" fill="#fff"/><use xlink:href="#b" transform="matrix(1,0,0,1,360,660) translate(67.555 24.4)"/><path d="M656 623c2.2-1.66 5.8-1.66 8 0l72 54c2.2 1.66 2.2 4.34 0 6l-72 54c-2.2 1.66-5.8 1.66-8 0l-72-54c-2.2-1.66-2.2-4.34 0-6z" stroke="#000" stroke-width="2" fill="#fff"/><use xlink:href="#c" transform="matrix(1,0,0,1,580,620) translate(30.779999999999998 63.15)"/><path d="M720 725c0-2.76 2.24-5 5-5h130c2.76 0 5 2.24 5 5v110c0 2.76-2.24 5-5 5H725c-2.76 0-5-2.24-5-5z" stroke="#000" stroke-width="2" fill="#fff"/><use xlink:href="#d" transform="matrix(1,0,0,1,720,720) translate(25.805 63.15)"/><use xlink:href="#e" transform="matrix(1,0,0,1,720,720) translate(36.755 63.15)"/><use xlink:href="#f" transform="matrix(1,0,0,1,720,720) translate(52.255 63.15)"/><use xlink:href="#g" transform="matrix(1,0,0,1,720,720) translate(63.205 63.15)"/><use xlink:href="#h" transform="matrix(1,0,0,1,720,720) translate(75.205 63.15)"/><path d="M660 360v46" stroke="#000" stroke-width="2" fill="none"/><path d="M660 406l-4.64-14.27h9.28z" stroke="#000" stroke-width="2"/><path d="M660 580v40" stroke="#000" stroke-width="2" fill="none"/><path d="M660 620l-4.64-14.27h9.28z"/><path d="M660.46 621.82l-.46-.06-.46.06-5.55-17.1h12zm-3.72-15.1l3.26 10.04 3.26-10.03z"/><path d="M660 460v48" stroke="#000" stroke-width="2" fill="none"/><path d="M660 508l-4.64-14.27h9.28z" stroke="#000" stroke-width="2"/><path d="M660 740v35c0 2.76 2.24 5 5 5h55" stroke="#000" stroke-width="2" fill="none"/><path d="M661 740h-2v-1.9l1 .14 1-.14zM720 780l-14.27 4.64v-9.28z"/><path d="M720 778.95v2.1L704.73 786v-12zm-13.27 4.3l10.03-3.25-10.03-3.26z"/><use xlink:href="#i" transform="matrix(1,0,0,1,622.6500000000001,754.1350918637368) translate(0 14.4)"/><path d="M580 680h-60" stroke="#000" stroke-width="2" fill="none"/><path d="M582.53 681H580v-2h2.53zM534.27 684.64L520 680l14.27-4.64z"/><path d="M535.27 686l-15.35-4.97.08-1.03v-.1l-.08-.93 15.35-4.98zm-12.03-6l10.03 3.26v-6.52z"/><use xlink:href="#j" transform="matrix(1,0,0,1,535.5212144969114,654.4000000000001) translate(0 14.4)"/><path d="M580 415c0-2.76 2.23-5.14 5-5.3l150-9.4c2.77-.16 5 1.94 5 4.7v50c0 2.76-2.24 5-5 5H585c-2.76 0-5-2.24-5-5z" stroke="#000" stroke-width="2" fill="#fff"/><use xlink:href="#k" transform="matrix(1,0,0,1,580,400) translate(11.554999999999987 33.15)"/><use xlink:href="#l" transform="matrix(1,0,0,1,580,400) translate(91.505 33.15)"/><use xlink:href="#h" transform="matrix(1,0,0,1,580,400) translate(110.455 33.15)"/><path d="M580 518.33c0-2.76 2.23-5.18 4.98-5.4l150.04-12.5c2.75-.24 4.98 1.8 4.98 4.57v70c0 2.76-2.24 5-5 5H585c-2.76 0-5-2.24-5-5z" stroke="#000" stroke-width="2" fill="#fff"/><g><use xlink:href="#k" transform="matrix(1,0,0,1,580,500) translate(35.55499999999999 31.9)"/><use xlink:href="#m" transform="matrix(1,0,0,1,580,500) translate(115.505 31.9)"/><use xlink:href="#n" transform="matrix(1,0,0,1,580,500) translate(38.004999999999995 53.5)"/></g><path d="M790 720v-35c0-2.76-2.24-5-5-5h-45" stroke="#000" stroke-width="2" fill="none"/><path d="M754.27 684.64L740 680l14.27-4.64z"/><path d="M755.27 686l-17.8-5.77v-.46l17.8-5.78zm-12.03-6l10.03 3.26v-6.52z"/><defs><path d="M33 0v-248h34V0H33" id="o"/><path d="M117-194c89-4 53 116 60 194h-32v-121c0-31-8-49-39-48C34-167 62-67 57 0H25l-1-190h30c1 10-1 24 2 32 11-22 29-35 61-36" id="p"/><path d="M24-231v-30h32v30H24zM24 0v-190h32V0H24" id="q"/><path d="M96-169c-40 0-48 33-48 73s9 75 48 75c24 0 41-14 43-38l32 2c-6 37-31 61-74 61-59 0-76-41-82-99-10-93 101-131 147-64 4 7 5 14 7 22l-32 3c-4-21-16-35-41-35" id="r"/><path d="M100-194c62-1 85 37 85 99 1 63-27 99-86 99S16-35 15-95c0-66 28-99 85-99zM99-20c44 1 53-31 53-75 0-43-8-75-51-75s-53 32-53 75 10 74 51 75" id="s"/><g id="a"><use transform="matrix(0.05,0,0,0.05,0,0)" xlink:href="#o"/><use transform="matrix(0.05,0,0,0.05,5,0)" xlink:href="#p"/><use transform="matrix(0.05,0,0,0.05,15,0)" xlink:href="#q"/><use transform="matrix(0.05,0,0,0.05,18.95,0)" xlink:href="#r"/><use transform="matrix(0.05,0,0,0.05,27.950000000000003,0)" xlink:href="#q"/><use transform="matrix(0.05,0,0,0.05,31.899999999999995,0)" xlink:href="#s"/></g><path d="M63-220v92h138v28H63V0H30v-248h175v28H63" id="t"/><g id="b"><use transform="matrix(0.05,0,0,0.05,0,0)" xlink:href="#t"/><use transform="matrix(0.05,0,0,0.05,10.950000000000001,0)" xlink:href="#q"/><use transform="matrix(0.05,0,0,0.05,14.9,0)" xlink:href="#p"/></g><path d="M18-100v-36l175-74v27L42-118l151 64v27" id="u"/><path d="M100-194c63 0 86 42 84 106H49c0 40 14 67 53 68 26 1 43-12 49-29l28 8c-11 28-37 45-77 45C44 4 14-33 15-96c1-61 26-98 85-98zm52 81c6-60-76-77-97-28-3 7-6 17-6 28h103" id="v"/><path d="M141 0L90-78 38 0H4l68-98-65-92h35l48 74 47-74h35l-64 92 68 98h-35" id="w"/><path d="M115-194c55 1 70 41 70 98S169 2 115 4C84 4 66-9 55-30l1 105H24l-1-265h31l2 30c10-21 28-34 59-34zm-8 174c40 0 45-34 45-75s-6-73-45-74c-42 0-51 32-51 76 0 43 10 73 51 73" id="x"/><path d="M59-47c-2 24 18 29 38 22v24C64 9 27 4 27-40v-127H5v-23h24l9-43h21v43h35v23H59v120" id="y"/><g id="c"><use transform="matrix(0.05,0,0,0.05,0,0)" xlink:href="#q"/><use transform="matrix(0.05,0,0,0.05,3.95,0)" xlink:href="#u"/><use transform="matrix(0.05,0,0,0.05,14.449999999999998,0)" xlink:href="#v"/><use transform="matrix(0.05,0,0,0.05,24.45,0)" xlink:href="#w"/><use transform="matrix(0.05,0,0,0.05,33.45,0)" xlink:href="#x"/><use transform="matrix(0.05,0,0,0.05,43.45,0)" xlink:href="#s"/><use transform="matrix(0.05,0,0,0.05,53.45,0)" xlink:href="#p"/><use transform="matrix(0.05,0,0,0.05,63.45,0)" xlink:href="#v"/><use transform="matrix(0.05,0,0,0.05,73.45,0)" xlink:href="#p"/><use transform="matrix(0.05,0,0,0.05,83.45,0)" xlink:href="#y"/><use transform="matrix(0.05,0,0,0.05,88.45,0)" xlink:href="#v"/></g><path d="M114-163C36-179 61-72 57 0H25l-1-190h30c1 12-1 29 2 39 6-27 23-49 58-41v29" id="z"/><use transform="matrix(0.05,0,0,0.05,0,0)" xlink:href="#z" id="d"/><path d="M18-150v-26h174v26H18zm0 90v-26h174v26H18" id="A"/><use transform="matrix(0.05,0,0,0.05,0,0)" xlink:href="#A" id="e"/><use transform="matrix(0.05,0,0,0.05,0,0)" xlink:href="#z" id="f"/><path d="M80-196l47-18 7 23-49 13 32 44-20 13-27-46-27 45-21-12 33-44-49-13 8-23 47 19-2-53h23" id="B"/><use transform="matrix(0.05,0,0,0.05,0,0)" xlink:href="#B" id="g"/><path d="M115-194c53 0 69 39 70 98 0 66-23 100-70 100C84 3 66-7 56-30L54 0H23l1-261h32v101c10-23 28-34 59-34zm-8 174c40 0 45-34 45-75 0-40-5-75-45-74-42 0-51 32-51 76 0 43 10 73 51 73" id="C"/><path d="M141-36C126-15 110 5 73 4 37 3 15-17 15-53c-1-64 63-63 125-63 3-35-9-54-41-54-24 1-41 7-42 31l-33-3c5-37 33-52 76-52 45 0 72 20 72 64v82c-1 20 7 32 28 27v20c-31 9-61-2-59-35zM48-53c0 20 12 33 32 33 41-3 63-29 60-74-43 2-92-5-92 41" id="D"/><path d="M135-143c-3-34-86-38-87 0 15 53 115 12 119 90S17 21 10-45l28-5c4 36 97 45 98 0-10-56-113-15-118-90-4-57 82-63 122-42 12 7 21 19 24 35" id="E"/><g id="h"><use transform="matrix(0.05,0,0,0.05,0,0)" xlink:href="#C"/><use transform="matrix(0.05,0,0,0.05,10,0)" xlink:href="#D"/><use transform="matrix(0.05,0,0,0.05,20,0)" xlink:href="#E"/><use transform="matrix(0.05,0,0,0.05,29,0)" xlink:href="#v"/></g><path d="M137-103V0h-34v-103L8-248h37l75 118 75-118h37" id="F"/><g id="i"><use transform="matrix(0.05,0,0,0.05,0,0)" xlink:href="#F"/><use transform="matrix(0.05,0,0,0.05,10.35,0)" xlink:href="#v"/><use transform="matrix(0.05,0,0,0.05,20.35,0)" xlink:href="#E"/></g><path d="M190 0L58-211 59 0H30v-248h39L202-35l-2-213h31V0h-41" id="G"/><g id="j"><use transform="matrix(0.05,0,0,0.05,0,0)" xlink:href="#G"/><use transform="matrix(0.05,0,0,0.05,12.950000000000001,0)" xlink:href="#s"/></g><path d="M85-194c31 0 48 13 60 33l-1-100h32l1 261h-30c-2-10 0-23-3-31C134-8 116 4 85 4 32 4 16-35 15-94c0-66 23-100 70-100zm9 24c-40 0-46 34-46 75 0 40 6 74 45 74 42 0 51-32 51-76 0-42-9-74-50-73" id="H"/><path d="M84 4C-5 8 30-112 23-190h32v120c0 31 7 50 39 49 72-2 45-101 50-169h31l1 190h-30c-1-10 1-25-2-33-11 22-28 36-60 37" id="I"/><g id="k"><use transform="matrix(0.05,0,0,0.05,0,0)" xlink:href="#o"/><use transform="matrix(0.05,0,0,0.05,5,0)" xlink:href="#p"/><use transform="matrix(0.05,0,0,0.05,15,0)" xlink:href="#y"/><use transform="matrix(0.05,0,0,0.05,20,0)" xlink:href="#z"/><use transform="matrix(0.05,0,0,0.05,25.950000000000003,0)" xlink:href="#s"/><use transform="matrix(0.05,0,0,0.05,35.95,0)" xlink:href="#H"/><use transform="matrix(0.05,0,0,0.05,45.95,0)" xlink:href="#I"/><use transform="matrix(0.05,0,0,0.05,55.95,0)" xlink:href="#r"/><use transform="matrix(0.05,0,0,0.05,64.95,0)" xlink:href="#v"/></g><path d="M24 0v-261h32V0H24" id="J"/><g id="l"><use transform="matrix(0.05,0,0,0.05,0,0)" xlink:href="#J"/><use transform="matrix(0.05,0,0,0.05,3.95,0)" xlink:href="#D"/></g><g id="m"><use transform="matrix(0.05,0,0,0.05,0,0)" xlink:href="#v"/><use transform="matrix(0.05,0,0,0.05,10,0)" xlink:href="#J"/></g><g id="n"><use transform="matrix(0.05,0,0,0.05,0,0)" xlink:href="#v"/><use transform="matrix(0.05,0,0,0.05,10,0)" xlink:href="#w"/><use transform="matrix(0.05,0,0,0.05,19,0)" xlink:href="#x"/><use transform="matrix(0.05,0,0,0.05,29,0)" xlink:href="#s"/><use transform="matrix(0.05,0,0,0.05,39,0)" xlink:href="#p"/><use transform="matrix(0.05,0,0,0.05,49,0)" xlink:href="#v"/><use transform="matrix(0.05,0,0,0.05,59,0)" xlink:href="#p"/><use transform="matrix(0.05,0,0,0.05,69,0)" xlink:href="#y"/><use transform="matrix(0.05,0,0,0.05,74,0)" xlink:href="#v"/></g></defs></g></svg>