<svg xmlns="http://www.w3.org/2000/svg" xmlns:xlink="http://www.w3.org/1999/xlink" width="939.47" height="680"><g transform="translate(-71.5272406672 -160)"><path d="M658 180c17.67 0 32 17.9 32 40s-14.33 40-32 40h-96c-17.67 0-32-17.9-32-40s14.33-40 32-40z" stroke="#000" stroke-width="2" fill="#fff"/><use xlink:href="#a" transform="matrix(1,0,0,1,530,180) translate(59.055 44.4)"/><path d="M610 260v80" stroke="#000" stroke-width="2" fill="none"/><path d="M610 340l-4.64-14.27h9.28z"/><path d="M611.05 340h-2.1L604 324.73h12zm-4.3-13.27l3.25 10.03 3.26-10.03z"/><path d="M610 460v60" stroke="#000" stroke-width="2" fill="none"/><path d="M610 520l-4.64-14.27h9.28z"/><path d="M610.5 521.7l-.67-.07-.34.04-5.5-16.94h12zm-3.76-14.97l3.26 10.03 3.26-10.03z"/><path d="M605.84 522.77c2.3-1.53 6.02-1.53 8.32 0l81.68 54.46c2.3 1.53 2.3 4 0 5.54l-81.68 54.46c-2.3 1.53-6.02 1.53-8.32 0l-81.68-54.46c-2.3-1.53-2.3-4 0-5.54z" stroke="#000" stroke-width="2" fill="#fff"/><use xlink:href="#b" transform="matrix(1,0,0,1,520,520) translate(37.705 63.15)"/><use xlink:href="#c" transform="matrix(1,0,0,1,520,520) translate(103.605 63.15)"/><use xlink:href="#d" transform="matrix(1,0,0,1,520,520) translate(129.60500000000002 63.15)"/><path d="M698.28 580H800" stroke="#000" stroke-width="2" fill="none"/><path d="M698.28 581h-1.02l.17-1.83-.14-.17h.98zM800 580l-14.27 4.64v-9.28z"/><path d="M801.44 579.42l-.05 1.03v.14l-16.67 5.4v-12zm-14.7 3.84l10.02-3.26-10.03-3.26z"/><use xlink:href="#e" transform="matrix(1,0,0,1,748.4970559713851,554.4) translate(0 14.4)"/><path d="M522.84 580H444M522.84 580h3" stroke="#000" stroke-width="2" fill="none"/><path d="M458.27 584.64L444 580l14.27-4.64z"/><path d="M459.27 586l-15.53-5.03.57-2.12 14.97-4.86zm-12.03-6l10.03 3.26v-6.52z"/><use xlink:href="#f" transform="matrix(1,0,0,1,471.9465728753,554.4) translate(0 14.4)"/><path d="M829.65 524.4c1.3-2.42 4.6-4.4 7.35-4.4h107c8.84 0 16 26.86 16 60s-7.16 60-16 60H837c-2.76 0-6.05-1.98-7.35-4.4l-27.3-51.2c-1.3-2.42-1.3-6.38 0-8.8z" stroke="#000" stroke-width="2" fill="#fff"/><use xlink:href="#g" transform="matrix(1,0,0,1,800,520) translate(64.08 63.15)"/><path d="M960 580h35c2.76 0 5-2.24 5-5V405c0-2.76-2.24-5-5-5H674" stroke="#000" stroke-width="2" fill="none"/><path d="M960 581h-.04l.04-1-.03-1h.03zM688.27 404.64L674 400l14.27-4.64z"/><path d="M689.27 406l-15.53-5.03.57-2.12 14.97-4.86zm-12.03-6l10.03 3.26v-6.52z"/><path d="M196 703c2.2-1.66 5.8-1.66 8 0l72 54c2.2 1.66 2.2 4.34 0 6l-72 54c-2.2 1.66-5.8 1.66-8 0l-72-54c-2.2-1.66-2.2-4.34 0-6z" stroke="#000" stroke-width="2" fill="#fff"/><use xlink:href="#h" transform="matrix(1,0,0,1,120,700) translate(45.58 63.15)"/><path d="M316 580H205c-2.76 0-5 2.24-5 5v115" stroke="#000" stroke-width="2" fill="none"/><path d="M316 580v-1h.27zM200 700l-4.64-14.27h9.28z"/><path d="M200.46 701.82l-.46-.06-.46.06-5.55-17.1h12zm-3.72-15.1l3.26 10.04 3.26-10.03z"/><path d="M277.47 760H400" stroke="#000" stroke-width="2" fill="none"/><path d="M400 760l-14.27 4.64v-9.28z"/><path d="M401.44 759.42l-.05 1.03v.14l-16.67 5.4v-12zm-14.7 3.84l10.02-3.26-10.03-3.26z"/><use xlink:href="#i" transform="matrix(1,0,0,1,334.6583333333333,734.4) translate(0 14.4)"/><path d="M122.53 760h-35c-2.76 0-5-2.24-5-5V405c0-2.76 2.24-5 5-5H546" stroke="#000" stroke-width="2" fill="none"/><path d="M546 400l-14.27 4.64v-9.28z"/><path d="M546.26 399.03l-.57 2.12-14.97 4.86v-12zm-13.53 4.23l10.03-3.26-10.03-3.26z"/><use xlink:href="#f" transform="matrix(1,0,0,1,102.05224066720001,734.4) translate(0 14.4)"/><path d="M560.7 344.83c.72-2.67 3.54-4.83 6.3-4.83h118c2.76 0 4.42 2.16 3.7 4.83l-29.4 110.34c-.72 2.67-3.54 4.83-6.3 4.83H535c-2.76 0-4.42-2.16-3.7-4.83z" stroke="#000" stroke-width="2" fill="#fff"/><use xlink:href="#j" transform="matrix(1,0,0,1,530,340) translate(35.53 51.9)"/><use xlink:href="#k" transform="matrix(1,0,0,1,530,340) translate(115.48 51.9)"/><use xlink:href="#l" transform="matrix(1,0,0,1,530,340) translate(46.55499999999999 73.5)"/><path d="M330.7 524.83c.72-2.67 3.54-4.83 6.3-4.83h118c2.76 0 4.42 2.16 3.7 4.83l-29.4 110.34c-.72 2.67-3.54 4.83-6.3 4.83H305c-2.76 0-4.42-2.16-3.7-4.83z" stroke="#000" stroke-width="2" fill="#fff"/><use xlink:href="#m" transform="matrix(1,0,0,1,300,520) translate(64.53 40.65)"/><use xlink:href="#n" transform="matrix(1,0,0,1,300,520) translate(43.55499999999999 62.25)"/><use xlink:href="#o" transform="matrix(1,0,0,1,300,520) translate(23.505 83.85000000000001)"/><use xlink:href="#p" transform="matrix(1,0,0,1,300,520) translate(71.505 83.85000000000001)"/><path d="M429.65 704.4c1.3-2.42 4.6-4.4 7.35-4.4h107c8.84 0 16 26.86 16 60s-7.16 60-16 60H437c-2.76 0-6.05-1.98-7.35-4.4l-27.3-51.2c-1.3-2.42-1.3-6.38 0-8.8z" stroke="#000" stroke-width="2" fill="#fff"/><use xlink:href="#q" transform="matrix(1,0,0,1,400,700) translate(33.08 51.9)"/><use xlink:href="#r" transform="matrix(1,0,0,1,400,700) translate(32.03 73.5)"/><use xlink:href="#s" transform="matrix(1,0,0,1,400,700) translate(66.03 73.5)"/><use xlink:href="#t" transform="matrix(1,0,0,1,400,700) translate(84.98 73.5)"/><use xlink:href="#u" transform="matrix(1,0,0,1,400,700) translate(128.98000000000002 73.5)"/><path d="M788 720c17.67 0 32 17.9 32 40s-14.33 40-32 40h-96c-17.67 0-32-17.9-32-40s14.33-40 32-40z" stroke="#000" stroke-width="2" fill="#fff"/><g><use xlink:href="#v" transform="matrix(1,0,0,1,660,720) translate(67.555 44.4)"/></g><path d="M561 760h98" stroke="#000" stroke-width="2" fill="none"/><path d="M561 761h-1.04l.04-1-.03-1H561zM659 760l-14.27 4.64v-9.28z"/><path d="M660.04 759.3l-.04.7.03.72-16.3 5.3v-12.03zm-14.3 3.96l10.02-3.26-10.03-3.26z"/><defs><path d="M33 0v-248h34V0H33" id="w"/><path d="M117-194c89-4 53 116 60 194h-32v-121c0-31-8-49-39-48C34-167 62-67 57 0H25l-1-190h30c1 10-1 24 2 32 11-22 29-35 61-36" id="x"/><path d="M24-231v-30h32v30H24zM24 0v-190h32V0H24" id="y"/><path d="M96-169c-40 0-48 33-48 73s9 75 48 75c24 0 41-14 43-38l32 2c-6 37-31 61-74 61-59 0-76-41-82-99-10-93 101-131 147-64 4 7 5 14 7 22l-32 3c-4-21-16-35-41-35" id="z"/><path d="M100-194c62-1 85 37 85 99 1 63-27 99-86 99S16-35 15-95c0-66 28-99 85-99zM99-20c44 1 53-31 53-75 0-43-8-75-51-75s-53 32-53 75 10 74 51 75" id="A"/><g id="a"><use transform="matrix(0.05,0,0,0.05,0,0)" xlink:href="#w"/><use transform="matrix(0.05,0,0,0.05,5,0)" xlink:href="#x"/><use transform="matrix(0.05,0,0,0.05,15,0)" xlink:href="#y"/><use transform="matrix(0.05,0,0,0.05,18.95,0)" xlink:href="#z"/><use transform="matrix(0.05,0,0,0.05,27.950000000000003,0)" xlink:href="#y"/><use transform="matrix(0.05,0,0,0.05,31.899999999999995,0)" xlink:href="#A"/></g><path d="M210-169c-67 3-38 105-44 169h-31v-121c0-29-5-50-35-48C34-165 62-65 56 0H25l-1-190h30c1 10-1 24 2 32 10-44 99-50 107 0 11-21 27-35 58-36 85-2 47 119 55 194h-31v-121c0-29-5-49-35-48" id="B"/><path d="M115-194c53 0 69 39 70 98 0 66-23 100-70 100C84 3 66-7 56-30L54 0H23l1-261h32v101c10-23 28-34 59-34zm-8 174c40 0 45-34 45-75 0-40-5-75-45-74-42 0-51 32-51 76 0 43 10 73 51 73" id="C"/><path d="M114-163C36-179 61-72 57 0H25l-1-190h30c1 12-1 29 2 39 6-27 23-49 58-41v29" id="D"/><path d="M100-194c63 0 86 42 84 106H49c0 40 14 67 53 68 26 1 43-12 49-29l28 8c-11 28-37 45-77 45C44 4 14-33 15-96c1-61 26-98 85-98zm52 81c6-60-76-77-97-28-3 7-6 17-6 28h103" id="E"/><g id="b"><use transform="matrix(0.05,0,0,0.05,0,0)" xlink:href="#x"/><use transform="matrix(0.05,0,0,0.05,10,0)" xlink:href="#A"/><use transform="matrix(0.05,0,0,0.05,20,0)" xlink:href="#B"/><use transform="matrix(0.05,0,0,0.05,34.95,0)" xlink:href="#C"/><use transform="matrix(0.05,0,0,0.05,44.95,0)" xlink:href="#D"/><use transform="matrix(0.05,0,0,0.05,50.900000000000006,0)" xlink:href="#E"/></g><path d="M18-150v-26h174v26H18zm0 90v-26h174v26H18" id="F"/><g id="c"><use transform="matrix(0.05,0,0,0.05,0,0)" xlink:href="#F"/><use transform="matrix(0.05,0,0,0.05,10.5,0)" xlink:href="#F"/></g><path d="M109-170H84l-4-78h32zm-65 0H19l-4-78h33" id="G"/><g id="d"><use transform="matrix(0.05,0,0,0.05,0,0)" xlink:href="#G"/><use transform="matrix(0.05,0,0,0.05,6.3500000000000005,0)" xlink:href="#G"/></g><path d="M137-103V0h-34v-103L8-248h37l75 118 75-118h37" id="H"/><path d="M135-143c-3-34-86-38-87 0 15 53 115 12 119 90S17 21 10-45l28-5c4 36 97 45 98 0-10-56-113-15-118-90-4-57 82-63 122-42 12 7 21 19 24 35" id="I"/><g id="e"><use transform="matrix(0.05,0,0,0.05,0,0)" xlink:href="#H"/><use transform="matrix(0.05,0,0,0.05,10.35,0)" xlink:href="#E"/><use transform="matrix(0.05,0,0,0.05,20.35,0)" xlink:href="#I"/></g><path d="M190 0L58-211 59 0H30v-248h39L202-35l-2-213h31V0h-41" id="J"/><g id="f"><use transform="matrix(0.05,0,0,0.05,0,0)" xlink:href="#J"/><use transform="matrix(0.05,0,0,0.05,12.950000000000001,0)" xlink:href="#A"/></g><path d="M30 0v-248h187v28H63v79h144v27H63v87h162V0H30" id="K"/><g id="g"><use transform="matrix(0.05,0,0,0.05,0,0)" xlink:href="#K"/><use transform="matrix(0.05,0,0,0.05,12,0)" xlink:href="#D"/><use transform="matrix(0.05,0,0,0.05,17.95,0)" xlink:href="#D"/><use transform="matrix(0.05,0,0,0.05,23.9,0)" xlink:href="#A"/><use transform="matrix(0.05,0,0,0.05,33.9,0)" xlink:href="#D"/></g><path d="M30-248c118-7 216 8 213 122C240-48 200 0 122 0H30v-248zM63-27c89 8 146-16 146-99s-60-101-146-95v194" id="L"/><g id="h"><use transform="matrix(0.05,0,0,0.05,0,0)" xlink:href="#L"/><use transform="matrix(0.05,0,0,0.05,12.950000000000001,0)" xlink:href="#E"/><use transform="matrix(0.05,0,0,0.05,22.950000000000003,0)" xlink:href="#z"/><use transform="matrix(0.05,0,0,0.05,31.950000000000003,0)" xlink:href="#y"/><use transform="matrix(0.05,0,0,0.05,35.900000000000006,0)" xlink:href="#I"/><use transform="matrix(0.05,0,0,0.05,44.900000000000006,0)" xlink:href="#y"/><use transform="matrix(0.05,0,0,0.05,48.85000000000001,0)" xlink:href="#A"/><use transform="matrix(0.05,0,0,0.05,58.85,0)" xlink:href="#x"/></g><g id="i"><use transform="matrix(0.05,0,0,0.05,0,0)" xlink:href="#H"/><use transform="matrix(0.05,0,0,0.05,10.35,0)" xlink:href="#E"/><use transform="matrix(0.05,0,0,0.05,20.35,0)" xlink:href="#I"/></g><path d="M59-47c-2 24 18 29 38 22v24C64 9 27 4 27-40v-127H5v-23h24l9-43h21v43h35v23H59v120" id="M"/><path d="M85-194c31 0 48 13 60 33l-1-100h32l1 261h-30c-2-10 0-23-3-31C134-8 116 4 85 4 32 4 16-35 15-94c0-66 23-100 70-100zm9 24c-40 0-46 34-46 75 0 40 6 74 45 74 42 0 51-32 51-76 0-42-9-74-50-73" id="N"/><path d="M84 4C-5 8 30-112 23-190h32v120c0 31 7 50 39 49 72-2 45-101 50-169h31l1 190h-30c-1-10 1-25-2-33-11 22-28 36-60 37" id="O"/><g id="j"><use transform="matrix(0.05,0,0,0.05,0,0)" xlink:href="#w"/><use transform="matrix(0.05,0,0,0.05,5,0)" xlink:href="#x"/><use transform="matrix(0.05,0,0,0.05,15,0)" xlink:href="#M"/><use transform="matrix(0.05,0,0,0.05,20,0)" xlink:href="#D"/><use transform="matrix(0.05,0,0,0.05,25.950000000000003,0)" xlink:href="#A"/><use transform="matrix(0.05,0,0,0.05,35.95,0)" xlink:href="#N"/><use transform="matrix(0.05,0,0,0.05,45.95,0)" xlink:href="#O"/><use transform="matrix(0.05,0,0,0.05,55.95,0)" xlink:href="#z"/><use transform="matrix(0.05,0,0,0.05,64.95,0)" xlink:href="#E"/></g><g id="k"><use transform="matrix(0.05,0,0,0.05,0,0)" xlink:href="#M"/><use transform="matrix(0.05,0,0,0.05,5,0)" xlink:href="#O"/></g><g id="l"><use transform="matrix(0.05,0,0,0.05,0,0)" xlink:href="#x"/><use transform="matrix(0.05,0,0,0.05,10,0)" xlink:href="#A"/><use transform="matrix(0.05,0,0,0.05,20,0)" xlink:href="#B"/><use transform="matrix(0.05,0,0,0.05,34.95,0)" xlink:href="#C"/><use transform="matrix(0.05,0,0,0.05,44.95,0)" xlink:href="#D"/><use transform="matrix(0.05,0,0,0.05,50.900000000000006,0)" xlink:href="#E"/></g><path d="M107 61C57 61 25 39 23-9c-2-65 71-58 78-115h30c1 64-76 54-76 114 0 30 21 42 52 43 32 0 53-17 56-46l32 2c-6 46-36 72-88 72zm26-251v35H99v-35h34" id="P"/><path d="M185-189c-5-48-123-54-124 2 14 75 158 14 163 119 3 78-121 87-175 55-17-10-28-26-33-46l33-7c5 56 141 63 141-1 0-78-155-14-162-118-5-82 145-84 179-34 5 7 8 16 11 25" id="Q"/><g id="m"><use transform="matrix(0.05,0,0,0.05,0,0)" xlink:href="#P"/><use transform="matrix(0.05,0,0,0.05,10.950000000000001,0)" xlink:href="#Q"/><use transform="matrix(0.05,0,0,0.05,22.950000000000003,0)" xlink:href="#A"/><use transform="matrix(0.05,0,0,0.05,32.95,0)" xlink:href="#x"/></g><g id="n"><use transform="matrix(0.05,0,0,0.05,0,0)" xlink:href="#z"/><use transform="matrix(0.05,0,0,0.05,9,0)" xlink:href="#A"/><use transform="matrix(0.05,0,0,0.05,19,0)" xlink:href="#D"/><use transform="matrix(0.05,0,0,0.05,24.95,0)" xlink:href="#D"/><use transform="matrix(0.05,0,0,0.05,30.899999999999995,0)" xlink:href="#E"/><use transform="matrix(0.05,0,0,0.05,40.9,0)" xlink:href="#z"/><use transform="matrix(0.05,0,0,0.05,49.9,0)" xlink:href="#M"/><use transform="matrix(0.05,0,0,0.05,54.900000000000006,0)" xlink:href="#A"/><use transform="matrix(0.05,0,0,0.05,64.9,0)" xlink:href="#I"/></g><g id="o"><use transform="matrix(0.05,0,0,0.05,0,0)" xlink:href="#E"/><use transform="matrix(0.05,0,0,0.05,10,0)" xlink:href="#I"/><use transform="matrix(0.05,0,0,0.05,19,0)" xlink:href="#M"/><use transform="matrix(0.05,0,0,0.05,24,0)" xlink:href="#A"/><use transform="matrix(0.05,0,0,0.05,34,0)" xlink:href="#I"/></g><path d="M141-36C126-15 110 5 73 4 37 3 15-17 15-53c-1-64 63-63 125-63 3-35-9-54-41-54-24 1-41 7-42 31l-33-3c5-37 33-52 76-52 45 0 72 20 72 64v82c-1 20 7 32 28 27v20c-31 9-61-2-59-35zM48-53c0 20 12 33 32 33 41-3 63-29 60-74-43 2-92-5-92 41" id="R"/><path d="M103-251c84 0 111 97 45 133-19 10-37 24-39 52H78c0-63 77-55 77-114 0-30-21-42-52-43-32 0-53 17-56 46l-32-2c7-45 34-72 88-72zM77 0v-35h34V0H77" id="S"/><g id="p"><use transform="matrix(0.05,0,0,0.05,0,0)" xlink:href="#N"/><use transform="matrix(0.05,0,0,0.05,10,0)" xlink:href="#R"/><use transform="matrix(0.05,0,0,0.05,20,0)" xlink:href="#M"/><use transform="matrix(0.05,0,0,0.05,25,0)" xlink:href="#A"/><use transform="matrix(0.05,0,0,0.05,35,0)" xlink:href="#I"/><use transform="matrix(0.05,0,0,0.05,44,0)" xlink:href="#S"/></g><path d="M212-179c-10-28-35-45-73-45-59 0-87 40-87 99 0 60 29 101 89 101 43 0 62-24 78-52l27 14C228-24 195 4 139 4 59 4 22-46 18-125c-6-104 99-153 187-111 19 9 31 26 39 46" id="T"/><g id="q"><use transform="matrix(0.05,0,0,0.05,0,0)" xlink:href="#T"/><use transform="matrix(0.05,0,0,0.05,12.950000000000001,0)" xlink:href="#A"/><use transform="matrix(0.05,0,0,0.05,22.950000000000003,0)" xlink:href="#x"/><use transform="matrix(0.05,0,0,0.05,32.95,0)" xlink:href="#M"/><use transform="matrix(0.05,0,0,0.05,37.95,0)" xlink:href="#y"/><use transform="matrix(0.05,0,0,0.05,41.900000000000006,0)" xlink:href="#x"/><use transform="matrix(0.05,0,0,0.05,51.900000000000006,0)" xlink:href="#O"/><use transform="matrix(0.05,0,0,0.05,61.900000000000006,0)" xlink:href="#R"/><use transform="matrix(0.05,0,0,0.05,71.9,0)" xlink:href="#B"/><use transform="matrix(0.05,0,0,0.05,86.85000000000001,0)" xlink:href="#A"/><use transform="matrix(0.05,0,0,0.05,96.85000000000001,0)" xlink:href="#I"/></g><g id="r"><use transform="matrix(0.05,0,0,0.05,0,0)" xlink:href="#z"/><use transform="matrix(0.05,0,0,0.05,9,0)" xlink:href="#A"/><use transform="matrix(0.05,0,0,0.05,19,0)" xlink:href="#x"/></g><path d="M24 0v-261h32V0H24" id="U"/><g id="s"><use transform="matrix(0.05,0,0,0.05,0,0)" xlink:href="#E"/><use transform="matrix(0.05,0,0,0.05,10,0)" xlink:href="#U"/></g><path d="M115-194c55 1 70 41 70 98S169 2 115 4C84 4 66-9 55-30l1 105H24l-1-265h31l2 30c10-21 28-34 59-34zm-8 174c40 0 45-34 45-75s-6-73-45-74c-42 0-51 32-51 76 0 43 10 73 51 73" id="V"/><g id="t"><use transform="matrix(0.05,0,0,0.05,0,0)" xlink:href="#V"/><use transform="matrix(0.05,0,0,0.05,10,0)" xlink:href="#R"/><use transform="matrix(0.05,0,0,0.05,20,0)" xlink:href="#I"/><use transform="matrix(0.05,0,0,0.05,29,0)" xlink:href="#A"/></g><path d="M101-251c82-7 93 87 43 132L82-64C71-53 59-42 53-27h129V0H18c2-99 128-94 128-182 0-28-16-43-45-43s-46 15-49 41l-32-3c6-41 34-60 81-64" id="W"/><use transform="matrix(0.05,0,0,0.05,0,0)" xlink:href="#W" id="u"/><path d="M63-220v92h138v28H63V0H30v-248h175v28H63" id="X"/><g id="v"><use transform="matrix(0.05,0,0,0.05,0,0)" xlink:href="#X"/><use transform="matrix(0.05,0,0,0.05,10.950000000000001,0)" xlink:href="#y"/><use transform="matrix(0.05,0,0,0.05,14.9,0)" xlink:href="#x"/></g></defs></g></svg>