<svg xmlns="http://www.w3.org/2000/svg" xmlns:xlink="http://www.w3.org/1999/xlink" width="920" height="460"><g transform="translate(-140 -20)"><path d="M688 40c17.67 0 32 13.43 32 30s-14.33 30-32 30h-96c-17.67 0-32-13.43-32-30s14.33-30 32-30z" stroke="#000" stroke-width="2" fill="#fff"/><use xlink:href="#a" transform="matrix(1,0,0,1,560,40) translate(59.055 33.15)"/><path d="M560 158.33c0-2.76 2.23-5.18 4.98-5.4l150.04-12.5c2.75-.24 4.98 1.8 4.98 4.57v70c0 2.76-2.24 5-5 5H565c-2.76 0-5-2.24-5-5z" stroke="#000" stroke-width="2" fill="#fff"/><use xlink:href="#b" transform="matrix(1,0,0,1,560,140) translate(32.529999999999994 31.9)"/><use xlink:href="#c" transform="matrix(1,0,0,1,560,140) translate(112.48 31.9)"/><use xlink:href="#d" transform="matrix(1,0,0,1,560,140) translate(49.55499999999999 53.5)"/><path d="M640 100v46" stroke="#000" stroke-width="2" fill="none"/><path d="M640 146l-4.64-14.27h9.28z"/><path d="M640.86 146.6l-1.67.13-5.2-16h12zm-4.12-13.87l3.26 10.03 3.26-10.03z"/><path d="M635.3 261.68c2.6-.93 6.8-.93 9.4 0l130.6 46.64c2.6.93 2.6 2.43 0 3.36l-130.6 46.64c-2.6.93-6.8.93-9.4 0l-130.6-46.64c-2.6-.93-2.6-2.43 0-3.36z" stroke="#000" stroke-width="2" fill="#fff"/><use xlink:href="#e" transform="matrix(1,0,0,1,500,260) translate(70.82999999999998 55.025)"/><use xlink:href="#f" transform="matrix(1,0,0,1,500,260) translate(183.68 55.025)"/><use xlink:href="#g" transform="matrix(1,0,0,1,500,260) translate(199.18 55.025)"/><path d="M840 405c0-2.76 2.24-5 5-5h190c2.76 0 5 2.24 5 5v50c0 2.76-2.24 5-5 5H845c-2.76 0-5-2.24-5-5z" stroke="#000" stroke-width="2" fill="#fff"/><use xlink:href="#h" transform="matrix(1,0,0,1,840,400) translate(21.380000000000003 33.15)"/><use xlink:href="#i" transform="matrix(1,0,0,1,840,400) translate(32.330000000000005 33.15)"/><use xlink:href="#j" transform="matrix(1,0,0,1,840,400) translate(47.830000000000005 33.15)"/><use xlink:href="#k" transform="matrix(1,0,0,1,840,400) translate(58.78 33.15)"/><use xlink:href="#l" transform="matrix(1,0,0,1,840,400) translate(70.78 33.15)"/><path d="M640 220v40.57" stroke="#000" stroke-width="2" fill="none"/><path d="M640 260.57l-4.64-14.27h9.28z"/><path d="M640.9 261.03l-1.67-.03-.14.02-5.1-15.72h12zm-4.16-13.73l3.26 10.03 3.26-10.03z"/><path d="M880 285c0-2.76 2.24-5 5-5h150c2.76 0 5 2.24 5 5v70c0 2.76-2.24 5-5 5H885c-2.76 0-5-2.24-5-5z" stroke="#000" stroke-width="2" fill="#fff"/><use xlink:href="#m" transform="matrix(1,0,0,1,880,280) translate(20.12999999999999 44.4)"/><path d="M777.24 310H879" stroke="#000" stroke-width="2" fill="none"/><path d="M777.24 311h-1.16l1.16-1-1.16-1h1.16zM879 310l-14.27 4.64v-9.28z"/><path d="M880 309.27v1.46L863.73 316v-12zm-14.27 4l10.03-3.27-10.03-3.26z"/><use xlink:href="#n" transform="matrix(1,0,0,1,807.9886666666666,284.4) translate(0 14.4)"/><path d="M960 360v39" stroke="#000" stroke-width="2" fill="none"/><path d="M960 399l-4.64-14.27h9.28z"/><path d="M960.73 400h-1.46L954 383.73h12zm-4-14.27l3.27 10.03 3.26-10.03z"/><path d="M840 430H645c-2.76 0-5-2.24-5-5v-65" stroke="#000" stroke-width="2" fill="none"/><path d="M644.64 374.27h-9.28L640 360z"/><path d="M640.73 359l5.28 16.27h-12l5.28-16.3zm-4 14.27h6.53L640 363.24z"/><path d="M288 283.5c17.67 0 32 12.3 32 27.5s-14.33 27.5-32 27.5h-96c-17.67 0-32-12.3-32-27.5s14.33-27.5 32-27.5z" stroke="#000" stroke-width="2" fill="#fff"/><use xlink:href="#o" transform="matrix(1,0,0,1,160,283.5) translate(67.555 31.5875)"/><path d="M373.5 287.32c1.37-2.4 4.74-4.32 7.5-4.32h51c4.42 0 8 12.3 8 27.5s-3.58 27.5-8 27.5h-51c-2.76 0-6.13-1.93-7.5-4.32l-11-18.86c-1.37-2.4-1.37-6.25 0-8.64z" stroke="#000" stroke-width="2" fill="#fff"/><use xlink:href="#p" transform="matrix(1,0,0,1,360,283) translate(41.03 31.5875)"/><path d="M502.76 310v.25c0 .14-.1.25-.25.25h-62" stroke="#000" stroke-width="2" fill="none"/><path d="M502.76 310l1.1.96-1.07.04-.08-2 1.25-.04zM454.77 315.14l-14.27-4.64 14.27-4.64z"/><path d="M455.77 316.5l-15.84-5.13.07-.87-.05-.87 15.82-5.14zm-12.03-6l10.03 3.26v-6.52z"/><g><use xlink:href="#q" transform="matrix(1,0,0,1,457.3472647949984,284.9) translate(0 14.4)"/></g><path d="M361.5 310.5h-40.52" stroke="#000" stroke-width="2" fill="none"/><path d="M361.57 311.5h-.07v-.47zm-.07-1v-1h.07zM335.24 315.14l-14.26-4.64 14.26-4.64z"/><path d="M336.24 316.5l-16.26-5.27.02-.23v-.2l-.1-1 16.34-5.3zm-12.03-6l10.04 3.26v-6.52z"/><defs><path d="M33 0v-248h34V0H33" id="r"/><path d="M117-194c89-4 53 116 60 194h-32v-121c0-31-8-49-39-48C34-167 62-67 57 0H25l-1-190h30c1 10-1 24 2 32 11-22 29-35 61-36" id="s"/><path d="M24-231v-30h32v30H24zM24 0v-190h32V0H24" id="t"/><path d="M96-169c-40 0-48 33-48 73s9 75 48 75c24 0 41-14 43-38l32 2c-6 37-31 61-74 61-59 0-76-41-82-99-10-93 101-131 147-64 4 7 5 14 7 22l-32 3c-4-21-16-35-41-35" id="u"/><path d="M100-194c62-1 85 37 85 99 1 63-27 99-86 99S16-35 15-95c0-66 28-99 85-99zM99-20c44 1 53-31 53-75 0-43-8-75-51-75s-53 32-53 75 10 74 51 75" id="v"/><g id="a"><use transform="matrix(0.05,0,0,0.05,0,0)" xlink:href="#r"/><use transform="matrix(0.05,0,0,0.05,5,0)" xlink:href="#s"/><use transform="matrix(0.05,0,0,0.05,15,0)" xlink:href="#t"/><use transform="matrix(0.05,0,0,0.05,18.95,0)" xlink:href="#u"/><use transform="matrix(0.05,0,0,0.05,27.950000000000003,0)" xlink:href="#t"/><use transform="matrix(0.05,0,0,0.05,31.899999999999995,0)" xlink:href="#v"/></g><path d="M59-47c-2 24 18 29 38 22v24C64 9 27 4 27-40v-127H5v-23h24l9-43h21v43h35v23H59v120" id="w"/><path d="M114-163C36-179 61-72 57 0H25l-1-190h30c1 12-1 29 2 39 6-27 23-49 58-41v29" id="x"/><path d="M85-194c31 0 48 13 60 33l-1-100h32l1 261h-30c-2-10 0-23-3-31C134-8 116 4 85 4 32 4 16-35 15-94c0-66 23-100 70-100zm9 24c-40 0-46 34-46 75 0 40 6 74 45 74 42 0 51-32 51-76 0-42-9-74-50-73" id="y"/><path d="M84 4C-5 8 30-112 23-190h32v120c0 31 7 50 39 49 72-2 45-101 50-169h31l1 190h-30c-1-10 1-25-2-33-11 22-28 36-60 37" id="z"/><path d="M100-194c63 0 86 42 84 106H49c0 40 14 67 53 68 26 1 43-12 49-29l28 8c-11 28-37 45-77 45C44 4 14-33 15-96c1-61 26-98 85-98zm52 81c6-60-76-77-97-28-3 7-6 17-6 28h103" id="A"/><g id="b"><use transform="matrix(0.05,0,0,0.05,0,0)" xlink:href="#r"/><use transform="matrix(0.05,0,0,0.05,5,0)" xlink:href="#s"/><use transform="matrix(0.05,0,0,0.05,15,0)" xlink:href="#w"/><use transform="matrix(0.05,0,0,0.05,20,0)" xlink:href="#x"/><use transform="matrix(0.05,0,0,0.05,25.950000000000003,0)" xlink:href="#v"/><use transform="matrix(0.05,0,0,0.05,35.95,0)" xlink:href="#y"/><use transform="matrix(0.05,0,0,0.05,45.95,0)" xlink:href="#z"/><use transform="matrix(0.05,0,0,0.05,55.95,0)" xlink:href="#u"/><use transform="matrix(0.05,0,0,0.05,64.95,0)" xlink:href="#A"/></g><g id="c"><use transform="matrix(0.05,0,0,0.05,0,0)" xlink:href="#z"/><use transform="matrix(0.05,0,0,0.05,10,0)" xlink:href="#s"/></g><path d="M85 4C-4 8 31-112 24-190h32v120c0 31 7 50 39 49 72-2 45-101 50-169h31l1 190h-30c-1-10 1-25-2-33-11 22-28 36-60 37zM73-211c8-23 27-35 38-54h36v5l-58 49H73" id="B"/><path d="M210-169c-67 3-38 105-44 169h-31v-121c0-29-5-50-35-48C34-165 62-65 56 0H25l-1-190h30c1 10-1 24 2 32 10-44 99-50 107 0 11-21 27-35 58-36 85-2 47 119 55 194h-31v-121c0-29-5-49-35-48" id="C"/><g id="d"><use transform="matrix(0.05,0,0,0.05,0,0)" xlink:href="#s"/><use transform="matrix(0.05,0,0,0.05,10,0)" xlink:href="#B"/><use transform="matrix(0.05,0,0,0.05,20,0)" xlink:href="#C"/><use transform="matrix(0.05,0,0,0.05,34.95,0)" xlink:href="#A"/><use transform="matrix(0.05,0,0,0.05,44.95,0)" xlink:href="#x"/><use transform="matrix(0.05,0,0,0.05,50.900000000000006,0)" xlink:href="#v"/></g><path d="M-5 72V49h209v23H-5" id="D"/><g id="e"><use transform="matrix(0.05,0,0,0.05,0,0)" xlink:href="#s"/><use transform="matrix(0.05,0,0,0.05,10,0)" xlink:href="#D"/><use transform="matrix(0.05,0,0,0.05,20,0)" xlink:href="#t"/><use transform="matrix(0.05,0,0,0.05,23.95,0)" xlink:href="#s"/><use transform="matrix(0.05,0,0,0.05,33.95,0)" xlink:href="#w"/><use transform="matrix(0.05,0,0,0.05,38.95,0)" xlink:href="#x"/><use transform="matrix(0.05,0,0,0.05,44.900000000000006,0)" xlink:href="#v"/><use transform="matrix(0.05,0,0,0.05,54.900000000000006,0)" xlink:href="#y"/><use transform="matrix(0.05,0,0,0.05,64.9,0)" xlink:href="#z"/><use transform="matrix(0.05,0,0,0.05,74.9,0)" xlink:href="#u"/><use transform="matrix(0.05,0,0,0.05,83.9,0)" xlink:href="#t"/><use transform="matrix(0.05,0,0,0.05,87.85000000000001,0)" xlink:href="#y"/><use transform="matrix(0.05,0,0,0.05,97.85000000000001,0)" xlink:href="#v"/></g><path d="M18-27v-27l151-64-151-65v-27l175 74v36" id="E"/><use transform="matrix(0.05,0,0,0.05,0,0)" xlink:href="#E" id="f"/><path d="M27 0v-27h64v-190l-56 39v-29l58-41h29v221h61V0H27" id="F"/><use transform="matrix(0.05,0,0,0.05,0,0)" xlink:href="#F" id="g"/><use transform="matrix(0.05,0,0,0.05,0,0)" xlink:href="#x" id="h"/><path d="M18-150v-26h174v26H18zm0 90v-26h174v26H18" id="G"/><use transform="matrix(0.05,0,0,0.05,0,0)" xlink:href="#G" id="i"/><use transform="matrix(0.05,0,0,0.05,0,0)" xlink:href="#x" id="j"/><path d="M80-196l47-18 7 23-49 13 32 44-20 13-27-46-27 45-21-12 33-44-49-13 8-23 47 19-2-53h23" id="H"/><use transform="matrix(0.05,0,0,0.05,0,0)" xlink:href="#H" id="k"/><g id="l"><use transform="matrix(0.05,0,0,0.05,0,0)" xlink:href="#s"/><use transform="matrix(0.05,0,0,0.05,10,0)" xlink:href="#D"/><use transform="matrix(0.05,0,0,0.05,20,0)" xlink:href="#t"/><use transform="matrix(0.05,0,0,0.05,23.95,0)" xlink:href="#s"/><use transform="matrix(0.05,0,0,0.05,33.95,0)" xlink:href="#w"/><use transform="matrix(0.05,0,0,0.05,38.95,0)" xlink:href="#x"/><use transform="matrix(0.05,0,0,0.05,44.900000000000006,0)" xlink:href="#v"/><use transform="matrix(0.05,0,0,0.05,54.900000000000006,0)" xlink:href="#y"/><use transform="matrix(0.05,0,0,0.05,64.9,0)" xlink:href="#z"/><use transform="matrix(0.05,0,0,0.05,74.9,0)" xlink:href="#u"/><use transform="matrix(0.05,0,0,0.05,83.9,0)" xlink:href="#t"/><use transform="matrix(0.05,0,0,0.05,87.85000000000001,0)" xlink:href="#y"/><use transform="matrix(0.05,0,0,0.05,97.85000000000001,0)" xlink:href="#v"/></g><path d="M16-82v-28h88v28H16" id="I"/><g id="m"><use transform="matrix(0.05,0,0,0.05,0,0)" xlink:href="#s"/><use transform="matrix(0.05,0,0,0.05,10,0)" xlink:href="#D"/><use transform="matrix(0.05,0,0,0.05,20,0)" xlink:href="#t"/><use transform="matrix(0.05,0,0,0.05,23.95,0)" xlink:href="#s"/><use transform="matrix(0.05,0,0,0.05,33.95,0)" xlink:href="#w"/><use transform="matrix(0.05,0,0,0.05,38.95,0)" xlink:href="#x"/><use transform="matrix(0.05,0,0,0.05,44.900000000000006,0)" xlink:href="#v"/><use transform="matrix(0.05,0,0,0.05,54.900000000000006,0)" xlink:href="#y"/><use transform="matrix(0.05,0,0,0.05,64.9,0)" xlink:href="#z"/><use transform="matrix(0.05,0,0,0.05,74.9,0)" xlink:href="#u"/><use transform="matrix(0.05,0,0,0.05,83.9,0)" xlink:href="#t"/><use transform="matrix(0.05,0,0,0.05,87.85000000000001,0)" xlink:href="#y"/><use transform="matrix(0.05,0,0,0.05,97.85000000000001,0)" xlink:href="#v"/><use transform="matrix(0.05,0,0,0.05,107.85000000000001,0)" xlink:href="#I"/><use transform="matrix(0.05,0,0,0.05,113.80000000000001,0)" xlink:href="#I"/></g><path d="M137-103V0h-34v-103L8-248h37l75 118 75-118h37" id="J"/><path d="M135-143c-3-34-86-38-87 0 15 53 115 12 119 90S17 21 10-45l28-5c4 36 97 45 98 0-10-56-113-15-118-90-4-57 82-63 122-42 12 7 21 19 24 35" id="K"/><g id="n"><use transform="matrix(0.05,0,0,0.05,0,0)" xlink:href="#J"/><use transform="matrix(0.05,0,0,0.05,10.35,0)" xlink:href="#A"/><use transform="matrix(0.05,0,0,0.05,20.35,0)" xlink:href="#K"/></g><path d="M63-220v92h138v28H63V0H30v-248h175v28H63" id="L"/><g id="o"><use transform="matrix(0.05,0,0,0.05,0,0)" xlink:href="#L"/><use transform="matrix(0.05,0,0,0.05,10.950000000000001,0)" xlink:href="#t"/><use transform="matrix(0.05,0,0,0.05,14.9,0)" xlink:href="#s"/></g><use transform="matrix(0.05,0,0,0.05,0,0)" xlink:href="#x" id="p"/><path d="M190 0L58-211 59 0H30v-248h39L202-35l-2-213h31V0h-41" id="M"/><g id="q"><use transform="matrix(0.05,0,0,0.05,0,0)" xlink:href="#M"/><use transform="matrix(0.05,0,0,0.05,12.950000000000001,0)" xlink:href="#v"/></g></defs></g></svg>