<svg xmlns="http://www.w3.org/2000/svg" xmlns:xlink="http://www.w3.org/1999/xlink" width="851" height="528"><g transform="translate(-189 -12)"><path d="M648 32c17.67 0 32 17.9 32 40s-14.33 40-32 40h-96c-17.67 0-32-17.9-32-40s14.33-40 32-40z" stroke="#000" stroke-width="2" fill="#fff"/><use xlink:href="#a" transform="matrix(1,0,0,1,520,32) translate(59.055 44.4)"/><path d="M520 225c0-2.76 2.22-5.28 4.96-5.62l150.08-18.76c2.74-.34 4.96 1.62 4.96 4.38v110c0 2.76-2.24 5-5 5H525c-2.76 0-5-2.24-5-5z" stroke="#000" stroke-width="2" fill="#fff"/><use xlink:href="#b" transform="matrix(1,0,0,1,520,200) translate(34.60499999999999 51.9)"/><use xlink:href="#c" transform="matrix(1,0,0,1,520,200) translate(87.455 51.9)"/><use xlink:href="#d" transform="matrix(1,0,0,1,520,200) translate(111.45500000000001 51.9)"/><use xlink:href="#e" transform="matrix(1,0,0,1,520,200) translate(12.579999999999993 73.5)"/><use xlink:href="#f" transform="matrix(1,0,0,1,520,200) translate(78.48 73.5)"/><path d="M600 112v100" stroke="#000" stroke-width="2" fill="none"/><path d="M600 212l-4.64-14.27h9.28z" stroke="#000" stroke-width="2"/><path d="M595.53 382.24c2.47-1.24 6.47-1.24 8.94 0l131.06 65.52c2.47 1.24 2.47 3.24 0 4.48l-131.06 65.52c-2.47 1.24-6.47 1.24-8.94 0l-131.06-65.52c-2.47-1.24-2.47-3.24 0-4.48z" stroke="#000" stroke-width="2" fill="#fff"/><use xlink:href="#g" transform="matrix(1,0,0,1,460,380) translate(73.07999999999998 62.525)"/><use xlink:href="#h" transform="matrix(1,0,0,1,460,380) translate(185.93 62.525)"/><use xlink:href="#i" transform="matrix(1,0,0,1,460,380) translate(100.53 84.125)"/><path d="M600 320v60.87" stroke="#000" stroke-width="2" fill="none"/><path d="M600 380.87l-4.64-14.26h9.28z"/><path d="M600.88 381.38l-1.4-.06-.37.05-5.1-15.76h12zm-4.14-13.77l3.26 10.04 3.26-10.03z"/><path d="M889.65 394.4c1.3-2.42 4.6-4.4 7.35-4.4h107c8.84 0 16 26.86 16 60s-7.16 60-16 60H897c-2.76 0-6.05-1.98-7.35-4.4l-27.3-51.2c-1.3-2.42-1.3-6.38 0-8.8z" stroke="#000" stroke-width="2" fill="#fff"/><use xlink:href="#j" transform="matrix(1,0,0,1,860,390) translate(32.03 40.65)"/><use xlink:href="#k" transform="matrix(1,0,0,1,860,390) translate(37.55499999999999 62.25)"/><use xlink:href="#d" transform="matrix(1,0,0,1,860,390) translate(116.505 62.25)"/><use xlink:href="#e" transform="matrix(1,0,0,1,860,390) translate(25.579999999999995 83.85000000000001)"/><use xlink:href="#l" transform="matrix(1,0,0,1,860,390) translate(91.48 83.85000000000001)"/><path d="M740 450h120" stroke="#000" stroke-width="2" fill="none"/><path d="M740 451h-3v-.6l.36-.66-.36-.38V449h3zM860 450l-14.27 4.64v-9.28z"/><path d="M861.44 449.42l-.05 1.03v.14l-16.67 5.4v-12zm-14.7 3.84l10.02-3.26-10.03-3.26z"/><use xlink:href="#m" transform="matrix(1,0,0,1,803.3249999999999,424.4) translate(0 14.4)"/><path d="M269.65 394.4c1.3-2.42 4.6-4.4 7.35-4.4h107c8.84 0 16 26.86 16 60s-7.16 60-16 60H277c-2.76 0-6.05-1.98-7.35-4.4l-27.3-51.2c-1.3-2.42-1.3-6.38 0-8.8z" stroke="#000" stroke-width="2" fill="#fff"/><use xlink:href="#n" transform="matrix(1,0,0,1,240,390) translate(39.08 63.15)"/><use xlink:href="#o" transform="matrix(1,0,0,1,240,390) translate(76.03 63.15)"/><path d="M460 450h-60" stroke="#000" stroke-width="2" fill="none"/><path d="M463 449.6l-.36.66.36.38v.36h-3v-2h3zM414.27 454.64L400 450l14.27-4.64z"/><path d="M415.27 456l-15.3-4.96.03-1.04-.04-1.04 15.3-4.97zm-12.03-6l10.03 3.26v-6.52z"/><use xlink:href="#p" transform="matrix(1,0,0,1,412.525,424.4) translate(0 14.4)"/><path d="M240 450h-35c-2.76 0-5-2.24-5-5V265c0-2.76 2.24-5 5-5h314" stroke="#000" stroke-width="2" fill="none"/><path d="M241.4 450.45l.06.55H240v-2h1.47zM519 260l-14.27 4.64v-9.28z"/><path d="M520 259.27v1.46L503.73 266v-12zm-14.27 4l10.03-3.27-10.03-3.26z"/><g><use xlink:href="#q" transform="matrix(1,0,0,1,333.73333333333335,234.4) translate(0 14.4)"/><use xlink:href="#r" transform="matrix(1,0,0,1,333.73333333333335,234.4) translate(40.25 14.4)"/></g><path d="M988 240c17.67 0 32 17.9 32 40s-14.33 40-32 40h-96c-17.67 0-32-17.9-32-40s14.33-40 32-40z" stroke="#000" stroke-width="2" fill="#fff"/><g><use xlink:href="#s" transform="matrix(1,0,0,1,860,240) translate(28.604999999999997 44.4)"/><use xlink:href="#t" transform="matrix(1,0,0,1,860,240) translate(58.505 44.4)"/><use xlink:href="#u" transform="matrix(1,0,0,1,860,240) translate(87.455 44.4)"/></g><path d="M940 390v-69" stroke="#000" stroke-width="2" fill="none"/><path d="M944.64 335.27h-9.28L940 321z"/><path d="M946 336.27h-12l5.27-16.27h1.46zm-9.26-2h6.52L940 324.24z"/><defs><path d="M33 0v-248h34V0H33" id="v"/><path d="M117-194c89-4 53 116 60 194h-32v-121c0-31-8-49-39-48C34-167 62-67 57 0H25l-1-190h30c1 10-1 24 2 32 11-22 29-35 61-36" id="w"/><path d="M24-231v-30h32v30H24zM24 0v-190h32V0H24" id="x"/><path d="M96-169c-40 0-48 33-48 73s9 75 48 75c24 0 41-14 43-38l32 2c-6 37-31 61-74 61-59 0-76-41-82-99-10-93 101-131 147-64 4 7 5 14 7 22l-32 3c-4-21-16-35-41-35" id="y"/><path d="M100-194c62-1 85 37 85 99 1 63-27 99-86 99S16-35 15-95c0-66 28-99 85-99zM99-20c44 1 53-31 53-75 0-43-8-75-51-75s-53 32-53 75 10 74 51 75" id="z"/><g id="a"><use transform="matrix(0.05,0,0,0.05,0,0)" xlink:href="#v"/><use transform="matrix(0.05,0,0,0.05,5,0)" xlink:href="#w"/><use transform="matrix(0.05,0,0,0.05,15,0)" xlink:href="#x"/><use transform="matrix(0.05,0,0,0.05,18.95,0)" xlink:href="#y"/><use transform="matrix(0.05,0,0,0.05,27.950000000000003,0)" xlink:href="#x"/><use transform="matrix(0.05,0,0,0.05,31.899999999999995,0)" xlink:href="#z"/></g><path d="M107 61C57 61 25 39 23-9c-2-65 71-58 78-115h30c1 64-76 54-76 114 0 30 21 42 52 43 32 0 53-17 56-46l32 2c-6 46-36 72-88 72zm26-251v35H99v-35h34" id="A"/><path d="M212-179c-10-28-35-45-73-45-59 0-87 40-87 99 0 60 29 101 89 101 43 0 62-24 78-52l27 14C228-24 195 4 139 4 59 4 22-46 18-125c-6-104 99-153 187-111 19 9 31 26 39 46" id="B"/><path d="M84 4C-5 8 30-112 23-190h32v120c0 31 7 50 39 49 72-2 45-101 50-169h31l1 190h-30c-1-10 1-25-2-33-11 22-28 36-60 37" id="C"/><path d="M141-36C126-15 110 5 73 4 37 3 15-17 15-53c-1-64 63-63 125-63 3-35-9-54-41-54-24 1-41 7-42 31l-33-3c5-37 33-52 76-52 45 0 72 20 72 64v82c-1 20 7 32 28 27v20c-31 9-61-2-59-35zM48-53c0 20 12 33 32 33 41-3 63-29 60-74-43 2-92-5-92 41zm25-158c8-23 27-35 38-54h36v5l-58 49H73" id="D"/><path d="M24 0v-261h32V0H24" id="E"/><g id="b"><use transform="matrix(0.05,0,0,0.05,0,0)" xlink:href="#A"/><use transform="matrix(0.05,0,0,0.05,10.950000000000001,0)" xlink:href="#B"/><use transform="matrix(0.05,0,0,0.05,23.900000000000002,0)" xlink:href="#C"/><use transform="matrix(0.05,0,0,0.05,33.900000000000006,0)" xlink:href="#D"/><use transform="matrix(0.05,0,0,0.05,43.900000000000006,0)" xlink:href="#E"/></g><path d="M100-194c63 0 86 42 84 106H49c0 40 14 67 53 68 26 1 43-12 49-29l28 8c-11 28-37 45-77 45C44 4 14-33 15-96c1-61 26-98 85-98zm52 81c6-60-76-77-97-28-3 7-6 17-6 28h103" id="F"/><path d="M135-143c-3-34-86-38-87 0 15 53 115 12 119 90S17 21 10-45l28-5c4 36 97 45 98 0-10-56-113-15-118-90-4-57 82-63 122-42 12 7 21 19 24 35" id="G"/><g id="c"><use transform="matrix(0.05,0,0,0.05,0,0)" xlink:href="#F"/><use transform="matrix(0.05,0,0,0.05,10,0)" xlink:href="#G"/></g><g id="d"><use transform="matrix(0.05,0,0,0.05,0,0)" xlink:href="#F"/><use transform="matrix(0.05,0,0,0.05,10,0)" xlink:href="#E"/></g><path d="M85 4C-4 8 31-112 24-190h32v120c0 31 7 50 39 49 72-2 45-101 50-169h31l1 190h-30c-1-10 1-25-2-33-11 22-28 36-60 37zM73-211c8-23 27-35 38-54h36v5l-58 49H73" id="H"/><path d="M210-169c-67 3-38 105-44 169h-31v-121c0-29-5-50-35-48C34-165 62-65 56 0H25l-1-190h30c1 10-1 24 2 32 10-44 99-50 107 0 11-21 27-35 58-36 85-2 47 119 55 194h-31v-121c0-29-5-49-35-48" id="I"/><path d="M114-163C36-179 61-72 57 0H25l-1-190h30c1 12-1 29 2 39 6-27 23-49 58-41v29" id="J"/><g id="e"><use transform="matrix(0.05,0,0,0.05,0,0)" xlink:href="#w"/><use transform="matrix(0.05,0,0,0.05,10,0)" xlink:href="#H"/><use transform="matrix(0.05,0,0,0.05,20,0)" xlink:href="#I"/><use transform="matrix(0.05,0,0,0.05,34.95,0)" xlink:href="#F"/><use transform="matrix(0.05,0,0,0.05,44.95,0)" xlink:href="#J"/><use transform="matrix(0.05,0,0,0.05,50.900000000000006,0)" xlink:href="#z"/></g><path d="M59-47c-2 24 18 29 38 22v24C64 9 27 4 27-40v-127H5v-23h24l9-43h21v43h35v23H59v120" id="K"/><path d="M103-251c84 0 111 97 45 133-19 10-37 24-39 52H78c0-63 77-55 77-114 0-30-21-42-52-43-32 0-53 17-56 46l-32-2c7-45 34-72 88-72zM77 0v-35h34V0H77" id="L"/><g id="f"><use transform="matrix(0.05,0,0,0.05,0,0)" xlink:href="#G"/><use transform="matrix(0.05,0,0,0.05,9,0)" xlink:href="#F"/><use transform="matrix(0.05,0,0,0.05,19,0)" xlink:href="#y"/><use transform="matrix(0.05,0,0,0.05,28,0)" xlink:href="#J"/><use transform="matrix(0.05,0,0,0.05,33.95,0)" xlink:href="#F"/><use transform="matrix(0.05,0,0,0.05,43.95,0)" xlink:href="#K"/><use transform="matrix(0.05,0,0,0.05,48.95,0)" xlink:href="#z"/><use transform="matrix(0.05,0,0,0.05,58.95,0)" xlink:href="#L"/></g><path d="M-5 72V49h209v23H-5" id="M"/><path d="M85-194c31 0 48 13 60 33l-1-100h32l1 261h-30c-2-10 0-23-3-31C134-8 116 4 85 4 32 4 16-35 15-94c0-66 23-100 70-100zm9 24c-40 0-46 34-46 75 0 40 6 74 45 74 42 0 51-32 51-76 0-42-9-74-50-73" id="N"/><g id="g"><use transform="matrix(0.05,0,0,0.05,0,0)" xlink:href="#w"/><use transform="matrix(0.05,0,0,0.05,10,0)" xlink:href="#M"/><use transform="matrix(0.05,0,0,0.05,20,0)" xlink:href="#x"/><use transform="matrix(0.05,0,0,0.05,23.95,0)" xlink:href="#w"/><use transform="matrix(0.05,0,0,0.05,33.95,0)" xlink:href="#K"/><use transform="matrix(0.05,0,0,0.05,38.95,0)" xlink:href="#J"/><use transform="matrix(0.05,0,0,0.05,44.900000000000006,0)" xlink:href="#z"/><use transform="matrix(0.05,0,0,0.05,54.900000000000006,0)" xlink:href="#N"/><use transform="matrix(0.05,0,0,0.05,64.9,0)" xlink:href="#C"/><use transform="matrix(0.05,0,0,0.05,74.9,0)" xlink:href="#y"/><use transform="matrix(0.05,0,0,0.05,83.9,0)" xlink:href="#x"/><use transform="matrix(0.05,0,0,0.05,87.85000000000001,0)" xlink:href="#N"/><use transform="matrix(0.05,0,0,0.05,97.85000000000001,0)" xlink:href="#z"/></g><path d="M18-150v-26h174v26H18zm0 90v-26h174v26H18" id="O"/><g id="h"><use transform="matrix(0.05,0,0,0.05,0,0)" xlink:href="#O"/><use transform="matrix(0.05,0,0,0.05,10.5,0)" xlink:href="#O"/></g><g id="i"><use transform="matrix(0.05,0,0,0.05,0,0)" xlink:href="#w"/><use transform="matrix(0.05,0,0,0.05,10,0)" xlink:href="#M"/><use transform="matrix(0.05,0,0,0.05,20,0)" xlink:href="#G"/><use transform="matrix(0.05,0,0,0.05,29,0)" xlink:href="#F"/><use transform="matrix(0.05,0,0,0.05,39,0)" xlink:href="#y"/><use transform="matrix(0.05,0,0,0.05,48,0)" xlink:href="#J"/><use transform="matrix(0.05,0,0,0.05,53.95,0)" xlink:href="#F"/><use transform="matrix(0.05,0,0,0.05,63.95,0)" xlink:href="#K"/><use transform="matrix(0.05,0,0,0.05,68.95,0)" xlink:href="#z"/></g><path d="M30 0v-248h187v28H63v79h144v27H63v87h162V0H30" id="P"/><path d="M106-169C34-169 62-67 57 0H25v-261h32l-1 103c12-21 28-36 61-36 89 0 53 116 60 194h-32v-121c2-32-8-49-39-48" id="Q"/><path d="M141-36C126-15 110 5 73 4 37 3 15-17 15-53c-1-64 63-63 125-63 3-35-9-54-41-54-24 1-41 7-42 31l-33-3c5-37 33-52 76-52 45 0 72 20 72 64v82c-1 20 7 32 28 27v20c-31 9-61-2-59-35zM48-53c0 20 12 33 32 33 41-3 63-29 60-74-43 2-92-5-92 41" id="R"/><path d="M115-194c53 0 69 39 70 98 0 66-23 100-70 100C84 3 66-7 56-30L54 0H23l1-261h32v101c10-23 28-34 59-34zm-8 174c40 0 45-34 45-75 0-40-5-75-45-74-42 0-51 32-51 76 0 43 10 73 51 73" id="S"/><path d="M68-38c1 34 0 65-14 84H32c9-13 17-26 17-46H33v-38h35" id="T"/><g id="j"><use transform="matrix(0.05,0,0,0.05,0,0)" xlink:href="#P"/><use transform="matrix(0.05,0,0,0.05,12,0)" xlink:href="#w"/><use transform="matrix(0.05,0,0,0.05,22,0)" xlink:href="#Q"/><use transform="matrix(0.05,0,0,0.05,32,0)" xlink:href="#z"/><use transform="matrix(0.05,0,0,0.05,42,0)" xlink:href="#J"/><use transform="matrix(0.05,0,0,0.05,47.95,0)" xlink:href="#R"/><use transform="matrix(0.05,0,0,0.05,57.95,0)" xlink:href="#S"/><use transform="matrix(0.05,0,0,0.05,67.95,0)" xlink:href="#C"/><use transform="matrix(0.05,0,0,0.05,77.95,0)" xlink:href="#F"/><use transform="matrix(0.05,0,0,0.05,87.95,0)" xlink:href="#w"/><use transform="matrix(0.05,0,0,0.05,97.95,0)" xlink:href="#R"/><use transform="matrix(0.05,0,0,0.05,107.95,0)" xlink:href="#T"/></g><g id="k"><use transform="matrix(0.05,0,0,0.05,0,0)" xlink:href="#R"/><use transform="matrix(0.05,0,0,0.05,10,0)" xlink:href="#y"/><use transform="matrix(0.05,0,0,0.05,19,0)" xlink:href="#F"/><use transform="matrix(0.05,0,0,0.05,29,0)" xlink:href="#J"/><use transform="matrix(0.05,0,0,0.05,34.95,0)" xlink:href="#K"/><use transform="matrix(0.05,0,0,0.05,39.95,0)" xlink:href="#R"/><use transform="matrix(0.05,0,0,0.05,49.95,0)" xlink:href="#G"/><use transform="matrix(0.05,0,0,0.05,58.95,0)" xlink:href="#K"/><use transform="matrix(0.05,0,0,0.05,63.95,0)" xlink:href="#F"/></g><g id="l"><use transform="matrix(0.05,0,0,0.05,0,0)" xlink:href="#G"/><use transform="matrix(0.05,0,0,0.05,9,0)" xlink:href="#F"/><use transform="matrix(0.05,0,0,0.05,19,0)" xlink:href="#y"/><use transform="matrix(0.05,0,0,0.05,28,0)" xlink:href="#J"/><use transform="matrix(0.05,0,0,0.05,33.95,0)" xlink:href="#F"/><use transform="matrix(0.05,0,0,0.05,43.95,0)" xlink:href="#K"/><use transform="matrix(0.05,0,0,0.05,48.95,0)" xlink:href="#z"/></g><path d="M137-103V0h-34v-103L8-248h37l75 118 75-118h37" id="U"/><g id="m"><use transform="matrix(0.05,0,0,0.05,0,0)" xlink:href="#U"/><use transform="matrix(0.05,0,0,0.05,10.35,0)" xlink:href="#F"/><use transform="matrix(0.05,0,0,0.05,20.35,0)" xlink:href="#G"/></g><path d="M197 0v-115H63V0H30v-248h33v105h134v-105h34V0h-34" id="V"/><g id="n"><use transform="matrix(0.05,0,0,0.05,0,0)" xlink:href="#V"/><use transform="matrix(0.05,0,0,0.05,12.950000000000001,0)" xlink:href="#R"/><use transform="matrix(0.05,0,0,0.05,22.950000000000003,0)" xlink:href="#G"/></g><path d="M101-234c-31-9-42 10-38 44h38v23H63V0H32v-167H5v-23h27c-7-52 17-82 69-68v24" id="W"/><g id="o"><use transform="matrix(0.05,0,0,0.05,0,0)" xlink:href="#W"/><use transform="matrix(0.05,0,0,0.05,5,0)" xlink:href="#R"/><use transform="matrix(0.05,0,0,0.05,15,0)" xlink:href="#E"/><use transform="matrix(0.05,0,0,0.05,18.95,0)" xlink:href="#E"/><use transform="matrix(0.05,0,0,0.05,22.9,0)" xlink:href="#R"/><use transform="matrix(0.05,0,0,0.05,32.9,0)" xlink:href="#N"/><use transform="matrix(0.05,0,0,0.05,42.9,0)" xlink:href="#z"/></g><path d="M190 0L58-211 59 0H30v-248h39L202-35l-2-213h31V0h-41" id="X"/><g id="p"><use transform="matrix(0.05,0,0,0.05,0,0)" xlink:href="#X"/><use transform="matrix(0.05,0,0,0.05,12.950000000000001,0)" xlink:href="#z"/></g><path d="M127-220V0H93v-220H8v-28h204v28h-85" id="Y"/><g id="q"><use transform="matrix(0.05,0,0,0.05,0,0)" xlink:href="#Y"/><use transform="matrix(0.05,0,0,0.05,10.3,0)" xlink:href="#J"/><use transform="matrix(0.05,0,0,0.05,16.25,0)" xlink:href="#F"/><use transform="matrix(0.05,0,0,0.05,26.25,0)" xlink:href="#G"/></g><g id="r"><use transform="matrix(0.05,0,0,0.05,0,0)" xlink:href="#x"/><use transform="matrix(0.05,0,0,0.05,3.95,0)" xlink:href="#w"/><use transform="matrix(0.05,0,0,0.05,13.949999999999998,0)" xlink:href="#K"/><use transform="matrix(0.05,0,0,0.05,18.95,0)" xlink:href="#F"/><use transform="matrix(0.05,0,0,0.05,28.950000000000003,0)" xlink:href="#w"/><use transform="matrix(0.05,0,0,0.05,38.95,0)" xlink:href="#K"/><use transform="matrix(0.05,0,0,0.05,43.95,0)" xlink:href="#z"/><use transform="matrix(0.05,0,0,0.05,53.95,0)" xlink:href="#G"/></g><path d="M63-220v92h138v28H63V0H30v-248h175v28H63" id="Z"/><g id="s"><use transform="matrix(0.05,0,0,0.05,0,0)" xlink:href="#Z"/><use transform="matrix(0.05,0,0,0.05,10.950000000000001,0)" xlink:href="#x"/><use transform="matrix(0.05,0,0,0.05,14.9,0)" xlink:href="#w"/></g><g id="t"><use transform="matrix(0.05,0,0,0.05,0,0)" xlink:href="#N"/><use transform="matrix(0.05,0,0,0.05,10,0)" xlink:href="#F"/><use transform="matrix(0.05,0,0,0.05,20,0)" xlink:href="#E"/></g><path d="M24-231v-30h32v30H24zM-9 49c24 4 33-6 33-30v-209h32V24c2 40-23 58-65 49V49" id="aa"/><path d="M177-190C167-65 218 103 67 71c-23-6-38-20-44-43l32-5c15 47 100 32 89-28v-30C133-14 115 1 83 1 29 1 15-40 15-95c0-56 16-97 71-98 29-1 48 16 59 35 1-10 0-23 2-32h30zM94-22c36 0 50-32 50-73 0-42-14-75-50-75-39 0-46 34-46 75s6 73 46 73" id="ab"/><g id="u"><use transform="matrix(0.05,0,0,0.05,0,0)" xlink:href="#aa"/><use transform="matrix(0.05,0,0,0.05,3.95,0)" xlink:href="#C"/><use transform="matrix(0.05,0,0,0.05,13.949999999999998,0)" xlink:href="#F"/><use transform="matrix(0.05,0,0,0.05,23.95,0)" xlink:href="#ab"/><use transform="matrix(0.05,0,0,0.05,33.95,0)" xlink:href="#z"/></g></defs></g></svg>