<?xml version="1.0" encoding="UTF-8" ?>
<!DOCTYPE svg PUBLIC "-//W3C//DTD SVG 1.1//EN" "http://www.w3.org/Graphics/SVG/1.1/DTD/svg11.dtd">
<svg width="921pt" height="153pt" viewBox="0 0 921 153" version="1.1" xmlns="http://www.w3.org/2000/svg">
<path fill="#ffffff" d=" M 0.00 0.00 L 921.00 0.00 L 921.00 78.28 C 918.57 70.47 910.94 66.07 903.86 63.11 C 887.75 56.84 870.11 56.01 853.04 57.11 C 841.37 58.29 829.44 60.44 819.16 66.38 C 814.31 69.23 809.62 73.46 808.68 79.29 C 808.06 79.58 807.45 79.86 806.85 80.15 C 804.87 78.94 802.82 77.87 800.78 76.81 C 800.67 79.27 800.62 81.74 800.73 84.21 C 803.32 82.88 805.93 81.57 808.58 80.32 C 808.40 87.75 814.65 93.08 820.64 96.30 C 832.44 102.48 845.96 104.51 859.13 105.06 C 872.46 105.59 885.96 104.52 898.78 100.68 C 904.42 98.85 910.01 96.47 914.67 92.74 C 917.15 90.79 918.73 88.00 921.00 85.85 L 921.00 153.00 L 239.30 153.00 C 241.71 151.96 244.34 151.85 246.90 151.42 C 255.84 149.95 264.81 147.39 272.45 142.36 C 276.48 139.71 280.12 135.90 280.93 130.97 C 281.05 128.97 282.63 127.79 284.13 126.72 C 283.80 126.40 283.48 126.09 283.16 125.78 C 282.75 126.41 281.93 127.66 281.53 128.29 C 280.23 121.64 275.08 116.71 269.28 113.70 C 259.70 108.52 248.79 106.47 238.06 105.24 C 222.62 104.05 206.83 104.58 191.89 108.98 C 185.68 110.86 179.51 113.44 174.51 117.68 C 171.60 120.15 169.34 123.45 168.66 127.26 C 168.06 127.57 167.47 127.86 166.87 128.16 C 164.92 126.97 162.90 125.91 160.88 124.84 C 160.78 126.16 160.68 127.49 160.58 128.81 C 144.79 128.66 129.00 128.96 113.22 128.66 C 112.56 120.33 104.90 115.21 97.98 112.04 C 81.71 105.01 63.55 104.03 46.07 105.04 C 35.99 105.90 25.84 107.67 16.48 111.66 C 10.86 114.15 5.19 117.54 2.08 123.03 C -0.57 127.75 0.53 133.96 4.23 137.80 C 10.57 144.80 19.90 148.08 28.86 150.19 C 32.87 150.94 36.96 152.52 41.06 151.41 C 41.98 151.49 42.89 151.63 43.80 151.83 L 43.45 152.36 L 43.31 153.00 L 0.00 153.00 L 0.00 0.00 Z" />
<path fill="#000000" d=" M 190.07 5.51 C 205.54 0.69 222.00 -0.11 238.07 1.22 C 251.48 2.94 266.01 5.36 276.34 14.82 C 279.57 17.43 280.53 21.49 281.64 25.21 C 290.25 36.32 299.24 47.15 307.94 58.19 C 308.61 57.67 309.93 56.63 310.59 56.10 C 311.07 58.82 311.66 61.52 312.23 64.22 C 309.71 63.07 307.21 61.90 304.75 60.65 C 305.61 59.91 306.46 59.16 307.32 58.41 C 298.52 47.67 289.99 36.71 281.22 25.94 C 280.33 33.22 273.96 37.94 267.88 41.01 C 257.66 45.99 246.23 47.99 234.99 48.87 C 225.73 48.02 216.39 49.66 207.20 48.06 C 199.94 47.13 192.72 45.47 185.90 42.78 C 180.16 40.45 174.51 37.20 170.86 32.06 C 167.89 27.87 167.84 21.84 170.90 17.69 C 175.40 11.30 182.91 8.00 190.07 5.51 Z" />
<path fill="#ffcc99" d=" M 212.00 2.17 C 226.69 0.90 241.69 1.57 255.98 5.40 C 263.91 7.66 272.17 10.87 277.59 17.39 C 281.13 21.45 281.41 27.83 278.17 32.16 C 274.28 37.26 268.42 40.38 262.55 42.66 C 245.84 48.91 227.68 48.73 210.12 47.74 C 199.35 46.37 188.27 44.20 178.91 38.40 C 174.27 35.39 169.50 30.94 169.47 24.99 C 169.51 19.02 174.28 14.51 178.99 11.56 C 188.95 5.61 200.61 3.37 212.00 2.17 Z" />
<path fill="#e38a31" d=" M 219.58 19.20 C 219.83 18.94 220.32 18.40 220.56 18.14 C 220.67 22.92 222.16 28.24 219.99 32.68 C 220.04 28.19 219.88 23.69 219.58 19.20 Z" />
<path fill="#100503" d=" M 220.56 18.14 L 222.18 18.10 C 221.84 20.13 221.99 22.20 222.15 24.24 C 222.12 24.68 222.07 25.55 222.04 25.99 C 222.05 27.90 221.36 30.24 222.69 31.85 L 223.91 32.99 C 222.86 33.04 220.76 33.13 219.71 33.18 L 219.99 32.68 C 222.16 28.24 220.67 22.92 220.56 18.14 Z" />
<path fill="#307586" d=" M 222.18 18.10 C 223.94 19.06 223.37 22.50 222.48 24.10 L 222.15 24.24 C 221.99 22.20 221.84 20.13 222.18 18.10 Z" />
<path fill="#000000" d=" M 213.13 24.03 C 213.79 22.70 216.04 22.88 217.29 23.27 C 217.69 24.05 217.98 24.87 218.14 25.73 L 217.47 25.69 C 217.25 25.55 216.80 25.28 216.58 25.15 C 215.52 24.50 214.37 24.13 213.13 24.03 Z" />
<path fill="#ffffff" d=" M 217.29 23.27 C 219.11 21.72 220.72 26.10 218.14 25.73 C 217.98 24.87 217.69 24.05 217.29 23.27 Z" />
<path fill="#000000" d=" M 222.48 24.10 C 224.51 22.92 227.67 22.31 228.24 25.43 C 228.27 27.56 228.19 29.70 228.40 31.82 L 228.72 31.98 C 229.00 32.13 229.57 32.42 229.86 32.57 C 229.01 32.65 227.33 32.82 226.48 32.91 C 227.14 30.10 227.55 27.03 226.12 24.38 C 224.62 24.21 223.36 24.68 222.33 25.78 L 222.04 25.99 C 222.07 25.55 222.12 24.68 222.15 24.24 L 222.48 24.10 Z" />
<path fill="#b25f2e" d=" M 231.86 25.97 C 229.67 26.39 230.91 21.98 232.66 23.37 L 232.96 24.01 C 232.69 24.50 232.14 25.48 231.86 25.97 Z" />
<path fill="#000000" d=" M 232.66 23.37 C 234.11 23.27 235.57 23.17 237.02 23.30 C 237.01 26.69 237.08 30.13 238.08 33.40 C 237.23 32.98 236.37 32.56 235.52 32.15 C 234.25 32.52 232.70 33.67 231.54 32.41 C 230.30 31.43 230.85 30.06 231.59 28.97 C 231.84 29.39 232.34 30.22 232.59 30.64 C 233.48 30.88 235.26 31.36 236.14 31.61 C 236.08 30.48 235.94 28.24 235.87 27.12 L 235.91 26.83 C 235.93 26.19 235.95 24.91 235.97 24.28 L 235.30 24.22 C 234.72 24.17 233.54 24.07 232.96 24.01 L 232.66 23.37 Z" />
<path fill="#cf7c2f" d=" M 240.26 24.24 C 240.72 23.91 241.19 23.57 241.67 23.24 C 242.00 26.42 242.41 29.71 241.47 32.83 C 241.18 32.96 240.59 33.22 240.30 33.35 C 241.27 30.41 241.89 27.09 240.26 24.24 Z" />
<path fill="#000000" d=" M 241.67 23.24 C 243.05 23.87 248.32 22.04 247.02 24.93 C 246.18 24.83 244.49 24.65 243.65 24.55 L 243.57 24.98 C 242.97 27.58 242.72 30.30 243.63 32.86 L 241.47 32.83 C 242.41 29.71 242.00 26.42 241.67 23.24 Z" />
<path fill="#c8864b" d=" M 212.25 23.14 L 213.13 24.03 L 213.51 25.05 L 212.77 25.43 L 212.22 25.61 L 211.09 25.97 C 210.75 28.51 211.43 30.97 213.07 32.95 C 209.18 31.27 209.69 25.83 212.25 23.14 Z" />
<path fill="#001743" d=" M 231.86 25.97 C 232.14 25.48 232.69 24.50 232.96 24.01 L 233.33 24.90 L 232.77 25.89 L 231.86 25.97 Z" />
<path fill="#e69643" d=" M 235.30 24.22 L 235.97 24.28 C 235.95 24.91 235.93 26.19 235.91 26.83 L 235.32 26.78 C 235.18 26.32 234.90 25.40 234.76 24.93 L 235.30 24.22 Z" />
<path fill="#1b4264" d=" M 237.02 23.30 C 238.38 26.35 238.70 30.12 238.08 33.40 C 237.08 30.13 237.01 26.69 237.02 23.30 Z" />
<path fill="#c14f0e" d=" M 216.58 25.15 C 216.80 25.28 217.25 25.55 217.47 25.69 C 217.25 25.55 216.80 25.28 216.58 25.15 Z" />
<path fill="#862806" d=" M 226.12 24.38 C 227.55 27.03 227.14 30.10 226.48 32.91 C 226.19 33.02 225.62 33.25 225.33 33.36 C 226.09 30.43 225.99 27.38 226.12 24.38 Z" />
<path fill="#ffffff" d=" M 228.24 25.43 C 230.25 26.27 229.90 30.33 228.72 31.98 L 228.40 31.82 C 228.19 29.70 228.27 27.56 228.24 25.43 Z" />
<path fill="#000000" d=" M 211.09 25.97 L 212.22 25.61 C 211.76 26.75 211.88 27.81 212.58 28.79 C 213.44 31.10 216.00 32.03 217.81 30.15 L 218.00 30.91 C 217.27 32.88 214.88 33.21 213.07 32.95 C 211.43 30.97 210.75 28.51 211.09 25.97 Z" />
<path fill="#286b81" d=" M 212.22 25.61 L 212.77 25.43 C 212.72 26.27 212.63 27.95 212.58 28.79 C 211.88 27.81 211.76 26.75 212.22 25.61 Z" />
<path fill="#2e7485" d=" M 222.04 25.99 L 222.33 25.78 C 223.52 27.45 223.52 30.02 222.69 31.85 C 221.36 30.24 222.05 27.90 222.04 25.99 Z" />
<path fill="#306675" d=" M 243.63 32.86 C 242.72 30.30 242.97 27.58 243.57 24.98 C 243.82 27.81 243.90 30.69 244.85 33.40 C 244.55 33.27 243.94 32.99 243.63 32.86 Z" />
<path fill="#555754" d=" M 231.59 28.97 C 231.94 27.35 233.97 27.08 235.32 26.78 L 235.91 26.83 L 235.87 27.12 C 234.62 28.14 233.38 29.21 232.59 30.64 C 232.34 30.22 231.84 29.39 231.59 28.97 Z" />
<path fill="#fbc685" d=" M 232.59 30.64 C 233.38 29.21 234.62 28.14 235.87 27.12 C 235.94 28.24 236.08 30.48 236.14 31.61 C 235.26 31.36 233.48 30.88 232.59 30.64 Z" />
<path fill="#818d89" d=" M 217.81 30.15 C 218.51 27.52 220.46 31.55 218.00 30.91 L 217.81 30.15 Z" />
<path fill="#000000" d=" M 315.99 65.91 C 329.42 58.70 344.99 56.93 360.01 56.67 C 374.74 56.71 389.89 58.33 403.36 64.67 C 409.74 67.78 416.49 72.77 417.30 80.39 C 417.34 80.60 417.42 81.02 417.45 81.23 C 416.84 87.33 412.37 92.14 407.29 95.14 C 396.70 101.56 384.18 103.61 372.05 104.86 C 364.71 104.58 357.37 104.60 350.03 104.86 C 337.61 103.61 324.76 101.48 314.02 94.74 C 309.33 91.62 304.60 87.00 304.62 80.96 C 304.56 74.03 310.46 69.04 315.99 65.91 Z" />
<path fill="#000000" d=" M 487.92 63.93 C 504.60 56.76 523.22 56.02 541.10 57.12 C 553.51 58.53 566.40 60.81 576.94 67.94 C 580.90 70.82 584.96 74.85 584.96 80.10 L 585.25 80.41 C 585.38 80.54 585.63 80.80 585.75 80.93 C 584.69 85.24 582.88 89.48 579.25 92.26 C 570.13 99.67 558.24 102.43 546.85 104.06 C 537.64 105.64 528.29 104.07 519.01 104.87 C 506.76 103.88 494.18 101.76 483.37 95.58 C 477.92 92.35 472.38 87.23 472.59 80.35 C 469.93 81.54 467.33 82.86 464.77 84.22 C 464.61 81.76 464.68 79.30 464.80 76.84 C 466.85 77.88 468.92 78.89 470.85 80.16 C 471.48 79.87 472.12 79.58 472.77 79.27 C 473.96 71.53 481.38 66.96 487.92 63.93 Z" />
<path fill="#000000" d=" M 655.87 63.95 C 672.55 56.77 691.16 56.02 709.05 57.12 C 721.48 58.53 734.41 60.80 744.97 67.96 C 749.45 70.94 752.76 75.54 753.59 80.92 C 753.53 81.10 753.41 81.48 753.35 81.67 C 752.56 88.18 747.41 92.94 741.94 95.93 C 731.26 101.85 718.92 103.91 706.89 104.87 C 697.63 104.05 688.30 105.67 679.11 104.05 C 668.40 102.56 657.40 99.98 648.43 93.64 C 644.20 90.50 640.32 85.95 640.59 80.35 C 637.93 81.54 635.34 82.85 632.77 84.22 C 632.63 81.76 632.67 79.30 632.80 76.84 C 634.84 77.88 636.92 78.89 638.84 80.17 C 639.48 79.87 640.12 79.58 640.77 79.27 C 641.94 71.55 649.36 66.98 655.87 63.95 Z" />
<path fill="#000000" d=" M 853.04 57.11 C 870.11 56.01 887.75 56.84 903.86 63.11 C 910.94 66.07 918.57 70.47 921.00 78.28 L 921.00 85.85 C 918.73 88.00 917.15 90.79 914.67 92.74 C 910.01 96.47 904.42 98.85 898.78 100.68 C 885.96 104.52 872.46 105.59 859.13 105.06 C 845.96 104.51 832.44 102.48 820.64 96.30 C 814.65 93.08 808.40 87.75 808.58 80.32 C 805.93 81.57 803.32 82.88 800.73 84.21 C 800.62 81.74 800.67 79.27 800.78 76.81 C 802.82 77.87 804.87 78.94 806.85 80.15 C 807.45 79.86 808.06 79.58 808.68 79.29 C 809.62 73.46 814.31 69.23 819.16 66.38 C 829.44 60.44 841.37 58.29 853.04 57.11 Z" />
<path fill="#ffcc99" d=" M 349.01 58.07 C 363.39 56.96 378.05 57.64 392.03 61.40 C 399.76 63.57 407.68 66.75 413.18 72.84 C 416.65 76.57 417.78 82.46 414.99 86.91 C 410.77 93.77 402.97 97.16 395.66 99.72 C 387.01 102.33 378.02 104.04 368.97 104.10 C 357.29 104.29 345.42 104.59 334.01 101.68 C 324.80 99.58 315.08 96.37 308.68 89.05 C 305.27 85.37 304.42 79.53 307.08 75.20 C 310.31 69.90 315.97 66.71 321.50 64.27 C 330.23 60.65 339.64 58.96 349.01 58.07 Z" />
<path fill="#ffcc99" d=" M 516.96 58.08 C 528.59 57.12 540.34 57.52 551.84 59.52 C 561.31 61.43 571.11 64.05 578.67 70.37 C 582.16 73.18 584.83 77.42 584.57 82.02 C 583.65 89.08 577.29 93.72 571.33 96.61 C 553.98 104.88 534.23 104.74 515.45 103.85 C 505.86 102.85 496.19 100.99 487.41 96.86 C 481.50 94.04 475.12 89.72 473.65 82.90 C 472.52 76.90 476.89 71.71 481.54 68.58 C 491.98 61.62 504.70 59.34 516.96 58.08 Z" />
<path fill="#ffcc99" d=" M 685.01 58.07 C 697.00 57.12 709.13 57.50 720.96 59.75 C 730.89 61.85 741.40 64.80 748.68 72.31 C 752.45 75.98 753.89 82.10 751.07 86.75 C 746.99 93.58 739.34 96.97 732.16 99.56 C 722.41 102.62 712.20 104.29 701.96 104.15 C 685.72 104.65 668.81 103.52 654.02 96.18 C 648.61 93.42 643.01 89.20 641.64 82.95 C 640.51 76.95 644.86 71.70 649.53 68.58 C 659.99 61.62 672.73 59.33 685.01 58.07 Z" />
<path fill="#ffcc99" d=" M 830.47 62.41 C 848.62 56.84 868.09 56.45 886.77 59.32 C 897.21 61.37 908.30 64.15 916.17 71.78 C 919.49 74.77 921.01 79.27 920.72 83.68 L 919.12 83.60 C 919.26 84.12 919.55 85.16 919.69 85.69 C 915.69 93.33 907.36 97.05 899.61 99.74 C 880.97 105.34 861.03 105.76 841.91 102.57 C 831.70 100.35 820.67 97.62 813.27 89.73 C 809.45 86.00 808.17 79.75 811.13 75.12 C 815.39 68.33 823.18 64.95 830.47 62.41 Z" />
<path fill="#000000" d=" M 354.68 75.03 C 354.70 73.27 357.66 73.26 357.63 75.04 C 357.66 76.81 354.65 76.83 354.68 75.03 Z" />
<path fill="#7f2a0b" d=" M 514.55 74.95 C 514.80 74.68 515.29 74.14 515.53 73.87 C 515.60 78.69 517.28 84.10 514.80 88.53 C 515.02 84.00 515.06 79.46 514.55 74.95 Z" />
<path fill="#030f35" d=" M 515.53 73.87 L 517.20 73.74 C 517.05 78.75 516.39 83.90 517.65 88.82 C 516.84 88.92 515.22 89.11 514.41 89.21 L 514.80 88.53 C 517.28 84.10 515.60 78.69 515.53 73.87 Z" />
<path fill="#babb94" d=" M 517.20 73.74 C 518.83 78.86 516.45 84.51 518.96 89.47 C 518.63 89.31 517.97 88.98 517.65 88.82 C 516.39 83.90 517.05 78.75 517.20 73.74 Z" />
<path fill="#d78e4a" d=" M 683.81 74.80 C 684.48 74.53 685.18 74.28 685.89 74.05 L 686.79 74.68 L 685.82 75.03 C 685.61 75.22 685.19 75.61 684.98 75.81 C 684.30 76.93 683.66 78.07 682.87 79.11 C 683.15 77.67 683.48 76.24 683.81 74.80 Z" />
<path fill="#000000" d=" M 685.89 74.05 C 687.93 74.14 690.05 74.53 692.07 73.91 C 691.88 78.49 691.53 83.14 692.15 87.70 L 692.98 88.35 L 693.81 88.87 C 692.17 88.86 690.54 88.94 688.92 89.03 C 689.18 88.82 689.68 88.42 689.93 88.22 L 690.75 87.53 C 691.12 83.83 690.98 80.11 690.98 76.40 C 690.71 76.39 690.17 76.37 689.89 76.36 C 689.66 76.35 689.19 76.33 688.96 76.31 C 688.42 75.91 687.33 75.09 686.79 74.68 L 685.89 74.05 Z" />
<path fill="#c4c499" d=" M 692.07 73.91 C 692.25 74.19 692.62 74.76 692.81 75.04 C 693.09 79.47 692.79 83.92 692.98 88.35 L 692.15 87.70 C 691.53 83.14 691.88 78.49 692.07 73.91 Z" />
<path fill="#97461d" d=" M 846.43 79.02 C 845.26 78.05 844.20 73.66 846.69 74.27 C 847.11 75.80 847.20 77.42 846.89 78.99 L 846.43 79.02 Z" />
<path fill="#110d22" d=" M 846.69 74.27 L 848.21 73.60 C 847.81 78.77 848.01 83.95 848.27 89.11 L 846.18 88.50 C 846.12 88.48 845.99 88.44 845.93 88.43 L 846.37 86.98 C 846.98 85.17 847.90 82.56 846.28 81.08 C 845.29 80.53 844.29 80.02 843.29 79.55 L 842.85 79.30 C 843.75 79.23 845.53 79.09 846.43 79.02 L 846.89 78.99 C 847.20 77.42 847.11 75.80 846.69 74.27 Z" />
<path fill="#a8b593" d=" M 848.21 73.60 C 849.51 77.59 848.56 81.87 848.80 85.98 C 849.12 86.45 849.76 87.38 850.08 87.85 C 849.62 88.17 848.72 88.80 848.27 89.11 C 848.01 83.95 847.81 78.77 848.21 73.60 Z" />
<path fill="#c8641b" d=" M 871.32 74.90 C 871.66 74.76 872.34 74.47 872.68 74.33 C 872.99 79.03 873.19 83.74 872.83 88.44 C 870.81 84.24 873.04 79.27 871.32 74.90 Z" />
<path fill="#000000" d=" M 872.68 74.33 L 874.18 74.14 C 873.82 76.12 873.80 78.15 874.26 80.11 L 874.73 79.89 C 876.36 78.68 879.27 78.59 880.09 80.79 C 880.41 82.95 881.15 86.04 878.47 87.03 C 879.42 85.38 879.97 82.27 878.06 81.21 C 877.24 81.13 875.61 80.95 874.80 80.86 L 874.43 80.83 C 873.72 82.84 873.68 85.02 874.17 87.08 L 874.51 87.21 C 875.63 87.65 876.77 88.10 877.91 88.55 L 878.14 89.09 C 876.36 88.88 874.60 88.66 872.83 88.44 C 873.19 83.74 872.99 79.03 872.68 74.33 Z" />
<path fill="#619c91" d=" M 874.18 74.14 C 875.84 75.05 875.27 78.26 874.73 79.89 L 874.26 80.11 C 873.80 78.15 873.82 76.12 874.18 74.14 Z" />
<path fill="#7f2a0b" d=" M 883.54 74.95 C 883.79 74.68 884.27 74.15 884.51 73.88 C 884.74 78.84 886.10 84.20 883.80 88.87 C 883.98 84.22 884.10 79.57 883.54 74.95 Z" />
<path fill="#030f35" d=" M 884.51 73.88 L 886.22 73.79 C 886.06 78.80 885.38 83.96 886.65 88.87 C 885.94 88.87 884.51 88.87 883.80 88.87 C 886.10 84.20 884.74 78.84 884.51 73.88 Z" />
<path fill="#babb94" d=" M 886.22 73.79 C 887.81 78.91 885.46 84.53 887.95 89.46 C 887.62 89.31 886.98 89.02 886.65 88.87 C 885.38 83.96 886.06 78.80 886.22 73.79 Z" />
<path fill="#367986" d=" M 684.98 75.81 C 685.19 75.61 685.61 75.22 685.82 75.03 C 686.60 76.34 686.51 77.59 685.55 78.76 L 685.07 78.62 C 685.05 77.92 685.01 76.51 684.98 75.81 Z" />
<path fill="#478089" d=" M 372.71 76.46 C 374.07 74.91 375.09 78.39 373.18 78.30 L 372.45 78.00 C 372.52 77.61 372.65 76.85 372.71 76.46 Z" />
<path fill="#000000" d=" M 682.87 79.11 C 683.66 78.07 684.30 76.93 684.98 75.81 C 685.01 76.51 685.05 77.92 685.07 78.62 L 685.55 78.76 C 686.27 78.97 687.72 79.40 688.44 79.62 C 687.83 79.69 686.61 79.83 686.00 79.90 L 684.94 80.01 C 684.89 83.04 685.04 86.08 685.56 89.08 C 684.81 89.04 683.32 88.97 682.58 88.94 C 684.95 86.58 683.72 82.96 684.02 80.00 L 682.99 79.87 C 682.63 79.83 681.90 79.73 681.53 79.69 L 682.87 79.11 Z" />
<path fill="#7b1c00" d=" M 689.89 76.36 C 690.17 76.37 690.71 76.39 690.98 76.40 C 690.98 80.11 691.12 83.83 690.75 87.53 L 689.93 88.22 C 689.93 84.26 689.94 80.31 689.89 76.36 Z" />
<path fill="#478089" d=" M 716.70 76.52 C 718.00 74.90 719.08 78.32 717.26 78.42 L 716.59 78.17 C 716.62 77.76 716.68 76.93 716.70 76.52 Z" />
<path fill="#d58336" d=" M 370.23 79.09 C 371.05 78.21 371.87 77.33 372.71 76.46 C 372.65 76.85 372.52 77.61 372.45 78.00 C 372.23 78.28 371.78 78.86 371.55 79.15 C 372.06 82.24 372.08 85.36 371.98 88.48 C 370.56 85.55 371.34 82.12 370.23 79.09 Z" />
<path fill="#d58336" d=" M 714.20 79.11 C 715.02 78.24 715.85 77.38 716.70 76.52 C 716.68 76.93 716.62 77.76 716.59 78.17 C 716.30 78.34 715.72 78.67 715.42 78.84 C 715.97 81.93 716.10 85.08 716.29 88.22 L 714.93 87.46 L 714.93 87.43 C 715.19 84.64 715.20 81.78 714.20 79.11 Z" />
<path fill="#783011" d=" M 354.52 79.95 C 354.79 79.68 355.33 79.12 355.60 78.84 C 355.96 82.16 356.17 85.52 355.55 88.82 C 355.23 88.96 354.59 89.23 354.27 89.36 C 355.27 86.29 354.93 83.09 354.52 79.95 Z" />
<path fill="#031037" d=" M 355.60 78.84 L 357.21 78.86 C 356.84 82.31 356.94 85.78 357.42 89.21 L 355.55 88.82 C 356.17 85.52 355.96 82.16 355.60 78.84 Z" />
<path fill="#b2a982" d=" M 357.21 78.86 C 357.76 81.89 357.68 84.98 357.68 88.05 C 358.24 88.11 359.36 88.22 359.92 88.28 L 360.49 88.31 L 360.12 88.90 C 359.22 89.03 358.32 89.13 357.42 89.21 C 356.94 85.78 356.84 82.31 357.21 78.86 Z" />
<path fill="#dc842f" d=" M 359.42 80.01 C 359.73 79.82 360.35 79.43 360.65 79.24 C 360.81 82.24 361.59 85.43 360.49 88.31 L 359.92 88.28 C 360.16 85.51 360.22 82.70 359.42 80.01 Z" />
<path fill="#0a0506" d=" M 360.65 79.24 L 362.16 79.13 C 362.38 82.22 360.99 85.90 363.11 88.53 L 363.60 89.21 C 362.73 89.13 360.99 88.97 360.12 88.90 L 360.49 88.31 C 361.59 85.43 360.81 82.24 360.65 79.24 Z" />
<path fill="#30737d" d=" M 362.16 79.13 L 363.09 79.09 L 363.03 80.13 L 363.00 80.62 C 362.89 83.26 362.99 85.90 363.11 88.53 C 360.99 85.90 362.38 82.22 362.16 79.13 Z" />
<path fill="#000000" d=" M 363.03 80.13 C 364.44 78.87 367.12 78.36 367.90 80.56 C 367.94 83.32 367.71 86.16 368.59 88.83 L 366.49 88.83 C 367.09 86.07 367.49 83.07 366.14 80.45 C 365.36 80.49 363.79 80.58 363.00 80.62 L 363.03 80.13 Z" />
<path fill="#000000" d=" M 371.55 79.15 C 371.78 78.86 372.23 78.28 372.45 78.00 L 373.18 78.30 C 373.95 78.62 375.50 79.25 376.27 79.57 C 375.59 79.71 374.22 79.98 373.54 80.12 L 373.22 80.19 C 372.81 82.46 372.82 84.78 373.21 87.05 L 373.53 87.12 C 374.20 87.26 375.54 87.54 376.21 87.68 C 374.91 88.55 373.49 89.45 371.98 88.48 C 372.08 85.36 372.06 82.24 371.55 79.15 Z" />
<path fill="#000000" d=" M 520.00 82.33 C 521.14 78.31 526.76 78.06 528.80 81.51 C 528.77 83.08 528.84 84.70 528.04 86.11 C 527.76 86.30 527.22 86.68 526.95 86.87 C 527.11 84.39 527.29 81.63 525.24 79.84 C 524.73 79.85 523.71 79.87 523.20 79.88 C 522.80 80.35 521.99 81.29 521.59 81.76 C 520.34 82.64 520.69 84.37 521.87 85.12 C 522.35 86.12 522.84 87.11 523.34 88.10 C 524.04 88.03 525.44 87.89 526.14 87.82 L 526.04 88.34 C 525.34 88.59 523.94 89.10 523.24 89.35 C 522.32 88.62 521.43 87.85 520.58 87.05 C 520.33 85.48 520.15 83.91 520.00 82.33 Z" />
<path fill="#d17c2e" d=" M 530.37 80.26 C 530.80 79.89 531.24 79.52 531.69 79.15 C 531.94 82.34 532.45 85.65 531.39 88.76 C 531.14 88.93 530.65 89.28 530.40 89.45 C 531.15 86.43 531.75 83.20 530.37 80.26 Z" />
<path fill="#0a0506" d=" M 531.69 79.15 L 533.17 79.16 C 533.33 82.31 532.06 85.95 534.13 88.68 L 534.47 89.25 C 533.70 89.13 532.16 88.88 531.39 88.76 C 532.45 85.65 531.94 82.34 531.69 79.15 Z" />
<path fill="#30737d" d=" M 533.17 79.16 L 534.10 79.09 L 534.03 80.14 L 534.00 80.64 C 533.87 83.32 534.00 86.00 534.13 88.68 C 532.06 85.95 533.33 82.31 533.17 79.16 Z" />
<path fill="#000000" d=" M 534.03 80.14 C 535.73 78.44 538.83 78.70 539.23 81.45 C 539.33 83.75 539.01 86.11 539.69 88.36 L 540.11 88.09 C 541.17 87.44 542.03 86.52 542.97 85.71 C 541.27 84.08 540.49 80.05 543.85 79.80 C 543.21 81.42 543.21 83.25 543.94 84.83 L 544.38 84.80 C 544.73 84.76 545.44 84.70 545.79 84.67 L 546.56 84.31 C 548.03 83.83 547.46 81.59 546.45 80.89 L 545.95 80.38 C 545.54 80.26 544.71 80.04 544.29 79.92 L 543.85 79.80 L 542.44 79.41 C 545.29 79.06 548.09 79.78 550.86 80.38 C 550.44 80.58 549.59 80.99 549.16 81.19 L 548.72 81.39 C 548.53 82.57 548.46 83.76 548.52 84.95 C 546.62 85.44 544.65 85.67 542.73 85.96 C 544.66 88.56 549.61 85.96 550.57 89.99 C 548.97 93.87 544.31 95.17 540.88 92.79 C 540.96 92.39 541.12 91.59 541.20 91.19 L 542.19 88.36 C 540.18 88.81 538.13 89.02 536.09 89.00 C 536.43 88.59 537.12 87.77 537.46 87.36 C 537.39 85.09 537.33 82.81 537.22 80.54 C 536.42 80.56 534.81 80.62 534.00 80.64 L 534.03 80.14 Z" />
<path fill="#000000" d=" M 695.00 82.30 C 696.11 78.55 701.32 77.99 703.49 81.11 C 703.67 82.81 703.77 84.50 703.80 86.21 C 703.32 86.37 702.35 86.70 701.87 86.87 C 702.28 84.29 702.11 81.56 700.19 79.60 C 698.68 79.72 697.56 80.65 696.55 81.67 C 695.19 82.47 695.79 84.29 696.85 85.07 C 697.32 86.04 697.81 87.01 698.32 87.98 C 699.02 87.96 700.43 87.93 701.13 87.92 L 700.96 88.38 C 700.28 88.62 698.92 89.10 698.25 89.35 C 697.32 88.62 696.44 87.86 695.59 87.07 C 695.33 85.48 695.15 83.89 695.00 82.30 Z" />
<path fill="#b25f2e" d=" M 706.85 81.96 C 704.62 82.35 705.98 77.90 707.70 79.40 L 707.98 80.03 C 707.69 80.51 707.13 81.48 706.85 81.96 Z" />
<path fill="#000000" d=" M 707.70 79.40 C 709.05 79.29 710.41 79.19 711.77 79.11 L 711.84 79.84 C 712.10 82.99 712.39 86.14 712.82 89.27 C 712.28 88.99 711.21 88.43 710.68 88.15 C 709.07 88.83 706.90 89.64 705.84 87.64 C 706.13 86.74 706.43 85.84 706.73 84.95 C 706.96 85.37 707.40 86.21 707.62 86.63 C 708.42 86.90 710.02 87.45 710.81 87.72 C 710.82 86.57 710.83 84.28 710.83 83.13 L 710.87 82.82 C 710.89 82.18 710.94 80.91 710.97 80.27 L 710.30 80.22 C 709.72 80.17 708.56 80.08 707.98 80.03 L 707.70 79.40 Z" />
<path fill="#000000" d=" M 715.42 78.84 C 715.72 78.67 716.30 78.34 716.59 78.17 L 717.26 78.42 C 718.03 78.73 719.57 79.34 720.34 79.65 C 719.64 79.77 718.24 80.01 717.54 80.13 L 717.22 80.18 C 716.79 82.47 716.82 84.82 717.23 87.10 L 717.55 87.17 C 718.23 87.30 719.58 87.56 720.26 87.70 C 719.00 88.32 717.69 88.86 716.37 89.30 L 716.29 88.22 C 716.10 85.08 715.97 81.93 715.42 78.84 Z" />
<path fill="#653d2e" d=" M 840.59 81.99 C 839.93 80.75 841.55 79.05 842.85 79.30 L 843.29 79.55 C 842.90 80.12 842.12 81.27 841.72 81.85 L 841.13 81.97 L 840.59 81.99 Z" />
<path fill="#000000" d=" M 851.12 82.36 C 852.04 78.18 857.82 78.18 859.87 81.50 C 859.78 83.08 859.76 84.70 859.06 86.16 C 858.77 86.36 858.19 86.77 857.90 86.97 C 858.21 84.44 858.26 81.69 856.26 79.83 C 855.75 79.84 854.72 79.87 854.20 79.88 C 853.80 80.34 852.99 81.27 852.59 81.73 C 851.33 82.61 851.68 84.33 852.84 85.10 C 853.39 86.16 853.96 87.21 854.54 88.26 C 855.16 88.17 856.38 87.99 857.00 87.90 L 856.90 88.36 C 856.25 88.63 854.97 89.18 854.32 89.45 C 853.28 88.50 852.29 87.50 851.38 86.44 C 851.31 86.36 851.16 86.19 851.08 86.11 C 851.17 84.86 851.18 83.61 851.12 82.36 Z" />
<path fill="#d77f31" d=" M 860.17 78.54 C 860.45 78.70 861.01 79.04 861.29 79.21 C 862.21 82.46 861.91 85.90 862.70 89.18 C 859.77 86.46 861.25 82.01 860.17 78.54 Z" />
<path fill="#000000" d=" M 861.29 79.21 L 862.95 78.95 C 862.98 81.84 862.68 84.84 863.78 87.59 C 868.31 88.67 867.21 83.42 867.39 80.67 C 867.05 80.27 866.38 79.49 866.05 79.10 C 866.85 79.06 868.46 78.98 869.27 78.94 C 869.14 82.27 869.19 85.62 869.68 88.93 C 867.35 88.08 865.00 88.58 862.70 89.18 C 861.91 85.90 862.21 82.46 861.29 79.21 Z" />
<path fill="#438c8e" d=" M 862.95 78.95 L 863.97 79.02 C 864.00 81.88 864.01 84.74 863.78 87.59 C 862.68 84.84 862.98 81.84 862.95 78.95 Z" />
<path fill="#ffffff" d=" M 869.27 78.94 C 869.49 82.24 870.45 85.64 869.68 88.93 C 869.19 85.62 869.14 82.27 869.27 78.94 Z" />
<path fill="#000000" d=" M 888.98 82.32 C 889.73 79.53 892.71 78.67 895.29 79.11 C 895.83 80.33 896.37 81.54 896.98 82.74 C 894.89 82.75 892.84 82.77 890.78 82.91 L 890.02 82.93 C 890.15 83.43 890.41 84.43 890.55 84.94 C 891.58 85.75 892.38 87.50 893.98 87.19 C 895.24 86.92 896.11 85.89 897.16 85.20 C 896.26 88.44 892.34 90.53 889.79 87.59 C 889.39 85.85 889.16 84.08 888.98 82.32 Z" />
<path fill="#ffffff" d=" M 895.29 79.11 C 897.14 77.97 898.84 82.24 896.98 82.74 C 896.37 81.54 895.83 80.33 895.29 79.11 Z" />
<path fill="#347d89" d=" M 373.22 80.19 L 373.54 80.12 C 374.52 82.20 374.47 85.03 373.53 87.12 L 373.21 87.05 C 372.82 84.78 372.81 82.46 373.22 80.19 Z" />
<path fill="#c7c7c7" d=" M 417.30 80.39 C 419.52 80.15 421.75 79.93 423.99 79.96 C 437.51 80.08 451.04 79.91 464.57 80.04 C 464.44 80.50 464.17 81.43 464.04 81.89 C 450.37 82.19 436.68 81.88 423.00 82.03 C 421.15 81.89 419.09 82.32 417.45 81.23 C 417.42 81.02 417.34 80.60 417.30 80.39 Z" />
<path fill="#ffcc99" d=" M 523.20 79.88 C 523.71 79.87 524.73 79.85 525.24 79.84 C 525.70 82.28 526.04 84.74 526.47 87.19 L 526.14 87.82 C 525.44 87.89 524.04 88.03 523.34 88.10 C 522.84 87.11 522.35 86.12 521.87 85.12 C 521.80 84.28 521.66 82.60 521.59 81.76 C 521.99 81.29 522.80 80.35 523.20 79.88 Z" />
<path fill="#e28937" d=" M 525.24 79.84 C 527.29 81.63 527.11 84.39 526.95 86.87 L 526.47 87.19 C 526.04 84.74 525.70 82.28 525.24 79.84 Z" />
<path fill="#ffffff" d=" M 543.85 79.80 L 544.29 79.92 C 544.79 81.49 544.85 83.21 544.38 84.80 L 543.94 84.83 C 543.21 83.25 543.21 81.42 543.85 79.80 Z" />
<path fill="#f7ca97" d=" M 544.29 79.92 C 544.71 80.04 545.54 80.26 545.95 80.38 L 546.45 80.89 C 546.48 81.74 546.53 83.45 546.56 84.31 L 545.79 84.67 C 545.44 84.70 544.73 84.76 544.38 84.80 C 544.85 83.21 544.79 81.49 544.29 79.92 Z" />
<path fill="#c7c7c7" d=" M 585.25 80.41 C 588.13 80.03 591.04 79.89 593.95 79.97 C 606.66 80.13 619.38 79.81 632.08 80.10 C 632.24 80.57 632.54 81.51 632.69 81.98 C 618.80 82.06 604.91 81.94 591.03 82.04 C 589.29 81.74 586.88 82.73 585.75 80.93 C 585.63 80.80 585.38 80.54 585.25 80.41 Z" />
<path fill="#e48830" d=" M 682.99 79.87 L 684.02 80.00 C 683.72 82.96 684.95 86.58 682.58 88.94 L 682.27 89.33 C 683.04 86.24 683.11 83.04 682.99 79.87 Z" />
<path fill="#488081" d=" M 684.94 80.01 L 686.00 79.90 C 686.57 82.75 684.32 87.63 688.06 88.67 C 687.21 88.80 686.38 88.94 685.56 89.08 C 685.04 86.08 684.89 83.04 684.94 80.01 Z" />
<path fill="#ffcc99" d=" M 696.55 81.67 C 697.56 80.65 698.68 79.72 700.19 79.60 C 700.69 82.12 701.02 84.66 701.41 87.20 L 701.13 87.92 C 700.43 87.93 699.02 87.96 698.32 87.98 C 697.81 87.01 697.32 86.04 696.85 85.07 C 696.77 84.22 696.63 82.52 696.55 81.67 Z" />
<path fill="#e28937" d=" M 700.19 79.60 C 702.11 81.56 702.28 84.29 701.87 86.87 L 701.41 87.20 C 701.02 84.66 700.69 82.12 700.19 79.60 Z" />
<path fill="#001743" d=" M 706.85 81.96 C 707.13 81.48 707.69 80.51 707.98 80.03 L 708.33 80.92 L 707.75 81.90 L 706.85 81.96 Z" />
<path fill="#e69643" d=" M 710.30 80.22 L 710.97 80.27 C 710.94 80.91 710.89 82.18 710.87 82.82 L 710.27 82.77 C 710.14 82.31 709.88 81.39 709.75 80.92 L 710.30 80.22 Z" />
<path fill="#274c69" d=" M 711.84 79.84 L 712.95 79.81 C 713.02 82.22 712.96 84.64 713.18 87.04 C 713.62 87.14 714.49 87.33 714.93 87.43 L 714.93 87.46 C 714.40 87.91 713.35 88.81 712.82 89.27 C 712.39 86.14 712.10 82.99 711.84 79.84 Z" />
<path fill="#347d89" d=" M 717.22 80.18 L 717.54 80.13 C 718.51 82.23 718.45 85.04 717.55 87.17 L 717.23 87.10 C 716.82 84.82 716.79 82.47 717.22 80.18 Z" />
<path fill="#c7c7c7" d=" M 753.59 80.92 L 754.68 80.15 C 769.77 79.80 784.89 80.09 799.99 80.02 C 799.99 80.51 800.00 81.49 800.00 81.98 C 784.45 81.82 768.87 82.40 753.35 81.67 C 753.41 81.48 753.53 81.10 753.59 80.92 Z" />
<path fill="#ffcc99" d=" M 854.20 79.88 C 854.72 79.87 855.75 79.84 856.26 79.83 C 856.70 82.30 856.99 84.79 857.40 87.27 L 857.00 87.90 C 856.38 87.99 855.16 88.17 854.54 88.26 C 853.96 87.21 853.39 86.16 852.84 85.10 C 852.78 84.26 852.65 82.57 852.59 81.73 C 852.99 81.27 853.80 80.34 854.20 79.88 Z" />
<path fill="#e28937" d=" M 856.26 79.83 C 858.26 81.69 858.21 84.44 857.90 86.97 L 857.40 87.27 C 856.99 84.79 856.70 82.30 856.26 79.83 Z" />
<path fill="#fdc78d" d=" M 890.78 81.18 C 891.17 79.78 893.69 79.61 894.23 81.00 L 894.01 81.55 C 892.70 82.36 891.62 82.24 890.78 81.18 Z" />
<path fill="#892a06" d=" M 366.14 80.45 C 367.49 83.07 367.09 86.07 366.49 88.83 C 366.20 88.97 365.63 89.24 365.35 89.38 C 366.04 86.45 366.00 83.44 366.14 80.45 Z" />
<path fill="#a6b290" d=" M 367.90 80.56 C 369.11 83.37 368.70 86.56 369.76 89.43 C 369.46 89.28 368.88 88.98 368.59 88.83 C 367.71 86.16 367.94 83.32 367.90 80.56 Z" />
<path fill="#ffffff" d=" M 528.80 81.51 L 528.83 80.62 C 528.91 83.63 529.94 87.26 527.10 89.39 C 526.84 89.13 526.31 88.60 526.04 88.34 L 526.14 87.82 L 526.47 87.19 L 526.95 86.87 C 527.22 86.68 527.76 86.30 528.04 86.11 C 528.84 84.70 528.77 83.08 528.80 81.51 Z" />
<path fill="#ffffff" d=" M 539.23 81.45 C 540.89 82.61 540.91 86.24 540.11 88.09 L 539.69 88.36 C 539.01 86.11 539.33 83.75 539.23 81.45 Z" />
<path fill="#ffcc99" d=" M 546.45 80.89 C 547.46 81.59 548.03 83.83 546.56 84.31 C 546.53 83.45 546.48 81.74 546.45 80.89 Z" />
<path fill="#ffffff" d=" M 548.72 81.39 L 549.16 81.19 C 550.30 82.02 550.18 85.00 548.52 84.95 C 548.46 83.76 548.53 82.57 548.72 81.39 Z" />
<path fill="#ffffff" d=" M 703.49 81.11 L 704.04 80.96 C 704.21 83.64 704.68 88.10 700.96 88.38 L 701.13 87.92 L 701.41 87.20 L 701.87 86.87 C 702.35 86.70 703.32 86.37 703.80 86.21 C 703.77 84.50 703.67 82.81 703.49 81.11 Z" />
<path fill="#9c2b00" d=" M 846.28 81.08 C 847.90 82.56 846.98 85.17 846.37 86.98 C 845.45 85.23 845.41 82.84 846.28 81.08 Z" />
<path fill="#ffffff" d=" M 859.87 81.50 L 859.97 80.41 C 860.39 83.16 861.25 88.92 856.90 88.36 L 857.00 87.90 L 857.40 87.27 L 857.90 86.97 C 858.19 86.77 858.77 86.36 859.06 86.16 C 859.76 84.70 859.78 83.08 859.87 81.50 Z" />
<path fill="#5a948f" d=" M 874.43 80.83 L 874.80 80.86 C 875.31 82.95 875.24 85.18 874.51 87.21 L 874.17 87.08 C 873.68 85.02 873.72 82.84 874.43 80.83 Z" />
<path fill="#ffcc99" d=" M 874.80 80.86 C 875.61 80.95 877.24 81.13 878.06 81.21 C 877.86 83.24 877.96 85.27 878.11 87.30 L 877.91 88.55 C 876.77 88.10 875.63 87.65 874.51 87.21 C 875.24 85.18 875.31 82.95 874.80 80.86 Z" />
<path fill="#de8c3c" d=" M 878.06 81.21 C 879.97 82.27 879.42 85.38 878.47 87.03 L 878.11 87.30 C 877.96 85.27 877.86 83.24 878.06 81.21 Z" />
<path fill="#516a74" d=" M 880.09 80.79 L 881.09 80.68 C 881.42 83.83 881.08 87.28 878.14 89.09 L 877.91 88.55 L 878.11 87.30 L 878.47 87.03 C 881.15 86.04 880.41 82.95 880.09 80.79 Z" />
<path fill="#ce5e13" d=" M 894.23 81.00 C 894.18 81.14 894.06 81.41 894.01 81.55 L 894.23 81.00 Z" />
<path fill="#ea9947" d=" M 520.58 87.05 C 518.41 87.36 517.85 82.53 520.00 82.33 C 520.15 83.91 520.33 85.48 520.58 87.05 Z" />
<path fill="#043769" d=" M 521.87 85.12 C 520.69 84.37 520.34 82.64 521.59 81.76 C 521.66 82.60 521.80 84.28 521.87 85.12 Z" />
<path fill="#ea9947" d=" M 695.59 87.07 C 693.40 87.35 692.89 82.59 695.00 82.30 C 695.15 83.89 695.33 85.48 695.59 87.07 Z" />
<path fill="#043769" d=" M 696.85 85.07 C 695.79 84.29 695.19 82.47 696.55 81.67 C 696.63 82.52 696.77 84.22 696.85 85.07 Z" />
<path fill="#1f0706" d=" M 840.59 81.99 L 841.13 81.97 C 840.59 83.68 840.70 86.06 842.58 86.89 C 843.68 87.52 844.74 88.22 845.76 88.99 C 843.40 89.48 840.05 88.56 840.03 85.65 C 840.01 85.02 839.98 83.76 839.96 83.13 L 840.59 81.99 Z" />
<path fill="#325971" d=" M 841.13 81.97 L 841.72 81.85 C 842.54 83.31 842.61 85.25 842.58 86.89 C 840.70 86.06 840.59 83.68 841.13 81.97 Z" />
<path fill="#f8a648" d=" M 851.08 86.11 C 849.38 85.97 849.27 82.18 851.12 82.36 C 851.18 83.61 851.17 84.86 851.08 86.11 Z" />
<path fill="#043769" d=" M 852.84 85.10 C 851.68 84.33 851.33 82.61 852.59 81.73 C 852.65 82.57 852.78 84.26 852.84 85.10 Z" />
<path fill="#ea9d4c" d=" M 889.79 87.59 C 887.39 87.74 886.75 82.79 888.98 82.32 C 889.16 84.08 889.39 85.85 889.79 87.59 Z" />
<path fill="#555754" d=" M 706.74 84.31 C 707.73 83.42 708.90 82.90 710.27 82.77 L 710.87 82.82 L 710.83 83.13 C 709.61 84.16 708.44 85.26 707.62 86.63 C 707.40 86.21 706.96 85.37 706.73 84.95 L 706.74 84.31 Z" />
<path fill="#f59d3c" d=" M 840.03 85.65 C 838.26 86.38 838.14 82.55 839.96 83.13 C 839.98 83.76 840.01 85.02 840.03 85.65 Z" />
<path fill="#3e828a" d=" M 890.02 82.93 L 890.78 82.91 C 890.72 83.42 890.61 84.43 890.55 84.94 C 890.41 84.43 890.15 83.43 890.02 82.93 Z" />
<path fill="#f8b060" d=" M 705.84 87.64 C 703.64 87.67 704.82 83.09 706.74 84.31 L 706.73 84.95 C 706.43 85.84 706.13 86.74 705.84 87.64 Z" />
<path fill="#ffcc99" d=" M 707.62 86.63 C 708.44 85.26 709.61 84.16 710.83 83.13 C 710.83 84.28 710.82 86.57 710.81 87.72 C 710.02 87.45 708.42 86.90 707.62 86.63 Z" />
<path fill="#9c3203" d=" M 851.08 86.11 C 851.16 86.19 851.31 86.36 851.38 86.44 C 851.31 86.36 851.16 86.19 851.08 86.11 Z" />
<path fill="#9a310b" d=" M 845.93 88.43 C 845.99 88.44 846.12 88.48 846.18 88.50 C 846.12 88.48 845.99 88.44 845.93 88.43 Z" />
<path fill="#ffffff" d=" M 543.20 91.90 C 541.66 92.12 541.86 88.83 543.37 89.19 C 543.33 89.87 543.25 91.22 543.20 91.90 Z" />
<path fill="#ffcc99" d=" M 543.37 89.19 C 545.57 88.87 547.81 89.01 549.95 89.66 C 548.95 92.48 545.69 93.61 543.20 91.90 C 543.25 91.22 543.33 89.87 543.37 89.19 Z" />
<path fill="#f49f43" d=" M 540.88 92.79 C 539.44 92.04 539.55 91.50 541.20 91.19 C 541.12 91.59 540.96 92.39 540.88 92.79 Z" />
<path fill="#000000" d=" M 304.23 99.35 C 306.87 98.46 309.52 97.57 312.18 96.71 C 311.27 99.36 310.41 102.04 309.56 104.71 C 309.19 104.18 308.43 103.12 308.05 102.59 C 305.70 104.73 303.48 107.01 301.24 109.25 C 296.38 114.31 291.07 118.96 286.50 124.28 C 285.86 124.66 284.57 125.42 283.92 125.80 C 291.34 117.49 300.01 110.34 307.11 101.76 C 306.14 100.96 305.18 100.16 304.23 99.35 Z" />
<path fill="#000000" d=" M 46.07 105.04 C 63.55 104.03 81.71 105.01 97.98 112.04 C 104.90 115.21 112.56 120.33 113.22 128.66 C 129.00 128.96 144.79 128.66 160.58 128.81 C 160.68 127.49 160.78 126.16 160.88 124.84 C 162.90 125.91 164.92 126.97 166.87 128.16 C 167.47 127.86 168.06 127.57 168.66 127.26 C 169.34 123.45 171.60 120.15 174.51 117.68 C 179.51 113.44 185.68 110.86 191.89 108.98 C 206.83 104.58 222.62 104.05 238.06 105.24 C 248.79 106.47 259.70 108.52 269.28 113.70 C 275.08 116.71 280.23 121.64 281.53 128.29 C 281.93 127.66 282.75 126.41 283.16 125.78 C 283.48 126.09 283.80 126.40 284.13 126.72 C 282.63 127.79 281.05 128.97 280.93 130.97 C 280.12 135.90 276.48 139.71 272.45 142.36 C 264.81 147.39 255.84 149.95 246.90 151.42 C 244.34 151.85 241.71 151.96 239.30 153.00 L 229.45 153.00 L 230.97 152.43 C 233.76 152.20 236.56 152.18 239.36 152.42 C 242.75 150.88 246.55 151.00 250.12 150.16 C 258.42 148.42 266.82 145.85 273.69 140.71 C 277.65 137.72 281.01 133.10 280.45 127.91 C 279.83 123.04 276.21 119.30 272.36 116.61 C 264.45 111.11 254.88 108.86 245.55 107.15 C 231.64 105.00 217.39 105.06 203.48 107.27 C 193.83 109.11 183.86 111.59 175.96 117.74 C 172.23 120.63 169.04 125.01 169.51 129.97 C 170.12 135.71 174.83 139.90 179.45 142.78 C 188.43 148.01 198.79 150.46 209.06 151.41 C 205.68 152.38 202.25 151.34 198.93 150.66 C 190.75 148.96 182.54 146.28 175.81 141.20 C 171.78 138.12 168.39 133.64 168.57 128.33 C 165.97 129.55 163.40 130.83 160.86 132.17 C 160.79 131.43 160.67 129.96 160.61 129.22 C 144.80 129.31 128.98 129.05 113.17 129.35 C 112.56 138.28 103.95 143.37 96.58 146.53 C 88.98 150.18 80.39 150.61 72.46 153.00 L 62.18 153.00 L 62.31 152.98 C 65.24 152.43 68.19 151.95 71.13 151.41 C 81.36 151.09 91.58 148.50 100.72 143.89 C 106.11 141.00 111.75 136.56 112.48 130.04 C 112.86 125.42 110.09 121.17 106.61 118.36 C 98.83 111.85 88.71 109.30 78.96 107.39 C 64.71 105.00 50.07 105.00 35.79 107.22 C 26.43 108.97 16.85 111.33 8.98 116.96 C 5.10 119.77 1.48 123.89 1.47 128.95 C 1.48 134.87 6.21 139.36 10.81 142.39 C 19.92 147.90 30.55 150.43 41.06 151.41 C 36.96 152.52 32.87 150.94 28.86 150.19 C 19.90 148.08 10.57 144.80 4.23 137.80 C 0.53 133.96 -0.57 127.75 2.08 123.03 C 5.19 117.54 10.86 114.15 16.48 111.66 C 25.84 107.67 35.99 105.90 46.07 105.04 Z" />
<path fill="#ffcc99" d=" M 35.79 107.22 C 50.07 105.00 64.71 105.00 78.96 107.39 C 88.71 109.30 98.83 111.85 106.61 118.36 C 110.09 121.17 112.86 125.42 112.48 130.04 C 111.75 136.56 106.11 141.00 100.72 143.89 C 91.58 148.50 81.36 151.09 71.13 151.41 C 68.19 151.95 65.24 152.43 62.31 152.98 C 58.84 151.65 55.11 152.07 51.50 152.27 C 48.93 152.04 46.37 151.90 43.80 151.83 C 42.89 151.63 41.98 151.49 41.06 151.41 C 30.55 150.43 19.92 147.90 10.81 142.39 C 6.21 139.36 1.48 134.87 1.47 128.95 C 1.48 123.89 5.10 119.77 8.98 116.96 C 16.85 111.33 26.43 108.97 35.79 107.22 Z" />
<path fill="#ffcc99" d=" M 203.48 107.27 C 217.39 105.06 231.64 105.00 245.55 107.15 C 254.88 108.86 264.45 111.11 272.36 116.61 C 276.21 119.30 279.83 123.04 280.45 127.91 C 281.01 133.10 277.65 137.72 273.69 140.71 C 266.82 145.85 258.42 148.42 250.12 150.16 C 246.55 151.00 242.75 150.88 239.36 152.42 C 236.56 152.18 233.76 152.20 230.97 152.43 C 227.07 152.04 223.16 151.99 219.25 152.24 C 216.77 152.03 214.29 151.90 211.81 151.83 C 210.90 151.63 209.98 151.49 209.06 151.41 C 198.79 150.46 188.43 148.01 179.45 142.78 C 174.83 139.90 170.12 135.71 169.51 129.97 C 169.04 125.01 172.23 120.63 175.96 117.74 C 183.86 111.59 193.83 109.11 203.48 107.27 Z" />
<path fill="#c8641b" d=" M 42.37 122.94 C 42.70 122.78 43.35 122.48 43.68 122.32 C 44.00 127.02 44.19 131.74 43.84 136.44 C 41.87 132.25 43.95 127.32 42.37 122.94 Z" />
<path fill="#000000" d=" M 43.68 122.32 L 45.18 122.13 C 44.83 124.09 44.80 126.11 45.26 128.06 L 45.73 127.85 C 47.52 126.59 49.74 126.89 51.27 128.37 C 51.22 130.62 52.32 133.96 49.50 135.00 C 50.44 133.33 50.96 130.23 49.01 129.19 C 48.21 129.09 46.60 128.90 45.80 128.81 L 45.43 128.77 C 44.74 130.82 44.71 133.03 45.18 135.12 L 45.51 135.25 C 46.68 135.68 47.85 136.11 49.02 136.55 L 49.05 137.11 C 47.31 136.88 45.58 136.65 43.84 136.44 C 44.19 131.74 44.00 127.02 43.68 122.32 Z" />
<path fill="#619c91" d=" M 45.18 122.13 C 46.85 123.05 46.30 126.23 45.73 127.85 L 45.26 128.06 C 44.80 126.11 44.83 124.09 45.18 122.13 Z" />
<path fill="#e48e39" d=" M 215.49 123.17 C 215.77 122.91 216.32 122.38 216.59 122.12 C 216.92 126.62 217.40 131.19 216.76 135.67 C 216.49 135.94 215.94 136.49 215.67 136.77 L 214.95 137.17 C 215.06 136.68 215.28 135.71 215.39 135.23 C 216.78 131.33 215.94 127.15 215.49 123.17 Z" />
<path fill="#100503" d=" M 216.59 122.12 L 218.18 122.11 C 217.84 124.14 217.99 126.20 218.14 128.24 C 218.12 128.67 218.06 129.55 218.04 129.99 C 218.05 131.90 217.37 134.20 218.66 135.83 L 219.98 137.13 C 218.91 137.04 216.75 136.86 215.67 136.77 C 215.94 136.49 216.49 135.94 216.76 135.67 C 217.40 131.19 216.92 126.62 216.59 122.12 Z" />
<path fill="#307586" d=" M 218.18 122.11 L 218.55 122.10 C 219.65 123.82 219.46 126.36 218.47 128.10 L 218.14 128.24 C 217.99 126.20 217.84 124.14 218.18 122.11 Z" />
<path fill="#478089" d=" M 66.11 124.35 C 67.46 124.66 67.70 125.48 66.85 126.82 C 66.56 126.37 65.98 125.47 65.69 125.02 L 66.11 124.35 Z" />
<path fill="#478089" d=" M 247.11 124.36 C 248.45 124.65 248.70 125.47 247.85 126.82 C 247.56 126.37 246.98 125.49 246.69 125.04 L 247.11 124.36 Z" />
<path fill="#000000" d=" M 64.10 127.03 C 64.63 126.36 65.16 125.69 65.69 125.02 C 65.98 125.47 66.56 126.37 66.85 126.82 C 67.43 126.99 68.59 127.33 69.16 127.51 C 68.61 127.69 67.49 128.07 66.93 128.25 L 66.60 128.36 C 66.66 130.52 65.94 133.18 66.95 135.05 C 67.55 135.27 68.74 135.69 69.34 135.91 C 68.00 136.37 66.66 136.84 65.31 137.30 L 65.26 136.56 C 65.06 133.73 65.04 130.89 64.87 128.05 L 63.93 127.42 C 62.75 127.91 61.98 128.81 61.64 130.13 L 61.53 129.93 L 61.21 129.24 C 61.00 128.73 60.56 127.70 60.35 127.19 C 61.60 127.13 62.85 127.08 64.10 127.03 Z" />
<path fill="#000000" d=" M 244.64 127.46 C 245.33 126.66 246.02 125.86 246.69 125.04 C 246.98 125.49 247.56 126.37 247.85 126.82 C 248.42 126.99 249.56 127.34 250.13 127.52 C 249.58 127.70 248.49 128.06 247.94 128.24 L 247.60 128.35 C 247.64 130.51 246.98 133.07 247.92 135.00 C 248.50 135.20 249.65 135.59 250.22 135.78 C 248.95 136.34 247.65 136.86 246.34 137.33 L 246.29 136.55 C 246.11 133.43 245.94 130.31 245.60 127.20 L 244.98 127.84 C 244.50 128.15 243.52 128.77 243.03 129.08 L 241.62 128.44 C 241.42 128.24 241.02 127.83 240.81 127.62 C 241.77 127.58 243.69 127.50 244.64 127.46 Z" />
<path fill="#d28042" d=" M 53.00 127.12 L 53.64 126.88 C 53.97 127.38 54.62 128.40 54.94 128.91 C 53.43 129.32 52.78 128.72 53.00 127.12 Z" />
<path fill="#000000" d=" M 53.64 126.88 C 54.55 127.07 56.36 127.46 57.27 127.65 L 56.70 128.36 C 56.68 128.48 56.64 128.72 56.63 128.83 L 57.09 130.02 C 57.17 130.19 57.31 130.55 57.38 130.73 C 57.99 132.09 58.64 133.99 59.81 131.94 C 59.81 132.36 59.80 133.18 59.80 133.59 L 59.95 135.14 C 59.63 135.52 58.99 136.26 58.67 136.64 L 58.54 138.11 L 58.35 137.71 L 58.15 137.21 L 57.83 136.23 C 57.17 133.87 56.23 131.61 55.16 129.41 L 54.94 128.91 C 54.62 128.40 53.97 127.38 53.64 126.88 Z" />
<path fill="#000000" d=" M 70.16 130.32 C 70.57 127.41 73.85 126.70 76.30 127.13 C 76.84 128.34 77.39 129.55 77.98 130.74 C 76.05 130.76 74.12 130.81 72.20 130.91 L 71.45 130.92 C 71.55 131.43 71.74 132.47 71.84 132.98 C 73.15 136.07 76.46 135.27 78.25 133.12 C 77.43 136.06 73.43 138.81 71.21 135.62 C 70.89 135.20 70.27 134.35 69.95 133.93 C 70.14 132.74 70.21 131.53 70.16 130.32 Z" />
<path fill="#ffffff" d=" M 76.30 127.13 C 78.15 125.99 79.87 130.28 77.98 130.74 C 77.39 129.55 76.84 128.34 76.30 127.13 Z" />
<path fill="#000000" d=" M 208.86 127.33 C 210.33 127.22 211.80 127.11 213.28 127.00 C 213.34 127.50 213.46 128.52 213.52 129.03 L 213.89 130.12 C 212.83 128.72 211.61 127.32 209.61 127.84 C 208.64 130.63 212.69 131.18 214.22 132.65 L 214.94 133.00 C 214.53 134.44 213.80 135.67 212.75 136.70 C 213.79 133.74 210.91 132.82 209.00 131.55 C 209.17 130.43 209.16 129.31 208.97 128.19 L 208.86 127.33 Z" />
<path fill="#092a5c" d=" M 213.28 127.00 L 214.06 127.33 C 213.92 127.75 213.65 128.60 213.52 129.03 C 213.46 128.52 213.34 127.50 213.28 127.00 Z" />
<path fill="#000000" d=" M 218.47 128.10 C 220.18 127.33 222.93 126.08 223.88 128.54 C 223.94 131.31 223.72 134.14 224.59 136.81 L 222.50 136.84 C 223.11 134.05 223.46 131.03 222.13 128.39 C 220.63 128.20 219.37 128.66 218.33 129.77 L 218.04 129.99 C 218.06 129.55 218.12 128.67 218.14 128.24 L 218.47 128.10 Z" />
<path fill="#000000" d=" M 227.00 130.30 C 228.22 126.26 233.53 126.26 235.84 129.33 C 235.84 131.22 235.76 133.21 234.54 134.77 L 233.95 134.93 C 234.10 132.43 234.28 129.71 232.29 127.85 C 231.77 127.86 230.73 127.88 230.21 127.89 C 229.80 128.36 228.98 129.31 228.58 129.78 C 227.33 130.66 227.69 132.38 228.86 133.13 C 229.34 134.09 229.83 135.04 230.33 136.00 C 231.03 135.97 232.43 135.90 233.13 135.87 L 233.02 136.37 C 231.58 138.30 228.74 136.49 227.57 135.08 C 227.33 133.49 227.16 131.90 227.00 130.30 Z" />
<path fill="#cf7c2f" d=" M 237.47 128.21 C 237.76 127.97 238.34 127.50 238.63 127.26 C 238.91 130.44 239.41 133.71 238.45 136.83 C 238.16 136.97 237.56 137.24 237.27 137.38 C 238.46 134.42 238.53 131.22 237.47 128.21 Z" />
<path fill="#0d0301" d=" M 238.63 127.26 L 240.12 126.89 C 240.04 130.22 239.79 133.59 240.52 136.88 L 238.45 136.83 C 239.41 133.71 238.91 130.44 238.63 127.26 Z" />
<path fill="#2f5f6b" d=" M 240.12 126.89 L 240.81 127.62 C 241.02 127.83 241.42 128.24 241.62 128.44 C 240.52 131.33 240.63 134.53 241.85 137.37 C 241.52 137.25 240.85 137.00 240.52 136.88 C 239.79 133.59 240.04 130.22 240.12 126.89 Z" />
<path fill="#2f7585" d=" M 56.63 128.83 C 56.64 128.72 56.68 128.48 56.70 128.36 L 56.63 128.83 Z" />
<path fill="#f1932e" d=" M 63.93 127.42 L 64.87 128.05 C 65.04 130.89 65.06 133.73 65.26 136.56 C 63.00 134.11 64.33 130.42 63.93 127.42 Z" />
<path fill="#ffffff" d=" M 66.60 128.36 L 66.93 128.25 C 68.29 130.12 68.00 133.09 66.95 135.05 C 65.94 133.18 66.66 130.52 66.60 128.36 Z" />
<path fill="#fdc78d" d=" M 71.76 129.21 C 72.14 127.79 74.69 127.61 75.22 129.01 L 74.99 129.56 C 73.70 130.36 72.63 130.25 71.76 129.21 Z" />
<path fill="#963c16" d=" M 209.00 131.55 C 207.22 131.93 207.14 127.86 208.97 128.19 C 209.16 129.31 209.17 130.43 209.00 131.55 Z" />
<path fill="#ffcc99" d=" M 230.21 127.89 C 230.73 127.88 231.77 127.86 232.29 127.85 C 232.78 130.26 233.05 132.71 233.39 135.15 L 233.13 135.87 C 232.43 135.90 231.03 135.97 230.33 136.00 C 229.83 135.04 229.34 134.09 228.86 133.13 C 228.79 132.29 228.65 130.62 228.58 129.78 C 228.98 129.31 229.80 128.36 230.21 127.89 Z" />
<path fill="#e28937" d=" M 232.29 127.85 C 234.28 129.71 234.10 132.43 233.95 134.93 L 233.39 135.15 C 233.05 132.71 232.78 130.26 232.29 127.85 Z" />
<path fill="#f1932e" d=" M 245.60 127.20 C 245.94 130.31 246.11 133.43 246.29 136.55 C 244.06 134.25 245.18 130.69 244.98 127.84 L 245.60 127.20 Z" />
<path fill="#ffffff" d=" M 247.60 128.35 L 247.94 128.24 C 249.30 130.09 249.03 133.08 247.92 135.00 C 246.98 133.07 247.64 130.51 247.60 128.35 Z" />
<path fill="#5a948f" d=" M 45.43 128.77 L 45.80 128.81 C 46.31 130.93 46.24 133.18 45.51 135.25 L 45.18 135.12 C 44.71 133.03 44.74 130.82 45.43 128.77 Z" />
<path fill="#ffcc99" d=" M 45.80 128.81 C 46.60 128.90 48.21 129.09 49.01 129.19 C 48.86 131.21 48.98 133.24 49.14 135.26 L 49.02 136.55 C 47.85 136.11 46.68 135.68 45.51 135.25 C 46.24 133.18 46.31 130.93 45.80 128.81 Z" />
<path fill="#de8c3c" d=" M 49.01 129.19 C 50.96 130.23 50.44 133.33 49.50 135.00 L 49.14 135.26 C 48.98 133.24 48.86 131.21 49.01 129.19 Z" />
<path fill="#516a74" d=" M 51.27 128.37 C 53.16 131.36 52.01 135.33 49.05 137.11 L 49.02 136.55 L 49.14 135.26 L 49.50 135.00 C 52.32 133.96 51.22 130.62 51.27 128.37 Z" />
<path fill="#e38434" d=" M 59.85 130.23 C 60.19 129.98 60.87 129.49 61.21 129.24 L 61.53 129.93 C 61.22 130.18 60.60 130.67 60.30 130.92 L 59.85 130.23 Z" />
<path fill="#ce5e13" d=" M 75.22 129.01 C 75.16 129.15 75.05 129.42 74.99 129.56 L 75.22 129.01 Z" />
<path fill="#ffffff" d=" M 160.86 132.17 C 163.40 130.83 165.97 129.55 168.57 128.33 C 168.39 133.64 171.78 138.12 175.81 141.20 C 182.54 146.28 190.75 148.96 198.93 150.66 C 202.25 151.34 205.68 152.38 209.06 151.41 C 209.98 151.49 210.90 151.63 211.81 151.83 L 211.45 152.36 L 211.31 153.00 L 72.46 153.00 C 80.39 150.61 88.98 150.18 96.58 146.53 C 103.95 143.37 112.56 138.28 113.17 129.35 C 128.98 129.05 144.80 129.31 160.61 129.22 C 160.67 129.96 160.79 131.43 160.86 132.17 Z" />
<path fill="#862806" d=" M 222.13 128.39 C 223.46 131.03 223.11 134.05 222.50 136.84 C 222.20 136.97 221.61 137.24 221.31 137.37 C 222.11 134.44 221.97 131.39 222.13 128.39 Z" />
<path fill="#a7b391" d=" M 223.88 128.54 C 225.08 131.36 224.71 134.55 225.70 137.44 C 225.42 137.28 224.87 136.97 224.59 136.81 C 223.72 134.14 223.94 131.31 223.88 128.54 Z" />
<path fill="#ffffff" d=" M 235.84 129.33 L 235.87 128.55 C 235.80 131.38 237.69 136.99 233.02 136.37 L 233.13 135.87 L 233.39 135.15 L 233.95 134.93 L 234.54 134.77 C 235.76 133.21 235.84 131.22 235.84 129.33 Z" />
<path fill="#d27b36" d=" M 55.16 129.41 C 56.23 131.61 57.17 133.87 57.83 136.23 C 56.33 134.24 55.30 131.93 55.16 129.41 Z" />
<path fill="#6b9e92" d=" M 57.09 130.02 C 57.17 130.19 57.31 130.55 57.38 130.73 C 57.31 130.55 57.17 130.19 57.09 130.02 Z" />
<path fill="#5d6f74" d=" M 61.53 129.93 L 61.64 130.13 C 62.27 131.34 61.38 134.00 59.80 133.59 C 59.80 133.18 59.81 132.36 59.81 131.94 L 60.30 130.92 C 60.60 130.67 61.22 130.18 61.53 129.93 Z" />
<path fill="#faae52" d=" M 69.95 133.93 C 68.20 133.94 68.36 130.07 70.16 130.32 C 70.21 131.53 70.14 132.74 69.95 133.93 Z" />
<path fill="#2e7485" d=" M 218.04 129.99 L 218.33 129.77 C 219.54 131.43 219.51 134.02 218.66 135.83 C 217.37 134.20 218.05 131.90 218.04 129.99 Z" />
<path fill="#ea9947" d=" M 227.57 135.08 C 225.42 135.25 224.86 130.55 227.00 130.30 C 227.16 131.90 227.33 133.49 227.57 135.08 Z" />
<path fill="#043769" d=" M 228.86 133.13 C 227.69 132.38 227.33 130.66 228.58 129.78 C 228.65 130.62 228.79 132.29 228.86 133.13 Z" />
<path fill="#ffffff" d=" M 71.45 130.92 L 72.20 130.91 C 72.11 131.43 71.93 132.46 71.84 132.98 C 71.74 132.47 71.55 131.43 71.45 130.92 Z" />
<path fill="#ffffff" d=" M 214.94 133.00 C 215.05 133.55 215.28 134.67 215.39 135.23 C 215.28 135.71 215.06 136.68 214.95 137.17 C 213.80 137.83 212.62 137.80 211.41 137.08 L 211.45 136.80 C 211.78 136.77 212.42 136.72 212.75 136.70 C 213.80 135.67 214.53 134.44 214.94 133.00 Z" />
<path fill="#c26626" d=" M 69.95 133.93 C 70.27 134.35 70.89 135.20 71.21 135.62 L 70.34 135.65 C 70.24 135.22 70.05 134.36 69.95 133.93 Z" />
<path fill="#3c292d" d=" M 208.06 134.51 C 209.47 134.19 210.54 135.93 211.45 136.80 L 211.41 137.08 C 210.66 136.96 209.16 136.74 208.41 136.62 C 208.32 136.09 208.15 135.04 208.06 134.51 Z" />
<path fill="#528589" d=" M 58.67 136.64 C 58.99 136.26 59.63 135.52 59.95 135.14 L 60.20 135.97 C 59.82 136.14 59.05 136.47 58.67 136.64 Z" />
<path fill="#faaf55" d=" M 57.83 137.89 C 57.91 137.72 58.07 137.38 58.15 137.21 L 58.35 137.71 L 57.83 137.89 Z" />
<path fill="#5c5652" d=" M 57.83 137.89 L 58.35 137.71 L 58.54 138.11 C 59.01 139.55 57.57 141.77 56.10 141.68 C 56.11 141.30 56.14 140.53 56.15 140.14 C 56.57 139.58 57.41 138.45 57.83 137.89 Z" />
<path fill="#f49f44" d=" M 52.89 140.92 C 53.21 140.72 53.86 140.30 54.18 140.10 C 54.18 140.50 54.18 141.30 54.18 141.70 L 53.36 141.73 L 52.89 140.92 Z" />
<path fill="#15080a" d=" M 54.18 140.10 C 54.67 140.11 55.66 140.13 56.15 140.14 C 56.14 140.53 56.11 141.30 56.10 141.68 C 55.62 141.69 54.66 141.70 54.18 141.70 C 54.18 141.30 54.18 140.50 54.18 140.10 Z" />
<path fill="#413f3e" d=" M 43.45 152.36 L 43.80 151.83 C 46.37 151.90 48.93 152.04 51.50 152.27 L 52.89 153.00 L 43.31 153.00 L 43.45 152.36 Z" />
<path fill="#88817b" d=" M 51.50 152.27 C 55.11 152.07 58.84 151.65 62.31 152.98 L 62.18 153.00 L 52.89 153.00 L 51.50 152.27 Z" />
<path fill="#413f3e" d=" M 211.45 152.36 L 211.81 151.83 C 214.29 151.90 216.77 152.03 219.25 152.24 L 220.61 153.00 L 211.31 153.00 L 211.45 152.36 Z" />
<path fill="#88817b" d=" M 219.25 152.24 C 223.16 151.99 227.07 152.04 230.97 152.43 L 229.45 153.00 L 220.61 153.00 L 219.25 152.24 Z" />
</svg>
