<?xml version="1.0" encoding="utf-8"?>
<!-- Generator: Adobe Illustrator 17.0.0, SVG Export Plug-In . SVG Version: 6.00 Build 0)  -->
<!DOCTYPE svg PUBLIC "-//W3C//DTD SVG 1.1//EN" "http://www.w3.org/Graphics/SVG/1.1/DTD/svg11.dtd">
<svg version="1.1" id="Layer_1" xmlns="http://www.w3.org/2000/svg" xmlns:xlink="http://www.w3.org/1999/xlink" x="0px" y="0px"
	 width="300px" height="300px" viewBox="0 0 300 300" enable-background="new 0 0 300 300" xml:space="preserve">
<path id="path2" fill="#404969" d="M96.469,186.343l-17.485-29.411l17.485-29.411l8.429,29.411L96.469,186.343z M57.554,183.473
	l-21.969-21.789h34.97l17.485,29.411L57.554,183.473z M57.554,130.301l30.397-7.622L70.466,152.09h-34.97L57.554,130.301z
	 M102.208,108.243l-39.723,10.312l-5.918,10.132l-11.925-0.09L15.5,156.932l29.142,28.335l11.925-0.09l5.918,10.132l39.723,10.402
	l10.67-38.647l-6.008-10.042l6.008-10.043L102.208,108.243z M192.412,136.847c-5.29,0-8.877,2.241-11.567,6.366h-0.179v-5.29h-9.325
	v38.915h9.504V154.78c0-5.29,3.318-8.967,7.891-8.967c4.304,0,7.532,2.601,7.532,7.174v23.941h9.505v-25.466
	C205.862,142.944,200.482,136.847,192.412,136.847z M156.904,160.429c0,5.201-2.959,8.787-7.801,8.787
	c-4.393,0-7.173-2.51-7.173-7.083v-24.21h-9.505v26.003c0,8.518,4.842,14.078,13.54,14.078c5.47,0,8.518-2.063,11.119-5.649h0.269
	v4.573h9.146v-39.005h-9.505v22.506H156.904z M210.884,137.923h9.504v38.915h-9.504V137.923z M210.884,125.818h9.504v7.801h-9.504
	V125.818z M274.278,137.923l-5.649,17.574c-1.255,3.587-2.242,8.519-2.242,8.519h-0.269c0,0-1.255-4.932-2.51-8.519l-6.367-17.574
	h-10.222l10.491,27.707c2.242,5.918,2.959,8.428,2.959,10.58c0,3.228-1.703,5.291-5.738,5.291h-3.677v8.159h6.098
	c7.89,0,10.67-3.138,13.629-11.746l13.719-39.902h-10.222V137.923z M238.142,165.45v-20.623h6.098v-6.815h-6.098v-12.194h-9.504
	v12.105h-5.38v6.814h5.38v22.865c0,7.353,5.559,9.326,10.58,9.326c4.125,0,5.201-0.18,5.201-0.18v-7.532h-2.421
	C239.756,169.306,238.142,168.32,238.142,165.45L238.142,165.45z"/>
</svg>
