<?xml version="1.0" encoding="utf-8"?>
<!-- Generator: Adobe Illustrator 17.0.0, SVG Export Plug-In . SVG Version: 6.00 Build 0)  -->
<!DOCTYPE svg PUBLIC "-//W3C//DTD SVG 1.1//EN" "http://www.w3.org/Graphics/SVG/1.1/DTD/svg11.dtd">
<svg version="1.1"
	 id="svg29" xmlns:inkscape="http://www.inkscape.org/namespaces/inkscape" xmlns:sodipodi="http://sodipodi.sourceforge.net/DTD/sodipodi-0.dtd" xmlns:rdf="http://www.w3.org/1999/02/22-rdf-syntax-ns#" xmlns:svg="http://www.w3.org/2000/svg" xmlns:cc="http://creativecommons.org/ns#" xmlns:dc="http://purl.org/dc/elements/1.1/" inkscape:version="0.92.3 (unknown)" sodipodi:docname="PVLG-Spring-FullColor-Transparent.svg"
	 xmlns="http://www.w3.org/2000/svg" xmlns:xlink="http://www.w3.org/1999/xlink" x="0px" y="0px" width="245.093px"
	 height="62.987px" viewBox="0 0 245.093 62.987" enable-background="new 0 0 245.093 62.987" xml:space="preserve">
<sodipodi:namedview  id="namedview31" inkscape:current-layer="g37" inkscape:window-maximized="1" objecttolerance="10" inkscape:cx="122.54666" showgrid="false" guidetolerance="10" bordercolor="#666666" inkscape:zoom="6.8626921" borderopacity="1" inkscape:cy="31.493334" gridtolerance="10" pagecolor="#ffffff" inkscape:window-y="27" inkscape:window-x="67" inkscape:pageshadow="2" inkscape:window-height="1025" inkscape:pageopacity="0" inkscape:window-width="1853">
	</sodipodi:namedview>
<g id="g37" transform="matrix(1.3333333,0,0,-1.3333333,0,62.986667)" inkscape:groupmode="layer" inkscape:label="ink_ext_XXXXXX">
	<g id="g39" transform="scale(0.1)">
		<path id="path41" inkscape:connector-curvature="0" fill="#404969" d="M605.484,143.859c-5.636,3.043-9.972,9.559-9.972,18.243
			c0,11.707,9.105,21.199,21.289,21.199c4.316,0,8.238-1.27,11.254-3.008c22.16-14.766,45.164-22.148,65.965-22.148
			c22.562,0,35.578,9.558,35.578,24.765v0.86c0,17.793-24.285,23.859-51.211,32.097c-33.828,9.555-71.582,23.426-71.582,67.262
			v0.879c0,43.402,36.015,69.863,81.582,69.863c24.308,0,49.898-6.953,72.031-18.652c7.398-3.918,12.578-10.864,12.578-19.953
			c0-12.164-9.531-21.297-21.68-21.297c-4.363,0-6.964,0.871-10.398,2.617c-18.691,9.559-37.777,15.644-53.828,15.644
			c-20.41,0-32.129-9.57-32.129-22.597v-0.844c0-16.93,24.734-23.855,51.648-32.551c33.414-10.422,71.168-25.601,71.168-66.824
			v-0.879c0-48.164-37.339-72.004-85.062-72.004C663.66,116.531,631.98,125.613,605.484,143.859"/>
		<path id="path43" inkscape:connector-curvature="0" fill="#404969" d="M981.195,234.973v0.879c0,44.242-29.949,73.32-65.515,73.32
			c-35.582,0-66.825-29.508-66.825-73.32v-0.879c0-43.828,31.243-73.364,66.825-73.364
			C951.695,161.609,981.195,189.836,981.195,234.973 M797.637,327.418c0,14.727,11.269,26.461,26.054,26.461
			c14.743,0,26.461-11.734,26.461-26.461v-15.645c16.926,23.856,40.786,42.957,78.114,42.957c53.8,0,106.314-42.507,106.314-118.878
			v-0.879c0-75.95-52.076-118.899-106.314-118.899c-38.184,0-62.055,19.114-78.114,40.332V75.305
			c0-14.809-11.718-26.094-26.461-26.094c-14.312,0-26.054,11.285-26.054,26.094V327.418"/>
		<path id="path45" inkscape:connector-curvature="0" fill="#404969" d="M1054.47,327.387c0,14.726,11.25,26.461,26.01,26.461
			c14.79,0,26.49-11.735,26.49-26.461v-12.625c2.62,19.664,34.7,39.086,57.71,39.086c16.48,0,26.04-10.84,26.04-26.02
			c0-13.875-9.12-23.004-20.84-25.168c-37.32-6.512-62.91-39.168-62.91-84.347v-75.704c0-14.336-11.7-26.046-26.49-26.046
			c-14.31,0-26.01,11.289-26.01,26.046V327.387"/>
		<path id="path47" inkscape:connector-curvature="0" fill="#404969" d="M1210.58,327.281c0,14.75,11.32,26.485,26.05,26.485
			c14.75,0,26.47-11.735,26.47-26.485V142.566c0-14.734-11.72-26.003-26.47-26.003c-14.33,0-26.05,11.269-26.05,26.003V327.281"/>
		<path id="path49" inkscape:connector-curvature="0" fill="#404969" d="M1289.57,327.18c0,14.75,11.29,26.457,26.02,26.457
			c14.77,0,26.48-11.707,26.48-26.457v-10.774c14.78,21.27,36.01,37.364,71.59,37.364c51.64,0,81.6-34.731,81.6-87.665V142.598
			c0-14.746-11.3-26.043-26.05-26.043s-26.46,11.297-26.46,26.043v107.445c0,35.566-17.79,55.977-49.04,55.977
			c-30.37,0-51.64-21.262-51.64-56.872v-106.55c0-14.746-11.71-26.043-26.48-26.043c-14.31,0-26.02,11.297-26.02,26.043
			L1289.57,327.18"/>
		<path id="path51" inkscape:connector-curvature="0" fill="#404969" d="M1634.05,162.09c-36.05,0-65.53,28.215-65.53,73.351v0.852
			c0,44.254,29.92,73.332,65.53,73.332c35.59,0,66.83-29.516,66.83-73.332v-0.852C1700.88,191.602,1669.64,162.09,1634.05,162.09
			 M1726,354.332c-14.73,0-26.45-11.742-26.45-26.473v-15.617c-16.94,23.856-40.78,42.946-78.08,42.946
			c-53.84,0-106.33-42.508-106.33-118.895v-0.852c0-75.949,52.06-118.886,106.33-118.886c37.96,0,61.77,18.886,77.84,40
			c-2.63-41.262-27.89-63.047-72.2-63.047c-26.45,0-49.46,6.531-70.32,18.269c-2.6,1.27-5.59,2.129-9.51,2.129
			c-12.15,0-22.16-9.992-22.16-21.672c0-9.988,5.65-17.363,14.79-20.836c27.73-13.457,56.35-20.402,88.48-20.402
			c41.25,0,73.37,9.973,94.2,30.813c19.05,19.109,29.47,47.714,29.47,86.355v159.695C1752.06,342.59,1740.78,354.332,1726,354.332"
			/>
		<path id="path53" inkscape:connector-curvature="0" fill="#404969" d="M1263.31,416.996c0-14.601-11.86-26.473-26.48-26.473
			c-14.63,0-26.46,11.872-26.46,26.473c0,14.641,11.83,26.461,26.46,26.461C1251.45,443.457,1263.31,431.637,1263.31,416.996"/>
		<path id="path55" inkscape:connector-curvature="0" fill="#404969" d="M429.32,132.246
			c-58.211-77.559-182.558-51.379-262.281-55.144c0,0-14.113-0.785-28.328-3.125c0,0,5.375,2.293,12.23,4.656
			c55.993,19.363,82.454,23.254,116.477,40.73c63.926,32.746,127.547,104.075,140.492,178.172
			c-24.332-71.265-98.336-132.601-165.719-157.508c-46.121-17.019-129.527-33.582-129.539-33.589
			c0.039-0.059-3.324,1.746-3.371,1.785c-56.722,27.597-58.359,150.449,44.66,190.05c45.168,17.375,88.372,7.832,137.2,19.454
			c52.078,12.382,112.394,51.418,136.91,102.453C455.535,338.66,488.551,211.121,429.32,132.246z M430.332,445.441
			c-6.93-16.464-15.387-31.3-25.137-44.57c-42.914,44.043-102.812,71.484-169.019,71.484C105.941,472.355,0,366.402,0,236.191
			C0,167.93,29.137,106.367,75.59,63.215l5.172-4.582c-8.637,7.043-9.965,19.727-2.965,28.371
			c7.043,8.648,19.738,9.988,28.379,2.984c8.664-7.02,9.984-19.734,2.969-28.395c-6.989-8.664-19.708-9.973-28.36-2.98l3.52-3.117
			C125.395,20.898,178.363,0,236.176,0C360.66,0,462.879,96.875,471.629,219.148C478.109,279.016,460.426,355.035,430.332,445.441"
			/>
		<path id="path57" inkscape:connector-curvature="0" fill="#404969" d="M1813.55,337.793h-8.25v-10.922h8.25
			c2.67,0,5.59,2.156,5.59,5.332C1819.14,335.637,1816.22,337.793,1813.55,337.793z M1818.64,310.754l-8.01,12.187h-5.33v-12.187
			h-4.31v30.851h12.56c5.21,0,10.04-3.691,10.04-9.402c0-6.851-6.11-9.14-7.88-9.14l8.26-12.309H1818.64z M1811.27,349.094
			c-12.7,0-22.86-10.156-22.86-22.86c0-12.562,10.16-22.851,22.86-22.851c12.56,0,22.85,10.289,22.85,22.851
			C1834.12,338.938,1823.83,349.094,1811.27,349.094z M1811.27,299.316c-14.86,0-26.92,12.067-26.92,26.918
			c0,14.993,12.06,26.926,26.92,26.926c14.98,0,26.92-11.933,26.92-26.926C1838.19,311.383,1826.25,299.316,1811.27,299.316"/>
	</g>
</g>
</svg>
