<?xml version="1.0" encoding="utf-8"?>
<!-- Generator: Adobe Illustrator 17.0.0, SVG Export Plug-In . SVG Version: 6.00 Build 0)  -->
<!DOCTYPE svg PUBLIC "-//W3C//DTD SVG 1.1//EN" "http://www.w3.org/Graphics/SVG/1.1/DTD/svg11.dtd">
<svg version="1.1" id="Layer_1" xmlns="http://www.w3.org/2000/svg" xmlns:xlink="http://www.w3.org/1999/xlink" x="0px" y="0px"
	 width="300px" height="300px" viewBox="0 0 300 300" enable-background="new 0 0 300 300" xml:space="preserve">
<path fill="#404969" d="M122.057,139.617L122.057,139.617L122.057,139.617z"/>
<polygon fill="#404969" points="200.652,172.08 200.653,172.08 200.653,172.08 "/>
<path fill="#404969" d="M171.607,143.888c-19.649,3.987-31.039,3.702-45.563,2.278c-11.105-1.139-3.988-6.548-3.987-6.549
	c-28.761,9.682,16.232,20.503,56.384,8.543C174.169,146.736,171.607,143.888,171.607,143.888z"/>
<path fill="#404969" d="M126.329,158.126c-26.198,7.404,15.947,22.497,49.264,8.258c-5.41-1.993-9.397-4.556-9.397-4.556
	c-14.808,2.848-21.927,3.132-35.311,1.424C119.779,162.113,126.329,158.126,126.329,158.126z"/>
<path fill="#404969" d="M177.302,130.504c3.133-1.994,7.689-3.987,7.689-3.987s-12.815,2.278-25.629,3.417
	c-15.662,1.139-32.463,1.424-41.006,0.285c-19.93-2.562,11.095-9.964,11.105-9.967c-0.001,0-12.245-0.854-27.052,6.265
	C85.038,135.06,145.693,138.762,177.302,130.504z"/>
<path fill="#404969" d="M189.843,191.772c-25.365,4.687-56.795,4.136-75.267,1.103c0,0,3.86,3.308,23.435,4.411l0,0
	c29.776,1.93,75.267-1.103,76.369-15.164C214.381,182.123,212.175,187.637,189.843,191.772z"/>
<path fill="#404969" d="M184.991,151.292L184.991,151.292c-0.285,0.57-0.569,0.854-0.569,0.854
	c42.715-11.106,26.768-39.582,6.549-32.463c-1.993,0.57-2.848,2.278-2.848,2.278s1.139-0.57,3.702-1.139
	C202.077,118.829,216.884,134.775,184.991,151.292z"/>
<polygon fill="#404969" points="129.461,120.252 129.461,120.253 129.461,120.253 "/>
<path fill="#404969" d="M94.15,184.894c68.058,11.106,124.156-4.84,106.503-12.814c0.011,0.009,4.829,3.99-5.411,7.119
	c-19.079,5.695-80.019,7.404-97.105,0c-5.98-2.563,5.411-6.265,9.112-6.834c3.702-0.854,5.695-0.854,5.695-0.854
	C106.395,166.954,69.375,180.907,94.15,184.894z"/>
<path fill="#404969" d="M148.825,119.968c-6.265-14.238-27.622-26.768,0-48.695c34.457-27.053,16.801-44.993,16.801-44.993l0,0
	c7.119,28.192-25.059,36.735-36.735,54.39C120.918,92.63,132.594,105.445,148.825,119.968z"/>
<path fill="#404969" d="M156.514,108.008L156.514,108.008c8.258,9.397-2.278,17.94-2.278,17.94s21.073-10.821,11.391-24.205
	c-8.828-12.814-15.662-19.079,21.357-40.437C186.984,61.306,128.607,75.829,156.514,108.008z"/>
<path fill="#404969" d="M264.412,221.273c-5.514,0-10.201,1.379-14.337,3.032l1.103,4.963c3.308-1.103,7.168-2.205,11.303-2.205
	c5.239,0,7.719,2.205,7.719,6.617v3.584h-2.757c-13.234,0-19.3,4.963-19.3,12.958c0,6.616,3.86,10.477,11.303,10.477
	c4.963,0,8.547-2.206,11.855-4.963l0.552,4.136h6.066v-27.02C277.921,225.959,274.061,221.273,264.412,221.273z M270.201,251.048
	c-2.757,2.481-5.79,3.86-8.547,3.86c-3.584,0-5.79-2.205-5.79-6.066s2.206-6.617,11.028-6.617h3.308L270.201,251.048
	L270.201,251.048z"/>
<path fill="#404969" d="M229.122,252.151l-1.654-6.892L220.3,222.1h-8.271l11.579,37.771h9.65l0,0
	c5.514-11.855,9.374-25.364,11.579-37.771h-8.271C235.463,232.025,232.706,242.226,229.122,252.151z"/>
<path fill="#404969" d="M163.78,251.6c0,6.341-0.276,9.098-1.379,11.028c-1.103,2.206-3.86,4.687-6.617,6.341l3.584,4.411
	c4.135-1.379,7.444-3.86,9.65-7.168l0,0c2.205-3.308,3.033-6.617,3.033-15.164V208.59h-8.271L163.78,251.6L163.78,251.6z"/>
<path fill="#404969" d="M193.832,221.273c-5.514,0-10.201,1.379-14.337,3.032l1.379,4.963c3.032-1.103,6.892-2.205,11.028-2.205
	c5.239,0,7.719,2.205,7.719,6.617v3.584h-2.757c-13.234,0-19.3,4.963-19.3,12.958c0,6.616,4.135,10.477,11.579,10.477
	c4.687,0,8.271-2.206,11.579-4.963l0.552,4.136h6.066l0,0v-27.02C207.342,225.959,203.482,221.273,193.832,221.273z
	 M199.622,251.048c-2.757,2.481-5.79,3.86-8.547,3.86c-3.584,0-5.79-2.205-5.79-6.066s2.206-6.617,11.028-6.617h3.308
	C199.622,242.226,199.622,251.048,199.622,251.048z"/>
<path fill="#404969" d="M23.469,259.528v-37.381h10.948l8.915,14.466l8.915-14.466h10.974v37.381H52.873v-21.454l-9.54,14.624
	h-0.209l-9.515-14.518v21.349H23.469z"/>
<path fill="#404969" d="M69.58,222.147h11.6l8.472,23.668l8.498-23.668h11.366L94.37,259.789h-9.619L69.58,222.147z"/>
<path fill="#404969" d="M112.55,240.942v-0.105c0-2.692,0.496-5.234,1.491-7.624s2.352-4.448,4.073-6.178
	c1.72-1.729,3.804-3.096,6.25-4.106c2.446-1.007,5.06-1.511,7.84-1.511c6.813,0,12.096,2.569,15.849,7.708l-7.794,6.055
	c-1.147-1.442-2.373-2.542-3.676-3.298c-1.303-0.756-2.807-1.134-4.509-1.134c-2.59,0-4.724,0.968-6.4,2.903
	c-1.677,1.933-2.515,4.298-2.515,7.093v0.105c0,2.866,0.838,5.267,2.515,7.2c1.677,1.935,3.81,2.901,6.4,2.901
	c1.825,0,3.376-0.382,4.653-1.147c1.277-0.765,2.541-1.912,3.792-3.441l7.795,5.591c-1.269,1.714-2.611,3.153-4.028,4.32
	c-1.416,1.165-3.198,2.125-5.343,2.879c-2.147,0.754-4.541,1.131-7.182,1.131c-3.528,0-6.756-0.83-9.684-2.49
	c-2.928-1.66-5.248-3.972-6.96-6.934S112.55,244.591,112.55,240.942z"/>
</svg>
