<?xml version="1.0" encoding="utf-8"?>
<!-- Generator: Adobe Illustrator 17.0.0, SVG Export Plug-In . SVG Version: 6.00 Build 0)  -->
<!DOCTYPE svg PUBLIC "-//W3C//DTD SVG 1.1//EN" "http://www.w3.org/Graphics/SVG/1.1/DTD/svg11.dtd">
<svg version="1.1" id="Layer_1" xmlns="http://www.w3.org/2000/svg" xmlns:xlink="http://www.w3.org/1999/xlink" x="0px" y="0px"
	 width="300px" height="300px" viewBox="0 0 300 300" enable-background="new 0 0 300 300" xml:space="preserve">
<title>HTML5 Logo</title>
<polygon fill="none" points="115.986,205.327 113.65,179.307 113.65,179.307 115.986,205.328 150,214.817 150,214.816 "/>
<rect x="149.962" y="170.986" fill="none" width="0.002" height="0.073"/>
<polygon fill="none" points="112.92,170.985 108.395,120.915 108.395,120.915 112.92,170.987 149.927,170.987 149.927,170.985 "/>
<g>
	<polygon fill="#404969" points="159.525,69.272 165.401,78.323 171.277,69.272 171.277,81.753 179.671,81.753 179.671,56.571 
		170.876,56.571 165.474,65.44 160.073,56.571 151.277,56.571 151.277,81.753 159.525,81.753 	"/>
	<polygon fill="#404969" points="104.599,73.359 112.263,73.359 112.263,81.753 120.657,81.753 120.657,56.571 112.263,56.571 
		112.263,64.892 104.526,64.892 104.526,56.571 96.132,56.571 96.132,81.753 104.599,81.753 	"/>
	<polygon fill="#404969" points="204.123,73.432 192.225,73.432 192.225,56.571 183.831,56.571 183.831,81.753 204.123,81.753 	"/>
	<polygon fill="#404969" points="131.752,81.753 140.146,81.753 140.146,64.965 147.591,64.965 147.591,56.571 124.344,56.571 
		124.344,64.965 131.752,64.965 	"/>
	<path fill="#404969" d="M83.797,93.286l12.044,135.18l54.05,14.963l54.269-15.036l12.044-135.107H83.797z M115.986,205.328
		l-2.336-26.021h0l0-0.001h16.642l1.168,13.248l18.503,4.954l0.037-0.01l18.43-4.944l1.935-21.533H150v0.002h-0.073v-0.002v-0.034
		H112.92l-4.525-50.072h0l0-0.002h41.532H150h41.459l-1.533,16.569H150h-0.073H126.57l1.533,16.97h21.824H150h38.43l-4.562,50.875
		L150,214.723v0.093v0.001L115.986,205.328z"/>
</g>
</svg>
