<?xml version="1.0" encoding="utf-8"?>
<!-- Generator: Adobe Illustrator 17.0.0, SVG Export Plug-In . SVG Version: 6.00 Build 0)  -->
<!DOCTYPE svg PUBLIC "-//W3C//DTD SVG 1.1//EN" "http://www.w3.org/Graphics/SVG/1.1/DTD/svg11.dtd">
<svg version="1.1" id="Layer_1" xmlns="http://www.w3.org/2000/svg" xmlns:xlink="http://www.w3.org/1999/xlink" x="0px" y="0px"
	 width="300px" height="300px" viewBox="0 0 300 300" enable-background="new 0 0 300 300" xml:space="preserve">
<g>
	<path fill="#404969" d="M32.487,150.66c0,26.908,15.638,50.162,38.313,61.182l-32.428-88.848
		C34.601,131.449,32.487,140.805,32.487,150.66z"/>
	<path fill="#404969" d="M146.36,147.23c0-8.402-3.018-14.22-5.606-18.749c-3.446-5.6-6.676-10.342-6.676-15.942
		c0-6.249,4.74-12.066,11.416-12.066c0.301,0,0.587,0.038,0.881,0.054c-12.095-11.081-28.208-17.846-45.907-17.846
		c-23.749,0-44.644,12.185-56.8,30.641c1.595,0.048,3.098,0.081,4.375,0.081c7.111,0,18.117-0.863,18.117-0.863
		c3.665-0.216,4.097,5.166,0.436,5.6c0,0-3.683,0.433-7.781,0.648l24.756,73.635l14.877-44.618l-10.592-29.019
		c-3.661-0.215-7.129-0.648-7.129-0.648c-3.663-0.215-3.234-5.816,0.429-5.6c0,0,11.227,0.863,17.907,0.863
		c7.109,0,18.117-0.863,18.117-0.863c3.667-0.216,4.098,5.166,0.436,5.6c0,0-3.69,0.433-7.781,0.648l24.567,73.078l6.781-22.659
		C144.124,159.803,146.36,153.05,146.36,147.23z"/>
	<path fill="#404969" d="M101.66,156.607l-20.397,59.269c6.09,1.79,12.531,2.769,19.204,2.769c7.917,0,15.508-1.369,22.575-3.853
		c-0.182-0.291-0.348-0.6-0.484-0.937L101.66,156.607z"/>
	<path fill="#404969" d="M160.118,118.045c0.292,2.165,0.458,4.49,0.458,6.99c0,6.898-1.288,14.653-5.169,24.35l-20.765,60.037
		c20.21-11.786,33.804-33.681,33.804-58.761C168.448,138.843,165.428,127.728,160.118,118.045z"/>
	<path fill="#404969" d="M100.468,71.418c-43.695,0-79.245,35.548-79.245,79.243c0,43.7,35.55,79.246,79.245,79.246
		c43.693,0,79.249-35.547,79.249-79.246C179.716,106.966,144.161,71.418,100.468,71.418z M100.468,226.275
		c-41.691,0-75.612-33.921-75.612-75.614c0-41.691,33.919-75.609,75.612-75.609c41.69,0,75.608,33.918,75.608,75.609
		C176.076,192.354,142.158,226.275,100.468,226.275z"/>
</g>
<path fill="#404969" d="M277.791,142.849h-5.874v-12.698c0-1.366-1.042-2.474-2.327-2.474s-2.327,1.108-2.327,2.474v12.698h-9.639
	v-12.698c0-1.366-1.042-2.474-2.327-2.474s-2.327,1.108-2.327,2.474v12.698h-5.786c-1.127,0-2.041,0.971-2.041,2.169v12.192
	c0,9.155,6.318,16.743,14.558,18.168v36.417c0,7.086-5.779,12.852-12.884,12.852h-0.546c-7.103,0-12.883-5.766-12.883-12.852
	v-77.036c0-12.435-9.999-22.553-22.29-22.553s-22.29,10.117-22.29,22.553v77.036c0,7.086-5.779,12.852-12.883,12.852h-0.662
	c-7.103,0-12.883-5.766-12.883-12.852v-15.36l-3.513,3.865c-0.294,0.324-0.598,0.639-0.901,0.954l-1.035,1.693v8.849
	c0,10.239,8.223,18.569,18.332,18.569h0.662c10.108,0,18.332-8.33,18.332-18.569V134.76c0-9.284,7.555-16.836,16.842-16.836
	s16.842,7.552,16.842,16.836v77.036c0,10.239,8.223,18.569,18.332,18.569h0.547c10.108,0,18.331-8.33,18.331-18.569V175.4
	c8.302-1.368,14.685-8.988,14.685-18.19v-12.192C279.833,143.82,278.919,142.849,277.791,142.849z"/>
</svg>
