<?xml version="1.0" encoding="utf-8"?>
<!-- Generator: Adobe Illustrator 17.0.0, SVG Export Plug-In . SVG Version: 6.00 Build 0)  -->
<!DOCTYPE svg PUBLIC "-//W3C//DTD SVG 1.1//EN" "http://www.w3.org/Graphics/SVG/1.1/DTD/svg11.dtd">
<svg version="1.1" id="Layer_1" xmlns="http://www.w3.org/2000/svg" xmlns:xlink="http://www.w3.org/1999/xlink" x="0px" y="0px"
	 width="300px" height="300px" viewBox="0 0 300 300" enable-background="new 0 0 300 300" xml:space="preserve">
<title>HTML5 Logo</title>
<path id="signet" fill="#404969" d="M167.668,65.509l-4.954,6.812c-6.621,9.744-7.247,21.848-2.654,32.611
	c4.842,11.422,14.745,20.404,26.331,24.649c0.477,0.18,0.964,0.341,1.445,0.502l0.649,0.207c0.687,0.214,1.357,0.456,2.065,0.589
	c32.021,6.184,40.709-16.421,43.019-19.755c-7.611,10.956-20.401,13.569-36.09,9.759c-1.233-0.297-2.586-0.73-3.774-1.151
	c-1.539-0.55-3.045-1.179-4.512-1.887c-2.788-1.336-5.439-2.976-7.903-4.836C167.254,102.36,158.512,82.056,167.668,65.509
	L167.668,65.509z M131.343,73.441l-9.17,12.945c-11.233,16.162-10.616,37.806-1.858,54.901c1.47,2.868,3.112,5.635,4.954,8.285
	c1.683,2.411,3.579,5.289,5.808,7.224c0.813,0.894,1.647,1.766,2.507,2.624l0.679,0.649c0.836,0.814,1.683,1.61,2.565,2.388
	l0.088,0.088l0.03,0.03c0.973,0.852,1.985,1.667,3.007,2.477l0.679,0.531c1.028,0.787,2.082,1.564,3.154,2.3l0.088,0.088
	c0.471,0.329,0.968,0.631,1.445,0.944l0.679,0.442c0.768,0.492,1.543,0.959,2.33,1.416l0.324,0.207
	c0.68,0.389,1.37,0.776,2.065,1.151l0.737,0.384c0.481,0.247,0.96,0.496,1.445,0.737l0.207,0.118
	c0.988,0.488,1.992,0.94,3.007,1.386l0.679,0.265c0.817,0.343,1.618,0.69,2.447,1.002c0.352,0.133,0.706,0.257,1.061,0.384
	c0.748,0.279,1.51,0.539,2.27,0.796c0.343,0.111,0.692,0.216,1.032,0.325c1.08,0.335,2.151,0.757,3.273,0.944
	c57.993,9.608,71.384-35.029,71.384-35.029c-12.07,17.386-35.448,25.671-60.387,19.195c-1.111-0.291-2.219-0.599-3.302-0.944
	l-0.973-0.325c-0.771-0.25-1.536-0.522-2.3-0.796c-0.347-0.13-0.688-0.25-1.032-0.384c-0.832-0.316-1.663-0.656-2.477-1.002
	l-0.679-0.265c-1.015-0.45-2.015-0.923-3.007-1.416c-0.511-0.247-1.029-0.511-1.533-0.767l-0.855-0.442
	c-0.649-0.353-1.313-0.721-1.946-1.091l-0.442-0.265c-0.787-0.462-1.566-0.926-2.33-1.416l-0.707-0.472
	c-0.504-0.329-1.011-0.665-1.503-1.002c-1.072-0.737-2.102-1.52-3.126-2.3l-0.707-0.531c-10.92-8.615-19.587-20.405-23.707-33.761
	C122.933,101.604,123.868,86.061,131.343,73.441L131.343,73.441z M86.081,89.805l-12.118,15.392
	c-15.532,22.322-13.603,51.375-1.74,75.1c0.283,0.565,0.591,1.124,0.884,1.681c0.187,0.36,0.339,0.715,0.531,1.061l0.354,0.619
	c0.203,0.377,0.412,0.725,0.619,1.091c0.375,0.653,0.764,1.301,1.151,1.946c0.214,0.356,0.402,0.706,0.619,1.061
	c0.431,0.691,0.88,1.38,1.326,2.065l0.56,0.855c0.622,0.925,1.267,1.833,1.917,2.742l0.03,0.088l0.324,0.442
	c0.565,0.78,1.152,1.541,1.74,2.3l0.649,0.826c0.527,0.661,1.079,1.318,1.621,1.975l0.589,0.737c0.733,0.859,1.482,1.7,2.24,2.535
	l0.059,0.059l0.088,0.088c0.741,0.81,1.503,1.597,2.27,2.388l0.707,0.737c0.599,0.599,1.217,1.182,1.828,1.768l0.737,0.707
	c0.818,0.767,1.632,1.535,2.477,2.27l0.059,0.03l0.412,0.384c0.741,0.641,1.506,1.261,2.27,1.887l0.914,0.737
	c0.619,0.496,1.249,0.992,1.887,1.474l1.002,0.767c0.699,0.515,1.413,1.041,2.123,1.533l0.767,0.531l0.207,0.147
	c0.676,0.461,1.376,0.909,2.065,1.356l0.884,0.59c1.057,0.668,2.129,1.337,3.214,1.975l0.884,0.502
	c0.798,0.458,1.579,0.918,2.388,1.356c0.439,0.238,0.914,0.449,1.356,0.679c0.573,0.302,1.126,0.59,1.71,0.884l0.412,0.207
	l0.679,0.324c0.905,0.431,1.821,0.859,2.742,1.268l0.59,0.265c1.051,0.462,2.112,0.903,3.184,1.326l0.767,0.295
	c0.996,0.383,2,0.768,3.007,1.121l0.384,0.147c1.111,0.385,2.235,0.74,3.361,1.091l0.796,0.235c1.145,0.349,2.27,0.754,3.45,0.973
	c75.114,13.7,96.949-45.142,96.949-45.142c-18.32,23.876-50.853,30.187-81.675,23.175c-1.168-0.264-2.312-0.641-3.45-0.973
	l-0.855-0.265c-1.111-0.339-2.207-0.683-3.302-1.061l-0.442-0.177c-0.982-0.342-1.956-0.715-2.919-1.091l-0.826-0.324
	c-1.061-0.42-2.116-0.844-3.154-1.298l-0.649-0.265c-0.894-0.404-1.768-0.815-2.654-1.238l-0.767-0.384
	c-0.691-0.333-1.355-0.677-2.035-1.032c-0.461-0.237-0.932-0.489-1.386-0.737c-0.833-0.452-1.66-0.911-2.477-1.386l-0.826-0.442
	c-1.088-0.637-2.157-1.306-3.214-1.975l-0.854-0.589c-0.768-0.496-1.544-0.987-2.3-1.503l-0.707-0.531
	c-0.737-0.515-1.471-1.032-2.182-1.563l-0.944-0.707c-0.653-0.5-1.301-1.015-1.946-1.533l-0.884-0.707
	c-0.821-0.672-1.616-1.34-2.417-2.035l-0.265-0.207c-0.863-0.76-1.725-1.551-2.565-2.33l-0.707-0.707
	c-0.619-0.592-1.225-1.187-1.828-1.798l-0.737-0.707c-0.764-0.784-1.508-1.583-2.24-2.388l-0.118-0.118
	c-0.775-0.85-1.525-1.717-2.27-2.595l-0.589-0.707c-0.558-0.668-1.113-1.353-1.651-2.035l-0.589-0.737
	c-0.649-0.837-1.306-1.687-1.917-2.535C78.555,148.436,72.405,116.239,86.081,89.805L86.081,89.805z"/>
</svg>
