<?xml version="1.0" encoding="utf-8"?>
<!-- Generator: Adobe Illustrator 17.0.0, SVG Export Plug-In . SVG Version: 6.00 Build 0)  -->
<!DOCTYPE svg PUBLIC "-//W3C//DTD SVG 1.1//EN" "http://www.w3.org/Graphics/SVG/1.1/DTD/svg11.dtd">
<svg version="1.1" id="Layer_1" xmlns="http://www.w3.org/2000/svg" xmlns:xlink="http://www.w3.org/1999/xlink" x="0px" y="0px"
	 width="300px" height="300px" viewBox="0 0 300 300" enable-background="new 0 0 300 300" xml:space="preserve">
<path fill="#404969" d="M200.619,190.576l27.428-15.671l-78.045-44.323l-78.048,44.323l27.428,15.671L71.954,206.15l27.428,15.671
	l-27.428,15.574l78.048,44.59l78.045-44.59l-27.428-15.574l27.428-15.671L200.619,190.576z M150.001,137.115l66.567,37.804
	l-66.567,38.034l-66.57-38.034L150.001,137.115z M105.116,193.851l44.885,25.644l44.885-25.644l21.681,12.314L150,244.199
	l-66.57-38.034L105.116,193.851z M216.568,237.41l-66.567,38.034l-66.57-38.034l21.684-12.314L150,250.74l44.885-25.644
	L216.568,237.41z"/>
<circle fill="#FFFFFF" cx="149.639" cy="101.747" r="78.408"/>
<g>
	<path fill="#404969" d="M82.427,102.104c0,26.746,15.544,49.86,38.082,60.813L88.276,74.604
		C84.528,83.008,82.427,92.308,82.427,102.104z"/>
	<path fill="#404969" d="M195.613,98.694c0-8.351-3-14.134-5.572-18.636c-3.425-5.566-6.636-10.28-6.636-15.846
		c0-6.211,4.711-11.993,11.347-11.993c0.299,0,0.583,0.038,0.876,0.054c-12.022-11.014-28.038-17.738-45.63-17.738
		c-23.606,0-44.375,12.112-56.458,30.456c1.585,0.048,3.079,0.081,4.349,0.081c7.068,0,18.008-0.858,18.008-0.858
		c3.643-0.215,4.072,5.135,0.433,5.566c0,0-3.661,0.43-7.734,0.644l24.607,73.191l14.787-44.349l-10.528-28.844
		c-3.639-0.214-7.086-0.644-7.086-0.644c-3.641-0.214-3.215-5.781,0.426-5.566c0,0,11.159,0.858,17.799,0.858
		c7.066,0,18.008-0.858,18.008-0.858c3.645-0.215,4.073,5.135,0.433,5.566c0,0-3.668,0.43-7.734,0.644l24.419,72.638l6.74-22.522
		C193.391,111.191,195.613,104.479,195.613,98.694z"/>
	<path fill="#404969" d="M151.183,108.015l-20.274,58.912c6.053,1.779,12.455,2.752,19.088,2.752c7.869,0,15.415-1.361,22.439-3.83
		c-0.181-0.289-0.346-0.596-0.481-0.931L151.183,108.015z"/>
	<path fill="#404969" d="M209.289,69.685c0.29,2.152,0.455,4.463,0.455,6.948c0,6.856-1.28,14.565-5.138,24.203l-20.64,59.675
		c20.088-11.715,33.6-33.478,33.6-58.407C217.568,90.358,214.567,79.31,209.289,69.685z"/>
	<path fill="#404969" d="M149.998,23.339c-43.432,0-78.768,35.334-78.768,78.766c0,43.437,35.336,78.769,78.768,78.769
		c43.43,0,78.771-35.333,78.771-78.769C228.769,58.673,193.428,23.339,149.998,23.339z M149.998,177.263
		c-41.44,0-75.156-33.717-75.156-75.158c0-41.44,33.715-75.153,75.156-75.153c41.439,0,75.152,33.714,75.152,75.153
		C225.15,143.546,191.437,177.263,149.998,177.263z"/>
</g>
</svg>
