<?xml version="1.0" encoding="utf-8"?>
<!-- Generator: Adobe Illustrator 17.0.0, SVG Export Plug-In . SVG Version: 6.00 Build 0)  -->
<!DOCTYPE svg PUBLIC "-//W3C//DTD SVG 1.1//EN" "http://www.w3.org/Graphics/SVG/1.1/DTD/svg11.dtd">
<svg version="1.1" id="Layer_1" xmlns="http://www.w3.org/2000/svg" xmlns:xlink="http://www.w3.org/1999/xlink" x="0px" y="0px"
	 width="300px" height="300px" viewBox="0 0 300 300" enable-background="new 0 0 300 300" xml:space="preserve">
<linearGradient id="SVGID_1_" gradientUnits="userSpaceOnUse" x1="60.331" y1="153.2124" x2="246.3909" y2="153.2124">
	<stop  offset="0" style="stop-color:#BDE4F4"/>
	<stop  offset="0.53" style="stop-color:#99C0C9"/>
	<stop  offset="1" style="stop-color:#779FA5"/>
</linearGradient>
<path fill="url(#SVGID_1_)" d="M239.984,65.608c-0.303-0.961-0.1-2.552-1.896-2.464c-11.154,1.202-22.091,3.652-33.097,5.709
	c-1.237,0.231-1.59,0.832-1.488,1.936c0.125,1.352-0.222,2.77,0.551,4.033c0,0,0,0,0,0c0.057,1.467,0.114,2.934,0.17,4.401
	c0,0,0,0,0,0c-0.067,4.639-0.135,9.277-0.202,13.916c0,0,0,0,0,0c-0.854,4.701-1.708,9.403-2.562,14.105c0,0,0,0-0.001,0
	c-1.363,4.643-3.102,9.148-5.035,13.58c-2.575,3.812-5.149,7.623-7.724,11.435c0,0,0,0,0,0c-5.43,5.558-10.953,10.985-17.701,15.016
	c-4.576,2.734-9.586,4.505-14.333,6.85c-5.785,1.502-11.571,3.005-17.355,4.507c-0.002,0-0.003,0.001-0.005,0.001
	c-5.482,0.746-10.958,1.542-16.447,2.223c-4.95,0.614-9.915,1.102-14.874,1.645c0,0-0.001,0-0.001,0
	c-12.681,0.505-25.369,0.945-38.057,0.684c-3.487-0.072-4.944,1.086-4.823,4.449c0,0,0,0,0,0
	c-1.392,5.687-2.444,11.428-2.713,17.291c0,0,0,0,0,0c-1.183,4.754-1.193,9.651-1.573,14.484c-0.496,6.307-0.636,12.651-0.32,18.988
	c0,0,0,0,0,0c-0.01,4.671-0.303,9.357,0.704,13.978c-0.17,1.102,0.227,1.7,1.347,2.119c8.857,3.31,17.885,5.919,27.322,6.933
	c0.001,0,0.002,0,0.003,0.001c0.656,0.433,1.379,0.509,2.136,0.397c0.988,0.086,1.976,0.171,2.964,0.257c0,0,0,0,0,0
	c0.863,0.623,1.832,0.5,2.799,0.4c1.631,0.08,3.262,0.161,4.893,0.241c0,0,0,0,0,0c4.616,0.696,9.232,0.799,13.848-0.001
	c1.061,0.016,2.125,0.089,3.183,0.04c13.455-0.627,26.383-3.66,38.898-8.563c17.025-5.882,31.811-15.483,44.706-27.865
	c23.378-22.449,38.137-49.418,42.042-81.965C247.744,104.367,246.042,84.8,239.984,65.608z M64.411,180.533
	c-0.018-0.013-0.034-0.023-0.052-0.035c0.02-0.01,0.035-0.023,0.055-0.033C64.413,180.488,64.411,180.511,64.411,180.533z
	 M95.59,241.693c-0.022-0.006-0.044-0.011-0.065-0.017c0.029,0.002,0.056,0.007,0.085,0.009
	C95.603,241.688,95.597,241.691,95.59,241.693z M112.977,242.305c0.434,0.012,0.866,0.016,1.299,0.022
	C113.828,242.362,113.388,242.397,112.977,242.305z M122.779,185.701c0.042-0.12,0.085-0.239,0.118-0.369
	c0.107,0.033,0.204,0.05,0.306,0.075C123.062,185.505,122.92,185.603,122.779,185.701z M131.635,161.275
	c-0.008-0.009-0.016-0.019-0.024-0.028c0.04,0.001,0.079-0.002,0.118,0C131.698,161.257,131.666,161.264,131.635,161.275z
	 M149.651,231.736c0.015-0.033,0.034-0.059,0.049-0.09c0.04,0.037,0.079,0.071,0.119,0.103
	C149.764,231.744,149.708,231.747,149.651,231.736z M172.074,148.51c-0.012-0.012-0.023-0.027-0.035-0.039
	c0.03-0.009,0.059-0.022,0.089-0.031C172.109,148.462,172.092,148.487,172.074,148.51z M206.016,81.814
	c-0.012-0.008-0.023-0.013-0.035-0.021c0.014-0.009,0.023-0.021,0.037-0.029C206.018,81.78,206.017,81.797,206.016,81.814z
	 M236.183,117.66C236.183,117.66,236.183,117.66,236.183,117.66C236.183,117.66,236.183,117.66,236.183,117.66
	c-0.003-0.007-0.007-0.013-0.01-0.02c0.008,0.002,0.016,0.005,0.024,0.007C236.191,117.652,236.188,117.656,236.183,117.66z"/>
<path fill="#404969" d="M72.581,129.502c4.507-11.922,10.408-23.134,16.905-34.06c3.947,2.488,8.037,3.579,12.17,0.593
	c3.326-2.404,4.539-5.776,3.656-9.836c0,0,0,0,0-0.001c-0.003-1.188,0.684-1.664,1.775-1.849c1.574-0.268,3.132-0.631,4.699-0.941
	c32.092-6.34,64.179-12.706,96.28-19.001c8.989-1.763,18.02-3.31,27.028-4.979c0.729-0.135,1.952,0.13,1.572-1.319
	c-0.237-0.903-0.81-1.493-1.855-1.381c-0.636,0.068-1.28,0.091-1.909,0.2c-10.707,1.854-21.411,3.726-32.118,5.579
	c-30.661,5.306-61.184,11.317-91.526,18.211c-3.444,0.783-6.58,1.421-9.592-0.912c-6.208-2.194-11.848,1.231-12.74,7.735
	c-0.079,1.314-0.42,2.667,0.552,3.829c0.19,0.61,0.379,1.22,0.569,1.831l0,0c0,0,0,0,0,0c-6.784,10.032-12.131,20.808-16.659,32.017
	c-8.284,20.507-13.244,41.858-15.795,63.758c-1.567,13.453-2.658,26.968-1.501,40.549c0.14,1.647,0.453,3.291,2.303,3.19
	c2.09-0.115,0.932-2.038,0.904-3.023c-0.428-15.161-0.069-30.27,1.869-45.345C61.584,165.549,65.874,147.245,72.581,129.502z"/>
<linearGradient id="SVGID_2_" gradientUnits="userSpaceOnUse" x1="67.8627" y1="114.1264" x2="196.4446" y2="114.1264">
	<stop  offset="0" style="stop-color:#BDE4F4"/>
	<stop  offset="0.53" style="stop-color:#99C0C9"/>
	<stop  offset="1" style="stop-color:#779FA5"/>
</linearGradient>
<path fill="url(#SVGID_2_)" d="M70.082,156.672c8.096-0.059,16.195-0.044,24.286-0.289c17.389-0.526,34.698-1.921,51.508-6.754
	c16.358-4.702,30.268-13.153,39.932-27.577c7.484-11.17,10.239-23.765,10.544-36.995c0.104-4.498,0.411-9.056-1.22-13.415
	c0,0,0,0,0,0c-0.415-0.01-0.83-0.02-1.246-0.03c0,0,0,0,0,0c-0.647-0.03-1.294-0.059-1.941-0.089
	c-2.034,0.049-3.999,0.433-5.881,1.214c-0.001,0-0.002,0-0.004,0.001c-0.177-0.049-0.349-0.034-0.515,0.044
	c-2.27-0.074-4.437,0.396-6.532,1.237c-0.001,0-0.002,0-0.003,0c-0.392,0.032-0.783,0.063-1.175,0.095
	c-2.017-0.05-3.928,0.436-5.795,1.144c-0.001,0-0.002,0-0.002,0c-0.206-0.028-0.404,0.001-0.594,0.087
	c-6.918,0.91-13.801,2.006-20.552,3.814c-0.001,0-0.001,0-0.002,0l0.031-0.022c-6.082,0.514-12.051,1.668-17.95,3.205
	c-2.441-0.06-4.793,0.366-7.056,1.282c-2.439-0.059-4.788,0.368-7.05,1.282c-3.354-0.095-6.482,0.992-9.651,1.858
	c-0.001,0-0.002,0-0.003,0c-1.048,0.454-1.142,1.354-1.255,2.358c-0.791,7.02-6.925,12.09-13.645,10.332
	c-3.859-1.01-5.073,0.386-6.198,3.28c-0.19,0.488-0.551,0.907-0.794,1.377c-5.566,10.76-10.66,21.719-14.063,33.389
	c-2.258,5.605-3.823,11.411-5.033,17.32h0c0,0,0,0,0,0C67.065,157.214,68.965,156.68,70.082,156.672z M172.081,79.192
	c0.012-0.008,0.024-0.016,0.036-0.024c0.002,0.008,0.004,0.017,0.006,0.025C172.109,79.192,172.095,79.193,172.081,79.192
	C172.081,79.192,172.081,79.192,172.081,79.192C172.081,79.192,172.081,79.192,172.081,79.192z M172.944,111.684
	c-0.044-0.059-0.059-0.129-0.051-0.207C172.905,111.546,172.927,111.615,172.944,111.684z M141.7,134.278
	c-0.159,0.12-0.305,0.23-0.452,0.341c-0.018-0.063-0.021-0.118-0.052-0.189c-0.005-0.01-0.012-0.016-0.016-0.026
	C141.354,134.362,141.521,134.322,141.7,134.278z M106.709,116.367c0.039-0.058,0.075-0.121,0.111-0.186
	c0.025,0.052,0.05,0.104,0.078,0.156C106.835,116.346,106.772,116.358,106.709,116.367L106.709,116.367L106.709,116.367z
	 M89.411,133.699c-0.005-0.006-0.011-0.011-0.016-0.017c0.003-0.003,0.005-0.006,0.008-0.009
	C89.406,133.683,89.409,133.69,89.411,133.699z M97.218,144.644c-0.01,0.043-0.018,0.087-0.028,0.131
	c-0.012-0.001-0.025-0.001-0.037-0.002C97.171,144.724,97.193,144.682,97.218,144.644z"/>
</svg>
