<?xml version="1.0" encoding="utf-8"?>
<!-- Generator: Adobe Illustrator 17.0.0, SVG Export Plug-In . SVG Version: 6.00 Build 0)  -->
<!DOCTYPE svg PUBLIC "-//W3C//DTD SVG 1.1//EN" "http://www.w3.org/Graphics/SVG/1.1/DTD/svg11.dtd">
<svg version="1.1" id="Layer_1" xmlns="http://www.w3.org/2000/svg" xmlns:xlink="http://www.w3.org/1999/xlink" x="0px" y="0px"
	 width="300px" height="300px" viewBox="0 0 300 300" enable-background="new 0 0 300 300" xml:space="preserve">
<title>HTML5 Logo</title>
<path fill="#404969" d="M232.697,164.831c-1.408,4.047-2.991,7.391-5.103,10.558c2.112-7.743,2.991-15.837,2.464-24.46
	c-2.991-40.473-36.778-72.5-78.307-72.5c-25.868,0-49.096,12.67-63.173,32.027c-0.704,1.232-1.76,2.288-2.464,3.695
	c-4.751,7.567-8.095,15.661-9.854,24.108c-0.176-7.039,0.704-14.782,2.992-22.7c-7.215,0.88-13.198,2.64-17.773,5.279l0,0
	c-4.047,2.288-7.039,5.103-8.623,8.447l0,0c-0.176,0.528-0.352,0.88-0.528,1.584c-0.176,0.528-0.352,1.408-0.352,1.936
	c0,0.176,0,0.352,0,0.528c0,0.352-0.176,0.88-0.176,1.408c0,0.176,0,0.352,0,0.528c0,0.352,0,0.88,0,1.408c0,0.176,0,0.352,0,0.528
	c0,0.352,0.176,0.88,0.176,1.408c0,0.176,0.176,0.352,0.176,0.528c0.176,0.528,0.176,0.88,0.352,1.584
	c0,0.176,0.176,0.352,0.176,0.528c0.176,0.528,0.352,0.88,0.528,1.584c0,0.176,0.176,0.352,0.176,0.528
	c0.176,0.528,0.528,1.232,0.704,1.76c0,0.176,0.176,0.352,0.176,0.352c0.352,0.528,0.528,1.232,0.88,1.76
	c0,0.176,0.176,0.176,0.176,0.352c0.352,0.528,0.704,1.232,1.408,1.936c0,0.176,0.176,0.176,0.176,0.352
	c0.352,0.528,0.88,1.408,1.584,1.936l0.176,0.176c0.528,0.704,1.232,1.408,1.76,2.112l0.176,0.176
	c0.528,0.704,1.408,1.408,1.936,2.112c0,0,0,0,0.176,0.176c0.704,0.704,1.584,1.584,2.288,2.112l0,0
	c0.704,0.704,1.76,1.584,2.464,2.288l0,0c0.88,0.704,1.76,1.584,2.64,2.288l0,0c0.88,0.704,1.936,1.584,2.816,2.288
	c15.133,11.438,36.954,22.524,62.645,30.619c4.575,1.584,9.326,2.816,13.726,4.047c-28.507-3.871-52.263-8.799-74.26-22.876
	c8.974,33.61,39.417,58.246,75.843,58.246c25.516,0,48.04-12.142,62.47-31.147c14.957-1.936,24.988-7.039,27.627-15.485
	C244.311,181.724,240.616,173.278,232.697,164.831z M143.48,162.895c0.528,1.76,1.584,3.167,2.464,4.399
	c1.232,1.232,2.288,2.112,3.871,2.64c1.584,0.528,2.992,0.88,4.751,0.88c1.408,0,2.464-0.176,3.695-0.352
	c0.88-0.176,1.936-0.528,2.816-0.88v-6.335h-4.223c-0.528,0-1.232-0.176-1.584-0.528s-0.528-0.704-0.528-1.232v-5.279h15.309v17.597
	c-0.891,0.869-2.112,1.584-3.167,2.112c-1.698,0.803-2.04,0.93-3.695,1.408c-1.408,0.352-2.64,0.528-4.223,0.704
	c-1.584,0.176-2.992,0.176-4.751,0.176c-2.991,0-5.983-0.528-8.447-1.584c-2.64-1.232-4.751-2.464-6.687-4.399
	c-1.936-1.936-3.519-4.223-4.399-6.687c-1.232-2.64-1.584-5.279-1.584-8.447c0-2.992,0.528-5.983,1.584-8.623
	c0.88-2.64,2.464-4.751,4.399-6.687c1.936-1.936,4.223-3.519,6.863-4.399c2.64-1.232,5.807-1.584,9.15-1.584
	c1.76,0,3.519,0.176,4.927,0.352c1.584,0.352,2.816,0.704,4.223,1.232c1.408,0.528,2.464,1.232,3.695,1.76
	c1.232,0.704,2.112,1.584,2.816,2.288l-2.816,4.223c-0.176,0.352-0.528,0.704-0.88,0.88c-0.352,0.176-0.704,0.352-1.232,0.352
	s-1.232-0.176-1.76-0.528c-0.704-0.352-1.584-0.704-2.112-1.232c-0.704-0.352-1.408-0.528-2.112-0.704s-1.584-0.352-2.288-0.352
	s-1.76-0.176-2.64-0.176c-1.936,0-3.519,0.352-4.927,0.88c-1.584,0.528-2.64,1.584-3.695,2.64c-0.88,1.232-1.76,2.464-2.288,4.223
	c-0.528,1.76-0.724,2.44-1.078,5.114C142.684,159.39,142.952,161.136,143.48,162.895z"/>
</svg>
