<?xml version="1.0" encoding="utf-8"?>
<!-- Generator: Adobe Illustrator 17.0.0, SVG Export Plug-In . SVG Version: 6.00 Build 0)  -->
<!DOCTYPE svg PUBLIC "-//W3C//DTD SVG 1.1//EN" "http://www.w3.org/Graphics/SVG/1.1/DTD/svg11.dtd">
<svg version="1.1" id="Layer_1" xmlns="http://www.w3.org/2000/svg" xmlns:xlink="http://www.w3.org/1999/xlink" x="0px" y="0px"
	 width="300px" height="300px" viewBox="0 0 300 300" enable-background="new 0 0 300 300" xml:space="preserve">
<title>HTML5 Logo</title>
<path fill="#99C0C9" d="M148.565,222.573c-0.775,0-1.546-0.203-2.226-0.595l-7.084-4.194c-1.058-0.592-0.542-0.801-0.193-0.922
	c1.411-0.494,1.697-0.606,3.203-1.461c0.158-0.09,0.365-0.058,0.527,0.037l5.442,3.229c0.197,0.106,0.475,0.106,0.658,0
	l21.22-12.248c0.197-0.112,0.324-0.34,0.324-0.574V181.36c0-0.244-0.127-0.462-0.328-0.584l-21.211-12.238
	c-0.197-0.117-0.457-0.117-0.653,0l-21.207,12.238c-0.206,0.117-0.336,0.345-0.336,0.579v24.486c0,0.234,0.127,0.457,0.329,0.568
	l5.811,3.357c3.155,1.578,5.083-0.282,5.083-2.151v-24.168c0-0.345,0.271-0.611,0.616-0.611h2.688c0.335,0,0.611,0.266,0.611,0.611
	v24.178c0,4.207-2.295,6.624-6.284,6.624c-1.227,0-2.194,0-4.892-1.328l-5.567-3.208c-1.376-0.797-2.226-2.284-2.226-3.872v-24.486
	c0-1.593,0.85-3.081,2.226-3.867l21.241-12.254c1.344-0.76,3.129-0.76,4.462,0l21.214,12.259c1.37,0.791,2.226,2.273,2.226,3.867
	v24.486c0,1.588-0.855,3.07-2.226,3.867l-21.214,12.254c-0.68,0.393-1.45,0.595-2.236,0.595"/>
<path fill="#99C0C9" d="M155.12,205.7c-9.285,0-11.231-4.262-11.231-7.837c0-0.34,0.274-0.611,0.615-0.611h2.741
	c0.303,0,0.558,0.22,0.606,0.519c0.414,2.793,1.647,4.201,7.261,4.201c4.472,0,6.374-1.01,6.374-3.382
	c0-1.365-0.542-2.38-7.489-3.059c-5.811-0.574-9.401-1.854-9.401-6.501c0-4.281,3.612-6.831,9.662-6.831
	c6.793,0,10.161,2.358,10.586,7.426c0.016,0.175-0.048,0.345-0.165,0.473c-0.117,0.122-0.282,0.197-0.451,0.197h-2.757
	c-0.287,0-0.536-0.202-0.595-0.478c-0.664-2.937-2.268-3.877-6.629-3.877c-4.881,0-5.45,1.7-5.45,2.974
	c0,1.546,0.669,1.997,7.256,2.868c6.523,0.866,9.619,2.087,9.619,6.671c0,4.621-3.856,7.272-10.581,7.272 M180.935,179.757h0.712
	c0.584,0,0.696-0.409,0.696-0.648c0-0.627-0.43-0.627-0.669-0.627h-0.733L180.935,179.757z M180.069,177.749h1.578
	c0.542,0,1.604,0,1.604,1.211c0,0.845-0.542,1.02-0.866,1.126c0.632,0.042,0.675,0.457,0.76,1.041
	c0.042,0.366,0.112,0.999,0.239,1.211h-0.972c-0.027-0.212-0.175-1.381-0.175-1.445c-0.064-0.26-0.154-0.388-0.478-0.388h-0.802
	v1.838h-0.887v-4.594H180.069z M178.173,180.033c0,1.902,1.535,3.442,3.421,3.442c1.902,0,3.437-1.572,3.437-3.442
	c0-1.907-1.556-3.421-3.442-3.421c-1.859,0-3.421,1.493-3.421,3.415 M185.689,180.044c0,2.252-1.843,4.09-4.09,4.09
	c-2.231,0-4.09-1.817-4.09-4.09c0-2.316,1.902-4.09,4.09-4.09c2.204,0,4.085,1.779,4.085,4.09"/>
<path fill="#404969" d="M82.856,126.763c0-0.977-0.515-1.875-1.359-2.361l-22.498-12.944c-0.38-0.223-0.805-0.34-1.237-0.356H57.53
	c-0.431,0.016-0.857,0.133-1.243,0.356L33.79,124.402c-0.838,0.489-1.361,1.386-1.361,2.364l0.049,34.865
	c0,0.483,0.25,0.935,0.675,1.174c0.414,0.255,0.935,0.255,1.349,0l13.374-7.659c0.845-0.502,1.36-1.391,1.36-2.358V136.5
	c0-0.972,0.515-1.87,1.357-2.353l5.694-3.279c0.423-0.244,0.887-0.365,1.36-0.365c0.465,0,0.94,0.12,1.351,0.365l5.691,3.278
	c0.842,0.483,1.36,1.381,1.36,2.353v16.287c0,0.967,0.522,1.859,1.362,2.358l13.366,7.654c0.42,0.25,0.942,0.25,1.36,0
	c0.412-0.239,0.674-0.691,0.674-1.174L82.856,126.763z M189.017,144.916c0,0.243-0.129,0.467-0.34,0.587l-7.727,4.454
	c-0.21,0.121-0.469,0.121-0.678,0l-7.728-4.454c-0.212-0.121-0.34-0.345-0.34-0.587v-8.921c0-0.243,0.127-0.467,0.335-0.59
	l7.723-4.462c0.212-0.122,0.473-0.122,0.685,0l7.728,4.462c0.212,0.122,0.34,0.346,0.34,0.59L189.017,144.916z M191.104,78.839
	c-0.422-0.235-0.935-0.228-1.351,0.014c-0.414,0.244-0.67,0.69-0.67,1.174v34.525c0,0.34-0.181,0.653-0.475,0.823
	c-0.292,0.17-0.656,0.17-0.951,0l-5.636-3.246c-0.839-0.485-1.873-0.485-2.715,0l-22.505,12.988c-0.841,0.483-1.36,1.381-1.36,2.348
	v25.984c0,0.972,0.519,1.864,1.36,2.353l22.505,12.997c0.84,0.483,1.875,0.483,2.718,0l22.505-13.003
	c0.839-0.489,1.36-1.381,1.36-2.353V88.686c0-0.986-0.536-1.893-1.397-2.374L191.104,78.839z M266.046,135.76
	c0.836-0.485,1.351-1.382,1.351-2.349v-6.297c0-0.969-0.515-1.863-1.353-2.35l-22.362-12.981c-0.845-0.489-1.88-0.489-2.725,0
	l-22.5,12.987c-0.845,0.489-1.36,1.381-1.36,2.353v25.973c0,0.977,0.526,1.88,1.37,2.364l22.356,12.742
	c0.823,0.473,1.832,0.478,2.666,0.016l13.523-7.516c0.425-0.239,0.696-0.691,0.696-1.179s-0.26-0.945-0.685-1.184l-22.638-12.992
	c-0.425-0.239-0.685-0.691-0.685-1.174v-8.148c0-0.487,0.255-0.935,0.68-1.177l7.043-4.063c0.42-0.244,0.935-0.244,1.354,0
	l7.048,4.063c0.42,0.239,0.68,0.691,0.68,1.174v6.406c0,0.483,0.26,0.935,0.68,1.179c0.42,0.239,0.94,0.239,1.36-0.005
	L266.046,135.76z"/>
<path fill="#99C0C9" d="M241.991,134.544c0.159-0.094,0.359-0.094,0.521,0l4.318,2.491c0.161,0.093,0.26,0.266,0.26,0.451v4.988
	c0,0.186-0.099,0.358-0.26,0.451l-4.318,2.491c-0.161,0.094-0.361,0.094-0.521,0l-4.316-2.491c-0.165-0.093-0.266-0.266-0.266-0.451
	v-4.988c0-0.186,0.096-0.358,0.26-0.451L241.991,134.544z"/>
<path fill="none" d="M144.193,153.512l-0.01-0.016v0.048C144.186,153.533,144.191,153.523,144.193,153.512z"/>
<linearGradient id="SVGID_1_" gradientUnits="userSpaceOnUse" x1="4.49" y1="-3.4294" x2="5.127" y2="-3.4294" gradientTransform="matrix(-50.7531 103.536 -103.536 -50.7531 -2.6873 -537.0607)">
	<stop  offset="0.3" style="stop-color:#3E863D"/>
	<stop  offset="0.5" style="stop-color:#55934F"/>
	<stop  offset="0.8" style="stop-color:#5AAD45"/>
</linearGradient>
<path fill="url(#SVGID_1_)" d="M119.774,111.632c-0.035-0.008-0.07-0.007-0.105-0.014l0.057,0.097L119.774,111.632z"/>
<linearGradient id="SVGID_2_" gradientUnits="userSpaceOnUse" x1="4.49" y1="-3.6639" x2="5.127" y2="-3.6639" gradientTransform="matrix(-50.7531 103.536 -103.536 -50.7531 -2.6873 -537.0607)">
	<stop  offset="0.3" style="stop-color:#3E863D"/>
	<stop  offset="0.5" style="stop-color:#55934F"/>
	<stop  offset="0.8" style="stop-color:#5AAD45"/>
</linearGradient>
<path fill="url(#SVGID_2_)" d="M142.981,124.909c0.175,0.113,0.342,0.236,0.484,0.384
	C143.322,125.146,143.156,125.022,142.981,124.909z"/>
<linearGradient id="SVGID_3_" gradientUnits="userSpaceOnUse" x1="4.49" y1="-3.3666" x2="5.127" y2="-3.3666" gradientTransform="matrix(-50.7531 103.536 -103.536 -50.7531 -2.6873 -537.0607)">
	<stop  offset="0.3" style="stop-color:#3E863D"/>
	<stop  offset="0.5" style="stop-color:#55934F"/>
	<stop  offset="0.8" style="stop-color:#5AAD45"/>
</linearGradient>
<path fill="url(#SVGID_3_)" d="M117.891,111.871c-0.032,0.016-0.067,0.022-0.098,0.04h0.006l-17.649,10.187l17.649-10.187
	C117.829,111.895,117.861,111.887,117.891,111.871z"/>
<linearGradient id="SVGID_4_" gradientUnits="userSpaceOnUse" x1="4.557" y1="-3.4245" x2="4.6148" y2="-3.4245" gradientTransform="matrix(-50.7531 103.536 -103.536 -50.7531 -2.6873 -537.0607)">
	<stop  offset="0.3" style="stop-color:#3E863D"/>
	<stop  offset="0.5" style="stop-color:#55934F"/>
	<stop  offset="0.8" style="stop-color:#5AAD45"/>
</linearGradient>
<polygon fill="url(#SVGID_4_)" points="119.116,111.555 119.118,111.555 119.117,111.555 "/>
<linearGradient id="SVGID_5_" gradientUnits="userSpaceOnUse" x1="4.49" y1="-3.4256" x2="5.127" y2="-3.4256" gradientTransform="matrix(-50.7531 103.536 -103.536 -50.7531 -2.6873 -537.0607)">
	<stop  offset="0.3" style="stop-color:#3E863D"/>
	<stop  offset="0.5" style="stop-color:#55934F"/>
	<stop  offset="0.8" style="stop-color:#5AAD45"/>
</linearGradient>
<path fill="url(#SVGID_5_)" d="M119.117,111.555C119.117,111.555,119.118,111.555,119.117,111.555c0.097,0,0.189,0.018,0.283,0.028
	c-0.085-0.008-0.168-0.033-0.252-0.033c-0.013,0-0.027,0.005-0.04,0.005C119.111,111.555,119.113,111.555,119.117,111.555
	L119.117,111.555z"/>
<linearGradient id="SVGID_6_" gradientUnits="userSpaceOnUse" x1="4.49" y1="-3.4201" x2="5.127" y2="-3.4201" gradientTransform="matrix(-50.7531 103.536 -103.536 -50.7531 -2.6873 -537.0607)">
	<stop  offset="0.3" style="stop-color:#3E863D"/>
	<stop  offset="0.5" style="stop-color:#55934F"/>
	<stop  offset="0.8" style="stop-color:#5AAD45"/>
</linearGradient>
<path fill="url(#SVGID_6_)" d="M118.388,111.667c0.078-0.023,0.158-0.033,0.237-0.049
	C118.545,111.634,118.466,111.644,118.388,111.667z"/>
<linearGradient id="SVGID_7_" gradientUnits="userSpaceOnUse" x1="4.49" y1="-3.4603" x2="5.127" y2="-3.4603" gradientTransform="matrix(-50.7531 103.536 -103.536 -50.7531 -2.6873 -537.0607)">
	<stop  offset="0.3" style="stop-color:#3E863D"/>
	<stop  offset="0.5" style="stop-color:#55934F"/>
	<stop  offset="0.8" style="stop-color:#5AAD45"/>
</linearGradient>
<path fill="url(#SVGID_7_)" d="M125.89,115.022l-5.388-3.11c-0.224-0.128-0.462-0.217-0.705-0.277
	c0.236,0.063,0.468,0.15,0.681,0.274L125.89,115.022z"/>
<linearGradient id="SVGID_8_" gradientUnits="userSpaceOnUse" x1="4.49" y1="-3.7806" x2="5.127" y2="-3.7806" gradientTransform="matrix(-50.7531 103.536 -103.536 -50.7531 -2.6873 -537.0607)">
	<stop  offset="0.3" style="stop-color:#3E863D"/>
	<stop  offset="0.5" style="stop-color:#55934F"/>
	<stop  offset="0.8" style="stop-color:#5AAD45"/>
</linearGradient>
<path fill="url(#SVGID_8_)" d="M143.893,154.306c-0.019,0.035-0.038,0.071-0.059,0.105
	C143.856,154.376,143.874,154.341,143.893,154.306z"/>
<linearGradient id="SVGID_9_" gradientUnits="userSpaceOnUse" x1="4.49" y1="-3.7802" x2="5.127" y2="-3.7802" gradientTransform="matrix(-50.7531 103.536 -103.536 -50.7531 -2.6873 -537.0607)">
	<stop  offset="0.3" style="stop-color:#3E863D"/>
	<stop  offset="0.5" style="stop-color:#55934F"/>
	<stop  offset="0.8" style="stop-color:#5AAD45"/>
</linearGradient>
<path fill="url(#SVGID_9_)" d="M144.14,153.687c-0.008,0.03-0.018,0.059-0.027,0.089
	C144.122,153.746,144.133,153.717,144.14,153.687z"/>
<linearGradient id="SVGID_10_" gradientUnits="userSpaceOnUse" x1="4.49" y1="-3.6475" x2="5.127" y2="-3.6475" gradientTransform="matrix(-50.7531 103.536 -103.536 -50.7531 -2.6873 -537.0607)">
	<stop  offset="0.3" style="stop-color:#3E863D"/>
	<stop  offset="0.5" style="stop-color:#55934F"/>
	<stop  offset="0.8" style="stop-color:#5AAD45"/>
</linearGradient>
<path fill="url(#SVGID_10_)" d="M119.87,168.546c-0.039,0.011-0.08,0.013-0.12,0.022C119.79,168.559,119.83,168.557,119.87,168.546z
	"/>
<linearGradient id="SVGID_11_" gradientUnits="userSpaceOnUse" x1="4.49" y1="-3.401" x2="5.127" y2="-3.401" gradientTransform="matrix(-50.7531 103.536 -103.536 -50.7531 -2.6873 -537.0607)">
	<stop  offset="0.3" style="stop-color:#3E863D"/>
	<stop  offset="0.5" style="stop-color:#55934F"/>
	<stop  offset="0.8" style="stop-color:#5AAD45"/>
</linearGradient>
<path fill="url(#SVGID_11_)" d="M94.909,154.965c-0.043-0.041-0.08-0.085-0.12-0.129C94.829,154.88,94.867,154.924,94.909,154.965z"
	/>
<linearGradient id="SVGID_12_" gradientUnits="userSpaceOnUse" x1="4.49" y1="-3.6367" x2="5.127" y2="-3.6367" gradientTransform="matrix(-50.7531 103.536 -103.536 -50.7531 -2.6873 -537.0607)">
	<stop  offset="0.3" style="stop-color:#3E863D"/>
	<stop  offset="0.5" style="stop-color:#55934F"/>
	<stop  offset="0.8" style="stop-color:#5AAD45"/>
</linearGradient>
<path fill="url(#SVGID_12_)" d="M118.521,168.563c-0.054-0.013-0.107-0.032-0.161-0.049
	C118.414,168.531,118.466,168.55,118.521,168.563z"/>
<linearGradient id="SVGID_13_" gradientUnits="userSpaceOnUse" x1="4.49" y1="-3.6427" x2="5.127" y2="-3.6427" gradientTransform="matrix(-50.7531 103.536 -103.536 -50.7531 -2.6873 -537.0607)">
	<stop  offset="0.3" style="stop-color:#3E863D"/>
	<stop  offset="0.5" style="stop-color:#55934F"/>
	<stop  offset="0.8" style="stop-color:#5AAD45"/>
</linearGradient>
<path fill="url(#SVGID_13_)" d="M119.218,168.637c-0.043,0.001-0.086,0.001-0.129,0
	C119.133,168.638,119.175,168.638,119.218,168.637z"/>
<linearGradient id="SVGID_14_" gradientUnits="userSpaceOnUse" x1="4.49" y1="-3.7795" x2="5.127" y2="-3.7795" gradientTransform="matrix(-50.7531 103.536 -103.536 -50.7531 -2.6873 -537.0607)">
	<stop  offset="0.3" style="stop-color:#3E863D"/>
	<stop  offset="0.5" style="stop-color:#55934F"/>
	<stop  offset="0.8" style="stop-color:#5AAD45"/>
</linearGradient>
<path fill="url(#SVGID_14_)" d="M143.487,154.867c-0.023,0.024-0.041,0.051-0.065,0.074
	C143.445,154.917,143.464,154.891,143.487,154.867z"/>
<linearGradient id="SVGID_15_" gradientUnits="userSpaceOnUse" x1="135.874" y1="139.404" x2="144.23" y2="139.404">
	<stop  offset="0" style="stop-color:#BDE4F4"/>
	<stop  offset="0.53" style="stop-color:#99C0C9"/>
	<stop  offset="1" style="stop-color:#779FA5"/>
</linearGradient>
<path fill="url(#SVGID_15_)" d="M143.499,125.337l-7.625,13.962l8.296,14.172c0.026-0.15,0.06-0.298,0.06-0.453v-25.85
	C144.229,126.477,143.956,125.83,143.499,125.337z"/>
<linearGradient id="SVGID_16_" gradientUnits="userSpaceOnUse" x1="4.49" y1="-3.6169" x2="5.127" y2="-3.6169" gradientTransform="matrix(-50.7531 103.536 -103.536 -50.7531 -2.6873 -537.0607)">
	<stop  offset="0.3" style="stop-color:#3E863D"/>
	<stop  offset="0.5" style="stop-color:#55934F"/>
	<stop  offset="0.8" style="stop-color:#5AAD45"/>
</linearGradient>
<path fill="url(#SVGID_16_)" d="M114.937,166.63l2.864,1.654c0.032,0.019,0.069,0.025,0.101,0.042
	c-0.029-0.015-0.06-0.026-0.088-0.042L114.937,166.63z"/>
<linearGradient id="SVGID_17_" gradientUnits="userSpaceOnUse" x1="4.49" y1="-3.6482" x2="4.853" y2="-3.6482" gradientTransform="matrix(-50.7531 103.536 -103.536 -50.7531 -2.6873 -537.0607)">
	<stop  offset="0.3" style="stop-color:#3E863D"/>
	<stop  offset="0.5" style="stop-color:#55934F"/>
	<stop  offset="0.8" style="stop-color:#5AAD45"/>
</linearGradient>
<polygon fill="url(#SVGID_17_)" points="119.909,168.53 119.916,168.527 119.91,168.529 "/>
<path fill="#99C0C9" d="M103.525,139.432l-8.039-14.642l-0.064,0.037c-0.838,0.483-1.352,1.376-1.352,2.34v25.85
	c0,0.599,0.217,1.157,0.567,1.619L103.525,139.432z"/>
<linearGradient id="SVGID_18_" gradientUnits="userSpaceOnUse" x1="-0.0235" y1="3.1745" x2="0.39" y2="3.1745" gradientTransform="matrix(142.4074 -105.2221 105.2221 142.4074 -227.2258 -273.9477)">
	<stop  offset="0.57" style="stop-color:#3E863D"/>
	<stop  offset="0.72" style="stop-color:#619857"/>
	<stop  offset="1" style="stop-color:#76AC64"/>
</linearGradient>
<path fill="url(#SVGID_18_)" d="M119.733,168.571c0.006-0.001,0.011-0.002,0.017-0.003c-0.003,0.001-0.006,0-0.009,0.001
	C119.738,168.57,119.736,168.57,119.733,168.571z"/>
<linearGradient id="SVGID_19_" gradientUnits="userSpaceOnUse" x1="-0.0235" y1="3.1749" x2="0.39" y2="3.1749" gradientTransform="matrix(142.4074 -105.2221 105.2221 142.4074 -227.2258 -273.9477)">
	<stop  offset="0.57" style="stop-color:#3E863D"/>
	<stop  offset="0.72" style="stop-color:#619857"/>
	<stop  offset="1" style="stop-color:#76AC64"/>
</linearGradient>
<path fill="url(#SVGID_19_)" d="M119.904,168.54l0.005-0.01c-0.014,0.004-0.026,0.013-0.04,0.016
	C119.881,168.543,119.893,168.543,119.904,168.54z"/>
<linearGradient id="SVGID_20_" gradientUnits="userSpaceOnUse" x1="-0.0235" y1="2.916" x2="0.39" y2="2.916" gradientTransform="matrix(142.4074 -105.2221 105.2221 142.4074 -227.2258 -273.9477)">
	<stop  offset="0.57" style="stop-color:#3E863D"/>
	<stop  offset="0.72" style="stop-color:#619857"/>
	<stop  offset="1" style="stop-color:#76AC64"/>
</linearGradient>
<path fill="url(#SVGID_20_)" d="M119.777,111.627l-0.003,0.005c0.007,0.002,0.015,0.001,0.023,0.003
	C119.79,111.633,119.784,111.628,119.777,111.627z"/>
<linearGradient id="SVGID_21_" gradientUnits="userSpaceOnUse" x1="-0.0235" y1="3.1684" x2="0.39" y2="3.1684" gradientTransform="matrix(142.4074 -105.2221 105.2221 142.4074 -227.2258 -273.9477)">
	<stop  offset="0.57" style="stop-color:#3E863D"/>
	<stop  offset="0.72" style="stop-color:#619857"/>
	<stop  offset="1" style="stop-color:#76AC64"/>
</linearGradient>
<path fill="url(#SVGID_21_)" d="M118.36,168.515c-0.157-0.048-0.309-0.111-0.457-0.188
	C118.05,168.404,118.203,168.466,118.36,168.515z"/>
<linearGradient id="SVGID_22_" gradientUnits="userSpaceOnUse" x1="-0.0235" y1="3.1735" x2="0.39" y2="3.1735" gradientTransform="matrix(142.4074 -105.2221 105.2221 142.4074 -227.2258 -273.9477)">
	<stop  offset="0.57" style="stop-color:#3E863D"/>
	<stop  offset="0.72" style="stop-color:#619857"/>
	<stop  offset="1" style="stop-color:#76AC64"/>
</linearGradient>
<path fill="url(#SVGID_22_)" d="M119.218,168.637c0.052-0.001,0.103,0.004,0.155,0c0.057-0.005,0.113-0.023,0.169-0.031l-0.006-0.01
	C119.43,168.611,119.325,168.635,119.218,168.637z"/>
<linearGradient id="SVGID_23_" gradientUnits="userSpaceOnUse" x1="-0.0235" y1="3.0277" x2="0.39" y2="3.0277" gradientTransform="matrix(142.4074 -105.2221 105.2221 142.4074 -227.2258 -273.9477)">
	<stop  offset="0.57" style="stop-color:#3E863D"/>
	<stop  offset="0.72" style="stop-color:#619857"/>
	<stop  offset="1" style="stop-color:#76AC64"/>
</linearGradient>
<path fill="url(#SVGID_23_)" d="M94.624,154.659c0.049,0.064,0.111,0.117,0.165,0.177c-0.057-0.062-0.102-0.132-0.152-0.199
	L94.624,154.659z"/>
<linearGradient id="SVGID_24_" gradientUnits="userSpaceOnUse" x1="-0.0235" y1="3.0031" x2="0.39" y2="3.0031" gradientTransform="matrix(142.4074 -105.2221 105.2221 142.4074 -227.2258 -273.9477)">
	<stop  offset="0.57" style="stop-color:#3E863D"/>
	<stop  offset="0.72" style="stop-color:#619857"/>
	<stop  offset="1" style="stop-color:#76AC64"/>
</linearGradient>
<path fill="url(#SVGID_24_)" d="M142.981,124.909c-0.038-0.024-0.065-0.06-0.105-0.083l-14.652-8.461l-2.334-1.343l16.985,9.806
	C142.914,124.85,142.943,124.884,142.981,124.909z"/>
<linearGradient id="SVGID_25_" gradientUnits="userSpaceOnUse" x1="-0.0235" y1="3.1715" x2="0.39" y2="3.1715" gradientTransform="matrix(142.4074 -105.2221 105.2221 142.4074 -227.2258 -273.9477)">
	<stop  offset="0.57" style="stop-color:#3E863D"/>
	<stop  offset="0.72" style="stop-color:#619857"/>
	<stop  offset="1" style="stop-color:#76AC64"/>
</linearGradient>
<path fill="url(#SVGID_25_)" d="M118.521,168.563c0.187,0.046,0.377,0.068,0.569,0.074
	C118.898,168.633,118.708,168.608,118.521,168.563z"/>
<linearGradient id="SVGID_26_" gradientUnits="userSpaceOnUse" x1="-0.0235" y1="3.0895" x2="0.39" y2="3.0895" gradientTransform="matrix(142.4074 -105.2221 105.2221 142.4074 -227.2258 -273.9477)">
	<stop  offset="0.57" style="stop-color:#3E863D"/>
	<stop  offset="0.72" style="stop-color:#619857"/>
	<stop  offset="1" style="stop-color:#76AC64"/>
</linearGradient>
<path fill="url(#SVGID_26_)" d="M95.422,155.358c-0.19-0.11-0.358-0.246-0.512-0.393C95.064,155.113,95.231,155.249,95.422,155.358
	l19.195,11.088l0.32,0.184L95.422,155.358z"/>
<linearGradient id="SVGID_27_" gradientUnits="userSpaceOnUse" x1="-0.0235" y1="3.0577" x2="0.39" y2="3.0577" gradientTransform="matrix(142.4074 -105.2221 105.2221 142.4074 -227.2258 -273.9477)">
	<stop  offset="0.57" style="stop-color:#3E863D"/>
	<stop  offset="0.72" style="stop-color:#619857"/>
	<stop  offset="1" style="stop-color:#76AC64"/>
</linearGradient>
<path fill="url(#SVGID_27_)" d="M143.505,125.325c-0.012-0.013-0.029-0.02-0.041-0.032c0.013,0.013,0.021,0.031,0.034,0.044
	L143.505,125.325z"/>
<linearGradient id="SVGID_28_" gradientUnits="userSpaceOnUse" x1="4.49" y1="-3.5484" x2="5.127" y2="-3.5484" gradientTransform="matrix(-50.7531 103.536 -103.536 -50.7531 -2.6873 -537.0607)">
	<stop  offset="0.3" style="stop-color:#3E863D"/>
	<stop  offset="0.5" style="stop-color:#55934F"/>
	<stop  offset="0.8" style="stop-color:#5AAD45"/>
</linearGradient>
<path fill="url(#SVGID_28_)" d="M135.873,139.299l7.625-13.962c-0.013-0.014-0.021-0.031-0.034-0.044
	c-0.142-0.148-0.308-0.271-0.484-0.384c-0.038-0.024-0.067-0.059-0.106-0.082l-16.985-9.806l-5.412-3.114
	c-0.214-0.124-0.446-0.21-0.681-0.274c-0.007-0.002-0.015-0.001-0.023-0.003l-0.048,0.083L135.873,139.299z"/>
<linearGradient id="SVGID_29_" gradientUnits="userSpaceOnUse" x1="119.725" y1="125.4645" x2="143.498" y2="125.4645">
	<stop  offset="0" style="stop-color:#BDE4F4"/>
	<stop  offset="0.53" style="stop-color:#99C0C9"/>
	<stop  offset="1" style="stop-color:#779FA5"/>
</linearGradient>
<path fill="url(#SVGID_29_)" d="M135.873,139.299l7.625-13.962c-0.013-0.014-0.021-0.031-0.034-0.044
	c-0.142-0.148-0.308-0.271-0.484-0.384c-0.038-0.024-0.067-0.059-0.106-0.082l-16.985-9.806l-5.412-3.114
	c-0.214-0.124-0.446-0.21-0.681-0.274c-0.007-0.002-0.015-0.001-0.023-0.003l-0.048,0.083L135.873,139.299z"/>
<linearGradient id="SVGID_30_" gradientUnits="userSpaceOnUse" x1="4.49" y1="-3.5219" x2="5.127" y2="-3.5219" gradientTransform="matrix(-50.7531 103.536 -103.536 -50.7531 -2.6873 -537.0607)">
	<stop  offset="0.3" style="stop-color:#3E863D"/>
	<stop  offset="0.5" style="stop-color:#55934F"/>
	<stop  offset="0.8" style="stop-color:#5AAD45"/>
</linearGradient>
<path fill="url(#SVGID_30_)" d="M119.536,168.596l-16.012-29.164l-8.888,15.205c0.051,0.067,0.096,0.137,0.152,0.199
	c0.04,0.043,0.078,0.088,0.12,0.129c0.155,0.148,0.322,0.284,0.512,0.393l19.515,11.272l2.877,1.654
	c0.029,0.016,0.059,0.027,0.088,0.042c0.148,0.077,0.301,0.14,0.457,0.188c0.054,0.017,0.107,0.036,0.161,0.049
	c0.187,0.045,0.378,0.069,0.569,0.074c0.043,0.001,0.086,0.001,0.129,0C119.325,168.635,119.43,168.611,119.536,168.596z"/>
<path fill="#779FA5" d="M119.536,168.596l-16.012-29.164l-8.888,15.205c0.051,0.067,0.096,0.137,0.152,0.199
	c0.04,0.043,0.078,0.088,0.12,0.129c0.155,0.148,0.322,0.284,0.512,0.393l19.515,11.272l2.877,1.654
	c0.029,0.016,0.059,0.027,0.088,0.042c0.148,0.077,0.301,0.14,0.457,0.188c0.054,0.017,0.107,0.036,0.161,0.049
	c0.187,0.045,0.378,0.069,0.569,0.074c0.043,0.001,0.086,0.001,0.129,0C119.325,168.635,119.43,168.611,119.536,168.596z"/>
<linearGradient id="SVGID_31_" gradientUnits="userSpaceOnUse" x1="4.49" y1="-3.6476" x2="5.127" y2="-3.6476" gradientTransform="matrix(-50.7531 103.536 -103.536 -50.7531 -2.6873 -537.0607)">
	<stop  offset="0.3" style="stop-color:#3E863D"/>
	<stop  offset="0.5" style="stop-color:#55934F"/>
	<stop  offset="0.8" style="stop-color:#5AAD45"/>
</linearGradient>
<path fill="url(#SVGID_31_)" d="M119.741,168.569c0.003-0.001,0.006,0,0.009-0.001c0.04-0.009,0.08-0.011,0.12-0.022
	c0.014-0.004,0.026-0.012,0.04-0.016l0.001-0.001C119.854,168.545,119.798,168.557,119.741,168.569z"/>
<linearGradient id="SVGID_32_" gradientUnits="userSpaceOnUse" x1="-0.0235" y1="3.1747" x2="0.39" y2="3.1747" gradientTransform="matrix(142.4074 -105.2221 105.2221 142.4074 -227.2258 -273.9477)">
	<stop  offset="0.57" style="stop-color:#3E863D"/>
	<stop  offset="0.72" style="stop-color:#619857"/>
	<stop  offset="1" style="stop-color:#76AC64"/>
</linearGradient>
<path fill="url(#SVGID_32_)" d="M119.741,168.569c0.003-0.001,0.006,0,0.009-0.001c0.04-0.009,0.08-0.011,0.12-0.022
	c0.014-0.004,0.026-0.012,0.04-0.016l0.001-0.001C119.854,168.545,119.798,168.557,119.741,168.569z"/>
<linearGradient id="SVGID_33_" gradientUnits="userSpaceOnUse" x1="2.8226" y1="4.164" x2="3.1975" y2="4.164" gradientTransform="matrix(129.8891 0 0 129.8891 -271.1473 -386.8188)">
	<stop  offset="0.16" style="stop-color:#6BBF47"/>
	<stop  offset="0.38" style="stop-color:#79B461"/>
	<stop  offset="0.47" style="stop-color:#75AC64"/>
	<stop  offset="0.7" style="stop-color:#659E5A"/>
	<stop  offset="0.9" style="stop-color:#3E863D"/>
</linearGradient>
<path fill="url(#SVGID_33_)" d="M144.114,153.775c-0.054,0.185-0.129,0.362-0.22,0.53
	C143.986,154.137,144.059,153.961,144.114,153.775z"/>
<linearGradient id="SVGID_34_" gradientUnits="userSpaceOnUse" x1="2.8226" y1="4.1686" x2="3.1975" y2="4.1686" gradientTransform="matrix(129.8891 0 0 129.8891 -271.1473 -386.8188)">
	<stop  offset="0.16" style="stop-color:#6BBF47"/>
	<stop  offset="0.38" style="stop-color:#79B461"/>
	<stop  offset="0.47" style="stop-color:#75AC64"/>
	<stop  offset="0.7" style="stop-color:#659E5A"/>
	<stop  offset="0.9" style="stop-color:#3E863D"/>
</linearGradient>
<path fill="url(#SVGID_34_)" d="M143.835,154.411c-0.099,0.164-0.216,0.315-0.348,0.456
	C143.619,154.726,143.735,154.575,143.835,154.411z"/>
<linearGradient id="SVGID_35_" gradientUnits="userSpaceOnUse" x1="2.8226" y1="4.2232" x2="3.1975" y2="4.2232" gradientTransform="matrix(129.8891 0 0 129.8891 -271.1473 -386.8188)">
	<stop  offset="0.16" style="stop-color:#6BBF47"/>
	<stop  offset="0.38" style="stop-color:#79B461"/>
	<stop  offset="0.47" style="stop-color:#75AC64"/>
	<stop  offset="0.7" style="stop-color:#659E5A"/>
	<stop  offset="0.9" style="stop-color:#3E863D"/>
</linearGradient>
<path fill="url(#SVGID_35_)" d="M120.505,168.284c-0.187,0.108-0.386,0.183-0.589,0.243c0.205-0.06,0.406-0.135,0.593-0.243
	l22.378-12.926c0.2-0.116,0.375-0.26,0.536-0.418c-0.161,0.159-0.341,0.302-0.542,0.418L120.505,168.284z"/>
<linearGradient id="SVGID_36_" gradientUnits="userSpaceOnUse" x1="2.8226" y1="4.1605" x2="3.1975" y2="4.1605" gradientTransform="matrix(129.8891 0 0 129.8891 -271.1473 -386.8188)">
	<stop  offset="0.16" style="stop-color:#6BBF47"/>
	<stop  offset="0.38" style="stop-color:#79B461"/>
	<stop  offset="0.47" style="stop-color:#75AC64"/>
	<stop  offset="0.7" style="stop-color:#659E5A"/>
	<stop  offset="0.9" style="stop-color:#3E863D"/>
</linearGradient>
<path fill="url(#SVGID_36_)" d="M144.183,153.544v-0.048l-0.014-0.025c-0.012,0.071-0.011,0.146-0.029,0.216
	C144.153,153.638,144.174,153.593,144.183,153.544z"/>
<linearGradient id="SVGID_37_" gradientUnits="userSpaceOnUse" x1="2.8226" y1="3.8372" x2="3.1975" y2="3.8372" gradientTransform="matrix(129.8891 0 0 129.8891 -271.1473 -386.8188)">
	<stop  offset="0.16" style="stop-color:#6BBF47"/>
	<stop  offset="0.38" style="stop-color:#79B461"/>
	<stop  offset="0.47" style="stop-color:#75AC64"/>
	<stop  offset="0.7" style="stop-color:#659E5A"/>
	<stop  offset="0.9" style="stop-color:#3E863D"/>
</linearGradient>
<path fill="url(#SVGID_37_)" d="M118.894,111.565h-0.013c-0.087,0.009-0.171,0.036-0.256,0.053c0.16-0.032,0.321-0.06,0.484-0.063
	C119.037,111.556,118.965,111.559,118.894,111.565z"/>
<linearGradient id="SVGID_38_" gradientUnits="userSpaceOnUse" x1="2.8226" y1="3.8386" x2="3.1975" y2="3.8386" gradientTransform="matrix(129.8891 0 0 129.8891 -271.1473 -386.8188)">
	<stop  offset="0.16" style="stop-color:#6BBF47"/>
	<stop  offset="0.38" style="stop-color:#79B461"/>
	<stop  offset="0.47" style="stop-color:#75AC64"/>
	<stop  offset="0.7" style="stop-color:#659E5A"/>
	<stop  offset="0.9" style="stop-color:#3E863D"/>
</linearGradient>
<path fill="url(#SVGID_38_)" d="M117.891,111.871c0.161-0.084,0.326-0.154,0.496-0.204
	C118.217,111.718,118.052,111.787,117.891,111.871z"/>
<linearGradient id="SVGID_39_" gradientUnits="userSpaceOnUse" x1="2.8226" y1="3.8373" x2="3.1975" y2="3.8373" gradientTransform="matrix(129.8891 0 0 129.8891 -271.1473 -386.8188)">
	<stop  offset="0.16" style="stop-color:#6BBF47"/>
	<stop  offset="0.38" style="stop-color:#79B461"/>
	<stop  offset="0.47" style="stop-color:#75AC64"/>
	<stop  offset="0.7" style="stop-color:#659E5A"/>
	<stop  offset="0.9" style="stop-color:#3E863D"/>
</linearGradient>
<path fill="url(#SVGID_39_)" d="M119.664,111.609c-0.087-0.017-0.176-0.017-0.264-0.026c0.09,0.008,0.18,0.018,0.269,0.035
	L119.664,111.609z"/>
<linearGradient id="SVGID_40_" gradientUnits="userSpaceOnUse" x1="2.8226" y1="4.2761" x2="3.1975" y2="4.2761" gradientTransform="matrix(129.8891 0 0 129.8891 -271.1473 -386.8188)">
	<stop  offset="0.16" style="stop-color:#6BBF47"/>
	<stop  offset="0.38" style="stop-color:#79B461"/>
	<stop  offset="0.47" style="stop-color:#75AC64"/>
	<stop  offset="0.7" style="stop-color:#659E5A"/>
	<stop  offset="0.9" style="stop-color:#3E863D"/>
</linearGradient>
<path fill="url(#SVGID_40_)" d="M119.547,168.616c0.063-0.009,0.123-0.031,0.186-0.045c-0.064,0.014-0.127,0.026-0.191,0.035
	L119.547,168.616z"/>
<linearGradient id="SVGID_41_" gradientUnits="userSpaceOnUse" x1="2.8227" y1="3.9284" x2="3.1976" y2="3.9284" gradientTransform="matrix(129.8891 0 0 129.8891 -271.1473 -386.8188)">
	<stop  offset="0.16" style="stop-color:#6BBF47"/>
	<stop  offset="0.38" style="stop-color:#79B461"/>
	<stop  offset="0.47" style="stop-color:#75AC64"/>
	<stop  offset="0.7" style="stop-color:#659E5A"/>
	<stop  offset="0.9" style="stop-color:#3E863D"/>
</linearGradient>
<polygon fill="url(#SVGID_41_)" points="95.486,124.79 95.486,124.79 100.15,122.098 "/>
<linearGradient id="SVGID_42_" gradientUnits="userSpaceOnUse" x1="4.49" y1="-3.7144" x2="5.127" y2="-3.7144" gradientTransform="matrix(-50.7531 103.536 -103.536 -50.7531 -2.6873 -537.0607)">
	<stop  offset="0.3" style="stop-color:#3E863D"/>
	<stop  offset="0.5" style="stop-color:#55934F"/>
	<stop  offset="0.8" style="stop-color:#5AAD45"/>
</linearGradient>
<path fill="url(#SVGID_42_)" d="M119.91,168.529c0.002-0.001,0.004-0.001,0.006-0.001c0.202-0.06,0.402-0.135,0.589-0.243
	l22.375-12.926c0.201-0.116,0.381-0.259,0.542-0.418c0.023-0.023,0.042-0.05,0.065-0.074c0.132-0.14,0.249-0.292,0.348-0.456
	c0.021-0.034,0.039-0.07,0.059-0.105c0.091-0.168,0.166-0.345,0.22-0.53c0.009-0.03,0.019-0.059,0.027-0.089
	c0.018-0.07,0.016-0.144,0.029-0.216l-8.296-14.172L119.91,168.529z"/>
<linearGradient id="SVGID_43_" gradientUnits="userSpaceOnUse" x1="119.91" y1="153.914" x2="144.17" y2="153.914">
	<stop  offset="0" style="stop-color:#BDE4F4"/>
	<stop  offset="0.53" style="stop-color:#99C0C9"/>
	<stop  offset="1" style="stop-color:#779FA5"/>
</linearGradient>
<path fill="url(#SVGID_43_)" d="M119.91,168.529c0.002-0.001,0.004-0.001,0.006-0.001c0.202-0.06,0.402-0.135,0.589-0.243
	l22.375-12.926c0.201-0.116,0.381-0.259,0.542-0.418c0.023-0.023,0.042-0.05,0.065-0.074c0.132-0.14,0.249-0.292,0.348-0.456
	c0.021-0.034,0.039-0.07,0.059-0.105c0.091-0.168,0.166-0.345,0.22-0.53c0.009-0.03,0.019-0.059,0.027-0.089
	c0.018-0.07,0.016-0.144,0.029-0.216l-8.296-14.172L119.91,168.529z"/>
<linearGradient id="SVGID_44_" gradientUnits="userSpaceOnUse" x1="4.49" y1="-3.3604" x2="5.127" y2="-3.3604" gradientTransform="matrix(-50.7531 103.536 -103.536 -50.7531 -2.6873 -537.0607)">
	<stop  offset="0.3" style="stop-color:#3E863D"/>
	<stop  offset="0.5" style="stop-color:#55934F"/>
	<stop  offset="0.8" style="stop-color:#5AAD45"/>
</linearGradient>
<path fill="url(#SVGID_44_)" d="M119.726,111.715l-0.057-0.097c-0.089-0.017-0.179-0.026-0.269-0.035
	c-0.094-0.01-0.187-0.028-0.283-0.028h-0.002c-0.003,0-0.005,0-0.008,0c-0.163,0.002-0.323,0.031-0.484,0.063
	c-0.079,0.016-0.159,0.026-0.237,0.049c-0.171,0.05-0.336,0.12-0.496,0.204c-0.03,0.016-0.062,0.023-0.091,0.04l-17.649,10.187
	l-4.664,2.692l8.039,14.642L119.726,111.715z"/>
<path fill="#BDE4F4" d="M119.726,111.715l-0.057-0.097c-0.089-0.017-0.179-0.026-0.269-0.035c-0.094-0.01-0.187-0.028-0.283-0.028
	h-0.002c-0.003,0-0.005,0-0.008,0c-0.163,0.002-0.323,0.031-0.484,0.063c-0.079,0.016-0.159,0.026-0.237,0.049
	c-0.171,0.05-0.336,0.12-0.496,0.204c-0.03,0.016-0.062,0.023-0.091,0.04l-17.649,10.187l-4.664,2.692l8.039,14.642L119.726,111.715
	z"/>
<linearGradient id="SVGID_45_" gradientUnits="userSpaceOnUse" x1="-0.0235" y1="3.1742" x2="0.39" y2="3.1742" gradientTransform="matrix(142.4074 -105.2221 105.2221 142.4074 -227.2258 -273.9477)">
	<stop  offset="0.57" style="stop-color:#3E863D"/>
	<stop  offset="0.72" style="stop-color:#619857"/>
	<stop  offset="1" style="stop-color:#76AC64"/>
</linearGradient>
<path fill="url(#SVGID_45_)" d="M119.536,168.596l0.006,0.01c0.064-0.009,0.128-0.021,0.191-0.035
	c0.003-0.001,0.005-0.001,0.008-0.002C119.674,168.584,119.605,168.586,119.536,168.596z"/>
<linearGradient id="SVGID_46_" gradientUnits="userSpaceOnUse" x1="2.8226" y1="4.276" x2="3.1975" y2="4.276" gradientTransform="matrix(129.8891 0 0 129.8891 -271.1473 -386.8188)">
	<stop  offset="0.16" style="stop-color:#6BBF47"/>
	<stop  offset="0.38" style="stop-color:#79B461"/>
	<stop  offset="0.47" style="stop-color:#75AC64"/>
	<stop  offset="0.7" style="stop-color:#659E5A"/>
	<stop  offset="0.9" style="stop-color:#3E863D"/>
</linearGradient>
<path fill="url(#SVGID_46_)" d="M119.536,168.596l0.006,0.01c0.064-0.009,0.128-0.021,0.191-0.035
	c0.003-0.001,0.005-0.001,0.008-0.002C119.674,168.584,119.605,168.586,119.536,168.596z"/>
<linearGradient id="SVGID_47_" gradientUnits="userSpaceOnUse" x1="4.49" y1="-3.5352" x2="5.127" y2="-3.5352" gradientTransform="matrix(-50.7531 103.536 -103.536 -50.7531 -2.6873 -537.0607)">
	<stop  offset="0.3" style="stop-color:#3E863D"/>
	<stop  offset="0.5" style="stop-color:#55934F"/>
	<stop  offset="0.8" style="stop-color:#5AAD45"/>
</linearGradient>
<path fill="url(#SVGID_47_)" d="M103.525,139.432l16.012,29.164c0.068-0.01,0.137-0.012,0.205-0.027
	c0.057-0.012,0.113-0.025,0.169-0.041l15.963-29.229l-16.147-27.585L103.525,139.432z"/>
<linearGradient id="SVGID_48_" gradientUnits="userSpaceOnUse" x1="-0.0235" y1="3.0456" x2="0.39" y2="3.0456" gradientTransform="matrix(142.4074 -105.2221 105.2221 142.4074 -227.2258 -273.9477)">
	<stop  offset="0.57" style="stop-color:#3E863D"/>
	<stop  offset="0.72" style="stop-color:#619857"/>
	<stop  offset="1" style="stop-color:#76AC64"/>
</linearGradient>
<path fill="url(#SVGID_48_)" d="M103.525,139.432l16.012,29.164c0.068-0.01,0.137-0.012,0.205-0.027
	c0.057-0.012,0.113-0.025,0.169-0.041l15.963-29.229l-16.147-27.585L103.525,139.432z"/>
<linearGradient id="SVGID_49_" gradientUnits="userSpaceOnUse" x1="2.8226" y1="4.0571" x2="3.1975" y2="4.0571" gradientTransform="matrix(129.8891 0 0 129.8891 -271.1473 -386.8188)">
	<stop  offset="0" style="stop-color:#BDE4F4"/>
	<stop  offset="0.53" style="stop-color:#99C0C9"/>
	<stop  offset="1" style="stop-color:#779FA5"/>
</linearGradient>
<path fill="url(#SVGID_49_)" d="M103.525,139.432l16.012,29.164c0.068-0.01,0.137-0.012,0.205-0.027
	c0.057-0.012,0.113-0.025,0.169-0.041l15.963-29.229l-16.147-27.585L103.525,139.432z"/>
</svg>
