<?xml version="1.0" encoding="utf-8"?>
<!-- Generator: Adobe Illustrator 17.0.0, SVG Export Plug-In . SVG Version: 6.00 Build 0)  -->
<!DOCTYPE svg PUBLIC "-//W3C//DTD SVG 1.1//EN" "http://www.w3.org/Graphics/SVG/1.1/DTD/svg11.dtd">
<svg version="1.1" id="Layer_1" xmlns="http://www.w3.org/2000/svg" xmlns:xlink="http://www.w3.org/1999/xlink" x="0px" y="0px"
	 width="300px" height="300px" viewBox="0 0 300 300" enable-background="new 0 0 300 300" xml:space="preserve">
<title>HTML5 Logo</title>
<g>
	<polygon fill="#404969" points="233.643,179.124 200.093,120.876 200.093,120.876 200.093,120.876 200.092,120.876 
		166.775,179.589 166.775,179.59 200.093,237.138 200.093,237.138 	"/>
	<polygon fill="#404969" points="66.357,120.876 100.49,179.589 132.992,120.876 99.209,62.862 	"/>
	<polygon fill="#BDE4F4" points="166.076,62.862 99.209,62.862 100.706,64.042 132.904,118.504 132.992,120.876 200.092,120.876 
		200.093,120.876 	"/>
	<path fill="#BDE4F4" d="M200.093,120.876h-0.001H200.093z"/>
	<polygon fill="#BDE4F4" points="100.706,64.042 99.209,62.862 132.992,120.876 132.904,118.504 	"/>
	<polygon fill="#BDE4F4" points="166.166,181.391 166.775,179.59 166.775,179.589 100.49,179.589 133.575,237.138 200.093,237.138 
		200.093,237.138 198.276,235.852 	"/>
	<polygon fill="#BDE4F4" points="166.166,181.391 198.276,235.852 200.093,237.138 166.775,179.59 	"/>
</g>
</svg>
