<?xml version="1.0" encoding="utf-8"?>
<!-- Generator: Adobe Illustrator 17.0.0, SVG Export Plug-In . SVG Version: 6.00 Build 0)  -->
<!DOCTYPE svg PUBLIC "-//W3C//DTD SVG 1.1//EN" "http://www.w3.org/Graphics/SVG/1.1/DTD/svg11.dtd">
<svg version="1.1" id="Layer_1" xmlns="http://www.w3.org/2000/svg" xmlns:xlink="http://www.w3.org/1999/xlink" x="0px" y="0px"
	 width="300px" height="300px" viewBox="0 0 300 300" enable-background="new 0 0 300 300" xml:space="preserve">
<title>HTML5 Logo</title>
<g>
	<path fill="#404969" d="M228.301,55H71.699C62.492,55,55,62.492,55,71.699v156.602C55,237.508,62.492,245,71.699,245h156.602
		c9.208,0,16.699-7.492,16.699-16.699V71.699C245,62.492,237.508,55,228.301,55z M66.133,71.699c0-3.069,2.497-5.566,5.566-5.566
		h28.203v33.398h-33.77V71.699z M233.867,228.301c0,3.069-2.497,5.566-5.566,5.566H71.699c-3.069,0-5.566-2.497-5.566-5.566V110.664
		h167.734V228.301z M233.867,99.531H111.035V66.133h117.266c3.069,0,5.566,2.497,5.566,5.566V99.531z"/>
	<path fill="#404969" d="M217.168,77.266h-11.504c-3.075,0-5.566,2.491-5.566,5.566s2.491,5.566,5.566,5.566h11.504
		c3.075,0,5.566-2.491,5.566-5.566S220.243,77.266,217.168,77.266z"/>
	<path fill="#404969" d="M183.398,77.266h-11.133c-3.075,0-5.566,2.491-5.566,5.566s2.491,5.566,5.566,5.566h11.133
		c3.075,0,5.566-2.491,5.566-5.566S186.474,77.266,183.398,77.266z"/>
	<path fill="#404969" d="M150,77.266h-11.133c-3.075,0-5.566,2.491-5.566,5.566s2.491,5.566,5.566,5.566H150
		c3.075,0,5.566-2.491,5.566-5.566S153.075,77.266,150,77.266z"/>
	<path fill="#404969" d="M105.469,222.734c9.208,0,16.699-7.492,16.699-16.699c0-7.258-4.654-13.444-11.133-15.742v-6.894
		c0-3.069,2.497-5.566,5.566-5.566h27.832v12.461c-6.479,2.298-11.133,8.485-11.133,15.742c0,9.208,7.492,16.699,16.699,16.699
		s16.699-7.492,16.699-16.699c0-7.258-4.654-13.444-11.133-15.742v-12.461h27.832c3.069,0,5.566,2.497,5.566,5.566v6.894
		c-6.479,2.298-11.133,8.485-11.133,15.742c0,9.208,7.492,16.699,16.699,16.699s16.699-7.492,16.699-16.699
		c0-7.258-4.654-13.444-11.133-15.742v-6.894c0-9.208-7.492-16.699-16.699-16.699h-27.832v-12.09
		c6.479-2.298,11.133-8.485,11.133-15.742c0-9.208-7.492-16.699-16.699-16.699s-16.699,7.492-16.699,16.699
		c0,7.258,4.654,13.444,11.133,15.742v12.09h-27.832c-9.208,0-16.699,7.492-16.699,16.699v6.894
		c-6.479,2.298-11.133,8.485-11.133,15.742C88.77,215.243,96.261,222.734,105.469,222.734z M194.531,200.469
		c3.069,0,5.566,2.497,5.566,5.566s-2.497,5.566-5.566,5.566s-5.566-2.497-5.566-5.566S191.462,200.469,194.531,200.469z
		 M150,133.301c3.069,0,5.566,2.497,5.566,5.566s-2.497,5.566-5.566,5.566s-5.566-2.497-5.566-5.566S146.931,133.301,150,133.301z
		 M150,200.469c3.069,0,5.566,2.497,5.566,5.566s-2.497,5.566-5.566,5.566s-5.566-2.497-5.566-5.566S146.931,200.469,150,200.469z
		 M105.469,200.469c3.069,0,5.566,2.497,5.566,5.566s-2.497,5.566-5.566,5.566c-3.069,0-5.566-2.497-5.566-5.566
		S102.4,200.469,105.469,200.469z"/>
</g>
</svg>
