<?xml version="1.0" encoding="utf-8"?>
<!-- Generator: Adobe Illustrator 17.0.0, SVG Export Plug-In . SVG Version: 6.00 Build 0)  -->
<!DOCTYPE svg PUBLIC "-//W3C//DTD SVG 1.1//EN" "http://www.w3.org/Graphics/SVG/1.1/DTD/svg11.dtd">
<svg version="1.1" id="Layer_1" xmlns="http://www.w3.org/2000/svg" xmlns:xlink="http://www.w3.org/1999/xlink" x="0px" y="0px"
	 width="300px" height="300px" viewBox="0 0 300 300" enable-background="new 0 0 300 300" xml:space="preserve">
<path fill="#404969" d="M269.691,162.941l19.751-11.285l-56.202-31.918l-56.204,31.918l19.751,11.285l-19.751,11.215l19.751,11.285
	l-19.751,11.215l56.204,32.11l56.202-32.11l-19.751-11.215l19.751-11.285L269.691,162.941z M233.241,124.443l47.936,27.223
	l-47.936,27.389l-47.938-27.389L233.241,124.443z M200.918,165.3l32.323,18.467l32.323-18.467l15.613,8.867l-47.936,27.389
	l-47.938-27.389L200.918,165.3z M281.177,196.667l-47.936,27.389l-47.938-27.389l15.615-8.867l32.323,18.467l32.323-18.467
	L281.177,196.667z"/>
<circle fill="#FFFFFF" cx="88.906" cy="149.641" r="78.408"/>
<g>
	<path fill="#404969" d="M21.694,149.998c0,26.746,15.544,49.86,38.082,60.813l-32.233-88.313
		C23.795,130.902,21.694,140.202,21.694,149.998z"/>
	<path fill="#404969" d="M134.88,146.588c0-8.351-3-14.134-5.572-18.636c-3.425-5.566-6.636-10.28-6.636-15.846
		c0-6.211,4.711-11.993,11.347-11.993c0.299,0,0.583,0.038,0.876,0.054c-12.022-11.014-28.038-17.738-45.63-17.738
		c-23.606,0-44.375,12.112-56.458,30.456c1.585,0.048,3.079,0.081,4.349,0.081c7.068,0,18.008-0.858,18.008-0.858
		c3.643-0.215,4.072,5.135,0.433,5.566c0,0-3.661,0.43-7.734,0.644l24.607,73.191l14.787-44.349l-10.528-28.844
		c-3.639-0.214-7.086-0.644-7.086-0.644c-3.641-0.214-3.215-5.781,0.426-5.566c0,0,11.159,0.858,17.799,0.858
		c7.066,0,18.008-0.858,18.008-0.858c3.645-0.215,4.073,5.135,0.433,5.566c0,0-3.668,0.43-7.734,0.644l24.419,72.638l6.74-22.522
		C132.658,159.085,134.88,152.373,134.88,146.588z"/>
	<path fill="#404969" d="M90.45,155.909l-20.274,58.912c6.053,1.779,12.455,2.752,19.088,2.752c7.869,0,15.415-1.361,22.439-3.83
		c-0.181-0.289-0.346-0.596-0.481-0.931L90.45,155.909z"/>
	<path fill="#404969" d="M148.555,117.579c0.29,2.152,0.455,4.463,0.455,6.948c0,6.856-1.28,14.565-5.138,24.203l-20.64,59.675
		c20.088-11.715,33.6-33.478,33.6-58.407C156.835,138.252,153.833,127.204,148.555,117.579z"/>
	<path fill="#404969" d="M89.265,71.233c-43.432,0-78.768,35.334-78.768,78.766c0,43.437,35.336,78.769,78.768,78.769
		c43.43,0,78.771-35.333,78.771-78.769C168.035,106.567,132.695,71.233,89.265,71.233z M89.265,225.157
		c-41.44,0-75.156-33.717-75.156-75.158c0-41.44,33.715-75.153,75.156-75.153c41.439,0,75.152,33.714,75.152,75.153
		C164.417,191.44,130.704,225.157,89.265,225.157z"/>
</g>
</svg>
