<?xml version="1.0" encoding="utf-8"?>
<!-- Generator: Adobe Illustrator 17.0.0, SVG Export Plug-In . SVG Version: 6.00 Build 0)  -->
<!DOCTYPE svg PUBLIC "-//W3C//DTD SVG 1.1//EN" "http://www.w3.org/Graphics/SVG/1.1/DTD/svg11.dtd">
<svg version="1.1" id="Layer_1" xmlns="http://www.w3.org/2000/svg" xmlns:xlink="http://www.w3.org/1999/xlink" x="0px" y="0px"
	 width="300px" height="300px" viewBox="0 0 300 300" enable-background="new 0 0 300 300" xml:space="preserve">
<title>HTML5 Logo</title>
<g>
	<path fill="#404969" d="M151.192,143.433c4.033,0,7.09-0.877,9.173-2.631c2.083-1.754,3.124-4.342,3.124-7.763
		c0-3.377-1.041-5.943-3.124-7.697c-2.083-1.798-5.141-2.697-9.173-2.697h-14.159v20.789L151.192,143.433L151.192,143.433z"/>
	<path fill="#404969" d="M163.689,163.893c-2.57-2.149-6.448-3.224-11.633-3.224h-15.023v25.723h15.023
		c5.141,0,8.996-1.074,11.566-3.224c2.615-2.149,3.922-5.394,3.922-9.736C167.545,169.178,166.26,165.998,163.689,163.893z"/>
	<path fill="#404969" d="M203.445,75.173H96.555c-14.088,0-25.508,11.42-25.508,25.508v107.543c0,14.088,11.42,25.508,25.508,25.508
		h106.89c14.088,0,25.508-11.42,25.508-25.508V100.681C228.953,86.593,217.532,75.173,203.445,75.173z M183.432,196.654
		c-6.47,4.649-16.308,6.973-29.514,6.973h-42.476v-98.219h38.421c13.782,0,23.753,2.061,29.913,6.184
		c6.204,4.123,9.306,10.723,9.306,19.802c0,4.781-1.13,8.859-3.39,12.236c-2.26,3.333-5.539,5.811-9.838,7.434l0,0
		c5.495,1.579,9.749,4.495,12.763,8.75c3.013,4.254,4.52,9.473,4.52,15.657C193.137,184.944,189.902,192.006,183.432,196.654z"/>
	<path fill="#FFFFFF" d="M175.854,151.064L175.854,151.064c4.298-1.623,7.578-4.101,9.838-7.434c2.26-3.377,3.39-7.456,3.39-12.236
		c0-9.079-3.102-15.679-9.306-19.802c-6.16-4.123-16.131-6.184-29.913-6.184h-38.421v98.219h42.476
		c13.206,0,23.044-2.324,29.514-6.973s9.705-11.71,9.705-21.183c0-6.184-1.507-11.403-4.52-15.657
		C185.603,155.56,181.349,152.643,175.854,151.064z M137.034,122.644h14.159c4.033,0,7.09,0.899,9.173,2.697
		c2.083,1.754,3.124,4.32,3.124,7.697c0,3.421-1.041,6.009-3.124,7.763s-5.141,2.632-9.173,2.631l0,0h-14.159V122.644z
		 M163.623,183.168c-2.57,2.149-6.426,3.224-11.566,3.224h-15.023v-25.723h15.023c5.185,0,9.062,1.075,11.633,3.224
		c2.57,2.105,3.855,5.285,3.855,9.539C167.545,177.774,166.237,181.019,163.623,183.168z"/>
</g>
</svg>
