<?xml version="1.0" encoding="utf-8"?>
<!-- Generator: Adobe Illustrator 17.0.0, SVG Export Plug-In . SVG Version: 6.00 Build 0)  -->
<!DOCTYPE svg PUBLIC "-//W3C//DTD SVG 1.1//EN" "http://www.w3.org/Graphics/SVG/1.1/DTD/svg11.dtd">
<svg version="1.1" id="Layer_1" xmlns="http://www.w3.org/2000/svg" xmlns:xlink="http://www.w3.org/1999/xlink" x="0px" y="0px"
	 width="300px" height="300px" viewBox="0 0 300 300" enable-background="new 0 0 300 300" xml:space="preserve">
<title>HTML5 Logo</title>
<path fill="#404969" d="M39.462,186.633h7.556v-29.829l11.698,26.013c1.38,3.136,3.27,4.263,6.975,4.263
	c3.705,0,5.521-1.114,6.903-4.263l11.699-26.013v29.84h7.557v-29.791c0-2.906-1.165-4.312-3.561-5.038
	c-5.74-1.792-9.591-0.242-11.334,3.633l-11.48,25.673l-11.119-25.684c-1.671-3.875-5.594-5.425-11.334-3.633
	c-2.399,0.727-3.561,2.132-3.561,5.038L39.462,186.633L39.462,186.633z M98.132,162.346h7.554v16.441
	c-0.071,0.894,0.287,2.99,4.426,3.054c2.112,0.034,16.3,0,16.432,0v-19.577h7.571c0.034,0-0.008,26.693-0.007,26.807
	c0.041,6.583-8.169,8.013-11.952,8.124h-23.86v-5.085l23.902-0.001c4.863-0.515,4.289-2.931,4.289-3.745v-1.982h-16.06
	c-7.472-0.067-12.23-3.33-12.289-7.081c-0.006-0.336,0.161-16.794-0.004-16.956L98.132,162.346z"/>
<path fill="#404969" d="M139.94,186.633h21.725c2.542,0,5.014-0.532,6.977-1.454c3.27-1.501,4.868-3.536,4.868-6.2v-5.521
	c0-2.181-1.817-4.214-5.376-5.571c-1.889-0.728-4.214-1.114-6.467-1.114h-9.156c-3.051,0-4.504-0.921-4.867-2.954
	c-0.073-0.242-0.073-0.448-0.073-0.679v-3.438c0-0.194,0-0.389,0.073-0.631c0.363-1.55,1.163-1.987,3.85-2.24
	c0.218,0,0.508-0.049,0.728-0.049h21.579v-5.036h-21.216c-3.052,0-4.65,0.194-6.104,0.629c-4.509,1.406-6.471,3.645-6.471,7.521
	v4.408c0,3.391,3.853,6.298,10.317,6.975c0.728,0.048,1.454,0.096,2.179,0.096h7.848c0.291,0,0.582,0,0.8,0.049
	c2.397,0.194,3.416,0.629,4.142,1.501c0.448,0.448,0.582,0.874,0.582,1.344v4.408c0,0.533-0.363,1.212-1.09,1.792
	c-0.654,0.582-1.744,0.969-3.197,1.066c-0.291,0-0.508,0.048-0.799,0.048H139.94v5.038V186.633z M220.649,177.866
	c0,5.183,3.85,8.089,11.625,8.671c0.725,0.056,1.452,0.088,2.179,0.096h19.691v-5.038h-19.837c-4.432,0-6.104-1.114-6.104-3.779
	v-26.061h-7.556v26.108L220.649,177.866z M178.331,178.128V160.17c0-4.563,3.203-7.33,9.538-8.204
	c0.676-0.096,1.357-0.145,2.039-0.146h14.343c0.707,0,1.412,0.049,2.112,0.146c6.334,0.874,9.538,3.64,9.538,8.204v17.958
	c0,3.701-1.361,5.683-4.497,6.974l7.443,6.72h-8.774l-6.022-5.436l-6.062,0.384h-8.082c-1.383,0-2.839-0.195-4.442-0.632
	C180.649,184.828,178.331,182.303,178.331,178.128L178.331,178.128L178.331,178.128z M186.488,177.68
	c0,0.243,0.073,0.485,0.146,0.777c0.448,2.088,2.402,3.252,5.376,3.252h6.865l-6.305-5.693h8.774l5.488,4.965
	c1.014-0.54,1.68-1.366,1.904-2.427c0.073-0.242,0.073-0.485,0.073-0.728v-17.219c0-0.194,0-0.448-0.073-0.68
	c-0.448-1.941-2.403-3.057-5.315-3.057h-11.397c-3.36,0-5.533,1.456-5.533,3.737v17.086L186.488,177.68z"/>
<g>
	<path fill="#404969" d="M260.793,143.399c-4.644-0.125-8.194,0.306-11.226,1.585c-0.862,0.364-2.237,0.373-2.378,1.454
		c0.474,0.496,0.549,1.238,0.924,1.848c0.725,1.173,1.949,2.744,3.038,3.566c1.192,0.899,2.419,1.862,3.699,2.643
		c2.274,1.387,4.811,2.178,7,3.566c1.29,0.818,2.571,1.848,3.83,2.773c0.622,0.457,1.042,1.167,1.848,1.453v-0.132
		c-0.426-0.541-0.534-1.285-0.924-1.848l-1.717-1.717c-1.68-2.24-3.81-4.185-6.076-5.813c-1.806-1.297-5.851-3.049-6.604-5.152
		l-0.132-0.132c1.281-0.146,2.781-0.608,3.965-0.924c1.986-0.532,3.761-0.395,5.813-0.924l2.774-0.793v-0.529
		c-1.037-1.064-1.776-2.472-2.906-3.434c-2.957-2.52-6.186-5.034-9.508-7.134c-1.843-1.165-4.121-1.92-6.076-2.906
		c-0.657-0.332-1.812-0.504-2.246-1.057c-1.026-1.308-1.585-2.968-2.377-4.48c-1.658-3.192-3.286-6.679-4.755-10.038
		c-1.002-2.29-1.658-4.549-2.905-6.604c-5.997-9.86-12.454-15.812-22.453-21.66c-2.128-1.243-4.689-1.736-7.397-2.378l-4.359-0.264
		c-0.887-0.37-1.81-1.456-2.643-1.982c-3.313-2.094-11.81-6.645-14.264-0.672c-1.549,3.778,2.315,7.463,3.698,9.379
		c0.97,1.344,2.213,2.848,2.905,4.359c0.456,0.992,0.535,1.988,0.925,3.038c0.96,2.576,1.795,5.402,3.037,7.793
		c0.627,1.21,1.319,2.484,2.113,3.566c0.487,0.664,1.322,0.956,1.453,1.982c-0.815,1.142-0.862,2.912-1.322,4.359
		c-2.064,6.509-1.286,14.599,1.717,19.417c0.922,1.478,3.091,4.65,6.076,3.434c2.609-1.064,2.016-4.357,2.774-7.264
		c0.168-0.661,0.065-1.142,0.396-1.585v0.132l2.378,4.754c1.758,2.833,4.883,5.796,7.528,7.795c1.372,1.036,2.464,2.828,4.227,3.434
		v-0.132h-0.132c-0.344-0.538-0.881-0.758-1.322-1.187c-1.034-1.014-2.184-2.274-3.038-3.434c-2.408-3.268-4.534-6.843-6.471-10.567
		c-0.925-1.777-1.73-3.738-2.509-5.547c-0.3-0.698-0.297-1.752-0.924-2.113c-0.855,1.326-2.113,2.397-2.774,3.962
		c-1.057,2.502-1.194,5.553-1.585,8.718c-0.232,0.083-0.129,0.026-0.264,0.132c-1.839-0.444-2.486-2.337-3.169-3.962
		c-1.729-4.11-2.05-10.725-0.529-15.453c0.392-1.223,2.173-5.078,1.453-6.208c-0.344-1.128-1.478-1.792-2.113-2.643
		c-0.784-1.064-1.57-2.468-2.113-3.698c-1.416-3.203-2.076-6.798-3.566-10.038c-0.712-1.548-1.915-3.113-2.905-4.48
		c-1.095-1.523-2.322-2.648-3.169-4.48c-0.302-0.655-0.712-1.702-0.264-2.378c0.087-0.396,0.397-0.706,0.793-0.793
		c0.766-0.59,2.901,0.196,3.698,0.529c2.117,0.88,3.886,1.718,5.68,2.906c0.862,0.56,1.733,1.675,2.773,1.982h1.187
		c1.859,0.428,3.942,0.134,5.678,0.661c3.071,0.933,5.822,2.386,8.321,3.962c7.613,4.807,13.837,11.65,18.095,19.823
		c0.685,1.314,0.981,2.569,1.585,3.962c1.217,2.8,2.751,5.704,3.962,8.452c1.21,2.744,2.386,5.51,4.095,7.793
		c0.898,1.198,4.368,1.843,5.944,2.509c1.105,0.467,2.915,0.954,3.962,1.585c1.999,1.206,3.937,2.643,5.813,3.965
		c0.937,0.661,3.819,2.109,3.962,3.302L260.793,143.399z"/>
	<path fill="#404969" d="M201.755,93.077c-0.969-0.018-1.653,0.105-2.378,0.264v0.132h0.132c0.461,0.95,1.277,1.56,1.848,2.378
		l1.322,2.773l0.132-0.132c0.818-0.577,1.193-1.499,1.187-2.906c-0.328-0.345-0.376-0.777-0.661-1.189
		c-0.377-0.549-1.12-0.86-1.585-1.322L201.755,93.077z"/>
</g>
<path fill="#404969" d="M257.691,181.452c0,3.326,2.629,5.568,5.568,5.568s5.568-2.242,5.568-5.568c0-3.326-2.629-5.568-5.568-5.568
	S257.691,178.126,257.691,181.452z M267.581,181.452c0,2.524-1.93,4.41-4.323,4.41c-2.419,0-4.323-1.886-4.323-4.41
	s1.902-4.41,4.323-4.41C265.649,177.042,267.581,178.928,267.581,181.452z M264.758,184.631h1.247l-1.826-2.791
	c0.98-0.104,1.721-0.58,1.721-1.738c0-1.292-0.818-1.826-2.39-1.826h-2.481v6.356h1.07v-2.747h0.995L264.758,184.631
	L264.758,184.631z M262.1,180.991v-1.826h1.232c0.638,0,1.411,0.119,1.411,0.862c0,0.89-0.698,0.965-1.501,0.965L262.1,180.991
	L262.1,180.991z"/>
</svg>
