<?xml version="1.0" encoding="utf-8"?>
<!-- Generator: Adobe Illustrator 17.0.0, SVG Export Plug-In . SVG Version: 6.00 Build 0)  -->
<!DOCTYPE svg PUBLIC "-//W3C//DTD SVG 1.1//EN" "http://www.w3.org/Graphics/SVG/1.1/DTD/svg11.dtd">
<svg version="1.1" id="Layer_1" xmlns="http://www.w3.org/2000/svg" xmlns:xlink="http://www.w3.org/1999/xlink" x="0px" y="0px"
	 width="300px" height="300px" viewBox="0 0 300 300" enable-background="new 0 0 300 300" xml:space="preserve">
<g>
	<polygon fill="#404969" points="200.652,172.08 200.653,172.08 200.653,172.08 	"/>
	<path fill="#404969" d="M122.057,139.617L122.057,139.617L122.057,139.617z"/>
	<path fill="#404969" d="M126.329,158.126c-26.198,7.404,15.947,22.497,49.264,8.258c-5.41-1.993-9.397-4.556-9.397-4.556
		c-14.808,2.848-21.927,3.132-35.311,1.424C119.779,162.113,126.329,158.126,126.329,158.126z"/>
	<path fill="#404969" d="M171.607,143.888c-19.649,3.987-31.039,3.702-45.563,2.278c-11.105-1.139-3.988-6.548-3.987-6.549
		c-28.761,9.682,16.232,20.503,56.384,8.543C174.169,146.736,171.607,143.888,171.607,143.888z"/>
	<path fill="#404969" d="M94.15,184.894c68.058,11.106,124.156-4.84,106.503-12.814c0.011,0.009,4.829,3.99-5.411,7.119
		c-19.079,5.695-80.019,7.404-97.105,0c-5.98-2.563,5.411-6.265,9.112-6.834c3.702-0.854,5.695-0.854,5.695-0.854
		C106.395,166.954,69.375,180.907,94.15,184.894z"/>
	<path fill="#404969" d="M177.302,130.504c3.133-1.994,7.689-3.987,7.689-3.987s-12.815,2.278-25.629,3.417
		c-15.662,1.139-32.463,1.424-41.006,0.285c-19.93-2.562,11.095-9.964,11.105-9.967c-0.001,0-12.245-0.854-27.052,6.265
		C85.038,135.06,145.693,138.762,177.302,130.504z"/>
	<path fill="#404969" d="M184.991,151.292L184.991,151.292c-0.285,0.57-0.569,0.854-0.569,0.854
		c42.715-11.106,26.768-39.582,6.549-32.463c-1.993,0.57-2.848,2.278-2.848,2.278s1.139-0.57,3.702-1.139
		C202.077,118.829,216.884,134.775,184.991,151.292z"/>
	<polygon fill="#404969" points="129.461,120.252 129.461,120.253 129.461,120.253 	"/>
	<path fill="#404969" d="M186.13,190.589c-26.199,4.841-58.662,4.272-77.741,1.139c0,0,3.987,3.417,24.205,4.556l0,0
		c30.755,1.993,77.741-1.139,78.88-15.662C211.474,180.623,209.196,186.318,186.13,190.589z"/>
	<path fill="#404969" d="M156.514,108.008L156.514,108.008c8.258,9.397-2.278,17.94-2.278,17.94s21.073-10.821,11.391-24.205
		c-8.828-12.814-15.662-19.079,21.357-40.437C186.984,61.306,128.607,75.829,156.514,108.008z"/>
	<path fill="#404969" d="M148.825,119.968c-6.265-14.238-27.622-26.768,0-48.695c34.457-27.053,16.801-44.993,16.801-44.993l0,0
		c7.119,28.192-25.059,36.735-36.735,54.39C120.918,92.63,132.594,105.445,148.825,119.968z"/>
</g>
<g>
	<path fill="#404969" d="M85.711,244.923l4.344-4.837c1.793,1.97,3.54,3.137,5.734,3.137c2.599,0,4.211-1.569,4.211-5.198V217.82
		h7.078v20.518c0,3.717-1.074,6.497-2.956,8.379c-1.926,1.926-4.749,2.911-8.153,2.911
		C91.086,249.629,87.862,247.476,85.711,244.923z"/>
	<path fill="#404969" d="M114.767,217.821h12.231c9.856,0,16.665,6.767,16.665,15.59v0.091c0,8.824-6.808,15.678-16.665,15.678
		h-12.231C114.767,249.18,114.767,217.821,114.767,217.821z M126.998,242.953c5.645,0,9.453-3.808,9.453-9.364v-0.088
		c0-5.555-3.808-9.455-9.453-9.455h-5.331v18.906L126.998,242.953L126.998,242.953z"/>
	<path fill="#404969" d="M150.021,217.821h14.56c3.584,0,6.407,0.985,8.198,2.78c1.434,1.434,2.15,3.181,2.15,5.329v0.091
		c0,3.538-1.882,5.508-4.122,6.763c3.629,1.39,5.869,3.495,5.869,7.704v0.091c0,5.734-4.66,8.601-11.737,8.601H150.02v-31.359
		H150.021z M163.101,230.5c3.048,0,4.974-0.985,4.974-3.316v-0.091c0-2.061-1.612-3.225-4.525-3.225h-6.808v6.632H163.101z
		 M164.94,243.132c3.046,0,4.882-1.076,4.882-3.403v-0.091c0-2.105-1.569-3.403-5.107-3.403h-7.974v6.898L164.94,243.132
		L164.94,243.132z"/>
	<path fill="#404969" d="M181.061,233.59v-0.088c0-8.915,6.719-16.218,16.351-16.218c5.913,0,9.453,1.97,12.364,4.837l-4.39,5.063
		c-2.418-2.196-4.882-3.538-8.018-3.538c-5.287,0-9.096,4.388-9.096,9.765v0.091c0,5.373,3.719,9.852,9.096,9.852
		c3.584,0,5.778-1.434,8.242-3.673l4.39,4.436c-3.225,3.451-6.808,5.599-12.856,5.599
		C187.915,249.716,181.061,242.596,181.061,233.59z"/>
</g>
</svg>
