<?xml version="1.0" encoding="utf-8"?>
<!-- Generator: Adobe Illustrator 17.0.0, SVG Export Plug-In . SVG Version: 6.00 Build 0)  -->
<!DOCTYPE svg PUBLIC "-//W3C//DTD SVG 1.1//EN" "http://www.w3.org/Graphics/SVG/1.1/DTD/svg11.dtd">
<svg version="1.1" id="Layer_1" xmlns="http://www.w3.org/2000/svg" xmlns:xlink="http://www.w3.org/1999/xlink" x="0px" y="0px"
	 width="300px" height="300px" viewBox="0 0 300 300" enable-background="new 0 0 300 300" xml:space="preserve">
<title>HTML5 Logo</title>
<g>
	<path fill="none" d="M241.751,218.917c1,1,1.501,1.875,1.876,2.7h0.017c-0.406-0.997-0.999-1.908-1.749-2.681
		c-0.673-0.777-2.358-2.422-5.071-3.685C239.453,216.519,241.09,218.154,241.751,218.917z"/>
	<path fill="none" d="M162.524,156.012c0.566,0.858,1.148,1.698,1.742,2.526C163.671,157.711,163.092,156.868,162.524,156.012z"/>
	<path fill="none" d="M164.758,159.22c7.251,9.882,16.456,17.659,26.723,23.709c1.302-0.74,2.583-1.517,3.84-2.33l3.063,3.3
		l0.007-0.01l-3.114-3.342c-1.248,0.805-2.513,1.582-3.802,2.314C181.218,176.814,172.008,169.065,164.758,159.22z"/>
	<path fill="none" d="M212.303,100.937c0.063,0,0.125,0.063,0.251,0.063C212.491,101,212.366,100.937,212.303,100.937z"/>
	<polygon fill="none" points="207.002,193.186 207.031,193.163 201.955,187.714 201.933,187.724 	"/>
	<polygon fill="none" points="226.091,213.755 226.207,213.744 210.273,196.643 210.222,196.656 	"/>
	<path fill="none" d="M243.627,221.617H226.71c-39.013-20.384-73.304-34.735-109.667-37.88c0.063-5.036,1.002-10.825,2.706-17.176
		l-3.333-0.877c-0.003,0.011-0.005,0.022-0.008,0.033l3.303,0.869c-1.704,6.352-2.643,12.077-2.706,17.176
		c36.364,3.145,70.654,17.496,109.667,37.88h16.982c-0.003-0.007-0.007-0.013-0.009-0.02l-0.016,0.001
		C243.63,221.621,243.628,221.619,243.627,221.617z"/>
	<path fill="none" d="M154.165,87.789c1.754,9.628,4.974,15.66,11.889,18.561c6.105-1.737,13.158-2.819,20.399-3.223l-0.028-0.06
		c-7.226,0.406-14.265,1.487-20.358,3.221c-6.916-2.9-10.135-8.933-11.889-18.561c-2.414,9.551-2.882,22.244-0.506,35.324
		l0.003,0.002C151.313,109.993,151.779,97.325,154.165,87.789z"/>
	<path fill="none" d="M112.973,151.449l-0.058-0.029c-2.575,1.539-5.1,3.141-7.559,4.798l0.013,0.046
		C107.842,154.601,110.382,152.992,112.973,151.449z"/>
	<path fill="none" d="M159.124,150.396c-0.044-0.081-0.092-0.16-0.136-0.241C159.033,150.236,159.08,150.315,159.124,150.396z"/>
	<path fill="none" d="M217.083,105.911c6.352-4.654,8.807-11.701,10.192-17.872c1.629,7.172,1.378,22.714,1.441,22.714h0.013
		c0.117,5.734-0.338,11.249-1.298,16.508c0.968-5.278,1.429-10.814,1.311-16.571h-0.013c-0.063,0,0.188-15.541-1.441-22.714
		c-1.384,6.17-3.84,13.217-10.192,17.872c-6.253-1.731-13.441-2.675-20.781-2.906l-0.018,0.062
		C203.638,103.235,210.829,104.179,217.083,105.911z"/>
	<path fill="none" d="M124.368,145.238l-0.062-0.042c-1.682,0.836-3.355,1.704-5.014,2.6l0.032,0.055
		C120.993,146.95,122.676,146.078,124.368,145.238z"/>
	<path fill="none" d="M152.513,134.613c-0.003-0.011-0.007-0.021-0.01-0.032c-5.522,1.366-11.225,3.249-16.941,5.551l0.021,0.061
		C141.305,137.885,147.008,135.988,152.513,134.613z"/>
	<path fill="none" d="M93.202,183.938c-3.222-3.208-6.266-6.59-9.121-10.129c4.549-4.737,9.916-9.35,15.794-13.681l-0.03-0.02
		c-5.874,4.341-11.242,8.968-15.808,13.72c2.857,3.541,5.904,6.924,9.127,10.135c2.946-0.549,5.936-0.823,8.933-0.821
		c3.82-0.001,7.639,0.124,11.451,0.376c0-0.009,0.001-0.018,0.001-0.027c-3.8-0.25-7.607-0.376-11.415-0.374
		C99.138,183.114,96.148,183.389,93.202,183.938z"/>
	<path fill="none" d="M65.063,217.721h0.026c-0.316-3.581,0.232-7.46,1.51-11.237C65.313,210.257,64.766,214.135,65.063,217.721z"/>
	<path fill="none" d="M67.085,205.144c-0.109,0.28-0.207,0.563-0.308,0.845C66.878,205.707,66.977,205.424,67.085,205.144z"/>
	<path fill="none" d="M81.689,176.252c-16.55,17.809-27.75,35.368-30.582,41.469h0.057c2.916-6.203,14.074-23.708,30.519-41.343l0,0
		l0.006-0.006c-0.002,0.002-0.004,0.004-0.006,0.007c2.384,2.929,4.895,5.751,7.523,8.463c0.032-0.009,0.062-0.022,0.094-0.031
		C86.531,181.914,83.956,179.083,81.689,176.252z"/>
	<path fill="none" d="M157.103,146.448c0.028,0.059,0.056,0.118,0.084,0.176C157.159,146.566,157.131,146.507,157.103,146.448z"/>
	<path fill="#404969" d="M135.583,140.194l-0.021-0.061c-3.764,1.516-7.532,3.212-11.256,5.063l0.062,0.042
		C128.082,143.395,131.836,141.706,135.583,140.194z"/>
	<path fill="#404969" d="M231.685,149.196v-2.518h-7.098c-0.393,0.849-0.799,1.688-1.219,2.518H231.685z"/>
	<path fill="#404969" d="M119.323,147.85l-0.032-0.055c-2.152,1.162-4.281,2.371-6.377,3.624l0.058,0.029
		C115.061,150.205,117.181,149.005,119.323,147.85z"/>
	<path fill="#404969" d="M231.685,155.173v-2.518h-10.161c-0.482,0.85-0.975,1.691-1.484,2.518H231.685z"/>
	<path fill="#404969" d="M153.675,123.052l-0.003-0.002c0.177,0.973,0.365,1.947,0.574,2.924
		C154.038,124.998,153.851,124.024,153.675,123.052z"/>
	<path fill="#404969" d="M160.686,153.104c0.23,0.384,0.463,0.766,0.698,1.145C161.148,153.871,160.917,153.488,160.686,153.104z"/>
	<path fill="#404969" d="M196.296,103.005l0.018-0.062c-3.291-0.103-6.607-0.061-9.889,0.124l0.028,0.06
		C189.721,102.944,193.021,102.902,196.296,103.005z"/>
	<polygon fill="#404969" points="210.222,196.656 210.273,196.643 207.031,193.163 207.002,193.186 	"/>
	<polygon fill="#404969" points="201.933,187.724 201.955,187.714 198.391,183.889 198.384,183.899 	"/>
	<path fill="#404969" d="M105.368,156.263l-0.013-0.046c-1.879,1.267-3.718,2.565-5.51,3.889l0.03,0.02
		C101.662,158.811,103.495,157.522,105.368,156.263z"/>
	<polygon fill="#404969" points="201.933,187.724 198.384,183.899 193.298,191.674 	"/>
	<path fill="#404969" d="M141.079,156.501l-5.496-16.307c-3.747,1.512-7.501,3.201-11.215,5.044L141.079,156.501z"/>
	<path fill="#404969" d="M160.686,153.104c-0.091-0.151-0.185-0.298-0.274-0.45h-10.775v2.518h12.336
		c-0.197-0.306-0.394-0.613-0.588-0.923C161.149,153.871,160.916,153.489,160.686,153.104z"/>
	<polygon fill="#404969" points="210.222,196.656 207.002,193.186 198.585,199.667 	"/>
	<path fill="#404969" d="M149.636,146.678v2.518h8.847c-0.436-0.827-0.859-1.667-1.27-2.518H149.636z"/>
	<path fill="#404969" d="M107.979,165.684l-2.611-9.421c-1.873,1.259-3.707,2.548-5.493,3.864L107.979,165.684z"/>
	<path fill="#404969" d="M124.905,157.503l-5.582-9.652c-2.142,1.155-4.263,2.355-6.351,3.598L124.905,157.503z"/>
	<path fill="#404969" d="M169.895,146.678h-8.527c0.417,0.846,0.849,1.685,1.297,2.518h7.23V146.678z"/>
	<path fill="#404969" d="M153.675,123.052c0.176,0.972,0.363,1.946,0.571,2.922c0.198,0.927,0.41,1.854,0.638,2.782l8.409-0.569
		L153.675,123.052z"/>
	<path fill="#404969" d="M169.895,155.173v-2.518h-5.252c0.515,0.849,1.046,1.688,1.597,2.518H169.895z"/>
	<path fill="#404969" d="M211.426,152.654v2.518h4.86c0.544-0.825,1.068-1.667,1.582-2.518H211.426z"/>
	<path fill="#404969" d="M201.93,129.696h-17.997c1.253-5.725,1.503-11.2-0.376-14.408c-0.942-1.752-2.791-2.823-4.78-2.769
		c-7.423,0-10.38,7.617-10.505,7.931l2.067,0.814c0.063-0.257,2.518-6.483,8.369-6.483c1.265,0,2.205,0.501,2.831,1.629
		c1.503,2.587,1.253,7.743,0,13.155h-10.254v2.268h32.968l9.747,0.2v-2.268h-9.816c1.829-4.278,4.347-8.118,13.405-8.118v-2.268
		C209.29,119.379,204.323,122.649,201.93,129.696z"/>
	<path fill="#404969" d="M219.044,138.873l4.688,1.686c0.422-1.116,0.824-2.245,1.197-3.392L219.044,138.873z"/>
	<path fill="#404969" d="M220.491,130.26l6.101,0.939c0.299-1.261,0.576-2.534,0.816-3.827L220.491,130.26z"/>
	<path fill="#404969" d="M211.426,146.678v2.518h8.406c0.44-0.829,0.867-1.668,1.279-2.518H211.426z"/>
	<path fill="#404969" d="M196.296,103.005c-3.276-0.103-6.576-0.061-9.843,0.122l5.974,13.102L196.296,103.005z"/>
	<path fill="#404969" d="M156.404,134.189c0.349,1.123,0.721,2.242,1.116,3.358l4.325-1.179L156.404,134.189z"/>
	<path fill="#404969" d="M191.92,178.206c-11.15-5.566-19.56-13.704-25.722-23.033h-4.216c0.18,0.281,0.36,0.562,0.543,0.839
		c0.567,0.856,1.147,1.699,1.742,2.526c0.163,0.228,0.326,0.456,0.491,0.682c7.251,9.845,16.46,17.594,26.717,23.64
		c1.289-0.731,2.554-1.508,3.802-2.314l-0.062-0.067l1.754-2.268c0,0,0.251,0.264,0.696,0.733
		c8.829-6.167,16.497-14.212,22.375-23.773h-3.726C209.958,164.837,201.537,172.678,191.92,178.206z"/>
	<path fill="#404969" d="M164.606,152.654c-0.688-1.139-1.347-2.291-1.972-3.458h-4.135c0.166,0.316,0.319,0.646,0.489,0.958
		c0.044,0.081,0.091,0.16,0.136,0.241c0.42,0.768,0.862,1.512,1.302,2.259H164.606z"/>
	<path fill="#404969" d="M153.069,134.438c-0.188,0.045-0.378,0.097-0.566,0.143c0.003,0.011,0.007,0.021,0.01,0.032
		c0.008-0.002,0.016-0.004,0.023-0.006c1.264,4.189,2.797,8.13,4.566,11.841c0.028,0.059,0.056,0.118,0.084,0.176
		c0.009,0.018,0.019,0.036,0.027,0.054h4.128c-1.466-2.984-2.741-6.037-3.833-9.129l-0.951,0.259l-1.002-3.959l0.839,0.336
		c-0.559-1.805-1.069-3.616-1.512-5.429l-0.842,0.057l-1.002-6.101l0.634,0.338c-2.376-13.08-1.908-25.773,0.506-35.324
		c1.754,9.628,4.974,15.66,11.889,18.561c6.094-1.734,13.132-2.815,20.358-3.221l-0.482-1.058l10.699-0.188l-0.328,1.122
		c7.34,0.231,14.528,1.175,20.781,2.906c6.352-4.654,8.807-11.701,10.192-17.872c1.629,7.172,1.378,22.714,1.441,22.714h0.013
		c0.118,5.757-0.342,11.292-1.311,16.571c-0.007,0.037-0.015,0.074-0.022,0.111l1.515-0.632l-1.51,4.585l-0.818-0.126
		c-0.48,2.03-1.03,4.022-1.659,5.967l0.592-0.172l-1.259,3.758l-0.527-0.189c-0.789,2.094-1.659,4.135-2.613,6.115h3.459
		c5.262-11.36,8.182-24.394,7.919-38.631h-0.006c0-3.903-1.253-20.446-3.458-24.982c-6.039,2.33-17.114,9.753-19.632,17.427
		c-12.388-1.734-24.966-1.586-37.31,0.438c-1.879-8.244-11.889-14.533-19.381-18.06c-3.145,5.35-4.529,17.678-4.216,26.435h-0.063
		c0.298,7.941,1.378,15.232,3.122,21.928c0.252-0.063,0.504-0.131,0.756-0.192L153.069,134.438z M212.554,101
		c-0.125,0-0.188-0.063-0.251-0.063C212.366,100.937,212.491,101,212.554,101z M211.426,100.812
		c-0.188-0.063-0.438-0.063-0.626-0.125C210.988,100.687,211.176,100.749,211.426,100.812z"/>
	<path fill="#404969" d="M210.8,100.687c0.188,0.063,0.438,0.063,0.626,0.125C211.176,100.749,210.988,100.687,210.8,100.687z"/>
	<path fill="#404969" d="M217.893,152.654h3.631c0.641-1.132,1.253-2.287,1.844-3.458h-3.513
		C219.231,150.373,218.573,151.523,217.893,152.654z"/>
	<path fill="#404969" d="M158.483,149.196c0.168,0.319,0.333,0.643,0.505,0.958c-0.17-0.313-0.323-0.642-0.489-0.958H158.483z"/>
	<path fill="#404969" d="M157.215,146.678c-0.009-0.018-0.019-0.035-0.027-0.054C157.197,146.642,157.205,146.66,157.215,146.678
		L157.215,146.678z"/>
	<path fill="#404969" d="M152.537,134.607c-0.008,0.002-0.016,0.004-0.023,0.006c1.269,4.187,2.813,8.124,4.59,11.835
		C155.334,142.738,153.801,138.796,152.537,134.607z"/>
	<path fill="#404969" d="M159.124,150.396c0.419,0.763,0.848,1.517,1.288,2.259h0.015
		C159.986,151.908,159.544,151.163,159.124,150.396z"/>
	<path fill="#404969" d="M164.267,158.538c0.164,0.227,0.325,0.457,0.491,0.682C164.592,158.995,164.43,158.766,164.267,158.538z"/>
	<path fill="#404969" d="M162.524,156.012c-0.183-0.277-0.363-0.559-0.543-0.839h-0.009
		C162.154,155.455,162.339,155.733,162.524,156.012z"/>
	<path fill="#404969" d="M164.643,152.654c-0.69-1.138-1.35-2.291-1.978-3.458h-0.031c0.626,1.167,1.284,2.319,1.972,3.458H164.643z
		"/>
	<path fill="#404969" d="M191.932,178.143c-11.125-5.553-19.528-13.667-25.692-22.971h-0.043
		c6.162,9.33,14.572,17.468,25.722,23.033c9.618-5.528,18.039-13.369,24.394-23.033h-0.028
		C209.936,164.808,201.529,172.627,191.932,178.143z"/>
	<path fill="#404969" d="M217.868,152.654h0.025c0.68-1.131,1.338-2.281,1.962-3.458h-0.022
		C219.208,150.373,218.549,151.523,217.868,152.654z"/>
	<path fill="#404969" d="M205.763,143.033c-2.643-3.965-3.52-7.298-2.393-11.138h-2.268c-0.814,2.518-0.501,6.352,1.503,9.691
		h-22.902c1.529-3.104,2.752-6.349,3.652-9.691h-2.33c-1.065,3.715-2.518,7.36-4.153,10.254l-0.501,0.94l12.842,8.056l-7.235,4.78
		l1.253,1.879l8.056-5.35l8.745,5.663l1.253-1.879l-8.056-4.974c4.168-2.789,8.363-5.537,12.585-8.244L205.763,143.033z
		 M191.231,149.829l-9.503-5.976h18.561L191.231,149.829z"/>
	<path fill="#404969" d="M221.111,146.678h0.017c0.955-1.98,1.824-4.022,2.613-6.115l-0.01-0.004
		C222.94,142.654,222.069,144.698,221.111,146.678z"/>
	<path fill="#404969" d="M157.52,137.546l-0.011,0.003c1.092,3.092,2.368,6.145,3.833,9.129h0.026
		C159.897,143.693,158.617,140.64,157.52,137.546z"/>
	<path fill="#404969" d="M154.883,128.756L154.883,128.756c0.442,1.813,0.953,3.624,1.511,5.429l0.009,0.004
		C155.842,132.382,155.329,130.57,154.883,128.756z"/>
	<path fill="#404969" d="M227.408,127.372c0.007-0.037,0.015-0.074,0.022-0.111C227.423,127.298,227.414,127.335,227.408,127.372
		L227.408,127.372z"/>
	<path fill="#404969" d="M224.928,137.168l0.007-0.002c0.629-1.945,1.179-3.936,1.659-5.967h-0.002
		C226.11,133.229,225.559,135.222,224.928,137.168z"/>
	<path fill="#404969" d="M227.413,131.325l1.51-4.585l-1.515,0.632c-0.238,1.293-0.515,2.566-0.813,3.827L227.413,131.325z"/>
	<path fill="#404969" d="M155.556,133.849l1.002,3.959l0.951-0.259c-0.395-1.118-0.766-2.239-1.114-3.364L155.556,133.849z"/>
	<path fill="#404969" d="M224.268,140.752l1.259-3.758l-0.592,0.172c-0.372,1.149-0.773,2.28-1.194,3.398L224.268,140.752z"/>
	<path fill="#404969" d="M219.855,149.196h3.513c0.419-0.83,0.825-1.669,1.219-2.518h-3.459
		C220.718,147.528,220.294,148.368,219.855,149.196z"/>
	<path fill="#404969" d="M216.314,155.173h3.726c0.509-0.828,1.002-1.668,1.484-2.518h-3.631
		C217.381,153.506,216.857,154.347,216.314,155.173z"/>
	<path fill="#404969" d="M196.315,102.942l0.328-1.122l-10.699,0.188l0.482,1.058C189.708,102.881,193.024,102.839,196.315,102.942z
		"/>
	<path fill="#404969" d="M153.672,123.05l-0.634-0.338l1.002,6.101l0.842-0.057c-0.227-0.928-0.44-1.855-0.637-2.782
		C154.037,124.997,153.848,124.023,153.672,123.05z"/>
	<path fill="#404969" d="M160.427,152.654c0.088,0.149,0.171,0.302,0.259,0.45c0.231,0.384,0.462,0.767,0.698,1.145
		c0.195,0.312,0.399,0.615,0.597,0.923h4.216c-0.548-0.83-1.078-1.67-1.591-2.518H160.427z"/>
	<path fill="#404969" d="M162.634,149.196c-0.447-0.833-0.877-1.672-1.292-2.518h-4.128c0.411,0.856,0.848,1.687,1.285,2.518
		H162.634z"/>
	<path fill="#404969" d="M160.427,152.654h-0.015c0.09,0.152,0.184,0.299,0.274,0.45
		C160.597,152.956,160.514,152.803,160.427,152.654z"/>
	<path fill="#404969" d="M161.972,155.173h0.009c-0.198-0.309-0.402-0.611-0.597-0.923
		C161.578,154.559,161.775,154.866,161.972,155.173z"/>
	<path fill="#404969" d="M158.483,149.196h0.016c-0.436-0.831-0.873-1.662-1.285-2.518h-0.002
		C157.624,147.53,158.047,148.369,158.483,149.196z"/>
	<path fill="#404969" d="M154.246,125.973c0.197,0.927,0.41,1.855,0.637,2.782h0.001C154.656,127.828,154.444,126.9,154.246,125.973
		z"/>
	<path fill="#404969" d="M156.404,134.189l-0.009-0.004c0.348,1.125,0.719,2.246,1.114,3.364l0.011-0.003
		C157.124,136.431,156.753,135.312,156.404,134.189z"/>
	<path fill="#404969" d="M162.665,149.196c-0.448-0.833-0.88-1.672-1.297-2.518h-0.026c0.415,0.846,0.845,1.685,1.292,2.518H162.665
		z"/>
	<path fill="#404969" d="M226.592,131.199h0.002c0.298-1.261,0.575-2.534,0.813-3.827l0,0
		C227.168,128.664,226.891,129.937,226.592,131.199z"/>
	<path fill="#404969" d="M216.286,155.173h0.028c0.543-0.825,1.067-1.667,1.579-2.518h-0.025
		C217.355,153.506,216.83,154.347,216.286,155.173z"/>
	<path fill="#404969" d="M223.731,140.559l0.01,0.004c0.421-1.118,0.822-2.249,1.194-3.398l-0.007,0.002
		C224.556,138.315,224.153,139.443,223.731,140.559z"/>
	<path fill="#404969" d="M164.643,152.654h-0.037c0.513,0.848,1.043,1.688,1.591,2.518h0.043
		C165.69,154.342,165.158,153.503,164.643,152.654z"/>
	<path fill="#404969" d="M219.833,149.196h0.022c0.439-0.828,0.863-1.668,1.273-2.518h-0.017
		C220.7,147.529,220.273,148.368,219.833,149.196z"/>
	<path fill="#404969" d="M244.595,216.612l-0.069-0.019c-3.84-4.278-11.263-6.289-17.49-6.101
		c-3.974-4.771-25.255-27.211-29.372-31.547c-0.787,0.549-1.583,1.082-2.388,1.601l3.114,3.342l0.382-0.584l4.153,3.965
		l-0.971,0.444l5.076,5.448l0.298-0.23l3.408,3.589l-0.464,0.12l15.933,17.101l1.137-0.114c3.983-0.355,7.128,0.486,9.481,1.621
		c2.713,1.262,4.398,2.907,5.071,3.685c0.75,0.773,1.343,1.684,1.749,2.681h0.055l-0.053,0.005c0.003,0.007,0.007,0.013,0.009,0.02
		h-16.982c-39.013-20.384-73.304-34.735-109.667-37.88c0.063-5.099,1.002-10.825,2.706-17.176l-3.303-0.869
		c-1.748,6.533-2.698,12.505-2.823,17.776c-0.012-0.001-0.024-0.001-0.036-0.002c0,0.009-0.001,0.018-0.001,0.027
		c-3.812-0.252-7.631-0.377-11.451-0.376c-2.997-0.003-5.987,0.272-8.933,0.821c-3.223-3.211-6.27-6.595-9.127-10.135
		c4.566-4.752,9.934-9.379,15.808-13.72l-0.674-0.462l5.913-4.404l0.271,0.976c2.459-1.657,4.984-3.259,7.559-4.798l-0.789-0.4
		l6.74-3.959l0.425,0.736c1.66-0.896,3.332-1.764,5.014-2.6l-0.403-0.272l11.514-5.224l0.146,0.433
		c5.716-2.302,11.419-4.186,16.941-5.551c-0.333-1.099-0.646-2.214-0.941-3.347c-25.841,6.434-53.947,23.377-69.717,39.699
		c-7.36-9.941-10.317-18.122-11.138-24.286c-1.065-7.805,0.752-15.034,5.412-20.766c7.235-8.995,17.552-9.628,28.189-7.868
		c-0.188,1.691,0,3.27,0.626,4.278c2.769,4.153,17.872,5.6,26.811,1.566c-6.609-9.315-20.07-13.781-23.785-12.015
		c-1.253,0.626-2.142,1.691-2.769,3.019c-3.652-0.626-7.298-1.128-9.941-1.128c-9.315,0.063-16.487,3.333-21.831,9.941
		c-5.224,6.546-7.36,14.596-6.101,23.409c1.253,8.306,5.287,17.176,12.215,26.31l-3.333,3.652
		c-16.844,18.836-29.122,39.045-29.122,42.427v1.754H69.29l-0.376-2.067c-1.253-6.609,1.253-14.909,6.352-21.079
		c3.207-3.903,8.557-8.306,16.926-10.38c7.423,7.298,16.926,15.034,27.562,22.463h16.487v-1.754c0-1.879-0.94-3.652-2.706-4.842
		c-2.581-1.691-6.609-1.879-10.317-0.626c-3.52-3.903-5.475-9.183-5.913-15.66c35.8,3.145,70.159,17.615,108.728,37.817H247.3
		l0.251-1.378C247.865,221.842,246.8,219.067,244.595,216.612z M89.293,184.934c-8.118,2.456-13.468,6.985-16.801,11.013
		c-2.306,2.771-4.133,5.926-5.407,9.198c-0.108,0.281-0.207,0.563-0.308,0.845c-0.059,0.165-0.123,0.329-0.179,0.495
		c-1.278,3.777-1.826,7.656-1.51,11.237h-0.026c0.003,0.039,0.003,0.08,0.007,0.119H51.107c0.017-0.037,0.039-0.081,0.057-0.119
		h-0.057c2.831-6.101,14.032-23.66,30.582-41.469c2.268,2.831,4.842,5.663,7.611,8.557c-0.032,0.009-0.062,0.022-0.094,0.031
		C89.236,184.87,89.263,184.903,89.293,184.934z"/>
	<path fill="#404969" d="M51.107,217.84H65.07c-0.003-0.039-0.004-0.08-0.007-0.119H51.164
		C51.146,217.759,51.124,217.802,51.107,217.84z"/>
	<path fill="#404969" d="M66.778,205.989c-0.059,0.165-0.123,0.329-0.179,0.495C66.655,206.318,66.718,206.154,66.778,205.989z"/>
	<polygon fill="#404969" points="243.699,221.617 243.644,221.617 243.646,221.622 	"/>
	<path fill="#404969" d="M113.549,183.491c0.012,0.001,0.024,0.001,0.036,0.002c0.125-5.272,1.075-11.243,2.823-17.776l-0.029-0.008
		C114.629,172.244,113.677,178.217,113.549,183.491z"/>
	<path fill="#404969" d="M227.488,213.649c3.902-0.29,7,0.515,9.337,1.602c-2.353-1.135-5.498-1.976-9.481-1.621l-1.137,0.114
		l0.028,0.03L227.488,213.649z"/>
	<path fill="#404969" d="M72.499,195.821l0.013,0.006c-2.307,2.804-4.145,6.002-5.426,9.317c1.275-3.272,3.101-6.427,5.407-9.198
		c3.333-4.028,8.682-8.557,16.801-11.013c-0.03-0.031-0.058-0.063-0.087-0.094C82.678,186.776,76.865,190.594,72.499,195.821z"/>
	<polygon fill="#404969" points="210.737,196.522 207.33,192.933 207.031,193.163 210.273,196.643 	"/>
	<polygon fill="#404969" points="202.926,187.27 198.773,183.305 198.391,183.889 201.955,187.714 	"/>
	<path fill="#404969" d="M118.867,147.06l-6.74,3.959l0.789,0.4c2.097-1.253,4.225-2.462,6.377-3.624L118.867,147.06z"/>
	<path fill="#404969" d="M135.417,139.7l-11.514,5.224l0.403,0.272c3.725-1.851,7.492-3.547,11.256-5.063L135.417,139.7z"/>
	<path fill="#404969" d="M105.085,155.241l-5.913,4.404l0.674,0.462c1.792-1.325,3.631-2.623,5.51-3.889L105.085,155.241z"/>
	<path fill="#404969" d="M195.215,180.48l0.062,0.067c0.805-0.519,1.601-1.052,2.388-1.601c-0.445-0.469-0.696-0.733-0.696-0.733
		L195.215,180.48z"/>
	<path fill="#404969" d="M153.069,134.438l-0.752-3.395c-0.251,0.061-0.504,0.129-0.756,0.192c0.295,1.133,0.609,2.248,0.941,3.347
		C152.691,134.535,152.881,134.483,153.069,134.438z"/>
</g>
</svg>
