<?xml version="1.0" encoding="utf-8"?>
<!-- Generator: Adobe Illustrator 17.0.0, SVG Export Plug-In . SVG Version: 6.00 Build 0)  -->
<!DOCTYPE svg PUBLIC "-//W3C//DTD SVG 1.1//EN" "http://www.w3.org/Graphics/SVG/1.1/DTD/svg11.dtd">
<svg version="1.1" id="Layer_1" xmlns="http://www.w3.org/2000/svg" xmlns:xlink="http://www.w3.org/1999/xlink" x="0px" y="0px"
	 width="300px" height="300px" viewBox="0 0 300 300" enable-background="new 0 0 300 300" xml:space="preserve">
<title>HTML5 Logo</title>
<g>
	<path fill="none" d="M118.449,244.957c-1.739,0-4.497,0.049-6.77,0.482c-0.241,1.161-0.533,2.758-0.629,5.709h12.091
		C123.141,247.132,122.416,244.957,118.449,244.957z"/>
	<path fill="none" d="M172.877,119.131v74.64h0.001h20.357v-74.388c0-40.966-59.152-17.669-59.152-17.669V57.287l-21.126,0.13
		c0,0,0,69.34,0.118,69.02C177.732,101.269,172.877,119.131,172.877,119.131z"/>
	<polygon fill="none" points="113.34,193.642 134.596,172.391 113.34,151.137 	"/>
	<path fill="none" d="M184.915,84.175c12.162-15.747,16.129-26.758,16.129-26.758h-23.17c0,0-7.302,16.897-15.368,26.758H184.915
		L184.915,84.175z"/>
	<path fill="none" d="M162.653,244.957L162.653,244.957c-4.45,0.001-6.917,2.563-6.917,9.382c0,7.449,2.079,9.094,6.917,9.094
		c4.449,0,6.916-2.516,6.916-9.336C169.569,246.649,167.49,244.957,162.653,244.957z"/>
	<path fill="#404969" d="M118.449,240.121c-4.883,0-8.753,0.58-11.655,1.693c-1.112,3.869-1.451,8.078-1.451,12.719
		c0,8.466,1.5,13.785,11.174,13.785c4.497,0,8.269-1.354,11.365-2.758l-0.967-4.352c-2.903,1.113-6.675,2.226-10.013,2.226
		c-4.254,0-5.609-1.355-5.802-8.271h17.7v-2.95C128.8,244.522,126.383,240.121,118.449,240.121z M111.05,251.148
		c0.097-2.951,0.389-4.547,0.629-5.709c2.273-0.433,5.031-0.482,6.77-0.482c3.967,0,4.693,2.175,4.693,6.19L111.05,251.148
		L111.05,251.148z"/>
	<path fill="#404969" d="M93.013,240.121c-3.289,0-6.577,0.87-9.335,1.884v-12.621h-5.803v38.257h5.803v-20.799
		c2.853-1.258,5.997-1.885,8.513-1.885c1.255,0,2.321,0.627,2.321,2.079v20.604l0,0h5.756v-19.832
		C100.268,243.361,98.284,240.121,93.013,240.121z"/>
	<path fill="#404969" d="M95.8,219.633h115.742c9.9,0,17.927-8.024,17.927-17.924V49.607c0-9.9-8.027-17.925-17.927-17.925H95.8
		c-9.9,0-17.925,8.025-17.925,17.925v152.102C77.875,211.608,85.899,219.633,95.8,219.633z M113.34,193.642v-42.506l21.255,21.255
		L113.34,193.642z M177.874,57.417h23.17c0,0-3.967,11.011-16.129,26.758h-0.001h-22.408
		C170.573,74.314,177.874,57.417,177.874,57.417z M134.083,57.287v44.427c0,0,59.152-23.297,59.152,17.669v74.388h-20.357h-0.001
		v-74.64c0,0,4.855-17.862-59.802,7.307c-0.118,0.319-0.118-69.02-0.118-69.02L134.083,57.287z"/>
	<path fill="#404969" d="M223.733,240.797v20.75c-2.854,1.258-6.288,1.886-8.804,1.886c-1.258,0-2.321-0.628-2.321-2.081v-20.556
		h-5.755v19.83c0,4.45,1.983,7.69,7.254,7.69c3.289,0,8.561-0.435,15.429-4.208v-23.312h-5.803V240.797z"/>
	<path fill="#404969" d="M162.653,240.121c-7.401,0-12.576,3.917-12.576,14.218c0,9.722,3.917,13.978,12.576,13.978
		c7.399,0,12.575-3.917,12.575-14.219C175.228,244.376,171.31,240.121,162.653,240.121z M162.653,263.433
		c-4.837,0-6.917-1.645-6.917-9.094c0-6.819,2.466-9.382,6.917-9.382v-0.001c4.837,0,6.916,1.691,6.916,9.141
		C169.569,260.917,167.102,263.433,162.653,263.433z"/>
	<path fill="#404969" d="M202.163,240.797h-6.529c-1.597,3.725-3.869,7.496-6.819,10.544h-2.709v-21.957h-5.803v38.257h5.803
		v-12.382h3.047c3.434,3.773,5.66,8.126,7.255,12.382h6.82c-2.516-5.175-5.514-10.302-9.335-15.139
		C197.086,249.261,199.939,245.296,202.163,240.797z"/>
	<path fill="#404969" d="M133.876,267.641h5.804v-20.799h0.001c2.273-1.014,5.273-1.305,7.642-1.498v-4.837
		c-3.387,0.242-8.562,1.064-13.447,3.723V267.641z"/>
</g>
</svg>
