<?xml version="1.0" encoding="utf-8"?>
<!-- Generator: Adobe Illustrator 17.0.0, SVG Export Plug-In . SVG Version: 6.00 Build 0)  -->
<!DOCTYPE svg PUBLIC "-//W3C//DTD SVG 1.1//EN" "http://www.w3.org/Graphics/SVG/1.1/DTD/svg11.dtd">
<svg version="1.1" id="Layer_1" xmlns="http://www.w3.org/2000/svg" xmlns:xlink="http://www.w3.org/1999/xlink" x="0px" y="0px"
	 width="300px" height="300px" viewBox="0 0 300 300" enable-background="new 0 0 300 300" xml:space="preserve">
<rect x="50" y="50" fill="#404969" width="200" height="200"/>
<path fill="#BDE4F4" d="M184.349,206.251c4.029,6.578,9.27,11.413,18.54,11.413c7.787,0,12.762-3.892,12.762-9.27
	c0-6.444-5.111-8.727-13.683-12.476l-4.698-2.016c-13.562-5.778-22.571-13.016-22.571-28.317c0-14.095,10.74-24.825,27.524-24.825
	c11.949,0,20.54,4.159,26.73,15.048l-14.635,9.397c-3.222-5.778-6.698-8.054-12.095-8.054c-5.505,0-8.994,3.492-8.994,8.054
	c0,5.638,3.492,7.921,11.556,11.413l4.698,2.013c15.968,6.848,24.984,13.829,24.984,29.524c0,16.921-13.292,26.19-31.143,26.19
	c-17.454,0-28.73-8.317-34.248-19.219L184.349,206.251z M117.959,207.879c2.952,5.238,5.638,9.667,12.095,9.667
	c6.175,0,10.07-2.416,10.07-11.81v-63.905h18.794v64.159c0,19.46-11.41,28.317-28.063,28.317c-15.048,0-23.762-7.787-28.194-17.167
	L117.959,207.879z"/>
</svg>
