<?xml version="1.0" encoding="utf-8"?>
<!-- Generator: Adobe Illustrator 17.0.0, SVG Export Plug-In . SVG Version: 6.00 Build 0)  -->
<!DOCTYPE svg PUBLIC "-//W3C//DTD SVG 1.1//EN" "http://www.w3.org/Graphics/SVG/1.1/DTD/svg11.dtd">
<svg version="1.1" id="Layer_1" xmlns="http://www.w3.org/2000/svg" xmlns:xlink="http://www.w3.org/1999/xlink" x="0px" y="0px"
	 width="300px" height="300px" viewBox="0 0 300 300" enable-background="new 0 0 300 300" xml:space="preserve">
<title>HTML5 Logo</title>
<g>
	<path fill="none" d="M221.036,190.581c0.78,0.78,1.171,1.463,1.464,2.107h0.013c-0.317-0.778-0.78-1.489-1.365-2.093
		c-0.525-0.607-1.84-1.891-3.958-2.876C219.242,188.708,220.52,189.985,221.036,190.581z"/>
	<path fill="none" d="M159.193,141.478c0.442,0.669,0.896,1.326,1.36,1.972C160.088,142.805,159.636,142.146,159.193,141.478z"/>
	<path fill="none" d="M160.937,143.982c5.66,7.714,12.845,13.785,20.86,18.507c1.016-0.577,2.016-1.184,2.997-1.819l2.391,2.576
		l0.005-0.008l-2.431-2.609c-0.974,0.629-1.962,1.235-2.968,1.806C173.785,157.716,166.596,151.667,160.937,143.982z"/>
	<path fill="none" d="M198.049,98.488c0.049,0,0.098,0.049,0.196,0.049C198.196,98.537,198.098,98.488,198.049,98.488z"/>
	<polygon fill="none" points="193.911,170.495 193.934,170.477 189.972,166.224 189.955,166.232 	"/>
	<polygon fill="none" points="208.812,186.551 208.902,186.542 196.465,173.194 196.425,173.204 	"/>
	<path fill="none" d="M222.5,192.688h-13.205c-30.453-15.911-57.219-27.113-85.604-29.568c0.049-3.931,0.782-8.449,2.112-13.408
		l-2.601-0.685c-0.002,0.009-0.004,0.017-0.007,0.026l2.578,0.679c-1.33,4.958-2.063,9.427-2.112,13.408
		c28.385,2.455,55.151,13.657,85.604,29.568h13.256c-0.002-0.005-0.005-0.01-0.007-0.016l-0.012,0.001
		C222.502,192.691,222.501,192.69,222.5,192.688z"/>
	<path fill="none" d="M152.668,88.225c1.369,7.515,3.882,12.224,9.281,14.488c4.765-1.356,10.271-2.2,15.923-2.516l-0.021-0.047
		c-5.641,0.317-11.135,1.161-15.891,2.514c-5.398-2.264-7.912-6.973-9.281-14.488c-1.884,7.455-2.25,17.363-0.395,27.573
		l0.002,0.001C150.442,105.557,150.805,95.668,152.668,88.225z"/>
	<path fill="none" d="M120.514,137.916l-0.045-0.023c-2.01,1.201-3.981,2.452-5.9,3.745l0.01,0.036
		C116.509,140.377,118.492,139.121,120.514,137.916z"/>
	<path fill="none" d="M156.539,137.094c-0.035-0.063-0.071-0.125-0.106-0.188C156.467,136.97,156.504,137.031,156.539,137.094z"/>
	<path fill="none" d="M201.78,102.37c4.958-3.633,6.875-9.134,7.956-13.95c1.271,5.599,1.076,17.73,1.125,17.73h0.01
		c0.092,4.476-0.264,8.781-1.013,12.886c0.756-4.12,1.115-8.441,1.023-12.935h-0.01c-0.049,0,0.147-12.131-1.125-17.73
		c-1.081,4.816-2.997,10.317-7.956,13.95c-4.881-1.351-10.492-2.088-16.221-2.268l-0.014,0.049
		C191.285,100.282,196.898,101.019,201.78,102.37z"/>
	<path fill="none" d="M129.409,133.068l-0.048-0.033c-1.313,0.653-2.619,1.33-3.914,2.029l0.025,0.043
		C126.775,134.405,128.088,133.724,129.409,133.068z"/>
	<path fill="none" d="M151.379,124.775c-0.003-0.008-0.005-0.017-0.008-0.025c-4.31,1.066-8.762,2.536-13.223,4.333l0.016,0.048
		C142.63,127.328,147.081,125.848,151.379,124.775z"/>
	<path fill="none" d="M105.082,163.276c-2.515-2.504-4.891-5.144-7.119-7.907c3.551-3.697,7.74-7.298,12.328-10.679l-0.023-0.016
		c-4.585,3.389-8.775,7-12.34,10.71c2.23,2.764,4.608,5.405,7.124,7.912c2.299-0.428,4.634-0.643,6.973-0.641
		c2.982-0.001,5.963,0.097,8.938,0.293c0-0.007,0.001-0.014,0.001-0.021c-2.966-0.196-5.938-0.293-8.91-0.292
		C109.715,162.634,107.381,162.848,105.082,163.276z"/>
	<path fill="none" d="M83.117,189.647h0.02c-0.247-2.795,0.181-5.823,1.178-8.772C83.312,183.821,82.885,186.848,83.117,189.647z"/>
	<path fill="none" d="M84.695,179.829c-0.085,0.219-0.161,0.439-0.24,0.659C84.534,180.269,84.611,180.048,84.695,179.829z"/>
	<path fill="none" d="M96.094,157.277c-12.919,13.901-21.661,27.607-23.871,32.37h0.044c2.276-4.842,10.986-18.506,23.822-32.272
		l0,0l0.005-0.005c-0.002,0.002-0.003,0.003-0.005,0.005c1.861,2.286,3.821,4.489,5.873,6.606c0.025-0.007,0.048-0.017,0.073-0.024
		C99.874,161.697,97.864,159.487,96.094,157.277z"/>
	<path fill="none" d="M154.961,134.013c0.022,0.046,0.044,0.092,0.066,0.138C155.005,134.105,154.983,134.059,154.961,134.013z"/>
	<polygon fill="#BDE4F4" points="96.089,157.375 96.09,157.375 96.094,157.37 	"/>
	<path fill="#BDE4F4" d="M196.425,173.204l-9.084,2.351l6.57-5.059l-3.956-4.263l-6.741,3.083l3.97-6.069l-2.391-2.576
		c-0.981,0.635-1.981,1.242-2.997,1.819c-8.014-4.722-15.199-10.793-20.86-18.507c-0.129-0.176-0.256-0.355-0.383-0.532
		c-0.464-0.646-0.918-1.302-1.36-1.972c-0.144-0.218-0.289-0.435-0.431-0.655h-9.629v-1.966h8.411
		c-0.343-0.579-0.678-1.167-1.005-1.763c-0.035-0.063-0.072-0.124-0.106-0.188c-0.134-0.247-0.263-0.499-0.394-0.748h-6.906v-1.966
		h5.914c-0.007-0.014-0.013-0.028-0.02-0.042c-0.022-0.046-0.044-0.092-0.066-0.138c-1.387-2.896-2.592-5.969-3.583-9.238
		c-4.297,1.073-8.749,2.553-13.215,4.356l4.29,12.729l-13.044-8.791c-1.321,0.656-2.634,1.337-3.938,2.039l4.357,7.534l-9.314-4.726
		c-2.023,1.205-4.005,2.461-5.936,3.758l2.038,7.353l-6.326-4.337c-4.588,3.381-8.777,6.982-12.328,10.679
		c2.228,2.763,4.605,5.402,7.119,7.907c2.3-0.428,4.634-0.643,6.973-0.641c2.972-0.001,5.944,0.096,8.91,0.292
		c0.1-4.117,0.842-8.779,2.209-13.88l0.023,0.006c0.002-0.009,0.004-0.017,0.007-0.026l2.601,0.685
		c-1.33,4.958-2.063,9.476-2.112,13.408c28.385,2.455,55.151,13.657,85.604,29.568H222.5c-0.293-0.644-0.684-1.327-1.464-2.107
		c-0.516-0.596-1.794-1.872-3.846-2.862c-1.824-0.849-4.242-1.477-7.288-1.251l-0.978,0.098l-0.022-0.024l-0.09,0.009
		L196.425,173.204z"/>
	<rect x="222.502" y="192.688" fill="#BDE4F4" width="0.012" height="0.004"/>
	<path fill="#BDE4F4" d="M72.267,189.647h10.849c-0.232-2.799,0.196-5.826,1.199-8.772c0.044-0.129,0.094-0.257,0.14-0.386
		c0.079-0.22,0.155-0.441,0.24-0.659c1-2.587,2.435-5.083,4.236-7.272l-0.01-0.005c3.408-4.08,7.945-7.06,13.041-8.572
		c-2.051-2.117-4.012-4.32-5.873-6.606C83.253,171.141,74.543,184.804,72.267,189.647z"/>
	<path fill="#F5FEFF" d="M210.87,106.15h-0.01c-0.049,0,0.147-12.131-1.125-17.73c-1.081,4.816-2.997,10.317-7.956,13.95
		c-4.882-1.352-10.495-2.089-16.226-2.268l-3.02,10.322l-4.663-10.227c-5.652,0.316-11.157,1.16-15.923,2.516
		c-5.398-2.264-7.912-6.973-9.281-14.488c-1.863,7.444-2.226,17.333-0.383,27.526l7.507,4.008l-6.564,0.444
		c0.348,1.416,0.748,2.831,1.187,4.241l4.248,1.701l-3.376,0.92c0.856,2.415,1.856,4.798,3.004,7.128h6.656v1.966h-5.643
		c0.49,0.911,1.005,1.81,1.544,2.699h4.099v1.966h-2.853c4.812,7.262,11.371,13.596,20.055,17.93
		c7.491-4.306,14.053-10.409,19.01-17.93h-3.794v-1.966h5.028c0.532-0.883,1.046-1.781,1.534-2.699h-6.562v-1.966h7.56
		c0.747-1.546,1.427-3.141,2.045-4.776l-3.659-1.316l4.593-1.331c0.493-1.518,0.923-3.074,1.299-4.659l-4.763-0.733l5.399-2.254
		c0.005-0.029,0.012-0.057,0.017-0.086C210.607,114.931,210.962,110.626,210.87,106.15z M189.448,141.654l-0.978,1.467l-6.826-4.42
		l-6.288,4.176l-0.978-1.467l5.648-3.731l-10.024-6.288l0.391-0.733c1.276-2.259,2.411-5.105,3.242-8.004h1.819
		c-0.702,2.608-1.657,5.141-2.851,7.564h17.877c-1.565-2.606-1.809-5.599-1.173-7.564h1.77c-0.88,2.997-0.196,5.599,1.868,8.694
		l0.039-0.01c-3.295,2.113-6.57,4.258-9.823,6.435L189.448,141.654z M202.176,114.653c-7.07,0-9.036,2.997-10.464,6.337h7.662v1.77
		l-7.608-0.156h-25.734v-1.77h8.004c0.978-4.225,1.174-8.249,0-10.268c-0.489-0.88-1.222-1.271-2.21-1.271
		c-4.567,0-6.484,4.86-6.533,5.061l-1.614-0.636c0.098-0.244,2.406-6.19,8.2-6.19c1.552-0.043,2.996,0.794,3.731,2.161
		c1.467,2.504,1.271,6.777,0.293,11.246h14.048c1.868-5.501,5.745-8.053,12.224-8.053v1.769H202.176z"/>
	<polygon fill="#BDE4F4" points="181.6,136.652 188.671,131.987 174.183,131.987 	"/>
	<path fill="#404969" d="M138.163,129.131l-0.016-0.048c-2.938,1.183-5.879,2.507-8.786,3.952l0.048,0.033
		C132.308,131.63,135.238,130.311,138.163,129.131z"/>
	<path fill="#404969" d="M213.178,136.158v-1.966h-5.541c-0.307,0.663-0.624,1.318-0.951,1.966H213.178z"/>
	<path fill="#404969" d="M125.471,135.108l-0.025-0.043c-1.68,0.907-3.341,1.851-4.978,2.828l0.045,0.023
		C122.144,136.945,123.799,136.009,125.471,135.108z"/>
	<path fill="#404969" d="M213.178,140.823v-1.966h-7.932c-0.376,0.664-0.761,1.32-1.158,1.966H213.178z"/>
	<path fill="#404969" d="M152.285,115.75l-0.002-0.001c0.138,0.76,0.285,1.52,0.448,2.282
		C152.569,117.269,152.423,116.509,152.285,115.75z"/>
	<path fill="#404969" d="M157.758,139.208c0.18,0.3,0.361,0.598,0.545,0.894C158.119,139.807,157.938,139.508,157.758,139.208z"/>
	<path fill="#404969" d="M185.555,100.102l0.014-0.049c-2.569-0.081-5.157-0.048-7.719,0.096l0.021,0.047
		C180.422,100.054,182.998,100.022,185.555,100.102z"/>
	<polygon fill="#404969" points="196.425,173.204 196.465,173.194 193.934,170.477 193.911,170.495 	"/>
	<polygon fill="#404969" points="189.955,166.232 189.972,166.224 187.19,163.238 187.184,163.246 	"/>
	<path fill="#404969" d="M114.578,141.674l-0.01-0.036c-1.467,0.989-2.902,2.002-4.301,3.036l0.023,0.016
		C111.685,143.663,113.116,142.657,114.578,141.674z"/>
	<polygon fill="#404969" points="189.955,166.232 187.184,163.246 183.214,169.315 	"/>
	<path fill="#404969" d="M142.454,141.86l-4.29-12.729c-2.925,1.18-5.855,2.499-8.754,3.937L142.454,141.86z"/>
	<path fill="#404969" d="M157.758,139.208c-0.071-0.118-0.144-0.233-0.214-0.351h-8.411v1.966h9.629
		c-0.154-0.239-0.308-0.479-0.459-0.721C158.119,139.807,157.938,139.508,157.758,139.208z"/>
	<polygon fill="#404969" points="196.425,173.204 193.911,170.495 187.341,175.555 	"/>
	<path fill="#404969" d="M149.133,134.193v1.966h6.906c-0.34-0.646-0.671-1.301-0.992-1.966H149.133z"/>
	<path fill="#404969" d="M116.616,149.028l-2.038-7.353c-1.462,0.983-2.893,1.989-4.288,3.016L116.616,149.028z"/>
	<path fill="#404969" d="M129.828,142.642l-4.357-7.534c-1.672,0.901-3.327,1.838-4.957,2.809L129.828,142.642z"/>
	<path fill="#404969" d="M164.946,134.193h-6.656c0.325,0.66,0.663,1.315,1.012,1.966h5.643v-1.966H164.946z"/>
	<path fill="#404969" d="M152.285,115.75c0.137,0.759,0.284,1.519,0.446,2.281c0.155,0.723,0.32,1.448,0.498,2.172l6.564-0.444
		L152.285,115.75z"/>
	<path fill="#404969" d="M164.946,140.823v-1.966h-4.099c0.402,0.662,0.817,1.317,1.246,1.966H164.946z"/>
	<path fill="#404969" d="M197.365,138.857v1.966h3.794c0.424-0.644,0.834-1.301,1.235-1.966H197.365z"/>
	<path fill="#404969" d="M189.952,120.937h-14.048c0.978-4.469,1.174-8.743-0.293-11.246c-0.735-1.368-2.179-2.204-3.731-2.161
		c-5.794,0-8.102,5.946-8.2,6.19l1.614,0.636c0.049-0.2,1.966-5.061,6.533-5.061c0.988,0,1.721,0.391,2.21,1.271
		c1.174,2.019,0.978,6.044,0,10.268h-8.004v1.77h25.734l7.608,0.156v-1.77h-7.662c1.428-3.34,3.393-6.337,10.464-6.337v-1.77
		C195.697,112.883,191.82,115.436,189.952,120.937z"/>
	<path fill="#404969" d="M203.311,128.1l3.659,1.316c0.329-0.871,0.643-1.752,0.934-2.648L203.311,128.1z"/>
	<path fill="#404969" d="M204.44,121.377l4.763,0.733c0.234-0.984,0.45-1.978,0.637-2.987L204.44,121.377z"/>
	<path fill="#404969" d="M197.365,134.193v1.966h6.562c0.344-0.647,0.677-1.302,0.998-1.966H197.365z"/>
	<path fill="#404969" d="M185.555,100.102c-2.557-0.08-5.133-0.048-7.683,0.095l4.663,10.227L185.555,100.102z"/>
	<path fill="#404969" d="M154.415,124.443c0.272,0.877,0.562,1.75,0.871,2.621l3.376-0.92L154.415,124.443z"/>
	<path fill="#404969" d="M182.138,158.802c-8.704-4.344-15.268-10.697-20.078-17.979h-3.291c0.141,0.219,0.281,0.439,0.424,0.655
		c0.443,0.668,0.895,1.327,1.36,1.972c0.128,0.178,0.254,0.356,0.383,0.532c5.66,7.685,12.849,13.734,20.855,18.453
		c1.006-0.571,1.993-1.177,2.968-1.806l-0.048-0.052l1.369-1.77c0,0,0.196,0.206,0.543,0.572
		c6.892-4.813,12.877-11.093,17.465-18.556h-2.908C196.219,148.367,189.646,154.487,182.138,158.802z"/>
	<path fill="#404969" d="M160.818,138.857c-0.537-0.889-1.051-1.788-1.539-2.699h-3.228c0.13,0.247,0.249,0.504,0.382,0.748
		c0.035,0.063,0.071,0.125,0.106,0.188c0.328,0.599,0.673,1.181,1.017,1.763H160.818z"/>
	<path fill="#404969" d="M151.812,124.638c-0.147,0.035-0.295,0.076-0.442,0.112c0.003,0.008,0.005,0.017,0.008,0.025
		c0.006-0.002,0.012-0.003,0.018-0.005c0.987,3.27,2.184,6.346,3.564,9.243c0.022,0.046,0.044,0.092,0.066,0.138
		c0.007,0.014,0.015,0.028,0.021,0.042h3.222c-1.144-2.329-2.139-4.712-2.992-7.126l-0.742,0.202l-0.782-3.09l0.655,0.262
		c-0.436-1.409-0.835-2.823-1.18-4.238l-0.658,0.045l-0.782-4.763l0.495,0.264c-1.855-10.21-1.489-20.118,0.395-27.573
		c1.369,7.515,3.882,12.224,9.281,14.488c4.756-1.354,10.251-2.197,15.891-2.514l-0.376-0.825l8.352-0.147l-0.256,0.876
		c5.729,0.18,11.34,0.917,16.221,2.268c4.958-3.633,6.875-9.134,7.956-13.95c1.271,5.599,1.076,17.73,1.125,17.73h0.01
		c0.092,4.494-0.267,8.815-1.023,12.935c-0.005,0.029-0.012,0.057-0.017,0.086l1.182-0.494l-1.178,3.579l-0.639-0.098
		c-0.375,1.585-0.804,3.139-1.295,4.657l0.462-0.134l-0.983,2.934l-0.411-0.148c-0.616,1.634-1.295,3.228-2.04,4.774h2.7
		c4.108-8.867,6.386-19.041,6.181-30.155h-0.005c0-3.046-0.978-15.96-2.699-19.5c-4.714,1.819-13.359,7.613-15.324,13.603
		c-9.669-1.354-19.488-1.238-29.123,0.342c-1.467-6.435-9.281-11.344-15.129-14.097c-2.455,4.176-3.535,13.799-3.291,20.635h-0.049
		c0.232,6.198,1.076,11.89,2.437,17.117c0.196-0.049,0.394-0.102,0.59-0.15L151.812,124.638z M198.245,98.537
		c-0.098,0-0.147-0.049-0.196-0.049C198.098,98.488,198.196,98.537,198.245,98.537z M197.365,98.39
		c-0.147-0.049-0.342-0.049-0.489-0.098C197.023,98.292,197.169,98.341,197.365,98.39z"/>
	<path fill="#404969" d="M196.876,98.292c0.147,0.049,0.342,0.049,0.489,0.098C197.169,98.341,197.023,98.292,196.876,98.292z"/>
	<path fill="#404969" d="M202.412,138.857h2.834c0.501-0.884,0.978-1.785,1.44-2.699h-2.742
		C203.457,137.077,202.943,137.974,202.412,138.857z"/>
	<path fill="#404969" d="M156.039,136.158c0.131,0.249,0.26,0.502,0.394,0.748c-0.132-0.244-0.252-0.501-0.382-0.748H156.039z"/>
	<path fill="#404969" d="M155.048,134.193c-0.007-0.014-0.015-0.028-0.021-0.042C155.034,134.165,155.04,134.179,155.048,134.193
		L155.048,134.193z"/>
	<path fill="#404969" d="M151.397,124.77c-0.006,0.002-0.012,0.003-0.018,0.005c0.991,3.269,2.196,6.342,3.583,9.238
		C153.58,131.117,152.383,128.04,151.397,124.77z"/>
	<path fill="#404969" d="M156.539,137.094c0.327,0.596,0.662,1.184,1.005,1.763h0.012
		C157.212,138.275,156.867,137.693,156.539,137.094z"/>
	<path fill="#404969" d="M160.553,143.45c0.128,0.177,0.254,0.357,0.383,0.532C160.807,143.806,160.681,143.628,160.553,143.45z"/>
	<path fill="#404969" d="M159.193,141.478c-0.143-0.217-0.283-0.436-0.424-0.655h-0.007
		C158.904,141.043,159.049,141.261,159.193,141.478z"/>
	<path fill="#404969" d="M160.847,138.857c-0.539-0.889-1.054-1.788-1.544-2.699h-0.024c0.488,0.911,1.002,1.81,1.539,2.699H160.847
		z"/>
	<path fill="#404969" d="M182.148,158.754c-8.684-4.335-15.243-10.669-20.055-17.93h-0.033c4.81,7.283,11.375,13.635,20.078,17.979
		c7.507-4.315,14.081-10.436,19.042-17.979h-0.022C196.201,148.344,189.639,154.448,182.148,158.754z"/>
	<path fill="#404969" d="M202.393,138.857h0.019c0.531-0.883,1.045-1.781,1.532-2.699h-0.017
		C203.439,137.076,202.925,137.974,202.393,138.857z"/>
	<path fill="#404969" d="M192.945,131.347c-2.063-3.095-2.748-5.697-1.868-8.694h-1.77c-0.636,1.966-0.391,4.958,1.173,7.564
		h-17.877c1.194-2.423,2.148-4.956,2.851-7.564h-1.819c-0.831,2.9-1.966,5.745-3.242,8.004l-0.391,0.733l10.024,6.288l-5.648,3.731
		l0.978,1.467l6.288-4.176l6.826,4.42l0.978-1.467l-6.288-3.882c3.253-2.177,6.528-4.322,9.823-6.435L192.945,131.347z
		 M181.6,136.652l-7.418-4.665h14.488L181.6,136.652z"/>
	<path fill="#404969" d="M204.925,134.193h0.013c0.745-1.545,1.424-3.139,2.04-4.774l-0.008-0.003
		C206.352,131.051,205.672,132.647,204.925,134.193z"/>
	<path fill="#404969" d="M155.287,127.064l-0.008,0.002c0.853,2.414,1.848,4.797,2.992,7.126h0.02
		C157.142,131.863,156.143,129.479,155.287,127.064z"/>
	<path fill="#404969" d="M153.229,120.203L153.229,120.203c0.345,1.415,0.744,2.829,1.18,4.238l0.007,0.003
		C153.977,123.033,153.576,121.619,153.229,120.203z"/>
	<path fill="#404969" d="M209.84,119.122c0.005-0.029,0.012-0.057,0.017-0.086C209.851,119.065,209.845,119.093,209.84,119.122
		L209.84,119.122z"/>
	<path fill="#404969" d="M207.904,126.769l0.006-0.002c0.491-1.518,0.92-3.073,1.295-4.657h-0.002
		C208.827,123.695,208.396,125.25,207.904,126.769z"/>
	<path fill="#404969" d="M209.843,122.208l1.178-3.579l-1.182,0.494c-0.186,1.009-0.402,2.003-0.635,2.987L209.843,122.208z"/>
	<path fill="#404969" d="M153.754,124.178l0.782,3.09l0.742-0.202c-0.308-0.872-0.598-1.748-0.87-2.626L153.754,124.178z"/>
	<path fill="#404969" d="M207.389,129.567l0.983-2.934l-0.462,0.134c-0.29,0.897-0.603,1.779-0.932,2.652L207.389,129.567z"/>
	<path fill="#404969" d="M203.944,136.158h2.742c0.327-0.648,0.644-1.303,0.951-1.966h-2.7
		C204.618,134.856,204.287,135.512,203.944,136.158z"/>
	<path fill="#404969" d="M201.18,140.823h2.908c0.397-0.646,0.782-1.302,1.158-1.966h-2.834
		C202.013,139.522,201.604,140.179,201.18,140.823z"/>
	<path fill="#404969" d="M185.569,100.053l0.256-0.876l-8.352,0.147l0.376,0.825C180.412,100.006,183,99.973,185.569,100.053z"/>
	<path fill="#404969" d="M152.283,115.749l-0.495-0.264l0.782,4.763l0.658-0.045c-0.177-0.724-0.343-1.448-0.497-2.172
		C152.568,117.269,152.421,116.508,152.283,115.749z"/>
	<path fill="#404969" d="M157.556,138.857c0.069,0.116,0.133,0.236,0.203,0.351c0.18,0.299,0.361,0.599,0.545,0.894
		c0.152,0.244,0.311,0.48,0.466,0.721h3.291c-0.428-0.648-0.842-1.303-1.242-1.966L157.556,138.857L157.556,138.857z"/>
	<path fill="#404969" d="M159.279,136.158c-0.349-0.65-0.684-1.306-1.009-1.966h-3.222c0.321,0.668,0.662,1.317,1.003,1.966H159.279
		z"/>
	<path fill="#404969" d="M157.556,138.857h-0.012c0.07,0.118,0.143,0.234,0.214,0.351
		C157.689,139.093,157.624,138.973,157.556,138.857z"/>
	<path fill="#404969" d="M158.762,140.823h0.007c-0.155-0.241-0.314-0.477-0.466-0.721
		C158.455,140.344,158.608,140.584,158.762,140.823z"/>
	<path fill="#404969" d="M156.039,136.158h0.013c-0.341-0.649-0.682-1.297-1.003-1.966h-0.001
		C155.368,134.857,155.698,135.513,156.039,136.158z"/>
	<path fill="#404969" d="M152.731,118.031c0.154,0.723,0.32,1.448,0.497,2.172h0.001
		C153.051,119.478,152.886,118.754,152.731,118.031z"/>
	<path fill="#404969" d="M154.415,124.443l-0.007-0.003c0.272,0.878,0.561,1.753,0.87,2.626l0.008-0.002
		C154.978,126.194,154.688,125.32,154.415,124.443z"/>
	<path fill="#404969" d="M159.303,136.158c-0.35-0.65-0.687-1.305-1.012-1.966h-0.02c0.324,0.66,0.66,1.315,1.009,1.966H159.303z"/>
	<path fill="#404969" d="M209.203,122.109h0.002c0.233-0.985,0.449-1.978,0.635-2.987l0,0
		C209.653,120.131,209.436,121.125,209.203,122.109z"/>
	<path fill="#404969" d="M201.158,140.823h0.022c0.424-0.644,0.833-1.301,1.232-1.966h-0.019
		C201.992,139.522,201.583,140.179,201.158,140.823z"/>
	<path fill="#404969" d="M206.97,129.416l0.008,0.003c0.329-0.873,0.642-1.755,0.932-2.652l-0.006,0.002
		C207.613,127.664,207.299,128.545,206.97,129.416z"/>
	<path fill="#404969" d="M160.847,138.857h-0.029c0.4,0.662,0.814,1.318,1.242,1.966h0.033
		C161.664,140.175,161.249,139.52,160.847,138.857z"/>
	<path fill="#404969" d="M203.927,136.158h0.017c0.343-0.647,0.674-1.302,0.994-1.966h-0.013
		C204.604,134.857,204.27,135.511,203.927,136.158z"/>
	<path fill="#404969" d="M223.256,188.781l-0.054-0.015c-2.997-3.34-8.792-4.909-13.652-4.763
		c-3.102-3.724-19.713-21.24-22.927-24.625c-0.614,0.429-1.236,0.845-1.864,1.25l2.431,2.609l0.298-0.456l3.242,3.095l-0.758,0.347
		l3.962,4.253l0.233-0.179l2.66,2.802l-0.362,0.094l12.437,13.349l0.888-0.089c3.109-0.277,5.564,0.379,7.401,1.265
		c2.118,0.985,3.433,2.269,3.958,2.876c0.585,0.603,1.048,1.314,1.365,2.093h0.043l-0.041,0.004c0.002,0.005,0.005,0.01,0.007,0.016
		h-13.256c-30.453-15.911-57.219-27.113-85.604-29.568c0.049-3.98,0.782-8.449,2.112-13.408l-2.578-0.679
		c-1.365,5.1-2.106,9.761-2.204,13.876c-0.009-0.001-0.019-0.001-0.028-0.001c0,0.007-0.001,0.014-0.001,0.021
		c-2.975-0.197-5.956-0.295-8.938-0.293c-2.339-0.002-4.673,0.212-6.973,0.641c-2.516-2.507-4.894-5.148-7.124-7.912
		c3.564-3.709,7.755-7.321,12.34-10.71l-0.526-0.361l4.616-3.437l0.211,0.762c1.919-1.293,3.89-2.544,5.9-3.745l-0.616-0.312
		l5.261-3.09l0.332,0.574c1.296-0.699,2.601-1.377,3.914-2.029l-0.315-0.212l8.987-4.078l0.114,0.338
		c4.462-1.797,8.913-3.267,13.223-4.333c-0.26-0.858-0.505-1.728-0.735-2.612c-20.171,5.023-42.109,18.247-54.419,30.988
		c-5.745-7.76-8.053-14.146-8.694-18.957c-0.831-6.093,0.587-11.735,4.225-16.209c5.648-7.022,13.701-7.515,22.004-6.141
		c-0.147,1.32,0,2.552,0.489,3.34c2.161,3.242,13.95,4.371,20.928,1.222c-5.159-7.271-15.667-10.757-18.566-9.378
		c-0.978,0.489-1.672,1.32-2.161,2.357c-2.851-0.489-5.697-0.88-7.76-0.88c-7.271,0.049-12.87,2.601-17.041,7.76
		c-4.078,5.11-5.745,11.393-4.763,18.273c0.978,6.484,4.127,13.408,9.535,20.537l-2.601,2.851
		c-13.148,14.703-22.732,30.477-22.732,33.118v1.369h17.339l-0.293-1.614c-0.978-5.159,0.978-11.637,4.958-16.454
		c2.504-3.046,6.679-6.484,13.212-8.102c5.794,5.697,13.212,11.735,21.515,17.534h12.87v-1.369c0-1.467-0.733-2.851-2.112-3.78
		c-2.015-1.32-5.159-1.467-8.053-0.489c-2.748-3.046-4.274-7.168-4.616-12.224c27.945,2.455,54.765,13.75,84.87,29.519h16.601
		l0.196-1.076C225.808,192.864,224.977,190.698,223.256,188.781z M102.03,164.054c-6.337,1.917-10.513,5.452-13.114,8.596
		c-1.8,2.163-3.226,4.626-4.221,7.179c-0.085,0.219-0.162,0.439-0.24,0.659c-0.046,0.129-0.096,0.257-0.14,0.386
		c-0.997,2.949-1.425,5.976-1.178,8.772h-0.02c0.003,0.031,0.003,0.062,0.005,0.093H72.223c0.014-0.029,0.03-0.063,0.044-0.093
		h-0.044c2.21-4.763,10.953-18.468,23.871-32.37c1.77,2.21,3.78,4.42,5.941,6.679c-0.025,0.007-0.048,0.017-0.073,0.024
		C101.986,164.005,102.007,164.03,102.03,164.054z"/>
	<path fill="#404969" d="M72.223,189.739h10.899c-0.003-0.031-0.003-0.062-0.005-0.093h-10.85
		C72.253,189.677,72.236,189.71,72.223,189.739z"/>
	<path fill="#404969" d="M84.455,180.489c-0.046,0.129-0.096,0.257-0.14,0.386C84.359,180.746,84.409,180.618,84.455,180.489z"/>
	<polygon fill="#404969" points="222.557,192.688 222.513,192.688 222.515,192.692 	"/>
	<path fill="#404969" d="M120.964,162.928c0.009,0.001,0.019,0.001,0.028,0.001c0.098-4.115,0.839-8.776,2.204-13.876l-0.023-0.006
		C121.807,154.149,121.064,158.811,120.964,162.928z"/>
	<path fill="#404969" d="M209.902,186.468c3.046-0.226,5.464,0.402,7.288,1.251c-1.837-0.886-4.292-1.542-7.401-1.265l-0.888,0.089
		l0.022,0.024L209.902,186.468z"/>
	<path fill="#404969" d="M88.921,172.552l0.01,0.005c-1.8,2.189-3.235,4.685-4.236,7.272c0.995-2.554,2.421-5.017,4.221-7.179
		c2.601-3.144,6.777-6.679,13.114-8.596c-0.023-0.024-0.045-0.049-0.068-0.073C96.867,165.492,92.329,168.472,88.921,172.552z"/>
	<polygon fill="#404969" points="196.827,173.1 194.167,170.298 193.934,170.477 196.465,173.194 	"/>
	<polygon fill="#404969" points="190.73,165.878 187.488,162.783 187.19,163.238 189.972,166.224 	"/>
	<path fill="#404969" d="M125.115,134.491l-5.261,3.09l0.616,0.312c1.637-0.978,3.298-1.922,4.978-2.828L125.115,134.491z"/>
	<path fill="#404969" d="M138.033,128.745l-8.987,4.078l0.315,0.212c2.907-1.445,5.848-2.769,8.786-3.952L138.033,128.745z"/>
	<path fill="#404969" d="M114.357,140.877l-4.616,3.437l0.526,0.361c1.399-1.034,2.834-2.047,4.301-3.036L114.357,140.877z"/>
	<path fill="#404969" d="M184.71,160.577l0.048,0.052c0.628-0.405,1.25-0.821,1.864-1.25c-0.348-0.366-0.543-0.572-0.543-0.572
		L184.71,160.577z"/>
	<path fill="#404969" d="M151.812,124.638l-0.587-2.65c-0.196,0.047-0.393,0.101-0.59,0.15c0.23,0.884,0.475,1.755,0.735,2.612
		C151.518,124.714,151.666,124.674,151.812,124.638z"/>
</g>
<g>
	<path fill="#404969" d="M54.084,229.452v-2.891l13.01-7.579v4.532l-7.931,4.493l7.931,4.493v4.571L54.084,229.452z"/>
	<path fill="#404969" d="M86.588,237.617c-1.328,1.407-3.126,2.11-5.587,2.11c-2.266,0-4.141-0.82-5.47-2.227l3.048-2.93
		c0.469,0.664,1.406,1.211,2.422,1.211c1.797,0,3.126-1.25,3.126-3.633v-20.55h4.376v20.55
		C88.502,234.374,87.877,236.288,86.588,237.617z"/>
	<path fill="#404969" d="M104.598,237.851c-1.133,1.094-2.969,1.836-5.43,1.836c-2.422,0-4.22-0.664-5.391-1.836
		c-1.328-1.328-1.797-3.047-1.797-5.977h4.376c0,1.485,0.156,2.422,0.781,3.126c0.391,0.43,1.055,0.742,2.032,0.742
		c1.016,0,1.68-0.274,2.11-0.781c0.586-0.664,0.742-1.602,0.742-3.086c0-2.969-0.469-3.712-2.618-4.571l-3.321-1.367
		c-2.813-1.172-3.868-2.696-3.868-6.993c0-2.5,0.742-4.532,2.266-5.899c1.211-1.055,2.774-1.68,4.766-1.68
		c2.227,0,3.868,0.586,5.001,1.68c1.446,1.407,1.953,3.399,1.953,6.056h-4.376c0-1.25-0.078-2.227-0.664-2.969
		c-0.391-0.508-1.016-0.82-1.953-0.82c-0.899,0-1.445,0.312-1.875,0.781c-0.508,0.586-0.742,1.524-0.742,2.735
		c0,2.266,0.352,2.969,2.305,3.75l3.282,1.328c3.321,1.367,4.219,3.126,4.219,7.814
		C106.396,234.569,106.005,236.484,104.598,237.851z"/>
	<path fill="#404969" d="M117.217,228.553H114.6v10.861h-4.376v-27.817h6.993c5.04,0,7.15,2.618,7.15,8.439
		C124.367,225.662,122.491,228.553,117.217,228.553z M117.295,215.543H114.6v9.064h2.696c2.344,0,2.696-2.071,2.696-4.532
		C119.991,217.614,119.639,215.543,117.295,215.543z"/>
	<path fill="#404969" d="M134.642,230.116v-3.946h7.892v3.946H134.642z"/>
	<path fill="#404969" d="M162.497,237.617c-1.328,1.407-3.126,2.11-5.587,2.11c-2.266,0-4.141-0.82-5.47-2.227l3.048-2.93
		c0.469,0.664,1.406,1.211,2.422,1.211c1.797,0,3.126-1.25,3.126-3.633v-20.55h4.376v20.55
		C164.412,234.374,163.786,236.288,162.497,237.617z"/>
	<path fill="#404969" d="M180.507,237.851c-1.133,1.094-2.969,1.836-5.43,1.836c-2.422,0-4.22-0.664-5.391-1.836
		c-1.328-1.328-1.797-3.047-1.797-5.977h4.376c0,1.485,0.156,2.422,0.781,3.126c0.391,0.43,1.055,0.742,2.032,0.742
		c1.016,0,1.68-0.274,2.11-0.781c0.586-0.664,0.742-1.602,0.742-3.086c0-2.969-0.469-3.712-2.618-4.571l-3.321-1.367
		c-2.813-1.172-3.868-2.696-3.868-6.993c0-2.5,0.742-4.532,2.266-5.899c1.211-1.055,2.774-1.68,4.766-1.68
		c2.227,0,3.868,0.586,5.001,1.68c1.446,1.407,1.953,3.399,1.953,6.056h-4.376c0-1.25-0.078-2.227-0.664-2.969
		c-0.391-0.508-1.016-0.82-1.953-0.82c-0.899,0-1.445,0.312-1.875,0.781c-0.508,0.586-0.742,1.524-0.742,2.735
		c0,2.266,0.352,2.969,2.305,3.75l3.282,1.328c3.321,1.367,4.219,3.126,4.219,7.814
		C182.305,234.569,181.914,236.484,180.507,237.851z"/>
	<path fill="#404969" d="M193.596,215.543v23.871h-4.376v-23.871h-4.649v-3.946h13.713v3.946H193.596z"/>
	<path fill="#404969" d="M201.448,239.414v-27.817h4.376v23.871h7.306v3.946H201.448z"/>
	<path fill="#404969" d="M225.201,242.305h-3.907l7.228-33.599h3.907L225.201,242.305z"/>
	<path fill="#404969" d="M234.031,237.07v-4.571l7.931-4.493l-7.931-4.493v-4.532l13.01,7.579v2.891L234.031,237.07z"/>
</g>
</svg>
