<?xml version="1.0" encoding="utf-8"?>
<!-- Generator: Adobe Illustrator 17.0.0, SVG Export Plug-In . SVG Version: 6.00 Build 0)  -->
<!DOCTYPE svg PUBLIC "-//W3C//DTD SVG 1.1//EN" "http://www.w3.org/Graphics/SVG/1.1/DTD/svg11.dtd">
<svg version="1.1" id="Layer_1" xmlns="http://www.w3.org/2000/svg" xmlns:xlink="http://www.w3.org/1999/xlink" x="0px" y="0px"
	 width="300px" height="300px" viewBox="0 0 300 300" enable-background="new 0 0 300 300" xml:space="preserve">
<title>HTML5 Logo</title>
<g>
	<polygon fill="#404969" stroke="#FFFFFF" stroke-width="0.2835" stroke-miterlimit="10" points="114.877,202.478 107.881,231.139 
		114.905,202.365 114.877,202.365 	"/>
	<polygon fill="#404969" stroke="#FFFFFF" stroke-width="0.2835" stroke-miterlimit="10" points="82.404,177.685 148.946,51.867 
		82.404,177.685 	"/>
	<polygon fill="#404969" stroke="#FFFFFF" stroke-width="0.2835" stroke-miterlimit="10" points="83.649,191.377 83.654,191.377 
		82.44,178.076 	"/>
	<polygon fill="#404969" stroke="#FFFFFF" stroke-width="0.2835" stroke-miterlimit="10" points="202.474,202.365 174.886,202.365 
		180.043,231.139 205.681,228.217 	"/>
	<polygon fill="#404969" stroke="#FFFFFF" stroke-width="0.2835" stroke-miterlimit="10" points="205.681,228.217 206.127,228.166 
		228.713,202.365 202.474,202.365 	"/>
	<polygon fill="#404969" stroke="#FFFFFF" stroke-width="0.2835" stroke-miterlimit="10" points="205.681,228.217 206.127,228.166 
		228.713,202.365 202.474,202.365 	"/>
	<polygon fill="#404969" stroke="#FFFFFF" stroke-width="0.2835" stroke-miterlimit="10" points="114.877,202.365 84.658,202.365 
		83.654,191.377 83.649,191.377 84.658,202.478 86.904,227.869 107.881,231.139 114.877,202.478 	"/>
	<polygon fill="#404969" stroke="#FFFFFF" stroke-width="0.2835" stroke-miterlimit="10" points="69.967,202.478 86.81,227.854 
		86.904,227.869 84.658,202.478 	"/>
	<polygon fill="#404969" stroke="#FFFFFF" stroke-width="0.2835" stroke-miterlimit="10" points="83.649,191.377 82.44,178.076 
		82.412,177.77 82.353,177.783 82.404,177.686 82.404,177.685 82.404,177.685 82.404,177.685 75.163,191.377 69.591,201.912 
		69.967,202.478 84.658,202.478 	"/>
	<polygon fill="#404969" stroke="#FFFFFF" stroke-width="0.2835" stroke-miterlimit="10" points="165.452,144.813 192.518,134.1 
		192.48,133.839 148.946,51.867 	"/>
	<polygon fill="#404969" stroke="#FFFFFF" stroke-width="0.2835" stroke-miterlimit="10" points="123.457,161.436 148.946,51.867 
		82.404,177.685 	"/>
	<polygon fill="#404969" stroke="#FFFFFF" stroke-width="0.2835" stroke-miterlimit="10" points="82.353,177.783 82.412,177.77 
		82.404,177.686 	"/>
	<polygon fill="#404969" stroke="#FFFFFF" stroke-width="0.2835" stroke-miterlimit="10" points="82.353,177.783 82.412,177.77 
		82.404,177.686 	"/>
	<polygon fill="#404969" stroke="#FFFFFF" stroke-width="0.2835" stroke-miterlimit="10" points="82.404,177.685 82.404,177.685 
		82.404,177.686 	"/>
	<polygon fill="#404969" stroke="#FFFFFF" stroke-width="0.2835" stroke-miterlimit="10" points="83.654,191.377 84.658,202.365 
		114.877,202.365 114.877,191.377 	"/>
	<path fill="#404969" stroke="#FFFFFF" stroke-width="0.2835" stroke-miterlimit="10" d="M82.412,177.77l0.028,0.306L82.412,177.77z
		"/>
	<path fill="#404969" stroke="#FFFFFF" stroke-width="0.2835" stroke-miterlimit="10" d="M82.412,177.77l0.028,0.306L82.412,177.77z
		"/>
	<polygon fill="#404969" stroke="#FFFFFF" stroke-width="0.2835" stroke-miterlimit="10" points="82.404,177.685 82.404,177.685 
		82.404,177.685 	"/>
	<polygon fill="#404969" stroke="#FFFFFF" stroke-width="0.2835" stroke-miterlimit="10" points="82.404,177.685 82.404,177.685 
		82.404,177.685 	"/>
	<polygon fill="#404969" stroke="#FFFFFF" stroke-width="0.2835" stroke-miterlimit="10" points="123.457,161.436 82.404,177.685 
		82.404,177.686 82.412,177.77 121.812,169.28 123.456,161.436 	"/>
	<polygon fill="#404969" stroke="#FFFFFF" stroke-width="0.2835" stroke-miterlimit="10" points="82.404,177.685 82.404,177.686 
		82.412,177.77 82.44,178.076 83.654,191.377 84.658,202.365 114.877,202.365 121.812,169.28 123.456,161.436 123.457,161.436 	"/>
	<polygon fill="#404969" stroke="#FFFFFF" stroke-width="0.2835" stroke-miterlimit="10" points="165.452,144.813 167.837,159.362 
		195.338,153.437 192.518,134.1 	"/>
	<polygon fill="#404969" stroke="#FFFFFF" stroke-width="0.2835" stroke-miterlimit="10" points="195.338,153.437 192.518,134.1 
		165.452,144.813 167.837,159.362 174.886,202.365 202.474,202.365 	"/>
	
		<rect x="82.408" y="177.686" fill="#404969" stroke="#FFFFFF" stroke-width="0.2835" stroke-miterlimit="10" width="0" height="0.084"/>
	
		<rect x="82.408" y="177.686" fill="#404969" stroke="#FFFFFF" stroke-width="0.2835" stroke-miterlimit="10" width="0" height="0.084"/>
	
		<rect x="82.408" y="177.686" fill="#404969" stroke="#FFFFFF" stroke-width="0.2835" stroke-miterlimit="10" width="0" height="0.084"/>
	<polygon fill="#404969" stroke="#FFFFFF" stroke-width="0.2835" stroke-miterlimit="10" points="202.112,151.977 192.719,134.29 
		195.459,153.41 202.474,202.365 228.713,202.365 228.812,202.251 	"/>
	<polygon fill="#404969" stroke="#FFFFFF" stroke-width="0.2835" stroke-miterlimit="10" points="192.601,134.067 192.48,133.839 
		192.518,134.1 	"/>
	<polygon fill="#404969" stroke="#FFFFFF" stroke-width="0.2835" stroke-miterlimit="10" points="195.338,153.437 202.474,202.365 
		195.459,153.41 	"/>
	<polygon fill="#404969" stroke="#FFFFFF" stroke-width="0.2835" stroke-miterlimit="10" points="195.338,153.437 195.459,153.41 
		192.719,134.29 192.601,134.067 192.518,134.1 	"/>
	<polygon fill="#404969" stroke="#FFFFFF" stroke-width="0.2835" stroke-miterlimit="10" points="149.352,151.186 165.452,144.813 
		148.946,51.867 123.457,161.436 	"/>
	<polygon fill="#404969" stroke="#FFFFFF" stroke-width="0.2835" stroke-miterlimit="10" points="149.352,151.186 165.452,144.813 
		148.946,51.867 123.457,161.436 	"/>
	<polygon fill="#404969" stroke="#FFFFFF" stroke-width="0.2835" stroke-miterlimit="10" points="149.352,151.186 123.457,161.436 
		123.456,161.436 	"/>
	<polygon fill="#404969" stroke="#FFFFFF" stroke-width="0.2835" stroke-miterlimit="10" points="149.352,151.186 123.457,161.436 
		123.456,161.436 	"/>
	<polygon fill="#404969" stroke="#FFFFFF" stroke-width="0.2835" stroke-miterlimit="10" points="149.352,151.186 123.457,161.436 
		123.456,161.436 	"/>
	<path fill="#404969" stroke="#FFFFFF" stroke-width="0.2835" stroke-miterlimit="10" d="M165.452,144.813l-16.1,6.373
		L165.452,144.813z"/>
	<path fill="#404969" stroke="#FFFFFF" stroke-width="0.2835" stroke-miterlimit="10" d="M165.452,144.813l-16.1,6.373
		L165.452,144.813z"/>
	<polygon fill="#404969" stroke="#FFFFFF" stroke-width="0.2835" stroke-miterlimit="10" points="121.812,169.28 114.877,202.365 
		114.905,202.365 174.886,202.365 167.837,159.362 	"/>
	<polygon fill="#404969" stroke="#FFFFFF" stroke-width="0.2835" stroke-miterlimit="10" points="149.352,151.186 123.456,161.436 
		121.812,169.28 167.837,159.362 165.452,144.813 	"/>
	<polygon fill="#404969" stroke="#FFFFFF" stroke-width="0.2835" stroke-miterlimit="10" points="149.352,151.186 123.456,161.436 
		121.812,169.28 167.837,159.362 165.452,144.813 	"/>
	<polygon fill="#404969" stroke="#FFFFFF" stroke-width="0.2835" stroke-miterlimit="10" points="167.837,159.362 165.452,144.813 
		149.352,151.186 123.456,161.436 121.812,169.28 114.877,202.365 114.905,202.365 174.886,202.365 	"/>
</g>
</svg>
