<?xml version="1.0" encoding="utf-8"?>
<!-- Generator: Adobe Illustrator 17.0.0, SVG Export Plug-In . SVG Version: 6.00 Build 0)  -->
<!DOCTYPE svg PUBLIC "-//W3C//DTD SVG 1.1//EN" "http://www.w3.org/Graphics/SVG/1.1/DTD/svg11.dtd">
<svg version="1.1" id="Layer_1" xmlns="http://www.w3.org/2000/svg" xmlns:xlink="http://www.w3.org/1999/xlink" x="0px" y="0px"
	 width="300px" height="300px" viewBox="0 0 300 300" enable-background="new 0 0 300 300" xml:space="preserve">
<g>
	<path fill="#404969" d="M78.032,150.3c0,26.908,15.638,50.162,38.313,61.182l-32.428-88.848
		C80.145,131.089,78.032,140.445,78.032,150.3z"/>
	<path fill="#404969" d="M191.905,146.87c0-8.402-3.018-14.22-5.606-18.749c-3.446-5.6-6.676-10.342-6.676-15.942
		c0-6.249,4.74-12.066,11.416-12.066c0.301,0,0.587,0.038,0.881,0.054c-12.095-11.081-28.208-17.846-45.907-17.846
		c-23.749,0-44.644,12.185-56.8,30.641c1.595,0.048,3.098,0.081,4.375,0.081c7.111,0,18.117-0.863,18.117-0.863
		c3.665-0.216,4.097,5.166,0.436,5.6c0,0-3.683,0.433-7.781,0.648l24.756,73.635l14.877-44.618l-10.592-29.019
		c-3.661-0.215-7.129-0.648-7.129-0.648c-3.663-0.215-3.234-5.816,0.429-5.6c0,0,11.227,0.863,17.907,0.863
		c7.109,0,18.117-0.863,18.117-0.863c3.667-0.216,4.098,5.166,0.436,5.6c0,0-3.69,0.433-7.781,0.648l24.567,73.078l6.781-22.659
		C189.668,159.443,191.905,152.69,191.905,146.87z"/>
	<path fill="#404969" d="M147.205,156.247l-20.397,59.269c6.09,1.79,12.531,2.769,19.204,2.769c7.917,0,15.508-1.369,22.575-3.853
		c-0.182-0.291-0.348-0.6-0.484-0.937L147.205,156.247z"/>
	<path fill="#404969" d="M205.663,117.685c0.292,2.165,0.458,4.49,0.458,6.99c0,6.898-1.288,14.653-5.169,24.35l-20.765,60.037
		c20.21-11.786,33.804-33.681,33.804-58.761C213.992,138.483,210.973,127.368,205.663,117.685z"/>
	<path fill="#404969" d="M146.012,71.058c-43.695,0-79.245,35.548-79.245,79.243c0,43.7,35.55,79.246,79.245,79.246
		c43.693,0,79.249-35.547,79.249-79.246C225.26,106.606,189.706,71.058,146.012,71.058z M146.012,225.915
		c-41.691,0-75.612-33.921-75.612-75.614c0-41.691,33.919-75.609,75.612-75.609c41.69,0,75.608,33.918,75.608,75.609
		C221.62,191.994,187.702,225.915,146.012,225.915z"/>
</g>
</svg>
