<?xml version="1.0" encoding="utf-8"?>
<!-- Generator: Adobe Illustrator 17.0.0, SVG Export Plug-In . SVG Version: 6.00 Build 0)  -->
<!DOCTYPE svg PUBLIC "-//W3C//DTD SVG 1.1//EN" "http://www.w3.org/Graphics/SVG/1.1/DTD/svg11.dtd">
<svg version="1.1" id="Layer_1" xmlns="http://www.w3.org/2000/svg" xmlns:xlink="http://www.w3.org/1999/xlink" x="0px" y="0px"
	 width="300px" height="300px" viewBox="0 0 300 300" enable-background="new 0 0 300 300" xml:space="preserve">
<g>
	<path fill="#404969" d="M150,91.487c-61.431,0-111.232,26.198-111.232,58.513S88.569,208.513,150,208.513
		S261.234,182.315,261.234,150S211.431,91.487,150,91.487z M150,204.168c-59.031,0-106.888-24.253-106.888-54.169
		c0-29.916,47.856-54.169,106.888-54.169S256.888,120.083,256.888,150C256.888,179.916,209.031,204.168,150,204.168z"/>
	<path fill="#404969" d="M125.958,129.946c-3.389-3.879-8.779-5.818-16.169-5.818H85.227L73.83,182.766h12.772l3.03-15.59h10.941
		c4.829,0,8.8-0.505,11.918-1.521c3.119-1.014,5.951-2.714,8.502-5.101c2.14-1.967,3.872-4.137,5.199-6.511
		c1.325-2.371,2.266-4.989,2.823-7.852C130.367,139.239,129.346,133.825,125.958,129.946z M115.812,145.294
		c-0.884,4.539-2.584,7.777-5.105,9.719c-2.52,1.94-6.356,2.91-11.506,2.91h-7.77l4.77-24.541h8.753
		c4.853,0,8.086,0.896,9.704,2.688C116.272,137.86,116.657,140.936,115.812,145.294z"/>
	<path fill="#404969" d="M140.88,167.176l6.527-33.594h10.129c3.242,0,5.362,0.538,6.359,1.611c0.996,1.073,1.207,3.086,0.634,6.037
		l-5.041,25.945h12.874l5.302-27.286c1.079-5.551,0.27-9.566-2.426-12.045c-2.696-2.476-7.596-3.716-14.7-3.716h-11.29l3.03-15.59
		h-12.673l-11.397,58.637H140.88z"/>
	<path fill="#404969" d="M209.491,124.129h-24.564l-11.397,58.638h12.774l3.03-15.59h10.941c4.829,0,8.8-0.505,11.917-1.521
		c3.119-1.014,5.951-2.714,8.503-5.101c2.14-1.967,3.872-4.137,5.199-6.511c1.325-2.371,2.266-4.989,2.823-7.852
		c1.352-6.951,0.333-12.365-3.056-16.244C222.271,126.067,216.881,124.129,209.491,124.129z M215.514,145.294
		c-0.884,4.539-2.584,7.777-5.105,9.719c-2.52,1.94-6.356,2.91-11.506,2.91h-7.77l4.77-24.541h8.752
		c4.853,0,8.086,0.896,9.704,2.688C215.975,137.86,216.36,140.936,215.514,145.294z"/>
</g>
</svg>
