<?xml version="1.0" encoding="utf-8"?>
<!-- Generator: Adobe Illustrator 17.0.0, SVG Export Plug-In . SVG Version: 6.00 Build 0)  -->
<!DOCTYPE svg PUBLIC "-//W3C//DTD SVG 1.1//EN" "http://www.w3.org/Graphics/SVG/1.1/DTD/svg11.dtd">
<svg version="1.1" id="Layer_1" xmlns="http://www.w3.org/2000/svg" xmlns:xlink="http://www.w3.org/1999/xlink" x="0px" y="0px"
	 width="300px" height="300px" viewBox="0 0 300 300" enable-background="new 0 0 300 300" xml:space="preserve">
<g>
	<path fill="none" d="M185.56,249.536c0,3.987,2.278,6.265,5.98,6.265c2.848,0,5.98-1.424,8.828-3.987v-9.112h-3.417
		C187.838,242.702,185.56,245.549,185.56,249.536z"/>
	<path fill="none" d="M112.66,249.536c0,3.987,2.278,6.265,5.98,6.265c2.848,0,5.98-1.424,8.828-3.987v-9.112h-3.417
		C114.938,242.702,112.66,245.549,112.66,249.536z"/>
	<path fill="#404969" d="M122.057,139.617L122.057,139.617L122.057,139.617z"/>
	<polygon fill="#404969" points="200.652,172.08 200.653,172.08 200.653,172.08 	"/>
	<path fill="#404969" d="M171.607,143.888c-19.649,3.987-31.039,3.702-45.563,2.278c-11.105-1.139-3.988-6.548-3.987-6.549
		c-28.761,9.682,16.232,20.503,56.384,8.543C174.169,146.736,171.607,143.888,171.607,143.888z"/>
	<path fill="#404969" d="M126.329,158.126c-26.198,7.404,15.947,22.497,49.264,8.258c-5.41-1.993-9.397-4.556-9.397-4.556
		c-14.808,2.848-21.927,3.132-35.311,1.424C119.779,162.113,126.329,158.126,126.329,158.126z"/>
	<path fill="#404969" d="M177.302,130.504c3.133-1.994,7.689-3.987,7.689-3.987s-12.815,2.278-25.629,3.417
		c-15.662,1.139-32.463,1.424-41.006,0.285c-19.93-2.562,11.095-9.964,11.105-9.967c-0.001,0-12.245-0.854-27.052,6.265
		C85.038,135.06,145.693,138.762,177.302,130.504z"/>
	<path fill="#404969" d="M186.13,190.589c-26.199,4.841-58.662,4.272-77.741,1.139c0,0,3.987,3.417,24.205,4.556l0,0
		c30.755,1.993,77.741-1.139,78.88-15.662C211.474,180.623,209.196,186.318,186.13,190.589z"/>
	<path fill="#404969" d="M184.991,151.292L184.991,151.292c-0.285,0.57-0.569,0.854-0.569,0.854
		c42.715-11.106,26.768-39.582,6.549-32.463c-1.993,0.57-2.848,2.278-2.848,2.278s1.139-0.57,3.702-1.139
		C202.077,118.829,216.884,134.775,184.991,151.292z"/>
	<polygon fill="#404969" points="129.461,120.252 129.461,120.253 129.461,120.253 	"/>
	<path fill="#404969" d="M94.15,184.894c68.058,11.106,124.156-4.84,106.503-12.814c0.011,0.009,4.829,3.99-5.411,7.119
		c-19.079,5.695-80.019,7.404-97.105,0c-5.98-2.563,5.411-6.265,9.112-6.834c3.702-0.854,5.695-0.854,5.695-0.854
		C106.395,166.954,69.375,180.907,94.15,184.894z"/>
	<path fill="#404969" d="M148.825,119.968c-6.265-14.238-27.622-26.768,0-48.695c34.457-27.053,16.801-44.993,16.801-44.993l0,0
		c7.119,28.192-25.059,36.735-36.735,54.39C120.918,92.63,132.594,105.445,148.825,119.968z"/>
	<path fill="#404969" d="M156.514,108.008L156.514,108.008c8.258,9.397-2.278,17.94-2.278,17.94s21.073-10.821,11.391-24.205
		c-8.828-12.814-15.662-19.079,21.357-40.437C186.984,61.306,128.607,75.829,156.514,108.008z"/>
	<path fill="#404969" d="M194.388,221.06c-5.695,0-10.536,1.424-14.808,3.132l1.139,5.126c3.417-1.139,7.404-2.278,11.675-2.278
		c5.411,0,7.973,2.278,7.973,6.835v3.702h-2.848c-13.669,0-19.934,5.126-19.934,13.384c0,6.834,3.987,10.821,11.675,10.821
		c5.126,0,8.828-2.278,12.245-5.126l0.57,4.272h6.265V233.02C208.341,225.9,204.355,221.06,194.388,221.06z M200.368,251.814
		c-2.848,2.563-5.98,3.987-8.828,3.987c-3.702,0-5.98-2.278-5.98-6.265s2.278-6.834,11.391-6.834h3.417L200.368,251.814
		L200.368,251.814z"/>
	<path fill="#404969" d="M157.938,252.953l-1.708-7.119l-7.404-23.92h-8.543l11.96,39.013h9.967l0,0
		c5.695-12.245,9.682-26.198,11.96-39.013h-8.543C164.488,232.165,161.64,242.702,157.938,252.953z"/>
	<path fill="#404969" d="M90.448,252.384c0,6.549-0.285,9.397-1.424,11.391c-1.139,2.278-3.987,4.841-6.834,6.549l3.702,4.556
		c4.271-1.424,7.689-3.987,9.967-7.404l0,0c2.278-3.417,3.133-6.834,3.133-15.662V207.96h-8.543v44.424H90.448z"/>
	<path fill="#404969" d="M121.488,221.06c-5.695,0-10.536,1.424-14.808,3.132l1.424,5.126c3.132-1.139,7.119-2.278,11.391-2.278
		c5.411,0,7.973,2.278,7.973,6.835v3.702h-2.848c-13.669,0-19.934,5.126-19.934,13.384c0,6.834,4.271,10.821,11.96,10.821
		c4.841,0,8.543-2.278,11.96-5.126l0.57,4.272h6.265l0,0V233.02C135.442,225.9,131.455,221.06,121.488,221.06z M127.468,251.814
		c-2.848,2.563-5.98,3.987-8.828,3.987c-3.702,0-5.98-2.278-5.98-6.265s2.278-6.834,11.391-6.834h3.417
		C127.468,242.702,127.468,251.814,127.468,251.814z"/>
</g>
</svg>
