<?xml version="1.0" encoding="utf-8"?>
<!-- Generator: Adobe Illustrator 17.0.0, SVG Export Plug-In . SVG Version: 6.00 Build 0)  -->
<!DOCTYPE svg PUBLIC "-//W3C//DTD SVG 1.1//EN" "http://www.w3.org/Graphics/SVG/1.1/DTD/svg11.dtd">
<svg version="1.1" id="Layer_1" xmlns="http://www.w3.org/2000/svg" xmlns:xlink="http://www.w3.org/1999/xlink" x="0px" y="0px"
	 width="300px" height="300px" viewBox="0 0 300 300" enable-background="new 0 0 300 300" xml:space="preserve">
<g>
	<path fill="#404969" d="M248.076,150.02c0-12.994-16.273-25.309-41.222-32.945c5.757-25.429,3.199-45.66-8.076-52.137
		c-2.599-1.519-5.637-2.239-8.956-2.239v8.916c1.839,0,3.319,0.36,4.558,1.04c5.438,3.119,7.797,14.993,5.957,30.266
		c-0.44,3.758-1.16,7.717-2.039,11.755c-7.836-1.919-16.393-3.398-25.389-4.358c-5.398-7.397-10.995-14.114-16.633-19.991
		c13.034-12.115,25.269-18.752,33.585-18.752v-8.916l0,0c-10.995,0-25.389,7.836-39.942,21.43
		c-14.553-13.514-28.947-21.27-39.942-21.27v8.916c8.276,0,20.551,6.597,33.585,18.632c-5.597,5.877-11.195,12.554-16.513,19.951
		c-9.036,0.96-17.592,2.439-25.429,4.398c-0.92-3.998-1.599-7.876-2.079-11.595c-1.879-15.273,0.44-27.148,5.837-30.306
		c1.199-0.72,2.759-1.04,4.598-1.04v-8.916l0,0c-3.358,0-6.397,0.72-9.036,2.239c-11.235,6.477-13.754,26.668-7.956,52.017
		c-24.869,7.677-41.062,19.951-41.062,32.905c0,12.994,16.273,25.309,41.222,32.945c-5.757,25.429-3.199,45.66,8.076,52.137
		c2.599,1.519,5.637,2.239,8.996,2.239c10.995,0,25.389-7.837,39.942-21.43c14.553,13.514,28.947,21.27,39.942,21.27
		c3.359,0,6.397-0.72,9.036-2.239c11.235-6.477,13.754-26.668,7.956-52.017C231.883,175.289,248.076,162.974,248.076,150.02z
		 M196.02,123.352c-1.479,5.158-3.318,10.475-5.398,15.793c-1.639-3.199-3.359-6.397-5.238-9.596
		c-1.839-3.199-3.798-6.317-5.757-9.356C185.304,121.033,190.782,122.073,196.02,123.352z M177.708,165.933
		c-3.119,5.398-6.317,10.515-9.636,15.273c-5.957,0.52-11.995,0.8-18.072,0.8c-6.037,0-12.075-0.28-17.992-0.76
		c-3.319-4.758-6.557-9.836-9.676-15.193c-3.039-5.238-5.797-10.555-8.316-15.913c2.479-5.358,5.278-10.715,8.276-15.953
		c3.119-5.398,6.317-10.515,9.636-15.273c5.957-0.52,11.995-0.8,18.072-0.8c6.037,0,12.075,0.28,17.992,0.76
		c3.319,4.758,6.557,9.836,9.676,15.193c3.039,5.238,5.797,10.555,8.316,15.913C183.465,155.338,180.706,160.695,177.708,165.933z
		 M190.622,160.735c2.159,5.358,3.998,10.715,5.518,15.913c-5.238,1.279-10.755,2.359-16.473,3.199
		c1.959-3.079,3.918-6.237,5.757-9.476C187.263,167.172,188.983,163.934,190.622,160.735z M150.08,203.396
		c-3.718-3.838-7.437-8.116-11.115-12.794c3.598,0.16,7.277,0.28,10.995,0.28c3.758,0,7.477-0.08,11.115-0.28
		C157.477,195.28,153.758,199.558,150.08,203.396z M120.333,179.847c-5.677-0.84-11.155-1.879-16.393-3.159
		c1.479-5.158,3.319-10.475,5.398-15.793c1.639,3.199,3.358,6.397,5.238,9.596C116.455,173.689,118.374,176.808,120.333,179.847z
		 M149.88,96.644c3.718,3.838,7.437,8.116,11.115,12.794c-3.598-0.16-7.277-0.28-10.995-0.28c-3.758,0-7.477,0.08-11.115,0.28
		C142.484,104.76,146.202,100.482,149.88,96.644z M120.293,120.193c-1.959,3.079-3.918,6.237-5.757,9.476
		c-1.839,3.199-3.558,6.397-5.198,9.596c-2.159-5.358-3.998-10.715-5.518-15.913C109.058,122.112,114.576,121.033,120.293,120.193z
		 M84.11,170.251c-14.154-6.037-23.31-13.954-23.31-20.231c0-6.277,9.156-14.234,23.31-20.231c3.438-1.479,7.197-2.799,11.075-4.038
		c2.279,7.837,5.278,15.993,8.996,24.349c-3.678,8.316-6.637,16.433-8.876,24.229C91.346,173.09,87.588,171.73,84.11,170.251z
		 M105.62,227.385c-5.438-3.119-7.797-14.993-5.957-30.266c0.44-3.758,1.159-7.717,2.039-11.755
		c7.836,1.919,16.393,3.398,25.389,4.358c5.398,7.397,10.995,14.114,16.633,19.991c-13.034,12.115-25.269,18.752-33.585,18.752
		C108.339,228.425,106.819,228.065,105.62,227.385z M200.458,196.919c1.879,15.273-0.44,27.148-5.837,30.306
		c-1.199,0.72-2.759,1.04-4.598,1.04c-8.276,0-20.551-6.597-33.585-18.632c5.597-5.877,11.195-12.554,16.513-19.951
		c9.036-0.96,17.592-2.439,25.429-4.398C199.298,189.322,200.018,193.201,200.458,196.919z M215.851,170.251
		c-3.438,1.479-7.197,2.799-11.075,4.038c-2.279-7.837-5.278-15.993-8.996-24.349c3.678-8.316,6.637-16.433,8.876-24.229
		c3.958,1.239,7.717,2.599,11.235,4.078c14.154,6.037,23.31,13.954,23.31,20.231C239.16,156.297,230.004,164.254,215.851,170.251z"
		/>
	<path fill="#404969" d="M109.938,62.819L109.938,62.819L109.938,62.819z"/>
	<circle fill="#404969" cx="149.96" cy="150.02" r="18.272"/>
	<path fill="#404969" d="M189.782,62.699L189.782,62.699L189.782,62.699z"/>
</g>
</svg>
