<?xml version="1.0" encoding="utf-8"?>
<!-- Generator: Adobe Illustrator 17.0.0, SVG Export Plug-In . SVG Version: 6.00 Build 0)  -->
<!DOCTYPE svg PUBLIC "-//W3C//DTD SVG 1.1//EN" "http://www.w3.org/Graphics/SVG/1.1/DTD/svg11.dtd">
<svg version="1.1" id="Layer_1" xmlns="http://www.w3.org/2000/svg" xmlns:xlink="http://www.w3.org/1999/xlink" x="0px" y="0px"
	 width="300px" height="300px" viewBox="0 0 300 300" enable-background="new 0 0 300 300" xml:space="preserve">
<title>HTML5 Logo</title>
<g>
	<path fill="#404969" d="M160.041,106.725c-0.861,1.753-1.707,3.521-2.569,5.319c-0.937,1.964-1.874,3.959-2.826,6.014
		c-0.484,1.027-0.967,2.07-1.451,3.128c-1.451,3.158-2.916,6.422-4.412,9.791c-1.843,4.14-3.717,8.446-5.606,12.904
		c-0.376,0.891-0.761,1.817-1.141,2.721c0.382-0.907,0.764-1.811,1.141-2.706c1.889-4.473,3.777-8.779,5.606-12.904
		c1.496-3.37,2.962-6.633,4.412-9.791c0.484-1.058,0.967-2.1,1.451-3.128c0.952-2.055,1.889-4.049,2.826-6.014
		c0.876-1.813,1.723-3.581,2.569-5.319c0.287-0.574,0.559-1.148,0.846-1.723c0.025-0.051,0.048-0.104,0.066-0.154
		c-0.022,0.046-0.044,0.095-0.066,0.139C160.6,105.577,160.328,106.151,160.041,106.725z"/>
	<path fill="#404969" d="M132.314,170.489c-0.347,0.891-0.701,1.808-1.051,2.71c0.35-0.896,0.702-1.811,1.051-2.695
		c1.813-4.593,3.596-9.066,5.364-13.387c0.185-0.457,0.369-0.904,0.554-1.358c-0.185,0.452-0.368,0.888-0.554,1.343
		C135.895,161.423,134.112,165.881,132.314,170.489z"/>
	<path fill="#404969" d="M127.207,183.771c-0.573,1.526-1.155,3.085-1.735,4.64c0.579-1.55,1.159-3.104,1.735-4.625
		c0.076-0.196,0.151-0.423,0.227-0.62c0.348-0.924,0.695-1.822,1.042-2.736c-0.348,0.909-0.693,1.802-1.042,2.721
		C127.358,183.348,127.282,183.575,127.207,183.771z"/>
	<path fill="#404969" d="M176.723,127.58c-0.015,0.006-0.029,0.013-0.044,0.02c0.138-0.027,0.285-0.054,0.421-0.068
		c0.165-0.027,0.32-0.062,0.482-0.09c-0.156,0.025-0.31,0.052-0.467,0.075C176.988,127.542,176.853,127.563,176.723,127.58z"/>
	<path fill="#404969" d="M171.68,140.329c-0.138,0.019-0.276,0.039-0.415,0.052c-0.02,0.008-0.039,0.017-0.059,0.024
		c0,0.015-0.015,0.015-0.015,0.015c0.012-0.001,0.024-0.004,0.036-0.005c0.004-0.004,0.01-0.01,0.01-0.01
		C171.388,140.381,171.532,140.354,171.68,140.329z"/>
	<path fill="#404969" d="M198.741,54.277c-0.026,0.003-0.052,0.006-0.078,0.009C198.689,54.283,198.715,54.28,198.741,54.277z"/>
	<path fill="#404969" d="M203.603,34.877c0.423-0.453,0.62-0.665,0.62-0.665C204.026,34.424,203.799,34.666,203.603,34.877z"/>
	<path fill="#404969" d="M198.741,54.277c6.137-0.697,12.945-1.693,18.899-2.718c-0.001,0.006-0.003,0.012-0.004,0.018
		c0.006-0.001,0.013-0.002,0.019-0.003c2.871-16.002-2.795-23.315-2.795-23.315s-7.192-11.635-15.624-6.663
		c-4.095,2.418-10.909,9.262-19.008,19.19l7.449,14.083c5.243-7.479,10.562-14.234,15.926-19.991
		c0.196-0.212,0.423-0.453,0.62-0.665c0,0-0.196,0.212-0.62,0.665c-1.738,1.904-7.011,8.069-14.959,20.278
		c2.842-0.14,6.249-0.445,9.899-0.856c0.04-0.005,0.08-0.009,0.12-0.013C198.689,54.283,198.715,54.279,198.741,54.277z"/>
	<path fill="#404969" d="M185.663,102.058c-0.049,0.024-0.098,0.049-0.147,0.073c0.347-0.076,0.725-0.136,1.088-0.181
		c0.045-0.015,0.106-0.015,0.166-0.03l-1.051,0.118c-0.013,0.006-0.024,0.012-0.037,0.018L185.663,102.058z"/>
	<path fill="#404969" d="M127.207,183.771c0.076-0.196,0.151-0.423,0.227-0.62c0.349-0.92,0.694-1.812,1.042-2.721
		c0.931-2.45,1.86-4.86,2.787-7.231c0.35-0.902,0.704-1.818,1.051-2.71c1.798-4.609,3.581-9.066,5.364-13.387
		c0.186-0.455,0.369-0.891,0.554-1.343c1.273-3.126,2.549-6.177,3.805-9.157c0.38-0.905,0.765-1.83,1.141-2.721
		c1.889-4.457,3.762-8.764,5.606-12.904c1.496-3.37,2.962-6.633,4.412-9.791c0.484-1.058,0.967-2.1,1.451-3.128
		c0.952-2.055,1.889-4.049,2.826-6.014c0.861-1.798,1.707-3.566,2.569-5.319c0.287-0.574,0.559-1.148,0.846-1.723
		c0.022-0.044,0.044-0.093,0.066-0.139c0.014-0.039,0.025-0.076,0.025-0.103l0.025-0.003c0.007-0.015,0.013-0.027,0.02-0.043
		l-0.922,0.091l-0.699-1.383c-0.004,0.008-0.008,0.015-0.012,0.023l-0.015-0.03c-0.076,0.136-0.136,0.287-0.211,0.423
		c-1.315,2.599-2.614,5.228-3.898,7.872c-0.74,1.526-1.496,3.067-2.221,4.609c-2.04,4.261-4.034,8.582-6.014,12.934
		c-2.01,4.397-3.974,8.809-5.878,13.236c-1.874,4.352-3.717,8.719-5.53,13.04s-3.566,8.643-5.288,12.934
		c-1.783,4.473-3.536,8.915-5.228,13.297c-0.393,0.967-0.756,1.964-1.163,2.977c-1.353,3.518-2.676,7.006-3.954,10.435l1.144,2.258
		l1.028-0.106c0.03-0.106,0.076-0.196,0.106-0.317c0.778-2.089,1.548-4.157,2.313-6.209c0.298-0.804,0.595-1.591,0.892-2.388
		C126.052,186.856,126.634,185.298,127.207,183.771z"/>
	<path fill="#404969" d="M171.68,140.329c-0.149,0.025-0.293,0.052-0.443,0.076c0,0-0.005,0.006-0.01,0.01
		c0.501-0.06,0.988-0.133,1.475-0.221c0.148-0.027,0.289-0.058,0.435-0.085c0.342-0.072,0.684-0.141,1.031-0.217
		c-0.641,0.112-1.296,0.23-1.96,0.346c0.164-0.026,0.331-0.045,0.495-0.074C172.373,140.225,172.028,140.282,171.68,140.329z"/>
	<path opacity="0.35" fill="#404969" enable-background="new    " d="M171.68,140.329c-0.149,0.025-0.293,0.052-0.443,0.076
		c0,0-0.005,0.006-0.01,0.01c0.501-0.06,0.988-0.133,1.475-0.221c0.148-0.027,0.289-0.058,0.435-0.085
		c0.342-0.072,0.684-0.141,1.031-0.217c-0.641,0.112-1.296,0.23-1.96,0.346c0.164-0.026,0.331-0.045,0.495-0.074
		C172.373,140.225,172.028,140.282,171.68,140.329z"/>
	<path fill="#404969" d="M177.115,127.517c0.158-0.023,0.312-0.05,0.467-0.075c0.316-0.054,0.628-0.113,0.936-0.175
		c0.152-0.032,0.306-0.06,0.456-0.098c-0.72,0.13-1.442,0.259-2.201,0.389c-0.017,0.007-0.032,0.015-0.049,0.022
		C176.853,127.563,176.988,127.542,177.115,127.517z"/>
	<path opacity="0.35" fill="#404969" enable-background="new    " d="M177.115,127.517c0.158-0.023,0.312-0.05,0.467-0.075
		c0.316-0.054,0.628-0.113,0.936-0.175c0.152-0.032,0.306-0.06,0.456-0.098c-0.72,0.13-1.442,0.259-2.201,0.389
		c-0.017,0.007-0.032,0.015-0.049,0.022C176.853,127.563,176.988,127.542,177.115,127.517z"/>
	<path fill="#404969" d="M159.376,103.371l0.027,0.053c2.051-4.147,4.163-8.204,6.274-12.156c2.266-4.246,4.563-8.386,6.875-12.405
		c2.402-4.201,4.85-8.25,7.313-12.179c0.136-0.227,0.302-0.468,0.438-0.695c2.433-3.853,4.896-7.57,7.359-11.106L180.213,40.8
		c-0.559,0.68-1.118,1.375-1.692,2.1c-2.161,2.69-4.382,5.56-6.679,8.628c-2.584,3.445-5.228,7.132-7.933,11
		c-2.478,3.566-5.017,7.298-7.555,11.181c-2.161,3.294-4.306,6.679-6.452,10.154c-0.076,0.121-0.151,0.257-0.227,0.393l9.689,19.137
		C159.368,103.386,159.372,103.378,159.376,103.371z"/>
	<path fill="#404969" d="M159.364,103.394l0.011,0.023l0,0l0.015,0.03c0.004-0.008,0.008-0.015,0.012-0.023l-0.027-0.053
		C159.372,103.378,159.368,103.386,159.364,103.394z"/>
	<path fill="#404969" d="M122.175,197.37c0.001-0.006,0.004-0.01,0.005-0.016l-0.005,0.001c-0.257,0.665-0.484,1.315-0.74,1.979
		c-1.284,3.521-2.584,7.132-3.868,10.804c-0.015,0.045-0.03,0.106-0.06,0.151c-0.181,0.514-0.378,1.043-0.544,1.556
		c-0.876,2.478-1.632,4.714-3.37,9.776c2.856,1.299,5.152,4.745,7.328,8.643c-0.227-4.034-1.889-7.827-5.077-10.758
		c14.098,0.635,26.246-2.931,32.532-13.236c0.559-0.922,1.073-1.874,1.541-2.916c-2.856,3.626-6.407,5.152-13.07,4.79
		c-0.015,0-0.03,0.015-0.045,0.015c0.015,0,0.03-0.015,0.045-0.015c9.822-4.397,14.732-8.613,19.099-15.593
		c1.027-1.662,2.04-3.46,3.067-5.47c-8.582,8.809-18.51,11.317-28.981,9.414l-0.056,0.006c0.018,0.003,0.038,0.005,0.056,0.009
		L122.175,197.37z"/>
	<path fill="#404969" d="M123.958,184.678c0.393-0.982,0.755-1.964,1.148-2.962c1.692-4.382,3.43-8.824,5.228-13.297
		c1.723-4.276,3.49-8.598,5.288-12.934c1.798-4.337,3.657-8.688,5.53-13.04c1.934-4.427,3.883-8.839,5.878-13.236
		c1.979-4.321,3.974-8.658,6.014-12.934c0.74-1.526,1.481-3.067,2.221-4.609c1.284-2.644,2.599-5.258,3.898-7.872
		c0.071-0.129,0.13-0.27,0.2-0.4l-9.689-19.137l0,0l-0.015-0.03c-0.151,0.257-0.317,0.529-0.484,0.771
		c-2.267,3.702-4.518,7.479-6.724,11.333c-2.236,3.898-4.427,7.872-6.573,11.907c-1.798,3.4-3.566,6.815-5.304,10.29
		c-0.347,0.695-0.68,1.405-1.027,2.1c-2.115,4.367-4.019,8.552-5.757,12.617c-1.964,4.578-3.687,8.96-5.183,13.115
		c-0.997,2.735-1.889,5.364-2.72,7.903c-0.68,2.161-1.315,4.337-1.949,6.497c-1.451,5.077-2.705,10.154-3.732,15.201l0.011,0.022
		c0.001-0.007,0.003-0.015,0.004-0.022l9.759,19.231c0.002-0.006,0.004-0.012,0.007-0.018l-0.004-0.009
		C121.268,191.719,122.598,188.213,123.958,184.678z"/>
	<path fill="#404969" d="M125.106,181.761c1.692-4.382,3.445-8.824,5.228-13.297c1.723-4.291,3.475-8.613,5.288-12.934
		c1.813-4.321,3.657-8.688,5.53-13.04c1.904-4.427,3.868-8.839,5.878-13.236c1.979-4.352,3.974-8.673,6.014-12.934
		c0.725-1.541,1.481-3.082,2.221-4.609c1.284-2.644,2.584-5.273,3.898-7.872c0.076-0.136,0.136-0.287,0.211-0.423l-0.011-0.023
		c-0.07,0.13-0.129,0.272-0.2,0.4c-1.299,2.614-2.614,5.228-3.898,7.872c-0.74,1.541-1.481,3.082-2.221,4.609
		c-2.04,4.276-4.034,8.613-6.014,12.934c-1.995,4.397-3.944,8.809-5.878,13.236c-1.874,4.352-3.732,8.703-5.53,13.04
		c-1.798,4.337-3.566,8.658-5.288,12.934c-1.798,4.473-3.536,8.915-5.228,13.297c-0.393,0.997-0.756,1.979-1.148,2.962
		c-1.36,3.536-2.69,7.041-3.974,10.486l0.004,0.009c1.278-3.428,2.601-6.916,3.954-10.435
		C124.351,183.726,124.713,182.729,125.106,181.761z"/>
	<rect x="154.52" y="83.1" fill="#404969" width="0" height="21.45"/>
	<rect x="154.52" y="83.1" fill="#404969" width="0" height="21.45"/>
	<rect x="159.37" y="103.392" fill="#404969" width="0" height="0.025"/>
	<rect x="159.37" y="103.392" fill="#404969" width="0" height="0.025"/>
	<path fill="#404969" d="M110.219,175.981c-0.03,0.192-0.073,0.409-0.117,0.628c-1.224,6.165-2.1,12.3-2.538,18.404
		c-0.015,0.212-0.03,0.423-0.045,0.635c-3.052-4.881-11.197-9.64-11.181-9.595c5.848,8.462,10.275,16.863,10.925,25.113
		c-3.128,0.635-7.404-0.287-12.345-2.1c5.153,4.745,9.021,6.044,10.547,6.407c-4.745,0.302-9.67,3.551-14.642,7.298
		c7.268-2.962,13.146-4.14,17.346-3.188c-6.679,18.887-13.357,39.739-20.051,61.891c2.055-0.604,3.279-1.995,3.959-3.853
		c1.194-4.004,9.096-30.326,21.502-64.882c0.363-0.982,0.71-1.979,1.073-2.962c0.091-0.287,0.196-0.559,0.302-0.816
		c1.299-3.626,2.674-7.328,4.065-11.106c0.317-0.861,0.635-1.723,0.967-2.584c0-0.015,0.015-0.03,0.015-0.045l-0.017-0.034
		c-0.004,0.011-0.009,0.023-0.013,0.034L110.219,175.981z"/>
	<path fill="#404969" d="M110.219,175.981l9.75,19.243c0.004-0.011,0.009-0.023,0.013-0.034l-9.759-19.231
		C110.222,175.966,110.22,175.974,110.219,175.981z"/>
	<path fill="#404969" d="M110.219,175.981l9.75,19.243c0.004-0.011,0.009-0.023,0.013-0.034l-9.759-19.231
		C110.222,175.966,110.22,175.974,110.219,175.981z"/>
	<path fill="#404969" d="M176.646,127.607c0,0,0,0,0.015,0c0.006-0.002,0.011-0.005,0.017-0.008
		c-0.015,0.003-0.032,0.005-0.047,0.008H176.646z"/>
	<path fill="#404969" d="M161.009,104.758l-0.007,0.001c-0.017,0.037-0.033,0.071-0.05,0.106c-0.017,0.05-0.04,0.103-0.066,0.154
		c-0.287,0.574-0.559,1.148-0.846,1.723c-0.846,1.738-1.692,3.506-2.569,5.319c-0.937,1.964-1.874,3.959-2.826,6.014
		c-0.484,1.028-0.967,2.07-1.451,3.128c-1.451,3.158-2.916,6.422-4.412,9.791c-1.828,4.125-3.717,8.431-5.606,12.904
		c-0.378,0.895-0.759,1.799-1.141,2.706c-1.254,2.987-2.523,6.034-3.805,9.157c-0.185,0.453-0.37,0.901-0.554,1.358
		c-1.768,4.321-3.551,8.794-5.364,13.387c-0.349,0.884-0.701,1.798-1.051,2.695c-0.922,2.373-1.851,4.784-2.787,7.231
		c-0.348,0.914-0.695,1.812-1.042,2.736c-0.076,0.196-0.151,0.423-0.227,0.62c-0.576,1.521-1.156,3.074-1.735,4.625
		c-0.298,0.797-0.593,1.585-0.892,2.388c-0.765,2.063-1.531,4.144-2.298,6.254c-0.029,0.101-0.07,0.189-0.101,0.302l7.796-0.855
		c-0.136-0.024-0.28-0.04-0.413-0.067c9.383-1.163,21.879-8.19,29.933-16.848c3.717-3.989,7.087-8.703,10.199-14.218
		c2.312-4.095,4.503-8.658,6.588-13.69c1.813-4.397,3.551-9.172,5.228-14.324c-2.161,1.133-4.624,1.979-7.343,2.554
		c-0.34,0.074-0.685,0.137-1.031,0.202c-0.134,0.028-0.273,0.055-0.405,0.085c-0.499,0.076-0.997,0.151-1.511,0.227
		c0-0.005,0.003-0.003,0.005-0.005c-0.012,0.001-0.023,0.004-0.036,0.005c0,0,0.015,0,0.015-0.015
		c0.02-0.008,0.039-0.017,0.059-0.024c-0.025,0.002-0.049,0.007-0.074,0.009c0.027-0.003,0.053-0.009,0.081-0.012
		c8.725-3.377,14.224-9.86,18.218-17.803c-2.297,1.572-6.044,3.626-10.532,4.609c-0.143,0.032-0.296,0.053-0.441,0.082
		c-0.034,0.007-0.069,0.015-0.103,0.022c0.184-0.036,0.377-0.064,0.559-0.104c-0.182,0.041-0.374,0.068-0.559,0.104
		c-0.24,0.049-0.482,0.096-0.726,0.136c-0.193,0.034-0.378,0.075-0.574,0.107c0.196-0.033,0.381-0.074,0.574-0.107
		c-0.035,0.006-0.071,0.011-0.106,0.017c-0.163,0.028-0.318,0.063-0.482,0.09c-0.136,0.014-0.283,0.041-0.421,0.068
		c-0.006,0.002-0.011,0.005-0.017,0.008c-0.015,0-0.015,0-0.015,0h-0.015c0.015-0.003,0.032-0.005,0.047-0.008
		c0.015-0.006,0.029-0.013,0.044-0.02c-0.025,0.003-0.052,0.01-0.076,0.012c0-0.015,0-0.015,0.015-0.015
		c0.038-0.006,0.073-0.013,0.11-0.019c3.002-1.257,5.523-2.676,7.717-4.332c0.484-0.363,0.952-0.725,1.375-1.118
		c0.68-0.589,1.315-1.209,1.949-1.843c0.393-0.423,0.771-0.846,1.148-1.284c0.876-1.043,1.692-2.161,2.448-3.37
		c0.227-0.378,0.468-0.74,0.68-1.133c0.302-0.559,0.574-1.118,0.846-1.647c1.224-2.448,2.206-4.654,2.977-6.573
		c0.393-0.967,0.725-1.843,1.028-2.69c0.121-0.332,0.227-0.65,0.332-0.967c0.317-0.922,0.559-1.738,0.755-2.463
		c0.302-1.088,0.484-1.949,0.574-2.569c-0.302,0.227-0.635,0.468-1.027,0.695c-2.644,1.587-7.177,3.007-10.834,3.687l7.207-0.786
		l-7.207,0.786c-0.045,0.015-0.106,0.015-0.166,0.03c-0.378,0.06-0.725,0.121-1.103,0.166c0.058-0.029,0.115-0.058,0.173-0.086
		l-24.636,2.7C161.008,104.76,161.009,104.759,161.009,104.758z"/>
	<path fill="#404969" d="M131.263,173.199c-0.927,2.371-1.856,4.781-2.787,7.231C129.412,177.983,130.341,175.573,131.263,173.199z"
		/>
	<path fill="#404969" d="M160.953,104.864c0.017-0.035,0.033-0.068,0.05-0.106l-0.025,0.003
		C160.977,104.787,160.966,104.825,160.953,104.864z"/>
	<path fill="#404969" d="M124.579,190.799c0.3-0.803,0.595-1.591,0.892-2.388C125.174,189.207,124.877,189.995,124.579,190.799z"/>
	<path fill="#404969" d="M142.037,146.602c-1.256,2.98-2.531,6.032-3.805,9.157C139.514,152.636,140.782,149.589,142.037,146.602z"
		/>
	<path fill="#404969" d="M171.227,140.415c-0.002,0.002-0.005,0-0.005,0.005c0.514-0.076,1.012-0.151,1.511-0.227
		c0.132-0.03,0.271-0.057,0.405-0.085c-0.146,0.027-0.287,0.058-0.435,0.085C172.216,140.282,171.728,140.355,171.227,140.415z"/>
	<path opacity="0.35" fill="#404969" enable-background="new    " d="M171.227,140.415c-0.002,0.002-0.005,0-0.005,0.005
		c0.514-0.076,1.012-0.151,1.511-0.227c0.132-0.03,0.271-0.057,0.405-0.085c-0.146,0.027-0.287,0.058-0.435,0.085
		C172.216,140.282,171.728,140.355,171.227,140.415z"/>
	<path fill="#404969" d="M171.227,140.415c-0.002,0.002-0.005,0-0.005,0.005c0.514-0.076,1.012-0.151,1.511-0.227
		c0.132-0.03,0.271-0.057,0.405-0.085c-0.146,0.027-0.287,0.058-0.435,0.085C172.216,140.282,171.728,140.355,171.227,140.415z"/>
	<path fill="#404969" d="M177.688,127.424c0.244-0.042,0.487-0.089,0.726-0.136c0.034-0.007,0.069-0.015,0.103-0.022
		c-0.308,0.062-0.62,0.121-0.936,0.175C177.618,127.436,177.653,127.43,177.688,127.424z"/>
	<path opacity="0.35" fill="#404969" enable-background="new    " d="M177.688,127.424c0.244-0.042,0.487-0.089,0.726-0.136
		c0.034-0.007,0.069-0.015,0.103-0.022c-0.308,0.062-0.62,0.121-0.936,0.175C177.618,127.436,177.653,127.43,177.688,127.424z"/>
	<path fill="#404969" d="M177.688,127.424c0.244-0.042,0.487-0.089,0.726-0.136c0.034-0.007,0.069-0.015,0.103-0.022
		c-0.308,0.062-0.62,0.121-0.936,0.175C177.618,127.436,177.653,127.43,177.688,127.424z"/>
	<path fill="#404969" d="M176.646,127.592c0.025-0.002,0.051-0.009,0.076-0.012c0.017-0.007,0.032-0.015,0.049-0.022
		c-0.037,0.006-0.073,0.013-0.11,0.019C176.646,127.577,176.646,127.577,176.646,127.592z"/>
	<path opacity="0.35" fill="#404969" enable-background="new    " d="M176.646,127.592c0.025-0.002,0.051-0.009,0.076-0.012
		c0.017-0.007,0.032-0.015,0.049-0.022c-0.037,0.006-0.073,0.013-0.11,0.019C176.646,127.577,176.646,127.577,176.646,127.592z"/>
	<path fill="#404969" d="M176.646,127.592c0.025-0.002,0.051-0.009,0.076-0.012c0.017-0.007,0.032-0.015,0.049-0.022
		c-0.037,0.006-0.073,0.013-0.11,0.019C176.646,127.577,176.646,127.577,176.646,127.592z"/>
	<path fill="#404969" d="M178.415,127.289c-0.24,0.047-0.482,0.093-0.726,0.136C177.933,127.384,178.175,127.338,178.415,127.289z"
		/>
	<path opacity="0.35" fill="#404969" enable-background="new    " d="M178.415,127.289c-0.24,0.047-0.482,0.093-0.726,0.136
		C177.933,127.384,178.175,127.338,178.415,127.289z"/>
	<path fill="#404969" d="M178.415,127.289c-0.24,0.047-0.482,0.093-0.726,0.136C177.933,127.384,178.175,127.338,178.415,127.289z"
		/>
	<path fill="#404969" d="M122.175,197.37l7.857-0.861c-0.018-0.004-0.037-0.006-0.056-0.009l-7.796,0.855
		C122.179,197.36,122.176,197.364,122.175,197.37z"/>
	<path fill="#404969" d="M122.175,197.37l7.857-0.861c-0.018-0.004-0.037-0.006-0.056-0.009l-7.796,0.855
		C122.179,197.36,122.176,197.364,122.175,197.37z"/>
	<path fill="#404969" d="M216.567,56.454c0.452-1.701,0.798-3.326,1.069-4.877c-5.966,1.014-12.765,2.005-18.895,2.7
		c-0.026,0.003-0.052,0.006-0.078,0.009c-0.04,0.005-0.08,0.009-0.12,0.013c-3.646,0.411-7.05,0.716-9.884,0.856
		c-2.191,3.37-4.578,7.192-7.177,11.529c-0.136,0.212-0.287,0.468-0.408,0.68c-2.221,3.747-4.578,7.857-7.087,12.375
		c-2.146,3.898-4.382,8.069-6.709,12.556c-2.024,3.912-4.109,8.067-6.269,12.462l24.643-2.701c-0.003,0.001-0.006,0.003-0.009,0.004
		l0.019-0.002c0.011-0.006,0.023-0.011,0.034-0.017l0.022-0.002c7.165-3.302,10.364-6.276,13.471-10.605
		c0.816-1.194,1.662-2.433,2.478-3.732c2.539-3.959,5.017-8.311,7.238-12.647c2.146-4.185,4.034-8.326,5.485-12.073
		C215.313,60.61,216.053,58.403,216.567,56.454z"/>
	<path fill="#404969" d="M198.741,54.277c6.13-0.695,12.929-1.685,18.895-2.7c0.001-0.006,0.003-0.012,0.004-0.018
		C211.686,52.584,204.878,53.58,198.741,54.277z"/>
	<path fill="#404969" d="M198.741,54.277c6.13-0.695,12.929-1.685,18.895-2.7c0.001-0.006,0.003-0.012,0.004-0.018
		C211.686,52.584,204.878,53.58,198.741,54.277z"/>
	<path fill="#404969" d="M198.543,54.299c0.04-0.005,0.08-0.009,0.12-0.013C198.623,54.29,198.584,54.294,198.543,54.299z"/>
	<path fill="#404969" d="M198.543,54.299c0.04-0.005,0.08-0.009,0.12-0.013C198.623,54.29,198.584,54.294,198.543,54.299z"/>
	<path fill="#404969" d="M185.663,102.058l0.019-0.002c0.013-0.006,0.024-0.012,0.037-0.018l-0.022,0.002
		C185.686,102.047,185.674,102.053,185.663,102.058z"/>
	<polygon fill="#404969" points="161.009,104.758 161.008,104.761 185.644,102.061 185.652,102.056 	"/>
	<polygon fill="#404969" points="161.009,104.758 161.008,104.761 185.644,102.061 185.652,102.056 	"/>
	<path fill="#404969" d="M171.68,140.329c0.177-0.03,0.353-0.061,0.528-0.091c-0.31,0.05-0.619,0.102-0.936,0.14
		c-0.002,0.001-0.004,0.002-0.007,0.003C171.405,140.368,171.542,140.348,171.68,140.329z"/>
	<path opacity="0.35" fill="#404969" enable-background="new    " d="M171.68,140.329c0.177-0.03,0.353-0.061,0.528-0.091
		c-0.31,0.05-0.619,0.102-0.936,0.14c-0.002,0.001-0.004,0.002-0.007,0.003C171.405,140.368,171.542,140.348,171.68,140.329z"/>
	<path fill="#404969" d="M171.68,140.329c0.177-0.03,0.353-0.061,0.528-0.091c-0.31,0.05-0.619,0.102-0.936,0.14
		c-0.002,0.001-0.004,0.002-0.007,0.003C171.405,140.368,171.542,140.348,171.68,140.329z"/>
	<path fill="#404969" d="M172.703,140.164c-0.163,0.03-0.331,0.048-0.495,0.074c-0.175,0.031-0.35,0.061-0.528,0.091
		C172.028,140.282,172.373,140.225,172.703,140.164z"/>
	<path opacity="0.35" fill="#404969" enable-background="new    " d="M172.703,140.164c-0.163,0.03-0.331,0.048-0.495,0.074
		c-0.175,0.031-0.35,0.061-0.528,0.091C172.028,140.282,172.373,140.225,172.703,140.164z"/>
	<path fill="#404969" d="M172.703,140.164c-0.163,0.03-0.331,0.048-0.495,0.074c-0.175,0.031-0.35,0.061-0.528,0.091
		C172.028,140.282,172.373,140.225,172.703,140.164z"/>
	<path fill="#404969" d="M171.266,140.381c0.002-0.001,0.004-0.002,0.007-0.003c-0.027,0.003-0.053,0.009-0.081,0.012
		C171.216,140.388,171.241,140.383,171.266,140.381z"/>
	<path opacity="0.35" fill="#404969" enable-background="new    " d="M171.266,140.381c0.002-0.001,0.004-0.002,0.007-0.003
		c-0.027,0.003-0.053,0.009-0.081,0.012C171.216,140.388,171.241,140.383,171.266,140.381z"/>
	<path fill="#404969" d="M171.266,140.381c0.002-0.001,0.004-0.002,0.007-0.003c-0.027,0.003-0.053,0.009-0.081,0.012
		C171.216,140.388,171.241,140.383,171.266,140.381z"/>
</g>
</svg>
