<?xml version="1.0" encoding="utf-8"?>
<!-- Generator: Adobe Illustrator 17.0.0, SVG Export Plug-In . SVG Version: 6.00 Build 0)  -->
<!DOCTYPE svg PUBLIC "-//W3C//DTD SVG 1.1//EN" "http://www.w3.org/Graphics/SVG/1.1/DTD/svg11.dtd">
<svg version="1.1" id="Layer_1" xmlns="http://www.w3.org/2000/svg" xmlns:xlink="http://www.w3.org/1999/xlink" x="0px" y="0px"
	 width="300px" height="300px" viewBox="0 0 300 300" enable-background="new 0 0 300 300" xml:space="preserve">
<g>
	<path fill="#404969" d="M212.685,118.928c-5.52,0-10.077,4.178-10.691,9.536c-0.046,0.405-0.076,0.815-0.076,1.232v46.083
		c0,0.417,0.03,0.827,0.076,1.232c0.614,5.359,5.171,9.535,10.691,9.535c5.937,0,10.767-4.83,10.767-10.767v-46.083
		C223.452,123.758,218.623,118.928,212.685,118.928z"/>
	<path fill="#404969" d="M83.652,118.928c-5.937,0-10.767,4.83-10.767,10.767v46.083c0,5.937,4.83,10.767,10.767,10.767
		c5.519,0,10.076-4.175,10.691-9.533c0.047-0.406,0.076-0.816,0.076-1.234v-46.083c0-0.418-0.03-0.829-0.076-1.234
		C93.728,123.104,89.171,118.928,83.652,118.928z"/>
	<path fill="#404969" d="M103.331,116.336h0.049h89.579h0.049h4.453h0.035c-0.034-4.178-0.683-8.218-1.858-12.056
		c-3.178-10.381-10.233-19.257-19.643-25.202c-0.631-0.399-1.274-0.783-1.926-1.155c-0.648-0.37-1.307-0.725-1.975-1.068
		l2.168-3.911l5.642-10.179c0.166-0.299,0.205-0.644,0.111-0.973c-0.094-0.328-0.311-0.601-0.61-0.767
		c-0.192-0.106-0.4-0.161-0.616-0.161c-0.467,0-0.898,0.253-1.123,0.66l-5.707,10.295l-2.173,3.92
		c-0.684-0.308-1.377-0.601-2.078-0.88c-0.701-0.279-1.41-0.542-2.127-0.792c-5.416-1.887-11.281-2.927-17.412-2.927
		c-6.131,0-11.996,1.04-17.412,2.927c-0.717,0.25-1.427,0.513-2.127,0.792c-0.701,0.28-1.395,0.572-2.079,0.88l-2.173-3.92
		l-5.707-10.295c-0.226-0.407-0.655-0.66-1.122-0.66c-0.217,0-0.424,0.054-0.617,0.161c-0.299,0.166-0.515,0.438-0.61,0.766
		c-0.094,0.328-0.055,0.674,0.111,0.973l5.643,10.18l2.168,3.911c-0.668,0.343-1.326,0.698-1.975,1.067
		c-0.652,0.372-1.295,0.756-1.926,1.155c-9.41,5.944-16.465,14.821-19.643,25.202c-1.175,3.838-1.824,7.878-1.858,12.056h0.035
		H103.331z M125.398,90.042c0.385,0,0.753,0.065,1.11,0.159c1.895,0.496,3.304,2.206,3.304,4.254c0,0.458-0.09,0.892-0.22,1.308
		c-0.561,1.792-2.218,3.105-4.193,3.105c-2.433,0-4.413-1.98-4.413-4.413S122.965,90.042,125.398,90.042z M170.939,90.042
		c2.434,0,4.414,1.98,4.414,4.413s-1.98,4.413-4.414,4.413c-1.975,0-3.631-1.313-4.192-3.105c-0.13-0.416-0.22-0.85-0.22-1.308
		c0-2.048,1.409-3.759,3.304-4.254C170.187,90.107,170.554,90.042,170.939,90.042z"/>
	<path fill="#404969" d="M193.017,120.825h-0.228h-89.239h-0.228h-4.277h-0.212v7.372v8.46v40.619v14.767
		c0,6.587,5.34,11.927,11.927,11.927h3.719h2.244h2.244v4.489v19.909c0,5.937,4.83,10.767,10.767,10.767
		c5.937,0,10.767-4.83,10.767-10.767v-19.909v-4.489h2.244h2.244h6.354h2.245h2.245v4.489v19.909c0,5.937,4.83,10.767,10.767,10.767
		s10.767-4.83,10.767-10.767v-19.909v-4.489h2.245h2.245h3.719c6.587,0,11.927-5.34,11.927-11.927v-14.756v-40.63v-8.471v-7.361
		h-0.212H193.017z"/>
</g>
</svg>
