<?xml version="1.0" encoding="utf-8"?>
<!-- Generator: Adobe Illustrator 17.0.0, SVG Export Plug-In . SVG Version: 6.00 Build 0)  -->
<!DOCTYPE svg PUBLIC "-//W3C//DTD SVG 1.1//EN" "http://www.w3.org/Graphics/SVG/1.1/DTD/svg11.dtd">
<svg version="1.1" id="Layer_1" xmlns="http://www.w3.org/2000/svg" xmlns:xlink="http://www.w3.org/1999/xlink" x="0px" y="0px"
	 width="300px" height="300px" viewBox="0 0 300 300" enable-background="new 0 0 300 300" xml:space="preserve">
<title>HTML5 Logo</title>
<g>
	<path fill="#404969" d="M82.074,76.888h135.852c5.359,0,9.704,4.345,9.704,9.704v135.852c0,5.359-4.344,9.704-9.704,9.704H82.074
		c-5.359,0-9.704-4.344-9.704-9.704V86.591C72.37,81.232,76.715,76.888,82.074,76.888z"/>
	
		<linearGradient id="SVGID_1_" gradientUnits="userSpaceOnUse" x1="2.3471" y1="3.0139" x2="2.3767" y2="2.865" gradientTransform="matrix(256 0 0 170.6667 -454 -321.2112)">
		<stop  offset="0" style="stop-color:#BDE4F4"/>
		<stop  offset="0.53" style="stop-color:#99C0C9"/>
		<stop  offset="1" style="stop-color:#779FA5"/>
	</linearGradient>
	<path fill="url(#SVGID_1_)" d="M194.36,154.905c0-1.351-0.998-2.13-2.223-1.743l-84.273,26.732
		c-1.227,0.39-2.223,1.802-2.223,3.151v27.321c0,1.351,0.996,2.133,2.223,1.743l84.273-26.729c1.225-0.39,2.223-1.802,2.223-3.153
		V154.905L194.36,154.905z"/>
	<path fill="#BDE4F4" d="M105.64,154.186c0,1.351,0.996,2.764,2.223,3.153l84.274,26.733c1.227,0.39,2.223-0.392,2.223-1.741
		v-27.322c0-1.349-0.996-2.761-2.223-3.151l-84.274-26.733c-1.227-0.39-2.223,0.39-2.223,1.741
		C105.64,126.866,105.64,154.186,105.64,154.186z"/>
	<path fill="#BDE4F4" d="M194.36,98.832c0-1.351-0.998-2.133-2.223-1.743l-84.273,26.729c-1.227,0.39-2.223,1.802-2.223,3.153
		v27.321c0,1.351,0.996,2.13,2.223,1.743l84.273-26.732c1.225-0.39,2.223-1.802,2.223-3.151V98.832z"/>
</g>
</svg>
