<?xml version="1.0" encoding="UTF-8" standalone="no"?>
<!-- Created with Inkscape (http://www.inkscape.org/) -->

<svg
   xmlns:dc="http://purl.org/dc/elements/1.1/"
   xmlns:cc="http://creativecommons.org/ns#"
   xmlns:rdf="http://www.w3.org/1999/02/22-rdf-syntax-ns#"
   xmlns:svg="http://www.w3.org/2000/svg"
   xmlns="http://www.w3.org/2000/svg"
   xmlns:sodipodi="http://sodipodi.sourceforge.net/DTD/sodipodi-0.dtd"
   xmlns:inkscape="http://www.inkscape.org/namespaces/inkscape"
   id="svg2"
   version="1.1"
   inkscape:version="0.48.4 r9939"
   width="509.0376"
   height="509.0372"
   xml:space="preserve"
   sodipodi:docname="copy of logo_diapos_libros_sin_texto_2.svg"
   inkscape:export-filename="/home/monty/Desktop/logo_diapos.png"
   inkscape:export-xdpi="77.249413"
   inkscape:export-ydpi="77.249413"><metadata
     id="metadata8"><rdf:RDF><cc:Work
         rdf:about=""><dc:format>image/svg+xml</dc:format><dc:type
           rdf:resource="http://purl.org/dc/dcmitype/StillImage" /><dc:title /></cc:Work></rdf:RDF></metadata><defs
     id="defs6"><clipPath
       clipPathUnits="userSpaceOnUse"
       id="clipPath22"><path
         d="m 720,2980 c 0,1325.5 1074.5,2400 2400,2400 1325.5,0 2400,-1074.5 2400,-2400 C 5520,1654.5 4445.5,580 3120,580 1794.5,580 720,1654.5 720,2980 z"
         id="path24"
         inkscape:connector-curvature="0" /></clipPath><clipPath
       clipPathUnits="userSpaceOnUse"
       id="clipPath22-1"><path
         inkscape:connector-curvature="0"
         d="m 720,2980 c 0,1325.5 1074.5,2400 2400,2400 1325.5,0 2400,-1074.5 2400,-2400 C 5520,1654.5 4445.5,580 3120,580 1794.5,580 720,1654.5 720,2980 z"
         id="path24-8" /></clipPath></defs><sodipodi:namedview
     pagecolor="#ffffff"
     bordercolor="#666666"
     borderopacity="1"
     objecttolerance="10"
     gridtolerance="10"
     guidetolerance="10"
     inkscape:pageopacity="0"
     inkscape:pageshadow="2"
     inkscape:window-width="1360"
     inkscape:window-height="719"
     id="namedview4"
     showgrid="false"
     inkscape:zoom="0.90509668"
     inkscape:cx="196.26475"
     inkscape:cy="311.79305"
     inkscape:window-x="0"
     inkscape:window-y="25"
     inkscape:window-maximized="1"
     inkscape:current-layer="g10"
     showguides="true"
     inkscape:guide-bbox="true"
     fit-margin-top="0"
     fit-margin-left="0"
     fit-margin-right="0"
     fit-margin-bottom="0"><sodipodi:guide
       orientation="1,0"
       position="504.14433,367.08884"
       id="guide6236" /><sodipodi:guide
       orientation="1,0"
       position="-114.98703,337.91511"
       id="guide6238" /></sodipodi:namedview><g
     id="g10"
     inkscape:groupmode="layer"
     inkscape:label="ink_ext_XXXXXX"
     transform="matrix(1.25,0,0,-1.25,-192.78364,764.32125)"
     style="opacity:1"><g
       id="g12"
       transform="scale(0.1,0.1)"
       style="opacity:0.3"><path
         d="m 1542.2691,4078.4212 c 0,1124.5478 911.6042,2036.1488 2036.1521,2036.1488 1124.5478,0 2036.1488,-911.601 2036.1488,-2036.1488 0,-1124.5479 -911.601,-2036.1489 -2036.1488,-2036.1489 -1124.5479,0 -2036.1521,911.601 -2036.1521,2036.1489"
         style="fill:#000080;fill-opacity:1;fill-rule:nonzero;stroke:none"
         id="path14"
         inkscape:connector-curvature="0"
         inkscape:export-filename="/media/monty/HD/Datos/restore/firma/logo/logo_diapos_2.png"
         inkscape:export-xdpi="60"
         inkscape:export-ydpi="60" /><path
         d="m 1619.4634,4078.4212 c 0,1081.916 877.0418,1958.9577 1958.9578,1958.9577 1081.916,0 1958.9577,-877.0417 1958.9577,-1958.9577 0,-1081.916 -877.0417,-1958.9578 -1958.9577,-1958.9578 -1081.916,0 -1958.9578,877.0418 -1958.9578,1958.9578"
         style="fill:#ffffff;fill-opacity:1;fill-rule:nonzero;stroke:none"
         id="path16"
         inkscape:connector-curvature="0"
         inkscape:export-filename="/media/monty/HD/Datos/restore/firma/logo/logo_diapos_2.png"
         inkscape:export-xdpi="60"
         inkscape:export-ydpi="60" /><g
         id="g18"
         transform="matrix(0.81623239,0,0,0.81623239,1031.7762,1646.0487)"
         inkscape:export-filename="/media/monty/HD/Datos/restore/firma/logo/logo_diapos_2.png"
         inkscape:export-xdpi="60"
         inkscape:export-ydpi="60"
         style="fill:#000080"><g
           id="g20"
           clip-path="url(#clipPath22)"
           style="fill:#000080"><path
             d="m 2713.75,3049.16 461.91,-16.17 c 50.67,-1.77 98.04,-37.95 119.61,-77.31 l 159.19,-290.5 c 124.92,446.14 491.18,360.42 408.62,-60.06 -42.49,-216.35 -259.1,-1370.71 -259.1,-1370.71 -22.43,-131.7 -542.45,-11.86 -507.88,98.92 l 325.96,1243.88 -188.94,344.41 c -11.87,21.65 -38.7,39.81 -59.94,40.55 l -2318.969,81.19 c -21.238,0.74 -28.836,-16.21 -16.969,-37.86 l 495.608,-904.41 -1776.596,-742.91 -36.121,-196.01 7685.637,-678.213 0.03,165.051 -474.45,306.777 -120.3,204.025 7.82,222.23 -2228.44,331.08 -170.8,46.81 -95.1,37.7 0.83,97.47 -136.18,1.15 -181.04,72.81 8.8,144.51 233.29,-0.99 9.22,126.71 -182.29,10.93 29.45,219.14 94.73,3.58 26.91,312.33 72.72,14.3 11.13,309.45 14.47,30.94 -11.94,18.35 7.16,165.55 -38.93,-17.3 -3.98,309.48 c -212.02,68.78 -556.08,68.69 -539.27,157.64 9.47,50.16 106.28,86.43 133.56,198.11 59.99,245.66 -43.19,230.53 -46.21,253.32 19.82,14.05 23,38.93 22.22,48.94 -67.63,857.41 -630.95,810.78 -630.95,810.78 -28.3,0.05 -144.27,21.96 -147,21.96 -18.27,0 -47.1,-9.33 -51.86,-21.99 -9.69,10.15 -20.28,14.68 -39.45,14.68 -18.27,0 -79.83,-11.19 -112.7,-23.97 -31.95,-11.87 -29.77,-53.23 -58.51,-71.01 -5.18,6.26 -7.53,14.63 -7.53,14.63 -17.88,-23.54 -69.63,-47.48 -69.63,-29.22 0,18.27 14.23,16.63 21.43,35.27 l -49.12,0 c -8.64,-23.15 -6.81,-42.95 -16.63,-51.69 18.05,7.91 22.41,20.08 21.34,32.1 4.72,-1.07 9.45,-7.3 15.73,-12.61 -6.97,-12.39 -5.34,-32.67 -21.96,-43.24 16.62,-10.57 7.47,-21.81 13.91,-25.36 l -16.94,-7.56 c -20.51,14.04 -27.26,42.81 -46.62,57.77 22.68,-49.39 -57.16,-81.94 -59,-107.63 10.03,-1.23 30.31,-0.84 43.65,-6.64 l 0,-24 c -26.43,0.2 -62.84,0.2 -95.43,-2.06 15.4,-18.59 38.27,-19.27 50.93,-24.04 -50.34,-57.17 -66.57,-56.95 -113.88,-105.24 -12.39,6.97 -21.33,21.97 -39.16,20.04 14.79,-25.66 43.4,-52.86 43.4,-71.12 0,-18.26 -6.24,-8.38 -11.55,-14.66 -12.39,6.97 -34.78,14.47 -59.99,21.28 -1.51,-17.58 20.79,-26.52 28.13,-37.8 l -24.46,-5.68 c -5.57,12.92 -21.81,21.87 -40.63,28.48 13.92,-33.43 43.37,-41.13 57.48,-60.08 -12.71,-4.97 -22.03,-15.55 -21.43,-24.87 44.54,-19.6 357.5,47.62 349.25,-25.57 275.15,-17.43 205.24,-509.32 205.24,-509.32 -0.56,-21.8 -20.69,-87.71 -20.69,-87.71 110.02,-58.44 50.02,-331.46 50.02,-331.46 -6.96,-13.81 -21.96,-30.05 -21.96,-48.31 0,-18.27 24.69,-27.19 25.02,-45.45 0.67,-37.86 -53.76,-69.82 -42.51,-78.61 -0.7,-49.47 47.25,-73.86 41.81,-126.68 -0.21,-2.05 45.52,-14.87 59.79,-42.37 23.66,-45.55 20.91,-114.15 20.91,-114.15 0,0 -72.92,-6.27 -88.36,-6.27 -18.26,0 -75.13,57.01 -75.13,57.01 l -0.39,-152.52"
             style="fill:#000080;fill-opacity:0.26881722000000002;fill-rule:nonzero;stroke:none"
             id="path26"
             inkscape:connector-curvature="0" /><path
             d="m 3090.32,1321.34 c 0,0 177.22,-204.79 506.73,-107.86 0,0 6.5,-65.1 204.49,49.79 l 33.94,0 c -208.14,-192.34 -575.93,-175.49 -741.45,-0.81 l -3.71,58.88"
             style="fill:#000080;fill-opacity:1;fill-rule:nonzero;stroke:none"
             id="path28"
             inkscape:connector-curvature="0" /><path
             d="m 3568.82,2627.44 c 25.24,88.05 85.35,148.06 134.26,134.03 48.9,-14.03 68.09,-96.79 42.85,-184.84 -25.24,-88.06 -85.35,-148.07 -134.25,-134.04 -48.91,14.03 -68.1,96.79 -42.86,184.85"
             style="fill:#000080;fill-opacity:1;fill-rule:nonzero;stroke:none"
             id="path30"
             inkscape:connector-curvature="0" /><path
             d="m 3588.98,2377.21 c -2.45,0.5 -4.88,1.1 -7.3,1.79 -78.36,22.47 -113.13,140.96 -77.66,264.66 34.67,120.92 123.17,202.03 200.8,184.64 -66.23,-9.99 -134.07,-86.74 -164.43,-192.61 -32.5,-113.33 -10.43,-221.16 48.59,-258.48"
             style="fill:#000080;fill-opacity:1;fill-rule:nonzero;stroke:none"
             id="path32"
             inkscape:connector-curvature="0" /><path
             d="m 3197.54,1720.79 -1725.24,108.51 18.63,-31.84 1691.46,-134.38 15.15,57.71"
             style="fill:#000080;fill-opacity:1;fill-rule:nonzero;stroke:none"
             id="path34"
             inkscape:connector-curvature="0" /><path
             d="m 4400.68,4581.06 0,-261.12 2571.26,-144.03 0,237.66 -2571.26,167.49"
             style="fill:#000080;fill-opacity:1;fill-rule:nonzero;stroke:none"
             id="path36"
             inkscape:connector-curvature="0" /><path
             d="m 4268.38,1429.34 -19.55,-237.66 2360.75,-31.28 7.82,222.23 -2349.02,46.71"
             style="fill:#000080;fill-opacity:1;fill-rule:nonzero;stroke:none"
             id="path38"
             inkscape:connector-curvature="0" /><path
             d="m 4218.16,1760.52 100.83,-81.79 -15.63,-222.23 2419.4,-50.62 11.52,257.21 -2345.33,50.62 -170.79,46.81"
             style="fill:#000080;fill-opacity:1;fill-rule:nonzero;stroke:none"
             id="path40"
             inkscape:connector-curvature="0" /><path
             d="m 6368.22,1818.86 -1982.97,62.34 -7.82,-147.94 2275.16,-77.99 7.82,155.77 -288.28,77.98 -3.91,-70.16"
             style="fill:#000080;fill-opacity:1;fill-rule:nonzero;stroke:none"
             id="path42"
             inkscape:connector-curvature="0" /><path
             d="m 3991.62,2095.41 -3.91,-198.57 2380.51,-77.98 7.61,136.42 -2384.21,140.13"
             style="fill:#000080;fill-opacity:1;fill-rule:nonzero;stroke:none"
             id="path44"
             inkscape:connector-curvature="0" /><path
             d="m 4155.2,2227.92 -7.61,-136.42 2832.17,-167.5 3.91,116.88 -2828.47,187.04"
             style="fill:#000080;fill-opacity:1;fill-rule:nonzero;stroke:none"
             id="path46"
             inkscape:connector-curvature="0" /><path
             d="m 4198.21,2251.38 2797.18,-124.7 3.91,202.48 -2785.66,116.87 -15.43,-194.65"
             style="fill:#000080;fill-opacity:1;fill-rule:nonzero;stroke:none"
             id="path48"
             inkscape:connector-curvature="0" /><path
             d="m 4326.81,2753.86 -19.54,-249.39 2820.64,-155.77 19.34,241.57 -2820.44,163.59"
             style="fill:#000080;fill-opacity:1;fill-rule:nonzero;stroke:none"
             id="path50"
             inkscape:connector-curvature="0" /><path
             d="m 4295.54,3178.56 -15.64,-374.08 2851.92,-105.15 23.25,346.72 -2859.53,132.51"
             style="fill:#000080;fill-opacity:0.43548387000000000;fill-rule:nonzero;stroke:none"
             id="path52"
             inkscape:connector-curvature="0" /><path
             d="m 4412.41,3451.2 0,-233.75 2828.47,-147.95 19.33,225.93 -2847.8,155.77"
             style="fill:#000080;fill-opacity:1;fill-rule:nonzero;stroke:none"
             id="path54"
             inkscape:connector-curvature="0" /><path
             d="m 4096.77,4331.67 -7.61,-432.31 2949.04,-97.54 c 0,0 70.16,144.25 19.54,401.25 l -2960.97,128.6"
             style="fill:#000080;fill-opacity:1;fill-rule:nonzero;stroke:none"
             id="path56"
             inkscape:connector-curvature="0" /><path
             d="m 4435.87,3860.26 c 0,0 218.11,210.5 218.11,27.37 0,-105.21 7.82,-296.1 7.82,-296.1 0,0 -7.82,-89.71 -116.87,-101.23 l 2707.46,-144.25 23.47,27.37 3.63,322.85 -16.99,24.89 -2647.41,240.34 -179.22,-101.24"
             style="fill:#000080;fill-opacity:1;fill-rule:evenodd;stroke:none"
             id="path58"
             inkscape:connector-curvature="0" /><path
             d="m 4435.87,3860.26 c 0,0 218.11,210.5 218.11,27.37 0,-105.21 7.82,-296.1 7.82,-296.1 0,0 -7.82,-89.71 -116.87,-101.23 l -463.59,-183.14 0,358.45 354.53,194.65"
             style="fill:#000080;fill-opacity:1;fill-rule:nonzero;stroke:none"
             id="path60"
             inkscape:connector-curvature="0" /><path
             d="m 3898.48,1492.77 -15.29,-192.79 34.56,-423.945 23.25,303.915 -42.52,312.82"
             style="fill:#000080;fill-opacity:1;fill-rule:nonzero;stroke:none"
             id="path62"
             inkscape:connector-curvature="0" /><path
             d="m 4071.63,1657.29 134.44,-113.64 5.22,100.41 -139.66,13.23"
             style="fill:#000080;fill-opacity:1;fill-rule:nonzero;stroke:none"
             id="path64"
             inkscape:connector-curvature="0" /><path
             d="m 4218.16,1760.52 100.83,-81.79 -15.63,-222.23 -96.61,86.82 11.41,217.2"
             style="fill:#000080;fill-opacity:1;fill-rule:nonzero;stroke:none"
             id="path66"
             inkscape:connector-curvature="0" /><path
             d="m 4268.38,1429.34 -196.6,228.16 -6.08,-161.9 183.13,-303.92 19.55,237.66"
             style="fill:#000080;fill-opacity:1;fill-rule:nonzero;stroke:none"
             id="path68"
             inkscape:connector-curvature="0" /><path
             d="m 5411.78,3995.35 15.8,-0.83 -2.84,81.12 -51.57,2.7 0.87,-24.99 21.29,-1.12 0.34,-9.64 c 0.47,-13.59 -6.26,-21.56 -17.67,-20.96 -12.07,0.63 -19.92,5.86 -20.53,23.4 l -2.26,64.46 c -0.61,17.54 6.9,21.96 18.97,21.33 10.97,-0.58 18.66,-7.54 19.38,-27.93 l 30.28,-1.59 c -2.36,36.01 -19.65,54.65 -50.59,56.27 -29.41,1.54 -49.55,-11.41 -48.18,-50.44 l 1.98,-56.57 c 1.36,-39.02 22.48,-54.14 51.89,-55.68 11.41,-0.59 19.97,5.08 27.77,13.87 l 5.07,-13.4"
             style="fill:#000080;fill-opacity:1;fill-rule:nonzero;stroke:none"
             id="path90"
             inkscape:connector-curvature="0" /><path
             d="m 5543.88,3988.43 -3.57,102.17 0.44,-0.02 49.88,-104.6 28.96,-1.52 -5.54,158.3 -27.65,1.45 3.29,-93.84 -0.44,0.02 -45.42,96.05 -33.13,1.74 5.53,-158.3 27.65,-1.45"
             style="fill:#000080;fill-opacity:1;fill-rule:evenodd;stroke:none"
             id="path92"
             inkscape:connector-curvature="0" /><path
             d="m 5109.52,4358.18 -2.55,48.74 c -0.2,3.8 2.36,7.72 7.79,7.44 2.9,-0.15 6.13,-1.37 8.95,-2.3 l -0.93,17.83 c -8.33,0.43 -13.17,-2.98 -16.63,-9.85 l -0.27,0.01 -0.49,9.43 -16.27,0.85 3.74,-71.29 16.66,-0.86"
             style="fill:#000080;fill-opacity:1;fill-rule:nonzero;stroke:none"
             id="path110"
             inkscape:connector-curvature="0" /><path
             d="m 5135.28,4427.93 3.74,-71.29 16.66,-0.86 -3.73,71.28 -16.67,0.87 z m 16.02,11.45 -0.78,14.94 -16.67,0.86 0.78,-14.93 16.67,-0.87"
             style="fill:#000080;fill-opacity:1;fill-rule:evenodd;stroke:none"
             id="path112"
             inkscape:connector-curvature="0" /><path
             d="m 5187.45,4409.14 c 3.11,3.37 6.07,4.79 9.78,4.59 4.5,-0.23 8.35,-3.3 9.09,-17.46 l 0.8,-15.2 c 0.74,-14.15 -2.81,-16.84 -7.31,-16.61 -3.7,0.2 -6.83,1.93 -10.32,5.64 l -2.04,39.04 z m -17.52,16.99 5.06,-96.45 16.67,-0.86 -1.66,31.71 c 8.23,-6.18 12.57,-8.49 17.07,-8.73 12.97,-0.67 17.73,9.01 16.77,27.36 l -0.91,17.29 c -0.96,18.35 -6.77,28.59 -19.73,29.26 -7.41,0.38 -14.53,-4.74 -17.21,-9.04 l -0.26,0.01 -0.45,8.65 -15.35,0.8"
             style="fill:#000080;fill-opacity:1;fill-rule:evenodd;stroke:none"
             id="path114"
             inkscape:connector-curvature="0" /><path
             d="m 5236.4,4406.21 2.2,-41.93 c 0.54,-10.22 7.89,-14.53 18.74,-15.09 3.17,-0.16 6.34,-0.2 9.48,0.16 l -0.72,13.89 c -1.06,-0.08 -2.12,-0.02 -3.31,0.04 -4.49,0.24 -7.63,2.1 -7.81,5.63 l -1.91,36.43 10.72,-0.55 -0.71,13.36 -10.71,0.56 -1.02,19.39 -16.67,0.87 1.02,-19.4 -6.61,0.35 0.7,-13.37 6.61,-0.34"
             style="fill:#000080;fill-opacity:1;fill-rule:nonzero;stroke:none"
             id="path116"
             inkscape:connector-curvature="0" /><path
             d="m 5308.45,4375.55 c 0.93,-17.82 11.98,-29.64 33.4,-30.75 17.2,-0.89 30.59,7.82 29.61,26.56 -0.56,10.61 -4.56,19.05 -14.95,23.51 7.33,3.41 10.86,11.72 10.42,19.98 -0.88,16.77 -13.77,26.33 -30.97,27.22 -16.01,0.83 -28.52,-7.01 -27.74,-24.43 l 17.46,-0.91 c -0.07,6.41 4.45,10.75 10.93,10.41 7.94,-0.41 12.55,-5.49 12.9,-12.04 0.46,-8.78 -4.12,-11.94 -16.42,-11.3 l 0.78,-14.94 c 13.23,-0.82 19.53,-5.2 20.09,-15.81 0.42,-8.12 -4.16,-13.76 -13.16,-13.3 -9.78,0.51 -14.38,5.19 -14.89,14.89 l -17.46,0.91"
             style="fill:#000080;fill-opacity:1;fill-rule:nonzero;stroke:none"
             id="path118"
             inkscape:connector-curvature="0" /><path
             d="m 5406.73,4342.73 -0.98,18.61 -18.78,0.98 0.98,-18.61 18.78,-0.98"
             style="fill:#000080;fill-opacity:1;fill-rule:nonzero;stroke:none"
             id="path120"
             inkscape:connector-curvature="0" /><path
             d="m 5418.83,4373.47 c 1.06,-20.18 13.09,-33.35 33.73,-34.42 20.64,-1.07 31.35,10.91 30.29,31.09 l -1.66,31.72 c -1.06,20.18 -13.1,33.34 -33.73,34.41 -20.63,1.08 -31.35,-10.91 -30.29,-31.09 l 1.66,-31.71 z m 15.9,28.83 c -0.8,15.34 3.72,19.55 13.52,19.04 9.78,-0.51 14.78,-5.21 15.58,-20.54 l 1.46,-27.78 c 0.8,-15.34 -3.72,-19.54 -13.52,-19.04 -9.78,0.51 -14.78,5.22 -15.58,20.55 l -1.46,27.77"
             style="fill:#000080;fill-opacity:1;fill-rule:evenodd;stroke:none"
             id="path122"
             inkscape:connector-curvature="0" /><path
             d="m 5555.61,3575.86 -1.43,81.55 51.28,-3.56 1.44,-81.56 36.3,-2.52 -3.32,188.74 -36.3,2.52 1.33,-75.29 -51.29,3.57 -1.33,75.29 -36.29,2.52 3.32,-188.74 36.29,-2.52"
             style="fill:#000080;fill-opacity:1;fill-rule:nonzero;stroke:none"
             id="path132"
             inkscape:connector-curvature="0" /><path
             d="m 5512.55,3338.81 19.96,-1.05 -0.99,-18.9 -19.96,1.04 0.99,18.91 z m -1.81,-34.49 19.96,-1.04 -4.74,-90.51 -19.96,1.04 4.74,90.51"
             style="fill:#000080;fill-opacity:1;fill-rule:evenodd;stroke:none"
             id="path150"
             inkscape:connector-curvature="0" /><path
             d="m 5553.48,2561.22 c -0.52,5.65 -2.57,9.99 -6.16,13.01 -3.47,3.14 -8,4.88 -13.61,5.23 -2.56,0.15 -5.33,-0.15 -8.3,-0.9 -2.96,-0.64 -5.73,-2.11 -8.3,-4.41 -2.58,-2.18 -4.79,-5.38 -6.66,-9.6 -1.85,-4.1 -2.96,-9.59 -3.32,-16.47 -0.19,-3.74 0.02,-7.49 0.64,-11.28 0.74,-3.78 1.96,-7.19 3.68,-10.23 1.83,-3.03 4.21,-5.58 7.15,-7.63 2.95,-1.94 6.58,-3.04 10.9,-3.3 5.83,-0.36 10.71,1.15 14.63,4.54 4.05,3.38 6.7,8.31 7.98,14.79 l 19.96,-1.22 c -2.49,-11.67 -7.45,-20.44 -14.9,-26.3 -7.33,-5.75 -16.83,-8.27 -28.5,-7.56 -7.12,0.44 -13.36,1.99 -18.72,4.66 -5.25,2.77 -9.63,6.32 -13.15,10.63 -3.51,4.43 -6.11,9.56 -7.8,15.4 -1.56,5.83 -2.17,12.07 -1.83,18.72 0.36,6.76 1.63,13.07 3.81,18.9 2.18,5.84 5.24,10.8 9.21,14.89 3.96,4.2 8.75,7.36 14.37,9.47 5.73,2.23 12.34,3.11 19.81,2.65 5.25,-0.32 10.17,-1.32 14.77,-3 4.72,-1.58 8.81,-3.82 12.29,-6.73 3.59,-2.91 6.45,-6.48 8.57,-10.7 2.13,-4.23 3.27,-9.15 3.44,-14.78 l -19.96,1.22"
             style="fill:#000080;fill-opacity:1;fill-rule:nonzero;stroke:none"
             id="path170"
             inkscape:connector-curvature="0" /><path
             d="m 5565.2,2242.5 c -0.13,-2.45 0.07,-4.21 0.6,-5.3 0.65,-1.08 1.9,-1.68 3.77,-1.77 0.58,-0.03 1.29,-0.07 2.1,-0.11 0.81,-0.05 1.76,0.02 2.82,0.2 l -0.72,-13.83 c -0.72,-0.19 -1.66,-0.38 -2.84,-0.55 -1.07,-0.3 -2.2,-0.53 -3.38,-0.7 -1.17,-0.17 -2.35,-0.29 -3.52,-0.34 -1.17,-0.06 -2.17,-0.06 -2.99,-0.02 -4.08,0.21 -7.43,1.21 -10.02,2.98 -2.6,1.77 -4.21,4.73 -4.81,8.85 -4.17,-3.64 -9.21,-6.19 -15.14,-7.63 -5.81,-1.45 -11.41,-2.03 -16.77,-1.75 -4.09,0.21 -7.97,1 -11.64,2.36 -3.68,1.25 -6.93,3 -9.73,5.25 -2.69,2.37 -4.82,5.23 -6.4,8.59 -1.46,3.47 -2.07,7.42 -1.83,11.86 0.29,5.6 1.52,10.1 3.69,13.5 2.28,3.39 5.11,5.99 8.48,7.8 3.49,1.81 7.3,3.01 11.43,3.62 4.25,0.71 8.48,1.19 12.71,1.44 3.65,0.51 7.12,0.79 10.4,0.85 3.29,0.18 6.18,0.56 8.66,1.13 2.61,0.57 4.65,1.52 6.12,2.84 1.6,1.44 2.47,3.61 2.62,6.53 0.14,2.57 -0.39,4.7 -1.59,6.41 -1.08,1.69 -2.54,3 -4.36,3.91 -1.7,1.02 -3.66,1.72 -5.86,2.06 -2.2,0.47 -4.29,0.76 -6.27,0.86 -5.61,0.3 -10.28,-0.63 -14.02,-2.78 -3.74,-2.14 -5.97,-5.65 -6.69,-10.53 l -19.96,1.05 c 0.65,5.81 2.31,10.59 4.96,14.31 2.65,3.72 5.91,6.65 9.77,8.79 3.97,2.13 8.37,3.54 13.21,4.22 4.83,0.69 9.76,0.9 14.78,0.63 4.43,-0.23 8.78,-0.93 13.05,-2.09 4.27,-1.16 8.04,-2.88 11.32,-5.16 3.39,-2.28 6.05,-5.17 7.97,-8.66 1.93,-3.38 2.77,-7.46 2.52,-12.25 l -2.44,-46.57 z m -18.63,26.26 c -3.14,-1.83 -6.94,-2.85 -11.41,-3.09 -4.45,-0.12 -8.91,-0.47 -13.39,-1.05 -2.12,-0.24 -4.19,-0.66 -6.21,-1.26 -2.01,-0.48 -3.81,-1.26 -5.39,-2.35 -1.57,-0.97 -2.87,-2.37 -3.9,-4.18 -0.91,-1.71 -1.43,-3.85 -1.57,-6.41 -0.12,-2.22 0.43,-4.12 1.63,-5.71 1.21,-1.58 2.66,-2.89 4.36,-3.91 1.83,-0.92 3.78,-1.6 5.86,-2.07 2.2,-0.46 4.18,-0.74 5.93,-0.83 2.21,-0.12 4.62,0.05 7.22,0.49 2.6,0.45 5.04,1.32 7.34,2.61 2.4,1.27 4.42,2.93 6.05,4.95 1.63,2.13 2.53,4.78 2.7,7.93 l 0.78,14.88"
             style="fill:#000080;fill-opacity:1;fill-rule:evenodd;stroke:none"
             id="path192"
             inkscape:connector-curvature="0" /><path
             d="m 5218.94,1728.11 -1.75,99.23 -19.1,0.66 1.76,-99.23 19.09,-0.66"
             style="fill:#000080;fill-opacity:1;fill-rule:nonzero;stroke:none"
             id="path224"
             inkscape:connector-curvature="0" /><path
             d="m 5287.85,1725.71 9.97,-0.34 -0.9,50.85 -32.52,1.13 0.28,-15.67 13.42,-0.47 0.1,-6.04 c 0.16,-8.52 -4.18,-13.59 -11.38,-13.34 -7.61,0.26 -12.5,3.46 -12.69,14.45 l -0.72,40.4 c -0.2,11 4.59,13.86 12.2,13.59 6.92,-0.24 11.7,-4.52 11.93,-17.31 l 19.09,-0.66 c -1.09,22.57 -11.8,34.06 -31.31,34.74 -18.55,0.64 -31.4,-7.7 -30.96,-32.16 l 0.62,-35.46 c 0.44,-24.47 13.6,-33.71 32.14,-34.36 7.2,-0.25 12.66,3.41 17.68,9 l 3.05,-8.35"
             style="fill:#000080;fill-opacity:1;fill-rule:nonzero;stroke:none"
             id="path226"
             inkscape:connector-curvature="0" /><path
             d="m 5332.68,1724.16 -1.13,64.04 0.28,0 30.33,-65.07 18.26,-0.63 -1.75,99.23 -17.44,0.61 1.04,-58.83 -0.27,0.01 -27.61,59.75 -20.89,0.72 1.75,-99.23 17.43,-0.6"
             style="fill:#000080;fill-opacity:1;fill-rule:evenodd;stroke:none"
             id="path228"
             inkscape:connector-curvature="0" /><path
             d="m 5495.16,1795.02 c -3.57,14.14 -14.12,24.53 -31.14,25.12 -19.79,0.68 -29.84,-9.68 -29.54,-26.72 0.49,-27.76 43.11,-29.52 43.45,-48.21 0.12,-7.42 -4.91,-11.64 -11.56,-11.41 -5.67,0.2 -12.66,4.7 -15.09,16.73 l -18.74,-3.33 c 5.46,-19.7 17.65,-28.49 33.14,-29.03 20.07,-0.7 31.63,10.16 31.33,27.21 -0.55,31.05 -43.19,33.63 -43.46,48.62 -0.12,6.73 3.55,10.72 10.33,10.49 6.64,-0.23 10.86,-4.36 14.21,-13.82 l 17.07,4.35"
             style="fill:#000080;fill-opacity:1;fill-rule:nonzero;stroke:none"
             id="path230"
             inkscape:connector-curvature="0" /><path
             d="m 5506.52,1817.29 0.3,-16.77 22.27,-0.77 1.46,-82.46 19.1,-0.66 -1.46,82.46 22.27,-0.77 -0.29,16.76 -63.65,2.21"
             style="fill:#000080;fill-opacity:1;fill-rule:nonzero;stroke:none"
             id="path232"
             inkscape:connector-curvature="0" /><path
             d="m 5163.38,1563.95 c 1.63,18.18 -7.3,26.25 -23.51,26.53 -16.6,0.29 -27.21,-7.7 -29.18,-26.67 l -2.09,-20.02 c -1.97,-18.97 6.92,-27.3 23.53,-27.59 16.6,-0.29 27.2,7.71 29.18,26.68 l 0.03,0.26 -16.61,0.29 -0.46,-4.48 c -0.58,-5.54 -4.83,-8.36 -10.63,-8.26 -5.8,0.1 -9.45,3.06 -8.88,8.6 l 2.97,28.44 c 0.57,5.54 4.83,8.36 10.63,8.27 5.8,-0.11 9.45,-3.07 8.87,-8.6 l -0.32,-3.17 16.47,-0.28"
             style="fill:#000080;fill-opacity:1;fill-rule:nonzero;stroke:none"
             id="path254"
             inkscape:connector-curvature="0" /><path
             d="m 5189.72,1516.52 5.11,48.99 c 0.4,3.82 3.59,7.86 8.99,7.76 2.9,-0.05 5.95,-1.16 8.64,-2 l 1.87,17.92 c -8.31,0.14 -13.7,-3.46 -18.26,-10.5 l -0.27,0 0.99,9.48 -16.2,0.28 -7.47,-71.64 16.6,-0.29"
             style="fill:#000080;fill-opacity:1;fill-rule:nonzero;stroke:none"
             id="path256"
             inkscape:connector-curvature="0" /><path
             d="m 5226.58,1587.65 -7.47,-71.64 16.6,-0.29 7.47,71.65 -16.6,0.28 z m 17.89,12.1 1.57,15.01 -16.61,0.29 -1.56,-15.01 16.6,-0.29"
             style="fill:#000080;fill-opacity:1;fill-rule:evenodd;stroke:none"
             id="path258"
             inkscape:connector-curvature="0" /><path
             d="m 5276.02,1570.57 c 3.66,3.49 6.86,5.02 10.55,4.96 4.48,-0.08 7.87,-3.04 6.38,-17.27 l -1.59,-15.28 c -1.48,-14.22 -5.47,-17.05 -9.96,-16.97 -3.69,0.06 -6.55,1.69 -9.47,5.31 l 4.09,39.25 z m -14.92,16.48 -10.1,-96.93 16.6,-0.29 3.32,31.87 c 7.31,-5.93 11.3,-8.11 15.78,-8.19 12.92,-0.22 19.23,9.69 21.16,28.13 l 1.81,17.39 c 1.92,18.43 -2.31,28.54 -15.22,28.76 -7.38,0.13 -15.34,-5.27 -18.7,-9.7 l -0.27,0 0.91,8.7 -15.29,0.26"
             style="fill:#000080;fill-opacity:1;fill-rule:evenodd;stroke:none"
             id="path260"
             inkscape:connector-curvature="0" /><path
             d="m 5324.73,1569.32 -4.39,-42.14 c -1.07,-10.28 5.63,-14.35 16.44,-14.54 3.17,-0.05 6.34,0.02 9.56,0.49 l 1.45,13.96 c -1.07,-0.11 -2.12,-0.09 -3.31,-0.07 -4.48,0.08 -7.33,1.84 -6.96,5.4 l 3.82,36.61 10.68,-0.18 1.39,13.43 -10.67,0.18 2.03,19.5 -16.6,0.29 -2.03,-19.5 -6.59,0.12 -1.41,-13.44 6.59,-0.11"
             style="fill:#000080;fill-opacity:1;fill-rule:nonzero;stroke:none"
             id="path262"
             inkscape:connector-curvature="0" /><path
             d="m 5386.49,1488.02 c 1.83,-0.16 3.67,-0.32 5.25,-0.35 16.6,-0.29 23.97,5.78 31.13,25.06 l 26.54,71.05 -16.86,0.29 -15.35,-47.23 -0.27,0 -6.26,47.61 -16.87,0.3 10.58,-58.11 c 1.08,-6.09 1.89,-10.99 1.46,-15.2 -0.34,-3.16 -5.74,-9.4 -12.99,-9.28 -1.71,0.04 -3.29,0.06 -4.85,0.35 l -1.51,-14.49"
             style="fill:#000080;fill-opacity:1;fill-rule:nonzero;stroke:none"
             id="path264"
             inkscape:connector-curvature="0" /><path
             d="m 5511.78,1577.94 c 1.1,10.54 6.01,13.35 13.26,13.23 7.25,-0.13 11.56,-3.11 10.46,-13.64 l -0.28,-2.64 18.19,-0.31 0.03,0.26 c 2.44,23.45 -9.07,32.09 -26.73,32.39 -17.66,0.31 -30.92,-7.9 -33.37,-31.34 l -3.54,-33.98 c -2.44,-23.45 9.07,-32.09 26.73,-32.4 17.65,-0.31 30.92,7.91 33.36,31.35 l 0.41,3.95 -18.18,0.32 -0.66,-6.32 c -1.1,-10.54 -6.01,-13.36 -13.26,-13.23 -7.25,0.13 -11.56,3.1 -10.46,13.64 l 4.04,38.72"
             style="fill:#000080;fill-opacity:1;fill-rule:evenodd;stroke:none"
             id="path266"
             inkscape:connector-curvature="0" /><path
             d="m 4862.63,1329.92 c 3.15,-0.06 6.22,0.15 9.21,0.62 3,0.48 5.71,1.3 8.14,2.49 2.51,1.18 4.65,2.72 6.4,4.62 1.85,1.89 3.11,4.24 3.78,7.03 l 12.19,-0.22 -4.8,-91.91 -16.39,0.29 3.39,64.86 -22.54,0.4 0.62,11.82"
             style="fill:#000080;fill-opacity:1;fill-rule:nonzero;stroke:none"
             id="path282"
             inkscape:connector-curvature="0" /><path
             d="m 4934.52,1269.64 18.21,-0.32 -0.92,-17.72 -18.22,0.32 0.93,17.72"
             style="fill:#000080;fill-opacity:1;fill-rule:nonzero;stroke:none"
             id="path284"
             inkscape:connector-curvature="0" /><path
             d="m 4981.91,1343.07 47.45,-0.84 -0.7,-13.39 -36.31,0.64 -5.94,-23.29 0.25,-0.26 c 2.13,2.23 4.75,3.89 7.87,4.98 3.21,1.17 6.34,1.73 9.4,1.68 4.54,-0.08 8.57,-0.94 12.07,-2.58 3.5,-1.55 6.4,-3.75 8.7,-6.6 2.31,-2.75 3.98,-6.02 5,-9.81 1.11,-3.78 1.55,-7.87 1.33,-12.24 -0.19,-3.68 -1.01,-7.48 -2.43,-11.4 -1.34,-3.83 -3.41,-7.34 -6.2,-10.53 -2.7,-3.11 -6.11,-5.68 -10.24,-7.71 -4.12,-1.94 -8.98,-2.86 -14.57,-2.76 -4.46,0.08 -8.58,0.76 -12.36,2.05 -3.7,1.2 -6.93,3.01 -9.69,5.43 -2.76,2.42 -4.92,5.34 -6.49,8.79 -1.48,3.53 -2.18,7.61 -2.11,12.25 l 14.94,-0.26 c 0.17,-4.99 1.68,-8.88 4.5,-11.64 2.84,-2.68 6.7,-4.06 11.6,-4.15 3.14,-0.05 5.83,0.43 8.07,1.44 2.24,1.01 4.06,2.43 5.47,4.24 1.5,1.82 2.57,3.94 3.22,6.38 0.74,2.44 1.19,5.06 1.33,7.87 0.13,2.53 -0.09,4.95 -0.67,7.24 -0.58,2.37 -1.52,4.45 -2.82,6.22 -1.31,1.78 -3.07,3.21 -5.28,4.3 -2.14,1.09 -4.69,1.66 -7.66,1.71 -3.14,0.06 -6.14,-0.5 -9.01,-1.68 -2.76,-1.09 -4.84,-3.24 -6.24,-6.46 l -14.94,0.26 12.46,50.12"
             style="fill:#000080;fill-opacity:1;fill-rule:nonzero;stroke:none"
             id="path286"
             inkscape:connector-curvature="0" /><path
             d="m 5043.82,1267.73 18.23,-0.32 -0.93,-17.73 -18.22,0.32 0.92,17.73"
             style="fill:#000080;fill-opacity:1;fill-rule:nonzero;stroke:none"
             id="path288"
             inkscape:connector-curvature="0" /><path
             d="m 5098.24,1284.78 -21.78,32.58 18.09,-0.32 13.06,-21.13 15.91,20.63 17.3,-0.31 -24.71,-30.98 24.04,-36.95 -17.95,0.31 -15.86,25.38 -17.96,-24.79 -17.56,0.31 27.42,35.27"
             style="fill:#000080;fill-opacity:1;fill-rule:nonzero;stroke:none"
             id="path290"
             inkscape:connector-curvature="0" /><path
             d="M -443.746,1358.18 7205.8,649.008 l -0.03,-165.051 -7685.637,678.233 36.121,195.99"
             style="fill:#000080;fill-opacity:1;fill-rule:nonzero;stroke:none"
             id="path308"
             inkscape:connector-curvature="0" /><path
             d="m 3941,1179.95 -23.25,-303.915 2769.82,-38.89 11.73,296.095 -89.17,57.82 -0.55,-30.66 -2360.75,31.28 -183.13,303.92 -167.5,0 42.8,-315.65"
             style="fill:#000080;fill-opacity:1;fill-rule:nonzero;stroke:none"
             id="path310"
             inkscape:connector-curvature="0" /><path
             d="m 4627.34,900.789 c 2.93,-0.262 5.86,-0.523 8.39,-0.57 26.46,-0.465 37.52,9.25 46.78,40.078 l 34.42,113.663 -26.89,0.48 -19.22,-75.561 -0.42,0.004 -15.22,76.167 -26.89,0.47 23.26,-92.961 c 2.39,-9.739 4.22,-17.575 3.99,-24.313 -0.18,-5.058 -8.09,-15.039 -19.65,-14.836 -2.73,0.047 -5.25,0.09 -7.75,0.555 l -0.8,-23.176"
             style="fill:#000080;fill-opacity:1;fill-rule:nonzero;stroke:none"
             id="path320"
             inkscape:connector-curvature="0" /><path
             d="m 4786.69,938.043 40.33,-0.707 c 33.19,-0.586 52.18,13.418 54.77,51.746 l 1.62,46.778 c 0.07,38.37 -17.93,53.02 -51.11,53.6 l -40.34,0.71 -5.27,-152.127 z m 33.37,125.917 10.08,-0.18 c 18.07,-0.32 24.9,-9.29 24.16,-30.79 l -1.39,-40.029 c -0.79,-22.754 -10.29,-30.18 -26.26,-29.898 l -10.08,0.175 3.49,100.722"
             style="fill:#000080;fill-opacity:1;fill-rule:evenodd;stroke:none"
             id="path322"
             inkscape:connector-curvature="0" /><path
             d="m 4934.15,935.449 2.28,65.741 40.97,-0.72 -2.28,-65.74 28.99,-0.511 5.27,152.131 -28.99,0.51 -2.1,-60.68 -40.97,0.72 2.11,60.68 -28.99,0.51 -5.28,-152.129 28.99,-0.512"
             style="fill:#000080;fill-opacity:1;fill-rule:nonzero;stroke:none"
             id="path324"
             inkscape:connector-curvature="0" /><path
             d="m 5028.29,1086.02 -0.9,-25.71 33.82,-0.6 -4.38,-126.417 28.99,-0.512 4.38,126.429 33.82,-0.6 0.89,25.71 -96.62,1.7"
             style="fill:#000080;fill-opacity:1;fill-rule:nonzero;stroke:none"
             id="path326"
             inkscape:connector-curvature="0" /><path
             d="m 5163.34,931.418 4.14,119.682 0.43,-0.01 26.73,-120.219 21.84,-0.387 35.03,119.136 0.42,-0.01 -4.15,-119.676 24.79,-0.434 5.27,152.13 -40.54,0.71 -29.72,-99.41 -0.42,0.004 -22.79,100.336 -40.55,0.71 -5.27,-152.125 24.79,-0.437"
             style="fill:#000080;fill-opacity:1;fill-rule:nonzero;stroke:none"
             id="path328"
             inkscape:connector-curvature="0" /><path
             d="m 5375.92,927.68 0.89,25.703 -46.63,0.82 4.38,126.427 -28.99,0.51 -5.27,-152.128 75.62,-1.332"
             style="fill:#000080;fill-opacity:1;fill-rule:nonzero;stroke:none"
             id="path330"
             inkscape:connector-curvature="0" /><path
             d="m 2145.44,2482.86 4.11,-0.73 c -2.01,-0.54 -1.5,-2.56 -3.38,-2.67 -0.85,0.55 -0.76,0.24 -1.38,1.46 -0.62,1.22 0.34,1.39 0.65,1.94"
             style="fill:#000080;fill-opacity:1;fill-rule:nonzero;stroke:none"
             id="path332"
             inkscape:connector-curvature="0" /><path
             d="m 2157.1,2482.77 5.51,-0.47 c 0.39,-0.65 0.15,-1.14 0.43,-1.84 l -1.58,0 c -1.2,-0.03 -3.27,1.08 -4.36,2.31"
             style="fill:#000080;fill-opacity:1;fill-rule:evenodd;stroke:none"
             id="path334"
             inkscape:connector-curvature="0" /><path
             d="m 2270.89,2349.67 c -0.06,-1.12 0.27,-2.48 1.06,-4.02 l 16.56,-32.72 9.21,-24.05 c -0.25,-0.56 0.1,-0.63 -1.12,-0.63 -2.94,0 -4.83,4.71 -4.92,4.89 -0.62,1.23 -5.13,17.85 -5.74,19.07 -1.15,2.26 -3.28,5.38 -5.42,5.38 -1.22,0 -3.49,-8.76 -6.68,-12 -4.74,-4.77 -14.66,-5.6 -22.79,-5.6 -11.49,0 -22.11,6.85 -23.76,6.85 -1.22,0 -0.83,-0.91 -1.07,-1.28 4.56,-4.93 9.84,-7.83 11.79,-11.68 1.17,-2.33 1.08,-5.45 -0.24,-7.05 -1.63,8.1 -12.48,15.71 -21.9,23.75 4.35,1.87 5.8,5.91 4.01,9.46 -3.52,6.93 -25.82,17.24 -45.09,29.63 l -9.71,0 c 22.01,-15.19 58.69,-49.88 61.31,-55.06 3.84,-7.58 5,-17.11 -5.76,-17.11 -1.22,0 -9.15,1.88 -13.28,2.8 -17.02,3.91 -59.6,10.27 -62.26,15.53 -0.68,1.35 2.33,7.95 -1.32,15.16 -3.25,6.42 -11.88,12.84 -14.04,17.12 -1.64,3.24 -0.27,4.15 3.27,4.15 1.22,0 7.1,-0.97 8.32,-0.97 9.17,0 10.81,5.68 6.02,15.15 -0.62,1.22 -0.95,1.82 -2.19,2.94 -2.76,-5.95 1.28,-14.67 -6.36,-14.67 l -10.63,0 c -3.98,0 -1.95,-6.42 -0.5,-9.3 0.62,-1.21 9.13,-13.2 9.75,-14.42 0.62,-1.22 3.88,-14.42 4.5,-15.65 5.2,-10.27 43.64,-14.04 46.89,-15.02 6.15,-1.89 29.13,-10.65 37.01,-10.65 10.64,0 9.69,14.18 21.49,14.18 l 49.75,0 c 5.5,0 10.06,-13.69 29.74,-13.69 10.82,0 11.4,1.6 17.71,14.13 4.1,8.19 15.16,11.03 21.05,16.9 2.79,2.81 5.45,5.28 3.28,9.56 -3.81,7.52 -27.36,13.71 -33.66,24.22 -1.54,2.57 -3.08,6.92 -5.98,8.03 0.19,-2.58 0.97,-6.09 1.59,-7.32 12.56,-24.81 28.84,-13.5 34.5,-24.69 1.3,-2.57 -0.81,-6.44 -2.45,-7.42 -7.07,-4.15 -16.68,-6.01 -22.18,-12.06 -4.91,-5.5 -7.13,-13.53 -15.38,-13.53 -6.79,0 -17.86,6.3 -22.47,15.41 -0.62,1.22 -6.96,17.6 -7.57,18.82 -0.62,1.23 -14.94,22.74 -15.55,23.96 -0.99,1.95 -6.26,11.03 -2.92,13.55 l -5.87,-0.05 z m 48.78,0 c -2.03,-8.26 -8.1,-15.45 -14.55,-15.45 -7.6,0 -17.15,7.42 -23.64,15.42 l 38.19,0.03"
             style="fill:#000080;fill-opacity:1;fill-rule:evenodd;stroke:none"
             id="path336"
             inkscape:connector-curvature="0" /><path
             d="m 2165.08,2349.67 c -6.29,4.3 -11.38,7.04 -14.14,7.04 -1.22,0 -3.07,-0.95 -4.6,-1.91 l -3.17,0 c -1.06,1.97 -3.29,6.37 -4,7.78 -2.79,5.5 -6.69,48.67 -5.75,55.14 1.2,8.62 9.78,29.64 4.17,40.7 l -28.08,52.58 c -11.79,27.52 1.01,34.46 19.96,34.46 24.76,0 53.17,-12.78 69.86,-47.18 l 5.93,-11.73 c 3.45,-5.37 6.81,-11.43 11.44,-17.05 13.76,-16.69 34.63,-33.97 54.99,-49.43 12.34,-9.41 39.94,-42.7 46.81,-56.27 2.18,-4.3 2.34,-9.39 1.17,-14.12 l -38.19,-0.01 c -0.19,0.22 -0.39,0.46 -0.59,0.71 l -1.74,0 c -1.07,0 -1.84,-0.24 -2.39,-0.66 l -5.87,-0.05 c 0.16,3.19 3.28,4.75 8.07,4.17 -3.84,8.24 3.54,9.23 8.86,9.23 3.91,0 8.61,-1.63 13.6,-3.36 -3.25,3.64 -9.71,5.97 -12.13,6.66 -5.15,15.3 -1.27,8.37 -6.5,18.7 -6.86,13.57 -23.24,31 -42.69,41.99 22.22,-18.47 33.2,-29.03 41.61,-45.65 3.32,-6.54 8.43,-17.36 -2.21,-17.36 -1.89,0 -5.57,0.85 -7.27,4.22 l -9.84,19.43 c -4.64,9.17 -65.29,71.03 -65.39,71.21 -0.61,1.22 -2.37,9.54 -3,10.76 -4.76,9.41 -24.36,5.62 -30.8,18.34 -1.98,3.91 -3.42,9.53 2.76,9.53 3.91,0 9.76,-2.38 12.39,-7.58 0.62,-1.22 1.39,-6.6 2.01,-7.82 0.62,-1.22 4.05,-2.69 5.27,-2.69 3.12,0 1.13,5.5 -0.05,7.82 -4.12,8.13 -13.45,20.05 -26.04,20.05 -5.2,0 -7.13,-7.64 -4.96,-11.92 l 5.38,-10.63 c -6.7,0.97 -9.06,0.34 -13.21,1.9 l -3.62,7.14 c -1.68,3.37 -8.7,11.56 -15.12,11.56 -7.15,0 -4.84,-7.83 -2.36,-12.72 1.79,-3.54 7.62,-11.7 10.7,-14.14 l 1.72,0 c 0.03,1.08 0.27,2.54 0.17,3.72 -5.29,1.73 -7.95,6.08 -9.53,9.2 -1.64,3.24 -2.67,6.11 2.53,6.11 3.97,0 9.51,-5.74 11.3,-9.29 3.69,-7.27 -9.06,-12.04 -5.75,-18.58 2.82,-5.56 20.12,-11.25 22.32,-11.25 15.28,0 25.3,11.25 28.05,11.25 0.36,0 1.68,0.55 2.82,-1.71 0.65,-1.28 -20.46,-12.47 -21.83,-12.55 l -14.83,0 c 6.88,-4.8 10.62,-6.77 14.66,-6.77 6.72,0 19.37,10.76 22.42,10.76 0.31,0 1.67,0.55 2.83,-1.71 0.61,-1.23 0.09,-1.86 -0.3,-2.04 -6.64,-4.28 -15.54,-16.79 -17.87,-16.79 l -6.72,0 c -4.64,0 -18.82,13.5 -21.5,15.15 3.11,-8.51 -1.36,-16.72 2.42,-25.16 11.44,-25.61 0.39,-31.92 10.7,-52.27 l 3.52,-6.97 c 0.28,-0.55 4.41,-8.57 3.55,-10.45 -8.78,3.76 -14.17,9.23 -17.42,15.64 -0.62,1.23 -3.34,8.51 -4.85,13.18 -0.87,-1.77 2.27,-11.95 3.02,-13.42 4.49,-8.88 15.18,-17.27 27.01,-24.89 l -9.71,0 z m -24.63,65.66 1.81,0 1.55,-3.06 c 0.62,-1.16 -2.72,-5.62 -3.47,-5.57 0.1,2.71 0.08,5.62 0.11,8.63 z m 66.05,48.47 c 5.11,-2.99 8.76,-4.44 13.57,-7.01 0.33,-1.62 0.59,-3.15 0.26,-4.72 -6.26,2.72 -11.8,6.29 -13.94,10.51 -0.61,1.22 -0.26,0.66 0.11,1.22 z m -73.93,30.75 1.79,0 c 1.1,-1.05 2.85,-2.55 3.77,-4.07 l 2.12,-4.18 c -2.11,1.53 -3.35,5.04 -6.78,6.46 l -0.9,1.79 z m 34.22,0.99 1.59,0 c 1.57,0.05 5.2,-2.97 7.25,-5.03 1.02,-2.01 0.51,-2.23 -0.52,-2.68 -0.33,1.98 -7.15,5.76 -8.32,7.71 z m -11.19,34.74 2.53,0 c 0.96,0.02 7.07,-4.21 8.05,-5.76 -2.89,-0.08 -5.88,-2.4 -7.98,-3.02 0,0 -0.67,0.07 -1.58,0.77 2.5,2.07 -0.72,5.67 -1.02,8.01"
             style="fill:#000080;fill-opacity:1;fill-rule:evenodd;stroke:none"
             id="path338"
             inkscape:connector-curvature="0" /><path
             d="m 3032.23,3379.21 29.38,-15.75 -18.87,-39.1 -37.01,-12.58 0,-18.13 9.73,-30.07 -46.73,-26.55 -6.73,-31.94 c 0,0 -18.83,-16.14 -14.8,-14.8 4.04,1.35 10.77,-27.9 10.77,-27.9 l -42.7,-6.72 -17.13,10.76 c 0,0 -18.84,94.46 -14.8,94.46 4.04,0 25.21,17.49 25.21,17.49 l 44.04,27.9 -6.38,24.21 -64.22,-18.83 -88.08,4.03 -26.91,-10.76 65.57,-31.93 18.83,-44.05 -8.07,-63.86 -32.29,-2.7 -47.72,1.35 -18.84,19.83 c 0,0 -19.19,13.45 -22.87,18.83 -3.68,5.39 -25.21,45.39 -25.21,45.39 l -18.83,29.24 -7.72,17.49 -12.11,26.55 -25.56,20.19 -18.48,41.35 -24.22,38.66 -26.55,33.28 -24.22,28.25 -19.82,37.32 -10.76,30.59 c 0,0 -15.79,17.84 -17.14,25.56 -1.35,7.71 -9.42,35.97 -9.42,35.97 l -24.22,40.01 c 0,0 8.08,-42.7 10.77,-49.43 2.69,-6.73 17.49,-42.69 17.49,-42.69 0,0 5.02,-13.1 15.79,-30.59 10.76,-17.49 22.87,-53.47 22.87,-53.47 l 29.24,-40 c 0,0 12.11,-58.84 17.49,-58.84 5.38,0 23.86,-31.94 29.25,-34.63 5.38,-2.69 -1.35,-42.69 -1.35,-42.69 l -1.35,-30.95 37.32,37.32 c 0,0 16.15,-42.7 21.53,-42.7 5.38,0 22.51,-46.74 22.51,-46.74 l 41.36,-45.38 44.39,-35.97 35.97,-6.73 48.08,-13.1 52.12,1.35 63.87,4.03 c 0,0 22.51,0 26.55,-1.34 4.03,-1.35 45.39,11.75 49.42,11.75 4.04,0 48.08,9.42 48.08,9.42 l 40.01,38.66 39.01,37.31 22.52,26.91 41.35,25.21 29.6,25.56 31.93,37.32 38.67,27.89 30.59,41.36 30.94,37.67 18.48,33.28 14.8,48.08 30.58,33.28 2.7,57.49 16.14,46.74 2.7,46.73 6.72,48.08 9.03,13.22 4.19,43.29 6.29,31.45 10.48,32.81 10.49,26.52 26.52,6.29 -4.2,25.16 -24.42,9.75 4.19,51.67 -4.19,23.06 22.33,16.04 12.58,29.35 -4.2,18.13 14.68,29.36 24.42,18.13 10.48,37.74 34.91,13.94 0,51.67 25.16,47.49 2.09,39.1 -4.19,32.81 -4.19,25.15 0,45.39 -12.58,32.81 -4.19,62.16 -2.1,18.14 0,43.29 -30.71,39.83 -6.29,50.94 -22.33,37.74 -6.29,34.91 -39.1,22.32 -10.48,29.35 -29.35,53.78 -26.52,20.23 -6.29,32.81 -39.1,6.28 -28.61,43.3 -39.1,23.06 -33.54,13.94 0,23.06 12.57,18.87 -37,18.13 -45.39,30.72 -31.45,2.09 -30.71,23.06 -49.58,10.49 c 0,0 -13.94,7.65 -28.62,9.75 -14.67,2.09 -30.71,-4.2 -47.48,2.09 -16.77,6.29 -25.16,12.58 -25.16,12.58 l -57.23,-14.67 -31.45,14.67 -20.23,-4.19 -30.71,14.67 -62.16,-6.29 -53.78,-6.29 -41.19,-4.19 -37,-26.52 -37,0 -37.74,-25.16 -16.03,-28.61 -20.97,-8.39 -6.29,10.48 -34.91,-39.09 -20.22,-30.72 c 0,0 -30.72,47.49 -8.39,78.2 22.32,30.71 -39.84,1.36 -27.26,-64.26 l 8.39,-37 -28.62,4.19 c 0,0 -27.25,31.45 -27.25,57.97 0,0 -27.88,-4.19 -7.65,-62.16 l -33.55,-16.77 c 0,0 -23.68,-1.36 -55.13,-18.14 0,0 37.74,-8.38 45.38,-8.38 7.66,0 26.52,10.48 26.52,10.48 l 6.3,-27.25 -16.78,-24.43 -22.32,0 -16.77,8.39 -24.43,-8.39 -39.1,2.1 22.33,-14.67 30.71,0 12.58,-14.68 -24.42,-18.13 -27.26,-25.16 -20.23,-18.14 -20.96,14.68 -2.1,-25.16 -14.67,-24.42 -16.04,-2.1 -23.06,24.43 -13.94,12.57 4.19,-32.8 22.33,-29.36 14.67,-18.13 -23.06,-20.96 -20.23,16.77 -31.45,-2.1 23.07,-23.06 18.13,-20.23 -28.62,-2.1 -26.52,20.23 -27.25,27.26 16.77,-37 26.52,-25.16 14.67,-22.33 -22.32,5.56 11.84,-26.52 18.87,-26.52 0,-45.39 8.39,-14.68 -6.29,-18.87 4.19,-51.67 13.94,-63.53 -9.75,-23.06 16.04,-49.58 -16.04,-13.94 16.04,-32.81 0,-31.45 18.87,-8.38 4.19,-45.39 22.33,-16.03 18.87,-37.01 14.67,-14.67 5.56,-25.16 16.77,-16.04 20.97,-29.35 3.45,-41.2 14.68,-41.19 8.39,-49.58 c 0,0 -6.29,-37 0,-43.29 6.28,-6.29 16.76,-34.91 16.76,-34.91 l 0,-22.32 22.33,-8.39 -10.48,39.1 -16.04,47.48 -12.57,22.33 0,60.06 -6.29,39.1 0,41.2 -20.23,37 1.36,37.73 -11.85,24.43 0,39.1 -23.06,37 -2.09,41.93 2.09,55.13 -4.19,60.07 16.77,24.42 -6.29,66.35 20.97,26.52 c 0,0 -5.56,30.09 2.09,35.64 7.65,5.56 45.39,16.04 45.39,16.04 l -12.58,-30.71 43.29,-6.29 20.97,18.87 -2.1,-35.64 16.04,-20.23 20.96,-29.35 28.62,-1.37 -32.81,30.72 -12.58,30.71 4.19,29.35 28.62,-6.29 0,45.39 16.77,-39.1 26.52,0 20.97,-18.87 26.52,0 29.35,-23.06 49.58,0 28.61,-50.94 23.06,-4.19 53.04,20.23 35.64,12.57 26.52,32.81 32.81,-18.13 55.87,9.75 60.07,35.64 24.42,-10.48 64.26,22.32 18.13,-7.65 43.29,5.56 18.87,-20.23 51.68,6.29 24.42,-33.55 47.49,-5.55 10.48,-33.55 39.1,-24.42 27.25,-47.49 7.65,-45.38 -2.09,-76.1 14.67,-14.68 -16.77,-49.58 37.74,-47.49 9.75,-32.8 18.86,-68.45 18.87,-45.39 -2.1,-59.33 13.94,-20.96 -6.28,-43.3 -11.85,-47.48 -10.48,-34.91 2.09,-45.38 -41.19,-32.81 -18.87,-62.16 20.96,-62.16 -29.34,-51.68 -26.52,-2.1 -16.78,-57.23 -39.09,26.52 -43.3,-37 -26.51,14.67 -39.11,-25.16 -35.64,-37 -26.52,4.2 -22.32,60.06 -94.97,18.13 -64.26,25.16 -94.96,-27.25 -32.82,-11.85 -39.09,16.04 -43.3,8.39 -79.65,-54.22 -1.34,-25.2 72.61,7.51 55.87,-27.25 50.95,0 55.86,10.48 55.87,6.28 45.39,-6.28 39.1,12.57 18.62,-11.6 -33.25,-24.59 -69.86,-2.99 -81.81,-12.52 -61.82,8.97 -37.92,6.54 4.48,-11.02 37.92,-16.44 c 0,0 42.4,-4.48 55.85,-5.97 13.44,-1.5 44.82,-1.5 60.33,0 15.51,1.49 75.83,16.43 75.83,16.43 l 37.92,5.98 18.11,-7.58"
             style="fill:#000080;fill-opacity:1;fill-rule:evenodd;stroke:none"
             id="path340"
             inkscape:connector-curvature="0" /><path
             d="m 2404.22,3973.24 42.55,-17.03 32.62,15.61 58.15,-8.51 45.39,-2.84 -11.34,-21.27 8.51,-15.61 -76.6,-19.85 -26.47,-11.01 13.71,-13.1 51.06,8.5 25.53,-14.18 c 0,0 36.88,-2.84 42.55,-2.84 5.67,0 32.62,14.19 32.62,14.19 l 1.42,18.44 14.19,-7.1 24.11,0 24.11,18.44 -25.53,18.44 -17.02,15.61 31.2,19.85 -15.6,31.2 -34.04,7.1 -68.08,-1.42 -110.63,17.02 -62.41,-49.64"
             style="fill:#000080;fill-opacity:1;fill-rule:nonzero;stroke:none"
             id="path342"
             inkscape:connector-curvature="0" /><path
             d="m 2824.06,4017.21 -26.95,-35.46 43.97,-17.02 24.11,14.18 49.65,-9.93 -22.7,-34.04 -9.93,-26.95 45.39,-15.6 38.29,0 21.28,4.25 36.88,-24.11 36.88,1.42 25.53,8.51 26.95,14.18 21.27,1.42 19.86,19.86 -24.11,8.51 -63.83,0 -43.97,1.42 -43.97,12.76 -34.04,25.53 22.69,7.1 85.11,17.02 45.38,1.42 c 0,0 63.83,-4.26 69.5,-4.26 5.68,0 38.3,4.26 38.3,4.26 l 35.46,7.09 1.42,12.76 -114.89,32.63 -52.48,8.5 -156.02,-35.45 -66.66,-9.93 -28.37,9.93"
             style="fill:#000080;fill-opacity:1;fill-rule:nonzero;stroke:none"
             id="path344"
             inkscape:connector-curvature="0" /><path
             d="m 3538.94,3777.47 -11.37,-62.38 c 0,0 181.56,-388.63 -175.88,-842.51 l 8.51,-31.21 c 0,0 419.84,439.7 178.74,936.1"
             style="fill:#000080;fill-opacity:1;fill-rule:nonzero;stroke:none"
             id="path346"
             inkscape:connector-curvature="0" /><path
             d="m 2555.3,3056.52 23.36,117.98 -2.63,130.9 -36.85,-34.86 -40.12,85.51 2.63,101.31 -82.88,-103.94 -98.67,-64.46 -136.16,-69.07 -50.14,-148.27 421.46,-15.1"
             style="fill:#000080;fill-opacity:1;fill-rule:nonzero;stroke:none"
             id="path348"
             inkscape:connector-curvature="0" /></g></g><path
         d="m 1619.4634,4078.4212 c 0,1081.916 877.0418,1958.9577 1958.9578,1958.9577 1081.916,0 1958.9577,-877.0417 1958.9577,-1958.9577 0,-1081.916 -877.0417,-1958.9578 -1958.9577,-1958.9578 -1081.916,0 -1958.9578,877.0418 -1958.9578,1958.9578 z"
         style="fill:none;stroke:#696566;stroke-width:23.13692284000000043;stroke-linecap:butt;stroke-linejoin:miter;stroke-miterlimit:3.86368989999999979;stroke-opacity:1;stroke-dasharray:none"
         id="path350"
         inkscape:connector-curvature="0"
         inkscape:export-filename="/media/monty/HD/Datos/restore/firma/logo/logo_diapos_2.png"
         inkscape:export-xdpi="60"
         inkscape:export-ydpi="60" /><text
         xml:space="preserve"
         style="font-size:40px;font-style:normal;font-weight:normal;line-height:125%;letter-spacing:0px;word-spacing:0px;fill:#000000;fill-opacity:1;stroke:none;font-family:Sans"
         x="-1491.1017"
         y="58.347458"
         id="text3411"
         sodipodi:linespacing="125%"
         transform="matrix(8,0,0,-8,0,6120)"><tspan
           sodipodi:role="line"
           id="tspan3413"
           x="-1491.1017"
           y="58.347458" /></text>
</g></g></svg>