<?xml version="1.0" encoding="UTF-8" ?>
<!DOCTYPE svg PUBLIC "-//W3C//DTD SVG 1.1//EN" "http://www.w3.org/Graphics/SVG/1.1/DTD/svg11.dtd">
<svg width="463pt" height="91pt" viewBox="0 0 463 91" version="1.1" xmlns="http://www.w3.org/2000/svg">
<path fill="#a6bcd9" d=" M 0.00 0.00 L 463.00 0.00 L 463.00 2.00 C 308.67 2.06 154.33 1.97 0.00 2.04 L 0.00 0.00 Z" />
<path fill="#698db0" d=" M 0.00 2.04 C 154.33 1.97 308.67 2.06 463.00 2.00 L 463.00 3.00 C 390.00 3.00 317.00 3.00 244.00 3.00 C 244.00 9.67 244.00 16.33 244.00 23.00 C 317.00 23.00 390.00 23.00 463.00 23.00 L 463.00 24.15 C 433.68 23.79 404.34 24.11 375.01 24.00 C 250.34 24.00 125.67 24.00 1.00 24.00 C 1.00 24.75 1.00 26.25 1.00 27.00 C 155.00 27.00 309.00 27.00 463.00 27.00 L 463.00 28.01 C 445.33 27.98 427.66 28.01 410.00 28.00 L 409.00 28.00 C 388.00 28.00 367.00 28.00 346.00 28.00 L 345.00 28.00 C 324.00 28.00 303.00 28.00 281.99 28.00 L 281.01 28.00 C 260.00 28.00 239.00 28.00 218.00 28.00 L 217.02 28.00 C 196.01 28.00 175.00 28.00 153.99 28.00 L 153.00 28.00 C 132.00 28.00 111.00 28.00 90.00 28.00 L 89.03 28.00 C 68.00 28.05 46.98 27.91 25.95 28.06 C 17.31 28.44 8.65 28.46 0.00 28.16 L 0.00 2.04 Z" />
<path fill="#ffffff" d=" M 1.00 3.00 C 55.75 2.99 110.50 3.01 165.25 2.99 C 161.81 5.60 158.49 9.43 159.09 14.07 C 159.36 17.87 162.08 20.81 165.04 22.92 C 110.36 23.10 55.68 22.95 1.00 23.00 C 1.00 16.33 1.00 9.67 1.00 3.00 Z" />
<path fill="#fafbfd" d=" M 164.14 5.20 C 166.48 3.71 169.16 2.88 171.95 3.01 C 195.64 2.99 219.32 3.01 243.00 3.00 C 243.00 3.80 243.01 5.39 243.01 6.19 C 220.34 6.39 197.67 6.22 175.00 6.36 C 171.34 6.40 167.70 5.98 164.14 5.20 Z" />
<path fill="#ffffff" d=" M 244.00 3.00 C 317.00 3.00 390.00 3.00 463.00 3.00 L 463.00 23.00 C 390.00 23.00 317.00 23.00 244.00 23.00 C 244.00 16.33 244.00 9.67 244.00 3.00 Z" />
<path fill="#e1eaf6" d=" M 163.75 5.12 L 164.14 5.20 C 167.70 5.98 171.34 6.40 175.00 6.36 C 197.67 6.22 220.34 6.39 243.01 6.19 C 242.98 9.03 242.93 11.87 242.95 14.72 C 240.38 14.77 237.81 14.82 235.25 14.89 L 235.22 14.76 C 235.82 14.23 237.02 13.18 237.62 12.65 C 235.36 12.75 233.10 12.79 230.84 12.88 C 231.27 13.88 231.71 14.88 232.15 15.89 C 231.64 15.90 230.61 15.93 230.10 15.95 C 230.10 14.66 230.10 13.36 230.09 12.07 C 230.78 11.58 231.47 11.08 232.16 10.59 C 231.75 9.97 230.92 8.73 230.51 8.11 C 231.95 8.46 233.40 8.76 234.87 9.01 C 233.75 7.82 232.36 7.01 230.82 6.52 C 229.74 7.85 228.65 9.17 227.54 10.47 C 227.61 10.96 227.76 11.93 227.83 12.41 C 216.56 12.51 205.30 12.44 194.03 12.42 C 187.29 12.38 180.53 12.72 173.81 12.11 C 172.54 11.06 171.33 9.91 169.91 9.07 C 168.47 9.31 167.07 9.77 165.67 10.15 C 163.85 10.68 162.00 11.10 160.15 11.49 C 161.03 9.20 162.27 7.07 163.75 5.12 Z" />
<path fill="#6e747e" d=" M 230.82 6.52 C 232.36 7.01 233.75 7.82 234.87 9.01 C 233.40 8.76 231.95 8.46 230.51 8.11 C 230.92 8.73 231.75 9.97 232.16 10.59 C 231.47 11.08 230.78 11.58 230.09 12.07 C 230.10 13.36 230.10 14.66 230.10 15.95 C 230.61 15.93 231.64 15.90 232.15 15.89 C 231.71 14.88 231.27 13.88 230.84 12.88 C 233.10 12.79 235.36 12.75 237.62 12.65 C 237.02 13.18 235.82 14.23 235.22 14.76 L 235.25 14.89 C 235.40 15.45 235.71 16.58 235.87 17.14 C 233.76 16.99 231.65 16.85 229.54 16.71 C 228.17 17.70 226.78 18.68 225.38 19.64 C 225.21 18.88 224.85 17.37 224.67 16.61 C 225.30 16.93 226.56 17.57 227.19 17.89 C 227.45 16.07 227.74 14.25 227.83 12.41 C 227.76 11.93 227.61 10.96 227.54 10.47 C 228.65 9.17 229.74 7.85 230.82 6.52 Z" />
<path fill="#eaba72" d=" M 271.02 9.51 C 271.17 9.43 271.49 9.28 271.64 9.20 L 271.38 9.57 L 271.02 9.51 Z" />
<path fill="#75c1ea" d=" M 271.64 9.20 L 272.82 7.58 C 271.59 12.14 271.60 16.89 272.83 21.45 L 271.64 19.81 L 271.38 19.44 C 271.30 19.33 271.14 19.12 271.06 19.02 C 271.04 18.27 271.00 16.77 270.99 16.02 C 270.99 15.26 270.99 13.75 270.99 12.99 C 271.00 12.24 271.04 10.74 271.05 9.99 C 271.13 9.88 271.29 9.67 271.38 9.57 L 271.64 9.20 Z" />
<path fill="#eaba72" d=" M 294.02 9.51 C 294.18 9.43 294.49 9.27 294.64 9.20 L 294.38 9.57 L 294.02 9.51 Z" />
<path fill="#75c1ea" d=" M 294.64 9.20 L 295.82 7.56 C 294.59 12.13 294.59 16.88 295.83 21.45 L 294.65 19.81 L 294.38 19.44 C 294.30 19.34 294.14 19.12 294.06 19.02 C 294.04 18.27 294.01 16.78 293.99 16.03 C 293.99 15.27 293.99 13.75 293.99 12.99 C 294.00 12.24 294.04 10.74 294.06 9.99 C 294.14 9.89 294.30 9.67 294.38 9.57 L 294.64 9.20 Z" />
<path fill="#9b0072" d=" M 375.40 9.07 C 375.53 8.90 375.79 8.57 375.93 8.40 L 376.07 9.03 L 375.40 9.07 Z" />
<path fill="#8eccf1" d=" M 375.93 8.40 C 378.36 11.05 378.79 15.28 376.80 18.30 L 376.83 17.65 C 376.92 15.61 377.06 13.50 376.44 11.53 C 376.38 11.37 376.24 11.05 376.18 10.89 C 376.15 10.42 376.09 9.49 376.07 9.03 L 375.93 8.40 Z" />
<path fill="#ab3956" d=" M 385.14 11.72 C 383.04 12.20 383.00 7.48 385.16 8.05 C 384.65 9.28 384.65 10.50 385.14 11.72 Z" />
<path fill="#b2e5ff" d=" M 385.16 8.05 L 385.98 8.06 C 385.96 9.27 385.95 10.49 385.95 11.71 L 385.14 11.72 C 384.65 10.50 384.65 9.28 385.16 8.05 Z" />
<path fill="#ffdaa3" d=" M 385.98 8.06 L 386.81 8.07 C 387.27 9.29 387.26 10.50 386.76 11.71 L 385.95 11.71 C 385.95 10.49 385.96 9.27 385.98 8.06 Z" />
<path fill="#1d7cc1" d=" M 386.81 8.07 C 388.96 7.59 388.88 12.23 386.76 11.71 C 387.26 10.50 387.27 9.29 386.81 8.07 Z" />
<path fill="#ab3956" d=" M 402.15 11.73 C 400.04 12.20 400.00 7.47 402.17 8.06 C 401.66 9.29 401.65 10.51 402.15 11.73 Z" />
<path fill="#b2e5ff" d=" M 402.17 8.06 L 402.98 8.08 C 402.96 9.29 402.95 10.51 402.96 11.72 L 402.15 11.73 C 401.65 10.51 401.66 9.29 402.17 8.06 Z" />
<path fill="#ffdaa3" d=" M 402.98 8.08 L 403.81 8.08 C 404.27 9.29 404.26 10.51 403.78 11.71 L 402.96 11.72 C 402.95 10.51 402.96 9.29 402.98 8.08 Z" />
<path fill="#1d7cc1" d=" M 403.81 8.08 C 405.96 7.57 405.89 12.20 403.78 11.71 C 404.26 10.51 404.27 9.29 403.81 8.08 Z" />
<path fill="#ab3956" d=" M 415.15 11.74 C 413.04 12.21 413.00 7.47 415.16 8.07 C 414.66 9.30 414.65 10.52 415.15 11.74 Z" />
<path fill="#b2e5ff" d=" M 415.16 8.07 L 415.98 8.08 C 415.96 9.29 415.95 10.51 415.97 11.72 L 415.15 11.74 C 414.65 10.52 414.66 9.30 415.16 8.07 Z" />
<path fill="#ffdaa3" d=" M 415.98 8.08 L 416.81 8.08 C 417.27 9.30 417.26 10.51 416.78 11.72 L 415.97 11.72 C 415.95 10.51 415.96 9.29 415.98 8.08 Z" />
<path fill="#1d7cc1" d=" M 416.81 8.08 C 418.96 7.57 418.89 12.20 416.78 11.72 C 417.26 10.51 417.27 9.30 416.81 8.08 Z" />
<path fill="#ab3956" d=" M 441.15 11.74 C 439.05 12.22 439.00 7.48 441.16 8.07 C 440.65 9.30 440.65 10.52 441.15 11.74 Z" />
<path fill="#b2e5ff" d=" M 441.16 8.07 L 441.98 8.08 C 441.96 9.30 441.95 10.51 441.96 11.73 L 441.15 11.74 C 440.65 10.52 440.65 9.30 441.16 8.07 Z" />
<path fill="#ffdaa3" d=" M 441.98 8.08 L 442.81 8.09 C 443.27 9.31 443.26 10.52 442.78 11.73 L 441.96 11.73 C 441.95 10.51 441.96 9.30 441.98 8.08 Z" />
<path fill="#1d7cc1" d=" M 442.81 8.09 C 444.96 7.57 444.89 12.20 442.78 11.73 C 443.26 10.52 443.27 9.31 442.81 8.09 Z" />
<path fill="#9b0072" d=" M 446.41 9.07 C 446.54 8.90 446.80 8.57 446.94 8.40 L 447.07 9.03 L 446.41 9.07 Z" />
<path fill="#8eccf1" d=" M 446.94 8.40 C 449.36 11.04 449.80 15.30 447.80 18.31 L 447.83 17.66 C 447.92 15.63 448.05 13.53 447.46 11.55 C 447.38 11.39 447.23 11.06 447.16 10.89 C 447.14 10.43 447.09 9.49 447.07 9.03 L 446.94 8.40 Z" />
<path fill="#ba7200" d=" M 64.24 8.24 L 65.07 9.62 L 65.12 10.14 C 65.17 10.88 65.27 12.37 65.32 13.11 L 65.32 13.89 C 65.27 14.63 65.16 16.12 65.11 16.86 L 65.06 17.38 L 64.24 18.76 C 63.81 15.27 63.81 11.73 64.24 8.24 Z" />
<path fill="#000000" d=" M 65.07 9.62 C 66.25 8.70 67.53 8.57 68.91 9.21 L 68.89 9.69 C 68.12 9.82 66.56 10.07 65.78 10.20 L 65.12 10.14 L 65.07 9.62 Z" />
<path fill="#72baea" d=" M 68.91 9.21 C 68.90 9.33 68.90 9.57 68.89 9.69 L 68.91 9.21 Z" />
<path fill="#eaba72" d=" M 72.17 9.74 C 72.18 9.60 72.20 9.32 72.21 9.18 L 72.17 9.74 Z" />
<path fill="#000000" d=" M 72.21 9.18 C 72.87 9.23 74.19 9.33 74.85 9.38 L 74.69 9.94 L 73.96 10.23 C 73.51 10.11 72.62 9.86 72.17 9.74 L 72.21 9.18 Z" />
<path fill="#4335aa" d=" M 74.85 9.38 C 76.40 9.41 76.86 12.01 75.63 12.81 L 75.08 12.71 C 74.98 12.02 74.79 10.63 74.69 9.94 L 74.85 9.38 Z" />
<path fill="#aeb2ba" d=" M 165.67 10.15 C 167.07 9.77 168.47 9.31 169.91 9.07 C 171.33 9.91 172.54 11.06 173.81 12.11 C 173.01 13.38 172.22 14.64 171.44 15.91 C 169.51 14.00 167.58 12.08 165.67 10.15 Z" />
<path fill="#d49b00" d=" M 259.00 9.01 L 260.00 8.99 C 260.00 12.00 260.00 15.01 260.00 18.02 L 259.00 17.97 C 258.99 14.99 258.99 12.00 259.00 9.01 Z" />
<path fill="#009bd4" d=" M 260.00 8.99 L 261.00 9.00 C 261.00 11.99 261.00 14.99 261.00 17.98 L 260.00 18.02 C 260.00 15.01 260.00 12.00 260.00 8.99 Z" />
<path fill="#d49b00" d=" M 263.29 8.23 L 263.93 9.66 L 264.02 10.19 C 264.09 10.92 264.23 12.36 264.30 13.09 L 264.26 13.83 C 264.01 15.05 263.95 16.29 264.06 17.53 L 263.00 18.10 C 262.98 14.81 262.88 11.51 263.29 8.23 Z" />
<path fill="#1f2a33" d=" M 263.93 9.66 C 264.96 8.47 267.07 8.56 268.34 9.30 C 268.04 10.68 265.72 9.96 264.67 10.26 L 264.02 10.19 L 263.93 9.66 Z" />
<path fill="#9b0072" d=" M 271.02 9.51 L 271.38 9.57 C 271.29 9.67 271.13 9.88 271.05 9.99 L 271.02 9.51 Z" />
<path fill="#720000" d=" M 277.03 9.99 C 277.17 9.85 277.47 9.57 277.61 9.43 L 277.60 9.94 L 277.03 9.99 Z" />
<path fill="#2e252f" d=" M 277.61 9.43 C 278.96 8.45 281.39 8.87 282.03 10.53 L 281.92 11.06 L 281.46 11.01 C 280.27 10.33 278.98 9.97 277.60 9.94 L 277.61 9.43 Z" />
<path fill="#ba7200" d=" M 285.22 8.26 L 286.27 9.36 L 286.28 9.98 C 286.25 10.78 286.21 12.37 286.18 13.16 L 286.29 13.96 C 286.06 15.14 285.98 16.33 286.07 17.53 L 284.95 18.11 C 284.93 14.82 284.89 11.53 285.22 8.26 Z" />
<path fill="#000000" d=" M 286.27 9.36 C 286.98 9.37 288.39 9.39 289.10 9.40 L 289.03 10.01 C 288.53 10.04 287.53 10.12 287.03 10.16 L 286.28 9.98 L 286.27 9.36 Z" />
<path fill="#00009b" d=" M 289.10 9.40 C 289.25 9.57 289.54 9.90 289.69 10.07 L 289.03 10.01 L 289.10 9.40 Z" />
<path fill="#9b0072" d=" M 294.02 9.51 L 294.38 9.57 C 294.30 9.67 294.14 9.89 294.06 9.99 L 294.02 9.51 Z" />
<path fill="#d49b00" d=" M 300.29 10.21 C 300.48 10.00 300.86 9.58 301.05 9.37 C 300.86 9.58 300.48 10.00 300.29 10.21 Z" />
<path fill="#67344c" d=" M 301.05 9.37 L 301.85 9.74 C 301.87 10.19 301.91 11.08 301.93 11.53 L 301.11 11.66 L 300.45 11.31 L 300.29 10.21 C 300.48 10.00 300.86 9.58 301.05 9.37 Z" />
<path fill="#4eb8ea" d=" M 301.85 9.74 L 302.63 9.73 C 302.64 10.18 302.65 11.08 302.66 11.52 L 301.93 11.53 C 301.91 11.08 301.87 10.19 301.85 9.74 Z" />
<path fill="#eaba72" d=" M 308.18 9.75 C 308.19 9.61 308.20 9.33 308.21 9.19 L 308.18 9.75 Z" />
<path fill="#000000" d=" M 308.21 9.19 C 308.87 9.24 310.19 9.33 310.85 9.38 L 310.70 9.94 L 309.97 10.23 C 309.52 10.11 308.63 9.87 308.18 9.75 L 308.21 9.19 Z" />
<path fill="#4335aa" d=" M 310.85 9.38 C 312.40 9.43 312.85 12.03 311.63 12.83 L 311.07 12.72 C 310.98 12.02 310.79 10.63 310.70 9.94 L 310.85 9.38 Z" />
<path fill="#eaba72" d=" M 322.33 9.80 C 322.34 9.64 322.37 9.32 322.39 9.17 L 322.33 9.80 Z" />
<path fill="#000000" d=" M 322.39 9.17 C 322.83 9.24 323.71 9.38 324.15 9.45 L 324.07 10.14 C 323.64 10.06 322.77 9.89 322.33 9.80 L 322.39 9.17 Z" />
<path fill="#00009b" d=" M 324.15 9.45 C 324.30 9.64 324.62 10.03 324.77 10.22 L 324.07 10.14 L 324.15 9.45 Z" />
<path fill="#4d252f" d=" M 328.25 11.30 C 327.76 9.50 330.67 8.27 331.97 9.35 L 332.02 9.90 C 330.88 10.23 329.81 10.69 328.80 11.29 L 328.25 11.30 Z" />
<path fill="#9cd2f7" d=" M 331.97 9.35 C 335.46 9.81 333.50 14.71 333.76 16.99 L 332.85 15.77 C 333.07 14.04 333.00 12.27 332.58 10.57 L 332.49 9.99 L 332.02 9.90 L 331.97 9.35 Z" />
<path fill="#ba7200" d=" M 339.21 8.27 L 340.34 9.37 L 340.35 10.01 C 340.32 10.81 340.26 12.41 340.23 13.20 L 340.27 13.82 C 340.23 14.59 340.17 16.12 340.13 16.89 L 340.07 17.41 L 339.24 18.76 C 338.80 15.28 338.84 11.75 339.21 8.27 Z" />
<path fill="#000000" d=" M 340.34 9.37 L 341.16 8.88 C 341.65 9.05 342.62 9.38 343.11 9.55 L 343.03 10.18 C 342.54 10.19 341.58 10.21 341.10 10.22 L 340.35 10.01 L 340.34 9.37 Z" />
<path fill="#00009b" d=" M 343.11 9.55 C 343.27 9.72 343.58 10.06 343.74 10.23 L 343.03 10.18 L 343.11 9.55 Z" />
<path fill="#eaba72" d=" M 348.20 9.82 C 348.19 9.68 348.17 9.40 348.17 9.26 L 348.20 9.82 Z" />
<path fill="#000000" d=" M 348.17 9.26 C 348.83 9.29 350.17 9.33 350.84 9.35 L 350.70 9.92 L 350.00 10.23 C 349.55 10.13 348.65 9.93 348.20 9.82 L 348.17 9.26 Z" />
<path fill="#4335aa" d=" M 350.84 9.35 C 352.38 9.42 352.87 12.01 351.63 12.82 L 351.07 12.71 C 350.98 12.01 350.79 10.62 350.70 9.92 L 350.84 9.35 Z" />
<path fill="#b98646" d=" M 360.82 14.52 C 361.68 12.46 362.08 8.47 365.16 8.96 C 365.00 10.91 364.91 12.88 365.09 14.84 L 364.04 14.94 C 364.00 13.32 363.99 11.70 364.00 10.08 C 363.00 11.60 362.00 13.13 360.82 14.52 Z" />
<path fill="#72baea" d=" M 365.16 8.96 C 366.52 10.27 366.64 13.21 365.76 14.90 L 365.09 14.84 C 364.91 12.88 365.00 10.91 365.16 8.96 Z" />
<path fill="#4d252f" d=" M 368.27 11.38 C 367.75 9.55 370.64 8.26 372.00 9.33 L 372.05 9.88 C 370.87 10.21 369.78 10.70 368.76 11.34 L 368.27 11.38 Z" />
<path fill="#9cd2f7" d=" M 372.00 9.33 C 375.45 9.95 373.53 14.74 373.70 17.05 L 372.80 15.79 C 373.04 14.06 373.18 12.21 372.43 10.57 C 372.34 10.40 372.14 10.05 372.05 9.88 L 372.00 9.33 Z" />
<path fill="#f5c787" d=" M 375.40 9.07 L 376.07 9.03 C 376.09 9.49 376.15 10.42 376.18 10.89 L 375.42 10.81 C 375.41 10.37 375.40 9.51 375.40 9.07 Z" />
<path fill="#f3c66d" d=" M 388.71 8.90 C 389.22 9.05 390.25 9.35 390.76 9.50 L 390.72 10.08 C 389.67 10.74 389.71 11.25 390.86 11.59 L 391.08 11.83 L 391.89 12.89 L 391.97 13.43 L 392.10 14.40 C 391.51 13.96 390.32 13.10 389.72 12.66 L 389.38 13.57 C 389.21 12.40 388.88 10.07 388.71 8.90 Z" />
<path fill="#5d6e88" d=" M 390.76 9.50 L 391.18 9.01 C 392.35 8.69 394.63 8.75 394.90 10.24 C 393.54 10.55 392.00 10.56 391.08 11.83 L 390.86 11.59 C 390.83 11.21 390.76 10.46 390.72 10.08 L 390.76 9.50 Z" />
<path fill="#d49b00" d=" M 397.00 9.00 L 398.00 9.00 C 398.00 12.00 398.00 15.00 398.00 18.01 L 397.00 18.00 C 397.00 15.00 397.00 12.00 397.00 9.00 Z" />
<path fill="#009bd4" d=" M 398.00 9.00 L 399.00 9.00 C 399.00 12.00 399.00 15.00 399.00 17.99 L 398.00 18.01 C 398.00 15.00 398.00 12.00 398.00 9.00 Z" />
<path fill="#ca970b" d=" M 420.00 8.99 L 421.36 8.96 C 421.41 9.01 421.50 9.11 421.55 9.17 C 421.09 12.09 420.98 15.06 420.89 18.01 L 420.00 18.00 C 420.00 15.00 420.00 11.99 420.00 8.99 Z" />
<path fill="#000000" d=" M 421.36 8.96 L 421.58 8.93 L 421.55 9.17 C 421.50 9.11 421.41 9.01 421.36 8.96 Z" />
<path fill="#64a0ca" d=" M 421.58 8.93 C 422.88 9.75 423.64 11.07 424.17 12.48 L 423.58 12.43 L 421.83 12.27 C 421.82 14.16 421.82 16.05 421.83 17.94 L 420.89 18.01 C 420.98 15.06 421.09 12.09 421.55 9.17 L 421.58 8.93 Z" />
<path fill="#e3ba72" d=" M 425.77 14.25 C 425.69 12.73 425.27 10.00 426.90 9.29 C 427.10 11.45 427.09 13.63 426.98 15.80 C 426.73 15.58 426.24 15.13 425.99 14.91 L 425.77 14.25 Z" />
<path fill="#009bd4" d=" M 426.90 9.29 L 428.00 8.91 C 428.00 11.98 428.00 15.06 428.00 18.13 L 426.84 17.53 C 426.88 17.10 426.95 16.23 426.98 15.80 C 427.09 13.63 427.10 11.45 426.90 9.29 Z" />
<path fill="#720000" d=" M 432.02 9.99 C 432.17 9.85 432.46 9.57 432.60 9.43 L 432.59 9.94 L 432.02 9.99 Z" />
<path fill="#2e252f" d=" M 432.60 9.43 C 433.95 8.45 436.38 8.87 437.02 10.53 L 436.92 11.06 L 436.45 11.01 C 435.27 10.33 433.98 9.97 432.59 9.94 L 432.60 9.43 Z" />
<path fill="#f5c787" d=" M 446.41 9.07 L 447.07 9.03 C 447.09 9.49 447.14 10.43 447.16 10.89 L 446.40 10.81 C 446.40 10.37 446.40 9.50 446.41 9.07 Z" />
<path fill="#9bd4ff" d=" M 65.12 10.14 L 65.78 10.20 C 65.83 10.85 65.94 12.16 65.99 12.82 L 65.32 13.11 C 65.27 12.37 65.17 10.88 65.12 10.14 Z" />
<path fill="#cdb371" d=" M 73.96 10.23 L 74.69 9.94 C 74.79 10.63 74.98 12.02 75.08 12.71 C 74.39 13.75 73.72 14.81 73.08 15.87 L 72.49 16.73 C 72.08 16.85 71.27 17.09 70.86 17.20 C 72.09 14.99 74.98 13.07 73.96 10.23 Z" />
<path fill="#b4cbe9" d=" M 160.15 11.49 C 162.00 11.10 163.85 10.68 165.67 10.15 C 167.58 12.08 169.51 14.00 171.44 15.91 C 172.22 14.64 173.01 13.38 173.81 12.11 C 180.53 12.72 187.29 12.38 194.03 12.42 C 205.30 12.44 216.56 12.51 227.83 12.41 C 227.74 14.25 227.45 16.07 227.19 17.89 C 226.56 17.57 225.30 16.93 224.67 16.61 C 224.85 17.37 225.21 18.88 225.38 19.64 C 226.78 18.68 228.17 17.70 229.54 16.71 C 231.65 16.85 233.76 16.99 235.87 17.14 C 235.71 16.58 235.40 15.45 235.25 14.89 C 237.81 14.82 240.38 14.77 242.95 14.72 C 242.95 17.41 242.91 20.11 242.86 22.81 C 218.58 22.72 194.30 22.82 170.02 22.77 C 164.00 23.05 159.76 17.21 159.59 11.62 L 160.15 11.49 Z" />
<path fill="#72baea" d=" M 264.02 10.19 L 264.67 10.26 C 264.75 10.90 264.91 12.18 264.99 12.81 L 264.30 13.09 C 264.23 12.36 264.09 10.92 264.02 10.19 Z" />
<path fill="#daa034" d=" M 270.39 13.03 C 269.49 11.67 269.72 10.66 271.05 9.99 C 271.04 10.74 271.00 12.24 270.99 12.99 L 270.39 13.03 Z" />
<path fill="#f3c66d" d=" M 276.30 18.09 C 274.47 15.90 273.28 11.73 276.35 10.03 L 276.18 10.77 L 275.89 11.80 C 275.04 12.63 274.75 13.60 275.04 14.72 L 275.65 14.99 L 275.88 15.90 C 275.93 16.17 276.04 16.71 276.10 16.97 L 276.30 18.09 Z" />
<path fill="#000000" d=" M 276.35 10.03 L 277.03 9.99 C 276.82 10.19 276.39 10.58 276.18 10.77 L 276.35 10.03 Z" />
<path fill="#b2defa" d=" M 277.03 9.99 L 277.60 9.94 C 278.44 10.82 277.60 13.29 276.24 12.68 L 275.89 11.80 L 276.18 10.77 C 276.39 10.58 276.82 10.19 277.03 9.99 Z" />
<path fill="#98c5ee" d=" M 282.03 10.53 C 284.51 9.74 285.10 15.26 283.14 15.81 L 282.84 15.02 C 283.32 13.74 283.07 12.65 282.11 11.76 L 281.92 11.06 L 282.03 10.53 Z" />
<path fill="#72baea" d=" M 286.28 9.98 L 287.03 10.16 C 286.99 10.83 286.90 12.18 286.85 12.86 L 286.18 13.16 C 286.21 12.37 286.25 10.78 286.28 9.98 Z" />
<path fill="#fffffc" d=" M 287.03 10.16 C 287.53 10.12 288.53 10.04 289.03 10.01 C 288.94 10.77 288.75 12.29 288.66 13.06 C 288.21 13.01 287.31 12.91 286.85 12.86 C 286.90 12.18 286.99 10.83 287.03 10.16 Z" />
<path fill="#daa034" d=" M 289.03 10.01 L 289.69 10.07 C 289.61 10.84 289.44 12.37 289.36 13.14 L 288.66 13.06 C 288.75 12.29 288.94 10.77 289.03 10.01 Z" />
<path fill="#4d91d3" d=" M 289.69 10.07 L 291.10 9.15 C 290.77 11.97 290.46 14.80 291.02 17.61 C 290.33 16.30 289.62 15.00 288.93 13.70 L 288.66 13.06 L 289.36 13.14 C 289.44 12.37 289.61 10.84 289.69 10.07 Z" />
<path fill="#daa034" d=" M 293.39 13.03 C 292.50 11.68 292.72 10.66 294.06 9.99 C 294.04 10.74 294.00 12.24 293.99 12.99 L 293.39 13.03 Z" />
<path fill="#cdb371" d=" M 309.97 10.23 L 310.70 9.94 C 310.79 10.63 310.98 12.02 311.07 12.72 C 310.38 13.75 309.71 14.80 309.07 15.86 L 308.47 16.73 C 308.07 16.85 307.27 17.09 306.87 17.21 C 308.08 14.99 310.97 13.07 309.97 10.23 Z" />
<path fill="#ffd49b" d=" M 314.09 10.82 C 314.09 10.68 314.09 10.41 314.10 10.28 L 314.09 10.82 Z" />
<path fill="#00009b" d=" M 314.10 10.28 C 314.24 10.42 314.52 10.70 314.67 10.84 L 314.09 10.82 L 314.10 10.28 Z" />
<path fill="#dfab39" d=" M 324.07 10.14 L 324.77 10.22 C 324.72 10.67 324.60 11.57 324.54 12.02 L 323.94 12.19 C 323.97 11.68 324.04 10.65 324.07 10.14 Z" />
<path fill="#4aaddc" d=" M 324.77 10.22 L 325.28 10.10 C 326.30 11.24 326.34 12.49 325.43 13.85 L 324.94 14.05 L 324.21 13.83 L 324.08 13.06 C 324.20 12.80 324.43 12.28 324.54 12.02 C 324.60 11.57 324.72 10.67 324.77 10.22 Z" />
<path fill="#f6fcf5" d=" M 328.80 11.29 C 329.81 10.69 330.88 10.23 332.02 9.90 L 332.03 10.55 C 331.81 12.76 331.49 14.97 330.91 17.12 L 329.98 16.68 C 329.84 16.57 329.56 16.35 329.42 16.25 L 328.92 15.38 C 329.21 14.01 329.17 12.64 328.80 11.29 Z" />
<path fill="#000072" d=" M 332.02 9.90 L 332.49 9.99 L 332.58 10.57 L 332.03 10.55 L 332.02 9.90 Z" />
<path fill="#72baea" d=" M 340.35 10.01 L 341.10 10.22 C 341.04 10.91 340.92 12.29 340.85 12.98 L 340.23 13.20 C 340.26 12.41 340.32 10.81 340.35 10.01 Z" />
<path fill="#fffff8" d=" M 341.10 10.22 C 341.58 10.21 342.54 10.19 343.03 10.18 C 343.11 10.69 343.27 11.72 343.35 12.23 C 342.73 12.42 341.48 12.79 340.85 12.98 C 340.92 12.29 341.04 10.91 341.10 10.22 Z" />
<path fill="#d29639" d=" M 343.03 10.18 L 343.74 10.23 C 343.81 10.77 343.95 11.85 344.02 12.39 L 343.35 12.23 C 343.27 11.72 343.11 10.69 343.03 10.18 Z" />
<path fill="#7cb8e4" d=" M 343.74 10.23 L 344.71 8.99 C 344.54 11.71 347.09 16.07 343.85 17.72 L 343.88 17.16 L 344.01 15.15 C 344.06 15.03 344.16 14.79 344.21 14.67 L 344.39 14.23 L 343.92 14.12 C 343.95 13.68 344.00 12.82 344.02 12.39 C 343.95 11.85 343.81 10.77 343.74 10.23 Z" />
<path fill="#cdb371" d=" M 350.00 10.23 L 350.70 9.92 C 350.79 10.62 350.98 12.01 351.07 12.71 C 350.38 13.75 349.72 14.81 349.07 15.88 L 348.49 16.73 C 348.08 16.85 347.27 17.08 346.87 17.19 C 348.13 15.00 350.88 13.09 350.00 10.23 Z" />
<path fill="#74b0bb" d=" M 357.76 11.01 C 358.25 10.81 359.23 10.43 359.72 10.23 C 359.82 11.62 359.19 12.13 357.82 11.75 L 357.76 11.01 Z" />
<path fill="#abdbe6" d=" M 360.82 14.52 C 362.00 13.13 363.00 11.60 364.00 10.08 C 363.99 11.70 364.00 13.32 364.04 14.94 C 363.41 14.96 362.15 14.99 361.53 15.00 L 360.82 14.52 Z" />
<path fill="#f8fcf5" d=" M 368.76 11.34 C 369.78 10.70 370.87 10.21 372.05 9.88 L 372.00 10.47 C 371.81 12.72 371.58 14.98 370.79 17.11 L 369.73 16.67 C 369.46 14.88 369.21 13.09 368.76 11.34 Z" />
<path fill="#000072" d=" M 372.05 9.88 C 372.14 10.05 372.34 10.40 372.43 10.57 L 372.00 10.47 L 372.05 9.88 Z" />
<path fill="#720039" d=" M 390.86 11.59 C 389.71 11.25 389.67 10.74 390.72 10.08 C 390.76 10.46 390.83 11.21 390.86 11.59 Z" />
<path fill="#f3c66d" d=" M 431.27 18.07 C 429.45 15.87 428.31 11.76 431.34 10.03 L 431.18 10.77 L 430.89 11.80 C 430.04 12.64 429.75 13.61 430.04 14.73 L 430.65 15.00 L 430.88 15.91 C 430.94 16.17 431.05 16.70 431.10 16.97 L 431.27 18.07 Z" />
<path fill="#000000" d=" M 431.34 10.03 L 432.02 9.99 C 431.81 10.19 431.39 10.58 431.18 10.77 L 431.34 10.03 Z" />
<path fill="#b2defa" d=" M 432.02 9.99 L 432.59 9.94 C 433.44 10.82 432.60 13.29 431.24 12.68 L 430.89 11.80 L 431.18 10.77 C 431.39 10.58 431.81 10.19 432.02 9.99 Z" />
<path fill="#98c5ee" d=" M 437.02 10.53 C 439.50 9.74 440.10 15.27 438.14 15.82 L 437.84 15.03 C 438.32 13.75 438.07 12.66 437.11 11.77 L 436.92 11.06 L 437.02 10.53 Z" />
<path fill="#ffeebd" d=" M 281.46 11.01 L 281.92 11.06 L 282.11 11.76 C 282.10 12.56 282.07 14.17 282.06 14.97 L 281.79 15.73 L 281.42 16.08 C 280.35 14.69 280.51 12.44 281.46 11.01 Z" />
<path fill="#f3c66d" d=" M 299.32 11.23 L 300.45 11.31 C 300.13 11.74 299.49 12.60 299.17 13.03 L 298.80 13.55 L 299.01 14.16 L 299.29 14.97 L 299.00 15.48 C 298.83 16.01 298.48 17.07 298.31 17.60 L 296.70 18.20 C 297.56 15.87 298.45 13.56 299.32 11.23 Z" />
<path fill="#6bb5df" d=" M 300.45 11.31 L 301.11 11.66 C 300.62 12.72 300.53 13.81 300.83 14.92 C 300.44 14.93 299.67 14.96 299.29 14.97 L 299.01 14.16 C 299.05 13.88 299.13 13.32 299.17 13.03 C 299.49 12.60 300.13 11.74 300.45 11.31 Z" />
<path fill="#fafae9" d=" M 301.11 11.66 L 301.93 11.53 L 302.24 12.22 C 302.09 12.87 301.81 14.18 301.66 14.83 L 300.83 14.92 C 300.53 13.81 300.62 12.72 301.11 11.66 Z" />
<path fill="#72009b" d=" M 301.93 11.53 L 302.66 11.52 L 302.86 12.27 L 302.24 12.22 L 301.93 11.53 Z" />
<path fill="#f2c482" d=" M 327.86 11.23 L 328.25 11.30 C 327.84 12.63 327.82 13.96 328.20 15.30 L 327.87 15.97 C 326.02 15.44 326.44 12.16 327.86 11.23 Z" />
<path fill="#0056b2" d=" M 328.25 11.30 L 328.80 11.29 C 329.17 12.64 329.21 14.01 328.92 15.38 L 328.20 15.30 C 327.82 13.96 327.84 12.63 328.25 11.30 Z" />
<path fill="#d19a38" d=" M 332.03 10.55 L 332.58 10.57 C 333.00 12.27 333.07 14.04 332.85 15.77 C 332.37 16.11 331.40 16.78 330.91 17.12 C 331.49 14.97 331.81 12.76 332.03 10.55 Z" />
<path fill="#d49b00" d=" M 335.18 11.17 L 336.00 11.21 C 336.00 11.60 336.00 12.40 336.00 12.79 L 335.18 12.83 L 334.71 12.00 L 335.18 11.17 Z" />
<path fill="#0072ba" d=" M 336.00 11.21 L 336.82 11.17 L 337.29 12.00 L 336.82 12.83 L 336.00 12.79 C 336.00 12.40 336.00 11.60 336.00 11.21 Z" />
<path fill="#755d39" d=" M 356.25 12.09 C 356.43 11.76 356.78 11.08 356.96 10.75 L 357.76 11.01 L 357.82 11.75 L 356.97 12.24 L 356.25 12.09 Z" />
<path fill="#eec482" d=" M 367.89 11.36 L 368.27 11.38 C 367.82 12.90 367.78 14.50 367.80 16.08 L 366.91 15.88 L 366.55 15.28 C 366.33 13.73 366.78 12.42 367.89 11.36 Z" />
<path fill="#3474c5" d=" M 368.27 11.38 L 368.76 11.34 C 369.21 13.09 369.46 14.88 369.73 16.67 L 368.96 16.77 C 368.67 16.59 368.09 16.25 367.80 16.08 C 367.78 14.50 367.82 12.90 368.27 11.38 Z" />
<path fill="#d19a38" d=" M 372.00 10.47 L 372.43 10.57 C 373.18 12.21 373.04 14.06 372.80 15.79 C 372.30 16.12 371.29 16.78 370.79 17.11 C 371.58 14.98 371.81 12.72 372.00 10.47 Z" />
<path fill="#9b0072" d=" M 376.18 10.89 C 376.24 11.05 376.38 11.37 376.44 11.53 L 376.09 11.41 L 376.18 10.89 Z" />
<path fill="#d49b00" d=" M 380.18 11.17 L 381.00 11.21 C 381.00 11.60 381.00 12.40 381.00 12.79 L 380.18 12.83 L 379.72 12.00 L 380.18 11.17 Z" />
<path fill="#0072ba" d=" M 381.00 11.21 L 381.82 11.17 L 382.29 12.00 L 381.82 12.83 L 381.00 12.79 C 381.00 12.40 381.00 11.60 381.00 11.21 Z" />
<path fill="#d49b00" d=" M 407.18 11.17 L 408.00 11.21 C 408.00 11.60 408.00 12.40 408.00 12.79 L 407.18 12.83 L 406.72 12.00 L 407.18 11.17 Z" />
<path fill="#0072ba" d=" M 408.00 11.21 L 408.82 11.17 L 409.29 12.00 L 408.82 12.83 L 408.00 12.79 C 408.00 12.40 408.00 11.60 408.00 11.21 Z" />
<path fill="#ffeebd" d=" M 436.45 11.01 L 436.92 11.06 L 437.11 11.77 C 437.10 12.57 437.07 14.18 437.06 14.98 L 436.79 15.74 L 436.42 16.07 C 435.36 14.68 435.50 12.43 436.45 11.01 Z" />
<path fill="#9b0072" d=" M 447.16 10.89 C 447.23 11.06 447.38 11.39 447.46 11.55 L 447.09 11.44 L 447.16 10.89 Z" />
<path fill="#000000" d=" M 145.59 12.00 C 148.20 11.99 150.81 11.99 153.42 12.01 C 152.13 13.37 150.85 14.75 149.48 16.03 C 148.13 14.73 146.86 13.37 145.59 12.00 Z" />
<path fill="#e7e9eb" d=" M 164.93 11.79 C 167.18 13.08 168.92 15.04 170.47 17.09 C 167.39 17.50 163.51 15.39 164.93 11.79 Z" />
<path fill="#2b231a" d=" M 252.12 12.95 C 250.49 12.05 253.62 11.69 254.16 11.87 C 254.91 11.97 256.41 12.16 257.17 12.26 L 257.17 12.74 C 255.61 13.45 253.76 13.12 252.12 12.95 Z" />
<path fill="#0072ba" d=" M 257.17 12.26 C 257.17 12.38 257.17 12.62 257.17 12.74 L 257.17 12.26 Z" />
<path fill="#720080" d=" M 275.04 14.72 C 274.75 13.60 275.04 12.63 275.89 11.80 L 276.24 12.68 L 276.19 14.19 L 275.65 14.99 L 275.04 14.72 Z" />
<path fill="#9b004c" d=" M 282.11 11.76 C 283.07 12.65 283.32 13.74 282.84 15.02 L 282.06 14.97 C 282.07 14.17 282.10 12.56 282.11 11.76 Z" />
<path fill="#e1b264" d=" M 302.24 12.22 L 302.86 12.27 C 302.94 12.80 303.11 13.87 303.20 14.40 C 302.81 14.51 302.05 14.72 301.66 14.83 C 301.81 14.18 302.09 12.87 302.24 12.22 Z" />
<path fill="#82c3e9" d=" M 302.86 12.27 C 304.35 11.45 305.56 14.90 304.61 16.04 L 304.09 16.11 C 303.87 15.68 303.42 14.82 303.20 14.40 C 303.11 13.87 302.94 12.80 302.86 12.27 Z" />
<path fill="#612a5d" d=" M 317.62 11.99 C 318.03 12.28 318.85 12.86 319.27 13.16 L 319.28 13.81 C 319.21 15.17 316.91 15.55 317.22 13.84 L 317.18 13.04 C 317.29 12.78 317.51 12.25 317.62 11.99 Z" />
<path fill="#9b0000" d=" M 323.94 12.19 L 324.54 12.02 C 324.43 12.28 324.20 12.80 324.08 13.06 L 323.94 12.19 Z" />
<path fill="#251717" d=" M 343.35 12.23 L 344.02 12.39 C 344.00 12.82 343.95 13.68 343.92 14.12 C 343.18 14.10 341.68 14.08 340.94 14.07 L 340.27 13.82 L 340.23 13.20 L 340.85 12.98 C 341.48 12.79 342.73 12.42 343.35 12.23 Z" />
<path fill="#f5ddb9" d=" M 354.18 14.05 C 352.78 13.16 352.94 12.65 354.65 12.51 C 354.53 12.89 354.30 13.66 354.18 14.05 Z" />
<path fill="#5e6153" d=" M 354.65 12.51 C 355.05 12.41 355.85 12.20 356.25 12.09 L 356.39 12.63 L 356.46 13.29 C 356.69 14.33 355.43 15.44 354.47 14.72 L 354.18 14.05 C 354.30 13.66 354.53 12.89 354.65 12.51 Z" />
<path fill="#009bd4" d=" M 356.25 12.09 L 356.97 12.24 C 356.82 12.34 356.54 12.53 356.39 12.63 L 356.25 12.09 Z" />
<path fill="#ca8b00" d=" M 376.09 11.41 L 376.44 11.53 C 377.06 13.50 376.92 15.61 376.83 17.65 L 376.33 17.62 C 375.70 15.64 375.84 13.45 376.09 11.41 Z" />
<path fill="#720072" d=" M 423.58 12.43 L 424.17 12.48 L 424.09 13.05 L 423.51 13.00 L 423.58 12.43 Z" />
<path fill="#720080" d=" M 430.04 14.73 C 429.75 13.61 430.04 12.64 430.89 11.80 L 431.24 12.68 L 431.19 14.20 L 430.65 15.00 L 430.04 14.73 Z" />
<path fill="#9b004c" d=" M 437.11 11.77 C 438.07 12.66 438.32 13.75 437.84 15.03 L 437.06 14.98 C 437.07 14.18 437.10 12.57 437.11 11.77 Z" />
<path fill="#ca8b00" d=" M 447.09 11.44 L 447.46 11.55 C 448.05 13.53 447.92 15.63 447.83 17.66 L 447.33 17.63 C 446.70 15.66 446.83 13.47 447.09 11.44 Z" />
<path fill="#000000" d=" M 65.32 13.11 L 65.99 12.82 C 66.45 12.91 67.38 13.11 67.85 13.20 L 67.85 13.79 C 67.39 13.89 66.46 14.08 65.99 14.18 L 65.32 13.89 L 65.32 13.11 Z" />
<path fill="#00009b" d=" M 67.85 13.20 L 68.46 13.19 C 68.31 13.34 68.00 13.64 67.85 13.79 L 67.85 13.20 Z" />
<path fill="#74b9df" d=" M 75.08 12.71 L 75.63 12.81 C 76.82 14.26 74.66 16.70 73.08 15.87 C 73.72 14.81 74.39 13.75 75.08 12.71 Z" />
<path fill="#000000" d=" M 264.30 13.09 L 264.99 12.81 C 265.45 12.92 266.38 13.12 266.85 13.22 L 266.82 13.81 C 266.34 13.90 265.37 14.07 264.88 14.16 L 264.26 13.83 L 264.30 13.09 Z" />
<path fill="#00009b" d=" M 266.85 13.22 L 267.46 13.23 C 267.30 13.38 266.98 13.66 266.82 13.81 L 266.85 13.22 Z" />
<path fill="#9b0000" d=" M 270.39 13.03 L 270.99 12.99 C 270.99 13.75 270.99 15.26 270.99 16.02 L 270.39 15.99 C 270.39 15.25 270.39 13.77 270.39 13.03 Z" />
<path fill="#000000" d=" M 286.18 13.16 L 286.85 12.86 C 287.31 12.91 288.21 13.01 288.66 13.06 L 288.93 13.70 L 288.32 14.11 L 287.05 14.26 L 286.29 13.96 L 286.18 13.16 Z" />
<path fill="#9b0000" d=" M 293.39 13.03 L 293.99 12.99 C 293.99 13.75 293.99 15.27 293.99 16.03 L 293.38 15.99 C 293.38 15.25 293.39 13.77 293.39 13.03 Z" />
<path fill="#720072" d=" M 298.80 13.55 L 299.17 13.03 C 299.13 13.32 299.05 13.88 299.01 14.16 L 298.80 13.55 Z" />
<path fill="#74b9df" d=" M 311.07 12.72 L 311.63 12.83 C 312.80 14.28 310.64 16.72 309.07 15.86 C 309.71 14.80 310.38 13.75 311.07 12.72 Z" />
<path fill="#00009b" d=" M 319.27 13.16 L 319.85 13.16 C 319.71 13.32 319.43 13.65 319.28 13.81 L 319.27 13.16 Z" />
<path fill="#554734" d=" M 324.21 13.83 C 321.68 15.96 321.27 11.14 324.08 13.06 L 324.21 13.83 Z" />
<path fill="#74b9df" d=" M 351.07 12.71 L 351.63 12.82 C 352.82 14.27 350.65 16.69 349.07 15.88 C 349.72 14.81 350.38 13.75 351.07 12.71 Z" />
<path fill="#3b2f56" d=" M 391.89 12.89 C 393.29 12.56 394.27 13.09 394.83 14.46 L 394.55 14.88 L 393.98 14.98 C 393.47 14.59 392.47 13.81 391.97 13.43 L 391.89 12.89 Z" />
<path fill="#f3c66d" d=" M 423.51 13.00 L 424.09 13.05 C 424.38 13.38 424.95 14.04 425.24 14.37 L 425.41 15.03 C 425.33 15.38 425.18 16.06 425.10 16.40 C 423.79 16.53 422.66 14.04 423.51 13.00 Z" />
<path fill="#9bd4ff" d=" M 65.32 13.89 L 65.99 14.18 C 65.94 14.84 65.83 16.15 65.78 16.80 L 65.11 16.86 C 65.16 16.12 65.27 14.63 65.32 13.89 Z" />
<path fill="#72baea" d=" M 264.26 13.83 L 264.88 14.16 C 265.72 15.01 265.64 17.91 264.06 17.53 C 263.95 16.29 264.01 15.05 264.26 13.83 Z" />
<path fill="#abdfff" d=" M 276.19 14.19 L 276.89 14.45 C 276.80 14.85 276.61 15.64 276.52 16.04 L 275.88 15.90 L 275.65 14.99 L 276.19 14.19 Z" />
<path fill="#72baea" d=" M 286.29 13.96 L 287.05 14.26 C 287.84 15.14 287.55 17.87 286.07 17.53 C 285.98 16.33 286.06 15.14 286.29 13.96 Z" />
<path fill="#e3af7e" d=" M 288.32 14.11 L 288.93 13.70 C 289.62 15.00 290.33 16.30 291.02 17.61 C 289.83 19.01 287.40 15.50 288.32 14.11 Z" />
<path fill="#130013" d=" M 303.20 14.40 C 303.42 14.82 303.87 15.68 304.09 16.11 C 302.46 16.29 300.39 16.48 299.00 15.48 L 299.29 14.97 C 299.67 14.96 300.44 14.93 300.83 14.92 L 301.66 14.83 C 302.05 14.72 302.81 14.51 303.20 14.40 Z" />
<path fill="#f5d296" d=" M 324.21 13.83 L 324.94 14.05 C 324.75 14.52 324.37 15.47 324.18 15.95 C 324.19 15.42 324.21 14.36 324.21 13.83 Z" />
<path fill="#462582" d=" M 324.94 14.05 L 325.43 13.85 C 326.80 14.88 325.76 18.43 323.92 17.64 L 323.83 16.90 L 324.18 15.95 C 324.37 15.47 324.75 14.52 324.94 14.05 Z" />
<path fill="#72baea" d=" M 340.27 13.82 L 340.94 14.07 C 340.91 14.75 340.85 16.12 340.82 16.81 L 340.13 16.89 C 340.17 16.12 340.23 14.59 340.27 13.82 Z" />
<path fill="#fff5e4" d=" M 340.94 14.07 C 341.68 14.08 343.18 14.10 343.92 14.12 L 343.97 14.68 L 344.01 15.15 L 343.88 17.16 C 343.12 17.07 341.59 16.89 340.82 16.81 C 340.85 16.12 340.91 14.75 340.94 14.07 Z" />
<path fill="#000072" d=" M 343.92 14.12 L 344.39 14.23 L 344.21 14.67 L 343.97 14.68 L 343.92 14.12 Z" />
<path fill="#ab3900" d=" M 359.98 14.66 L 360.82 14.52 L 361.53 15.00 L 361.39 15.64 C 360.99 15.59 360.20 15.49 359.80 15.43 L 359.98 14.66 Z" />
<path fill="#7798d0" d=" M 394.83 14.46 C 397.17 14.88 395.01 19.06 393.17 17.77 L 393.13 17.18 C 393.35 16.78 393.78 15.98 393.99 15.58 C 394.13 15.40 394.41 15.05 394.55 14.88 L 394.83 14.46 Z" />
<path fill="#72baea" d=" M 425.24 14.37 L 425.77 14.25 L 425.99 14.91 L 425.41 15.03 L 425.24 14.37 Z" />
<path fill="#abdfff" d=" M 431.19 14.20 L 431.89 14.46 C 431.80 14.85 431.61 15.64 431.52 16.04 L 430.88 15.91 L 430.65 15.00 L 431.19 14.20 Z" />
<path fill="#2b231a" d=" M 252.08 15.95 C 250.47 15.08 253.58 14.69 254.10 14.87 C 254.86 14.97 256.38 15.16 257.14 15.26 L 257.14 15.74 C 255.57 16.44 253.72 16.13 252.08 15.95 Z" />
<path fill="#0072ba" d=" M 257.14 15.26 C 257.14 15.38 257.14 15.62 257.14 15.74 L 257.14 15.26 Z" />
<path fill="#395dc3" d=" M 282.06 14.97 L 282.84 15.02 L 283.14 15.81 L 282.63 16.71 C 282.42 16.47 282.00 15.98 281.79 15.73 L 282.06 14.97 Z" />
<path fill="#9b0000" d=" M 315.58 15.19 C 316.25 15.86 316.25 15.86 315.58 15.19 Z" />
<path fill="#4e004e" d=" M 328.20 15.30 L 328.92 15.38 L 329.42 16.25 L 329.32 16.87 C 328.96 16.65 328.23 16.20 327.87 15.97 L 328.20 15.30 Z" />
<path fill="#9b0000" d=" M 343.97 14.68 L 344.21 14.67 C 344.16 14.79 344.06 15.03 344.01 15.15 L 343.97 14.68 Z" />
<path fill="#747c74" d=" M 358.93 16.52 C 357.75 17.66 356.10 15.44 357.65 14.80 C 358.01 15.05 358.73 15.56 359.09 15.81 L 358.93 16.52 Z" />
<path fill="#00131f" d=" M 361.53 15.00 C 362.15 14.99 363.41 14.96 364.04 14.94 L 365.09 14.84 L 365.76 14.90 L 366.55 15.28 L 366.91 15.88 L 366.16 16.18 L 365.22 16.21 L 364.25 16.18 C 363.53 16.05 362.10 15.78 361.39 15.64 L 361.53 15.00 Z" />
<path fill="#ba7200" d=" M 393.98 14.98 L 394.55 14.88 C 394.41 15.05 394.13 15.40 393.99 15.58 L 393.98 14.98 Z" />
<path fill="#4b1d27" d=" M 425.41 15.03 L 425.99 14.91 C 426.24 15.13 426.73 15.58 426.98 15.80 C 426.95 16.23 426.88 17.10 426.84 17.53 C 426.41 17.25 425.54 16.69 425.10 16.40 C 425.18 16.06 425.33 15.38 425.41 15.03 Z" />
<path fill="#395dc3" d=" M 437.06 14.98 L 437.84 15.03 L 438.14 15.82 L 437.63 16.72 C 437.42 16.48 437.00 15.98 436.79 15.74 L 437.06 14.98 Z" />
<path fill="#daa034" d=" M 270.39 15.99 L 270.99 16.02 C 271.00 16.77 271.04 18.27 271.06 19.02 C 269.72 18.36 269.50 17.35 270.39 15.99 Z" />
<path fill="#2b2340" d=" M 275.88 15.90 L 276.52 16.04 C 277.39 17.18 281.36 16.21 280.57 18.04 C 278.86 18.44 277.37 18.09 276.10 16.97 C 276.04 16.71 275.93 16.17 275.88 15.90 Z" />
<path fill="#daa034" d=" M 293.38 15.99 L 293.99 16.03 C 294.01 16.78 294.04 18.27 294.06 19.02 C 292.72 18.36 292.50 17.35 293.38 15.99 Z" />
<path fill="#004ea3" d=" M 298.31 17.60 C 298.48 17.07 298.83 16.01 299.00 15.48 C 299.03 15.93 299.08 16.83 299.11 17.28 L 298.31 17.60 Z" />
<path fill="#00009b" d=" M 304.09 16.11 L 304.61 16.04 L 304.72 16.66 L 304.15 16.74 L 304.09 16.11 Z" />
<path fill="#9bd4ff" d=" M 329.42 16.25 C 329.56 16.35 329.84 16.57 329.98 16.68 L 329.32 16.87 L 329.42 16.25 Z" />
<path fill="#3e4eaf" d=" M 330.91 17.12 C 331.40 16.78 332.37 16.11 332.85 15.77 C 333.23 17.31 332.62 17.99 331.03 17.82 L 330.91 17.12 Z" />
<path fill="#daa24c" d=" M 334.97 18.95 C 334.09 17.48 334.47 16.60 336.12 16.31 C 336.24 17.42 335.85 18.30 334.97 18.95 Z" />
<path fill="#52aadb" d=" M 336.12 16.31 C 339.25 16.13 335.71 22.19 334.97 18.95 C 335.85 18.30 336.24 17.42 336.12 16.31 Z" />
<path fill="#ba7200" d=" M 364.25 16.18 L 365.22 16.21 C 365.19 16.58 365.12 17.33 365.08 17.71 L 364.25 17.76 L 363.78 16.98 L 364.25 16.18 Z" />
<path fill="#72baea" d=" M 365.22 16.21 L 366.16 16.18 L 366.48 17.02 C 366.13 17.19 365.43 17.54 365.08 17.71 C 365.12 17.33 365.19 16.58 365.22 16.21 Z" />
<path fill="#9b0000" d=" M 367.80 16.08 C 368.09 16.25 368.67 16.59 368.96 16.77 C 368.67 16.59 368.09 16.25 367.80 16.08 Z" />
<path fill="#3e4eaf" d=" M 370.79 17.11 C 371.29 16.78 372.30 16.12 372.80 15.79 C 373.17 17.32 372.54 17.98 370.92 17.78 L 370.79 17.11 Z" />
<path fill="#daa24c" d=" M 379.97 18.95 C 379.09 17.47 379.48 16.59 381.13 16.32 C 381.24 17.43 380.85 18.31 379.97 18.95 Z" />
<path fill="#52aadb" d=" M 381.13 16.32 C 384.25 16.10 380.77 22.16 379.97 18.95 C 380.85 18.31 381.24 17.43 381.13 16.32 Z" />
<path fill="#6b6146" d=" M 389.38 16.47 C 390.59 16.12 392.07 16.52 393.13 17.18 L 393.17 17.77 C 392.07 18.66 389.31 18.05 389.38 16.47 Z" />
<path fill="#daa24c" d=" M 406.98 18.96 C 406.08 17.49 406.47 16.61 408.12 16.32 C 408.24 17.43 407.86 18.31 406.98 18.96 Z" />
<path fill="#52aadb" d=" M 408.12 16.32 C 411.25 16.11 407.76 22.17 406.98 18.96 C 407.86 18.31 408.24 17.43 408.12 16.32 Z" />
<path fill="#2b2340" d=" M 430.88 15.91 L 431.52 16.04 C 432.38 17.18 436.39 16.21 435.55 18.04 C 433.84 18.45 432.36 18.09 431.10 16.97 C 431.05 16.70 430.94 16.17 430.88 15.91 Z" />
<path fill="#000000" d=" M 65.11 16.86 L 65.78 16.80 C 66.55 16.93 68.11 17.18 68.89 17.31 L 68.91 17.78 C 67.53 18.43 66.24 18.30 65.06 17.38 L 65.11 16.86 Z" />
<path fill="#72baea" d=" M 68.89 17.31 C 68.89 17.43 68.90 17.66 68.91 17.78 L 68.89 17.31 Z" />
<path fill="#000000" d=" M 70.86 17.20 C 71.27 17.09 72.08 16.85 72.49 16.73 C 73.34 16.88 75.04 17.16 75.89 17.30 L 75.98 17.76 C 74.47 18.10 71.89 18.52 70.86 17.20 Z" />
<path fill="#009bd4" d=" M 75.89 17.30 C 75.92 17.42 75.96 17.65 75.98 17.76 L 75.89 17.30 Z" />
<path fill="#9b0000" d=" M 304.15 16.74 L 304.72 16.66 L 304.81 17.28 C 304.64 17.14 304.31 16.87 304.15 16.74 Z" />
<path fill="#000000" d=" M 306.87 17.21 C 307.27 17.09 308.07 16.85 308.47 16.73 C 309.33 16.88 311.04 17.16 311.90 17.30 L 312.00 17.76 C 310.47 18.11 307.91 18.52 306.87 17.21 Z" />
<path fill="#009bd4" d=" M 311.90 17.30 C 311.92 17.42 311.97 17.65 312.00 17.76 L 311.90 17.30 Z" />
<path fill="#ba7200" d=" M 321.57 17.26 L 322.16 17.19 L 322.23 17.84 C 322.07 17.70 321.74 17.40 321.57 17.26 Z" />
<path fill="#000000" d=" M 322.16 17.19 C 322.58 17.12 323.41 16.97 323.83 16.90 L 323.92 17.64 C 323.50 17.69 322.65 17.79 322.23 17.84 L 322.16 17.19 Z" />
<path fill="#390000" d=" M 329.32 16.87 L 329.98 16.68 L 330.91 17.12 L 331.03 17.82 C 330.61 17.79 329.78 17.74 329.36 17.71 L 329.32 16.87 Z" />
<path fill="#000000" d=" M 340.13 16.89 L 340.82 16.81 C 341.59 16.89 343.12 17.07 343.88 17.16 L 343.85 17.72 C 342.50 18.46 341.24 18.36 340.07 17.41 L 340.13 16.89 Z" />
<path fill="#000000" d=" M 346.87 17.19 C 347.27 17.08 348.08 16.85 348.49 16.73 C 349.34 16.87 351.04 17.16 351.90 17.30 L 351.99 17.76 C 350.47 18.11 347.87 18.52 346.87 17.19 Z" />
<path fill="#009bd4" d=" M 351.90 17.30 C 351.92 17.42 351.97 17.64 351.99 17.76 L 351.90 17.30 Z" />
<path fill="#390000" d=" M 368.96 16.77 L 369.73 16.67 L 370.79 17.11 L 370.92 17.78 C 370.48 17.73 369.59 17.63 369.14 17.58 L 368.96 16.77 Z" />
<path fill="#9b0072" d=" M 376.33 17.62 L 376.83 17.65 L 376.80 18.30 L 376.20 18.27 L 376.33 17.62 Z" />
<path fill="#9b0072" d=" M 447.33 17.63 L 447.83 17.66 L 447.80 18.31 L 447.20 18.28 L 447.33 17.63 Z" />
<path fill="#eab84e" d=" M 375.33 18.24 L 376.20 18.27 L 376.36 18.98 L 376.08 19.68 L 375.37 19.78 L 374.88 19.04 L 375.33 18.24 Z" />
<path fill="#00009b" d=" M 376.20 18.27 L 376.80 18.30 L 376.89 19.00 L 376.36 18.98 L 376.20 18.27 Z" />
<path fill="#eab84e" d=" M 446.33 18.25 L 447.20 18.28 L 447.36 18.98 L 447.09 19.69 L 446.37 19.79 L 445.88 19.04 L 446.33 18.25 Z" />
<path fill="#00009b" d=" M 447.20 18.28 L 447.80 18.31 L 447.89 19.01 L 447.36 18.98 L 447.20 18.28 Z" />
<path fill="#9b0072" d=" M 271.06 19.02 C 271.14 19.12 271.30 19.33 271.38 19.44 L 271.02 19.49 L 271.06 19.02 Z" />
<path fill="#9b0072" d=" M 294.06 19.02 C 294.14 19.12 294.30 19.34 294.38 19.44 L 294.02 19.50 L 294.06 19.02 Z" />
<path fill="#009bd4" d=" M 376.36 18.98 L 376.89 19.00 C 376.69 19.17 376.29 19.51 376.08 19.68 L 376.36 18.98 Z" />
<path fill="#009bd4" d=" M 447.36 18.98 L 447.89 19.01 C 447.69 19.18 447.29 19.52 447.09 19.69 L 447.36 18.98 Z" />
<path fill="#eaba72" d=" M 271.02 19.49 L 271.38 19.44 L 271.64 19.81 C 271.49 19.73 271.18 19.57 271.02 19.49 Z" />
<path fill="#eaba72" d=" M 294.02 19.50 L 294.38 19.44 L 294.65 19.81 C 294.49 19.73 294.18 19.58 294.02 19.50 Z" />
<path fill="#9b0072" d=" M 375.37 19.78 L 376.08 19.68 C 375.93 19.85 375.61 20.20 375.46 20.37 L 375.37 19.78 Z" />
<path fill="#9b0072" d=" M 446.37 19.79 L 447.09 19.69 C 446.93 19.86 446.62 20.20 446.46 20.38 L 446.37 19.79 Z" />
<path fill="#d7e6f7" d=" M 1.00 24.00 C 125.67 24.00 250.34 24.00 375.01 24.00 C 404.34 24.11 433.68 23.79 463.00 24.15 L 463.00 27.00 C 309.00 27.00 155.00 27.00 1.00 27.00 C 1.00 26.25 1.00 24.75 1.00 24.00 Z" />
<path fill="#a0b8cf" d=" M 0.00 28.16 C 8.65 28.46 17.31 28.44 25.95 28.06 C 26.02 32.00 26.09 35.94 26.10 39.87 C 26.10 42.20 26.09 44.52 26.09 46.85 C 47.04 46.90 67.98 46.82 88.93 46.88 C 88.92 44.55 88.92 42.23 88.92 39.90 C 88.92 35.93 88.98 31.97 89.03 28.00 L 90.00 28.00 C 90.00 31.04 90.00 34.08 90.01 37.12 C 90.01 40.36 90.08 43.60 90.15 46.84 C 111.06 46.80 131.96 46.84 152.86 46.83 C 152.92 43.60 152.98 40.37 152.99 37.13 C 152.99 34.09 152.99 31.04 153.00 28.00 L 153.99 28.00 C 154.00 31.03 154.01 34.06 154.01 37.10 C 154.01 40.35 154.05 43.61 154.10 46.86 C 175.03 46.83 195.96 46.88 216.89 46.84 C 216.90 45.24 216.91 43.63 216.93 42.02 C 216.93 40.32 216.94 38.63 216.95 36.93 C 216.97 33.95 216.99 30.98 217.02 28.00 L 218.00 28.00 C 218.00 31.04 218.00 34.07 218.01 37.11 C 218.01 40.35 218.08 43.59 218.16 46.83 C 239.17 46.84 260.19 46.79 281.20 46.84 C 281.23 47.15 281.28 47.76 281.31 48.07 C 282.00 54.03 281.86 60.04 281.54 66.01 L 280.54 65.76 C 281.81 59.93 281.18 53.93 281.01 48.02 C 260.00 47.99 238.98 48.01 217.97 48.02 L 217.04 48.02 C 196.02 48.00 175.00 48.00 153.98 48.02 L 153.03 48.02 C 132.02 47.99 111.01 48.00 90.00 48.02 L 89.05 48.02 C 68.04 47.98 47.03 48.02 26.02 48.00 C 26.00 54.34 26.00 60.68 26.00 67.02 L 25.00 67.01 C 24.99 60.68 24.99 54.34 24.99 48.01 C 16.66 48.01 8.33 48.06 0.00 48.02 L 0.00 28.16 Z" />
<path fill="#eef3f7" d=" M 25.95 28.06 C 46.98 27.91 68.00 28.05 89.03 28.00 C 88.98 31.97 88.92 35.93 88.92 39.90 C 82.27 39.71 75.61 39.73 68.96 39.64 C 66.26 39.58 63.59 40.07 61.04 40.91 L 60.25 41.14 C 59.91 39.57 59.52 38.02 59.12 36.46 C 59.03 36.12 58.86 35.42 58.77 35.07 C 58.50 34.75 57.95 34.10 57.68 33.77 L 56.93 34.13 C 55.45 35.88 54.53 38.02 53.77 40.17 C 44.56 39.43 35.32 39.77 26.10 39.87 C 26.09 35.94 26.02 32.00 25.95 28.06 Z" />
<path fill="#f0f4f8" d=" M 90.00 28.00 C 111.00 28.00 132.00 28.00 153.00 28.00 C 152.99 31.04 152.99 34.09 152.99 37.13 C 146.99 37.12 141.00 37.06 135.01 37.20 C 131.18 37.22 126.93 37.52 123.80 34.88 C 123.08 33.77 121.67 33.34 120.48 33.97 L 118.94 34.39 C 118.46 35.24 117.99 36.08 117.51 36.93 C 108.35 37.31 99.18 37.06 90.01 37.12 C 90.00 34.08 90.00 31.04 90.00 28.00 Z" />
<path fill="#f0f4f8" d=" M 153.99 28.00 C 175.00 28.00 196.01 28.00 217.02 28.00 C 216.99 30.98 216.97 33.95 216.95 36.93 C 205.84 36.69 194.73 37.20 183.62 36.70 C 185.45 35.05 187.84 35.21 190.07 35.62 C 189.76 35.22 189.13 34.41 188.82 34.00 C 187.61 34.00 186.42 34.00 185.22 34.00 C 184.36 34.75 183.51 35.51 182.65 36.26 C 182.70 37.57 182.77 38.88 182.86 40.19 C 182.33 39.21 181.80 38.24 181.26 37.26 C 172.18 37.02 163.09 37.24 154.01 37.10 C 154.01 34.06 154.00 31.03 153.99 28.00 Z" />
<path fill="#f0f4f8" d=" M 218.00 28.00 C 239.00 28.00 260.00 28.00 281.01 28.00 C 281.00 31.03 280.99 34.06 280.98 37.09 C 271.87 37.15 262.76 37.09 253.66 37.17 C 252.85 36.04 251.99 34.95 251.14 33.85 C 249.49 33.93 247.85 33.99 246.21 34.09 C 245.01 35.33 244.04 37.24 242.02 37.06 C 234.03 37.41 226.01 37.00 218.01 37.11 C 218.00 34.07 218.00 31.04 218.00 28.00 Z" />
<path fill="#f29536" d=" M 281.01 28.00 L 281.99 28.00 C 282.01 31.31 282.03 34.63 282.03 37.94 C 282.04 40.90 282.08 43.86 282.12 46.82 C 303.02 46.77 323.91 46.85 344.81 46.75 C 344.89 43.79 344.96 40.83 344.98 37.87 C 344.99 34.58 344.99 31.29 345.00 28.00 L 346.00 28.00 C 345.99 29.35 345.99 30.69 346.00 32.04 C 346.00 34.67 346.03 37.29 346.04 39.92 C 346.03 42.20 346.02 44.49 345.82 46.77 C 345.67 47.05 345.36 47.61 345.21 47.88 C 323.91 48.21 302.61 47.82 281.31 48.07 C 281.28 47.76 281.23 47.15 281.20 46.84 C 280.97 43.60 280.97 40.34 280.98 37.09 C 280.99 34.06 281.00 31.03 281.01 28.00 Z" />
<path fill="#f7d390" d=" M 281.99 28.00 C 303.00 28.00 324.00 28.00 345.00 28.00 C 344.99 31.29 344.99 34.58 344.98 37.87 C 335.66 37.94 326.33 37.65 317.01 38.08 C 315.88 38.04 313.63 37.96 312.50 37.92 C 312.52 37.30 312.55 36.05 312.57 35.43 C 314.28 35.05 315.99 34.67 317.69 34.22 C 315.60 34.04 313.51 33.93 311.41 33.83 C 311.39 34.45 311.34 35.68 311.32 36.29 C 307.92 38.39 303.80 37.98 299.99 37.94 C 294.01 37.77 288.02 37.86 282.03 37.94 C 282.03 34.63 282.01 31.31 281.99 28.00 Z" />
<path fill="#f6fafb" d=" M 346.00 28.00 C 367.00 28.00 388.00 28.00 409.00 28.00 C 408.99 29.34 408.99 30.69 408.99 32.03 C 387.99 32.13 367.00 31.95 346.00 32.04 C 345.99 30.69 345.99 29.35 346.00 28.00 Z" />
<path fill="#a4bad1" d=" M 409.00 28.00 L 410.00 28.00 C 410.00 31.04 410.01 34.08 410.01 37.12 C 410.01 40.35 410.06 43.59 410.12 46.83 C 427.75 46.80 445.37 46.76 463.00 46.86 L 463.00 48.01 C 445.33 48.01 427.65 48.00 409.98 48.01 L 409.02 48.01 C 387.93 48.01 366.83 47.99 345.73 48.02 C 345.86 53.93 345.31 59.91 346.45 65.75 L 345.44 66.01 C 345.31 59.97 345.02 53.93 345.21 47.88 C 345.36 47.61 345.67 47.05 345.82 46.77 C 366.84 46.85 387.87 46.77 408.90 46.83 C 408.94 43.93 408.98 41.03 408.99 38.13 C 408.99 36.09 408.99 34.06 408.99 32.03 C 408.99 30.69 408.99 29.34 409.00 28.00 Z" />
<path fill="#f0f4f8" d=" M 410.00 28.00 C 427.66 28.01 445.33 27.98 463.00 28.01 L 463.00 40.60 C 457.59 40.65 452.19 40.64 446.78 40.56 C 446.05 39.84 445.32 39.13 444.59 38.42 L 444.06 38.25 C 442.39 36.56 440.08 39.19 443.08 39.31 C 443.09 39.98 443.11 41.32 443.12 41.99 C 442.03 41.69 440.96 41.36 439.91 40.99 C 440.20 39.21 440.06 37.31 439.20 35.69 C 441.27 35.38 443.37 35.37 445.46 35.58 C 445.03 35.08 444.17 34.08 443.73 33.58 C 441.91 33.93 440.03 34.31 438.73 35.74 C 438.37 36.05 437.66 36.67 437.30 36.98 C 428.22 37.50 419.11 37.09 410.01 37.12 C 410.01 34.08 410.00 31.04 410.00 28.00 Z" />
<path fill="#d5e4f2" d=" M 1.03 28.82 C 8.92 28.83 16.88 28.14 24.72 29.33 C 17.20 30.65 9.55 29.76 1.97 30.06 C 2.12 35.57 2.27 41.11 1.36 46.57 C 0.75 40.67 1.07 34.74 1.03 28.82 Z" />
<path fill="#a9c4e9" d=" M 24.72 29.33 L 25.04 29.28 C 25.32 35.24 25.34 41.21 25.18 47.18 C 17.21 47.34 9.24 47.28 1.27 47.20 L 1.36 46.57 C 2.27 41.11 2.12 35.57 1.97 30.06 C 9.55 29.76 17.20 30.65 24.72 29.33 Z" />
<path fill="#eaeff5" d=" M 346.00 32.04 C 367.00 31.95 387.99 32.13 408.99 32.03 C 408.99 34.06 408.99 36.09 408.99 38.13 C 399.31 38.13 389.61 38.42 379.93 38.04 C 379.18 37.98 377.67 37.87 376.91 37.81 C 376.86 37.17 376.75 35.87 376.70 35.22 C 378.11 35.34 379.62 35.19 380.79 34.31 C 379.33 33.73 377.65 33.52 376.20 34.23 L 375.00 34.63 C 374.99 36.41 374.98 38.18 374.99 39.96 C 365.34 39.90 355.69 39.88 346.04 39.92 C 346.03 37.29 346.00 34.67 346.00 32.04 Z" />
<path fill="#eff1f4" d=" M 15.61 38.91 C 17.29 36.95 19.07 35.08 20.93 33.30 C 20.96 35.26 20.99 37.21 21.00 39.17 C 19.20 39.08 17.41 39.00 15.61 38.91 Z" />
<path fill="#ac9b85" d=" M 53.77 40.17 C 54.53 38.02 55.45 35.88 56.93 34.13 C 57.39 34.36 58.31 34.84 58.77 35.07 C 58.86 35.42 59.03 36.12 59.12 36.46 C 59.13 37.34 59.16 39.08 59.17 39.95 L 57.79 39.89 C 58.69 38.94 58.54 36.79 57.14 36.42 L 56.39 36.20 C 56.27 36.93 56.03 38.38 55.91 39.11 L 56.11 39.78 C 55.74 40.05 55.00 40.61 54.64 40.88 C 54.51 41.38 54.27 42.38 54.15 42.88 L 52.73 43.50 C 52.99 42.67 53.51 41.00 53.77 40.17 Z" />
<path fill="#5c869a" d=" M 56.93 34.13 L 57.68 33.77 C 57.95 34.10 58.50 34.75 58.77 35.07 C 58.31 34.84 57.39 34.36 56.93 34.13 Z" />
<path fill="#dbe2ed" d=" M 117.51 36.93 C 117.99 36.08 118.46 35.24 118.94 34.39 C 118.95 37.25 118.96 40.11 118.96 42.97 L 120.07 43.00 C 121.63 43.03 123.19 43.07 124.75 43.11 C 124.63 41.24 124.46 39.38 124.30 37.51 C 124.18 36.85 123.92 35.54 123.80 34.88 C 126.93 37.52 131.18 37.22 135.01 37.20 C 141.00 37.06 146.99 37.12 152.99 37.13 C 152.98 40.37 152.92 43.60 152.86 46.83 C 131.96 46.84 111.06 46.80 90.15 46.84 C 90.08 43.60 90.01 40.36 90.01 37.12 C 99.18 37.06 108.35 37.31 117.51 36.93 Z" />
<path fill="#a8753d" d=" M 118.94 34.39 L 120.48 33.97 L 120.33 34.78 C 120.32 35.52 120.29 37.00 120.27 37.74 L 120.08 39.19 C 120.06 39.87 120.01 41.21 119.99 41.88 L 120.07 43.00 L 118.96 42.97 C 118.96 40.11 118.95 37.25 118.94 34.39 Z" />
<path fill="#274156" d=" M 120.48 33.97 C 121.67 33.34 123.08 33.77 123.80 34.88 L 123.11 35.22 C 122.60 35.22 121.57 35.21 121.06 35.20 L 120.33 34.78 L 120.48 33.97 Z" />
<path fill="#6b7e92" d=" M 185.22 34.00 C 186.42 34.00 187.61 34.00 188.82 34.00 C 189.13 34.41 189.76 35.22 190.07 35.62 C 187.84 35.21 185.45 35.05 183.62 36.70 C 184.03 38.33 184.37 40.02 185.19 41.51 C 187.03 41.83 188.89 41.77 190.75 41.83 C 188.77 42.53 186.74 43.04 184.72 43.61 C 184.09 42.47 183.46 41.34 182.86 40.19 C 182.77 38.88 182.70 37.57 182.65 36.26 C 183.51 35.51 184.36 34.75 185.22 34.00 Z" />
<path fill="#dbe2ed" d=" M 242.02 37.06 C 244.04 37.24 245.01 35.33 246.21 34.09 C 246.00 37.05 245.95 40.01 245.90 42.97 C 247.74 43.03 249.58 43.10 251.42 43.18 C 252.50 41.31 253.34 39.31 253.66 37.17 C 262.76 37.09 271.87 37.15 280.98 37.09 C 280.97 40.34 280.97 43.60 281.20 46.84 C 260.19 46.79 239.17 46.84 218.16 46.83 C 218.08 43.59 218.01 40.35 218.01 37.11 C 226.01 37.00 234.03 37.41 242.02 37.06 Z" />
<path fill="#747c7b" d=" M 246.21 34.09 C 247.85 33.99 249.49 33.93 251.14 33.85 C 251.99 34.95 252.85 36.04 253.66 37.17 C 253.34 39.31 252.50 41.31 251.42 43.18 C 249.58 43.10 247.74 43.03 245.90 42.97 C 245.95 40.01 246.00 37.05 246.21 34.09 Z" />
<path fill="#6f6a4f" d=" M 311.41 33.83 C 313.51 33.93 315.60 34.04 317.69 34.22 C 315.99 34.67 314.28 35.05 312.57 35.43 C 312.55 36.05 312.52 37.30 312.50 37.92 C 313.63 37.96 315.88 38.04 317.01 38.08 L 315.50 38.52 C 314.77 38.74 313.29 39.17 312.56 39.38 C 312.57 39.93 312.59 41.03 312.60 41.57 C 314.32 41.95 316.05 42.33 317.76 42.78 C 315.60 42.96 313.44 43.06 311.28 43.15 C 311.27 40.87 311.26 38.58 311.32 36.29 C 311.34 35.68 311.39 34.45 311.41 33.83 Z" />
<path fill="#be953d" d=" M 375.00 34.63 L 376.20 34.23 L 376.07 34.95 C 376.11 35.73 376.17 37.30 376.20 38.08 L 376.16 38.87 C 375.80 40.16 375.78 41.45 376.10 42.74 L 375.01 43.30 C 375.00 42.46 375.00 40.80 374.99 39.96 C 374.98 38.18 374.99 36.41 375.00 34.63 Z" />
<path fill="#3c5d63" d=" M 376.20 34.23 C 377.65 33.52 379.33 33.73 380.79 34.31 C 379.62 35.19 378.11 35.34 376.70 35.22 L 376.07 34.95 L 376.20 34.23 Z" />
<path fill="#576477" d=" M 438.73 35.74 C 440.03 34.31 441.91 33.93 443.73 33.58 C 444.17 34.08 445.03 35.08 445.46 35.58 C 443.37 35.37 441.27 35.38 439.20 35.69 L 438.73 35.74 Z" />
<path fill="#6bb2e2" d=" M 120.33 34.78 L 121.06 35.20 C 121.07 35.86 121.09 37.18 121.10 37.84 L 120.27 37.74 C 120.29 37.00 120.32 35.52 120.33 34.78 Z" />
<path fill="#e8edee" d=" M 121.06 35.20 C 121.57 35.21 122.60 35.22 123.11 35.22 C 123.19 35.85 123.33 37.09 123.41 37.71 C 122.83 37.74 121.68 37.81 121.10 37.84 C 121.09 37.18 121.07 35.86 121.06 35.20 Z" />
<path fill="#ba8a50" d=" M 123.11 35.22 L 123.80 34.88 C 123.92 35.54 124.18 36.85 124.30 37.51 L 123.41 37.71 C 123.33 37.09 123.19 35.85 123.11 35.22 Z" />
<path fill="#69afdf" d=" M 247.93 41.71 C 246.21 40.61 246.35 36.30 247.90 35.06 C 248.22 37.26 248.25 39.50 247.93 41.71 Z" />
<path fill="#e3eaf1" d=" M 247.90 35.06 C 249.16 35.22 250.41 35.47 251.65 35.80 C 251.56 37.66 251.42 39.51 251.29 41.36 L 251.24 41.90 C 250.42 41.85 248.76 41.76 247.93 41.71 C 248.25 39.50 248.22 37.26 247.90 35.06 Z" />
<path fill="#6bb2e2" d=" M 376.07 34.95 L 376.70 35.22 C 376.75 35.87 376.86 37.17 376.91 37.81 L 376.20 38.08 C 376.17 37.30 376.11 35.73 376.07 34.95 Z" />
<path fill="#68aad8" d=" M 56.39 36.20 L 57.14 36.42 C 57.23 37.54 56.81 38.44 55.91 39.11 C 56.03 38.38 56.27 36.93 56.39 36.20 Z" />
<path fill="#dde6e2" d=" M 57.14 36.42 C 58.54 36.79 58.69 38.94 57.79 39.89 C 57.37 39.86 56.53 39.81 56.11 39.78 L 55.91 39.11 C 56.81 38.44 57.23 37.54 57.14 36.42 Z" />
<path fill="#f3c66d" d=" M 251.65 35.80 C 252.12 37.65 252.13 39.61 251.29 41.36 C 251.42 39.51 251.56 37.66 251.65 35.80 Z" />
<path fill="#f3c66d" d=" M 299.99 37.94 C 303.80 37.98 307.92 38.39 311.32 36.29 C 311.26 38.58 311.27 40.87 311.28 43.15 C 313.44 43.06 315.60 42.96 317.76 42.78 C 316.05 42.33 314.32 41.95 312.60 41.57 C 312.59 41.03 312.57 39.93 312.56 39.38 C 313.29 39.17 314.77 38.74 315.50 38.52 L 317.01 38.08 C 326.33 37.65 335.66 37.94 344.98 37.87 C 344.96 40.83 344.89 43.79 344.81 46.75 C 323.91 46.85 303.02 46.77 282.12 46.82 C 282.08 43.86 282.04 40.90 282.03 37.94 C 288.02 37.86 294.01 37.77 299.99 37.94 Z" />
<path fill="#535568" d=" M 437.30 36.98 C 437.66 36.67 438.37 36.05 438.73 35.74 C 438.83 37.42 438.27 39.96 439.91 40.99 C 440.96 41.36 442.03 41.69 443.12 41.99 L 443.72 42.16 L 444.23 42.48 C 442.74 42.84 441.26 43.17 439.77 43.45 C 438.68 41.41 437.81 39.24 437.30 36.98 Z" />
<path fill="#aadbf1" d=" M 438.73 35.74 L 439.20 35.69 C 440.06 37.31 440.20 39.21 439.91 40.99 C 438.27 39.96 438.83 37.42 438.73 35.74 Z" />
<path fill="#385668" d=" M 59.12 36.46 C 59.52 38.02 59.91 39.57 60.25 41.14 C 58.38 41.08 56.51 40.99 54.64 40.88 C 55.00 40.61 55.74 40.05 56.11 39.78 C 56.53 39.81 57.37 39.86 57.79 39.89 L 59.17 39.95 C 59.16 39.08 59.13 37.34 59.12 36.46 Z" />
<path fill="#d9e1ec" d=" M 154.01 37.10 C 163.09 37.24 172.18 37.02 181.26 37.26 C 181.80 38.24 182.33 39.21 182.86 40.19 C 183.46 41.34 184.09 42.47 184.72 43.61 C 186.74 43.04 188.77 42.53 190.75 41.83 C 199.47 42.02 208.20 41.86 216.93 42.02 C 216.91 43.63 216.90 45.24 216.89 46.84 C 195.96 46.88 175.03 46.83 154.10 46.86 C 154.05 43.61 154.01 40.35 154.01 37.10 Z" />
<path fill="#e1e8f0" d=" M 183.62 36.70 C 194.73 37.20 205.84 36.69 216.95 36.93 C 216.94 38.63 216.93 40.32 216.93 42.02 C 208.20 41.86 199.47 42.02 190.75 41.83 C 188.89 41.77 187.03 41.83 185.19 41.51 C 184.37 40.02 184.03 38.33 183.62 36.70 Z" />
<path fill="#d9e1ec" d=" M 410.01 37.12 C 419.11 37.09 428.22 37.50 437.30 36.98 C 437.81 39.24 438.68 41.41 439.77 43.45 C 441.26 43.17 442.74 42.84 444.23 42.48 C 446.03 42.08 445.38 39.51 444.59 38.42 C 445.32 39.13 446.05 39.84 446.78 40.56 C 452.19 40.64 457.59 40.65 463.00 40.60 L 463.00 46.86 C 445.37 46.76 427.75 46.80 410.12 46.83 C 410.06 43.59 410.01 40.35 410.01 37.12 Z" />
<path fill="#44555f" d=" M 120.27 37.74 L 121.10 37.84 C 121.68 37.81 122.83 37.74 123.41 37.71 L 124.30 37.51 C 124.46 39.38 124.63 41.24 124.75 43.11 C 123.19 43.07 121.63 43.03 120.07 43.00 L 119.99 41.88 L 120.69 41.87 C 121.50 41.87 123.11 41.87 123.91 41.87 C 123.91 41.16 123.90 39.73 123.90 39.02 C 123.12 39.05 121.55 39.12 120.76 39.16 L 120.08 39.19 L 120.27 37.74 Z" />
<path fill="#274155" d=" M 376.20 38.08 L 376.91 37.81 C 377.67 37.87 379.18 37.98 379.93 38.04 C 379.12 38.99 378.07 39.39 376.79 39.24 L 376.16 38.87 L 376.20 38.08 Z" />
<path fill="#d9e1ec" d=" M 379.93 38.04 C 389.61 38.42 399.31 38.13 408.99 38.13 C 408.98 41.03 408.94 43.93 408.90 46.83 C 387.87 46.77 366.84 46.85 345.82 46.77 C 346.02 44.49 346.03 42.20 346.04 39.92 C 355.69 39.88 365.34 39.90 374.99 39.96 C 375.00 40.80 375.00 42.46 375.01 43.30 L 376.10 42.74 C 377.58 42.26 377.57 40.31 376.79 39.24 C 378.07 39.39 379.12 38.99 379.93 38.04 Z" />
<path fill="#606651" d=" M 443.08 39.31 C 440.08 39.19 442.39 36.56 444.06 38.25 L 443.81 39.03 L 443.08 39.31 Z" />
<path fill="#3457a5" d=" M 444.06 38.25 L 444.59 38.42 C 445.38 39.51 446.03 42.08 444.23 42.48 L 443.72 42.16 C 443.74 41.38 443.79 39.81 443.81 39.03 L 444.06 38.25 Z" />
<path fill="#dfe2e8" d=" M 15.03 38.88 L 15.61 38.91 C 17.41 39.00 19.20 39.08 21.00 39.17 C 20.94 40.73 20.89 42.29 20.84 43.85 C 17.51 43.85 14.18 43.83 10.85 43.78 C 12.24 42.15 13.64 40.52 15.03 38.88 Z" />
<path fill="#67addd" d=" M 120.08 39.19 L 120.76 39.16 C 120.75 39.83 120.71 41.19 120.69 41.87 L 119.99 41.88 C 120.01 41.21 120.06 39.87 120.08 39.19 Z" />
<path fill="#dfe1df" d=" M 120.76 39.16 C 121.55 39.12 123.12 39.05 123.90 39.02 C 123.90 39.73 123.91 41.16 123.91 41.87 C 123.11 41.87 121.50 41.87 120.69 41.87 C 120.71 41.19 120.75 39.83 120.76 39.16 Z" />
<path fill="#67acdd" d=" M 376.16 38.87 L 376.79 39.24 C 377.57 40.31 377.58 42.26 376.10 42.74 C 375.78 41.45 375.80 40.16 376.16 38.87 Z" />
<path fill="#dfc297" d=" M 443.08 39.31 L 443.81 39.03 C 443.79 39.81 443.74 41.38 443.72 42.16 L 443.12 41.99 C 443.11 41.32 443.09 39.98 443.08 39.31 Z" />
<path fill="#d9e1ec" d=" M 26.10 39.87 C 35.32 39.77 44.56 39.43 53.77 40.17 C 53.51 41.00 52.99 42.67 52.73 43.50 L 54.15 42.88 L 54.91 42.53 C 54.84 42.12 54.70 41.30 54.64 40.88 C 56.51 40.99 58.38 41.08 60.25 41.14 C 58.83 43.40 62.43 42.91 61.04 40.91 C 63.59 40.07 66.26 39.58 68.96 39.64 C 75.61 39.73 82.27 39.71 88.92 39.90 C 88.92 42.23 88.92 44.55 88.93 46.88 C 67.98 46.82 47.04 46.90 26.09 46.85 C 26.09 44.52 26.10 42.20 26.10 39.87 Z" />
<path fill="#276a9e" d=" M 54.15 42.88 C 54.27 42.38 54.51 41.38 54.64 40.88 C 54.70 41.30 54.84 42.12 54.91 42.53 L 54.15 42.88 Z" />
<path fill="#57426a" d=" M 60.25 41.14 L 61.04 40.91 C 62.43 42.91 58.83 43.40 60.25 41.14 Z" />
<path fill="#e4ecf7" d=" M 0.00 48.02 C 8.33 48.06 16.66 48.01 24.99 48.01 C 24.99 54.34 24.99 60.68 25.00 67.01 C 16.67 66.98 8.33 67.01 0.00 67.00 L 0.00 48.02 Z" />
<path fill="#ffffff" d=" M 26.02 48.00 C 47.03 48.02 68.04 47.98 89.05 48.02 C 89.00 54.33 88.99 60.65 88.99 66.97 C 67.99 67.06 47.00 66.96 26.00 67.02 C 26.00 60.68 26.00 54.34 26.02 48.00 Z" />
<path fill="#d0d7e5" d=" M 89.05 48.02 L 90.00 48.02 C 89.99 54.35 89.98 60.68 90.01 67.01 C 111.00 66.96 131.98 67.06 152.96 66.97 C 153.00 60.65 153.01 54.33 153.03 48.02 L 153.98 48.02 C 154.01 54.34 154.00 60.66 154.01 66.98 C 174.99 67.03 195.98 66.98 216.97 66.98 C 217.01 60.66 217.02 54.34 217.04 48.02 L 217.97 48.02 C 218.01 54.33 218.00 60.64 218.00 66.95 C 238.66 67.15 259.33 66.81 279.98 67.09 L 280.09 67.67 C 259.42 68.42 238.71 67.78 218.02 68.01 C 217.97 74.34 217.98 80.67 218.04 87.00 C 233.01 86.97 247.98 86.99 262.95 87.01 C 268.63 87.06 274.36 86.57 279.98 87.62 L 280.32 88.67 C 277.26 88.10 274.15 87.91 271.05 87.93 C 253.37 88.13 235.70 87.90 218.02 88.04 C 218.05 88.78 218.10 90.26 218.12 91.00 L 217.17 91.00 C 217.09 90.25 216.93 88.76 216.86 88.01 C 195.93 87.99 175.00 87.96 154.08 88.04 C 154.06 88.78 154.02 90.26 154.00 91.00 L 153.27 91.00 C 153.17 90.25 152.98 88.75 152.89 88.01 C 131.95 88.02 111.01 87.94 90.07 88.05 C 90.05 88.79 90.01 90.26 90.00 91.00 L 89.20 91.00 C 89.10 90.25 88.92 88.74 88.82 87.99 C 67.88 88.07 46.94 87.88 26.00 88.09 L 26.00 87.02 C 46.99 86.92 67.99 87.10 88.98 86.96 C 89.02 80.64 89.03 74.33 89.01 68.01 C 68.01 67.98 47.01 68.02 26.00 67.99 L 26.00 67.02 C 47.00 66.96 67.99 67.06 88.99 66.97 C 88.99 60.65 89.00 54.33 89.05 48.02 Z" />
<path fill="#ffffff" d=" M 90.00 48.02 C 111.01 48.00 132.02 47.99 153.03 48.02 C 153.01 54.33 153.00 60.65 152.96 66.97 C 131.98 67.06 111.00 66.96 90.01 67.01 C 89.98 60.68 89.99 54.35 90.00 48.02 Z" />
<path fill="#ffffff" d=" M 153.98 48.02 C 175.00 48.00 196.02 48.00 217.04 48.02 C 217.02 54.34 217.01 60.66 216.97 66.98 C 195.98 66.98 174.99 67.03 154.01 66.98 C 154.00 60.66 154.01 54.34 153.98 48.02 Z" />
<path fill="#ffffff" d=" M 217.97 48.02 C 238.98 48.01 260.00 47.99 281.01 48.02 C 281.18 53.93 281.81 59.93 280.54 65.76 L 280.21 66.53 L 279.98 67.09 C 259.33 66.81 238.66 67.15 218.00 66.95 C 218.00 60.64 218.01 54.33 217.97 48.02 Z" />
<path fill="#ffffff" d=" M 281.31 48.07 C 302.61 47.82 323.91 48.21 345.21 47.88 C 345.02 53.93 345.31 59.97 345.44 66.01 C 324.14 65.99 302.84 65.99 281.54 66.01 C 281.86 60.04 282.00 54.03 281.31 48.07 Z" />
<path fill="#ffffff" d=" M 345.73 48.02 C 366.83 47.99 387.93 48.01 409.02 48.01 C 408.98 54.34 408.98 60.67 408.95 66.99 C 388.31 67.08 367.66 66.86 347.02 67.08 L 346.80 66.50 L 346.45 65.75 C 345.31 59.91 345.86 53.93 345.73 48.02 Z" />
<path fill="#d0d7e5" d=" M 409.02 48.01 L 409.98 48.01 C 410.00 54.32 409.99 60.63 409.99 66.94 C 427.66 67.11 445.33 66.96 463.00 66.99 L 463.00 67.98 C 445.34 68.01 427.69 67.98 410.03 68.03 C 409.99 74.34 409.97 80.65 410.00 86.97 C 427.67 87.01 445.33 87.01 463.00 87.00 L 463.00 87.96 C 445.36 88.08 427.72 87.92 410.08 88.03 C 410.05 88.78 409.98 90.26 409.94 91.00 L 408.97 91.00 C 408.97 90.25 408.96 88.76 408.96 88.02 C 395.64 87.98 382.31 88.02 368.99 87.99 C 362.05 87.92 355.08 88.46 348.19 87.45 C 350.77 87.21 353.37 87.02 355.98 86.99 C 373.63 86.98 391.29 87.03 408.95 86.99 C 409.02 80.66 409.04 74.34 408.98 68.01 C 388.29 67.76 367.58 68.48 346.91 67.65 L 347.02 67.08 C 367.66 66.86 388.31 67.08 408.95 66.99 C 408.98 60.67 408.98 54.34 409.02 48.01 Z" />
<path fill="#ffffff" d=" M 409.98 48.01 C 427.65 48.00 445.33 48.01 463.00 48.01 L 463.00 66.99 C 445.33 66.96 427.66 67.11 409.99 66.94 C 409.99 60.63 410.00 54.32 409.98 48.01 Z" />
<path fill="#27413e" d=" M 12.18 54.99 C 12.26 54.84 12.43 54.54 12.52 54.39 L 12.61 54.93 L 12.18 54.99 Z" />
<path fill="#6ab1e4" d=" M 12.52 54.39 L 14.04 53.94 C 14.01 56.53 13.95 59.12 13.78 61.70 L 12.77 61.61 C 13.13 59.40 13.02 57.12 12.61 54.93 L 12.52 54.39 Z" />
<path fill="#8d423d" d=" M 10.22 55.20 C 10.81 55.79 10.81 55.79 10.22 55.20 Z" />
<path fill="#a8763d" d=" M 12.18 54.99 L 12.61 54.93 C 13.02 57.12 13.13 59.40 12.77 61.61 L 12.12 61.71 C 11.43 59.67 11.67 57.08 12.18 54.99 Z" />
<path fill="#8d423d" d=" M 10.73 62.52 C 10.91 62.42 11.25 62.21 11.43 62.10 L 11.29 62.62 L 10.73 62.52 Z" />
<path fill="#34575f" d=" M 11.43 62.10 L 12.12 61.71 L 12.77 61.61 L 13.78 61.70 C 17.76 62.40 12.49 64.29 11.29 62.62 L 11.43 62.10 Z" />
<path fill="#2e271a" d=" M 280.21 66.53 L 280.54 65.76 L 281.54 66.01 C 286.56 67.56 291.84 66.99 297.00 66.99 C 307.69 66.96 318.37 67.01 329.05 66.99 C 334.51 66.92 340.12 67.65 345.44 66.01 L 346.45 65.75 L 346.80 66.50 L 347.02 67.08 L 346.91 67.65 C 345.59 73.01 345.92 78.55 346.00 84.02 L 345.00 84.02 C 344.99 78.69 344.99 73.37 344.99 68.04 C 324.00 67.98 303.02 68.04 282.04 68.01 C 282.00 74.30 282.00 80.60 282.05 86.89 C 302.04 86.97 322.03 86.86 342.02 86.95 L 342.02 87.90 C 330.02 87.83 318.02 87.93 306.02 87.87 C 297.96 87.78 289.89 88.22 281.86 87.39 C 281.65 87.88 281.25 88.86 281.05 89.35 C 280.87 89.18 280.50 88.84 280.32 88.67 L 279.98 87.62 C 281.50 81.09 281.61 74.22 280.09 67.67 L 279.98 67.09 L 280.21 66.53 Z" />
<path fill="#000000" d=" M 281.54 66.01 C 302.84 65.99 324.14 65.99 345.44 66.01 C 340.12 67.65 334.51 66.92 329.05 66.99 C 318.37 67.01 307.69 66.96 297.00 66.99 C 291.84 66.99 286.56 67.56 281.54 66.01 Z" />
<path fill="#f29536" d=" M 0.00 67.00 C 8.33 67.01 16.67 66.98 25.00 67.01 L 26.00 67.02 L 26.00 67.99 C 26.00 74.33 26.00 80.68 26.00 87.02 L 26.00 88.09 C 17.34 87.91 8.67 88.03 0.00 88.00 L 0.00 87.00 C 8.33 87.00 16.66 86.99 24.99 87.00 C 25.01 80.67 25.00 74.33 24.97 68.00 C 16.65 67.99 8.32 68.01 0.00 68.00 L 0.00 67.00 Z" />
<path fill="#ffd58d" d=" M 0.00 68.00 C 8.32 68.01 16.65 67.99 24.97 68.00 C 25.00 74.33 25.01 80.67 24.99 87.00 C 16.66 86.99 8.33 87.00 0.00 87.00 L 0.00 68.00 Z" />
<path fill="#ffffff" d=" M 26.00 67.99 C 47.01 68.02 68.01 67.98 89.01 68.01 C 89.03 74.33 89.02 80.64 88.98 86.96 C 67.99 87.10 46.99 86.92 26.00 87.02 C 26.00 80.68 26.00 74.33 26.00 67.99 Z" />
<path fill="#ffffff" d=" M 90.03 68.04 C 111.01 67.97 131.99 68.00 152.97 68.02 C 153.01 74.34 153.01 80.66 152.98 86.98 C 132.00 86.99 111.01 87.03 90.03 86.98 C 90.00 80.66 89.99 74.35 90.03 68.04 Z" />
<path fill="#ffffff" d=" M 154.02 68.03 C 175.01 67.99 195.99 67.95 216.98 68.05 C 217.00 74.35 216.98 80.65 216.96 86.95 C 195.99 87.05 175.03 86.97 154.06 87.00 C 153.97 80.68 153.98 74.36 154.02 68.03 Z" />
<path fill="#ffffff" d=" M 218.02 68.01 C 238.71 67.78 259.42 68.42 280.09 67.67 C 279.85 74.32 280.09 80.97 279.98 87.62 C 274.36 86.57 268.63 87.06 262.95 87.01 C 247.98 86.99 233.01 86.97 218.04 87.00 C 217.98 80.67 217.97 74.34 218.02 68.01 Z" />
<path fill="#000000" d=" M 280.09 67.67 C 281.61 74.22 281.50 81.09 279.98 87.62 C 280.09 80.97 279.85 74.32 280.09 67.67 Z" />
<path fill="#000000" d=" M 282.04 68.01 C 303.02 68.04 324.00 67.98 344.99 68.04 C 344.99 73.37 344.99 78.69 345.00 84.02 L 344.00 84.02 C 344.00 79.01 344.00 74.01 344.00 69.00 C 323.67 69.00 303.33 69.00 283.00 69.00 C 283.00 74.67 283.00 80.33 283.00 86.00 C 302.67 86.00 322.34 86.00 342.02 86.00 L 342.02 86.95 C 322.03 86.86 302.04 86.97 282.05 86.89 C 282.00 80.60 282.00 74.30 282.04 68.01 Z" />
<path fill="#000000" d=" M 346.00 84.02 C 345.92 78.55 345.59 73.01 346.91 67.65 C 347.12 73.10 346.95 78.56 347.00 84.02 L 346.00 84.02 Z" />
<path fill="#ffffff" d=" M 346.91 67.65 C 367.58 68.48 388.29 67.76 408.98 68.01 C 409.04 74.34 409.02 80.66 408.95 86.99 C 391.29 87.03 373.63 86.98 355.98 86.99 C 353.37 87.02 350.77 87.21 348.19 87.45 C 355.08 88.46 362.05 87.92 368.99 87.99 C 382.31 88.02 395.64 87.98 408.96 88.02 C 408.96 88.76 408.97 90.25 408.97 91.00 L 281.64 91.00 C 281.60 90.48 281.52 89.43 281.49 88.91 C 301.66 89.12 321.84 88.94 342.02 89.00 L 342.02 87.90 L 342.02 86.95 L 342.02 86.00 C 322.34 86.00 302.67 86.00 283.00 86.00 C 283.00 80.33 283.00 74.67 283.00 69.00 C 303.33 69.00 323.67 69.00 344.00 69.00 C 344.00 74.01 344.00 79.01 344.00 84.02 L 345.00 84.02 L 346.00 84.02 L 347.00 84.02 C 346.95 78.56 347.12 73.10 346.91 67.65 Z" />
<path fill="#ffffff" d=" M 410.03 68.03 C 427.69 67.98 445.34 68.01 463.00 67.98 L 463.00 87.00 C 445.33 87.01 427.67 87.01 410.00 86.97 C 409.97 80.65 409.99 74.34 410.03 68.03 Z" />
<path fill="#586759" d=" M 9.66 75.84 C 9.99 75.38 10.64 74.47 10.96 74.01 C 11.85 73.98 13.63 73.90 14.53 73.86 C 16.26 76.99 14.07 79.77 11.97 82.01 C 12.98 82.00 15.00 81.99 16.01 81.99 L 16.01 83.04 C 13.71 83.04 11.41 83.03 9.11 82.88 L 10.27 82.03 C 11.22 81.42 12.17 80.67 12.55 79.57 C 13.32 78.08 13.80 76.48 14.22 74.86 C 12.69 75.16 11.18 75.49 9.66 75.84 Z" />
<path fill="#b98646" d=" M 80.82 79.52 C 81.69 77.46 82.06 73.45 85.16 73.96 C 84.99 75.89 84.93 77.83 85.07 79.76 L 84.05 79.86 C 84.01 78.27 83.99 76.68 84.00 75.09 C 83.00 76.61 82.00 78.13 80.82 79.52 Z" />
<path fill="#72baea" d=" M 85.16 73.96 C 86.54 75.22 86.73 78.22 85.69 79.83 L 85.07 79.76 C 84.93 77.83 84.99 75.89 85.16 73.96 Z" />
<path fill="#403527" d=" M 145.42 75.46 C 145.22 73.74 148.10 73.19 148.98 74.45 L 148.87 75.07 C 148.18 75.19 146.79 75.42 146.09 75.54 L 145.42 75.46 Z" />
<path fill="#a8d7f1" d=" M 148.98 74.45 C 152.11 74.11 149.75 77.62 149.81 79.26 L 149.00 79.05 L 148.00 78.81 L 148.09 78.08 L 148.80 77.74 L 148.87 77.04 C 150.37 76.40 150.37 75.74 148.87 75.07 L 148.98 74.45 Z" />
<path fill="#f3c66d" d=" M 285.31 73.23 C 285.42 73.54 285.65 74.16 285.76 74.48 L 285.68 75.10 C 284.64 75.77 284.70 76.27 285.85 76.60 L 286.07 76.84 L 286.86 77.90 L 286.99 78.42 L 287.18 79.21 C 286.32 78.78 284.59 77.91 283.73 77.48 C 284.22 76.05 284.75 74.63 285.31 73.23 Z" />
<path fill="#5d6e88" d=" M 285.76 74.48 L 286.21 73.98 C 287.37 73.70 289.63 73.77 289.88 75.24 C 288.50 75.49 286.99 75.57 286.07 76.84 L 285.85 76.60 C 285.81 76.22 285.72 75.47 285.68 75.10 L 285.76 74.48 Z" />
<path fill="#d49b00" d=" M 292.00 73.99 L 293.00 74.01 C 293.00 77.01 293.00 80.02 293.00 83.03 L 292.00 82.96 C 292.00 79.97 292.00 76.98 292.00 73.99 Z" />
<path fill="#009bd4" d=" M 293.00 74.01 L 294.00 73.98 C 294.00 76.98 294.00 79.98 294.00 82.98 L 293.00 83.03 C 293.00 80.02 293.00 77.01 293.00 74.01 Z" />
<path fill="#abdbe6" d=" M 80.82 79.52 C 82.00 78.13 83.00 76.61 84.00 75.09 C 83.99 76.68 84.01 78.27 84.05 79.86 C 83.41 79.90 82.14 79.97 81.51 80.01 L 80.82 79.52 Z" />
<path fill="#870087" d=" M 145.42 75.46 L 146.09 75.54 C 146.14 75.98 146.23 76.87 146.27 77.32 L 145.49 77.39 C 145.48 76.91 145.44 75.95 145.42 75.46 Z" />
<path fill="#e9f9ec" d=" M 146.09 75.54 C 146.79 75.42 148.18 75.19 148.87 75.07 C 148.87 75.56 148.87 76.55 148.87 77.04 C 148.67 77.30 148.28 77.82 148.09 78.08 L 147.31 78.09 C 147.05 77.90 146.53 77.51 146.27 77.32 C 146.23 76.87 146.14 75.98 146.09 75.54 Z" />
<path fill="#870072" d=" M 148.87 75.07 C 150.37 75.74 150.37 76.40 148.87 77.04 C 148.87 76.55 148.87 75.56 148.87 75.07 Z" />
<path fill="#720039" d=" M 285.85 76.60 C 284.70 76.27 284.64 75.77 285.68 75.10 C 285.72 75.47 285.81 76.22 285.85 76.60 Z" />
<path fill="#e2bc55" d=" M 145.49 77.39 L 146.27 77.32 C 146.53 77.51 147.05 77.90 147.31 78.09 L 147.26 78.80 L 146.28 79.10 L 145.47 79.10 C 145.48 78.67 145.49 77.81 145.49 77.39 Z" />
<path fill="#00009b" d=" M 146.27 77.32 C 146.53 77.51 147.05 77.90 147.31 78.09 C 147.05 77.90 146.53 77.51 146.27 77.32 Z" />
<path fill="#ba7200" d=" M 148.09 78.08 C 148.28 77.82 148.67 77.30 148.87 77.04 L 148.80 77.74 L 148.09 78.08 Z" />
<path fill="#000000" d=" M 147.31 78.09 L 148.09 78.08 L 148.00 78.81 L 147.26 78.80 L 147.31 78.09 Z" />
<path fill="#3b2f56" d=" M 286.86 77.90 C 288.27 77.55 289.26 78.07 289.83 79.45 L 289.55 79.88 L 288.98 79.98 C 288.48 79.59 287.48 78.81 286.99 78.42 L 286.86 77.90 Z" />
<path fill="#e4a965" d=" M 10.27 82.03 C 9.03 80.73 11.16 78.44 12.55 79.57 C 12.17 80.67 11.22 81.42 10.27 82.03 Z" />
<path fill="#ab3900" d=" M 79.97 79.65 L 80.82 79.52 L 81.51 80.01 L 81.35 80.66 C 80.96 80.60 80.17 80.48 79.78 80.42 L 79.97 79.65 Z" />
<path fill="#9b0000" d=" M 145.47 79.10 L 146.28 79.10 L 145.81 79.68 L 145.30 80.04 L 145.47 79.10 Z" />
<path fill="#82c2e8" d=" M 146.28 79.10 L 147.26 78.80 C 147.00 79.41 146.49 80.62 146.23 81.22 L 145.62 80.89 L 145.30 80.04 L 145.81 79.68 L 146.28 79.10 Z" />
<path fill="#f6fbf1" d=" M 147.26 78.80 L 148.00 78.81 C 148.02 79.99 148.31 81.10 148.87 82.14 C 148.20 82.08 146.84 81.96 146.16 81.90 L 146.23 81.22 C 146.49 80.62 147.00 79.41 147.26 78.80 Z" />
<path fill="#c58b57" d=" M 148.00 78.81 L 149.00 79.05 C 149.19 79.25 149.58 79.65 149.78 79.85 C 149.55 80.42 149.10 81.57 148.87 82.14 C 148.31 81.10 148.02 79.99 148.00 78.81 Z" />
<path fill="#000072" d=" M 149.00 79.05 L 149.81 79.26 L 149.78 79.85 C 149.58 79.65 149.19 79.25 149.00 79.05 Z" />
<path fill="#a5d7f7" d=" M 149.81 79.26 C 152.27 79.29 151.15 83.90 148.92 82.73 L 148.87 82.14 C 149.10 81.57 149.55 80.42 149.78 79.85 L 149.81 79.26 Z" />
<path fill="#7798d0" d=" M 289.83 79.45 C 292.19 79.83 290.01 84.05 288.17 82.77 L 288.13 82.19 C 288.35 81.79 288.78 80.98 288.99 80.58 C 289.13 80.41 289.41 80.06 289.55 79.88 L 289.83 79.45 Z" />
<path fill="#00131f" d=" M 81.51 80.01 C 82.14 79.97 83.41 79.90 84.05 79.86 L 85.07 79.76 L 85.69 79.83 C 85.84 80.05 86.16 80.50 86.31 80.72 L 85.81 81.12 L 84.98 81.26 L 84.07 81.27 C 83.39 81.11 82.03 80.81 81.35 80.66 L 81.51 80.01 Z" />
<path fill="#efca83" d=" M 146.03 82.53 C 144.20 83.99 143.01 79.57 145.30 80.04 L 145.62 80.89 C 145.75 81.14 146.02 81.65 146.16 81.90 L 146.03 82.53 Z" />
<path fill="#ba7200" d=" M 288.98 79.98 L 289.55 79.88 C 289.41 80.06 289.13 80.41 288.99 80.58 L 288.98 79.98 Z" />
<path fill="#ba7200" d=" M 84.07 81.27 L 84.98 81.26 C 85.00 81.64 85.03 82.41 85.05 82.79 C 84.71 82.62 84.03 82.28 83.69 82.11 L 84.07 81.27 Z" />
<path fill="#72baea" d=" M 84.98 81.26 L 85.81 81.12 L 86.31 81.91 L 85.88 82.77 L 85.05 82.79 C 85.03 82.41 85.00 81.64 84.98 81.26 Z" />
<path fill="#00009b" d=" M 145.62 80.89 L 146.23 81.22 L 146.16 81.90 C 146.02 81.65 145.75 81.14 145.62 80.89 Z" />
<path fill="#6b6146" d=" M 284.39 81.46 C 285.60 81.12 287.08 81.51 288.13 82.19 L 288.17 82.77 C 287.07 83.66 284.28 83.04 284.39 81.46 Z" />
<path fill="#000000" d=" M 146.16 81.90 C 146.84 81.96 148.20 82.08 148.87 82.14 L 148.92 82.73 C 148.39 82.83 147.34 83.04 146.82 83.14 L 146.03 82.53 L 146.16 81.90 Z" />
<path fill="#000000" d=" M 342.85 86.33 C 343.22 85.96 343.96 85.22 344.32 84.86 C 346.79 85.64 343.64 88.80 342.85 86.33 Z" />
<path fill="#000000" d=" M 348.14 86.32 C 347.35 88.80 344.20 85.64 346.67 84.85 C 347.04 85.22 347.77 85.96 348.14 86.32 Z" />
<path fill="#e4ecf7" d=" M 0.00 88.00 C 8.67 88.03 17.34 87.91 26.00 88.09 C 26.03 88.82 26.08 90.27 26.11 91.00 L 0.00 91.00 L 0.00 88.00 Z" />
<path fill="#ffffff" d=" M 26.00 88.09 C 46.94 87.88 67.88 88.07 88.82 87.99 C 88.92 88.74 89.10 90.25 89.20 91.00 L 26.11 91.00 C 26.08 90.27 26.03 88.82 26.00 88.09 Z" />
<path fill="#ffffff" d=" M 90.07 88.05 C 111.01 87.94 131.95 88.02 152.89 88.01 C 152.98 88.75 153.17 90.25 153.27 91.00 L 90.00 91.00 C 90.01 90.26 90.05 88.79 90.07 88.05 Z" />
<path fill="#ffffff" d=" M 154.08 88.04 C 175.00 87.96 195.93 87.99 216.86 88.01 C 216.93 88.76 217.09 90.25 217.17 91.00 L 154.00 91.00 C 154.02 90.26 154.06 88.78 154.08 88.04 Z" />
<path fill="#ffffff" d=" M 218.02 88.04 C 235.70 87.90 253.37 88.13 271.05 87.93 C 274.15 87.91 277.26 88.10 280.32 88.67 C 280.50 88.84 280.87 89.18 281.05 89.35 C 281.10 89.76 281.21 90.59 281.26 91.00 L 218.12 91.00 C 218.10 90.26 218.05 88.78 218.02 88.04 Z" />
<path fill="#070708" d=" M 281.05 89.35 C 281.25 88.86 281.65 87.88 281.86 87.39 C 289.89 88.22 297.96 87.78 306.02 87.87 C 318.02 87.93 330.02 87.83 342.02 87.90 L 342.02 89.00 C 321.84 88.94 301.66 89.12 281.49 88.91 C 281.52 89.43 281.60 90.48 281.64 91.00 L 281.26 91.00 C 281.21 90.59 281.10 89.76 281.05 89.35 Z" />
<path fill="#000000" d=" M 342.86 88.68 C 343.63 86.20 346.79 89.35 344.33 90.15 C 343.96 89.78 343.22 89.05 342.86 88.68 Z" />
<path fill="#000000" d=" M 346.67 90.15 C 344.20 89.35 347.36 86.20 348.14 88.68 C 347.77 89.05 347.04 89.78 346.67 90.15 Z" />
<path fill="#ffffff" d=" M 410.08 88.03 C 427.72 87.92 445.36 88.08 463.00 87.96 L 463.00 91.00 L 409.94 91.00 C 409.98 90.26 410.05 88.78 410.08 88.03 Z" />
</svg>
