<?xml version="1.0" encoding="UTF-8" ?>
<!DOCTYPE svg PUBLIC "-//W3C//DTD SVG 1.1//EN" "http://www.w3.org/Graphics/SVG/1.1/DTD/svg11.dtd">
<svg width="470pt" height="91pt" viewBox="0 0 470 91" version="1.1" xmlns="http://www.w3.org/2000/svg">
<path fill="#aac4e6" d=" M 0.00 0.00 L 1.05 0.00 C 3.35 0.52 5.64 1.14 8.01 1.30 C 137.65 1.30 267.32 1.31 396.97 1.30 C 421.31 1.23 445.66 1.52 470.00 1.12 L 470.00 3.00 C 313.33 3.01 156.67 2.99 0.00 3.01 L 0.00 0.00 Z" />
<path fill="#96aac4" d=" M 1.05 0.00 L 470.00 0.00 L 470.00 1.12 C 445.66 1.52 421.31 1.23 396.97 1.30 C 267.32 1.31 137.65 1.30 8.01 1.30 C 5.64 1.14 3.35 0.52 1.05 0.00 Z" />
<path fill="#698db0" d=" M 0.00 3.01 C 156.67 2.99 313.33 3.01 470.00 3.00 L 470.00 4.00 C 394.67 4.00 319.34 4.00 244.00 4.00 C 244.00 10.67 244.00 17.33 244.00 24.00 C 319.33 24.00 394.67 24.00 470.00 24.00 L 470.00 24.99 C 313.67 25.02 157.33 24.99 1.00 25.00 C 1.00 25.75 1.00 27.25 1.00 28.00 C 157.33 28.00 313.67 28.00 470.00 28.00 L 470.00 29.00 C 450.00 29.00 429.99 29.00 409.99 29.00 L 409.00 29.00 C 388.00 29.00 367.00 29.00 346.00 29.00 L 345.00 29.00 C 324.00 29.00 303.00 29.00 282.00 29.00 L 281.00 29.00 C 260.00 29.00 239.00 29.00 218.00 29.00 L 217.01 29.00 C 196.01 29.00 175.00 29.00 154.00 29.00 L 153.00 29.00 C 132.00 29.00 111.00 29.00 90.00 29.00 L 89.01 29.00 C 68.00 29.05 46.98 28.91 25.97 29.07 C 17.32 29.47 8.65 29.46 0.00 29.14 L 0.00 3.01 Z" />
<path fill="#ffffff" d=" M 1.00 4.00 C 55.76 3.99 110.51 4.01 165.27 3.99 C 162.12 6.41 159.00 9.72 159.09 13.97 C 158.85 18.25 161.85 21.70 165.13 24.02 C 110.42 23.97 55.71 24.02 1.00 24.00 C 1.00 17.33 1.00 10.67 1.00 4.00 Z" />
<path fill="#fafbfd" d=" M 164.19 6.17 C 166.51 4.67 169.19 3.88 171.96 4.00 C 195.64 3.99 219.32 4.00 243.00 4.00 C 243.00 4.79 243.00 6.37 243.00 7.16 C 223.68 7.17 204.36 7.16 185.04 7.14 C 178.09 7.08 171.04 7.75 164.19 6.17 Z" />
<path fill="#ffffff" d=" M 244.00 4.00 C 319.34 4.00 394.67 4.00 470.00 4.00 L 470.00 24.00 C 394.67 24.00 319.33 24.00 244.00 24.00 C 244.00 17.33 244.00 10.67 244.00 4.00 Z" />
<path fill="#e6edf7" d=" M 163.82 6.10 L 164.19 6.17 C 171.04 7.75 178.09 7.08 185.04 7.14 C 204.36 7.16 223.68 7.17 243.00 7.16 C 243.00 8.85 242.99 10.55 242.99 12.24 C 239.49 12.21 235.99 12.13 232.50 11.93 C 231.84 11.20 231.18 10.46 230.54 9.72 C 232.15 9.79 233.75 9.64 234.81 8.22 C 233.42 8.11 232.03 8.02 230.65 7.94 C 229.49 9.23 228.31 10.49 227.08 11.71 C 227.39 12.00 228.01 12.58 228.32 12.87 C 210.21 12.62 192.10 12.86 173.99 12.75 C 171.60 10.47 168.58 9.53 165.46 10.98 C 163.69 11.41 161.92 11.83 160.15 12.23 C 161.13 10.05 162.38 8.01 163.82 6.10 Z" />
<path fill="#6e747e" d=" M 230.65 7.94 C 232.03 8.02 233.42 8.11 234.81 8.22 C 233.75 9.64 232.15 9.79 230.54 9.72 C 231.18 10.46 231.84 11.20 232.50 11.93 C 232.00 12.03 231.02 12.23 230.53 12.32 C 230.08 14.01 229.70 15.71 229.30 17.41 C 230.05 17.23 231.54 16.85 232.28 16.66 C 231.81 15.80 231.34 14.93 230.87 14.07 C 233.06 14.06 235.25 14.03 237.44 13.99 C 236.80 14.38 235.52 15.15 234.88 15.53 C 235.33 16.37 235.79 17.21 236.26 18.05 C 234.07 17.97 231.89 17.90 229.71 17.87 C 227.99 19.34 225.92 19.81 223.75 19.08 L 225.44 18.63 C 225.82 18.52 226.58 18.32 226.96 18.22 C 227.42 16.43 227.88 14.65 228.32 12.87 C 228.01 12.58 227.39 12.00 227.08 11.71 C 228.31 10.49 229.49 9.23 230.65 7.94 Z" />
<path fill="#eaba72" d=" M 271.04 10.48 C 271.21 10.39 271.54 10.21 271.71 10.12 L 271.43 10.53 L 271.04 10.48 Z" />
<path fill="#75c1ea" d=" M 271.71 10.12 L 272.81 8.51 C 271.59 13.11 271.60 17.89 272.81 22.49 L 271.71 20.86 L 271.44 20.45 C 271.34 20.33 271.16 20.08 271.06 19.95 C 271.04 19.20 271.00 17.71 270.98 16.96 C 270.98 16.21 270.99 14.71 270.99 13.96 C 271.01 13.22 271.05 11.75 271.07 11.01 C 271.16 10.89 271.34 10.65 271.43 10.53 L 271.71 10.12 Z" />
<path fill="#eaba72" d=" M 304.04 10.48 C 304.21 10.39 304.54 10.21 304.71 10.13 L 304.43 10.53 L 304.04 10.48 Z" />
<path fill="#75c1ea" d=" M 304.71 10.13 L 305.81 8.52 C 304.60 13.11 304.59 17.89 305.81 22.49 L 304.71 20.87 L 304.43 20.47 C 304.34 20.35 304.16 20.10 304.06 19.98 C 304.04 19.24 304.00 17.75 303.98 17.00 C 303.98 16.25 303.98 14.75 303.98 14.00 C 304.00 13.25 304.04 11.77 304.06 11.02 C 304.15 10.90 304.34 10.65 304.43 10.53 L 304.71 10.13 Z" />
<path fill="#9b0072" d=" M 385.37 10.04 C 385.50 9.88 385.77 9.54 385.90 9.38 L 386.04 10.00 L 385.37 10.04 Z" />
<path fill="#8eccf1" d=" M 385.90 9.38 C 388.29 12.00 388.87 16.34 386.78 19.31 L 386.82 18.65 C 386.91 16.62 387.04 14.53 386.50 12.55 C 386.41 12.38 386.23 12.03 386.14 11.86 C 386.11 11.39 386.06 10.47 386.04 10.00 L 385.90 9.38 Z" />
<path fill="#ab3956" d=" M 395.16 12.73 C 393.06 13.24 392.99 8.51 395.15 9.05 C 394.65 10.29 394.66 11.51 395.16 12.73 Z" />
<path fill="#b2e5ff" d=" M 395.15 9.05 L 395.98 9.06 C 395.96 10.27 395.96 11.49 395.97 12.71 L 395.16 12.73 C 394.66 11.51 394.65 10.29 395.15 9.05 Z" />
<path fill="#ffdaa3" d=" M 395.98 9.06 L 396.80 9.06 C 397.27 10.28 397.26 11.50 396.78 12.71 L 395.97 12.71 C 395.96 11.49 395.96 10.27 395.98 9.06 Z" />
<path fill="#1d7cc1" d=" M 396.80 9.06 C 398.95 8.55 398.89 13.18 396.78 12.71 C 397.26 11.50 397.27 10.28 396.80 9.06 Z" />
<path fill="#ab3956" d=" M 412.16 12.74 C 410.05 13.21 410.00 8.48 412.16 9.07 C 411.66 10.30 411.65 11.52 412.16 12.74 Z" />
<path fill="#b2e5ff" d=" M 412.16 9.07 L 412.98 9.07 C 412.96 10.29 412.96 11.50 412.97 12.72 L 412.16 12.74 C 411.65 11.52 411.66 10.30 412.16 9.07 Z" />
<path fill="#ffdaa3" d=" M 412.98 9.07 L 413.81 9.07 C 414.27 10.29 414.26 11.50 413.78 12.71 L 412.97 12.72 C 412.96 11.50 412.96 10.29 412.98 9.07 Z" />
<path fill="#1d7cc1" d=" M 413.81 9.07 C 415.96 8.57 415.89 13.20 413.78 12.71 C 414.26 11.50 414.27 10.29 413.81 9.07 Z" />
<path fill="#ab3956" d=" M 425.16 12.74 C 423.06 13.23 422.99 8.49 425.16 9.06 C 424.66 10.29 424.66 11.52 425.16 12.74 Z" />
<path fill="#b2e5ff" d=" M 425.16 9.06 L 425.98 9.07 C 425.96 10.28 425.96 11.50 425.97 12.72 L 425.16 12.74 C 424.66 11.52 424.66 10.29 425.16 9.06 Z" />
<path fill="#ffdaa3" d=" M 425.98 9.07 L 426.80 9.07 C 427.27 10.29 427.26 11.50 426.78 12.71 L 425.97 12.72 C 425.96 11.50 425.96 10.28 425.98 9.07 Z" />
<path fill="#1d7cc1" d=" M 426.80 9.07 C 428.96 8.56 428.89 13.19 426.78 12.71 C 427.26 11.50 427.27 10.29 426.80 9.07 Z" />
<path fill="#ab3956" d=" M 451.16 12.73 C 449.06 13.24 448.99 8.50 451.16 9.06 C 450.65 10.29 450.66 11.52 451.16 12.73 Z" />
<path fill="#b2e5ff" d=" M 451.16 9.06 L 451.98 9.06 C 451.96 10.28 451.96 11.50 451.97 12.71 L 451.16 12.73 C 450.66 11.52 450.65 10.29 451.16 9.06 Z" />
<path fill="#ffdaa3" d=" M 451.98 9.06 L 452.81 9.06 C 453.27 10.28 453.26 11.50 452.78 12.71 L 451.97 12.71 C 451.96 11.50 451.96 10.28 451.98 9.06 Z" />
<path fill="#1d7cc1" d=" M 452.81 9.06 C 454.96 8.58 454.89 13.21 452.78 12.71 C 453.26 11.50 453.27 10.28 452.81 9.06 Z" />
<path fill="#9b0072" d=" M 456.37 10.05 C 456.51 9.88 456.77 9.55 456.91 9.38 L 457.04 10.01 L 456.37 10.05 Z" />
<path fill="#8eccf1" d=" M 456.91 9.38 C 459.29 12.02 459.86 16.34 457.78 19.32 L 457.82 18.66 C 457.91 16.64 458.04 14.55 457.51 12.57 C 457.41 12.39 457.23 12.04 457.13 11.87 C 457.11 11.40 457.07 10.47 457.04 10.01 L 456.91 9.38 Z" />
<path fill="#ba7200" d=" M 64.21 9.28 L 65.07 10.60 L 65.11 11.12 C 65.16 11.87 65.26 13.37 65.31 14.11 L 65.31 14.89 C 65.26 15.64 65.17 17.13 65.12 17.88 L 65.08 18.40 L 64.21 19.71 C 63.82 16.25 63.82 12.75 64.21 9.28 Z" />
<path fill="#000000" d=" M 65.07 10.60 C 66.28 9.70 67.58 9.58 68.96 10.25 L 68.92 10.72 C 68.13 10.84 66.56 11.07 65.77 11.19 L 65.11 11.12 L 65.07 10.60 Z" />
<path fill="#72baea" d=" M 68.96 10.25 C 68.95 10.37 68.93 10.60 68.92 10.72 L 68.96 10.25 Z" />
<path fill="#eaba72" d=" M 72.15 10.76 C 72.16 10.62 72.17 10.34 72.17 10.21 L 72.15 10.76 Z" />
<path fill="#000000" d=" M 72.17 10.21 C 72.84 10.25 74.18 10.34 74.85 10.38 L 74.70 10.94 L 73.96 11.22 C 73.50 11.11 72.60 10.88 72.15 10.76 L 72.17 10.21 Z" />
<path fill="#4335aa" d=" M 74.85 10.38 C 76.40 10.44 76.86 13.02 75.64 13.83 L 75.08 13.73 C 74.99 13.03 74.79 11.64 74.70 10.94 L 74.85 10.38 Z" />
<path fill="#aeb2ba" d=" M 165.46 10.98 C 168.58 9.53 171.60 10.47 173.99 12.75 C 173.29 14.04 172.55 15.30 171.78 16.54 C 169.31 15.15 167.41 12.99 165.46 10.98 Z" />
<path fill="#d49b00" d=" M 259.00 10.00 L 260.00 10.00 C 260.00 13.00 260.00 15.99 260.00 18.99 L 259.00 19.01 C 258.99 16.01 258.99 13.00 259.00 10.00 Z" />
<path fill="#009bd4" d=" M 260.00 10.00 L 261.00 10.00 C 261.00 13.01 261.00 16.01 261.00 19.01 L 260.00 18.99 C 260.00 15.99 260.00 13.00 260.00 10.00 Z" />
<path fill="#d49b00" d=" M 263.27 9.28 L 263.92 10.66 L 264.00 11.19 C 264.07 11.92 264.22 13.36 264.29 14.09 L 264.26 14.82 C 264.01 16.06 263.94 17.31 264.05 18.56 L 263.00 19.09 C 262.98 15.82 262.89 12.54 263.27 9.28 Z" />
<path fill="#1f2a33" d=" M 263.92 10.66 C 264.95 9.48 267.06 9.54 268.32 10.30 C 268.00 11.68 265.71 10.96 264.64 11.26 L 264.00 11.19 L 263.92 10.66 Z" />
<path fill="#9b0072" d=" M 271.04 10.48 L 271.43 10.53 C 271.34 10.65 271.16 10.89 271.07 11.01 L 271.04 10.48 Z" />
<path fill="#d49b00" d=" M 277.28 11.23 C 277.47 11.02 277.85 10.60 278.04 10.39 C 277.85 10.60 277.47 11.02 277.28 11.23 Z" />
<path fill="#67344c" d=" M 278.04 10.39 L 278.83 10.75 C 278.85 11.20 278.90 12.09 278.92 12.53 L 278.09 12.67 L 277.40 12.34 L 277.28 11.23 C 277.47 11.02 277.85 10.60 278.04 10.39 Z" />
<path fill="#4eb8ea" d=" M 278.83 10.75 L 279.61 10.73 C 279.62 11.18 279.64 12.07 279.65 12.52 L 278.92 12.53 C 278.90 12.09 278.85 11.20 278.83 10.75 Z" />
<path fill="#ca970b" d=" M 284.00 9.99 L 285.38 9.98 C 285.42 10.02 285.50 10.10 285.54 10.14 C 285.10 13.08 284.97 16.05 284.89 19.01 L 284.00 19.00 C 284.00 15.99 284.00 12.99 284.00 9.99 Z" />
<path fill="#000000" d=" M 285.38 9.98 L 285.56 9.94 L 285.54 10.14 C 285.50 10.10 285.42 10.02 285.38 9.98 Z" />
<path fill="#64a0ca" d=" M 285.56 9.94 C 286.86 10.74 287.58 12.07 288.15 13.43 L 287.56 13.39 L 285.82 13.27 C 285.82 15.15 285.83 17.04 285.84 18.93 L 284.89 19.01 C 284.97 16.05 285.10 13.08 285.54 10.14 L 285.56 9.94 Z" />
<path fill="#e3ba72" d=" M 289.78 15.27 C 289.73 13.74 289.28 10.98 290.89 10.26 C 291.10 12.44 291.09 14.65 290.99 16.84 C 290.74 16.61 290.24 16.16 289.99 15.93 L 289.78 15.27 Z" />
<path fill="#009bd4" d=" M 290.89 10.26 L 292.00 9.94 C 292.00 12.99 292.00 16.05 292.00 19.10 L 290.86 18.56 C 290.89 18.13 290.96 17.27 290.99 16.84 C 291.09 14.65 291.10 12.44 290.89 10.26 Z" />
<path fill="#ba7200" d=" M 293.95 9.85 L 295.25 10.38 L 295.20 10.83 C 294.84 13.23 294.92 15.68 295.36 18.06 L 295.44 18.64 L 294.14 19.62 C 293.89 16.37 293.92 13.10 293.95 9.85 Z" />
<path fill="#2b231a" d=" M 295.25 10.38 C 296.75 9.26 299.51 9.86 300.17 11.72 L 300.08 12.26 L 299.59 12.19 C 298.39 11.37 297.05 10.97 295.59 10.99 L 295.20 10.83 L 295.25 10.38 Z" />
<path fill="#9b0072" d=" M 304.04 10.48 L 304.43 10.53 C 304.34 10.65 304.15 10.90 304.06 11.02 L 304.04 10.48 Z" />
<path fill="#d49b00" d=" M 310.28 11.23 C 310.47 11.02 310.85 10.60 311.04 10.39 C 310.85 10.60 310.47 11.02 310.28 11.23 Z" />
<path fill="#67344c" d=" M 311.04 10.39 L 311.83 10.75 C 311.85 11.19 311.90 12.08 311.92 12.53 L 311.09 12.67 L 310.40 12.34 L 310.28 11.23 C 310.47 11.02 310.85 10.60 311.04 10.39 Z" />
<path fill="#4eb8ea" d=" M 311.83 10.75 L 312.61 10.73 C 312.62 11.17 312.64 12.07 312.66 12.52 L 311.92 12.53 C 311.90 12.08 311.85 11.19 311.83 10.75 Z" />
<path fill="#eaba72" d=" M 318.14 10.77 C 318.15 10.63 318.15 10.36 318.15 10.22 L 318.14 10.77 Z" />
<path fill="#000000" d=" M 318.15 10.22 C 318.82 10.25 320.16 10.33 320.83 10.37 L 320.69 10.93 L 319.96 11.22 C 319.50 11.11 318.60 10.89 318.14 10.77 L 318.15 10.22 Z" />
<path fill="#4335aa" d=" M 320.83 10.37 C 322.38 10.42 322.86 13.01 321.64 13.83 L 321.09 13.72 C 320.99 13.02 320.79 11.63 320.69 10.93 L 320.83 10.37 Z" />
<path fill="#eaba72" d=" M 332.31 10.81 C 332.32 10.65 332.34 10.33 332.35 10.17 L 332.31 10.81 Z" />
<path fill="#000000" d=" M 332.35 10.17 C 332.80 10.24 333.68 10.37 334.13 10.44 L 334.06 11.13 C 333.62 11.05 332.75 10.89 332.31 10.81 L 332.35 10.17 Z" />
<path fill="#00009b" d=" M 334.13 10.44 C 334.29 10.63 334.61 11.01 334.77 11.19 L 334.06 11.13 L 334.13 10.44 Z" />
<path fill="#4d252f" d=" M 338.24 12.34 C 337.77 10.52 340.65 9.28 341.99 10.33 L 342.02 10.90 C 340.86 11.22 339.78 11.69 338.77 12.32 L 338.24 12.34 Z" />
<path fill="#9cd2f7" d=" M 341.99 10.33 C 345.23 11.19 343.67 15.62 343.72 17.95 L 342.90 16.77 C 343.07 15.04 342.99 13.28 342.59 11.58 L 342.50 10.99 L 342.02 10.90 L 341.99 10.33 Z" />
<path fill="#ba7200" d=" M 349.17 9.33 L 350.37 10.35 L 350.36 11.00 C 350.32 11.80 350.25 13.40 350.21 14.20 L 350.25 14.82 C 350.22 15.59 350.16 17.13 350.12 17.90 L 350.08 18.42 L 349.21 19.71 C 348.82 16.26 348.85 12.78 349.17 9.33 Z" />
<path fill="#000000" d=" M 350.37 10.35 C 350.86 10.26 351.85 10.06 352.35 9.96 L 353.13 10.57 L 353.03 11.20 C 352.55 11.21 351.59 11.22 351.11 11.22 L 350.36 11.00 L 350.37 10.35 Z" />
<path fill="#00009b" d=" M 353.13 10.57 C 353.28 10.75 353.59 11.09 353.75 11.27 L 353.03 11.20 L 353.13 10.57 Z" />
<path fill="#eaba72" d=" M 358.14 10.75 C 358.15 10.61 358.16 10.33 358.17 10.19 L 358.14 10.75 Z" />
<path fill="#000000" d=" M 358.17 10.19 C 358.84 10.24 360.18 10.33 360.85 10.38 L 360.69 10.94 L 359.94 11.22 C 359.49 11.10 358.59 10.86 358.14 10.75 L 358.17 10.19 Z" />
<path fill="#4335aa" d=" M 360.85 10.38 C 362.39 10.43 362.86 13.01 361.64 13.82 L 361.09 13.72 C 360.99 13.02 360.79 11.63 360.69 10.94 L 360.85 10.38 Z" />
<path fill="#b98646" d=" M 371.13 15.44 C 371.57 13.29 372.15 9.45 375.16 9.96 C 375.00 11.90 374.91 13.87 375.09 15.82 L 374.04 15.87 C 374.00 14.26 373.99 12.65 374.00 11.04 C 373.06 12.52 372.11 13.99 371.13 15.44 Z" />
<path fill="#72baea" d=" M 375.16 9.96 C 376.52 11.24 376.65 14.22 375.76 15.90 L 375.09 15.82 C 374.91 13.87 375.00 11.90 375.16 9.96 Z" />
<path fill="#4d252f" d=" M 378.27 12.34 C 377.75 10.52 380.66 9.26 381.99 10.34 L 382.01 10.90 C 380.85 11.24 379.77 11.71 378.75 12.32 L 378.27 12.34 Z" />
<path fill="#9cd2f7" d=" M 381.99 10.34 C 384.99 11.00 383.61 15.04 384.15 17.21 L 382.66 16.94 C 383.30 15.21 383.01 13.32 382.59 11.58 L 382.49 10.99 L 382.01 10.90 L 381.99 10.34 Z" />
<path fill="#f5c787" d=" M 385.37 10.04 L 386.04 10.00 C 386.06 10.47 386.11 11.39 386.14 11.86 L 385.38 11.78 C 385.38 11.34 385.37 10.48 385.37 10.04 Z" />
<path fill="#f3c66d" d=" M 400.30 9.25 C 400.40 9.55 400.61 10.16 400.71 10.47 L 400.69 11.10 C 399.72 11.91 399.86 12.42 401.11 12.62 L 401.58 12.90 L 402.08 13.87 L 402.12 14.52 L 402.17 15.19 C 401.31 14.76 399.59 13.90 398.73 13.46 C 399.22 12.05 399.74 10.64 400.30 9.25 Z" />
<path fill="#5d6e88" d=" M 400.71 10.47 L 401.12 9.94 C 402.28 9.56 404.79 9.72 404.86 11.29 C 404.36 11.30 403.34 11.32 402.83 11.33 C 402.52 11.72 401.89 12.51 401.58 12.90 L 401.11 12.62 C 401.01 12.24 400.80 11.48 400.69 11.10 L 400.71 10.47 Z" />
<path fill="#d49b00" d=" M 407.00 9.98 L 408.00 10.02 C 408.00 13.01 408.00 16.01 408.00 19.00 L 407.00 19.00 C 407.00 15.99 407.00 12.98 407.00 9.98 Z" />
<path fill="#009bd4" d=" M 408.00 10.02 L 409.00 9.98 C 409.00 12.99 409.00 15.99 409.00 19.00 L 408.00 19.00 C 408.00 16.01 408.00 13.01 408.00 10.02 Z" />
<path fill="#ca970b" d=" M 430.00 9.99 L 431.38 9.98 C 431.42 10.02 431.50 10.10 431.54 10.14 C 431.11 13.08 430.97 16.04 430.89 19.01 L 430.00 19.00 C 430.00 16.00 430.00 12.99 430.00 9.99 Z" />
<path fill="#000000" d=" M 431.38 9.98 L 431.56 9.94 L 431.54 10.14 C 431.50 10.10 431.42 10.02 431.38 9.98 Z" />
<path fill="#64a0ca" d=" M 431.56 9.94 C 432.86 10.73 433.57 12.07 434.15 13.43 L 433.56 13.39 L 431.82 13.28 C 431.82 15.16 431.82 17.05 431.84 18.94 L 430.89 19.01 C 430.97 16.04 431.11 13.08 431.54 10.14 L 431.56 9.94 Z" />
<path fill="#e3ba72" d=" M 435.78 15.26 C 435.73 13.74 435.26 10.94 436.89 10.27 C 437.10 12.45 437.09 14.65 436.99 16.84 C 436.74 16.61 436.24 16.15 435.99 15.92 L 435.78 15.26 Z" />
<path fill="#009bd4" d=" M 436.89 10.27 L 438.00 9.92 C 438.00 12.98 438.00 16.04 438.00 19.10 L 436.85 18.57 C 436.89 18.14 436.95 17.28 436.99 16.84 C 437.09 14.65 437.10 12.45 436.89 10.27 Z" />
<path fill="#720000" d=" M 442.02 11.00 C 442.17 10.85 442.46 10.57 442.61 10.43 L 442.60 10.94 L 442.02 11.00 Z" />
<path fill="#2e252f" d=" M 442.61 10.43 C 443.96 9.46 446.38 9.87 447.01 11.54 L 446.91 12.09 L 446.45 12.06 C 445.28 11.33 444.00 10.96 442.60 10.94 L 442.61 10.43 Z" />
<path fill="#f5c787" d=" M 456.37 10.05 L 457.04 10.01 C 457.07 10.47 457.11 11.40 457.13 11.87 L 456.38 11.79 C 456.38 11.35 456.37 10.49 456.37 10.05 Z" />
<path fill="#9bd4ff" d=" M 65.11 11.12 L 65.77 11.19 C 65.82 11.85 65.92 13.17 65.98 13.82 L 65.31 14.11 C 65.26 13.37 65.16 11.87 65.11 11.12 Z" />
<path fill="#cdb371" d=" M 73.96 11.22 L 74.70 10.94 C 74.79 11.64 74.99 13.03 75.08 13.73 C 74.37 14.77 73.68 15.82 73.01 16.88 L 72.42 17.73 C 72.02 17.85 71.23 18.09 70.83 18.21 C 71.98 15.95 75.18 14.06 73.96 11.22 Z" />
<path fill="#c8d9ef" d=" M 160.15 12.23 C 161.92 11.83 163.69 11.41 165.46 10.98 C 167.41 12.99 169.31 15.15 171.78 16.54 C 172.55 15.30 173.29 14.04 173.99 12.75 C 192.10 12.86 210.21 12.62 228.32 12.87 C 227.88 14.65 227.42 16.43 226.96 18.22 C 226.58 18.32 225.82 18.52 225.44 18.63 L 223.75 19.08 C 214.50 18.45 205.23 18.89 195.97 18.76 C 184.48 18.89 172.98 18.51 161.48 18.86 L 161.02 18.88 C 160.58 16.70 160.17 14.51 159.79 12.32 L 160.15 12.23 Z" />
<path fill="#72baea" d=" M 264.00 11.19 L 264.64 11.26 C 264.73 11.90 264.90 13.18 264.98 13.82 L 264.29 14.09 C 264.22 13.36 264.07 11.92 264.00 11.19 Z" />
<path fill="#daa034" d=" M 270.38 14.00 C 269.47 12.65 269.70 11.65 271.07 11.01 C 271.05 11.75 271.01 13.22 270.99 13.96 L 270.38 14.00 Z" />
<path fill="#72baea" d=" M 295.20 10.83 L 295.59 10.99 C 296.40 13.11 296.48 15.67 295.84 17.84 L 295.36 18.06 C 294.92 15.68 294.84 13.23 295.20 10.83 Z" />
<path fill="#7ca9e4" d=" M 300.17 11.72 L 300.48 10.27 C 301.62 12.99 302.63 16.75 299.46 18.62 C 299.57 18.18 299.78 17.29 299.89 16.84 L 300.20 16.31 C 301.16 15.57 301.85 13.15 300.04 13.08 L 300.08 12.26 L 300.17 11.72 Z" />
<path fill="#daa034" d=" M 303.38 14.03 C 302.47 12.68 302.70 11.68 304.06 11.02 C 304.04 11.77 304.00 13.25 303.98 14.00 L 303.38 14.03 Z" />
<path fill="#cdb371" d=" M 319.96 11.22 L 320.69 10.93 C 320.79 11.63 320.99 13.02 321.09 13.72 C 320.37 14.76 319.68 15.82 319.00 16.88 L 318.40 17.73 C 318.01 17.85 317.22 18.09 316.83 18.21 C 317.98 15.95 321.16 14.06 319.96 11.22 Z" />
<path fill="#ffd49b" d=" M 324.57 11.76 C 324.56 11.64 324.55 11.41 324.55 11.29 L 324.57 11.76 Z" />
<path fill="#00009b" d=" M 324.55 11.29 C 324.55 11.41 324.56 11.64 324.57 11.76 L 324.55 11.29 Z" />
<path fill="#dfab39" d=" M 334.06 11.13 L 334.77 11.19 C 334.71 11.65 334.60 12.55 334.54 13.00 L 333.94 13.18 C 333.97 12.67 334.03 11.64 334.06 11.13 Z" />
<path fill="#4aaddc" d=" M 334.77 11.19 L 335.28 11.07 C 336.29 12.22 336.34 13.47 335.41 14.83 L 334.93 15.04 L 334.21 14.84 L 334.08 14.06 C 334.20 13.80 334.43 13.27 334.54 13.00 C 334.60 12.55 334.71 11.65 334.77 11.19 Z" />
<path fill="#f6fcf5" d=" M 338.77 12.32 C 339.78 11.69 340.86 11.22 342.02 10.90 L 342.03 11.56 C 341.81 13.76 341.51 15.97 340.94 18.11 L 340.00 17.70 C 339.86 17.59 339.58 17.38 339.43 17.27 L 338.92 16.43 C 339.20 15.05 339.15 13.68 338.77 12.32 Z" />
<path fill="#000072" d=" M 342.02 10.90 L 342.50 10.99 L 342.59 11.58 L 342.03 11.56 L 342.02 10.90 Z" />
<path fill="#72baea" d=" M 350.36 11.00 L 351.11 11.22 C 351.04 11.91 350.90 13.29 350.83 13.98 L 350.21 14.20 C 350.25 13.40 350.32 11.80 350.36 11.00 Z" />
<path fill="#fffff8" d=" M 351.11 11.22 C 351.59 11.22 352.55 11.21 353.03 11.20 C 353.11 11.72 353.26 12.75 353.33 13.26 C 352.71 13.44 351.45 13.80 350.83 13.98 C 350.90 13.29 351.04 11.91 351.11 11.22 Z" />
<path fill="#d29639" d=" M 353.03 11.20 L 353.75 11.27 C 353.81 11.81 353.94 12.89 354.01 13.43 L 353.33 13.26 C 353.26 12.75 353.11 11.72 353.03 11.20 Z" />
<path fill="#7cb8e4" d=" M 353.75 11.27 L 354.67 9.94 C 354.53 12.68 357.06 16.98 353.90 18.73 L 353.92 18.17 L 354.00 16.48 L 354.54 16.31 L 354.53 15.77 L 354.51 15.18 L 353.95 15.14 C 353.96 14.71 353.99 13.85 354.01 13.43 C 353.94 12.89 353.81 11.81 353.75 11.27 Z" />
<path fill="#cdb371" d=" M 359.94 11.22 L 360.69 10.94 C 360.79 11.63 360.99 13.02 361.09 13.72 C 360.37 14.76 359.69 15.81 359.02 16.88 L 358.43 17.73 C 358.03 17.85 357.23 18.08 356.83 18.20 C 357.97 15.94 361.20 14.05 359.94 11.22 Z" />
<path fill="#74b0bb" d=" M 367.77 12.02 C 368.27 11.82 369.26 11.41 369.75 11.21 C 369.85 12.59 369.22 13.10 367.84 12.75 L 367.77 12.02 Z" />
<path fill="#abdbe6" d=" M 371.13 15.44 C 372.11 13.99 373.06 12.52 374.00 11.04 C 373.99 12.65 374.00 14.26 374.04 15.87 C 373.37 15.96 372.04 16.13 371.37 16.22 L 371.13 15.44 Z" />
<path fill="#f8fcf5" d=" M 378.75 12.32 C 379.77 11.71 380.85 11.24 382.01 10.90 L 382.03 11.56 C 381.78 13.74 381.73 16.02 380.70 18.02 L 379.58 17.66 C 379.57 15.85 379.24 14.05 378.75 12.32 Z" />
<path fill="#000072" d=" M 382.01 10.90 L 382.49 10.99 L 382.59 11.58 L 382.03 11.56 L 382.01 10.90 Z" />
<path fill="#720039" d=" M 401.11 12.62 C 399.86 12.42 399.72 11.91 400.69 11.10 C 400.80 11.48 401.01 12.24 401.11 12.62 Z" />
<path fill="#f3c66d" d=" M 441.41 18.34 C 438.78 16.92 438.74 12.53 441.33 11.04 L 441.16 11.79 L 440.86 12.84 C 440.05 13.65 439.17 15.60 440.74 16.10 L 441.01 17.05 C 441.11 17.38 441.31 18.02 441.41 18.34 Z" />
<path fill="#000000" d=" M 441.33 11.04 L 442.02 11.00 C 441.81 11.19 441.38 11.59 441.16 11.79 L 441.33 11.04 Z" />
<path fill="#b2defa" d=" M 442.02 11.00 L 442.60 10.94 C 443.39 11.84 442.55 14.26 441.19 13.72 L 440.86 12.84 L 441.16 11.79 C 441.38 11.59 441.81 11.19 442.02 11.00 Z" />
<path fill="#98c5ee" d=" M 447.01 11.54 C 449.48 10.73 450.05 16.30 448.10 16.91 L 447.82 16.12 C 448.31 14.83 448.07 13.72 447.11 12.81 L 446.91 12.09 L 447.01 11.54 Z" />
<path fill="#c8d9ef" d=" M 230.53 12.32 C 231.02 12.23 232.00 12.03 232.50 11.93 C 235.99 12.13 239.49 12.21 242.99 12.24 C 243.00 14.24 242.99 16.23 243.00 18.22 C 240.75 18.17 238.50 18.12 236.26 18.05 C 235.79 17.21 235.33 16.37 234.88 15.53 C 235.52 15.15 236.80 14.38 237.44 13.99 C 235.25 14.03 233.06 14.06 230.87 14.07 C 231.34 14.93 231.81 15.80 232.28 16.66 C 231.54 16.85 230.05 17.23 229.30 17.41 C 229.70 15.71 230.08 14.01 230.53 12.32 Z" />
<path fill="#f3c66d" d=" M 276.73 11.43 L 277.40 12.34 C 277.10 12.77 276.50 13.65 276.20 14.08 L 275.83 14.59 L 276.02 15.19 L 276.26 15.99 L 275.96 16.50 C 275.80 17.03 275.48 18.10 275.32 18.64 L 273.71 19.17 C 274.68 16.58 275.64 13.98 276.73 11.43 Z" />
<path fill="#6bb5df" d=" M 277.40 12.34 L 278.09 12.67 C 277.66 13.74 277.57 14.83 277.84 15.94 C 277.44 15.95 276.66 15.98 276.26 15.99 L 276.02 15.19 C 276.07 14.91 276.16 14.36 276.20 14.08 C 276.50 13.65 277.10 12.77 277.40 12.34 Z" />
<path fill="#fafae9" d=" M 278.09 12.67 L 278.92 12.53 L 279.24 13.23 C 279.10 13.88 278.81 15.20 278.67 15.85 L 277.84 15.94 C 277.57 14.83 277.66 13.74 278.09 12.67 Z" />
<path fill="#72009b" d=" M 278.92 12.53 L 279.65 12.52 L 279.86 13.28 L 279.24 13.23 L 278.92 12.53 Z" />
<path fill="#ffeebd" d=" M 299.59 12.19 L 300.08 12.26 L 300.04 13.08 C 300.08 13.89 300.16 15.50 300.20 16.31 L 299.89 16.84 C 298.00 16.41 298.40 13.27 299.59 12.19 Z" />
<path fill="#f3c66d" d=" M 309.72 11.44 L 310.40 12.34 C 310.10 12.78 309.50 13.65 309.20 14.09 L 308.83 14.60 L 309.02 15.19 L 309.26 15.99 L 308.96 16.50 C 308.80 17.03 308.48 18.10 308.31 18.64 L 306.71 19.16 C 307.68 16.58 308.64 13.99 309.72 11.44 Z" />
<path fill="#6bb5df" d=" M 310.40 12.34 L 311.09 12.67 C 310.66 13.74 310.57 14.83 310.84 15.94 C 310.44 15.95 309.66 15.98 309.26 15.99 L 309.02 15.19 C 309.07 14.92 309.15 14.36 309.20 14.09 C 309.50 13.65 310.10 12.78 310.40 12.34 Z" />
<path fill="#fafae9" d=" M 311.09 12.67 L 311.92 12.53 L 312.24 13.22 C 312.10 13.88 311.81 15.20 311.67 15.85 L 310.84 15.94 C 310.57 14.83 310.66 13.74 311.09 12.67 Z" />
<path fill="#72009b" d=" M 311.92 12.53 L 312.66 12.52 L 312.86 13.27 L 312.24 13.22 L 311.92 12.53 Z" />
<path fill="#f2c482" d=" M 337.84 12.25 L 338.24 12.34 C 337.83 13.67 337.82 15.01 338.20 16.36 L 337.88 17.03 C 336.05 16.47 336.42 13.19 337.84 12.25 Z" />
<path fill="#0056b2" d=" M 338.24 12.34 L 338.77 12.32 C 339.15 13.68 339.20 15.05 338.92 16.43 L 338.20 16.36 C 337.82 15.01 337.83 13.67 338.24 12.34 Z" />
<path fill="#d19a38" d=" M 342.03 11.56 L 342.59 11.58 C 342.99 13.28 343.07 15.04 342.90 16.77 C 342.41 17.11 341.43 17.78 340.94 18.11 C 341.51 15.97 341.81 13.76 342.03 11.56 Z" />
<path fill="#d49b00" d=" M 345.18 12.17 L 346.00 12.21 C 346.00 12.60 346.00 13.40 346.00 13.79 L 345.18 13.83 L 344.72 13.00 L 345.18 12.17 Z" />
<path fill="#0072ba" d=" M 346.00 12.21 L 346.82 12.17 L 347.29 13.00 L 346.82 13.83 L 346.00 13.79 C 346.00 13.40 346.00 12.60 346.00 12.21 Z" />
<path fill="#755d39" d=" M 366.26 13.12 C 366.43 12.79 366.79 12.11 366.96 11.77 L 367.77 12.02 L 367.84 12.75 L 366.98 13.26 L 366.26 13.12 Z" />
<path fill="#eec482" d=" M 377.87 12.34 L 378.27 12.34 C 377.82 13.85 377.82 15.44 377.77 16.99 L 376.89 16.84 L 376.53 16.27 C 376.33 14.72 376.78 13.41 377.87 12.34 Z" />
<path fill="#3474c5" d=" M 378.27 12.34 L 378.75 12.32 C 379.24 14.05 379.57 15.85 379.58 17.66 L 378.86 17.73 C 378.59 17.55 378.04 17.18 377.77 16.99 C 377.82 15.44 377.82 13.85 378.27 12.34 Z" />
<path fill="#d19a38" d=" M 382.03 11.56 L 382.59 11.58 C 383.01 13.32 383.30 15.21 382.66 16.94 C 382.17 17.21 381.19 17.75 380.70 18.02 C 381.73 16.02 381.78 13.74 382.03 11.56 Z" />
<path fill="#9b0072" d=" M 386.14 11.86 C 386.23 12.03 386.41 12.38 386.50 12.55 L 386.11 12.45 L 386.14 11.86 Z" />
<path fill="#d49b00" d=" M 390.18 12.17 L 391.00 12.21 C 391.00 12.60 391.00 13.40 391.00 13.79 L 390.18 13.83 L 389.72 13.00 L 390.18 12.17 Z" />
<path fill="#0072ba" d=" M 391.00 12.21 L 391.82 12.17 L 392.29 13.00 L 391.82 13.83 L 391.00 13.79 C 391.00 13.40 391.00 12.60 391.00 12.21 Z" />
<path fill="#d49b00" d=" M 417.18 12.17 L 418.00 12.21 C 418.00 12.60 418.00 13.40 418.00 13.79 L 417.18 13.83 L 416.72 13.00 L 417.18 12.17 Z" />
<path fill="#0072ba" d=" M 418.00 12.21 L 418.82 12.17 L 419.29 13.00 L 418.82 13.83 L 418.00 13.79 C 418.00 13.40 418.00 12.60 418.00 12.21 Z" />
<path fill="#ffeebd" d=" M 446.45 12.06 L 446.91 12.09 L 447.11 12.81 C 447.09 13.62 447.06 15.24 447.04 16.05 L 446.71 16.72 C 444.96 16.34 445.56 13.19 446.45 12.06 Z" />
<path fill="#9b0072" d=" M 457.13 11.87 C 457.23 12.04 457.41 12.39 457.51 12.57 L 457.11 12.47 L 457.13 11.87 Z" />
<path fill="#000000" d=" M 145.60 13.00 C 148.20 12.99 150.81 12.99 153.42 13.00 C 152.12 14.37 150.85 15.78 149.43 17.02 C 148.12 15.72 146.86 14.36 145.60 13.00 Z" />
<path fill="#e7e9eb" d=" M 164.83 12.77 C 166.72 14.25 168.47 15.90 170.16 17.61 C 169.35 17.72 167.71 17.94 166.90 18.05 C 165.80 16.46 165.06 14.69 164.83 12.77 Z" />
<path fill="#2b231a" d=" M 252.10 13.95 C 250.50 13.07 253.58 12.69 254.10 12.87 C 254.87 12.97 256.41 13.16 257.17 13.25 L 257.18 13.74 C 255.61 14.44 253.75 14.13 252.10 13.95 Z" />
<path fill="#0072ba" d=" M 257.17 13.25 C 257.18 13.37 257.18 13.62 257.18 13.74 L 257.17 13.25 Z" />
<path fill="#e1b264" d=" M 279.24 13.23 L 279.86 13.28 C 279.95 13.81 280.12 14.88 280.21 15.41 C 279.82 15.52 279.05 15.74 278.67 15.85 C 278.81 15.20 279.10 13.88 279.24 13.23 Z" />
<path fill="#82c3e9" d=" M 279.86 13.28 L 280.20 12.97 C 281.61 13.59 282.43 15.71 281.65 17.09 L 281.13 17.15 C 280.90 16.71 280.44 15.85 280.21 15.41 C 280.12 14.88 279.95 13.81 279.86 13.28 Z" />
<path fill="#720072" d=" M 287.56 13.39 L 288.15 13.43 L 288.07 14.01 L 287.50 13.96 L 287.56 13.39 Z" />
<path fill="#9b0000" d=" M 300.04 13.08 C 301.85 13.15 301.16 15.57 300.20 16.31 C 300.16 15.50 300.08 13.89 300.04 13.08 Z" />
<path fill="#e1b264" d=" M 312.24 13.22 L 312.86 13.27 C 312.95 13.81 313.12 14.88 313.21 15.41 C 312.82 15.52 312.06 15.74 311.67 15.85 C 311.81 15.20 312.10 13.88 312.24 13.22 Z" />
<path fill="#82c3e9" d=" M 312.86 13.27 L 313.20 12.96 C 314.61 13.58 315.41 15.70 314.65 17.08 L 314.13 17.14 C 313.90 16.71 313.44 15.85 313.21 15.41 C 313.12 14.88 312.95 13.81 312.86 13.27 Z" />
<path fill="#612a5d" d=" M 327.36 13.26 C 327.80 13.48 328.68 13.93 329.13 14.15 L 329.12 14.88 L 328.66 15.63 C 327.67 16.40 326.47 15.26 326.75 14.21 C 326.90 13.98 327.21 13.50 327.36 13.26 Z" />
<path fill="#9b0000" d=" M 333.94 13.18 L 334.54 13.00 C 334.43 13.27 334.20 13.80 334.08 14.06 L 333.94 13.18 Z" />
<path fill="#251717" d=" M 353.33 13.26 L 354.01 13.43 C 353.99 13.85 353.96 14.71 353.95 15.14 C 353.19 15.12 351.68 15.08 350.92 15.06 L 350.25 14.82 L 350.21 14.20 L 350.83 13.98 C 351.45 13.80 352.71 13.44 353.33 13.26 Z" />
<path fill="#f5ddb9" d=" M 364.21 15.07 C 362.79 14.21 362.94 13.70 364.65 13.52 C 364.54 13.91 364.32 14.68 364.21 15.07 Z" />
<path fill="#5e6153" d=" M 364.65 13.52 C 365.05 13.42 365.85 13.22 366.26 13.12 L 366.40 13.67 L 366.47 14.34 L 366.44 14.98 C 366.02 15.89 365.38 16.14 364.49 15.74 L 364.21 15.07 C 364.32 14.68 364.54 13.91 364.65 13.52 Z" />
<path fill="#009bd4" d=" M 366.26 13.12 L 366.98 13.26 C 366.83 13.36 366.55 13.57 366.40 13.67 L 366.26 13.12 Z" />
<path fill="#ca8b00" d=" M 386.11 12.45 L 386.50 12.55 C 387.04 14.53 386.91 16.62 386.82 18.65 L 386.32 18.62 C 385.72 16.65 385.82 14.47 386.11 12.45 Z" />
<path fill="#720072" d=" M 433.56 13.39 L 434.15 13.43 L 434.07 14.00 L 433.50 13.96 L 433.56 13.39 Z" />
<path fill="#720080" d=" M 440.74 16.10 C 439.17 15.60 440.05 13.65 440.86 12.84 L 441.19 13.72 L 441.19 15.25 L 440.74 16.10 Z" />
<path fill="#9b004c" d=" M 447.11 12.81 C 448.07 13.72 448.31 14.83 447.82 16.12 L 447.04 16.05 C 447.06 15.24 447.09 13.62 447.11 12.81 Z" />
<path fill="#ca8b00" d=" M 457.11 12.47 L 457.51 12.57 C 458.04 14.55 457.91 16.64 457.82 18.66 L 457.32 18.63 C 456.71 16.67 456.82 14.48 457.11 12.47 Z" />
<path fill="#000000" d=" M 65.31 14.11 L 65.98 13.82 C 66.45 13.92 67.39 14.11 67.86 14.20 L 67.86 14.79 C 67.39 14.89 66.45 15.08 65.98 15.18 L 65.31 14.89 L 65.31 14.11 Z" />
<path fill="#00009b" d=" M 67.86 14.20 L 68.48 14.19 C 68.32 14.34 68.02 14.64 67.86 14.79 L 67.86 14.20 Z" />
<path fill="#74b9df" d=" M 75.08 13.73 L 75.64 13.83 C 76.79 15.31 74.58 17.69 73.01 16.88 C 73.68 15.82 74.37 14.77 75.08 13.73 Z" />
<path fill="#000000" d=" M 264.29 14.09 L 264.98 13.82 C 265.45 13.92 266.40 14.13 266.87 14.23 L 266.84 14.81 C 266.35 14.90 265.37 15.07 264.88 15.15 L 264.26 14.82 L 264.29 14.09 Z" />
<path fill="#00009b" d=" M 266.87 14.23 L 267.48 14.24 C 267.32 14.38 267.00 14.67 266.84 14.81 L 266.87 14.23 Z" />
<path fill="#9b0000" d=" M 270.38 14.00 L 270.99 13.96 C 270.99 14.71 270.98 16.21 270.98 16.96 L 270.38 16.93 C 270.38 16.20 270.38 14.73 270.38 14.00 Z" />
<path fill="#720072" d=" M 275.83 14.59 L 276.20 14.08 C 276.16 14.36 276.07 14.91 276.02 15.19 L 275.83 14.59 Z" />
<path fill="#f3c66d" d=" M 287.50 13.96 L 288.07 14.01 C 288.37 14.35 288.95 15.04 289.25 15.38 L 289.41 16.06 C 289.34 16.40 289.19 17.09 289.12 17.43 C 287.84 17.48 286.69 15.04 287.50 13.96 Z" />
<path fill="#9b0000" d=" M 303.38 14.03 L 303.98 14.00 C 303.98 14.75 303.98 16.25 303.98 17.00 L 303.38 16.97 C 303.38 16.23 303.38 14.77 303.38 14.03 Z" />
<path fill="#720072" d=" M 308.83 14.60 L 309.20 14.09 C 309.15 14.36 309.07 14.92 309.02 15.19 L 308.83 14.60 Z" />
<path fill="#74b9df" d=" M 321.09 13.72 L 321.64 13.83 C 322.78 15.31 320.57 17.69 319.00 16.88 C 319.68 15.82 320.37 14.76 321.09 13.72 Z" />
<path fill="#00009b" d=" M 329.13 14.15 C 329.28 14.33 329.58 14.68 329.73 14.85 L 329.12 14.88 L 329.13 14.15 Z" />
<path fill="#554734" d=" M 334.21 14.84 C 331.64 16.94 331.26 12.16 334.08 14.06 L 334.21 14.84 Z" />
<path fill="#74b9df" d=" M 361.09 13.72 L 361.64 13.82 C 362.80 15.29 360.59 17.68 359.02 16.88 C 359.69 15.81 360.37 14.76 361.09 13.72 Z" />
<path fill="#3b2f56" d=" M 402.08 13.87 C 403.42 13.61 404.34 14.10 404.83 15.35 L 404.54 15.80 L 403.96 15.94 C 403.50 15.59 402.58 14.88 402.12 14.52 L 402.08 13.87 Z" />
<path fill="#f3c66d" d=" M 433.50 13.96 L 434.07 14.00 C 434.37 14.35 434.95 15.03 435.25 15.37 L 435.41 16.04 C 435.34 16.39 435.19 17.07 435.12 17.42 C 433.83 17.47 432.68 15.03 433.50 13.96 Z" />
<path fill="#9bd4ff" d=" M 65.31 14.89 L 65.98 15.18 C 65.93 15.84 65.83 17.15 65.78 17.81 L 65.12 17.88 C 65.17 17.13 65.26 15.64 65.31 14.89 Z" />
<path fill="#72baea" d=" M 264.26 14.82 L 264.88 15.15 C 265.69 16.01 265.63 18.91 264.05 18.56 C 263.94 17.31 264.01 16.06 264.26 14.82 Z" />
<path fill="#130013" d=" M 280.21 15.41 C 280.44 15.85 280.90 16.71 281.13 17.15 C 279.46 17.26 277.39 17.48 275.96 16.50 L 276.26 15.99 C 276.66 15.98 277.44 15.95 277.84 15.94 L 278.67 15.85 C 279.05 15.74 279.82 15.52 280.21 15.41 Z" />
<path fill="#72baea" d=" M 289.25 15.38 L 289.78 15.27 L 289.99 15.93 L 289.41 16.06 L 289.25 15.38 Z" />
<path fill="#130013" d=" M 313.21 15.41 C 313.44 15.85 313.90 16.71 314.13 17.14 C 312.46 17.27 310.40 17.47 308.96 16.50 L 309.26 15.99 C 309.66 15.98 310.44 15.95 310.84 15.94 L 311.67 15.85 C 312.06 15.74 312.82 15.52 313.21 15.41 Z" />
<path fill="#f5d296" d=" M 334.21 14.84 L 334.93 15.04 C 334.74 15.52 334.38 16.49 334.20 16.97 C 334.20 16.43 334.20 15.37 334.21 14.84 Z" />
<path fill="#462582" d=" M 334.93 15.04 L 335.41 14.83 C 336.83 15.86 335.76 19.39 333.91 18.67 L 333.84 17.93 L 334.20 16.97 C 334.38 16.49 334.74 15.52 334.93 15.04 Z" />
<path fill="#72baea" d=" M 350.25 14.82 L 350.92 15.06 C 350.89 15.75 350.84 17.12 350.81 17.81 L 350.12 17.90 C 350.16 17.13 350.22 15.59 350.25 14.82 Z" />
<path fill="#fff5e4" d=" M 350.92 15.06 C 351.68 15.08 353.19 15.12 353.95 15.14 L 353.98 15.82 L 354.00 16.48 L 353.92 18.17 C 353.14 18.08 351.59 17.90 350.81 17.81 C 350.84 17.12 350.89 15.75 350.92 15.06 Z" />
<path fill="#000072" d=" M 353.95 15.14 L 354.51 15.18 L 354.53 15.77 L 353.98 15.82 L 353.95 15.14 Z" />
<path fill="#ab3900" d=" M 370.27 15.30 L 371.13 15.44 L 371.37 16.22 L 371.09 16.77 C 370.76 16.58 370.10 16.20 369.77 16.01 L 370.27 15.30 Z" />
<path fill="#7798d0" d=" M 404.83 15.35 C 407.12 15.79 405.05 20.02 403.20 18.77 L 403.16 18.19 C 403.38 17.78 403.80 16.96 404.01 16.55 C 404.14 16.36 404.41 15.99 404.54 15.80 L 404.83 15.35 Z" />
<path fill="#72baea" d=" M 435.25 15.37 L 435.78 15.26 L 435.99 15.92 L 435.41 16.04 L 435.25 15.37 Z" />
<path fill="#abdfff" d=" M 441.19 15.25 L 441.90 15.46 C 441.83 15.87 441.70 16.69 441.63 17.11 L 441.01 17.05 L 440.74 16.10 L 441.19 15.25 Z" />
<path fill="#2b231a" d=" M 252.11 16.95 C 250.50 16.08 253.58 15.69 254.11 15.87 C 254.88 15.96 256.41 16.15 257.17 16.25 L 257.20 16.73 C 255.63 17.44 253.77 17.12 252.11 16.95 Z" />
<path fill="#0072ba" d=" M 257.17 16.25 C 257.18 16.37 257.19 16.61 257.20 16.73 L 257.17 16.25 Z" />
<path fill="#4b1d27" d=" M 289.41 16.06 L 289.99 15.93 C 290.24 16.16 290.74 16.61 290.99 16.84 C 290.96 17.27 290.89 18.13 290.86 18.56 C 290.42 18.28 289.56 17.72 289.12 17.43 C 289.19 17.09 289.34 16.40 289.41 16.06 Z" />
<path fill="#9b0000" d=" M 325.72 16.29 C 325.97 16.73 325.97 16.73 325.72 16.29 Z" />
<path fill="#4e004e" d=" M 338.20 16.36 L 338.92 16.43 L 339.43 17.27 L 339.34 17.90 C 338.97 17.68 338.24 17.25 337.88 17.03 L 338.20 16.36 Z" />
<path fill="#9b0000" d=" M 353.98 15.82 L 354.53 15.77 L 354.54 16.31 L 354.00 16.48 L 353.98 15.82 Z" />
<path fill="#747c74" d=" M 367.14 17.42 C 365.94 15.44 370.21 15.45 368.79 17.45 C 368.37 17.44 367.55 17.43 367.14 17.42 Z" />
<path fill="#00131f" d=" M 371.37 16.22 C 372.04 16.13 373.37 15.96 374.04 15.87 L 375.09 15.82 L 375.76 15.90 L 376.53 16.27 L 376.89 16.84 L 376.15 17.13 L 375.21 17.16 L 374.23 17.14 C 373.44 17.05 371.87 16.86 371.09 16.77 L 371.37 16.22 Z" />
<path fill="#ba7200" d=" M 403.96 15.94 L 404.54 15.80 C 404.41 15.99 404.14 16.36 404.01 16.55 L 403.96 15.94 Z" />
<path fill="#4b1d27" d=" M 435.41 16.04 L 435.99 15.92 C 436.24 16.15 436.74 16.61 436.99 16.84 C 436.95 17.28 436.89 18.14 436.85 18.57 C 436.42 18.28 435.55 17.70 435.12 17.42 C 435.19 17.07 435.34 16.39 435.41 16.04 Z" />
<path fill="#395dc3" d=" M 447.04 16.05 L 447.82 16.12 L 448.10 16.91 L 447.54 17.77 C 447.33 17.51 446.92 16.98 446.71 16.72 L 447.04 16.05 Z" />
<path fill="#daa034" d=" M 270.38 16.93 L 270.98 16.96 C 271.00 17.71 271.04 19.20 271.06 19.95 C 269.70 19.30 269.48 18.29 270.38 16.93 Z" />
<path fill="#004ea3" d=" M 275.32 18.64 C 275.48 18.10 275.80 17.03 275.96 16.50 C 275.99 16.94 276.07 17.84 276.10 18.29 L 275.32 18.64 Z" />
<path fill="#00009b" d=" M 281.13 17.15 L 281.65 17.09 L 281.75 17.72 L 281.18 17.78 L 281.13 17.15 Z" />
<path fill="#daa034" d=" M 303.38 16.97 L 303.98 17.00 C 304.00 17.75 304.04 19.24 304.06 19.98 C 302.70 19.32 302.47 18.32 303.38 16.97 Z" />
<path fill="#004ea3" d=" M 308.31 18.64 C 308.48 18.10 308.80 17.03 308.96 16.50 C 309.00 16.95 309.07 17.85 309.10 18.30 L 308.31 18.64 Z" />
<path fill="#00009b" d=" M 314.13 17.14 L 314.65 17.08 L 314.75 17.71 L 314.18 17.78 L 314.13 17.14 Z" />
<path fill="#9bd4ff" d=" M 339.43 17.27 C 339.58 17.38 339.86 17.59 340.00 17.70 L 339.34 17.90 L 339.43 17.27 Z" />
<path fill="#3e4eaf" d=" M 340.94 18.11 C 341.43 17.78 342.41 17.11 342.90 16.77 C 343.25 18.31 342.63 18.99 341.06 18.82 L 340.94 18.11 Z" />
<path fill="#daa24c" d=" M 344.95 19.98 C 344.09 18.48 344.49 17.60 346.13 17.32 C 346.23 18.43 345.84 19.32 344.95 19.98 Z" />
<path fill="#52aadb" d=" M 346.13 17.32 C 349.23 17.07 345.68 23.22 344.95 19.98 C 345.84 19.32 346.23 18.43 346.13 17.32 Z" />
<path fill="#ba7200" d=" M 374.23 17.14 L 375.21 17.16 C 375.18 17.54 375.11 18.30 375.08 18.67 L 374.25 18.73 L 373.78 17.94 L 374.23 17.14 Z" />
<path fill="#72baea" d=" M 375.21 17.16 L 376.15 17.13 L 376.47 17.98 C 376.12 18.15 375.43 18.50 375.08 18.67 C 375.11 18.30 375.18 17.54 375.21 17.16 Z" />
<path fill="#9b0000" d=" M 377.77 16.99 C 378.04 17.18 378.59 17.55 378.86 17.73 C 378.59 17.55 378.04 17.18 377.77 16.99 Z" />
<path fill="#3e4eaf" d=" M 380.70 18.02 C 381.19 17.75 382.17 17.21 382.66 16.94 C 383.12 18.46 382.52 19.05 380.87 18.72 L 380.70 18.02 Z" />
<path fill="#daa24c" d=" M 389.95 19.95 C 389.10 18.46 389.50 17.58 391.14 17.31 C 391.24 18.43 390.84 19.31 389.95 19.95 Z" />
<path fill="#52aadb" d=" M 391.14 17.31 C 394.25 17.12 390.63 23.23 389.95 19.95 C 390.84 19.31 391.24 18.43 391.14 17.31 Z" />
<path fill="#6b6146" d=" M 399.38 17.45 C 400.62 17.14 402.09 17.52 403.16 18.19 L 403.20 18.77 C 402.08 19.66 399.29 19.04 399.38 17.45 Z" />
<path fill="#daa24c" d=" M 416.95 19.98 C 416.09 18.49 416.48 17.60 418.12 17.32 C 418.23 18.43 417.84 19.32 416.95 19.98 Z" />
<path fill="#52aadb" d=" M 418.12 17.32 C 421.23 17.03 417.72 23.21 416.95 19.98 C 417.84 19.32 418.23 18.43 418.12 17.32 Z" />
<path fill="#2b2340" d=" M 441.01 17.05 L 441.63 17.11 C 442.58 18.17 446.14 17.20 445.70 19.01 C 444.13 19.43 442.70 19.20 441.41 18.34 C 441.31 18.02 441.11 17.38 441.01 17.05 Z" />
<path fill="#000000" d=" M 65.12 17.88 L 65.78 17.81 C 66.57 17.93 68.14 18.18 68.93 18.30 L 68.96 18.77 C 67.58 19.42 66.29 19.30 65.08 18.40 L 65.12 17.88 Z" />
<path fill="#72baea" d=" M 68.93 18.30 C 68.94 18.42 68.95 18.65 68.96 18.77 L 68.93 18.30 Z" />
<path fill="#000000" d=" M 70.83 18.21 C 71.23 18.09 72.02 17.85 72.42 17.73 C 73.29 17.88 75.03 18.16 75.90 18.30 L 76.02 18.76 C 74.47 19.10 71.92 19.50 70.83 18.21 Z" />
<path fill="#009bd4" d=" M 75.90 18.30 C 75.93 18.42 75.99 18.65 76.02 18.76 L 75.90 18.30 Z" />
<path fill="#aac4e6" d=" M 229.71 17.87 C 231.89 17.90 234.07 17.97 236.26 18.05 C 238.50 18.12 240.75 18.17 243.00 18.22 C 242.98 20.11 242.95 22.01 242.93 23.91 C 218.63 23.82 194.32 23.93 170.02 23.86 C 166.41 24.07 163.32 21.81 161.48 18.86 C 172.98 18.51 184.48 18.89 195.97 18.76 C 205.23 18.89 214.50 18.45 223.75 19.08 C 225.92 19.81 227.99 19.34 229.71 17.87 Z" />
<path fill="#9b0000" d=" M 281.18 17.78 L 281.75 17.72 L 281.83 18.34 C 281.67 18.20 281.34 17.92 281.18 17.78 Z" />
<path fill="#00001d" d=" M 295.36 18.06 L 295.84 17.84 C 296.62 17.67 299.51 17.69 298.67 19.09 C 297.86 18.98 296.25 18.75 295.44 18.64 L 295.36 18.06 Z" />
<path fill="#9b0000" d=" M 314.18 17.78 L 314.75 17.71 L 314.83 18.33 C 314.67 18.19 314.34 17.92 314.18 17.78 Z" />
<path fill="#000000" d=" M 316.83 18.21 C 317.22 18.09 318.01 17.85 318.40 17.73 C 319.28 17.87 321.02 18.16 321.89 18.30 L 322.02 18.75 C 320.47 19.11 317.92 19.49 316.83 18.21 Z" />
<path fill="#009bd4" d=" M 321.89 18.30 C 321.92 18.41 321.99 18.64 322.02 18.75 L 321.89 18.30 Z" />
<path fill="#ba7200" d=" M 331.57 18.13 L 332.16 18.13 L 332.18 18.78 C 332.03 18.62 331.72 18.29 331.57 18.13 Z" />
<path fill="#000000" d=" M 332.16 18.13 C 332.58 18.08 333.42 17.98 333.84 17.93 L 333.91 18.67 C 333.47 18.70 332.61 18.75 332.18 18.78 L 332.16 18.13 Z" />
<path fill="#390000" d=" M 339.34 17.90 L 340.00 17.70 L 340.94 18.11 L 341.06 18.82 C 340.64 18.80 339.80 18.75 339.38 18.73 L 339.34 17.90 Z" />
<path fill="#000000" d=" M 350.12 17.90 L 350.81 17.81 C 351.59 17.90 353.14 18.08 353.92 18.17 L 353.90 18.73 C 352.54 19.45 351.27 19.35 350.08 18.42 L 350.12 17.90 Z" />
<path fill="#000000" d=" M 356.83 18.20 C 357.23 18.08 358.03 17.85 358.43 17.73 C 359.30 17.88 361.04 18.17 361.91 18.31 L 362.01 18.77 C 360.46 19.09 357.90 19.51 356.83 18.20 Z" />
<path fill="#009bd4" d=" M 361.91 18.31 C 361.93 18.42 361.99 18.65 362.01 18.77 L 361.91 18.31 Z" />
<path fill="#390000" d=" M 378.86 17.73 L 379.58 17.66 L 380.70 18.02 L 380.87 18.72 L 380.04 19.04 C 379.74 18.71 379.15 18.06 378.86 17.73 Z" />
<path fill="#9b0072" d=" M 386.32 18.62 L 386.82 18.65 L 386.78 19.31 L 386.19 19.28 L 386.32 18.62 Z" />
<path fill="#9b0072" d=" M 457.32 18.63 L 457.82 18.66 L 457.78 19.32 L 457.19 19.29 L 457.32 18.63 Z" />
<path fill="#eab84e" d=" M 385.31 19.26 L 386.19 19.28 L 386.34 19.99 L 386.08 20.70 L 385.37 20.80 L 384.87 20.06 L 385.31 19.26 Z" />
<path fill="#00009b" d=" M 386.19 19.28 L 386.78 19.31 L 386.88 20.01 L 386.34 19.99 L 386.19 19.28 Z" />
<path fill="#eab84e" d=" M 456.31 19.27 L 457.19 19.29 L 457.34 20.00 L 457.08 20.70 L 456.36 20.81 L 455.87 20.07 L 456.31 19.27 Z" />
<path fill="#00009b" d=" M 457.19 19.29 L 457.78 19.32 L 457.88 20.02 L 457.34 20.00 L 457.19 19.29 Z" />
<path fill="#9b0072" d=" M 271.06 19.95 C 271.16 20.08 271.34 20.33 271.44 20.45 L 271.04 20.50 L 271.06 19.95 Z" />
<path fill="#9b0072" d=" M 304.06 19.98 C 304.16 20.10 304.34 20.35 304.43 20.47 L 304.04 20.52 L 304.06 19.98 Z" />
<path fill="#009bd4" d=" M 386.34 19.99 L 386.88 20.01 C 386.68 20.18 386.28 20.52 386.08 20.70 L 386.34 19.99 Z" />
<path fill="#009bd4" d=" M 457.34 20.00 L 457.88 20.02 C 457.68 20.19 457.28 20.53 457.08 20.70 L 457.34 20.00 Z" />
<path fill="#eaba72" d=" M 271.04 20.50 L 271.44 20.45 L 271.71 20.86 C 271.54 20.77 271.21 20.59 271.04 20.50 Z" />
<path fill="#eaba72" d=" M 304.04 20.52 L 304.43 20.47 L 304.71 20.87 C 304.54 20.79 304.21 20.61 304.04 20.52 Z" />
<path fill="#9b0072" d=" M 385.37 20.80 L 386.08 20.70 C 385.92 20.87 385.61 21.22 385.45 21.39 L 385.37 20.80 Z" />
<path fill="#9b0072" d=" M 456.36 20.81 L 457.08 20.70 C 456.92 20.88 456.61 21.23 456.45 21.40 L 456.36 20.81 Z" />
<path fill="#d7e6f7" d=" M 1.00 25.00 C 157.33 24.99 313.67 25.02 470.00 24.99 L 470.00 28.00 C 313.67 28.00 157.33 28.00 1.00 28.00 C 1.00 27.25 1.00 25.75 1.00 25.00 Z" />
<path fill="#a0b8cf" d=" M 0.00 29.14 C 8.65 29.46 17.32 29.47 25.97 29.07 C 26.01 32.67 26.03 36.28 26.04 39.88 C 26.04 42.55 26.06 45.22 26.08 47.89 C 47.03 47.83 67.99 47.91 88.94 47.86 C 88.96 45.21 88.97 42.56 88.97 39.91 C 88.96 36.27 88.99 32.64 89.01 29.00 L 90.00 29.00 C 90.00 31.39 89.99 33.78 89.99 36.17 C 89.99 40.05 90.07 43.94 90.17 47.83 C 111.06 47.80 131.95 47.79 152.84 47.83 C 152.93 43.94 153.01 40.05 153.01 36.16 C 153.00 33.77 153.00 31.39 153.00 29.00 L 154.00 29.00 C 154.00 31.73 154.00 34.47 154.00 37.20 C 153.99 40.75 154.05 44.29 154.11 47.83 C 175.04 47.86 195.98 47.81 216.92 47.86 C 216.93 45.18 216.95 42.51 216.95 39.84 C 216.95 36.22 216.98 32.61 217.01 29.00 L 218.00 29.00 C 218.00 31.39 217.99 33.77 217.99 36.16 C 217.99 40.05 218.06 43.94 218.14 47.83 C 239.16 47.81 260.18 47.77 281.19 47.85 C 281.22 48.15 281.27 48.75 281.30 49.05 C 282.03 55.02 281.87 61.04 281.50 67.02 L 280.50 66.77 C 281.81 60.93 281.21 54.92 281.01 49.00 C 260.00 49.00 239.00 48.99 218.00 49.01 L 217.03 49.01 C 196.01 49.00 174.99 49.00 153.96 49.01 L 153.00 49.01 C 131.99 49.00 110.98 49.00 89.97 49.01 L 89.01 49.01 C 68.01 49.00 47.01 48.99 26.01 49.01 C 26.00 55.34 26.00 61.67 26.00 68.00 L 25.00 68.00 C 25.00 61.67 25.00 55.35 24.98 49.02 C 16.65 48.99 8.33 49.02 0.00 49.00 L 0.00 29.14 Z" />
<path fill="#eef3f7" d=" M 25.97 29.07 C 46.98 28.91 68.00 29.05 89.01 29.00 C 88.99 32.64 88.96 36.27 88.97 39.91 C 79.89 40.01 70.79 39.42 61.73 40.15 C 61.59 40.64 61.30 41.64 61.16 42.14 L 60.35 42.24 C 59.96 40.61 59.53 39.00 59.10 37.39 C 59.03 37.08 58.87 36.47 58.80 36.16 C 58.53 35.82 58.00 35.15 57.73 34.81 L 56.97 35.11 C 55.66 36.53 54.89 38.32 54.20 40.10 C 44.82 39.66 35.42 39.89 26.04 39.88 C 26.03 36.28 26.01 32.67 25.97 29.07 Z" />
<path fill="#f2f6f9" d=" M 90.00 29.00 C 111.00 29.00 132.00 29.00 153.00 29.00 C 153.00 31.39 153.00 33.77 153.01 36.16 C 143.32 36.27 133.61 36.62 123.94 35.92 C 123.19 34.76 121.73 34.44 120.52 35.03 L 119.00 35.38 C 109.44 37.15 99.65 35.97 89.99 36.17 C 89.99 33.78 90.00 31.39 90.00 29.00 Z" />
<path fill="#f0f4f8" d=" M 154.00 29.00 C 175.00 29.00 196.01 29.00 217.01 29.00 C 216.98 32.61 216.95 36.22 216.95 39.84 C 205.82 39.71 194.69 39.64 183.56 39.91 C 184.07 38.69 184.67 37.51 185.36 36.38 C 186.92 35.99 188.54 36.54 190.11 36.66 C 189.78 36.25 189.12 35.42 188.80 35.00 C 187.61 35.00 186.42 35.00 185.24 35.00 C 184.34 35.77 183.43 36.54 182.53 37.31 C 173.02 37.20 163.51 37.40 154.00 37.20 C 154.00 34.47 154.00 31.73 154.00 29.00 Z" />
<path fill="#f2f6f9" d=" M 218.00 29.00 C 239.00 29.00 260.00 29.00 281.00 29.00 C 281.00 31.38 281.00 33.77 281.00 36.15 C 271.70 36.46 262.39 36.03 253.10 36.52 C 252.49 36.09 251.27 35.21 250.66 34.78 C 249.10 34.93 247.54 35.08 246.00 35.32 C 236.77 37.15 227.33 36.04 217.99 36.16 C 217.99 33.77 218.00 31.39 218.00 29.00 Z" />
<path fill="#f29536" d=" M 281.00 29.00 L 282.00 29.00 C 282.00 31.42 281.99 33.85 281.99 36.27 C 281.98 40.12 282.03 43.96 282.11 47.81 C 303.03 47.80 323.95 47.79 344.87 47.83 C 344.91 45.54 344.95 43.25 344.98 40.96 C 344.99 39.29 344.99 37.62 344.99 35.96 C 344.99 33.64 344.99 31.32 345.00 29.00 L 346.00 29.00 C 345.99 31.39 345.99 33.77 346.00 36.16 C 346.01 40.06 346.09 43.96 345.81 47.86 C 345.78 48.16 345.73 48.76 345.71 49.06 C 324.24 48.96 302.77 48.97 281.30 49.05 C 281.27 48.75 281.22 48.15 281.19 47.85 C 280.91 43.96 280.99 40.05 281.00 36.15 C 281.00 33.77 281.00 31.38 281.00 29.00 Z" />
<path fill="#f7d594" d=" M 282.00 29.00 C 303.00 29.00 324.00 29.00 345.00 29.00 C 344.99 31.32 344.99 33.64 344.99 35.96 C 335.95 35.70 326.89 36.13 317.85 35.68 C 315.70 35.23 313.49 34.80 311.30 35.24 C 301.69 37.48 291.75 36.11 281.99 36.27 C 281.99 33.85 282.00 31.42 282.00 29.00 Z" />
<path fill="#f2f6f9" d=" M 346.00 29.00 C 367.00 29.00 388.00 29.00 409.00 29.00 C 409.00 31.40 409.00 33.80 409.00 36.20 C 399.62 36.24 390.21 36.65 380.84 35.82 C 379.46 35.01 377.49 33.95 376.09 35.30 C 375.83 35.49 375.30 35.87 375.04 36.06 C 365.37 36.40 355.68 36.29 346.00 36.16 C 345.99 33.77 345.99 31.39 346.00 29.00 Z" />
<path fill="#a4bad1" d=" M 409.00 29.00 L 409.99 29.00 C 410.01 32.64 410.04 36.28 410.05 39.93 C 410.05 42.56 410.07 45.19 410.09 47.83 C 430.06 47.87 450.03 47.78 470.00 47.87 L 470.00 49.04 C 449.99 48.96 429.99 49.01 409.98 49.01 L 409.02 49.01 C 388.01 49.00 367.01 48.99 346.00 49.02 C 345.83 54.92 345.22 60.92 346.46 66.76 L 345.46 67.02 C 345.11 61.03 345.00 55.02 345.71 49.06 C 345.73 48.76 345.78 48.16 345.81 47.86 C 366.82 47.69 387.82 47.79 408.83 47.81 C 408.92 43.94 409.01 40.07 409.00 36.20 C 409.00 33.80 409.00 31.40 409.00 29.00 Z" />
<path fill="#eef3f7" d=" M 409.99 29.00 C 429.99 29.00 450.00 29.00 470.00 29.00 L 470.00 40.05 C 461.55 39.53 453.07 40.30 444.64 39.37 L 444.07 39.32 C 443.39 39.23 442.03 39.06 441.35 38.98 C 441.79 39.32 442.68 40.02 443.13 40.36 C 443.12 41.02 443.11 42.35 443.10 43.01 C 442.03 42.71 440.97 42.38 439.93 42.02 C 440.22 40.23 440.07 38.33 439.21 36.71 C 441.30 36.40 443.42 36.38 445.53 36.57 C 445.12 36.18 444.31 35.39 443.91 35.00 C 442.64 34.99 441.38 34.98 440.13 34.97 C 439.78 35.42 439.10 36.31 438.76 36.76 C 438.47 37.14 437.90 37.90 437.62 38.28 C 437.35 38.64 436.83 39.35 436.56 39.71 C 427.72 40.02 418.88 39.72 410.05 39.93 C 410.04 36.28 410.01 32.64 409.99 29.00 Z" />
<path fill="#d5e4f2" d=" M 1.03 29.83 C 8.92 29.82 16.86 29.17 24.70 30.27 C 17.21 31.67 9.56 30.76 1.99 31.02 C 2.11 36.57 2.26 42.16 1.37 47.67 C 0.74 41.74 1.07 35.78 1.03 29.83 Z" />
<path fill="#a9c4e9" d=" M 24.70 30.27 L 25.01 30.22 C 25.31 36.17 25.23 42.12 25.10 48.07 C 17.17 48.33 9.24 48.29 1.30 48.15 L 1.37 47.67 C 2.26 42.16 2.11 36.57 1.99 31.02 C 9.56 30.76 17.21 31.67 24.70 30.27 Z" />
<path fill="#eff1f4" d=" M 15.60 39.95 C 17.24 37.95 19.01 36.05 20.89 34.27 C 20.95 36.22 21.00 38.17 21.03 40.12 C 19.22 40.07 17.41 40.01 15.60 39.95 Z" />
<path fill="#ac9b85" d=" M 54.20 40.10 C 54.89 38.32 55.66 36.53 56.97 35.11 C 57.43 35.38 58.34 35.90 58.80 36.16 C 58.87 36.47 59.03 37.08 59.10 37.39 C 59.11 38.30 59.14 40.13 59.15 41.05 L 57.65 40.92 C 58.59 40.00 58.54 37.87 57.20 37.38 L 56.46 37.11 C 56.29 37.81 55.96 39.20 55.80 39.90 L 55.93 40.54 C 55.62 40.88 55.00 41.55 54.69 41.89 C 54.55 42.40 54.29 43.41 54.15 43.91 L 52.75 44.48 C 53.22 43.01 53.68 41.55 54.20 40.10 Z" />
<path fill="#5c869a" d=" M 56.97 35.11 L 57.73 34.81 C 58.00 35.15 58.53 35.82 58.80 36.16 C 58.34 35.90 57.43 35.38 56.97 35.11 Z" />
<path fill="#dde4ee" d=" M 89.99 36.17 C 99.65 35.97 109.44 37.15 119.00 35.38 C 118.97 38.24 118.95 41.10 118.92 43.97 L 120.30 44.00 C 121.74 44.04 123.19 44.08 124.63 44.12 C 124.87 42.25 124.76 40.37 124.08 38.59 C 124.04 37.92 123.97 36.59 123.94 35.92 C 133.61 36.62 143.32 36.27 153.01 36.16 C 153.01 40.05 152.93 43.94 152.84 47.83 C 131.95 47.79 111.06 47.80 90.17 47.83 C 90.07 43.94 89.99 40.05 89.99 36.17 Z" />
<path fill="#a8753d" d=" M 119.00 35.38 L 120.52 35.03 L 120.36 35.79 C 120.32 36.53 120.25 38.00 120.22 38.73 L 120.01 40.19 C 120.01 40.85 120.02 42.16 120.02 42.82 L 120.30 44.00 L 118.92 43.97 C 118.95 41.10 118.97 38.24 119.00 35.38 Z" />
<path fill="#274156" d=" M 120.52 35.03 C 121.73 34.44 123.19 34.76 123.94 35.92 L 123.22 36.24 C 122.69 36.23 121.63 36.21 121.10 36.20 L 120.36 35.79 L 120.52 35.03 Z" />
<path fill="#6b7e92" d=" M 185.24 35.00 C 186.42 35.00 187.61 35.00 188.80 35.00 C 189.12 35.42 189.78 36.25 190.11 36.66 C 188.54 36.54 186.92 35.99 185.36 36.38 C 184.67 37.51 184.07 38.69 183.56 39.91 C 184.21 40.99 184.98 41.97 185.87 42.86 C 187.28 42.78 188.68 42.54 190.08 42.33 C 189.77 42.74 189.13 43.55 188.82 43.96 C 187.33 44.05 185.84 44.14 184.35 44.23 C 183.33 42.05 182.77 39.70 182.53 37.31 C 183.43 36.54 184.34 35.77 185.24 35.00 Z" />
<path fill="#dde4ee" d=" M 217.99 36.16 C 227.33 36.04 236.77 37.15 246.00 35.32 C 245.99 38.21 245.96 41.09 245.93 43.98 C 247.72 44.04 249.52 44.10 251.31 44.18 C 253.20 42.03 253.41 39.24 253.10 36.52 C 262.39 36.03 271.70 36.46 281.00 36.15 C 280.99 40.05 280.91 43.96 281.19 47.85 C 260.18 47.77 239.16 47.81 218.14 47.83 C 218.06 43.94 217.99 40.05 217.99 36.16 Z" />
<path fill="#747c7b" d=" M 246.00 35.32 C 247.54 35.08 249.10 34.93 250.66 34.78 C 251.27 35.21 252.49 36.09 253.10 36.52 C 253.41 39.24 253.20 42.03 251.31 44.18 C 249.52 44.10 247.72 44.04 245.93 43.98 C 245.96 41.09 245.99 38.21 246.00 35.32 Z" />
<path fill="#f3c66d" d=" M 281.99 36.27 C 291.75 36.11 301.69 37.48 311.30 35.24 C 311.31 38.21 311.31 41.17 311.31 44.13 C 313.40 44.06 315.49 43.98 317.59 43.86 C 316.04 43.39 314.49 42.95 312.95 42.46 C 312.84 42.14 312.60 41.48 312.49 41.15 C 323.31 40.79 334.15 41.09 344.98 40.96 C 344.95 43.25 344.91 45.54 344.87 47.83 C 323.95 47.79 303.03 47.80 282.11 47.81 C 282.03 43.96 281.98 40.12 281.99 36.27 Z" />
<path fill="#6f6a4f" d=" M 311.30 35.24 C 313.49 34.80 315.70 35.23 317.85 35.68 C 316.07 35.85 314.29 36.02 312.51 36.17 C 312.52 36.88 312.52 38.28 312.53 38.98 C 313.46 38.99 315.32 39.00 316.25 39.00 L 316.15 39.99 C 315.14 40.03 313.14 40.09 312.14 40.13 L 312.49 41.15 C 312.60 41.48 312.84 42.14 312.95 42.46 C 314.49 42.95 316.04 43.39 317.59 43.86 C 315.49 43.98 313.40 44.06 311.31 44.13 C 311.31 41.17 311.31 38.21 311.30 35.24 Z" />
<path fill="#be953d" d=" M 375.04 36.06 C 375.30 35.87 375.83 35.49 376.09 35.30 L 376.01 36.00 C 376.06 36.77 376.16 38.30 376.21 39.07 L 376.17 39.87 C 375.81 41.17 375.78 42.47 376.09 43.78 L 375.01 44.31 C 374.98 41.56 374.93 38.80 375.04 36.06 Z" />
<path fill="#3c5d63" d=" M 376.09 35.30 C 377.49 33.95 379.46 35.01 380.84 35.82 C 379.46 36.04 378.07 36.17 376.68 36.21 L 376.01 36.00 L 376.09 35.30 Z" />
<path fill="#576477" d=" M 440.13 34.97 C 441.38 34.98 442.64 34.99 443.91 35.00 C 444.31 35.39 445.12 36.18 445.53 36.57 C 443.42 36.38 441.30 36.40 439.21 36.71 L 438.76 36.76 C 439.10 36.31 439.78 35.42 440.13 34.97 Z" />
<path fill="#6bb2e2" d=" M 120.36 35.79 L 121.10 36.20 C 121.08 36.86 121.05 38.18 121.03 38.84 L 120.22 38.73 C 120.25 38.00 120.32 36.53 120.36 35.79 Z" />
<path fill="#e8edee" d=" M 121.10 36.20 C 121.63 36.21 122.69 36.23 123.22 36.24 C 123.23 36.87 123.24 38.12 123.24 38.75 C 122.69 38.77 121.58 38.82 121.03 38.84 C 121.05 38.18 121.08 36.86 121.10 36.20 Z" />
<path fill="#ba8a50" d=" M 123.22 36.24 L 123.94 35.92 C 123.97 36.59 124.04 37.92 124.08 38.59 L 123.24 38.75 C 123.24 38.12 123.23 36.87 123.22 36.24 Z" />
<path fill="#69afdf" d=" M 247.93 42.76 C 246.22 41.66 246.32 37.33 247.87 36.04 C 248.19 38.27 248.22 40.53 247.93 42.76 Z" />
<path fill="#e3eaf1" d=" M 247.87 36.04 C 249.15 36.19 250.41 36.43 251.66 36.76 C 251.57 38.63 251.43 40.49 251.28 42.36 L 251.23 42.89 C 250.41 42.86 248.76 42.79 247.93 42.76 C 248.22 40.53 248.19 38.27 247.87 36.04 Z" />
<path fill="#f5cd7f" d=" M 312.51 36.17 C 314.29 36.02 316.07 35.85 317.85 35.68 C 326.89 36.13 335.95 35.70 344.99 35.96 C 344.99 37.62 344.99 39.29 344.98 40.96 C 334.15 41.09 323.31 40.79 312.49 41.15 L 312.14 40.13 C 313.14 40.09 315.14 40.03 316.15 39.99 L 316.25 39.00 C 315.32 39.00 313.46 38.99 312.53 38.98 C 312.52 38.28 312.52 36.88 312.51 36.17 Z" />
<path fill="#dde4ee" d=" M 346.00 36.16 C 355.68 36.29 365.37 36.40 375.04 36.06 C 374.93 38.80 374.98 41.56 375.01 44.31 L 376.09 43.78 C 377.59 43.30 377.53 41.32 376.79 40.23 C 377.97 40.34 379.03 40.04 379.97 39.32 C 379.21 39.19 377.68 38.92 376.92 38.78 C 376.86 38.14 376.74 36.85 376.68 36.21 C 378.07 36.17 379.46 36.04 380.84 35.82 C 390.21 36.65 399.62 36.24 409.00 36.20 C 409.01 40.07 408.92 43.94 408.83 47.81 C 387.82 47.79 366.82 47.69 345.81 47.86 C 346.09 43.96 346.01 40.06 346.00 36.16 Z" />
<path fill="#6bb2e2" d=" M 376.01 36.00 L 376.68 36.21 C 376.74 36.85 376.86 38.14 376.92 38.78 L 376.21 39.07 C 376.16 38.30 376.06 36.77 376.01 36.00 Z" />
<path fill="#68aad8" d=" M 56.46 37.11 L 57.20 37.38 C 57.26 38.51 56.79 39.35 55.80 39.90 C 55.96 39.20 56.29 37.81 56.46 37.11 Z" />
<path fill="#dde6e2" d=" M 57.20 37.38 C 58.54 37.87 58.59 40.00 57.65 40.92 C 57.22 40.82 56.36 40.63 55.93 40.54 L 55.80 39.90 C 56.79 39.35 57.26 38.51 57.20 37.38 Z" />
<path fill="#dbe2ed" d=" M 154.00 37.20 C 163.51 37.40 173.02 37.20 182.53 37.31 C 182.77 39.70 183.33 42.05 184.35 44.23 C 185.84 44.14 187.33 44.05 188.82 43.96 C 189.13 43.55 189.77 42.74 190.08 42.33 C 188.68 42.54 187.28 42.78 185.87 42.86 C 184.98 41.97 184.21 40.99 183.56 39.91 C 194.69 39.64 205.82 39.71 216.95 39.84 C 216.95 42.51 216.93 45.18 216.92 47.86 C 195.98 47.81 175.04 47.86 154.11 47.83 C 154.05 44.29 153.99 40.75 154.00 37.20 Z" />
<path fill="#f3c66d" d=" M 251.66 36.76 C 252.15 38.63 252.03 40.57 251.28 42.36 C 251.43 40.49 251.57 38.63 251.66 36.76 Z" />
<path fill="#535568" d=" M 437.62 38.28 C 437.90 37.90 438.47 37.14 438.76 36.76 C 438.85 38.44 438.27 40.99 439.93 42.02 C 440.97 42.38 442.03 42.71 443.10 43.01 L 443.70 43.19 L 444.20 43.54 C 442.76 43.86 441.33 44.16 439.90 44.43 C 438.70 42.56 437.68 40.55 437.62 38.28 Z" />
<path fill="#aadbf1" d=" M 438.76 36.76 L 439.21 36.71 C 440.07 38.33 440.22 40.23 439.93 42.02 C 438.27 40.99 438.85 38.44 438.76 36.76 Z" />
<path fill="#385668" d=" M 59.10 37.39 C 59.53 39.00 59.96 40.61 60.35 42.24 C 58.46 42.12 56.57 42.02 54.69 41.89 C 55.00 41.55 55.62 40.88 55.93 40.54 C 56.36 40.63 57.22 40.82 57.65 40.92 L 59.15 41.05 C 59.14 40.13 59.11 38.30 59.10 37.39 Z" />
<path fill="#d9e1ec" d=" M 436.56 39.71 C 436.83 39.35 437.35 38.64 437.62 38.28 C 437.68 40.55 438.70 42.56 439.90 44.43 C 441.33 44.16 442.76 43.86 444.20 43.54 C 446.00 43.13 445.38 40.50 444.64 39.37 C 453.07 40.30 461.55 39.53 470.00 40.05 L 470.00 47.87 C 450.03 47.78 430.06 47.87 410.09 47.83 C 410.07 45.19 410.05 42.56 410.05 39.93 C 418.88 39.72 427.72 40.02 436.56 39.71 Z" />
<path fill="#44555f" d=" M 120.22 38.73 L 121.03 38.84 C 121.58 38.82 122.69 38.77 123.24 38.75 L 124.08 38.59 C 124.76 40.37 124.87 42.25 124.63 44.12 C 123.19 44.08 121.74 44.04 120.30 44.00 L 120.02 42.82 L 120.71 42.84 C 121.51 42.87 123.11 42.93 123.91 42.96 C 123.89 42.22 123.87 40.73 123.86 39.99 C 123.07 40.03 121.49 40.11 120.70 40.15 L 120.01 40.19 L 120.22 38.73 Z" />
<path fill="#274155" d=" M 376.21 39.07 L 376.92 38.78 C 377.68 38.92 379.21 39.19 379.97 39.32 C 379.03 40.04 377.97 40.34 376.79 40.23 L 376.17 39.87 L 376.21 39.07 Z" />
<path fill="#606651" d=" M 441.35 38.98 C 442.03 39.06 443.39 39.23 444.07 39.32 L 443.85 40.11 L 443.13 40.36 C 442.68 40.02 441.79 39.32 441.35 38.98 Z" />
<path fill="#3457a5" d=" M 444.07 39.32 L 444.64 39.37 C 445.38 40.50 446.00 43.13 444.20 43.54 L 443.70 43.19 C 443.74 42.42 443.81 40.88 443.85 40.11 L 444.07 39.32 Z" />
<path fill="#dfe2e8" d=" M 15.06 39.94 L 15.60 39.95 C 17.41 40.01 19.22 40.07 21.03 40.12 C 20.98 41.69 20.93 43.26 20.88 44.83 C 17.52 44.84 14.16 44.82 10.80 44.77 C 12.22 43.16 13.65 41.55 15.06 39.94 Z" />
<path fill="#d9e1ec" d=" M 26.04 39.88 C 35.42 39.89 44.82 39.66 54.20 40.10 C 53.68 41.55 53.22 43.01 52.75 44.48 L 54.15 43.91 L 54.93 43.58 C 54.87 43.16 54.75 42.31 54.69 41.89 C 56.57 42.02 58.46 42.12 60.35 42.24 C 58.60 44.21 62.22 44.33 61.16 42.14 C 61.30 41.64 61.59 40.64 61.73 40.15 C 70.79 39.42 79.89 40.01 88.97 39.91 C 88.97 42.56 88.96 45.21 88.94 47.86 C 67.99 47.91 47.03 47.83 26.08 47.89 C 26.06 45.22 26.04 42.55 26.04 39.88 Z" />
<path fill="#67addd" d=" M 120.01 40.19 L 120.70 40.15 C 120.70 40.83 120.71 42.17 120.71 42.84 L 120.02 42.82 C 120.02 42.16 120.01 40.85 120.01 40.19 Z" />
<path fill="#dfe1df" d=" M 120.70 40.15 C 121.49 40.11 123.07 40.03 123.86 39.99 C 123.87 40.73 123.89 42.22 123.91 42.96 C 123.11 42.93 121.51 42.87 120.71 42.84 C 120.71 42.17 120.70 40.83 120.70 40.15 Z" />
<path fill="#67acdd" d=" M 376.17 39.87 L 376.79 40.23 C 377.53 41.32 377.59 43.30 376.09 43.78 C 375.78 42.47 375.81 41.17 376.17 39.87 Z" />
<path fill="#dfc297" d=" M 443.13 40.36 L 443.85 40.11 C 443.81 40.88 443.74 42.42 443.70 43.19 L 443.10 43.01 C 443.11 42.35 443.12 41.02 443.13 40.36 Z" />
<path fill="#276a9e" d=" M 54.15 43.91 C 54.29 43.41 54.55 42.40 54.69 41.89 C 54.75 42.31 54.87 43.16 54.93 43.58 L 54.15 43.91 Z" />
<path fill="#57426a" d=" M 60.35 42.24 L 61.16 42.14 C 62.22 44.33 58.60 44.21 60.35 42.24 Z" />
<path fill="#e4ecf7" d=" M 0.00 49.00 C 8.33 49.02 16.65 48.99 24.98 49.02 C 25.00 55.35 25.00 61.67 25.00 68.00 C 16.67 68.00 8.33 68.00 0.00 68.00 L 0.00 49.00 Z" />
<path fill="#ffffff" d=" M 26.01 49.01 C 47.01 48.99 68.01 49.00 89.01 49.01 C 89.00 55.33 89.00 61.65 88.99 67.98 C 67.99 68.05 47.00 67.96 26.00 68.00 C 26.00 61.67 26.00 55.34 26.01 49.01 Z" />
<path fill="#d0d7e5" d=" M 89.01 49.01 L 89.97 49.01 C 90.00 55.33 89.99 61.65 90.02 67.97 C 111.01 68.01 131.99 68.02 152.98 67.98 C 153.02 61.66 153.00 55.33 153.00 49.01 L 153.96 49.01 C 153.99 55.33 153.99 61.66 154.03 67.99 C 175.01 68.02 196.00 68.00 216.98 68.00 C 217.01 61.67 217.00 55.34 217.03 49.01 L 218.00 49.01 C 218.00 55.33 217.99 61.66 218.04 67.99 C 238.69 68.11 259.35 67.83 279.99 68.09 L 280.11 68.69 C 259.42 69.44 238.70 68.74 218.00 69.05 C 217.97 75.36 217.98 81.66 218.00 87.97 C 238.70 88.26 259.43 87.52 280.11 88.34 L 280.00 88.92 C 260.65 89.13 241.29 88.94 221.94 88.97 C 220.21 88.87 218.50 89.33 217.69 91.00 L 217.37 91.00 C 215.97 88.81 213.28 88.91 211.01 88.91 C 196.34 89.09 181.66 88.97 166.99 88.99 C 163.04 89.06 159.03 88.58 155.12 89.35 C 154.77 89.76 154.05 90.59 153.70 91.00 L 153.33 91.00 C 152.22 89.69 150.75 88.78 148.97 88.97 C 131.31 88.95 113.64 89.10 95.98 88.92 C 93.75 89.06 90.89 88.57 89.72 91.00 L 89.33 91.00 C 87.36 88.31 83.88 89.03 81.01 88.92 C 62.69 89.25 44.35 88.65 26.03 89.23 L 26.02 88.03 C 47.00 87.92 67.98 88.06 88.96 87.96 C 89.03 81.64 89.03 75.33 88.97 69.01 C 67.98 68.98 46.99 69.01 26.00 68.99 L 26.00 68.00 C 47.00 67.96 67.99 68.05 88.99 67.98 C 89.00 61.65 89.00 55.33 89.01 49.01 Z" />
<path fill="#ffffff" d=" M 89.97 49.01 C 110.98 49.00 131.99 49.00 153.00 49.01 C 153.00 55.33 153.02 61.66 152.98 67.98 C 131.99 68.02 111.01 68.01 90.02 67.97 C 89.99 61.65 90.00 55.33 89.97 49.01 Z" />
<path fill="#ffffff" d=" M 153.96 49.01 C 174.99 49.00 196.01 49.00 217.03 49.01 C 217.00 55.34 217.01 61.67 216.98 68.00 C 196.00 68.00 175.01 68.02 154.03 67.99 C 153.99 61.66 153.99 55.33 153.96 49.01 Z" />
<path fill="#ffffff" d=" M 218.00 49.01 C 239.00 48.99 260.00 49.00 281.01 49.00 C 281.21 54.92 281.81 60.93 280.50 66.77 C 280.37 67.10 280.12 67.76 279.99 68.09 C 259.35 67.83 238.69 68.11 218.04 67.99 C 217.99 61.66 218.00 55.33 218.00 49.01 Z" />
<path fill="#ffffff" d=" M 281.30 49.05 C 302.77 48.97 324.24 48.96 345.71 49.06 C 345.00 55.02 345.11 61.03 345.46 67.02 C 324.14 66.99 302.82 66.98 281.50 67.02 C 281.87 61.04 282.03 55.02 281.30 49.05 Z" />
<path fill="#ffffff" d=" M 346.00 49.02 C 367.01 48.99 388.01 49.00 409.02 49.01 C 408.99 55.33 409.00 61.66 408.97 67.98 C 388.32 68.10 367.66 67.85 347.02 68.08 C 346.88 67.75 346.60 67.09 346.46 66.76 C 345.22 60.92 345.83 54.92 346.00 49.02 Z" />
<path fill="#d0d7e5" d=" M 409.02 49.01 L 409.98 49.01 C 409.99 55.33 409.99 61.66 410.02 67.99 C 430.01 68.04 450.01 67.98 470.00 67.99 L 470.00 68.93 C 450.00 69.11 430.00 68.92 410.01 69.02 C 409.96 75.33 409.97 81.65 410.02 87.96 C 430.01 88.07 450.01 87.95 470.00 88.00 L 470.00 88.97 C 451.69 88.98 433.37 89.07 415.06 88.94 C 413.05 88.96 410.68 88.86 409.70 91.00 L 409.32 91.00 C 407.62 88.55 404.55 88.97 401.98 88.91 C 387.32 89.13 372.65 88.88 357.99 89.07 C 354.73 89.10 351.47 88.88 348.24 88.45 C 354.80 87.69 361.40 88.05 367.99 88.01 C 381.65 87.98 395.31 88.05 408.97 87.96 C 409.01 81.64 409.01 75.33 408.97 69.02 C 388.28 68.78 367.57 69.44 346.90 68.66 L 347.02 68.08 C 367.66 67.85 388.32 68.10 408.97 67.98 C 409.00 61.66 408.99 55.33 409.02 49.01 Z" />
<path fill="#ffffff" d=" M 409.98 49.01 C 429.99 49.01 449.99 48.96 470.00 49.04 L 470.00 67.99 C 450.01 67.98 430.01 68.04 410.02 67.99 C 409.99 61.66 409.99 55.33 409.98 49.01 Z" />
<path fill="#27413e" d=" M 12.16 55.93 C 12.25 55.78 12.42 55.48 12.50 55.33 L 12.59 55.86 L 12.16 55.93 Z" />
<path fill="#6ab1e4" d=" M 12.50 55.33 L 14.03 54.93 C 14.01 57.53 13.97 60.13 13.79 62.73 L 12.77 62.63 C 13.14 60.39 13.00 58.09 12.59 55.86 L 12.50 55.33 Z" />
<path fill="#8d423d" d=" M 10.21 56.21 C 10.79 56.81 10.79 56.81 10.21 56.21 Z" />
<path fill="#a8763d" d=" M 12.16 55.93 L 12.59 55.86 C 13.00 58.09 13.14 60.39 12.77 62.63 L 12.10 62.73 C 11.48 60.64 11.67 58.05 12.16 55.93 Z" />
<path fill="#8d423d" d=" M 10.67 63.53 C 10.84 63.43 11.20 63.22 11.37 63.12 L 11.23 63.64 L 10.67 63.53 Z" />
<path fill="#34575f" d=" M 11.37 63.12 L 12.10 62.73 L 12.77 62.63 L 13.79 62.73 C 17.80 63.42 12.43 65.25 11.23 63.64 L 11.37 63.12 Z" />
<path fill="#2e271a" d=" M 279.99 68.09 C 280.12 67.76 280.37 67.10 280.50 66.77 L 281.50 67.02 C 286.53 68.55 291.82 67.98 296.99 67.99 C 308.01 67.98 319.03 67.98 330.04 67.99 C 335.19 67.98 340.46 68.56 345.46 67.02 L 346.46 66.76 C 346.60 67.09 346.88 67.75 347.02 68.08 L 346.90 68.66 C 345.52 74.01 345.98 79.55 346.02 85.00 L 345.00 85.00 C 345.01 79.68 345.01 74.36 344.95 69.03 C 323.98 68.99 303.02 69.01 282.05 69.02 C 281.99 75.33 281.99 81.64 282.00 87.95 C 296.68 88.05 311.36 87.95 326.04 88.00 C 331.21 88.05 336.44 87.53 341.57 88.45 L 341.71 88.87 C 328.47 89.16 315.22 88.93 301.98 89.02 C 295.04 89.16 288.00 88.31 281.17 89.99 C 280.84 89.99 280.18 89.99 279.84 89.99 L 280.00 88.92 L 280.11 88.34 C 281.45 81.89 281.58 75.13 280.11 68.69 L 279.99 68.09 Z" />
<path fill="#000000" d=" M 281.50 67.02 C 302.82 66.98 324.14 66.99 345.46 67.02 C 340.46 68.56 335.19 67.98 330.04 67.99 C 319.03 67.98 308.01 67.98 296.99 67.99 C 291.82 67.98 286.53 68.55 281.50 67.02 Z" />
<path fill="#f29536" d=" M 0.00 68.00 C 8.33 68.00 16.67 68.00 25.00 68.00 L 26.00 68.00 L 26.00 68.99 C 26.01 75.34 25.97 81.68 26.02 88.03 L 26.03 89.23 L 25.30 89.19 C 16.87 88.80 8.43 89.08 0.00 89.00 L 0.00 87.99 C 8.33 88.00 16.66 88.00 24.99 88.00 C 25.01 81.67 25.01 75.35 25.00 69.02 C 16.67 68.98 8.33 69.01 0.00 69.00 L 0.00 68.00 Z" />
<path fill="#ffd58d" d=" M 0.00 69.00 C 8.33 69.01 16.67 68.98 25.00 69.02 C 25.01 75.35 25.01 81.67 24.99 88.00 C 16.66 88.00 8.33 88.00 0.00 87.99 L 0.00 69.00 Z" />
<path fill="#ffffff" d=" M 26.00 68.99 C 46.99 69.01 67.98 68.98 88.97 69.01 C 89.03 75.33 89.03 81.64 88.96 87.96 C 67.98 88.06 47.00 87.92 26.02 88.03 C 25.97 81.68 26.01 75.34 26.00 68.99 Z" />
<path fill="#ffffff" d=" M 90.03 69.02 C 111.01 69.00 131.99 68.98 152.97 69.02 C 153.01 75.33 153.01 81.64 153.00 87.95 C 132.01 88.06 111.03 87.97 90.04 88.00 C 89.98 81.67 89.99 75.34 90.03 69.02 Z" />
<path fill="#ffffff" d=" M 154.01 69.05 C 175.00 68.98 195.99 68.97 216.98 69.04 C 217.00 75.35 217.01 81.66 216.98 87.98 C 195.99 87.99 175.00 88.04 154.01 87.96 C 153.99 81.66 153.99 75.35 154.01 69.05 Z" />
<path fill="#ffffff" d=" M 218.00 69.05 C 238.70 68.74 259.42 69.44 280.11 68.69 C 279.92 75.23 279.91 81.79 280.11 88.34 C 259.43 87.52 238.70 88.26 218.00 87.97 C 217.98 81.66 217.97 75.36 218.00 69.05 Z" />
<path fill="#000000" d=" M 280.11 68.69 C 281.58 75.13 281.45 81.89 280.11 88.34 C 279.91 81.79 279.92 75.23 280.11 68.69 Z" />
<path fill="#000000" d=" M 282.05 69.02 C 303.02 69.01 323.98 68.99 344.95 69.03 C 345.01 74.36 345.01 79.68 345.00 85.00 L 344.00 85.00 C 344.00 80.00 344.00 75.00 344.00 70.00 C 323.67 70.00 303.33 70.00 283.00 70.00 C 283.00 75.67 283.00 81.33 283.00 87.00 C 302.74 87.00 322.47 87.00 342.21 87.00 C 342.05 87.36 341.73 88.09 341.57 88.45 C 336.44 87.53 331.21 88.05 326.04 88.00 C 311.36 87.95 296.68 88.05 282.00 87.95 C 281.99 81.64 281.99 75.33 282.05 69.02 Z" />
<path fill="#000000" d=" M 346.02 85.00 C 345.98 79.55 345.52 74.01 346.90 68.66 C 347.13 74.11 346.94 79.55 347.00 85.00 L 346.02 85.00 Z" />
<path fill="#ffffff" d=" M 346.90 68.66 C 367.57 69.44 388.28 68.78 408.97 69.02 C 409.01 75.33 409.01 81.64 408.97 87.96 C 395.31 88.05 381.65 87.98 367.99 88.01 C 361.40 88.05 354.80 87.69 348.24 88.45 C 351.47 88.88 354.73 89.10 357.99 89.07 C 372.65 88.88 387.32 89.13 401.98 88.91 C 404.55 88.97 407.62 88.55 409.32 91.00 L 347.87 91.00 C 348.93 88.51 344.83 88.54 345.75 91.00 L 345.32 91.00 C 346.10 88.54 342.06 88.52 343.18 91.00 L 217.69 91.00 C 218.50 89.33 220.21 88.87 221.94 88.97 C 241.29 88.94 260.65 89.13 280.00 88.92 L 279.84 89.99 C 280.18 89.99 280.84 89.99 281.17 89.99 C 301.54 90.01 321.92 90.01 342.29 89.99 C 342.14 89.71 341.85 89.15 341.71 88.87 L 341.57 88.45 C 341.73 88.09 342.05 87.36 342.21 87.00 C 322.47 87.00 302.74 87.00 283.00 87.00 C 283.00 81.33 283.00 75.67 283.00 70.00 C 303.33 70.00 323.67 70.00 344.00 70.00 C 344.00 75.00 344.00 80.00 344.00 85.00 L 345.00 85.00 L 346.02 85.00 L 347.00 85.00 C 346.94 79.55 347.13 74.11 346.90 68.66 Z" />
<path fill="#ffffff" d=" M 410.01 69.02 C 430.00 68.92 450.00 69.11 470.00 68.93 L 470.00 88.00 C 450.01 87.95 430.01 88.07 410.02 87.96 C 409.97 81.65 409.96 75.33 410.01 69.02 Z" />
<path fill="#586759" d=" M 9.62 76.77 C 9.98 76.33 10.70 75.45 11.05 75.01 C 11.91 74.97 13.61 74.91 14.47 74.87 C 16.34 77.98 14.05 80.78 11.94 83.00 C 12.96 83.00 15.00 83.00 16.02 83.00 L 16.00 84.04 C 13.70 84.03 11.40 84.03 9.11 83.88 L 10.25 83.03 C 11.19 82.40 12.13 81.66 12.55 80.57 C 13.36 79.13 13.83 77.54 14.22 75.94 C 12.68 76.19 11.15 76.47 9.62 76.77 Z" />
<path fill="#b98646" d=" M 81.14 80.44 C 81.57 78.30 82.15 74.46 85.14 74.96 C 84.99 76.88 84.93 78.82 85.08 80.75 L 84.07 80.81 C 84.01 79.22 83.98 77.63 83.96 76.04 C 83.03 77.52 82.10 78.99 81.14 80.44 Z" />
<path fill="#72baea" d=" M 85.14 74.96 C 86.57 76.15 86.70 79.23 85.69 80.83 L 85.08 80.75 C 84.93 78.82 84.99 76.88 85.14 74.96 Z" />
<path fill="#403527" d=" M 145.46 76.40 C 145.19 74.70 148.01 74.20 148.86 75.44 L 149.05 76.04 C 148.32 76.16 146.88 76.38 146.16 76.49 L 145.46 76.40 Z" />
<path fill="#a8d7f1" d=" M 148.86 75.44 C 152.02 75.09 149.72 78.59 149.72 80.22 L 148.93 80.01 L 147.96 79.77 L 147.91 79.04 L 148.68 78.85 L 148.81 78.09 C 150.31 77.74 150.39 77.06 149.05 76.04 L 148.86 75.44 Z" />
<path fill="#ca970b" d=" M 285.00 74.99 L 286.38 74.98 C 286.42 75.02 286.50 75.10 286.54 75.14 C 286.10 78.07 285.97 81.04 285.89 84.00 L 285.00 84.02 C 285.00 81.01 285.00 78.00 285.00 74.99 Z" />
<path fill="#000000" d=" M 286.38 74.98 L 286.57 74.94 L 286.54 75.14 C 286.50 75.10 286.42 75.02 286.38 74.98 Z" />
<path fill="#64a0ca" d=" M 286.57 74.94 C 287.85 75.75 288.59 77.05 289.15 78.43 L 288.56 78.39 L 286.82 78.27 C 286.82 80.16 286.83 82.04 286.84 83.93 L 285.89 84.00 C 285.97 81.04 286.10 78.07 286.54 75.14 L 286.57 74.94 Z" />
<path fill="#e3ba72" d=" M 290.78 80.26 C 290.73 78.72 290.28 75.99 291.89 75.23 C 292.10 77.43 292.09 79.63 291.99 81.83 C 291.74 81.61 291.24 81.15 290.99 80.93 L 290.78 80.26 Z" />
<path fill="#009bd4" d=" M 291.89 75.23 L 293.00 74.94 C 293.00 77.99 293.00 81.05 293.00 84.10 L 291.86 83.56 C 291.89 83.13 291.96 82.27 291.99 81.83 C 292.09 79.63 292.10 77.43 291.89 75.23 Z" />
<path fill="#720000" d=" M 297.02 76.00 C 297.16 75.86 297.45 75.57 297.60 75.43 L 297.59 75.94 L 297.02 76.00 Z" />
<path fill="#2e252f" d=" M 297.60 75.43 C 298.95 74.46 301.38 74.87 302.01 76.54 L 301.91 77.09 L 301.45 77.06 C 300.28 76.32 298.99 75.95 297.59 75.94 L 297.60 75.43 Z" />
<path fill="#abdbe6" d=" M 83.96 76.04 C 83.98 77.63 84.01 79.22 84.07 80.81 C 83.39 80.91 82.03 81.12 81.35 81.22 L 81.14 80.44 C 82.10 78.99 83.03 77.52 83.96 76.04 Z" />
<path fill="#870087" d=" M 145.46 76.40 L 146.16 76.49 C 146.17 76.94 146.19 77.82 146.20 78.27 L 145.44 78.32 C 145.44 77.84 145.46 76.88 145.46 76.40 Z" />
<path fill="#e9f9ec" d=" M 146.16 76.49 C 146.88 76.38 148.32 76.16 149.05 76.04 C 148.99 76.56 148.87 77.58 148.81 78.09 C 148.59 78.33 148.14 78.80 147.91 79.04 L 147.19 79.07 C 146.94 78.87 146.45 78.47 146.20 78.27 C 146.19 77.82 146.17 76.94 146.16 76.49 Z" />
<path fill="#870072" d=" M 149.05 76.04 C 150.39 77.06 150.31 77.74 148.81 78.09 C 148.87 77.58 148.99 76.56 149.05 76.04 Z" />
<path fill="#f3c66d" d=" M 296.45 83.37 C 293.79 81.95 293.74 77.56 296.33 76.04 L 296.16 76.79 L 295.85 77.85 C 295.06 78.66 294.18 80.62 295.74 81.12 L 296.02 82.07 C 296.13 82.39 296.34 83.04 296.45 83.37 Z" />
<path fill="#000000" d=" M 296.33 76.04 L 297.02 76.00 C 296.80 76.20 296.37 76.59 296.16 76.79 L 296.33 76.04 Z" />
<path fill="#b2defa" d=" M 297.02 76.00 L 297.59 75.94 C 298.39 76.84 297.55 79.26 296.19 78.72 L 295.85 77.85 L 296.16 76.79 C 296.37 76.59 296.80 76.20 297.02 76.00 Z" />
<path fill="#98c5ee" d=" M 302.01 76.54 C 304.51 75.72 305.02 81.32 303.09 81.92 L 302.82 81.13 C 303.31 79.83 303.07 78.72 302.11 77.80 L 301.91 77.09 L 302.01 76.54 Z" />
<path fill="#ffeebd" d=" M 301.45 77.06 L 301.91 77.09 L 302.11 77.80 C 302.09 78.62 302.06 80.24 302.04 81.05 L 301.71 81.72 C 299.96 81.33 300.56 78.19 301.45 77.06 Z" />
<path fill="#e2bc55" d=" M 145.44 78.32 L 146.20 78.27 C 146.45 78.47 146.94 78.87 147.19 79.07 L 147.20 79.79 L 146.23 80.08 L 145.43 80.07 C 145.43 79.63 145.43 78.76 145.44 78.32 Z" />
<path fill="#00009b" d=" M 146.20 78.27 C 146.45 78.47 146.94 78.87 147.19 79.07 C 146.94 78.87 146.45 78.47 146.20 78.27 Z" />
<path fill="#ba7200" d=" M 147.91 79.04 C 148.14 78.80 148.59 78.33 148.81 78.09 L 148.68 78.85 L 147.91 79.04 Z" />
<path fill="#720072" d=" M 288.56 78.39 L 289.15 78.43 L 289.07 79.00 L 288.50 78.96 L 288.56 78.39 Z" />
<path fill="#720080" d=" M 295.74 81.12 C 294.18 80.62 295.06 78.66 295.85 77.85 L 296.19 78.72 L 296.20 80.27 L 295.74 81.12 Z" />
<path fill="#9b004c" d=" M 302.11 77.80 C 303.07 78.72 303.31 79.83 302.82 81.13 L 302.04 81.05 C 302.06 80.24 302.09 78.62 302.11 77.80 Z" />
<path fill="#000000" d=" M 147.19 79.07 L 147.91 79.04 L 147.96 79.77 L 147.20 79.79 L 147.19 79.07 Z" />
<path fill="#f3c66d" d=" M 288.50 78.96 L 289.07 79.00 C 289.37 79.34 289.95 80.03 290.24 80.38 L 290.41 81.05 C 290.34 81.40 290.20 82.09 290.12 82.43 C 288.84 82.48 287.69 80.03 288.50 78.96 Z" />
<path fill="#e4a965" d=" M 10.25 83.03 C 8.99 81.72 11.15 79.44 12.55 80.57 C 12.13 81.66 11.19 82.40 10.25 83.03 Z" />
<path fill="#ab3900" d=" M 80.27 80.29 L 81.14 80.44 L 81.35 81.22 L 81.04 81.78 C 80.72 81.58 80.08 81.19 79.76 80.99 L 80.27 80.29 Z" />
<path fill="#9b0000" d=" M 145.43 80.07 L 146.23 80.08 C 145.98 80.32 145.49 80.78 145.24 81.02 L 145.43 80.07 Z" />
<path fill="#82c2e8" d=" M 146.23 80.08 L 147.20 79.79 C 146.94 80.39 146.44 81.60 146.18 82.20 L 145.57 81.87 L 145.24 81.02 C 145.49 80.78 145.98 80.32 146.23 80.08 Z" />
<path fill="#f6fbf1" d=" M 147.20 79.79 L 147.96 79.77 C 147.95 80.96 148.24 82.08 148.84 83.13 C 148.15 83.07 146.79 82.95 146.11 82.89 L 146.18 82.20 C 146.44 81.60 146.94 80.39 147.20 79.79 Z" />
<path fill="#c58b57" d=" M 147.96 79.77 L 148.93 80.01 C 149.12 80.21 149.51 80.61 149.70 80.82 C 149.48 81.39 149.05 82.55 148.84 83.13 C 148.24 82.08 147.95 80.96 147.96 79.77 Z" />
<path fill="#000072" d=" M 148.93 80.01 L 149.72 80.22 L 149.70 80.82 C 149.51 80.61 149.12 80.21 148.93 80.01 Z" />
<path fill="#a5d7f7" d=" M 149.72 80.22 L 150.25 80.25 C 152.08 81.12 150.87 84.66 148.89 83.72 L 148.84 83.13 C 149.05 82.55 149.48 81.39 149.70 80.82 L 149.72 80.22 Z" />
<path fill="#72baea" d=" M 290.24 80.38 L 290.78 80.26 L 290.99 80.93 L 290.41 81.05 L 290.24 80.38 Z" />
<path fill="#abdfff" d=" M 296.20 80.27 L 296.90 80.47 C 296.84 80.88 296.71 81.70 296.64 82.11 L 296.02 82.07 L 295.74 81.12 L 296.20 80.27 Z" />
<path fill="#00131f" d=" M 81.35 81.22 C 82.03 81.12 83.39 80.91 84.07 80.81 L 85.08 80.75 L 85.69 80.83 C 85.84 81.06 86.15 81.50 86.30 81.72 L 85.80 82.11 L 84.98 82.22 L 84.06 82.22 C 83.30 82.11 81.80 81.89 81.04 81.78 L 81.35 81.22 Z" />
<path fill="#efca83" d=" M 145.99 83.51 C 144.17 84.95 142.94 80.56 145.24 81.02 L 145.57 81.87 C 145.70 82.12 145.98 82.63 146.11 82.89 L 145.99 83.51 Z" />
<path fill="#4b1d27" d=" M 290.41 81.05 L 290.99 80.93 C 291.24 81.15 291.74 81.61 291.99 81.83 C 291.96 82.27 291.89 83.13 291.86 83.56 C 291.42 83.28 290.56 82.71 290.12 82.43 C 290.20 82.09 290.34 81.40 290.41 81.05 Z" />
<path fill="#395dc3" d=" M 302.04 81.05 L 302.82 81.13 L 303.09 81.92 L 302.53 82.78 C 302.33 82.51 301.92 81.98 301.71 81.72 L 302.04 81.05 Z" />
<path fill="#ba7200" d=" M 84.06 82.22 L 84.98 82.22 C 84.99 82.61 85.02 83.38 85.03 83.77 C 84.69 83.59 84.02 83.24 83.68 83.06 L 84.06 82.22 Z" />
<path fill="#72baea" d=" M 84.98 82.22 L 85.80 82.11 L 86.30 82.91 L 85.85 83.76 L 85.03 83.77 C 85.02 83.38 84.99 82.61 84.98 82.22 Z" />
<path fill="#00009b" d=" M 145.57 81.87 L 146.18 82.20 L 146.11 82.89 C 145.98 82.63 145.70 82.12 145.57 81.87 Z" />
<path fill="#2b2340" d=" M 296.02 82.07 L 296.64 82.11 C 297.61 83.16 301.10 82.19 300.72 84.01 C 299.17 84.43 297.74 84.21 296.45 83.37 C 296.34 83.04 296.13 82.39 296.02 82.07 Z" />
<path fill="#000000" d=" M 146.11 82.89 C 146.79 82.95 148.15 83.07 148.84 83.13 L 148.89 83.72 C 148.37 83.82 147.32 84.02 146.80 84.13 L 145.99 83.51 L 146.11 82.89 Z" />
<path fill="#000000" d=" M 344.54 88.43 C 342.74 87.88 342.63 87.03 344.20 85.88 C 345.45 86.54 345.57 87.39 344.54 88.43 Z" />
<path fill="#000000" d=" M 348.18 87.30 C 347.38 89.68 344.20 86.60 346.67 85.83 C 347.05 86.20 347.80 86.93 348.18 87.30 Z" />
<path fill="#e4ecf7" d=" M 0.00 89.00 C 8.43 89.08 16.87 88.80 25.30 89.19 C 25.25 89.64 25.16 90.55 25.12 91.00 L 0.00 91.00 L 0.00 89.00 Z" />
<path fill="#9eb6ce" d=" M 25.30 89.19 L 26.03 89.23 C 25.99 89.67 25.93 90.56 25.89 91.00 L 25.12 91.00 C 25.16 90.55 25.25 89.64 25.30 89.19 Z" />
<path fill="#ffffff" d=" M 26.03 89.23 C 44.35 88.65 62.69 89.25 81.01 88.92 C 83.88 89.03 87.36 88.31 89.33 91.00 L 25.89 91.00 C 25.93 90.56 25.99 89.67 26.03 89.23 Z" />
<path fill="#ffffff" d=" M 89.72 91.00 C 90.89 88.57 93.75 89.06 95.98 88.92 C 113.64 89.10 131.31 88.95 148.97 88.97 C 150.75 88.78 152.22 89.69 153.33 91.00 L 89.72 91.00 Z" />
<path fill="#ffffff" d=" M 153.70 91.00 C 154.05 90.59 154.77 89.76 155.12 89.35 C 159.03 88.58 163.04 89.06 166.99 88.99 C 181.66 88.97 196.34 89.09 211.01 88.91 C 213.28 88.91 215.97 88.81 217.37 91.00 L 153.70 91.00 Z" />
<path fill="#000000" d=" M 281.17 89.99 C 288.00 88.31 295.04 89.16 301.98 89.02 C 315.22 88.93 328.47 89.16 341.71 88.87 C 341.85 89.15 342.14 89.71 342.29 89.99 C 321.92 90.01 301.54 90.01 281.17 89.99 Z" />
<path fill="#000000" d=" M 343.18 91.00 C 342.06 88.52 346.10 88.54 345.32 91.00 L 343.18 91.00 Z" />
<path fill="#000000" d=" M 345.75 91.00 C 344.83 88.54 348.93 88.51 347.87 91.00 L 345.75 91.00 Z" />
<path fill="#ffffff" d=" M 409.70 91.00 C 410.68 88.86 413.05 88.96 415.06 88.94 C 433.37 89.07 451.69 88.98 470.00 88.97 L 470.00 91.00 L 409.70 91.00 Z" />
</svg>
