<?xml version="1.0" encoding="UTF-8" ?>
<!DOCTYPE svg PUBLIC "-//W3C//DTD SVG 1.1//EN" "http://www.w3.org/Graphics/SVG/1.1/DTD/svg11.dtd">
<svg width="298pt" height="207pt" viewBox="0 0 298 207" version="1.1" xmlns="http://www.w3.org/2000/svg">
<path fill="#9eb6ce" d=" M 0.00 0.00 L 25.96 0.00 C 26.02 3.95 26.06 7.90 26.06 11.86 C 26.06 14.21 26.08 16.55 26.09 18.90 C 47.04 18.86 67.99 18.90 88.94 18.88 C 88.95 16.53 88.95 14.19 88.95 11.84 C 88.94 7.90 88.98 3.95 89.01 0.00 L 89.96 0.00 C 90.00 3.01 90.03 6.02 90.02 9.03 C 90.00 12.32 90.05 15.60 90.12 18.88 C 111.05 18.83 131.97 18.87 152.89 18.87 C 152.95 15.61 153.00 12.35 152.99 9.09 C 152.97 6.06 152.98 3.03 153.00 0.00 L 153.95 0.00 C 154.00 3.05 154.03 6.10 154.02 9.15 C 154.00 12.40 154.03 15.64 154.08 18.89 C 175.03 18.89 195.97 18.88 216.92 18.89 C 216.93 17.26 216.95 15.63 216.96 14.01 C 216.97 12.30 216.96 10.59 216.96 8.88 C 216.96 5.92 216.98 2.96 217.00 0.00 L 217.97 0.00 C 218.01 3.01 218.03 6.02 218.02 9.04 C 218.00 12.31 218.04 15.59 218.10 18.87 C 239.03 18.85 259.95 18.86 280.88 18.86 C 280.95 15.61 281.00 12.36 280.99 9.11 C 280.97 6.07 280.98 3.04 281.00 0.00 L 282.12 0.00 C 282.08 1.99 282.04 3.99 282.01 5.98 C 281.99 8.02 281.99 10.06 282.00 12.10 C 282.01 14.36 282.04 16.62 282.06 18.88 C 287.38 18.89 292.69 18.90 298.00 18.89 L 298.00 20.03 C 292.66 19.99 287.31 19.99 281.97 20.00 L 281.00 20.00 C 260.00 20.00 239.00 20.00 218.00 20.00 L 217.02 20.00 C 196.02 20.00 175.01 20.00 154.00 20.01 L 153.04 20.01 C 132.02 20.00 111.00 20.00 89.99 20.01 L 89.02 20.01 C 68.01 20.00 47.01 19.99 26.00 20.01 C 26.00 26.34 26.00 32.67 26.01 39.01 L 26.01 39.98 C 26.00 46.32 26.00 52.66 26.01 59.00 L 26.01 59.97 C 26.00 66.31 26.00 72.66 26.01 79.00 L 26.01 79.96 C 26.00 86.31 26.00 92.65 26.01 99.00 L 26.01 99.97 C 26.00 106.32 26.00 112.66 26.01 119.00 L 26.01 119.95 C 26.00 126.31 26.00 132.67 26.01 139.03 L 26.01 139.99 C 26.00 146.33 26.00 152.67 26.00 159.01 L 25.01 159.01 C 25.00 152.67 25.02 146.34 24.99 140.01 C 16.66 139.98 8.33 140.01 0.00 140.00 L 0.00 138.97 C 8.33 139.02 16.65 139.00 24.98 138.99 C 25.01 132.67 25.02 126.34 24.99 120.01 C 16.66 119.98 8.33 120.01 0.00 120.00 L 0.00 119.01 C 8.33 118.99 16.66 119.02 24.98 118.98 C 25.02 112.66 25.02 106.33 24.98 100.01 C 16.66 99.99 8.33 100.00 0.00 100.00 L 0.00 99.00 C 8.33 98.98 16.66 99.03 24.99 98.97 C 25.01 92.66 25.01 86.34 24.99 80.02 C 16.66 79.98 8.33 80.00 0.00 80.00 L 0.00 79.00 C 8.33 78.99 16.65 79.01 24.98 79.00 C 25.02 72.67 25.02 66.34 24.98 60.01 C 16.65 59.99 8.33 60.01 0.00 60.00 L 0.00 58.94 C 8.33 59.04 16.66 59.00 24.98 58.99 C 25.02 52.67 25.01 46.35 24.99 40.03 C 16.66 39.98 8.33 40.01 0.00 40.00 L 0.00 39.00 C 8.33 38.98 16.66 39.03 24.99 38.99 C 25.01 32.67 25.01 26.35 24.99 20.03 C 16.66 19.98 8.33 20.02 0.00 20.00 L 0.00 0.00 Z" />
<path fill="#eef3f7" d=" M 25.96 0.00 L 89.01 0.00 C 88.98 3.95 88.94 7.90 88.95 11.84 C 82.28 11.68 75.61 11.73 68.94 11.66 C 66.22 11.57 63.54 12.08 60.99 12.97 L 60.25 13.19 C 59.99 11.78 59.79 10.35 59.31 9.00 C 59.18 8.57 58.90 7.71 58.77 7.28 C 58.43 6.87 57.75 6.04 57.41 5.62 C 56.06 7.73 55.00 10.00 54.16 12.35 C 44.84 11.16 35.43 11.81 26.06 11.86 C 26.06 7.90 26.02 3.95 25.96 0.00 Z" />
<path fill="#f2f6f9" d=" M 89.96 0.00 L 153.00 0.00 C 152.98 3.03 152.97 6.06 152.99 9.09 C 145.99 9.09 139.00 9.19 132.01 9.18 C 129.15 9.23 126.24 8.68 123.90 6.94 C 123.15 5.86 121.67 5.30 120.47 6.05 L 119.10 6.55 C 117.72 7.96 116.15 9.37 114.01 9.13 C 106.01 9.26 98.01 9.11 90.02 9.03 C 90.03 6.02 90.00 3.01 89.96 0.00 Z" />
<path fill="#f2f6f9" d=" M 153.95 0.00 L 217.00 0.00 C 216.98 2.96 216.96 5.92 216.96 8.88 C 205.89 8.67 194.82 8.91 183.74 8.80 C 185.44 6.71 187.89 7.24 190.15 7.77 C 189.81 7.33 189.13 6.44 188.80 5.99 C 187.60 5.99 186.41 5.98 185.22 5.98 C 184.38 6.73 183.54 7.48 182.70 8.22 C 182.71 9.54 182.74 10.85 182.79 12.17 C 182.23 11.21 181.68 10.26 181.12 9.32 C 172.09 8.98 163.05 9.31 154.02 9.15 C 154.03 6.10 154.00 3.05 153.95 0.00 Z" />
<path fill="#f2f6f9" d=" M 217.97 0.00 L 281.00 0.00 C 280.98 3.04 280.97 6.07 280.99 9.11 C 271.79 9.09 262.58 9.30 253.38 9.01 C 252.69 7.92 251.91 6.88 251.14 5.84 C 249.48 5.92 247.83 5.99 246.18 6.09 C 245.01 7.36 244.08 9.30 242.05 9.06 C 234.04 9.36 226.02 9.03 218.02 9.04 C 218.03 6.02 218.01 3.01 217.97 0.00 Z" />
<path fill="#f4f8fa" d=" M 282.12 0.00 L 298.00 0.00 L 298.00 5.83 C 292.67 5.92 287.34 5.94 282.01 5.98 C 282.04 3.99 282.08 1.99 282.12 0.00 Z" />
<path fill="#d5e4f2" d=" M 1.01 1.01 C 8.90 1.14 16.81 0.65 24.67 1.33 C 17.19 2.71 9.56 1.70 2.00 2.03 C 2.01 7.59 2.32 13.20 1.33 18.72 C 0.71 12.83 1.09 6.91 1.01 1.01 Z" />
<path fill="#a9c4e9" d=" M 24.67 1.33 L 25.04 1.27 C 25.30 7.21 25.36 13.15 25.14 19.09 C 17.18 19.28 9.22 19.32 1.26 19.20 L 1.33 18.72 C 2.32 13.20 2.01 7.59 2.00 2.03 C 9.56 1.70 17.19 2.71 24.67 1.33 Z" />
<path fill="#eff1f4" d=" M 15.54 11.05 C 17.16 8.97 18.99 7.06 20.93 5.27 C 20.97 7.19 21.00 9.11 21.02 11.03 C 19.19 11.02 17.37 11.00 15.54 11.05 Z" />
<path fill="#ff0000" d=" M 54.16 12.35 C 55.00 10.00 56.06 7.73 57.41 5.62 L 57.22 6.64 C 57.60 6.80 58.38 7.12 58.77 7.28 C 58.90 7.71 59.18 8.57 59.31 9.00 C 59.18 10.04 58.76 10.92 58.07 11.63 C 58.17 10.58 58.71 8.80 57.35 8.36 L 56.62 8.05 C 56.36 8.55 55.83 9.55 55.57 10.05 L 55.91 10.90 L 56.25 11.70 C 55.82 11.99 54.96 12.56 54.53 12.85 C 54.32 13.18 53.90 13.85 53.69 14.18 L 54.11 14.84 L 53.13 15.33 C 53.39 14.59 53.91 13.10 54.16 12.35 Z" />
<path fill="#5c869a" d=" M 57.41 5.62 C 57.75 6.04 58.43 6.87 58.77 7.28 C 58.38 7.12 57.60 6.80 57.22 6.64 L 57.41 5.62 Z" />
<path fill="#dbe2ed" d=" M 114.01 9.13 C 116.15 9.37 117.72 7.96 119.10 6.55 C 118.99 9.35 118.95 12.16 118.91 14.96 L 120.04 15.00 C 121.53 15.04 123.02 15.08 124.51 15.13 C 124.98 13.29 124.69 11.42 124.20 9.61 C 124.13 8.94 123.98 7.61 123.90 6.94 C 126.24 8.68 129.15 9.23 132.01 9.18 C 139.00 9.19 145.99 9.09 152.99 9.09 C 153.00 12.35 152.95 15.61 152.89 18.87 C 131.97 18.87 111.05 18.83 90.12 18.88 C 90.05 15.60 90.00 12.32 90.02 9.03 C 98.01 9.11 106.01 9.26 114.01 9.13 Z" />
<path fill="#a8753d" d=" M 119.10 6.55 L 120.47 6.05 L 120.35 6.81 C 120.32 7.54 120.26 9.01 120.23 9.74 L 120.07 11.16 C 120.04 11.85 120.00 13.21 119.98 13.89 L 120.04 15.00 L 118.91 14.96 C 118.95 12.16 118.99 9.35 119.10 6.55 Z" />
<path fill="#274156" d=" M 120.47 6.05 C 121.67 5.30 123.15 5.86 123.90 6.94 L 123.19 7.25 C 122.67 7.24 121.62 7.22 121.10 7.21 L 120.35 6.81 L 120.47 6.05 Z" />
<path fill="#6b7e92" d=" M 185.22 5.98 C 186.41 5.98 187.60 5.99 188.80 5.99 C 189.13 6.44 189.81 7.33 190.15 7.77 C 187.89 7.24 185.44 6.71 183.74 8.80 C 184.11 10.42 184.15 12.26 185.31 13.58 C 187.09 13.83 188.89 13.80 190.68 13.82 C 188.72 14.41 186.77 15.01 184.81 15.55 C 184.12 14.43 183.44 13.31 182.79 12.17 C 182.74 10.85 182.71 9.54 182.70 8.22 C 183.54 7.48 184.38 6.73 185.22 5.98 Z" />
<path fill="#dbe2ed" d=" M 242.05 9.06 C 244.08 9.30 245.01 7.36 246.18 6.09 C 245.99 9.06 245.95 12.05 245.93 15.02 C 247.55 15.02 249.18 15.01 250.81 15.00 C 251.58 14.34 252.36 13.69 253.14 13.04 C 253.24 11.70 253.33 10.35 253.38 9.01 C 262.58 9.30 271.79 9.09 280.99 9.11 C 281.00 12.36 280.95 15.61 280.88 18.86 C 259.95 18.86 239.03 18.85 218.10 18.87 C 218.04 15.59 218.00 12.31 218.02 9.04 C 226.02 9.03 234.04 9.36 242.05 9.06 Z" />
<path fill="#747c7b" d=" M 246.18 6.09 C 247.83 5.99 249.48 5.92 251.14 5.84 C 251.91 6.88 252.69 7.92 253.38 9.01 C 253.33 10.35 253.24 11.70 253.14 13.04 C 252.36 13.69 251.58 14.34 250.81 15.00 C 249.18 15.01 247.55 15.02 245.93 15.02 C 245.95 12.05 245.99 9.06 246.18 6.09 Z" />
<path fill="#e8edf4" d=" M 282.01 5.98 C 287.34 5.94 292.67 5.92 298.00 5.83 L 298.00 12.13 C 292.67 11.93 287.33 11.94 282.00 12.10 C 281.99 10.06 281.99 8.02 282.01 5.98 Z" />
<path fill="#6bb2e2" d=" M 120.35 6.81 L 121.10 7.21 C 121.09 7.87 121.06 9.18 121.04 9.84 L 120.23 9.74 C 120.26 9.01 120.32 7.54 120.35 6.81 Z" />
<path fill="#e8edee" d=" M 121.10 7.21 C 121.62 7.22 122.67 7.24 123.19 7.25 C 123.22 7.88 123.27 9.14 123.30 9.77 C 122.73 9.79 121.60 9.82 121.04 9.84 C 121.06 9.18 121.09 7.87 121.10 7.21 Z" />
<path fill="#ba8a50" d=" M 123.19 7.25 L 123.90 6.94 C 123.98 7.61 124.13 8.94 124.20 9.61 L 123.30 9.77 C 123.27 9.14 123.22 7.88 123.19 7.25 Z" />
<path fill="#69afdf" d=" M 247.90 13.91 C 246.27 12.64 246.37 8.40 247.85 7.05 C 248.22 9.32 248.25 11.63 247.90 13.91 Z" />
<path fill="#e3eaf1" d=" M 247.85 7.05 C 249.30 6.98 250.60 7.39 251.75 8.26 C 251.82 9.74 251.83 11.23 251.75 12.71 C 250.64 13.62 249.36 14.02 247.90 13.91 C 248.25 11.63 248.22 9.32 247.85 7.05 Z" />
<path fill="#68aad8" d=" M 56.62 8.05 L 57.35 8.36 C 57.23 9.41 56.75 10.25 55.91 10.90 L 55.57 10.05 C 55.83 9.55 56.36 8.55 56.62 8.05 Z" />
<path fill="#f4f8fa" d=" M 57.35 8.36 C 58.71 8.80 58.17 10.58 58.07 11.63 C 57.61 11.64 56.71 11.68 56.25 11.70 L 55.91 10.90 C 56.75 10.25 57.23 9.41 57.35 8.36 Z" />
<path fill="#ff0000" d=" M 251.75 8.26 C 251.91 8.57 252.22 9.19 252.38 9.50 C 252.38 9.99 252.40 10.97 252.40 11.46 C 252.24 11.77 251.91 12.40 251.75 12.71 C 251.83 11.23 251.82 9.74 251.75 8.26 Z" />
<path fill="#385668" d=" M 59.31 9.00 C 59.79 10.35 59.99 11.78 60.25 13.19 C 58.34 13.10 56.44 12.99 54.53 12.85 C 54.96 12.56 55.82 11.99 56.25 11.70 C 56.71 11.68 57.61 11.64 58.07 11.63 C 58.76 10.92 59.18 10.04 59.31 9.00 Z" />
<path fill="#d9e1ec" d=" M 154.02 9.15 C 163.05 9.31 172.09 8.98 181.12 9.32 C 181.68 10.26 182.23 11.21 182.79 12.17 C 183.44 13.31 184.12 14.43 184.81 15.55 C 186.77 15.01 188.72 14.41 190.68 13.82 C 199.44 14.02 208.20 13.85 216.96 14.01 C 216.95 15.63 216.93 17.26 216.92 18.89 C 195.97 18.88 175.03 18.89 154.08 18.89 C 154.03 15.64 154.00 12.40 154.02 9.15 Z" />
<path fill="#e1e8f0" d=" M 183.74 8.80 C 194.82 8.91 205.89 8.67 216.96 8.88 C 216.96 10.59 216.97 12.30 216.96 14.01 C 208.20 13.85 199.44 14.02 190.68 13.82 C 188.89 13.80 187.09 13.83 185.31 13.58 C 184.15 12.26 184.11 10.42 183.74 8.80 Z" />
<path fill="#44555f" d=" M 120.23 9.74 L 121.04 9.84 C 121.60 9.82 122.73 9.79 123.30 9.77 L 124.20 9.61 C 124.69 11.42 124.98 13.29 124.51 15.13 C 123.02 15.08 121.53 15.04 120.04 15.00 L 119.98 13.89 L 120.68 13.88 C 121.49 13.88 123.11 13.87 123.92 13.86 C 123.92 13.16 123.92 11.75 123.92 11.04 C 123.13 11.07 121.54 11.11 120.75 11.14 L 120.07 11.16 L 120.23 9.74 Z" />
<path fill="#dfe2e8" d=" M 10.84 15.76 C 12.33 14.15 13.52 12.00 15.54 11.05 C 17.37 11.00 19.19 11.02 21.02 11.03 C 20.97 12.63 20.93 14.22 20.89 15.82 C 17.54 15.84 14.19 15.84 10.84 15.76 Z" />
<path fill="#67addd" d=" M 120.07 11.16 L 120.75 11.14 C 120.73 11.82 120.70 13.19 120.68 13.88 L 119.98 13.89 C 120.00 13.21 120.04 11.85 120.07 11.16 Z" />
<path fill="#dfe1df" d=" M 120.75 11.14 C 121.54 11.11 123.13 11.07 123.92 11.04 C 123.92 11.75 123.92 13.16 123.92 13.86 C 123.11 13.87 121.49 13.88 120.68 13.88 C 120.70 13.19 120.73 11.82 120.75 11.14 Z" />
<path fill="#d9e1ec" d=" M 26.06 11.86 C 35.43 11.81 44.84 11.16 54.16 12.35 C 53.91 13.10 53.39 14.59 53.13 15.33 L 54.11 14.84 L 54.85 14.46 C 54.77 14.06 54.61 13.25 54.53 12.85 C 56.44 12.99 58.34 13.10 60.25 13.19 C 58.88 15.53 62.63 14.84 60.99 12.97 C 63.54 12.08 66.22 11.57 68.94 11.66 C 75.61 11.73 82.28 11.68 88.95 11.84 C 88.95 14.19 88.95 16.53 88.94 18.88 C 67.99 18.90 47.04 18.86 26.09 18.90 C 26.08 16.55 26.06 14.21 26.06 11.86 Z" />
<path fill="#d9e1ec" d=" M 282.00 12.10 C 287.33 11.94 292.67 11.93 298.00 12.13 L 298.00 18.89 C 292.69 18.90 287.38 18.89 282.06 18.88 C 282.04 16.62 282.01 14.36 282.00 12.10 Z" />
<path fill="#276a9e" d=" M 53.69 14.18 C 53.90 13.85 54.32 13.18 54.53 12.85 C 54.61 13.25 54.77 14.06 54.85 14.46 L 54.11 14.84 L 53.69 14.18 Z" />
<path fill="#57426a" d=" M 60.25 13.19 L 60.99 12.97 C 62.63 14.84 58.88 15.53 60.25 13.19 Z" />
<path fill="#e4ecf7" d=" M 0.00 20.00 C 8.33 20.02 16.66 19.98 24.99 20.03 C 25.01 26.35 25.01 32.67 24.99 38.99 C 16.66 39.03 8.33 38.98 0.00 39.00 L 0.00 20.00 Z" />
<path fill="#ffffff" d=" M 26.00 20.01 C 47.01 19.99 68.01 20.00 89.02 20.01 C 89.01 26.33 89.02 32.65 88.95 38.98 C 67.97 39.04 46.99 38.96 26.01 39.01 C 26.00 32.67 26.00 26.34 26.00 20.01 Z" />
<path fill="#d0d7e5" d=" M 89.02 20.01 L 89.99 20.01 C 90.02 26.33 89.98 32.65 90.02 38.97 C 111.01 39.02 131.99 39.02 152.97 38.96 C 153.00 32.64 152.98 26.32 153.04 20.01 L 154.00 20.01 C 154.00 26.33 153.97 32.66 154.04 38.99 C 175.02 38.99 196.00 39.04 216.99 38.97 C 217.01 32.64 216.98 26.32 217.02 20.00 L 218.00 20.00 C 218.00 26.33 217.97 32.65 218.02 38.97 C 239.01 39.03 259.99 39.01 280.97 38.98 C 281.03 32.65 281.00 26.33 281.00 20.00 L 281.97 20.00 C 282.00 26.32 281.99 32.64 282.02 38.97 C 287.35 39.01 292.67 39.01 298.00 38.99 L 298.00 39.97 C 292.68 39.99 287.35 40.00 282.03 40.03 C 281.97 46.33 281.94 52.62 282.11 58.91 C 287.41 59.02 292.70 59.03 298.00 59.00 L 298.00 60.02 C 292.69 59.98 287.32 60.42 282.08 59.34 C 281.85 59.30 281.39 59.21 281.16 59.17 C 280.82 52.80 281.07 46.41 280.99 40.03 C 260.01 39.96 239.03 40.00 218.05 40.03 C 217.98 46.35 218.01 52.68 217.97 59.00 L 216.98 59.00 C 217.02 52.68 217.04 46.36 217.00 40.04 C 196.00 39.97 175.01 39.98 154.01 40.04 C 153.99 46.36 154.02 52.68 153.99 59.00 L 152.99 59.00 C 153.00 52.67 153.03 46.34 152.96 40.01 C 131.98 40.02 110.99 39.93 90.00 40.06 C 90.02 46.43 89.97 52.80 90.00 59.17 L 89.56 59.27 L 88.90 59.43 C 85.00 60.34 80.97 59.97 77.00 60.00 C 60.00 59.98 43.00 60.05 26.01 59.97 L 26.01 59.00 C 46.96 58.95 67.92 59.11 88.87 58.91 C 89.09 52.61 89.04 46.30 88.95 40.00 C 67.97 39.97 46.99 40.04 26.01 39.98 L 26.01 39.01 C 46.99 38.96 67.97 39.04 88.95 38.98 C 89.02 32.65 89.01 26.33 89.02 20.01 Z" />
<path fill="#ffffff" d=" M 89.99 20.01 C 111.00 20.00 132.02 20.00 153.04 20.01 C 152.98 26.32 153.00 32.64 152.97 38.96 C 131.99 39.02 111.01 39.02 90.02 38.97 C 89.98 32.65 90.02 26.33 89.99 20.01 Z" />
<path fill="#ffffff" d=" M 154.00 20.01 C 175.01 20.00 196.02 20.00 217.02 20.00 C 216.98 26.32 217.01 32.64 216.99 38.97 C 196.00 39.04 175.02 38.99 154.04 38.99 C 153.97 32.66 154.00 26.33 154.00 20.01 Z" />
<path fill="#ffffff" d=" M 218.00 20.00 C 239.00 20.00 260.00 20.00 281.00 20.00 C 281.00 26.33 281.03 32.65 280.97 38.98 C 259.99 39.01 239.01 39.03 218.02 38.97 C 217.97 32.65 218.00 26.33 218.00 20.00 Z" />
<path fill="#ffffff" d=" M 281.97 20.00 C 287.31 19.99 292.66 19.99 298.00 20.03 L 298.00 38.99 C 292.67 39.01 287.35 39.01 282.02 38.97 C 281.99 32.64 282.00 26.32 281.97 20.00 Z" />
<path fill="#27413e" d=" M 5.15 26.89 C 5.23 26.74 5.41 26.44 5.49 26.30 L 5.58 26.83 L 5.15 26.89 Z" />
<path fill="#6ab1e4" d=" M 5.49 26.30 L 7.02 25.96 C 7.02 28.56 6.99 31.16 6.80 33.75 L 5.74 33.66 C 6.18 31.40 6.00 29.08 5.58 26.83 L 5.49 26.30 Z" />
<path fill="#576262" d=" M 9.94 27.43 C 10.00 25.93 12.74 25.43 13.83 26.27 L 13.76 26.76 L 13.64 27.21 C 12.41 27.58 11.17 27.65 9.94 27.43 Z" />
<path fill="#5673b5" d=" M 13.83 26.27 C 15.75 26.43 15.96 30.47 14.08 30.59 C 13.93 29.32 13.82 28.04 13.76 26.76 L 13.83 26.27 Z" />
<path fill="#8f7e84" d=" M 17.69 30.59 C 16.81 29.03 16.43 27.42 18.06 26.25 L 18.01 26.73 C 17.71 28.21 18.20 29.34 19.49 30.14 L 19.21 30.68 C 18.87 31.35 18.21 32.67 17.88 33.34 L 17.37 33.45 L 15.67 33.75 C 16.32 32.68 16.99 31.63 17.69 30.59 Z" />
<path fill="#4e546d" d=" M 18.06 26.25 C 19.28 25.29 21.70 25.76 22.12 27.38 C 21.84 27.81 21.30 28.69 21.03 29.13 C 20.95 27.64 19.38 26.72 18.01 26.73 L 18.06 26.25 Z" />
<path fill="#8d423d" d=" M 3.24 27.25 C 3.87 27.80 3.87 27.80 3.24 27.25 Z" />
<path fill="#a8763d" d=" M 5.15 26.89 L 5.58 26.83 C 6.00 29.08 6.18 31.40 5.74 33.66 L 5.05 33.75 C 4.57 31.61 4.68 29.05 5.15 26.89 Z" />
<path fill="#96957e" d=" M 13.64 27.21 L 13.76 26.76 C 13.82 28.04 13.93 29.32 14.08 30.59 L 14.22 31.79 C 13.32 32.49 12.41 33.16 11.47 33.81 C 11.06 33.94 10.23 34.21 9.81 34.34 C 11.32 32.09 13.47 30.08 13.64 27.21 Z" />
<path fill="#d1e7e6" d=" M 18.01 26.73 C 19.38 26.72 20.95 27.64 21.03 29.13 C 20.85 29.31 20.48 29.66 20.30 29.84 L 19.49 30.14 C 18.20 29.34 17.71 28.21 18.01 26.73 Z" />
<path fill="#a8d4f2" d=" M 22.12 27.38 C 24.38 27.28 22.62 31.18 21.02 29.81 L 21.03 29.13 C 21.30 28.69 21.84 27.81 22.12 27.38 Z" />
<path fill="#a8763d" d=" M 20.30 29.84 C 20.48 29.66 20.85 29.31 21.03 29.13 L 21.02 29.81 L 20.30 29.84 Z" />
<path fill="#526b7a" d=" M 19.49 30.14 L 20.30 29.84 L 21.02 29.81 C 21.26 30.20 21.74 30.99 21.98 31.38 L 21.70 31.99 L 20.92 32.10 C 20.49 31.75 19.63 31.04 19.21 30.68 L 19.49 30.14 Z" />
<path fill="#dce9eb" d=" M 19.21 30.68 C 19.63 31.04 20.49 31.75 20.92 32.10 C 20.90 32.57 20.85 33.50 20.83 33.96 C 20.15 33.96 18.78 33.96 18.10 33.96 L 17.88 33.34 C 18.21 32.67 18.87 31.35 19.21 30.68 Z" />
<path fill="#96c9ef" d=" M 21.98 31.38 C 24.49 31.27 23.00 36.03 20.89 34.56 L 20.83 33.96 C 21.05 33.47 21.49 32.48 21.70 31.99 L 21.98 31.38 Z" />
<path fill="#895c3d" d=" M 20.92 32.10 L 21.70 31.99 C 21.49 32.48 21.05 33.47 20.83 33.96 C 20.85 33.50 20.90 32.57 20.92 32.10 Z" />
<path fill="#27429c" d=" M 17.37 33.45 L 17.88 33.34 L 18.10 33.96 L 17.53 34.02 L 17.37 33.45 Z" />
<path fill="#8d423d" d=" M 3.56 34.57 C 3.74 34.47 4.10 34.25 4.28 34.15 L 4.13 34.67 L 3.56 34.57 Z" />
<path fill="#34575f" d=" M 4.28 34.15 L 5.05 33.75 L 5.74 33.66 L 6.80 33.75 C 10.90 34.43 5.39 36.17 4.13 34.67 L 4.28 34.15 Z" />
<path fill="#27413e" d=" M 9.81 34.34 C 10.23 34.21 11.06 33.94 11.47 33.81 C 12.36 33.93 14.12 34.18 15.01 34.30 L 15.07 34.74 C 13.50 35.15 11.04 35.45 9.81 34.34 Z" />
<path fill="#2797cf" d=" M 15.01 34.30 C 15.02 34.41 15.06 34.63 15.07 34.74 L 15.01 34.30 Z" />
<path fill="#be973d" d=" M 17.53 34.02 L 18.10 33.96 L 18.09 34.56 C 17.95 34.43 17.67 34.15 17.53 34.02 Z" />
<path fill="#27413e" d=" M 18.10 33.96 C 18.78 33.96 20.15 33.96 20.83 33.96 L 20.89 34.56 L 20.08 35.15 C 19.59 35.01 18.59 34.71 18.09 34.56 L 18.10 33.96 Z" />
<path fill="#e4ecf7" d=" M 0.00 40.00 C 8.33 40.01 16.66 39.98 24.99 40.03 C 25.01 46.35 25.02 52.67 24.98 58.99 C 16.66 59.00 8.33 59.04 0.00 58.94 L 0.00 40.00 Z" />
<path fill="#ffffff" d=" M 26.01 39.98 C 46.99 40.04 67.97 39.97 88.95 40.00 C 89.04 46.30 89.09 52.61 88.87 58.91 C 67.92 59.11 46.96 58.95 26.01 59.00 C 26.00 52.66 26.00 46.32 26.01 39.98 Z" />
<path fill="#ffffff" d=" M 90.00 40.06 C 110.99 39.93 131.98 40.02 152.96 40.01 C 153.03 46.34 153.00 52.67 152.99 59.00 C 131.99 59.12 110.98 58.76 90.00 59.17 C 89.97 52.80 90.02 46.43 90.00 40.06 Z" />
<path fill="#ffffff" d=" M 154.01 40.04 C 175.01 39.98 196.00 39.97 217.00 40.04 C 217.04 46.36 217.02 52.68 216.98 59.00 C 195.99 59.00 174.99 59.00 153.99 59.00 C 154.02 52.68 153.99 46.36 154.01 40.04 Z" />
<path fill="#ffffff" d=" M 218.05 40.03 C 239.03 40.00 260.01 39.96 280.99 40.03 C 281.07 46.41 280.82 52.80 281.16 59.17 C 260.10 58.77 239.03 59.12 217.97 59.00 C 218.01 52.68 217.98 46.35 218.05 40.03 Z" />
<path fill="#ffffff" d=" M 282.03 40.03 C 287.35 40.00 292.68 39.99 298.00 39.97 L 298.00 59.00 C 292.70 59.03 287.41 59.02 282.11 58.91 C 281.94 52.62 281.97 46.33 282.03 40.03 Z" />
<path fill="#27413e" d=" M 5.15 46.90 C 5.23 46.75 5.40 46.45 5.49 46.30 L 5.58 46.84 L 5.15 46.90 Z" />
<path fill="#6ab1e4" d=" M 5.49 46.30 L 7.01 45.94 C 7.02 48.55 6.99 51.16 6.82 53.76 L 5.76 53.66 C 6.18 51.41 6.00 49.08 5.58 46.84 L 5.49 46.30 Z" />
<path fill="#576262" d=" M 9.91 47.45 C 9.94 45.83 12.85 45.36 13.94 46.33 L 13.81 46.80 L 13.30 47.13 C 12.17 47.56 11.04 47.67 9.91 47.45 Z" />
<path fill="#5673b5" d=" M 13.94 46.33 C 15.81 46.49 15.94 50.52 14.07 50.58 C 13.92 49.32 13.83 48.07 13.81 46.80 L 13.94 46.33 Z" />
<path fill="#e0caa7" d=" M 17.36 49.82 C 14.73 50.04 15.78 44.88 18.18 46.43 L 18.31 46.99 C 17.05 47.62 16.73 48.57 17.36 49.82 Z" />
<path fill="#274151" d=" M 18.18 46.43 C 19.31 45.32 20.23 45.35 20.95 46.53 L 20.18 47.04 C 19.71 47.03 18.78 47.00 18.31 46.99 L 18.18 46.43 Z" />
<path fill="#8d423d" d=" M 3.29 47.23 C 3.86 47.83 3.86 47.83 3.29 47.23 Z" />
<path fill="#a8763d" d=" M 5.15 46.90 L 5.58 46.84 C 6.00 49.08 6.18 51.41 5.76 53.66 L 5.06 53.76 C 4.56 51.62 4.70 49.06 5.15 46.90 Z" />
<path fill="#96957e" d=" M 13.30 47.13 L 13.81 46.80 C 13.83 48.07 13.92 49.32 14.07 50.58 L 14.21 51.80 C 13.31 52.50 12.38 53.16 11.44 53.81 C 11.04 53.94 10.23 54.22 9.82 54.35 C 11.04 51.99 14.17 50.12 13.30 47.13 Z" />
<path fill="#275399" d=" M 17.36 49.82 C 16.73 48.57 17.05 47.62 18.31 46.99 C 18.28 47.65 18.20 48.95 18.17 49.60 L 17.36 49.82 Z" />
<path fill="#d3e9f1" d=" M 18.31 46.99 C 18.78 47.00 19.71 47.03 20.18 47.04 C 20.86 47.88 21.10 48.86 20.90 49.98 C 20.22 49.89 18.85 49.70 18.17 49.60 C 18.20 48.95 18.28 47.65 18.31 46.99 Z" />
<path fill="#ff0000" d=" M 20.18 47.04 L 20.95 46.53 C 21.75 49.26 21.86 52.26 19.97 54.59 C 20.17 53.68 20.56 51.86 20.76 50.95 L 20.91 50.39 L 20.90 49.98 C 21.10 48.86 20.86 47.88 20.18 47.04 Z" />
<path fill="#87b7e3" d=" M 20.95 46.53 C 24.22 48.39 23.20 54.11 19.69 55.13 L 19.97 54.59 C 21.86 52.26 21.75 49.26 20.95 46.53 Z" />
<path fill="#4d574c" d=" M 17.36 49.82 L 18.17 49.60 C 18.85 49.70 20.22 49.89 20.90 49.98 L 20.91 50.39 L 20.76 50.95 C 19.12 51.57 17.98 51.20 17.36 49.82 Z" />
<path fill="#8d423d" d=" M 3.56 54.57 C 3.74 54.46 4.10 54.26 4.28 54.15 L 4.13 54.67 L 3.56 54.57 Z" />
<path fill="#34575f" d=" M 4.28 54.15 L 5.06 53.76 L 5.76 53.66 L 6.82 53.76 C 10.92 54.46 5.37 56.15 4.13 54.67 L 4.28 54.15 Z" />
<path fill="#27413e" d=" M 9.82 54.35 C 10.23 54.22 11.04 53.94 11.44 53.81 C 12.33 53.93 14.10 54.17 14.99 54.29 L 15.09 54.72 C 13.51 55.17 11.09 55.43 9.82 54.35 Z" />
<path fill="#2797cf" d=" M 14.99 54.29 C 15.02 54.40 15.07 54.62 15.09 54.72 L 14.99 54.29 Z" />
<path fill="#3d413e" d=" M 17.28 54.70 C 17.93 53.53 18.83 53.49 19.97 54.59 L 19.69 55.13 C 19.09 55.02 17.88 54.81 17.28 54.70 Z" />
<path fill="#ff0000" d=" M 89.56 59.27 L 90.00 59.17 C 110.98 58.76 131.99 59.12 152.99 59.00 L 153.99 59.00 C 174.99 59.00 195.99 59.00 216.98 59.00 L 217.97 59.00 C 239.03 59.12 260.10 58.77 281.16 59.17 C 281.39 59.21 281.85 59.30 282.08 59.34 C 281.90 66.02 282.07 72.70 282.00 79.38 C 281.81 79.53 281.44 79.84 281.25 79.99 C 260.16 80.02 239.08 79.99 217.99 80.00 L 217.00 80.00 C 196.00 80.00 175.00 80.00 154.00 80.00 L 153.01 80.00 C 131.79 80.02 110.57 79.96 89.36 80.03 L 89.26 79.52 L 89.18 79.01 C 88.76 72.49 89.15 65.96 88.90 59.43 L 89.56 59.27 Z" />
<path fill="#e4ecf7" d=" M 0.00 60.00 C 8.33 60.01 16.65 59.99 24.98 60.01 C 25.02 66.34 25.02 72.67 24.98 79.00 C 16.65 79.01 8.33 78.99 0.00 79.00 L 0.00 60.00 Z" />
<path fill="#ffffff" d=" M 26.01 59.97 C 43.00 60.05 60.00 59.98 77.00 60.00 C 80.97 59.97 85.00 60.34 88.90 59.43 C 89.15 65.96 88.76 72.49 89.18 79.01 C 68.12 79.00 47.06 78.99 26.01 79.00 C 26.00 72.66 26.00 66.31 26.01 59.97 Z" />
<path fill="#ffffff" d=" M 282.08 59.34 C 287.32 60.42 292.69 59.98 298.00 60.02 L 298.00 79.02 C 292.67 79.02 287.31 78.73 282.00 79.38 C 282.07 72.70 281.90 66.02 282.08 59.34 Z" />
<path fill="#27413e" d=" M 5.15 66.89 C 5.23 66.74 5.40 66.45 5.49 66.30 L 5.58 66.83 L 5.15 66.89 Z" />
<path fill="#6ab1e4" d=" M 5.49 66.30 L 7.01 65.95 C 7.02 68.56 7.00 71.16 6.83 73.76 L 5.76 73.67 C 6.18 71.41 6.00 69.08 5.58 66.83 L 5.49 66.30 Z" />
<path fill="#5e6275" d=" M 10.00 67.37 C 10.02 65.70 13.10 65.34 13.92 66.70 L 13.92 67.30 L 13.21 67.40 C 12.12 67.57 11.05 67.56 10.00 67.37 Z" />
<path fill="#495c6e" d=" M 18.05 66.87 C 18.47 65.18 21.47 65.75 21.93 67.25 L 21.97 67.87 L 21.50 67.98 C 20.77 67.75 19.31 67.28 18.58 67.05 L 18.05 66.87 Z" />
<path fill="#8d423d" d=" M 3.24 67.25 C 3.88 67.79 3.88 67.79 3.24 67.25 Z" />
<path fill="#a8763d" d=" M 5.15 66.89 L 5.58 66.83 C 6.00 69.08 6.18 71.41 5.76 73.67 L 5.06 73.76 C 4.56 71.62 4.70 69.06 5.15 66.89 Z" />
<path fill="#c8a45b" d=" M 13.21 67.40 L 13.92 67.30 C 13.90 67.78 13.84 68.73 13.82 69.21 L 13.15 69.16 C 13.16 68.72 13.19 67.84 13.21 67.40 Z" />
<path fill="#3d95ce" d=" M 13.92 67.30 C 15.52 66.47 15.84 70.04 14.16 69.90 L 13.82 69.21 C 13.84 68.73 13.90 67.78 13.92 67.30 Z" />
<path fill="#5681b7" d=" M 16.70 66.45 L 18.05 66.87 L 18.58 67.05 C 17.96 69.34 18.03 71.74 18.78 73.99 L 17.91 74.24 C 17.32 72.32 17.03 70.32 16.85 68.33 L 16.70 66.45 Z" />
<path fill="#deeaee" d=" M 18.58 67.05 C 19.31 67.28 20.77 67.75 21.50 67.98 C 20.93 69.93 20.52 71.92 20.03 73.90 L 18.78 73.99 C 18.03 71.74 17.96 69.34 18.58 67.05 Z" />
<path fill="#7db5e5" d=" M 21.93 67.25 C 23.50 69.28 23.91 73.64 20.65 74.15 C 22.44 72.54 22.30 70.04 21.97 67.87 L 21.93 67.25 Z" />
<path fill="#d0b086" d=" M 17.91 74.24 C 15.51 74.09 14.83 69.21 16.85 68.33 C 17.03 70.32 17.32 72.32 17.91 74.24 Z" />
<path fill="#bc9762" d=" M 21.50 67.98 L 21.97 67.87 C 22.30 70.04 22.44 72.54 20.65 74.15 L 20.03 73.90 C 20.52 71.92 20.93 69.93 21.50 67.98 Z" />
<path fill="#616d6e" d=" M 13.15 69.16 L 13.82 69.21 L 14.16 69.90 L 13.95 70.89 L 13.15 71.27 C 12.58 71.41 9.96 71.05 11.11 70.11 C 11.62 69.87 12.64 69.40 13.15 69.16 Z" />
<path fill="#dbc698" d=" M 13.15 71.27 L 13.95 70.89 C 13.81 71.39 13.54 72.40 13.40 72.91 C 13.34 72.50 13.21 71.68 13.15 71.27 Z" />
<path fill="#495272" d=" M 13.95 70.89 C 15.63 71.53 15.25 74.40 13.53 74.85 C 12.89 74.85 11.60 74.84 10.95 74.84 L 10.99 74.39 C 11.59 74.02 12.80 73.28 13.40 72.91 C 13.54 72.40 13.81 71.39 13.95 70.89 Z" />
<path fill="#8d423d" d=" M 3.53 74.55 C 3.71 74.45 4.08 74.25 4.27 74.15 L 4.10 74.67 L 3.53 74.55 Z" />
<path fill="#34575f" d=" M 4.27 74.15 L 5.06 73.76 L 5.76 73.67 L 6.83 73.76 C 10.90 74.46 5.31 76.15 4.10 74.67 L 4.27 74.15 Z" />
<path fill="#a8763d" d=" M 10.95 74.84 C 10.96 74.73 10.98 74.50 10.99 74.39 L 10.95 74.84 Z" />
<path fill="#3d4251" d=" M 17.91 74.24 L 18.78 73.99 L 20.03 73.90 L 20.65 74.15 L 20.65 74.76 C 19.39 75.66 18.48 75.48 17.91 74.24 Z" />
<path fill="#d0d7e5" d=" M 26.01 79.00 C 47.06 78.99 68.12 79.00 89.18 79.01 L 89.26 79.52 L 89.36 80.03 C 90.61 86.27 89.78 92.65 90.01 98.96 C 110.99 99.07 131.98 98.97 152.97 98.99 C 153.03 92.66 152.99 86.33 153.01 80.00 L 154.00 80.00 C 153.99 86.33 153.98 92.66 154.04 98.99 C 175.02 98.99 195.99 99.04 216.97 98.97 C 217.01 92.65 216.99 86.32 217.00 80.00 L 217.99 80.00 C 218.00 86.32 217.98 92.64 218.03 98.96 C 239.02 99.03 260.00 99.02 280.98 98.98 C 281.11 92.65 280.73 86.31 281.25 79.99 C 281.44 79.84 281.81 79.53 282.00 79.38 C 287.31 78.73 292.67 79.02 298.00 79.02 L 298.00 80.03 C 292.70 79.96 287.41 79.97 282.11 80.09 C 281.92 86.38 281.97 92.67 282.03 98.95 C 287.35 99.01 292.68 99.02 298.00 99.00 L 298.00 100.02 C 292.67 99.98 287.35 99.98 282.03 100.05 C 281.97 106.33 281.95 112.61 282.10 118.90 C 287.40 119.02 292.70 119.04 298.00 118.99 L 298.00 120.03 C 292.61 120.02 287.21 119.96 281.82 120.00 L 281.73 119.52 L 281.61 118.94 C 280.35 112.72 281.26 106.34 281.00 100.05 C 260.02 99.95 239.03 100.00 218.04 100.02 C 217.98 106.35 218.00 112.67 218.00 119.00 L 216.99 119.00 C 217.00 112.68 217.03 106.36 217.00 100.04 C 196.00 100.00 175.01 99.93 154.01 100.06 C 153.98 106.37 154.00 112.69 153.98 119.00 L 153.00 119.00 C 153.00 112.67 153.02 106.34 152.96 100.01 C 131.98 100.00 111.00 99.98 90.02 100.02 C 89.74 106.31 90.59 112.67 89.48 118.90 L 89.27 119.58 L 89.15 120.02 C 68.10 119.95 47.05 120.07 26.01 119.95 L 26.01 119.00 C 46.97 118.94 67.94 119.12 88.91 118.91 C 89.05 112.61 89.03 106.31 88.95 100.01 C 67.97 99.96 46.99 100.05 26.01 99.97 L 26.01 99.00 C 46.99 98.96 67.98 99.06 88.97 98.96 C 89.03 92.68 89.05 86.39 88.89 80.10 C 67.93 79.84 46.97 80.11 26.01 79.96 L 26.01 79.00 Z" />
<path fill="#e4ecf7" d=" M 0.00 80.00 C 8.33 80.00 16.66 79.98 24.99 80.02 C 25.01 86.34 25.01 92.66 24.99 98.97 C 16.66 99.03 8.33 98.98 0.00 99.00 L 0.00 80.00 Z" />
<path fill="#ffffff" d=" M 26.01 79.96 C 46.97 80.11 67.93 79.84 88.89 80.10 C 89.05 86.39 89.03 92.68 88.97 98.96 C 67.98 99.06 46.99 98.96 26.01 99.00 C 26.00 92.65 26.00 86.31 26.01 79.96 Z" />
<path fill="#ffffff" d=" M 89.36 80.03 C 110.57 79.96 131.79 80.02 153.01 80.00 C 152.99 86.33 153.03 92.66 152.97 98.99 C 131.98 98.97 110.99 99.07 90.01 98.96 C 89.78 92.65 90.61 86.27 89.36 80.03 Z" />
<path fill="#ffffff" d=" M 154.00 80.00 C 175.00 80.00 196.00 80.00 217.00 80.00 C 216.99 86.32 217.01 92.65 216.97 98.97 C 195.99 99.04 175.02 98.99 154.04 98.99 C 153.98 92.66 153.99 86.33 154.00 80.00 Z" />
<path fill="#ffffff" d=" M 217.99 80.00 C 239.08 79.99 260.16 80.02 281.25 79.99 C 280.73 86.31 281.11 92.65 280.98 98.98 C 260.00 99.02 239.02 99.03 218.03 98.96 C 217.98 92.64 218.00 86.32 217.99 80.00 Z" />
<path fill="#ffffff" d=" M 282.11 80.09 C 287.41 79.97 292.70 79.96 298.00 80.03 L 298.00 99.00 C 292.68 99.02 287.35 99.01 282.03 98.95 C 281.97 92.67 281.92 86.38 282.11 80.09 Z" />
<path fill="#27413e" d=" M 5.15 86.89 C 5.23 86.74 5.40 86.45 5.49 86.30 L 5.58 86.84 L 5.15 86.89 Z" />
<path fill="#6ab1e4" d=" M 5.49 86.30 L 7.02 85.95 C 7.02 88.55 6.98 91.16 6.81 93.76 L 5.75 93.66 C 6.18 91.41 6.00 89.08 5.58 86.84 L 5.49 86.30 Z" />
<path fill="#5e6275" d=" M 9.98 87.38 C 10.02 85.71 13.08 85.34 13.92 86.70 L 13.92 87.30 L 13.21 87.40 C 12.11 87.57 11.03 87.56 9.98 87.38 Z" />
<path fill="#27413e" d=" M 19.15 86.88 C 19.23 86.73 19.41 86.44 19.49 86.29 L 19.58 86.83 L 19.15 86.88 Z" />
<path fill="#6ab1e4" d=" M 19.49 86.29 L 21.02 85.95 C 21.02 88.55 20.99 91.16 20.81 93.76 L 19.75 93.67 C 20.17 91.40 20.00 89.08 19.58 86.83 L 19.49 86.29 Z" />
<path fill="#8d423d" d=" M 3.22 87.23 C 3.83 87.80 3.83 87.80 3.22 87.23 Z" />
<path fill="#a8763d" d=" M 5.15 86.89 L 5.58 86.84 C 6.00 89.08 6.18 91.41 5.75 93.66 L 5.05 93.76 C 4.57 91.61 4.68 89.05 5.15 86.89 Z" />
<path fill="#c8a45b" d=" M 13.21 87.40 L 13.92 87.30 C 13.90 87.77 13.84 88.73 13.82 89.20 L 13.15 89.15 C 13.16 88.71 13.19 87.84 13.21 87.40 Z" />
<path fill="#3d95ce" d=" M 13.92 87.30 C 15.53 86.51 15.84 90.07 14.16 89.90 L 13.82 89.20 C 13.84 88.73 13.90 87.77 13.92 87.30 Z" />
<path fill="#8d423d" d=" M 17.21 87.24 C 17.80 87.82 17.80 87.82 17.21 87.24 Z" />
<path fill="#a8763d" d=" M 19.15 86.88 L 19.58 86.83 C 20.00 89.08 20.17 91.40 19.75 93.67 L 19.06 93.75 C 18.58 91.61 18.68 89.04 19.15 86.88 Z" />
<path fill="#616d6e" d=" M 13.15 89.15 L 13.82 89.20 L 14.16 89.90 L 13.95 90.89 L 13.16 91.27 C 12.58 91.41 9.99 91.06 11.13 90.11 C 11.63 89.87 12.64 89.39 13.15 89.15 Z" />
<path fill="#dbc698" d=" M 13.16 91.27 L 13.95 90.89 C 13.82 91.40 13.54 92.41 13.40 92.91 C 13.34 92.50 13.22 91.68 13.16 91.27 Z" />
<path fill="#495272" d=" M 13.95 90.89 C 15.65 91.53 15.24 94.41 13.52 94.85 C 12.88 94.85 11.59 94.84 10.95 94.84 L 10.99 94.39 C 11.59 94.02 12.80 93.28 13.40 92.91 C 13.54 92.41 13.82 91.40 13.95 90.89 Z" />
<path fill="#8d423d" d=" M 3.55 94.56 C 3.73 94.46 4.09 94.25 4.27 94.15 L 4.12 94.67 L 3.55 94.56 Z" />
<path fill="#34575f" d=" M 4.27 94.15 L 5.05 93.76 L 5.75 93.66 L 6.81 93.76 C 10.89 94.46 5.35 96.16 4.12 94.67 L 4.27 94.15 Z" />
<path fill="#a8763d" d=" M 10.95 94.84 C 10.96 94.73 10.98 94.50 10.99 94.39 L 10.95 94.84 Z" />
<path fill="#8d423d" d=" M 17.54 94.55 C 17.72 94.45 18.09 94.25 18.27 94.15 L 18.11 94.66 L 17.54 94.55 Z" />
<path fill="#34575f" d=" M 18.27 94.15 L 19.06 93.75 L 19.75 93.67 L 20.81 93.76 C 24.89 94.46 19.33 96.16 18.11 94.66 L 18.27 94.15 Z" />
<path fill="#e4ecf7" d=" M 0.00 100.00 C 8.33 100.00 16.66 99.99 24.98 100.01 C 25.02 106.33 25.02 112.66 24.98 118.98 C 16.66 119.02 8.33 118.99 0.00 119.01 L 0.00 100.00 Z" />
<path fill="#ffffff" d=" M 26.01 99.97 C 46.99 100.05 67.97 99.96 88.95 100.01 C 89.03 106.31 89.05 112.61 88.91 118.91 C 67.94 119.12 46.97 118.94 26.01 119.00 C 26.00 112.66 26.00 106.32 26.01 99.97 Z" />
<path fill="#ffffff" d=" M 90.02 100.02 C 111.00 99.98 131.98 100.00 152.96 100.01 C 153.02 106.34 153.00 112.67 153.00 119.00 C 131.83 118.94 110.65 119.13 89.48 118.90 C 90.59 112.67 89.74 106.31 90.02 100.02 Z" />
<path fill="#ffffff" d=" M 154.01 100.06 C 175.01 99.93 196.00 100.00 217.00 100.04 C 217.03 106.36 217.00 112.68 216.99 119.00 C 195.99 119.00 174.99 119.00 153.98 119.00 C 154.00 112.69 153.98 106.37 154.01 100.06 Z" />
<path fill="#ffffff" d=" M 218.04 100.02 C 239.03 100.00 260.02 99.95 281.00 100.05 C 281.26 106.34 280.35 112.72 281.61 118.94 C 260.41 119.07 239.20 118.97 218.00 119.00 C 218.00 112.67 217.98 106.35 218.04 100.02 Z" />
<path fill="#ffffff" d=" M 282.03 100.05 C 287.35 99.98 292.67 99.98 298.00 100.02 L 298.00 118.99 C 292.70 119.04 287.40 119.02 282.10 118.90 C 281.95 112.61 281.97 106.33 282.03 100.05 Z" />
<path fill="#27413e" d=" M 5.15 106.89 C 5.23 106.74 5.40 106.45 5.49 106.30 L 5.58 106.83 L 5.15 106.89 Z" />
<path fill="#6ab1e4" d=" M 5.49 106.30 L 7.02 105.95 C 7.02 108.55 6.99 111.16 6.80 113.76 L 5.75 113.66 C 6.18 111.40 6.00 109.07 5.58 106.83 L 5.49 106.30 Z" />
<path fill="#5e6275" d=" M 9.94 107.00 C 10.73 105.73 12.99 105.41 13.92 106.70 L 13.92 107.30 L 13.21 107.40 C 12.28 107.11 10.26 108.25 9.94 107.00 Z" />
<path fill="#576262" d=" M 16.93 107.45 C 16.94 105.82 19.87 105.36 20.96 106.33 L 20.83 106.80 L 20.31 107.13 C 19.19 107.56 18.06 107.66 16.93 107.45 Z" />
<path fill="#5673b5" d=" M 20.96 106.33 C 22.83 106.50 22.94 110.55 21.07 110.57 C 20.92 109.32 20.84 108.06 20.83 106.80 L 20.96 106.33 Z" />
<path fill="#8d423d" d=" M 3.27 107.21 C 3.81 107.84 3.81 107.84 3.27 107.21 Z" />
<path fill="#a8763d" d=" M 5.15 106.89 L 5.58 106.83 C 6.00 109.07 6.18 111.40 5.75 113.66 L 5.05 113.75 C 4.57 111.61 4.69 109.05 5.15 106.89 Z" />
<path fill="#c8a45b" d=" M 13.21 107.40 L 13.92 107.30 C 13.90 107.77 13.85 108.73 13.82 109.20 L 13.15 109.16 C 13.16 108.72 13.20 107.84 13.21 107.40 Z" />
<path fill="#3d95ce" d=" M 13.92 107.30 C 15.52 106.48 15.85 110.04 14.17 109.89 L 13.82 109.20 C 13.85 108.73 13.90 107.77 13.92 107.30 Z" />
<path fill="#96957e" d=" M 20.31 107.13 L 20.83 106.80 C 20.84 108.06 20.92 109.32 21.07 110.57 L 21.20 111.80 C 20.30 112.49 19.39 113.16 18.45 113.80 C 18.04 113.94 17.22 114.20 16.81 114.34 C 18.06 111.99 21.15 110.12 20.31 107.13 Z" />
<path fill="#616d6e" d=" M 13.15 109.16 L 13.82 109.20 L 14.17 109.89 L 13.96 110.88 L 13.16 111.26 C 12.59 111.41 9.97 111.06 11.12 110.11 C 11.63 109.87 12.64 109.39 13.15 109.16 Z" />
<path fill="#dbc698" d=" M 13.16 111.26 L 13.96 110.88 C 13.83 111.39 13.56 112.39 13.43 112.90 C 13.36 112.49 13.23 111.67 13.16 111.26 Z" />
<path fill="#495272" d=" M 13.96 110.88 C 16.89 112.48 13.32 116.55 10.91 114.73 L 11.01 114.29 C 11.62 113.94 12.82 113.24 13.43 112.90 C 13.56 112.39 13.83 111.39 13.96 110.88 Z" />
<path fill="#8d423d" d=" M 3.55 114.56 C 3.73 114.46 4.09 114.25 4.27 114.15 L 4.12 114.67 L 3.55 114.56 Z" />
<path fill="#34575f" d=" M 4.27 114.15 L 5.05 113.75 L 5.75 113.66 L 6.80 113.76 C 10.89 114.46 5.36 116.15 4.12 114.67 L 4.27 114.15 Z" />
<path fill="#a8763d" d=" M 10.91 114.73 C 10.94 114.62 10.99 114.40 11.01 114.29 L 10.91 114.73 Z" />
<path fill="#27413e" d=" M 16.81 114.34 C 17.22 114.20 18.04 113.94 18.45 113.80 C 19.34 113.93 21.11 114.18 21.99 114.30 L 22.07 114.74 C 20.49 115.15 18.06 115.44 16.81 114.34 Z" />
<path fill="#2797cf" d=" M 21.99 114.30 C 22.01 114.41 22.05 114.63 22.07 114.74 L 21.99 114.30 Z" />
<path fill="#ff0000" d=" M 89.27 119.58 L 89.48 118.90 C 110.65 119.13 131.83 118.94 153.00 119.00 L 153.98 119.00 C 174.99 119.00 195.99 119.00 216.99 119.00 L 218.00 119.00 C 239.20 118.97 260.41 119.07 281.61 118.94 L 281.73 119.52 L 281.82 120.00 C 282.26 126.48 281.82 132.98 282.12 139.47 L 281.45 139.72 L 280.99 139.87 C 260.01 140.18 239.00 139.91 218.00 140.00 L 217.01 140.00 C 196.00 140.00 175.00 140.00 153.99 140.00 L 153.00 140.00 C 131.99 139.87 110.97 140.25 89.98 139.82 L 89.52 139.73 L 88.93 139.60 C 89.12 133.07 88.79 126.54 89.15 120.02 L 89.27 119.58 Z" />
<path fill="#e4ecf7" d=" M 0.00 120.00 C 8.33 120.01 16.66 119.98 24.99 120.01 C 25.02 126.34 25.01 132.67 24.98 138.99 C 16.65 139.00 8.33 139.02 0.00 138.97 L 0.00 120.00 Z" />
<path fill="#ffffff" d=" M 26.01 119.95 C 47.05 120.07 68.10 119.95 89.15 120.02 C 88.79 126.54 89.12 133.07 88.93 139.60 C 86.64 139.09 84.30 138.92 81.96 138.94 C 63.31 139.08 44.66 138.94 26.01 139.03 C 26.00 132.67 26.00 126.31 26.01 119.95 Z" />
<path fill="#ffffff" d=" M 281.82 120.00 C 287.21 119.96 292.61 120.02 298.00 120.03 L 298.00 139.02 C 292.71 139.14 287.36 138.53 282.12 139.47 C 281.82 132.98 282.26 126.48 281.82 120.00 Z" />
<path fill="#27413e" d=" M 5.15 126.90 C 5.23 126.75 5.40 126.45 5.49 126.30 L 5.58 126.84 L 5.15 126.90 Z" />
<path fill="#6ab1e4" d=" M 5.49 126.30 L 7.02 125.96 C 7.02 128.56 6.99 131.16 6.81 133.76 L 5.75 133.66 C 6.18 131.40 6.00 129.08 5.58 126.84 L 5.49 126.30 Z" />
<path fill="#5e6275" d=" M 9.98 127.38 C 10.02 125.72 13.08 125.34 13.92 126.70 L 13.92 127.30 L 13.21 127.40 C 12.11 127.57 11.03 127.56 9.98 127.38 Z" />
<path fill="#5e6275" d=" M 17.01 127.38 C 17.00 125.70 20.11 125.34 20.92 126.70 L 20.93 127.30 L 20.22 127.40 C 19.13 127.56 18.06 127.56 17.01 127.38 Z" />
<path fill="#8d423d" d=" M 3.22 127.23 C 3.81 127.82 3.81 127.82 3.22 127.23 Z" />
<path fill="#a8763d" d=" M 5.15 126.90 L 5.58 126.84 C 6.00 129.08 6.18 131.40 5.75 133.66 L 5.05 133.76 C 4.57 131.62 4.69 129.06 5.15 126.90 Z" />
<path fill="#c8a45b" d=" M 13.21 127.40 L 13.92 127.30 C 13.90 127.77 13.84 128.73 13.82 129.20 L 13.15 129.15 C 13.16 128.71 13.19 127.84 13.21 127.40 Z" />
<path fill="#3d95ce" d=" M 13.92 127.30 C 15.53 126.51 15.84 130.07 14.16 129.90 L 13.82 129.20 C 13.84 128.73 13.90 127.77 13.92 127.30 Z" />
<path fill="#c8a45b" d=" M 20.22 127.40 L 20.93 127.30 C 20.90 127.78 20.85 128.73 20.82 129.21 L 20.15 129.16 C 20.17 128.72 20.20 127.84 20.22 127.40 Z" />
<path fill="#3d95ce" d=" M 20.93 127.30 C 22.53 126.50 22.84 130.06 21.17 129.90 L 20.82 129.21 C 20.85 128.73 20.90 127.78 20.93 127.30 Z" />
<path fill="#616d6e" d=" M 13.15 129.15 L 13.82 129.20 L 14.16 129.90 L 13.95 130.89 L 13.16 131.27 C 12.58 131.41 9.98 131.05 11.13 130.11 C 11.63 129.87 12.64 129.39 13.15 129.15 Z" />
<path fill="#616d6e" d=" M 20.15 129.16 L 20.82 129.21 L 21.17 129.90 L 20.96 130.88 L 20.16 131.26 C 19.59 131.40 16.97 131.07 18.12 130.12 C 18.62 129.88 19.64 129.40 20.15 129.16 Z" />
<path fill="#dbc698" d=" M 13.16 131.27 L 13.95 130.89 C 13.82 131.39 13.55 132.40 13.42 132.90 C 13.36 132.49 13.22 131.68 13.16 131.27 Z" />
<path fill="#495272" d=" M 13.95 130.89 C 16.89 132.47 13.31 136.56 10.90 134.73 L 11.00 134.29 C 11.61 133.94 12.82 133.25 13.42 132.90 C 13.55 132.40 13.82 131.39 13.95 130.89 Z" />
<path fill="#dbc698" d=" M 20.16 131.26 L 20.96 130.88 C 20.82 131.39 20.55 132.39 20.42 132.89 C 20.35 132.49 20.22 131.67 20.16 131.26 Z" />
<path fill="#495272" d=" M 20.96 130.88 C 22.64 131.55 22.24 134.43 20.51 134.86 C 19.87 134.86 18.59 134.84 17.95 134.84 L 18.00 134.38 C 18.60 134.01 19.81 133.27 20.42 132.89 C 20.55 132.39 20.82 131.39 20.96 130.88 Z" />
<path fill="#8d423d" d=" M 3.54 134.55 C 3.72 134.45 4.09 134.25 4.27 134.15 L 4.11 134.67 L 3.54 134.55 Z" />
<path fill="#34575f" d=" M 4.27 134.15 L 5.05 133.76 L 5.75 133.66 L 6.81 133.76 C 10.88 134.47 5.32 136.15 4.11 134.67 L 4.27 134.15 Z" />
<path fill="#a8763d" d=" M 10.90 134.73 C 10.93 134.62 10.98 134.40 11.00 134.29 L 10.90 134.73 Z" />
<path fill="#a8763d" d=" M 17.95 134.84 C 17.96 134.72 17.99 134.50 18.00 134.38 L 17.95 134.84 Z" />
<path fill="#d0d7e5" d=" M 26.01 139.03 C 44.66 138.94 63.31 139.08 81.96 138.94 C 84.30 138.92 86.64 139.09 88.93 139.60 L 89.52 139.73 L 89.98 139.82 C 89.97 146.21 90.00 152.60 90.03 158.99 C 111.01 158.98 131.99 159.05 152.97 158.96 C 153.02 152.64 152.99 146.32 153.00 140.00 L 153.99 140.00 C 154.00 146.33 153.98 152.65 154.04 158.98 C 175.02 159.01 195.99 159.02 216.96 158.97 C 217.02 152.65 217.00 146.32 217.01 140.00 L 218.00 140.00 C 217.99 146.33 217.97 152.65 218.03 158.98 C 239.01 159.01 259.99 159.03 280.97 158.99 C 281.00 152.61 281.03 146.24 280.99 139.87 L 281.45 139.72 L 282.12 139.47 C 287.36 138.53 292.71 139.14 298.00 139.02 L 298.00 140.09 C 292.71 139.96 287.41 139.97 282.12 140.10 C 281.93 146.39 281.96 152.69 282.05 158.98 C 287.37 159.02 292.68 159.02 298.00 158.99 L 298.00 159.96 C 292.68 160.00 287.36 160.01 282.05 160.03 C 281.97 166.32 281.95 172.61 282.09 178.89 C 287.39 179.02 292.70 179.04 298.00 178.99 L 298.00 179.98 C 292.61 180.02 287.23 179.96 281.84 180.02 L 281.73 179.58 L 281.53 178.90 C 280.38 172.68 281.26 166.31 280.99 160.02 C 260.01 159.98 239.02 160.00 218.03 160.01 C 218.00 166.34 218.01 172.67 217.98 179.00 L 217.00 179.00 C 216.98 172.67 217.03 166.35 216.98 160.02 C 195.99 159.97 175.01 159.98 154.02 160.03 C 153.99 166.36 154.01 172.68 154.01 179.00 L 152.99 179.00 C 153.00 172.68 153.02 166.35 153.00 160.03 C 132.00 159.98 111.01 159.98 90.02 160.02 C 89.72 166.31 90.61 172.68 89.46 178.90 L 89.27 179.57 L 89.16 180.00 C 68.11 180.04 47.05 179.94 26.00 180.04 L 26.00 179.00 C 46.96 178.91 67.92 179.17 88.88 178.89 C 89.05 172.61 89.03 166.31 88.97 160.03 C 67.98 159.97 46.99 160.01 26.00 160.00 L 26.00 159.01 C 46.99 158.98 67.97 159.03 88.95 158.99 C 89.03 152.69 89.04 146.39 88.91 140.09 C 67.94 139.86 46.97 140.07 26.01 139.99 L 26.01 139.03 Z" />
<path fill="#e4ecf7" d=" M 0.00 140.00 C 8.33 140.01 16.66 139.98 24.99 140.01 C 25.02 146.34 25.00 152.67 25.01 159.01 C 16.67 158.99 8.34 159.00 0.00 159.00 L 0.00 140.00 Z" />
<path fill="#ffffff" d=" M 26.01 139.99 C 46.97 140.07 67.94 139.86 88.91 140.09 C 89.04 146.39 89.03 152.69 88.95 158.99 C 67.97 159.03 46.99 158.98 26.00 159.01 C 26.00 152.67 26.00 146.33 26.01 139.99 Z" />
<path fill="#ffffff" d=" M 89.98 139.82 C 110.97 140.25 131.99 139.87 153.00 140.00 C 152.99 146.32 153.02 152.64 152.97 158.96 C 131.99 159.05 111.01 158.98 90.03 158.99 C 90.00 152.60 89.97 146.21 89.98 139.82 Z" />
<path fill="#ffffff" d=" M 153.99 140.00 C 175.00 140.00 196.00 140.00 217.01 140.00 C 217.00 146.32 217.02 152.65 216.96 158.97 C 195.99 159.02 175.02 159.01 154.04 158.98 C 153.98 152.65 154.00 146.33 153.99 140.00 Z" />
<path fill="#ffffff" d=" M 218.00 140.00 C 239.00 139.91 260.01 140.18 280.99 139.87 C 281.03 146.24 281.00 152.61 280.97 158.99 C 259.99 159.03 239.01 159.01 218.03 158.98 C 217.97 152.65 217.99 146.33 218.00 140.00 Z" />
<path fill="#ffffff" d=" M 282.12 140.10 C 287.41 139.97 292.71 139.96 298.00 140.09 L 298.00 158.99 C 292.68 159.02 287.37 159.02 282.05 158.98 C 281.96 152.69 281.93 146.39 282.12 140.10 Z" />
<path fill="#27413e" d=" M 5.15 146.88 C 5.24 146.73 5.41 146.44 5.49 146.29 L 5.58 146.83 L 5.15 146.88 Z" />
<path fill="#6ab1e4" d=" M 5.49 146.29 L 7.01 145.92 C 7.02 148.53 7.00 151.15 6.82 153.76 L 5.76 153.67 C 6.18 151.40 5.99 149.07 5.58 146.83 L 5.49 146.29 Z" />
<path fill="#5e6275" d=" M 9.97 147.39 C 10.01 145.74 12.96 145.35 13.90 146.54 L 13.88 147.07 L 13.12 147.30 C 12.05 147.60 11.00 147.63 9.97 147.39 Z" />
<path fill="#ffd58d" d=" M 17.35 149.34 C 16.63 147.98 18.58 145.66 20.03 146.08 C 19.86 146.63 19.51 147.73 19.34 148.28 L 18.79 149.02 C 18.43 149.10 17.71 149.26 17.35 149.34 Z" />
<path fill="#49645d" d=" M 20.03 146.08 L 20.79 146.42 C 20.78 146.86 20.74 147.74 20.73 148.18 L 20.10 148.50 L 19.34 148.28 C 19.51 147.73 19.86 146.63 20.03 146.08 Z" />
<path fill="#6ab1e4" d=" M 20.79 146.42 C 22.67 146.43 22.80 150.55 21.57 151.77 L 21.07 151.59 C 21.22 150.43 21.10 149.29 20.73 148.18 C 20.74 147.74 20.78 146.86 20.79 146.42 Z" />
<path fill="#8d423d" d=" M 3.22 147.22 C 3.79 147.83 3.79 147.83 3.22 147.22 Z" />
<path fill="#a8763d" d=" M 5.15 146.88 L 5.58 146.83 C 5.99 149.07 6.18 151.40 5.76 153.67 L 5.06 153.76 C 4.57 151.62 4.69 149.04 5.15 146.88 Z" />
<path fill="#c8a45b" d=" M 13.12 147.30 L 13.88 147.07 C 13.88 147.49 13.88 148.32 13.88 148.73 L 13.19 149.04 L 12.71 148.26 L 13.12 147.30 Z" />
<path fill="#3d95ce" d=" M 13.88 147.07 C 15.57 146.38 16.04 150.10 14.16 149.48 L 13.88 148.73 C 13.88 148.32 13.88 147.49 13.88 147.07 Z" />
<path fill="#a8763d" d=" M 20.10 148.50 L 20.73 148.18 C 21.10 149.29 21.22 150.43 21.07 151.59 L 20.39 151.66 C 19.44 150.71 19.34 149.66 20.10 148.50 Z" />
<path fill="#72776f" d=" M 13.19 149.04 L 13.88 148.73 L 14.16 149.48 C 15.08 151.43 15.51 153.56 14.13 155.45 C 13.20 155.16 11.34 154.58 10.41 154.29 L 9.99 154.12 C 12.20 154.55 13.52 153.83 13.96 151.96 C 12.74 151.30 11.41 150.92 10.11 150.45 C 11.14 149.98 12.17 149.51 13.19 149.04 Z" />
<path fill="#7da4a4" d=" M 17.35 149.34 C 17.71 149.26 18.43 149.10 18.79 149.02 C 18.63 149.39 18.32 150.14 18.17 150.51 L 17.37 150.19 L 17.35 149.34 Z" />
<path fill="#9b5c3d" d=" M 16.09 151.38 C 16.44 151.56 17.14 151.94 17.49 152.13 L 17.24 152.70 C 16.87 152.55 16.13 152.25 15.76 152.10 L 16.09 151.38 Z" />
<path fill="#274a52" d=" M 17.49 152.13 C 18.21 152.01 19.67 151.77 20.39 151.66 L 21.07 151.59 L 21.57 151.77 C 21.72 152.01 22.02 152.47 22.17 152.71 L 21.77 153.07 L 20.97 153.18 L 20.06 153.18 C 19.36 153.06 17.94 152.82 17.24 152.70 L 17.49 152.13 Z" />
<path fill="#a8763d" d=" M 20.06 153.18 L 20.97 153.18 C 20.99 153.57 21.01 154.34 21.02 154.73 C 20.69 154.55 20.02 154.20 19.68 154.02 L 20.06 153.18 Z" />
<path fill="#6ab1e4" d=" M 20.97 153.18 L 21.77 153.07 L 22.29 153.88 L 21.85 154.74 L 21.02 154.73 C 21.01 154.34 20.99 153.57 20.97 153.18 Z" />
<path fill="#8d423d" d=" M 3.54 154.56 C 3.72 154.45 4.09 154.25 4.27 154.15 L 4.11 154.67 L 3.54 154.56 Z" />
<path fill="#34575f" d=" M 4.27 154.15 L 5.06 153.76 L 5.76 153.67 L 6.82 153.76 C 10.90 154.47 5.33 156.15 4.11 154.67 L 4.27 154.15 Z" />
<path fill="#a8763d" d=" M 10.41 154.29 C 10.31 154.25 10.10 154.17 9.99 154.12 L 10.41 154.29 Z" />
<path fill="#f29536" d=" M 0.00 159.00 C 8.34 159.00 16.67 158.99 25.01 159.01 L 26.00 159.01 L 26.00 160.00 C 26.00 166.33 26.00 172.67 26.00 179.00 L 26.00 180.04 L 24.99 180.03 C 16.66 179.97 8.33 180.01 0.00 180.00 L 0.00 179.00 C 8.33 178.99 16.66 179.02 24.99 178.99 C 25.01 172.66 25.02 166.33 24.98 160.00 C 16.65 159.99 8.33 160.00 0.00 160.00 L 0.00 159.00 Z" />
<path fill="#ffd58d" d=" M 0.00 160.00 C 8.33 160.00 16.65 159.99 24.98 160.00 C 25.02 166.33 25.01 172.66 24.99 178.99 C 16.66 179.02 8.33 178.99 0.00 179.00 L 0.00 160.00 Z" />
<path fill="#ffffff" d=" M 26.00 160.00 C 46.99 160.01 67.98 159.97 88.97 160.03 C 89.03 166.31 89.05 172.61 88.88 178.89 C 67.92 179.17 46.96 178.91 26.00 179.00 C 26.00 172.67 26.00 166.33 26.00 160.00 Z" />
<path fill="#ffffff" d=" M 90.02 160.02 C 111.01 159.98 132.00 159.98 153.00 160.03 C 153.02 166.35 153.00 172.68 152.99 179.00 C 131.81 178.94 110.64 179.12 89.46 178.90 C 90.61 172.68 89.72 166.31 90.02 160.02 Z" />
<path fill="#ffffff" d=" M 154.02 160.03 C 175.01 159.98 195.99 159.97 216.98 160.02 C 217.03 166.35 216.98 172.67 217.00 179.00 C 196.00 179.00 175.00 179.00 154.01 179.00 C 154.01 172.68 153.99 166.36 154.02 160.03 Z" />
<path fill="#ffffff" d=" M 218.03 160.01 C 239.02 160.00 260.01 159.98 280.99 160.02 C 281.26 166.31 280.38 172.68 281.53 178.90 C 260.35 179.12 239.17 178.94 217.98 179.00 C 218.01 172.67 218.00 166.34 218.03 160.01 Z" />
<path fill="#ffffff" d=" M 282.05 160.03 C 287.36 160.01 292.68 160.00 298.00 159.96 L 298.00 178.99 C 292.70 179.04 287.39 179.02 282.09 178.89 C 281.95 172.61 281.97 166.32 282.05 160.03 Z" />
<path fill="#7d654d" d=" M 3.66 167.88 C 2.58 166.84 4.93 165.37 5.70 166.40 C 5.73 166.75 5.79 167.45 5.82 167.80 L 5.37 168.08 C 4.95 168.03 4.09 167.93 3.66 167.88 Z" />
<path fill="#75a183" d=" M 5.70 166.40 L 7.00 165.95 C 7.01 168.55 7.00 171.15 6.94 173.76 L 5.97 173.63 C 6.09 171.68 5.98 169.74 5.82 167.80 C 5.79 167.45 5.73 166.75 5.70 166.40 Z" />
<path fill="#6c755f" d=" M 9.46 167.32 C 10.79 165.81 13.95 165.06 15.01 167.25 C 15.15 168.46 14.53 169.59 14.24 170.74 C 15.96 172.87 20.30 176.32 21.38 171.63 C 21.38 171.58 21.37 171.46 21.37 171.40 C 20.27 170.73 19.13 170.14 17.94 169.64 C 18.11 168.48 18.10 167.34 17.90 166.20 C 19.26 166.06 20.63 165.95 22.00 165.87 L 22.00 166.87 C 20.45 166.49 19.41 166.87 18.91 168.01 C 19.77 169.40 21.99 169.44 22.53 171.12 C 22.60 172.59 21.65 173.83 21.08 175.11 C 19.71 175.06 18.34 175.02 16.96 174.99 L 16.76 173.46 C 15.36 173.92 13.96 174.38 12.71 175.16 C 11.33 175.00 10.10 174.45 9.31 173.28 C 10.75 173.55 12.21 173.80 13.66 174.02 C 14.56 171.77 13.06 170.63 10.89 170.84 L 10.86 170.33 C 11.50 169.89 12.77 169.00 13.40 168.56 C 13.45 168.52 13.56 168.45 13.61 168.41 L 13.45 168.35 C 12.46 168.09 10.46 167.58 9.46 167.32 Z" />
<path fill="#bc6e3d" d=" M 17.94 169.64 C 16.16 170.06 16.14 165.94 17.90 166.20 C 18.10 167.34 18.11 168.48 17.94 169.64 Z" />
<path fill="#bc6e3d" d=" M 5.37 168.08 L 5.82 167.80 C 5.98 169.74 6.09 171.68 5.97 173.63 L 5.30 173.66 C 4.30 172.07 4.66 169.74 5.37 168.08 Z" />
<path fill="#eba152" d=" M 13.45 168.35 L 13.61 168.41 C 13.56 168.45 13.45 168.52 13.40 168.56 L 13.45 168.35 Z" />
<path fill="#9d423d" d=" M 21.37 171.40 C 21.37 171.46 21.38 171.58 21.38 171.63 L 21.37 171.40 Z" />
<path fill="#485149" d=" M 3.39 174.61 C 3.87 174.38 4.82 173.90 5.30 173.66 L 5.97 173.63 L 6.94 173.76 C 7.35 173.99 8.16 174.44 8.57 174.67 C 7.06 175.36 4.83 175.50 3.39 174.61 Z" />
<path fill="#ff0000" d=" M 89.27 179.57 L 89.46 178.90 C 110.64 179.12 131.81 178.94 152.99 179.00 L 154.01 179.00 C 175.00 179.00 196.00 179.00 217.00 179.00 L 217.98 179.00 C 239.17 178.94 260.35 179.12 281.53 178.90 L 281.73 179.58 L 281.84 180.02 C 282.25 186.69 281.82 193.39 282.07 200.07 C 217.79 199.95 153.51 199.95 89.23 200.07 C 89.21 199.89 89.16 199.54 89.13 199.36 C 88.93 192.91 88.84 186.44 89.16 180.00 L 89.27 179.57 Z" />
<path fill="#e4ecf7" d=" M 0.00 180.00 C 8.33 180.01 16.66 179.97 24.99 180.03 C 24.96 186.34 24.98 192.64 24.97 198.95 C 16.65 198.98 8.32 199.00 0.00 198.90 L 0.00 180.00 Z" />
<path fill="#a9c4e9" d=" M 24.99 180.03 L 26.00 180.04 C 26.00 186.42 25.99 192.80 26.02 199.18 C 47.06 199.35 68.10 198.93 89.13 199.36 C 89.16 199.54 89.21 199.89 89.23 200.07 C 89.56 202.38 89.84 204.69 90.12 207.00 L 89.37 207.00 C 89.22 204.65 89.07 202.30 88.93 199.96 C 67.97 199.58 46.99 199.93 26.03 199.81 C 26.02 202.20 26.01 204.60 26.00 207.00 L 24.96 207.00 C 24.96 204.69 24.96 202.37 24.96 200.06 C 16.64 199.99 8.32 200.07 0.00 200.01 L 0.00 198.90 C 8.32 199.00 16.65 198.98 24.97 198.95 C 24.98 192.64 24.96 186.34 24.99 180.03 Z" />
<path fill="#ffffff" d=" M 26.00 180.04 C 47.05 179.94 68.11 180.04 89.16 180.00 C 88.84 186.44 88.93 192.91 89.13 199.36 C 68.10 198.93 47.06 199.35 26.02 199.18 C 25.99 192.80 26.00 186.42 26.00 180.04 Z" />
<path fill="#ffffff" d=" M 281.84 180.02 C 287.23 179.96 292.61 180.02 298.00 179.98 L 298.00 207.00 L 90.12 207.00 C 89.84 204.69 89.56 202.38 89.23 200.07 C 153.51 199.95 217.79 199.95 282.07 200.07 C 281.82 193.39 282.25 186.69 281.84 180.02 Z" />
<path fill="#27413e" d=" M 5.15 186.88 C 5.24 186.74 5.41 186.44 5.50 186.30 L 5.59 186.83 L 5.15 186.88 Z" />
<path fill="#6ab1e4" d=" M 5.50 186.30 L 7.01 185.94 C 7.02 188.55 7.00 191.16 6.82 193.77 L 5.76 193.67 C 6.17 191.41 5.99 189.08 5.59 186.83 L 5.50 186.30 Z" />
<path fill="#5e6275" d=" M 9.99 187.37 C 10.02 185.71 13.09 185.34 13.92 186.70 L 13.92 187.30 L 13.21 187.40 C 12.11 187.57 11.04 187.56 9.99 187.37 Z" />
<path fill="#525d71" d=" M 16.97 188.52 C 17.58 187.59 18.21 186.68 18.88 185.80 C 19.87 185.92 21.84 186.15 22.83 186.26 C 21.63 186.65 20.41 187.00 19.18 187.33 C 18.85 187.68 18.18 188.40 17.84 188.76 C 19.35 189.16 21.67 188.48 22.23 190.55 L 21.48 190.45 C 20.74 190.34 19.26 190.11 18.52 190.00 C 18.48 191.26 18.03 192.24 17.16 192.95 C 17.07 191.47 16.99 190.00 16.97 188.52 Z" />
<path fill="#8d423d" d=" M 3.20 187.24 C 3.79 187.82 3.79 187.82 3.20 187.24 Z" />
<path fill="#a8763d" d=" M 5.15 186.88 L 5.59 186.83 C 5.99 189.08 6.17 191.41 5.76 193.67 L 5.06 193.76 C 4.57 191.62 4.68 189.04 5.15 186.88 Z" />
<path fill="#c8a45b" d=" M 13.21 187.40 L 13.92 187.30 C 13.90 187.78 13.84 188.73 13.82 189.20 L 13.14 189.16 C 13.16 188.72 13.19 187.84 13.21 187.40 Z" />
<path fill="#3d95ce" d=" M 13.92 187.30 C 15.53 186.50 15.84 190.05 14.16 189.90 L 13.82 189.20 C 13.84 188.73 13.90 187.78 13.92 187.30 Z" />
<path fill="#e4daba" d=" M 17.16 192.95 C 15.28 195.19 14.90 188.31 16.97 188.52 C 16.99 190.00 17.07 191.47 17.16 192.95 Z" />
<path fill="#616d6e" d=" M 13.14 189.16 L 13.82 189.20 L 14.16 189.90 L 13.95 190.89 L 13.16 191.27 C 12.58 191.40 9.99 191.07 11.12 190.12 C 11.62 189.88 12.64 189.40 13.14 189.16 Z" />
<path fill="#93653d" d=" M 21.48 190.45 L 22.23 190.55 C 22.35 191.68 21.92 192.53 20.95 193.11 C 21.08 192.45 21.35 191.12 21.48 190.45 Z" />
<path fill="#75addc" d=" M 22.23 190.55 C 24.34 190.77 22.91 195.78 20.70 194.59 L 20.61 193.92 L 20.95 193.11 C 21.92 192.53 22.35 191.68 22.23 190.55 Z" />
<path fill="#dbc698" d=" M 13.16 191.27 L 13.95 190.89 C 13.82 191.39 13.54 192.40 13.41 192.91 C 13.34 192.50 13.22 191.68 13.16 191.27 Z" />
<path fill="#495272" d=" M 13.95 190.89 C 16.83 192.47 13.41 196.47 10.95 194.84 L 10.99 194.38 C 11.60 194.01 12.80 193.28 13.41 192.91 C 13.54 192.40 13.82 191.39 13.95 190.89 Z" />
<path fill="#8d423d" d=" M 3.55 194.56 C 3.73 194.46 4.10 194.25 4.28 194.15 L 4.12 194.67 L 3.55 194.56 Z" />
<path fill="#34575f" d=" M 4.28 194.15 L 5.06 193.76 L 5.76 193.67 L 6.82 193.77 C 10.91 194.47 5.34 196.15 4.12 194.67 L 4.28 194.15 Z" />
<path fill="#a8763d" d=" M 10.95 194.84 C 10.96 194.72 10.98 194.50 10.99 194.38 L 10.95 194.84 Z" />
<path fill="#3d413e" d=" M 18.05 194.60 C 18.65 193.58 19.51 193.35 20.61 193.92 L 20.70 194.59 C 20.04 194.59 18.72 194.60 18.05 194.60 Z" />
<path fill="#e4ecf7" d=" M 0.00 200.01 C 8.32 200.07 16.64 199.99 24.96 200.06 C 24.96 202.37 24.96 204.69 24.96 207.00 L 23.26 207.00 C 21.37 204.99 18.17 205.06 16.26 207.00 L 13.89 207.00 C 13.34 205.58 12.36 205.36 10.94 206.34 L 10.52 206.56 L 10.62 207.00 L 6.91 207.00 C 6.83 205.17 4.19 205.18 4.12 207.00 L 0.00 207.00 L 0.00 200.01 Z" />
<path fill="#ffffff" d=" M 26.03 199.81 C 46.99 199.93 67.97 199.58 88.93 199.96 C 89.07 202.30 89.22 204.65 89.37 207.00 L 26.00 207.00 C 26.01 204.60 26.02 202.20 26.03 199.81 Z" />
<path fill="#768c89" d=" M 4.12 207.00 C 4.19 205.18 6.83 205.17 6.91 207.00 L 4.12 207.00 Z" />
<path fill="#d2b178" d=" M 10.52 206.56 L 10.94 206.34 L 11.09 207.00 L 10.62 207.00 L 10.52 206.56 Z" />
<path fill="#27415d" d=" M 10.94 206.34 C 12.36 205.36 13.34 205.58 13.89 207.00 L 11.09 207.00 L 10.94 206.34 Z" />
<path fill="#425459" d=" M 16.26 207.00 C 18.17 205.06 21.37 204.99 23.26 207.00 L 16.26 207.00 Z" />
</svg>
