<?xml version="1.0" encoding="UTF-8" ?>
<!DOCTYPE svg PUBLIC "-//W3C//DTD SVG 1.1//EN" "http://www.w3.org/Graphics/SVG/1.1/DTD/svg11.dtd">
<svg width="216pt" height="211pt" viewBox="0 0 216 211" version="1.1" xmlns="http://www.w3.org/2000/svg">
<path fill="#688caf" d=" M 0.00 0.00 L 216.00 0.00 L 216.00 0.99 C 195.33 1.01 174.66 1.00 153.99 1.00 L 153.00 1.00 C 132.00 1.00 111.00 1.00 90.00 1.00 L 89.01 1.00 C 68.00 1.05 46.98 0.91 25.97 1.06 C 17.32 1.48 8.65 1.47 0.00 1.11 L 0.00 0.00 Z" />
<path fill="#9eb6ce" d=" M 0.00 1.11 C 8.65 1.47 17.32 1.48 25.97 1.06 C 26.01 4.70 26.03 8.34 26.03 11.97 C 26.04 14.62 26.07 17.28 26.12 19.93 C 47.08 19.85 68.04 19.88 89.00 19.91 L 89.00 21.00 C 68.00 21.01 47.00 20.99 26.00 21.01 C 26.00 27.35 26.00 33.70 26.01 40.04 L 26.01 40.99 C 26.00 47.33 26.00 53.67 26.01 60.00 L 26.01 60.97 C 26.00 67.32 26.00 73.67 26.00 80.02 L 26.00 81.00 C 26.00 87.33 26.00 93.67 26.01 100.00 L 26.01 100.97 C 26.00 107.32 26.00 113.66 26.00 120.01 L 26.00 120.99 C 26.00 127.33 26.00 133.67 26.01 140.01 L 26.01 140.98 C 26.00 147.33 26.00 153.67 26.01 160.02 L 26.01 160.98 C 26.00 167.32 26.00 173.66 26.01 180.00 L 26.01 180.98 C 26.00 187.33 26.00 193.67 26.01 200.02 L 26.01 200.98 C 26.00 204.32 26.00 207.66 26.00 211.00 L 25.01 211.00 C 25.00 207.67 25.00 204.34 24.99 201.01 C 16.66 200.99 8.33 201.00 0.00 201.00 L 0.00 200.01 C 8.33 199.98 16.65 200.01 24.98 200.00 C 25.02 193.67 25.02 187.34 24.98 181.02 C 16.66 180.98 8.33 181.01 0.00 181.00 L 0.00 180.00 C 8.33 180.00 16.65 180.01 24.98 180.00 C 25.02 173.67 25.02 167.34 24.98 161.01 C 16.65 160.99 8.33 161.00 0.00 161.00 L 0.00 159.99 C 8.33 160.00 16.66 160.01 24.98 159.99 C 25.01 153.67 25.01 147.34 24.99 141.02 C 16.66 140.97 8.33 141.01 0.00 141.00 L 0.00 139.98 C 8.33 140.01 16.66 140.01 24.99 139.99 C 25.02 133.66 25.01 127.33 24.98 121.01 C 16.65 120.98 8.33 121.01 0.00 121.00 L 0.00 119.95 C 8.33 120.04 16.65 119.99 24.98 120.00 C 25.02 113.67 25.01 107.34 24.99 101.02 C 16.66 100.98 8.33 101.01 0.00 101.00 L 0.00 99.97 C 8.33 100.03 16.65 100.00 24.98 100.00 C 25.02 93.67 25.02 87.34 24.98 81.01 C 16.65 80.99 8.33 81.01 0.00 81.00 L 0.00 80.00 C 8.32 80.00 16.65 80.00 24.97 80.00 C 25.02 73.67 25.01 67.34 24.98 61.01 C 16.66 60.99 8.33 61.00 0.00 61.00 L 0.00 60.00 C 8.33 59.99 16.66 60.01 24.98 59.99 C 25.02 53.66 25.02 47.33 24.98 41.00 C 16.65 40.99 8.33 41.01 0.00 41.00 L 0.00 39.96 C 8.33 40.03 16.66 40.00 24.98 39.99 C 25.02 33.67 25.01 27.34 24.99 21.02 C 16.66 20.99 8.33 21.02 0.00 21.00 L 0.00 1.11 Z" />
<path fill="#eef3f7" d=" M 25.97 1.06 C 46.98 0.91 68.00 1.05 89.01 1.00 C 89.00 4.62 88.98 8.24 88.99 11.86 C 79.89 12.01 70.75 11.31 61.68 12.23 C 61.55 12.70 61.28 13.64 61.15 14.11 L 60.36 14.27 C 60.06 12.84 59.83 11.38 59.28 10.02 C 59.14 9.62 58.88 8.82 58.75 8.42 C 58.50 8.06 58.00 7.34 57.75 6.98 L 56.79 7.39 L 56.56 7.16 C 55.98 8.85 55.37 10.52 54.73 12.18 C 45.18 11.59 35.60 11.79 26.03 11.97 C 26.03 8.34 26.01 4.70 25.97 1.06 Z" />
<path fill="#f29536" d=" M 89.01 1.00 L 90.00 1.00 C 90.00 3.40 89.99 5.81 89.99 8.22 C 89.98 12.07 90.05 15.92 90.15 19.77 C 111.04 19.77 131.93 19.74 152.82 19.79 C 152.94 15.94 153.02 12.09 153.01 8.24 C 153.01 5.82 153.00 3.41 153.00 1.00 L 153.99 1.00 C 154.00 4.94 154.02 8.89 154.02 12.83 C 154.01 15.19 154.00 17.56 154.00 19.92 L 154.00 21.00 L 153.01 21.00 C 132.01 21.00 111.00 21.00 90.00 21.00 L 89.00 21.00 L 89.00 19.91 C 89.00 17.23 89.00 14.54 88.99 11.86 C 88.98 8.24 89.00 4.62 89.01 1.00 Z" />
<path fill="#f7d594" d=" M 90.00 1.00 C 111.00 1.00 132.00 1.00 153.00 1.00 C 153.00 3.41 153.01 5.82 153.01 8.24 C 143.80 8.05 134.49 9.05 125.35 7.76 C 123.38 7.26 121.34 6.81 119.31 7.23 C 109.68 9.32 99.75 8.10 89.99 8.22 C 89.99 5.81 90.00 3.40 90.00 1.00 Z" />
<path fill="#eef3f7" d=" M 153.99 1.00 C 174.66 1.00 195.33 1.01 216.00 0.99 L 216.00 12.62 C 205.38 13.22 194.63 11.71 184.13 13.74 C 184.29 11.92 183.81 9.67 185.39 8.35 C 186.68 8.35 187.99 8.24 189.28 8.48 L 189.39 8.50 C 189.35 8.47 189.29 8.40 189.25 8.36 C 188.03 7.30 186.41 6.90 184.95 6.32 C 183.70 8.40 182.69 10.61 181.88 12.89 C 172.59 12.63 163.30 12.68 154.02 12.83 C 154.02 8.89 154.00 4.94 153.99 1.00 Z" />
<path fill="#d5e4f2" d=" M 1.03 1.82 C 8.94 1.81 16.92 1.14 24.78 2.23 C 17.29 3.81 9.60 2.66 2.02 3.02 C 2.01 8.59 2.28 14.20 1.38 19.72 C 0.67 13.78 1.09 7.79 1.03 1.82 Z" />
<path fill="#a9c4e9" d=" M 24.78 2.23 L 25.03 2.19 C 25.35 8.14 25.28 14.11 25.15 20.07 C 17.21 20.27 9.26 20.29 1.32 20.20 L 1.38 19.72 C 2.28 14.20 2.01 8.59 2.02 3.02 C 9.60 2.66 17.29 3.81 24.78 2.23 Z" />
<path fill="#eff1f4" d=" M 15.56 11.97 C 17.22 9.95 19.02 8.05 20.92 6.25 C 20.97 8.16 21.00 10.06 21.02 11.97 C 19.20 11.95 17.38 11.92 15.56 11.97 Z" />
<path fill="#ff0000" d=" M 56.56 7.16 L 56.79 7.39 C 57.28 7.65 58.26 8.16 58.75 8.42 C 58.88 8.82 59.14 9.62 59.28 10.02 C 59.19 11.11 58.78 11.98 58.04 12.66 C 58.53 11.61 58.59 9.53 57.15 9.26 L 56.49 9.08 L 55.73 10.21 C 55.84 10.69 56.06 11.65 56.17 12.14 L 56.42 12.76 C 55.98 13.02 55.10 13.54 54.66 13.80 C 54.42 14.12 53.96 14.77 53.72 15.09 L 54.09 15.80 L 53.11 16.25 C 53.65 14.89 54.20 13.54 54.73 12.18 C 55.37 10.52 55.98 8.85 56.56 7.16 Z" />
<path fill="#5c869a" d=" M 56.79 7.39 L 57.75 6.98 C 58.00 7.34 58.50 8.06 58.75 8.42 C 58.26 8.16 57.28 7.65 56.79 7.39 Z" />
<path fill="#f3c771" d=" M 89.99 8.22 C 99.75 8.10 109.68 9.32 119.31 7.23 C 119.31 10.22 119.31 13.20 119.30 16.19 C 120.88 16.10 122.46 16.08 124.03 15.84 C 126.14 15.00 125.06 12.67 124.90 11.04 C 125.01 10.22 125.24 8.58 125.35 7.76 C 134.49 9.05 143.80 8.05 153.01 8.24 C 153.02 12.09 152.94 15.94 152.82 19.79 C 131.93 19.74 111.04 19.77 90.15 19.77 C 90.05 15.92 89.98 12.07 89.99 8.22 Z" />
<path fill="#6c6d53" d=" M 119.31 7.23 C 121.34 6.81 123.38 7.26 125.35 7.76 C 125.24 8.58 125.01 10.22 124.90 11.04 C 125.06 12.67 126.14 15.00 124.03 15.84 C 122.46 16.08 120.88 16.10 119.30 16.19 C 119.31 13.20 119.31 10.22 119.31 7.23 Z" />
<path fill="#7e8083" d=" M 184.95 6.32 C 186.41 6.90 188.03 7.30 189.25 8.36 L 189.28 8.48 C 187.99 8.24 186.68 8.35 185.39 8.35 C 183.81 9.67 184.29 11.92 184.13 13.74 C 185.85 15.16 188.01 14.55 189.99 14.32 C 189.67 14.82 189.04 15.81 188.72 16.31 C 185.86 16.51 183.59 15.06 181.88 12.89 C 182.69 10.61 183.70 8.40 184.95 6.32 Z" />
<path fill="#f5ce80" d=" M 120.57 9.06 C 121.47 7.63 122.36 7.59 123.23 8.95 C 123.13 9.34 122.93 10.13 122.83 10.53 C 121.38 11.29 120.63 10.80 120.57 9.06 Z" />
<path fill="#6db3e3" d=" M 189.25 8.36 C 189.29 8.40 189.35 8.47 189.39 8.50 L 189.28 8.48 L 189.25 8.36 Z" />
<path fill="#68aad8" d=" M 56.49 9.08 L 57.15 9.26 L 57.15 9.79 C 56.91 10.38 56.42 11.55 56.17 12.14 C 56.06 11.65 55.84 10.69 55.73 10.21 L 56.49 9.08 Z" />
<path fill="#eef3f7" d=" M 57.15 9.26 C 58.59 9.53 58.53 11.61 58.04 12.66 C 57.64 12.68 56.82 12.73 56.42 12.76 L 56.17 12.14 C 56.42 11.55 56.91 10.38 57.15 9.79 L 57.15 9.26 Z" />
<path fill="#cb8346" d=" M 123.23 8.95 C 124.60 9.86 124.47 10.39 122.83 10.53 C 122.93 10.13 123.13 9.34 123.23 8.95 Z" />
<path fill="#385668" d=" M 59.28 10.02 C 59.83 11.38 60.06 12.84 60.36 14.27 C 58.46 14.13 56.56 13.98 54.66 13.80 C 55.10 13.54 55.98 13.02 56.42 12.76 C 56.82 12.73 57.64 12.68 58.04 12.66 C 58.78 11.98 59.19 11.11 59.28 10.02 Z" />
<path fill="#dfe2e8" d=" M 10.81 16.76 C 12.31 15.10 13.55 13.05 15.56 11.97 C 17.38 11.92 19.20 11.95 21.02 11.97 C 20.98 13.58 20.94 15.19 20.89 16.80 C 17.53 16.84 14.17 16.84 10.81 16.76 Z" />
<path fill="#d9e1ec" d=" M 26.03 11.97 C 35.60 11.79 45.18 11.59 54.73 12.18 C 54.20 13.54 53.65 14.89 53.11 16.25 L 54.09 15.80 L 54.83 15.45 C 54.79 15.04 54.70 14.21 54.66 13.80 C 56.56 13.98 58.46 14.13 60.36 14.27 C 58.68 16.37 62.29 16.26 61.15 14.11 C 61.28 13.64 61.55 12.70 61.68 12.23 C 70.75 11.31 79.89 12.01 88.99 11.86 C 89.00 14.54 89.00 17.23 89.00 19.91 C 68.04 19.88 47.08 19.85 26.12 19.93 C 26.07 17.28 26.04 14.62 26.03 11.97 Z" />
<path fill="#f3c26c" d=" M 120.83 12.00 C 121.61 12.01 123.19 12.04 123.98 12.06 C 123.98 12.77 123.98 14.21 123.98 14.92 C 123.19 14.94 121.61 14.98 120.82 15.00 C 120.82 14.25 120.82 12.75 120.83 12.00 Z" />
<path fill="#d9e1ec" d=" M 154.02 12.83 C 163.30 12.68 172.59 12.63 181.88 12.89 C 183.59 15.06 185.86 16.51 188.72 16.31 C 189.04 15.81 189.67 14.82 189.99 14.32 C 188.01 14.55 185.85 15.16 184.13 13.74 C 194.63 11.71 205.38 13.22 216.00 12.62 L 216.00 19.89 C 195.33 19.91 174.67 19.84 154.00 19.92 C 154.00 17.56 154.01 15.19 154.02 12.83 Z" />
<path fill="#276a9e" d=" M 53.72 15.09 C 53.96 14.77 54.42 14.12 54.66 13.80 C 54.70 14.21 54.79 15.04 54.83 15.45 L 54.09 15.80 L 53.72 15.09 Z" />
<path fill="#57426a" d=" M 60.36 14.27 L 61.15 14.11 C 62.29 16.26 58.68 16.37 60.36 14.27 Z" />
<path fill="#9eb6ce" d=" M 154.00 19.92 C 174.67 19.84 195.33 19.91 216.00 19.89 L 216.00 21.03 C 195.33 20.96 174.67 21.02 154.00 21.00 L 154.00 19.92 Z" />
<path fill="#e4ecf7" d=" M 0.00 21.00 C 8.33 21.02 16.66 20.99 24.99 21.02 C 25.01 27.34 25.02 33.67 24.98 39.99 C 16.66 40.00 8.33 40.03 0.00 39.96 L 0.00 21.00 Z" />
<path fill="#ffffff" d=" M 26.00 21.01 C 47.00 20.99 68.00 21.01 89.00 21.00 C 89.01 27.32 89.03 33.64 88.97 39.96 C 67.98 40.08 46.99 39.91 26.01 40.04 C 26.00 33.70 26.00 27.35 26.00 21.01 Z" />
<path fill="#d0d7e5" d=" M 89.00 21.00 L 90.00 21.00 C 90.00 27.33 89.99 33.65 90.02 39.98 C 111.01 40.01 131.99 40.01 152.97 39.98 C 153.03 33.65 153.01 27.33 153.01 21.00 L 154.00 21.00 C 154.00 27.32 153.99 33.65 154.02 39.97 C 174.68 40.03 195.34 39.99 216.00 40.00 L 216.00 41.00 C 195.35 41.02 174.70 40.97 154.04 41.02 C 153.97 47.33 153.95 53.65 154.04 59.97 C 174.69 60.04 195.35 59.98 216.00 60.00 L 216.00 61.01 C 195.35 60.99 174.69 61.00 154.04 61.01 C 153.94 67.31 153.92 73.61 154.15 79.90 C 174.76 80.13 195.38 79.94 216.00 80.00 L 216.00 80.99 C 199.33 81.02 182.66 80.98 165.99 81.02 C 162.02 80.99 157.98 81.35 154.08 80.41 L 153.43 80.27 L 153.00 80.19 C 153.05 73.80 152.97 67.41 152.97 61.02 C 131.99 60.99 111.00 61.00 90.01 61.01 C 89.96 67.40 90.18 73.79 89.81 80.17 C 89.59 80.21 89.14 80.29 88.92 80.33 C 83.67 81.41 78.30 80.99 72.98 81.00 C 57.32 81.00 41.66 81.00 26.00 81.00 L 26.00 80.02 C 46.96 79.90 67.92 80.16 88.88 79.89 C 89.05 73.60 89.06 67.31 88.97 61.02 C 67.98 60.96 46.99 61.05 26.01 60.97 L 26.01 60.00 C 47.00 59.97 67.99 60.04 88.98 59.98 C 89.03 53.66 89.03 47.34 88.96 41.02 C 67.98 40.95 46.99 41.04 26.01 40.99 L 26.01 40.04 C 46.99 39.91 67.98 40.08 88.97 39.96 C 89.03 33.64 89.01 27.32 89.00 21.00 Z" />
<path fill="#ffffff" d=" M 90.00 21.00 C 111.00 21.00 132.01 21.00 153.01 21.00 C 153.01 27.33 153.03 33.65 152.97 39.98 C 131.99 40.01 111.01 40.01 90.02 39.98 C 89.99 33.65 90.00 27.33 90.00 21.00 Z" />
<path fill="#ffffff" d=" M 154.00 21.00 C 174.67 21.02 195.33 20.96 216.00 21.03 L 216.00 40.00 C 195.34 39.99 174.68 40.03 154.02 39.97 C 153.99 33.65 154.00 27.32 154.00 21.00 Z" />
<path fill="#27413e" d=" M 12.15 27.89 C 12.24 27.74 12.41 27.45 12.49 27.30 L 12.58 27.83 L 12.15 27.89 Z" />
<path fill="#6ab1e4" d=" M 12.49 27.30 L 14.02 26.94 C 14.02 29.55 13.98 32.15 13.80 34.75 L 12.75 34.66 C 13.16 32.40 13.00 30.08 12.58 27.83 L 12.49 27.30 Z" />
<path fill="#8d423d" d=" M 10.22 28.26 C 10.82 28.84 10.82 28.84 10.22 28.26 Z" />
<path fill="#a8763d" d=" M 12.15 27.89 L 12.58 27.83 C 13.00 30.08 13.16 32.40 12.75 34.66 L 12.07 34.75 C 11.53 32.63 11.70 30.05 12.15 27.89 Z" />
<path fill="#8d423d" d=" M 10.58 35.54 C 10.76 35.44 11.12 35.24 11.31 35.14 L 11.14 35.66 L 10.58 35.54 Z" />
<path fill="#34575f" d=" M 11.31 35.14 L 12.07 34.75 L 12.75 34.66 L 13.80 34.75 C 17.85 35.44 12.36 37.19 11.14 35.66 L 11.31 35.14 Z" />
<path fill="#e4ecf7" d=" M 0.00 41.00 C 8.33 41.01 16.65 40.99 24.98 41.00 C 25.02 47.33 25.02 53.66 24.98 59.99 C 16.66 60.01 8.33 59.99 0.00 60.00 L 0.00 41.00 Z" />
<path fill="#ffffff" d=" M 26.01 40.99 C 46.99 41.04 67.98 40.95 88.96 41.02 C 89.03 47.34 89.03 53.66 88.98 59.98 C 67.99 60.04 47.00 59.97 26.01 60.00 C 26.00 53.67 26.00 47.33 26.01 40.99 Z" />
<path fill="#ffffff" d=" M 90.04 41.02 C 111.02 40.99 131.99 41.00 152.97 41.01 C 153.01 47.34 153.02 53.66 152.95 59.99 C 131.98 60.00 111.00 60.02 90.03 59.97 C 89.99 53.65 89.98 47.33 90.04 41.02 Z" />
<path fill="#ffffff" d=" M 154.04 41.02 C 174.70 40.97 195.35 41.02 216.00 41.00 L 216.00 60.00 C 195.35 59.98 174.69 60.04 154.04 59.97 C 153.95 53.65 153.97 47.33 154.04 41.02 Z" />
<path fill="#576262" d=" M 9.92 48.43 C 9.99 46.81 12.87 46.37 13.95 47.35 L 13.81 47.83 L 13.30 48.15 C 12.17 48.58 11.04 48.67 9.92 48.43 Z" />
<path fill="#5673b5" d=" M 13.95 47.35 C 15.84 47.49 15.94 51.51 14.08 51.57 C 13.92 50.33 13.84 49.08 13.81 47.83 L 13.95 47.35 Z" />
<path fill="#96957e" d=" M 13.30 48.15 L 13.81 47.83 C 13.84 49.08 13.92 50.33 14.08 51.57 L 14.22 52.81 C 13.32 53.50 12.40 54.16 11.46 54.80 C 11.06 54.94 10.24 55.21 9.83 55.34 C 11.08 53.01 14.09 51.13 13.30 48.15 Z" />
<path fill="#27413e" d=" M 9.83 55.34 C 10.24 55.21 11.06 54.94 11.46 54.80 C 12.34 54.93 14.10 55.17 14.98 55.30 L 15.08 55.74 C 13.50 56.17 11.07 56.44 9.83 55.34 Z" />
<path fill="#2797cf" d=" M 14.98 55.30 C 15.01 55.41 15.05 55.63 15.08 55.74 L 14.98 55.30 Z" />
<path fill="#e4ecf7" d=" M 0.00 61.00 C 8.33 61.00 16.66 60.99 24.98 61.01 C 25.01 67.34 25.02 73.67 24.97 80.00 C 16.65 80.00 8.32 80.00 0.00 80.00 L 0.00 61.00 Z" />
<path fill="#ffffff" d=" M 26.01 60.97 C 46.99 61.05 67.98 60.96 88.97 61.02 C 89.06 67.31 89.05 73.60 88.88 79.89 C 67.92 80.16 46.96 79.90 26.00 80.02 C 26.00 73.67 26.00 67.32 26.01 60.97 Z" />
<path fill="#ffffff" d=" M 90.01 61.01 C 111.00 61.00 131.99 60.99 152.97 61.02 C 152.97 67.41 153.05 73.80 153.00 80.19 C 131.95 79.86 110.86 79.90 89.81 80.17 C 90.18 73.79 89.96 67.40 90.01 61.01 Z" />
<path fill="#ffffff" d=" M 154.04 61.01 C 174.69 61.00 195.35 60.99 216.00 61.01 L 216.00 80.00 C 195.38 79.94 174.76 80.13 154.15 79.90 C 153.92 73.61 153.94 67.31 154.04 61.01 Z" />
<path fill="#5e6275" d=" M 9.99 68.34 C 10.06 66.69 13.12 66.37 13.92 67.74 L 13.91 68.33 L 13.20 68.43 C 12.10 68.59 11.03 68.56 9.99 68.34 Z" />
<path fill="#c8a45b" d=" M 13.20 68.43 L 13.91 68.33 C 13.89 68.81 13.84 69.75 13.82 70.22 L 13.13 70.17 C 13.15 69.74 13.18 68.86 13.20 68.43 Z" />
<path fill="#3d95ce" d=" M 13.91 68.33 C 15.52 67.50 15.86 71.06 14.17 70.90 L 13.82 70.22 C 13.84 69.75 13.89 68.81 13.91 68.33 Z" />
<path fill="#616d6e" d=" M 13.13 70.17 L 13.82 70.22 L 14.17 70.90 L 13.95 71.87 L 13.16 72.25 C 12.56 72.42 10.04 72.09 11.12 71.10 C 11.62 70.87 12.63 70.40 13.13 70.17 Z" />
<path fill="#dbc698" d=" M 13.16 72.25 L 13.95 71.87 C 13.82 72.37 13.55 73.37 13.41 73.87 C 13.35 73.47 13.22 72.66 13.16 72.25 Z" />
<path fill="#495272" d=" M 13.95 71.87 C 16.86 73.46 13.34 77.53 10.93 75.74 L 11.04 75.29 C 11.63 74.94 12.82 74.23 13.41 73.87 C 13.55 73.37 13.82 72.37 13.95 71.87 Z" />
<path fill="#a8763d" d=" M 10.93 75.74 C 10.96 75.63 11.01 75.40 11.04 75.29 L 10.93 75.74 Z" />
<path fill="#ff0000" d=" M 88.92 80.33 C 89.14 80.29 89.59 80.21 89.81 80.17 C 110.86 79.90 131.95 79.86 153.00 80.19 L 153.43 80.27 L 154.08 80.41 C 153.85 86.94 154.25 93.48 153.81 100.00 L 153.74 100.44 L 153.61 101.06 C 132.41 100.79 111.19 101.30 90.00 100.80 L 89.57 100.73 L 88.92 100.60 C 89.00 93.84 89.07 87.09 88.92 80.33 Z" />
<path fill="#e4ecf7" d=" M 0.00 81.00 C 8.33 81.01 16.65 80.99 24.98 81.01 C 25.02 87.34 25.02 93.67 24.98 100.00 C 16.65 100.00 8.33 100.03 0.00 99.97 L 0.00 81.00 Z" />
<path fill="#ffffff" d=" M 26.00 81.00 C 41.66 81.00 57.32 81.00 72.98 81.00 C 78.30 80.99 83.67 81.41 88.92 80.33 C 89.07 87.09 89.00 93.84 88.92 100.60 C 86.65 100.04 84.29 99.93 81.96 99.94 C 63.31 100.08 44.66 99.95 26.01 100.00 C 26.00 93.67 26.00 87.33 26.00 81.00 Z" />
<path fill="#ffffff" d=" M 154.08 80.41 C 157.98 81.35 162.02 80.99 165.99 81.02 C 182.66 80.98 199.33 81.02 216.00 80.99 L 216.00 100.00 C 195.27 100.00 174.54 99.99 153.81 100.00 C 154.25 93.48 153.85 86.94 154.08 80.41 Z" />
<path fill="#f3c771" d=" M 10.36 90.38 C 9.71 89.00 11.63 86.64 13.09 87.10 C 12.91 87.65 12.54 88.75 12.36 89.30 L 11.80 90.04 C 11.44 90.12 10.72 90.30 10.36 90.38 Z" />
<path fill="#49645d" d=" M 13.09 87.10 L 13.83 87.46 C 13.81 87.90 13.76 88.79 13.74 89.24 L 13.10 89.54 L 12.36 89.30 C 12.54 88.75 12.91 87.65 13.09 87.10 Z" />
<path fill="#6ab1e4" d=" M 13.83 87.46 C 15.68 87.42 15.85 91.58 14.57 92.76 L 14.07 92.58 C 14.23 91.43 14.12 90.32 13.74 89.24 C 13.76 88.79 13.81 87.90 13.83 87.46 Z" />
<path fill="#a8763d" d=" M 13.10 89.54 L 13.74 89.24 C 14.12 90.32 14.23 91.43 14.07 92.58 L 13.40 92.64 C 12.42 91.73 12.32 90.69 13.10 89.54 Z" />
<path fill="#7da4a4" d=" M 10.36 90.38 C 10.72 90.30 11.44 90.12 11.80 90.04 C 11.65 90.41 11.36 91.16 11.21 91.53 L 10.41 91.22 L 10.36 90.38 Z" />
<path fill="#9b5c3d" d=" M 9.08 92.41 C 9.44 92.59 10.15 92.94 10.50 93.12 L 10.26 93.70 C 9.88 93.56 9.14 93.28 8.77 93.14 L 9.08 92.41 Z" />
<path fill="#274a52" d=" M 10.50 93.12 C 11.23 93.00 12.68 92.76 13.40 92.64 L 14.07 92.58 L 14.57 92.76 C 14.71 92.99 15.00 93.46 15.14 93.70 L 14.75 94.06 L 13.96 94.18 L 13.05 94.18 C 12.35 94.06 10.96 93.82 10.26 93.70 L 10.50 93.12 Z" />
<path fill="#a8763d" d=" M 13.05 94.18 L 13.96 94.18 C 13.97 94.57 14.01 95.34 14.02 95.73 C 13.69 95.55 13.01 95.20 12.68 95.02 L 13.05 94.18 Z" />
<path fill="#6ab1e4" d=" M 13.96 94.18 L 14.75 94.06 L 15.28 94.87 L 14.85 95.73 L 14.02 95.73 C 14.01 95.34 13.97 94.57 13.96 94.18 Z" />
<path fill="#d0d7e5" d=" M 26.01 100.00 C 44.66 99.95 63.31 100.08 81.96 99.94 C 84.29 99.93 86.65 100.04 88.92 100.60 L 89.57 100.73 L 90.00 100.80 C 89.95 107.20 90.02 113.59 90.04 119.98 C 111.03 120.00 132.01 120.03 153.00 119.97 C 153.25 113.67 152.36 107.29 153.61 101.06 L 153.74 100.44 L 153.81 100.00 C 174.54 99.99 195.27 100.00 216.00 100.00 L 216.00 101.01 C 195.36 101.06 174.72 100.88 154.09 101.09 C 153.96 107.38 153.96 113.67 154.05 119.97 C 174.70 120.04 195.35 119.99 216.00 120.00 L 216.00 121.02 C 195.34 121.00 174.68 120.98 154.02 121.03 C 153.96 127.33 153.95 133.62 154.11 139.92 C 174.74 140.12 195.37 139.93 216.00 140.00 L 216.00 141.03 C 195.28 140.81 174.55 141.29 153.83 140.81 C 153.79 140.59 153.72 140.15 153.68 139.93 C 152.44 133.69 153.16 127.32 152.98 121.01 C 131.99 121.02 111.00 120.96 90.02 121.03 C 89.80 127.34 90.61 133.72 89.39 139.96 L 89.27 140.54 L 89.17 140.98 C 68.11 141.01 47.06 141.01 26.01 140.98 L 26.01 140.01 C 46.97 139.93 67.93 140.13 88.89 139.90 C 89.06 133.61 89.05 127.33 88.98 121.04 C 67.99 120.93 47.00 121.05 26.00 120.99 L 26.00 120.01 C 46.99 119.97 67.97 120.03 88.95 119.98 C 89.06 113.68 89.06 107.38 88.89 101.08 C 67.93 100.87 46.97 101.11 26.01 100.97 L 26.01 100.00 Z" />
<path fill="#e4ecf7" d=" M 0.00 101.00 C 8.33 101.01 16.66 100.98 24.99 101.02 C 25.01 107.34 25.02 113.67 24.98 120.00 C 16.65 119.99 8.33 120.04 0.00 119.95 L 0.00 101.00 Z" />
<path fill="#ffffff" d=" M 26.01 100.97 C 46.97 101.11 67.93 100.87 88.89 101.08 C 89.06 107.38 89.06 113.68 88.95 119.98 C 67.97 120.03 46.99 119.97 26.00 120.01 C 26.00 113.66 26.00 107.32 26.01 100.97 Z" />
<path fill="#ffffff" d=" M 90.00 100.80 C 111.19 101.30 132.41 100.79 153.61 101.06 C 152.36 107.29 153.25 113.67 153.00 119.97 C 132.01 120.03 111.03 120.00 90.04 119.98 C 90.02 113.59 89.95 107.20 90.00 100.80 Z" />
<path fill="#ffffff" d=" M 154.09 101.09 C 174.72 100.88 195.36 101.06 216.00 101.01 L 216.00 120.00 C 195.35 119.99 174.70 120.04 154.05 119.97 C 153.96 113.67 153.96 107.38 154.09 101.09 Z" />
<path fill="#a8763d" d=" M 10.58 107.49 L 11.19 107.54 L 11.42 108.15 C 11.45 108.58 11.53 109.44 11.57 109.86 L 11.39 110.56 C 9.76 111.06 9.28 108.13 10.58 107.49 Z" />
<path fill="#27413e" d=" M 11.19 107.54 C 11.86 107.44 13.18 107.25 13.84 107.15 L 13.89 107.71 C 13.47 107.84 12.64 108.10 12.22 108.23 L 11.42 108.15 L 11.19 107.54 Z" />
<path fill="#2797cf" d=" M 13.84 107.15 C 13.85 107.29 13.88 107.57 13.89 107.71 L 13.84 107.15 Z" />
<path fill="#8dc7f7" d=" M 11.42 108.15 L 12.22 108.23 C 12.27 108.59 12.36 109.30 12.41 109.66 L 11.57 109.86 C 11.53 109.44 11.45 108.58 11.42 108.15 Z" />
<path fill="#274151" d=" M 11.57 109.86 L 12.41 109.66 L 13.44 109.76 C 14.88 110.94 11.79 111.97 11.39 110.56 L 11.57 109.86 Z" />
<path fill="#77646b" d=" M 13.79 112.41 C 14.13 112.44 14.81 112.51 15.15 112.54 C 14.81 113.18 14.12 114.46 13.78 115.10 L 13.23 115.02 C 13.37 114.37 13.65 113.06 13.79 112.41 Z" />
<path fill="#d1af8a" d=" M 10.32 115.65 C 7.75 116.39 9.55 112.50 10.58 115.01 L 10.32 115.65 Z" />
<path fill="#27413e" d=" M 10.58 115.01 C 11.24 115.01 12.57 115.02 13.23 115.02 L 13.08 115.57 C 12.39 115.59 11.01 115.63 10.32 115.65 L 10.58 115.01 Z" />
<path fill="#2776b8" d=" M 13.23 115.02 L 13.78 115.10 C 13.61 115.22 13.26 115.45 13.08 115.57 L 13.23 115.02 Z" />
<path fill="#e4ecf7" d=" M 0.00 121.00 C 8.33 121.01 16.65 120.98 24.98 121.01 C 25.01 127.33 25.02 133.66 24.99 139.99 C 16.66 140.01 8.33 140.01 0.00 139.98 L 0.00 121.00 Z" />
<path fill="#ffffff" d=" M 26.00 120.99 C 47.00 121.05 67.99 120.93 88.98 121.04 C 89.05 127.33 89.06 133.61 88.89 139.90 C 67.93 140.13 46.97 139.93 26.01 140.01 C 26.00 133.67 26.00 127.33 26.00 120.99 Z" />
<path fill="#ffffff" d=" M 90.02 121.03 C 111.00 120.96 131.99 121.02 152.98 121.01 C 153.16 127.32 152.44 133.69 153.68 139.93 C 132.25 140.07 110.82 140.00 89.39 139.96 C 90.61 133.72 89.80 127.34 90.02 121.03 Z" />
<path fill="#ffffff" d=" M 154.02 121.03 C 174.68 120.98 195.34 121.00 216.00 121.02 L 216.00 140.00 C 195.37 139.93 174.74 140.12 154.11 139.92 C 153.95 133.62 153.96 127.33 154.02 121.03 Z" />
<path fill="#525d71" d=" M 10.02 134.96 C 9.18 131.93 9.92 128.96 11.90 126.62 C 13.23 126.93 14.55 127.30 15.85 127.73 C 14.94 127.84 13.13 128.06 12.22 128.17 C 11.87 128.56 11.18 129.35 10.84 129.74 C 12.42 130.07 14.60 129.59 15.26 131.60 L 14.51 131.49 C 13.78 131.36 12.32 131.11 11.59 130.98 C 11.19 132.35 10.75 133.72 10.02 134.96 Z" />
<path fill="#93653d" d=" M 14.51 131.49 L 15.26 131.60 C 15.36 132.73 14.90 133.57 13.88 134.10 C 14.04 133.45 14.35 132.14 14.51 131.49 Z" />
<path fill="#75addc" d=" M 15.26 131.60 C 17.35 131.94 15.67 136.82 13.51 135.64 L 13.46 134.92 L 13.88 134.10 C 14.90 133.57 15.36 132.73 15.26 131.60 Z" />
<path fill="#3d413e" d=" M 11.61 136.27 C 10.21 135.31 12.69 133.93 13.46 134.92 L 13.51 135.64 C 13.03 135.80 12.08 136.12 11.61 136.27 Z" />
<path fill="#ff0000" d=" M 89.27 140.54 L 89.39 139.96 C 110.82 140.00 132.25 140.07 153.68 139.93 C 153.72 140.15 153.79 140.59 153.83 140.81 C 154.20 147.40 153.92 154.01 154.03 160.61 L 153.45 160.74 L 153.00 160.84 C 131.91 161.20 110.79 160.91 89.69 160.99 C 89.52 160.83 89.17 160.52 89.00 160.36 C 89.05 153.90 88.81 147.43 89.17 140.98 L 89.27 140.54 Z" />
<path fill="#e4ecf7" d=" M 0.00 141.00 C 8.33 141.01 16.66 140.97 24.99 141.02 C 25.01 147.34 25.01 153.67 24.98 159.99 C 16.66 160.01 8.33 160.00 0.00 159.99 L 0.00 141.00 Z" />
<path fill="#ffffff" d=" M 26.01 140.98 C 47.06 141.01 68.11 141.01 89.17 140.98 C 88.81 147.43 89.05 153.90 89.00 160.36 C 86.35 160.05 83.68 159.97 81.01 159.96 C 62.68 160.06 44.34 159.96 26.01 160.02 C 26.00 153.67 26.00 147.33 26.01 140.98 Z" />
<path fill="#ffffff" d=" M 153.83 140.81 C 174.55 141.29 195.28 140.81 216.00 141.03 L 216.00 159.99 C 197.66 159.95 179.32 160.09 160.98 159.93 C 158.64 159.90 156.32 160.21 154.03 160.61 C 153.92 154.01 154.20 147.40 153.83 140.81 Z" />
<path fill="#47574e" d=" M 9.61 147.35 C 11.24 146.70 13.30 146.62 14.96 147.11 L 14.70 147.68 L 14.31 148.17 C 12.90 148.14 10.39 148.63 9.61 147.35 Z" />
<path fill="#276db6" d=" M 14.96 147.11 C 15.29 147.33 15.93 147.76 16.25 147.97 L 15.78 148.68 L 14.93 148.53 L 14.70 147.68 L 14.96 147.11 Z" />
<path fill="#95786c" d=" M 14.31 148.17 L 14.70 147.68 L 14.93 148.53 L 15.03 149.89 C 14.75 150.34 14.20 151.23 13.93 151.68 C 13.78 153.05 13.30 154.30 12.49 155.42 C 12.48 155.43 12.46 155.45 12.45 155.45 L 10.65 156.52 C 11.71 153.67 12.85 150.84 14.31 148.17 Z" />
<path fill="#5aafe3" d=" M 13.93 151.68 C 14.20 151.23 14.75 150.34 15.03 149.89 L 15.39 150.72 L 14.82 151.64 L 13.93 151.68 Z" />
<path fill="#6ab1e4" d=" M 12.45 155.45 C 12.46 155.45 12.48 155.43 12.49 155.42 C 12.48 155.43 12.46 155.45 12.45 155.45 Z" />
<path fill="#d0d7e5" d=" M 26.01 160.02 C 44.34 159.96 62.68 160.06 81.01 159.96 C 83.68 159.97 86.35 160.05 89.00 160.36 C 89.17 160.52 89.52 160.83 89.69 160.99 C 90.29 167.31 89.90 173.66 90.04 179.99 C 111.02 179.99 131.99 180.03 152.97 179.97 C 152.99 173.59 153.03 167.22 153.00 160.84 L 153.45 160.74 L 154.03 160.61 C 156.32 160.21 158.64 159.90 160.98 159.93 C 179.32 160.09 197.66 159.95 216.00 159.99 L 216.00 161.01 C 195.36 161.04 174.72 160.86 154.09 161.12 C 153.95 167.40 153.95 173.68 154.03 179.96 C 174.69 180.06 195.34 179.96 216.00 180.00 L 216.00 181.06 C 195.35 180.92 174.70 181.04 154.06 181.01 C 153.94 187.30 153.94 193.59 154.09 199.88 C 174.73 200.18 195.36 199.92 216.00 200.00 L 216.00 200.97 C 199.66 201.04 183.31 200.97 166.97 201.01 C 162.64 201.01 158.31 201.16 154.00 200.72 L 153.63 200.36 L 153.26 200.00 C 152.71 193.69 153.10 187.34 152.97 181.02 C 131.98 180.99 110.99 180.98 90.00 181.02 C 89.90 187.35 90.36 193.70 89.61 200.00 C 89.46 200.18 89.16 200.52 89.01 200.70 C 84.35 201.17 79.65 201.02 74.97 201.01 C 58.65 200.98 42.33 201.03 26.01 200.98 L 26.01 200.02 C 46.98 199.90 67.95 200.16 88.93 199.89 C 89.03 193.61 89.03 187.32 88.96 181.04 C 67.98 180.93 46.99 181.05 26.01 180.98 L 26.01 180.00 C 47.00 179.98 67.99 180.03 88.98 179.98 C 89.04 173.68 89.04 167.38 88.89 161.09 C 67.93 160.87 46.97 161.08 26.01 160.98 L 26.01 160.02 Z" />
<path fill="#e4ecf7" d=" M 0.00 161.00 C 8.33 161.00 16.65 160.99 24.98 161.01 C 25.02 167.34 25.02 173.67 24.98 180.00 C 16.65 180.01 8.33 180.00 0.00 180.00 L 0.00 161.00 Z" />
<path fill="#ffffff" d=" M 26.01 160.98 C 46.97 161.08 67.93 160.87 88.89 161.09 C 89.04 167.38 89.04 173.68 88.98 179.98 C 67.99 180.03 47.00 179.98 26.01 180.00 C 26.00 173.66 26.00 167.32 26.01 160.98 Z" />
<path fill="#ffffff" d=" M 89.69 160.99 C 110.79 160.91 131.91 161.20 153.00 160.84 C 153.03 167.22 152.99 173.59 152.97 179.97 C 131.99 180.03 111.02 179.99 90.04 179.99 C 89.90 173.66 90.29 167.31 89.69 160.99 Z" />
<path fill="#ffffff" d=" M 154.09 161.12 C 174.72 160.86 195.36 161.04 216.00 161.01 L 216.00 180.00 C 195.34 179.96 174.69 180.06 154.03 179.96 C 153.95 173.68 153.95 167.40 154.09 161.12 Z" />
<path fill="#9f8e89" d=" M 10.74 171.77 C 9.82 170.15 9.30 168.45 11.09 167.26 L 11.04 167.75 C 10.66 169.31 11.17 170.43 12.57 171.12 L 12.22 171.63 C 11.88 172.31 11.20 173.67 10.86 174.35 L 10.81 174.51 C 10.86 174.56 10.97 174.68 11.02 174.73 L 10.96 175.14 L 10.63 176.65 C 10.06 175.56 9.49 174.46 8.92 173.37 C 9.37 172.97 10.28 172.17 10.74 171.77 Z" />
<path fill="#4e546d" d=" M 11.09 167.26 C 12.30 166.30 14.69 166.76 15.09 168.37 C 14.83 168.81 14.31 169.69 14.05 170.13 C 13.89 168.69 12.40 167.76 11.04 167.75 L 11.09 167.26 Z" />
<path fill="#d1e7e6" d=" M 11.04 167.75 C 12.40 167.76 13.89 168.69 14.05 170.13 C 13.88 170.31 13.55 170.65 13.38 170.82 L 12.57 171.12 C 11.17 170.43 10.66 169.31 11.04 167.75 Z" />
<path fill="#a8d4f2" d=" M 15.09 168.37 C 17.35 168.23 15.71 172.18 14.07 170.80 L 14.05 170.13 C 14.31 169.69 14.83 168.81 15.09 168.37 Z" />
<path fill="#a8763d" d=" M 13.38 170.82 C 13.55 170.65 13.88 170.31 14.05 170.13 L 14.07 170.80 L 13.38 170.82 Z" />
<path fill="#526b7a" d=" M 12.57 171.12 L 13.38 170.82 L 14.07 170.80 C 14.30 171.20 14.76 171.99 14.98 172.39 L 14.71 173.00 L 13.93 173.11 C 13.50 172.74 12.65 172.00 12.22 171.63 L 12.57 171.12 Z" />
<path fill="#dce9eb" d=" M 12.22 171.63 C 12.65 172.00 13.50 172.74 13.93 173.11 C 13.90 173.57 13.84 174.50 13.81 174.96 C 13.12 174.91 11.72 174.79 11.02 174.73 L 10.86 174.35 C 11.20 173.67 11.88 172.31 12.22 171.63 Z" />
<path fill="#96c9ef" d=" M 14.98 172.39 C 17.50 172.29 15.99 177.02 13.88 175.56 L 13.81 174.96 C 14.04 174.47 14.48 173.49 14.71 173.00 L 14.98 172.39 Z" />
<path fill="#895c3d" d=" M 13.93 173.11 L 14.71 173.00 C 14.48 173.49 14.04 174.47 13.81 174.96 C 13.84 174.50 13.90 173.57 13.93 173.11 Z" />
<path fill="#27429c" d=" M 10.81 174.51 L 10.86 174.35 L 11.02 174.73 C 10.97 174.68 10.86 174.56 10.81 174.51 Z" />
<path fill="#27413e" d=" M 11.02 174.73 C 11.72 174.79 13.12 174.91 13.81 174.96 L 13.88 175.56 C 13.35 175.68 12.29 175.92 11.76 176.04 L 10.96 175.14 L 11.02 174.73 Z" />
<path fill="#e4ecf7" d=" M 0.00 181.00 C 8.33 181.01 16.66 180.98 24.98 181.02 C 25.02 187.34 25.02 193.67 24.98 200.00 C 16.65 200.01 8.33 199.98 0.00 200.01 L 0.00 181.00 Z" />
<path fill="#ffffff" d=" M 26.01 180.98 C 46.99 181.05 67.98 180.93 88.96 181.04 C 89.03 187.32 89.03 193.61 88.93 199.89 C 67.95 200.16 46.98 199.90 26.01 200.02 C 26.00 193.67 26.00 187.33 26.01 180.98 Z" />
<path fill="#ffffff" d=" M 90.00 181.02 C 110.99 180.98 131.98 180.99 152.97 181.02 C 153.10 187.34 152.71 193.69 153.26 200.00 C 132.05 199.99 110.83 200.00 89.61 200.00 C 90.36 193.70 89.90 187.35 90.00 181.02 Z" />
<path fill="#ffffff" d=" M 154.06 181.01 C 174.70 181.04 195.35 180.92 216.00 181.06 L 216.00 200.00 C 195.36 199.92 174.73 200.18 154.09 199.88 C 153.94 193.59 153.94 187.30 154.06 181.01 Z" />
<path fill="#e0caa7" d=" M 10.34 190.76 C 7.65 191.00 8.76 185.91 11.18 187.44 L 11.33 187.99 C 10.05 188.57 9.72 189.50 10.34 190.76 Z" />
<path fill="#274151" d=" M 11.18 187.44 C 12.31 186.30 13.23 186.33 13.95 187.53 L 13.19 188.03 C 12.72 188.02 11.79 188.00 11.33 187.99 L 11.18 187.44 Z" />
<path fill="#275399" d=" M 10.34 190.76 C 9.72 189.50 10.05 188.57 11.33 187.99 C 11.28 188.63 11.19 189.92 11.15 190.56 L 10.34 190.76 Z" />
<path fill="#d3e9f1" d=" M 11.33 187.99 C 11.79 188.00 12.72 188.02 13.19 188.03 C 13.88 188.88 14.11 189.88 13.88 191.01 C 13.20 190.90 11.83 190.68 11.15 190.56 C 11.19 189.92 11.28 188.63 11.33 187.99 Z" />
<path fill="#ff0000" d=" M 13.19 188.03 L 13.95 187.53 C 14.75 190.26 14.86 193.27 12.95 195.60 C 13.14 194.69 13.53 192.88 13.73 191.97 L 13.87 191.42 L 13.88 191.01 C 14.11 189.88 13.88 188.88 13.19 188.03 Z" />
<path fill="#87b7e3" d=" M 13.95 187.53 C 17.20 189.45 16.21 195.08 12.66 196.14 L 12.95 195.60 C 14.86 193.27 14.75 190.26 13.95 187.53 Z" />
<path fill="#4d574c" d=" M 10.34 190.76 L 11.15 190.56 C 11.83 190.68 13.20 190.90 13.88 191.01 L 13.87 191.42 L 13.73 191.97 C 12.07 192.56 10.94 192.16 10.34 190.76 Z" />
<path fill="#3d413e" d=" M 10.29 195.69 C 10.95 194.51 11.84 194.48 12.95 195.60 L 12.66 196.14 C 12.07 196.03 10.88 195.80 10.29 195.69 Z" />
<path fill="#ff0000" d=" M 89.01 200.70 C 89.16 200.52 89.46 200.18 89.61 200.00 C 110.83 200.00 132.05 199.99 153.26 200.00 L 153.63 200.36 L 154.00 200.72 C 154.07 204.14 153.99 207.57 153.99 211.00 L 89.01 211.00 C 89.00 207.56 88.93 204.13 89.01 200.70 Z" />
<path fill="#e4ecf7" d=" M 0.00 201.00 C 8.33 201.00 16.66 200.99 24.99 201.01 C 25.00 204.34 25.00 207.67 25.01 211.00 L 19.74 211.00 C 20.67 209.48 19.73 207.58 18.02 207.28 C 16.87 206.63 15.80 206.74 14.79 207.62 L 14.08 208.09 C 12.74 208.81 12.48 209.78 13.30 211.00 L 10.74 211.00 C 11.60 209.88 11.48 207.49 9.72 207.42 L 9.12 207.30 L 8.97 207.92 C 9.11 208.69 9.38 210.23 9.52 211.00 L 0.00 211.00 L 0.00 201.00 Z" />
<path fill="#ffffff" d=" M 26.01 200.98 C 42.33 201.03 58.65 200.98 74.97 201.01 C 79.65 201.02 84.35 201.17 89.01 200.70 C 88.93 204.13 89.00 207.56 89.01 211.00 L 26.00 211.00 C 26.00 207.66 26.00 204.32 26.01 200.98 Z" />
<path fill="#ffffff" d=" M 154.00 200.72 C 158.31 201.16 162.64 201.01 166.97 201.01 C 183.31 200.97 199.66 201.04 216.00 200.97 L 216.00 211.00 L 153.99 211.00 C 153.99 207.57 154.07 204.14 154.00 200.72 Z" />
<path fill="#27413e" d=" M 9.12 207.30 L 9.72 207.42 L 9.55 208.02 L 8.97 207.92 L 9.12 207.30 Z" />
<path fill="#6ab1e4" d=" M 9.72 207.42 C 11.48 207.49 11.60 209.88 10.74 211.00 L 10.17 211.00 C 10.02 210.26 9.70 208.77 9.55 208.02 L 9.72 207.42 Z" />
<path fill="#3d413e" d=" M 14.79 207.62 C 15.80 206.74 16.87 206.63 18.02 207.28 L 17.71 208.01 C 17.14 208.01 16.01 208.01 15.44 208.01 L 14.79 207.62 Z" />
<path fill="#77acda" d=" M 18.02 207.28 C 19.73 207.58 20.67 209.48 19.74 211.00 L 19.25 211.00 C 18.90 210.51 18.20 209.52 17.86 209.03 L 17.71 208.01 L 18.02 207.28 Z" />
<path fill="#8d423d" d=" M 7.22 208.22 C 7.81 208.81 7.81 208.81 7.22 208.22 Z" />
<path fill="#a8763d" d=" M 8.97 207.92 L 9.55 208.02 C 9.70 208.77 10.02 210.26 10.17 211.00 L 9.52 211.00 C 9.38 210.23 9.11 208.69 8.97 207.92 Z" />
<path fill="#decca1" d=" M 13.30 211.00 C 12.48 209.78 12.74 208.81 14.08 208.09 C 14.07 208.82 14.06 210.27 14.05 211.00 L 13.30 211.00 Z" />
<path fill="#516b9d" d=" M 14.08 208.09 L 14.79 207.62 L 15.44 208.01 C 15.77 209.17 15.49 210.16 14.60 211.00 L 14.05 211.00 C 14.06 210.27 14.07 208.82 14.08 208.09 Z" />
<path fill="#dde7e7" d=" M 15.44 208.01 C 16.01 208.01 17.14 208.01 17.71 208.01 L 17.86 209.03 C 17.98 209.52 18.24 210.51 18.37 211.00 L 14.60 211.00 C 15.49 210.16 15.77 209.17 15.44 208.01 Z" />
<path fill="#a8763d" d=" M 17.86 209.03 C 18.20 209.52 18.90 210.51 19.25 211.00 L 18.37 211.00 C 18.24 210.51 17.98 209.52 17.86 209.03 Z" />
</svg>
