<?xml version="1.0" encoding="UTF-8" standalone="no"?>
<svg
   xmlns:dc="http://purl.org/dc/elements/1.1/"
   xmlns:cc="http://creativecommons.org/ns#"
   xmlns:rdf="http://www.w3.org/1999/02/22-rdf-syntax-ns#"
   xmlns:svg="http://www.w3.org/2000/svg"
   xmlns="http://www.w3.org/2000/svg"
   xmlns:sodipodi="http://sodipodi.sourceforge.net/DTD/sodipodi-0.dtd"
   xmlns:inkscape="http://www.inkscape.org/namespaces/inkscape"
   width="576pt"
   height="105pt"
   viewBox="0 0 576 105"
   version="1.1"
   id="svg2"
   inkscape:version="0.48.4 r9939"
   sodipodi:docname="pie-excel.svg">
  <metadata
     id="metadata288">
    <rdf:RDF>
      <cc:Work
         rdf:about="">
        <dc:format>image/svg+xml</dc:format>
        <dc:type
           rdf:resource="http://purl.org/dc/dcmitype/StillImage" />
      </cc:Work>
    </rdf:RDF>
  </metadata>
  <defs
     id="defs286" />
  <sodipodi:namedview
     pagecolor="#ffffff"
     bordercolor="#666666"
     borderopacity="1"
     objecttolerance="10"
     gridtolerance="10"
     guidetolerance="10"
     inkscape:pageopacity="0"
     inkscape:pageshadow="2"
     inkscape:window-width="640"
     inkscape:window-height="480"
     id="namedview284"
     showgrid="false"
     inkscape:zoom="1.2413652"
     inkscape:cx="249.64824"
     inkscape:cy="31.78385"
     inkscape:window-x="0"
     inkscape:window-y="25"
     inkscape:window-maximized="0"
     inkscape:current-layer="svg2" />
  <path
     fill="#3b5a82"
     d=" M 0.00 0.00 L 1.17 0.00 C 1.20 33.95 1.20 67.91 1.17 101.86 C 1.15 102.40 1.10 103.47 1.07 104.00 C 192.71 104.00 384.36 104.00 576.00 104.00 L 576.00 105.00 L 0.00 105.00 L 0.00 0.00 Z"
     id="path4" />
  <path
     fill="#ccdff8"
     d=" M 1.17 0.00 L 2.79 0.00 C 2.71 32.36 2.74 64.72 2.75 97.08 C 2.85 98.83 2.17 100.46 1.17 101.86 C 1.20 67.91 1.20 33.95 1.17 0.00 Z"
     id="path6" />
  <path
     fill="#b0cbef"
     d=" M 2.79 0.00 L 4.10 0.00 C 4.06 6.00 4.08 12.00 4.06 18.00 L 4.06 19.00 C 4.06 25.33 4.10 31.67 4.02 38.00 L 4.02 39.00 C 3.97 45.34 4.02 51.67 3.99 58.00 L 3.99 59.00 C 3.98 60.67 3.98 62.33 4.00 64.00 L 4.02 65.00 L 4.05 66.05 C 4.10 67.39 4.15 68.72 4.21 70.05 C 5.74 69.98 7.28 69.90 8.82 69.82 C 8.81 70.41 8.79 71.59 8.77 72.18 C 7.29 72.19 5.80 72.21 4.31 72.22 C 4.21 73.78 4.11 75.34 4.04 76.91 L 4.00 78.03 L 3.99 78.74 L 4.00 80.00 L 4.03 81.13 C 4.12 82.98 4.24 84.83 4.36 86.68 C 6.50 86.83 8.64 86.98 10.78 87.14 C 10.73 88.91 10.68 90.69 10.64 92.47 C 8.48 92.58 6.33 92.69 4.18 92.80 C 4.15 95.23 4.12 97.66 4.10 100.10 C 19.09 100.52 34.09 100.10 49.09 100.30 C 49.38 99.89 49.97 99.07 50.27 98.66 L 50.92 97.71 C 50.93 98.42 50.96 99.86 50.97 100.58 C 53.96 100.42 56.95 100.27 59.95 100.25 C 231.97 100.29 403.98 100.23 576.00 100.27 L 576.00 104.00 C 384.36 104.00 192.71 104.00 1.07 104.00 C 1.10 103.47 1.15 102.40 1.17 101.86 C 2.17 100.46 2.85 98.83 2.75 97.08 C 2.74 64.72 2.71 32.36 2.79 0.00 Z"
     id="path8" />
  <path
     fill="#e4ecf7"
     d=" M 4.10 0.00 L 29.00 0.00 C 29.00 6.00 29.02 11.99 28.98 17.99 C 20.67 18.01 12.37 17.99 4.06 18.00 C 4.08 12.00 4.06 6.00 4.10 0.00 Z"
     id="path10" />
  <path
     fill="#9eb6ce"
     d=" M 29.00 0.00 L 30.03 0.00 C 29.98 6.02 30.00 12.03 30.01 18.05 L 30.01 19.00 C 30.00 25.34 30.00 31.67 30.00 38.01 L 29.00 38.01 C 29.00 31.68 29.01 25.35 28.99 19.02 C 20.68 18.97 12.37 19.01 4.06 19.00 L 4.06 18.00 C 12.37 17.99 20.67 18.01 28.98 17.99 C 29.02 11.99 29.00 6.00 29.00 0.00 Z"
     id="path12" />
  <path
     fill="#ffffff"
     d=" M 30.03 0.00 L 93.00 0.00 C 93.02 5.99 93.02 11.98 92.96 17.97 C 71.98 18.07 50.99 17.91 30.01 18.05 C 30.00 12.03 29.98 6.02 30.03 0.00 Z"
     id="path14" />
  <path
     fill="#d0d7e5"
     d=" M 93.00 0.00 L 94.06 0.00 C 93.98 5.99 93.97 11.98 94.02 17.97 C 115.00 18.00 135.98 18.05 156.96 17.96 C 157.02 11.98 157.00 5.99 156.99 0.00 L 158.02 0.00 C 158.00 6.00 157.97 11.99 158.02 17.99 C 179.00 18.04 199.98 17.98 220.96 18.00 C 221.02 12.00 221.00 6.00 220.99 0.00 L 222.02 0.00 C 221.99 5.99 221.97 11.98 222.02 17.97 C 243.01 18.03 264.00 18.02 284.99 17.96 C 285.04 11.97 285.00 5.99 284.99 0.00 L 285.98 0.00 C 286.02 5.99 286.00 11.98 286.03 17.98 C 307.01 17.98 327.99 18.05 348.98 17.97 C 349.00 11.98 348.99 5.99 349.00 0.00 L 349.99 0.00 C 350.00 5.99 349.97 11.97 350.02 17.96 C 370.99 18.06 391.97 17.98 412.94 18.00 C 413.02 12.00 413.01 6.00 413.00 0.00 L 414.01 0.00 C 414.00 5.99 413.97 11.98 414.01 17.97 C 434.99 18.04 455.97 17.99 476.95 17.99 C 477.03 12.00 477.00 6.00 476.99 0.00 L 477.93 0.00 C 478.01 5.99 477.98 11.98 478.04 17.96 C 499.02 18.02 520.00 18.04 540.98 17.97 C 541.01 11.98 541.00 5.99 541.00 0.00 L 542.04 0.00 C 541.98 6.00 541.96 12.00 542.03 18.00 C 553.35 18.00 564.68 18.01 576.00 18.00 L 576.00 19.07 C 564.68 18.94 553.36 19.03 542.04 19.02 C 541.97 25.34 541.97 31.66 542.04 37.98 C 553.36 38.03 564.68 37.99 576.00 38.01 L 576.00 39.02 C 564.68 38.98 553.36 39.00 542.05 39.01 C 541.98 45.32 541.99 51.63 542.00 57.94 C 553.33 58.06 564.67 57.99 576.00 58.00 L 576.00 58.98 C 564.69 59.06 553.38 58.94 542.08 59.01 C 542.01 60.80 541.95 62.59 541.90 64.38 L 541.05 64.38 C 541.01 62.60 540.97 60.81 540.94 59.02 C 519.98 58.96 499.01 59.01 478.05 59.00 C 478.02 60.80 477.99 62.59 477.98 64.38 L 477.14 64.38 C 477.05 62.60 476.97 60.81 476.90 59.03 C 455.95 58.99 435.01 58.99 414.07 59.02 C 414.02 60.81 413.97 62.60 413.93 64.38 L 413.10 64.38 C 413.03 62.60 412.96 60.81 412.90 59.02 C 391.97 58.96 371.04 59.03 350.11 59.00 C 350.04 60.79 349.96 62.59 349.90 64.38 L 349.07 64.38 C 349.01 62.60 348.97 60.81 348.92 59.03 C 327.97 58.95 307.02 59.02 286.07 59.01 C 286.02 60.81 285.97 62.60 285.93 64.40 L 285.09 64.40 C 285.04 62.61 284.99 60.82 284.94 59.03 C 263.99 58.96 243.04 58.99 222.10 59.03 C 222.03 60.68 221.97 62.33 221.90 63.99 L 221.07 63.99 C 221.01 62.33 220.96 60.67 220.92 59.00 C 199.97 59.02 179.03 58.96 158.09 59.03 C 158.04 60.66 157.99 62.30 157.94 63.93 L 157.08 63.98 C 157.02 62.33 156.97 60.67 156.92 59.02 C 135.97 59.01 115.02 58.95 94.07 59.04 C 94.02 60.69 93.97 62.34 93.92 63.99 L 93.06 63.99 C 93.02 62.33 92.98 60.68 92.94 59.02 C 71.96 58.97 50.98 59.03 30.00 59.01 L 30.00 58.01 C 50.99 57.95 71.97 58.07 92.96 57.97 C 93.01 51.65 93.03 45.33 92.98 39.01 C 71.99 38.97 50.99 39.02 30.00 38.99 L 30.00 38.01 C 50.99 37.97 71.98 38.04 92.97 37.96 C 93.03 31.64 93.03 25.32 92.95 19.00 C 71.97 18.99 50.99 19.01 30.01 19.00 L 30.01 18.05 C 50.99 17.91 71.98 18.07 92.96 17.97 C 93.02 11.98 93.02 5.99 93.00 0.00 Z"
     id="path16" />
  <path
     fill="#ffffff"
     d=" M 94.06 0.00 L 156.99 0.00 C 157.00 5.99 157.02 11.98 156.96 17.96 C 135.98 18.05 115.00 18.00 94.02 17.97 C 93.97 11.98 93.98 5.99 94.06 0.00 Z"
     id="path18" />
  <path
     fill="#ffffff"
     d=" M 158.02 0.00 L 220.99 0.00 C 221.00 6.00 221.02 12.00 220.96 18.00 C 199.98 17.98 179.00 18.04 158.02 17.99 C 157.97 11.99 158.00 6.00 158.02 0.00 Z"
     id="path20" />
  <path
     fill="#ffffff"
     d=" M 222.02 0.00 L 284.99 0.00 C 285.00 5.99 285.04 11.97 284.99 17.96 C 264.00 18.02 243.01 18.03 222.02 17.97 C 221.97 11.98 221.99 5.99 222.02 0.00 Z"
     id="path22" />
  <path
     fill="#ffffff"
     d=" M 285.98 0.00 L 349.00 0.00 C 348.99 5.99 349.00 11.98 348.98 17.97 C 327.99 18.05 307.01 17.98 286.03 17.98 C 286.00 11.98 286.02 5.99 285.98 0.00 Z"
     id="path24" />
  <path
     fill="#ffffff"
     d=" M 349.99 0.00 L 413.00 0.00 C 413.01 6.00 413.02 12.00 412.94 18.00 C 391.97 17.98 370.99 18.06 350.02 17.96 C 349.97 11.97 350.00 5.99 349.99 0.00 Z"
     id="path26" />
  <path
     fill="#ffffff"
     d=" M 414.01 0.00 L 476.99 0.00 C 477.00 6.00 477.03 12.00 476.95 17.99 C 455.97 17.99 434.99 18.04 414.01 17.97 C 413.97 11.98 414.00 5.99 414.01 0.00 Z"
     id="path28" />
  <path
     fill="#ffffff"
     d=" M 477.93 0.00 L 541.00 0.00 C 541.00 5.99 541.01 11.98 540.98 17.97 C 520.00 18.04 499.02 18.02 478.04 17.96 C 477.98 11.98 478.01 5.99 477.93 0.00 Z"
     id="path30" />
  <path
     fill="#ffffff"
     d=" M 542.04 0.00 L 576.00 0.00 L 576.00 18.00 C 564.68 18.01 553.35 18.00 542.03 18.00 C 541.96 12.00 541.98 6.00 542.04 0.00 Z"
     id="path32" />
  <path
     fill="#546a6a"
     d=" M 12.12 4.93 C 12.84 4.91 14.26 4.88 14.97 4.86 C 16.10 6.27 16.26 7.98 15.56 9.62 C 14.65 10.74 13.76 11.88 12.86 13.01 C 13.65 13.00 15.22 12.98 16.01 12.97 L 16.00 14.01 C 14.21 14.00 12.41 14.01 10.62 14.02 C 11.92 12.50 13.30 11.04 14.48 9.43 C 14.71 8.22 14.93 7.00 15.12 5.79 C 13.65 6.12 12.20 6.56 10.76 7.02 C 11.10 6.49 11.78 5.45 12.12 4.93 Z"
     id="path34" />
  <path
     fill="#516767"
     d=" M 17.68 6.97 C 18.23 5.02 20.32 5.00 21.95 4.63 C 22.63 6.01 23.06 7.48 23.28 8.99 L 22.00 9.00 C 21.99 8.21 21.98 6.61 21.98 5.81 C 20.53 6.16 19.11 6.60 17.68 6.97 Z"
     id="path36" />
  <path
     fill="#27413e"
     d=" M 19.67 9.12 C 22.85 7.58 19.97 12.30 19.67 9.12 Z"
     id="path38" />
  <path
     fill="#516767"
     d=" M 21.97 9.32 C 23.87 10.58 22.84 12.83 21.97 14.32 C 20.32 14.03 18.22 14.00 17.68 12.04 C 19.11 12.41 20.54 12.83 21.97 13.20 C 21.97 12.23 21.97 10.29 21.97 9.32 Z"
     id="path40" />
  <path
     fill="#e4ecf7"
     d=" M 4.06 19.00 C 12.37 19.01 20.68 18.97 28.99 19.02 C 29.01 25.35 29.00 31.68 29.00 38.01 C 20.67 37.99 12.35 38.00 4.02 38.00 C 4.10 31.67 4.06 25.33 4.06 19.00 Z"
     id="path42" />
  <path
     fill="#ffffff"
     d=" M 30.01 19.00 C 50.99 19.01 71.97 18.99 92.95 19.00 C 93.03 25.32 93.03 31.64 92.97 37.96 C 71.98 38.04 50.99 37.97 30.00 38.01 C 30.00 31.67 30.00 25.34 30.01 19.00 Z"
     id="path44" />
  <path
     fill="#ffffff"
     d=" M 94.02 19.04 C 115.00 18.95 135.98 19.03 156.96 19.01 C 157.01 25.34 157.03 31.67 156.95 37.99 C 135.97 38.00 115.00 38.00 94.03 38.00 C 93.99 31.68 93.99 25.36 94.02 19.04 Z"
     id="path46" />
  <path
     fill="#ffffff"
     d=" M 158.02 19.03 C 179.00 18.98 199.98 19.01 220.96 19.01 C 221.03 25.33 221.01 31.64 221.00 37.95 C 200.00 38.03 179.00 38.04 158.00 37.96 C 158.02 31.65 157.98 25.34 158.02 19.03 Z"
     id="path48" />
  <path
     fill="#ffffff"
     d=" M 222.03 19.03 C 243.03 19.00 264.02 18.96 285.01 19.05 C 285.02 25.37 285.01 31.68 284.98 37.99 C 264.00 38.00 243.02 38.02 222.04 38.00 C 221.98 31.68 221.97 25.35 222.03 19.03 Z"
     id="path50" />
  <path
     fill="#ffffff"
     d=" M 286.02 19.03 C 307.00 18.96 327.99 19.02 348.97 19.01 C 349.02 25.33 349.01 31.65 348.97 37.96 C 327.99 38.02 307.02 38.01 286.04 37.98 C 285.95 31.67 286.00 25.35 286.02 19.03 Z"
     id="path52" />
  <path
     fill="#ffffff"
     d=" M 350.01 19.03 C 371.00 19.00 391.98 18.97 412.97 19.04 C 413.02 25.35 413.02 31.66 412.96 37.97 C 391.97 38.01 370.98 38.03 349.99 37.96 C 349.98 31.65 349.99 25.34 350.01 19.03 Z"
     id="path54" />
  <path
     fill="#ffffff"
     d=" M 414.03 19.02 C 435.01 18.97 455.98 19.00 476.96 19.01 C 477.01 25.34 477.02 31.66 476.95 37.98 C 455.98 38.02 435.01 38.00 414.04 38.00 C 413.96 31.67 413.98 25.35 414.03 19.02 Z"
     id="path56" />
  <path
     fill="#ffffff"
     d=" M 478.01 19.02 C 499.00 18.99 519.98 18.98 540.96 19.03 C 541.02 25.34 541.00 31.65 540.99 37.96 C 519.99 38.04 499.00 38.01 478.01 37.96 C 477.99 31.65 477.96 25.33 478.01 19.02 Z"
     id="path58" />
  <path
     fill="#ffffff"
     d=" M 542.04 19.02 C 553.36 19.03 564.68 18.94 576.00 19.07 L 576.00 38.01 C 564.68 37.99 553.36 38.03 542.04 37.98 C 541.97 31.66 541.97 25.34 542.04 19.02 Z"
     id="path60" />
  <path
     fill="#546a6a"
     d=" M 10.63 27.06 C 11.24 25.22 13.99 23.70 15.32 25.68 C 16.89 26.54 15.84 28.32 15.53 29.61 C 14.65 30.75 13.76 31.88 12.86 33.00 C 13.65 33.00 15.24 32.98 16.03 32.98 L 16.00 34.01 C 14.20 34.01 12.40 34.01 10.60 33.99 C 11.60 32.82 12.67 31.70 13.77 30.62 C 14.64 28.97 15.80 26.99 13.58 25.92 C 12.84 26.21 11.36 26.78 10.63 27.06 Z"
     id="path62" />
  <path
     fill="#38514f"
     d=" M 20.93 24.88 C 21.45 24.91 22.48 24.98 23.00 25.02 C 23.23 27.10 22.37 29.58 23.88 31.32 C 23.47 32.21 23.09 33.10 22.73 34.01 L 22.00 34.02 C 22.00 33.52 21.99 32.50 21.99 32.00 C 20.63 32.00 19.28 32.00 17.93 32.00 C 17.98 31.62 18.09 30.85 18.14 30.47 C 18.94 29.01 19.67 27.51 20.33 25.98 L 21.19 26.14 C 20.53 27.74 19.77 29.37 19.69 31.13 C 22.82 30.82 22.41 26.72 20.93 24.88 Z"
     id="path64" />
  <path
     fill="#e4ecf7"
     d=" M 20.93 24.88 C 22.41 26.72 22.82 30.82 19.69 31.13 C 19.77 29.37 20.53 27.74 21.19 26.14 Z"
     id="path66" />
  <path
     fill="#f29536"
     d=" M 4.02 38.00 C 12.35 38.00 20.67 37.99 29.00 38.01 L 30.00 38.01 L 30.00 38.99 C 30.00 45.33 30.00 51.67 30.00 58.01 L 30.00 59.01 L 29.01 59.00 C 20.67 59.00 12.33 59.00 3.99 59.00 L 3.99 58.00 C 12.33 57.99 20.66 58.02 29.00 57.99 C 29.01 51.66 29.01 45.34 28.99 39.01 C 20.67 38.98 12.34 39.01 4.02 39.00 L 4.02 38.00 Z"
     id="path68" />
  <path
     fill="#ffd58d"
     d=" M 4.02 39.00 C 12.34 39.01 20.67 38.98 28.99 39.01 C 29.01 45.34 29.01 51.66 29.00 57.99 C 20.66 58.02 12.33 57.99 3.99 58.00 C 4.02 51.67 3.97 45.34 4.02 39.00 Z"
     id="path70" />
  <path
     fill="#ffffff"
     d=" M 30.00 38.99 C 50.99 39.02 71.99 38.97 92.98 39.01 C 93.03 45.33 93.01 51.65 92.96 57.97 C 71.97 58.07 50.99 57.95 30.00 58.01 C 30.00 51.67 30.00 45.33 30.00 38.99 Z"
     id="path72" />
  <path
     fill="#ffffff"
     d=" M 94.01 39.04 C 115.00 38.96 135.98 39.01 156.97 39.01 C 157.02 45.33 157.02 51.65 156.97 57.97 C 135.99 58.03 115.01 57.99 94.03 57.98 C 93.98 51.67 94.00 45.35 94.01 39.04 Z"
     id="path74" />
  <path
     fill="#ffffff"
     d=" M 158.02 39.03 C 179.01 38.97 199.99 39.00 220.98 39.01 C 221.02 45.33 221.00 51.66 220.98 57.98 C 199.99 57.98 178.99 58.04 158.00 57.96 C 157.98 51.65 157.98 45.34 158.02 39.03 Z"
     id="path76" />
  <path
     fill="#ffffff"
     d=" M 222.00 39.06 C 242.98 38.93 263.97 39.02 284.96 39.01 C 285.02 45.33 285.04 51.65 284.96 57.98 C 263.98 58.02 243.01 58.00 222.03 57.98 C 221.97 51.67 222.01 45.37 222.00 39.06 Z"
     id="path78" />
  <path
     fill="#ffffff"
     d=" M 286.02 39.02 C 307.01 38.99 328.00 38.96 348.99 39.05 C 349.00 45.36 349.02 51.67 348.96 57.98 C 327.99 58.02 307.02 58.00 286.05 57.99 C 285.97 51.67 285.99 45.34 286.02 39.02 Z"
     id="path80" />
  <path
     fill="#ffffff"
     d=" M 350.04 39.00 C 371.02 39.03 392.00 38.95 412.98 39.04 C 413.00 45.35 413.04 51.67 412.97 57.98 C 391.98 57.97 371.00 58.06 350.01 57.94 C 349.99 51.63 349.96 45.31 350.04 39.00 Z"
     id="path82" />
  <path
     fill="#ffffff"
     d=" M 414.02 39.01 C 435.00 38.99 455.98 38.99 476.96 39.02 C 477.00 45.34 477.01 51.67 476.98 57.99 C 455.99 57.97 434.99 58.07 414.00 57.94 C 414.03 51.63 413.91 45.32 414.02 39.01 Z"
     id="path84" />
  <path
     fill="#ffffff"
     d=" M 478.01 39.02 C 498.99 38.95 519.97 39.02 540.96 39.01 C 541.03 45.33 541.00 51.65 540.98 57.97 C 519.99 58.02 499.01 58.01 478.03 57.98 C 477.98 51.66 477.97 45.34 478.01 39.02 Z"
     id="path86" />
  <path
     fill="#ffffff"
     d=" M 542.05 39.01 C 553.36 39.00 564.68 38.98 576.00 39.02 L 576.00 58.00 C 564.67 57.99 553.33 58.06 542.00 57.94 C 541.99 51.63 541.98 45.32 542.05 39.01 Z"
     id="path88" />
  <path
     fill="#5a6451"
     d=" M 10.61 47.02 C 11.28 44.82 13.78 44.50 15.60 45.39 C 16.33 46.72 16.03 48.29 15.37 49.57 C 14.71 50.82 14.09 52.08 13.52 53.37 L 15.95 52.64 L 16.05 54.02 C 14.24 54.01 12.42 54.01 10.61 54.00 C 11.93 52.50 13.26 51.00 14.49 49.41 C 14.72 48.20 14.95 46.99 15.15 45.77 C 13.63 46.16 12.12 46.59 10.61 47.02 Z"
     id="path90" />
  <path
     fill="#445549"
     d=" M 18.00 45.00 C 19.67 45.00 21.34 45.00 23.01 45.00 L 23.00 46.00 C 21.67 46.00 20.33 46.00 19.00 46.00 C 19.00 46.44 19.00 47.32 19.00 47.76 C 20.20 47.92 21.39 48.15 22.56 48.46 C 23.02 49.94 23.06 51.49 23.25 53.02 C 21.96 53.51 20.64 53.91 19.32 54.28 C 18.91 53.71 18.08 52.58 17.67 52.02 L 18.99 51.96 L 19.06 53.00 C 19.80 53.00 21.27 53.00 22.00 53.00 C 21.99 51.67 21.98 50.33 21.97 49.00 C 20.65 49.00 19.32 49.00 18.00 49.00 C 18.00 47.67 18.00 46.33 18.00 45.00 Z"
     id="path92" />
  <path
     fill="#e4ecf7"
     d=" M 3.99 59.00 C 12.33 59.00 20.67 59.00 29.01 59.00 C 29.00 60.66 28.99 62.31 28.99 63.96 C 20.66 64.02 12.33 63.97 4.00 64.00 C 3.98 62.33 3.98 60.67 3.99 59.00 Z"
     id="path94" />
  <path
     fill="#9bb6db"
     d=" M 29.01 59.00 L 30.00 59.01 C 30.00 60.66 30.00 62.32 30.01 63.98 C 51.02 64.02 72.04 64.00 93.06 63.99 L 93.92 63.99 C 102.30 64.00 110.67 64.00 119.05 63.99 C 119.17 68.22 118.80 72.48 119.35 76.68 C 120.47 78.65 123.04 77.96 124.91 78.22 C 138.29 78.15 151.67 78.13 165.05 78.23 C 167.28 78.08 169.98 78.54 171.66 76.68 C 175.95 72.52 180.07 68.18 184.34 64.00 C 196.58 63.99 208.82 64.01 221.07 63.99 L 221.90 63.99 C 239.30 64.11 256.71 63.80 274.11 64.13 C 273.52 64.53 272.94 64.93 272.38 65.35 C 263.59 64.87 254.79 65.19 245.99 65.13 L 245.05 65.14 C 243.38 64.93 241.22 64.30 239.99 65.84 C 237.23 68.91 234.35 71.87 231.24 74.59 L 230.72 75.09 C 231.39 76.44 232.07 78.31 233.95 78.05 C 242.49 78.51 251.05 77.96 259.59 78.02 L 259.85 78.82 C 250.28 78.54 240.70 78.32 231.13 78.77 C 211.76 78.68 192.38 78.46 173.01 78.80 C 148.02 78.05 123.03 78.96 98.05 78.65 C 66.70 78.90 35.34 78.11 3.99 78.74 L 4.00 78.03 C 23.31 78.36 42.64 78.26 61.95 78.08 L 61.92 76.89 C 61.86 74.55 61.82 72.21 61.85 69.87 C 61.88 68.60 61.91 67.33 61.96 66.06 L 61.99 65.02 C 42.67 64.98 23.35 65.01 4.02 65.00 L 4.00 64.00 C 12.33 63.97 20.66 64.02 28.99 63.96 C 28.99 62.31 29.00 60.66 29.01 59.00 Z"
     id="path96" />
  <path
     fill="#ffffff"
     d=" M 30.00 59.01 C 50.98 59.03 71.96 58.97 92.94 59.02 C 92.98 60.68 93.02 62.33 93.06 63.99 C 72.04 64.00 51.02 64.02 30.01 63.98 C 30.00 62.32 30.00 60.66 30.00 59.01 Z"
     id="path98" />
  <path
     fill="#ffffff"
     d=" M 94.07 59.04 C 115.02 58.95 135.97 59.01 156.92 59.02 C 156.97 60.67 157.02 62.33 157.08 63.98 L 157.94 63.93 C 157.99 62.30 158.04 60.66 158.09 59.03 C 179.03 58.96 199.97 59.02 220.92 59.00 C 220.96 60.67 221.01 62.33 221.07 63.99 C 208.82 64.01 196.58 63.99 184.34 64.00 C 180.07 68.18 175.95 72.52 171.66 76.68 C 169.98 78.54 167.28 78.08 165.05 78.23 C 151.67 78.13 138.29 78.15 124.91 78.22 C 123.04 77.96 120.47 78.65 119.35 76.68 C 118.80 72.48 119.17 68.22 119.05 63.99 C 110.67 64.00 102.30 64.00 93.92 63.99 C 93.97 62.34 94.02 60.69 94.07 59.04 Z"
     id="path100" />
  <path
     fill="#ffffff"
     d=" M 222.10 59.03 C 243.04 58.99 263.99 58.96 284.94 59.03 C 284.99 60.82 285.04 62.61 285.09 64.40 C 281.43 64.43 277.76 64.36 274.11 64.13 C 256.71 63.80 239.30 64.11 221.90 63.99 C 221.97 62.33 222.03 60.68 222.10 59.03 Z"
     id="path102" />
  <path
     fill="#ffffff"
     d=" M 286.07 59.01 C 307.02 59.02 327.97 58.95 348.92 59.03 C 348.97 60.81 349.01 62.60 349.07 64.38 C 328.02 64.38 306.97 64.35 285.93 64.40 C 285.97 62.60 286.02 60.81 286.07 59.01 Z"
     id="path104" />
  <path
     fill="#ffffff"
     d=" M 350.11 59.00 C 371.04 59.03 391.97 58.96 412.90 59.02 C 412.96 60.81 413.03 62.60 413.10 64.38 C 392.03 64.37 370.97 64.37 349.90 64.38 C 349.96 62.59 350.04 60.79 350.11 59.00 Z"
     id="path106" />
  <path
     fill="#ffffff"
     d=" M 414.07 59.02 C 435.01 58.99 455.95 58.99 476.90 59.03 C 476.97 60.81 477.05 62.60 477.14 64.38 C 456.07 64.37 435.00 64.37 413.93 64.38 C 413.97 62.60 414.02 60.81 414.07 59.02 Z"
     id="path108" />
  <path
     fill="#ffffff"
     d=" M 478.05 59.00 C 499.01 59.01 519.98 58.96 540.94 59.02 C 540.97 60.81 541.01 62.60 541.05 64.38 C 520.03 64.37 499.00 64.37 477.98 64.38 C 477.99 62.59 478.02 60.80 478.05 59.00 Z"
     id="path110" />
  <path
     fill="#ffffff"
     d=" M 542.08 59.01 C 553.38 58.94 564.69 59.06 576.00 58.98 L 576.00 64.37 C 564.63 64.38 553.26 64.36 541.90 64.38 C 541.95 62.59 542.01 60.80 542.08 59.01 Z"
     id="path112" />
  <path
     fill="#89a8d4"
     d=" M 274.11 64.13 C 277.76 64.36 281.43 64.43 285.09 64.40 L 285.93 64.40 C 306.97 64.35 328.02 64.38 349.07 64.38 L 349.90 64.38 C 370.97 64.37 392.03 64.37 413.10 64.38 L 413.93 64.38 C 435.00 64.37 456.07 64.37 477.14 64.38 L 477.98 64.38 C 499.00 64.37 520.03 64.37 541.05 64.38 L 541.90 64.38 C 553.26 64.36 564.63 64.38 576.00 64.37 L 576.00 67.98 C 473.86 67.69 371.71 68.07 269.57 67.79 C 270.48 66.95 271.41 66.13 272.38 65.35 C 272.94 64.93 273.52 64.53 274.11 64.13 Z"
     id="path114" />
  <path
     fill="#f3f7fd"
     d=" M 4.02 65.00 C 23.35 65.01 42.67 64.98 61.99 65.02 L 61.96 66.06 C 42.66 66.01 23.36 65.99 4.05 66.05 L 4.02 65.00 Z"
     id="path116" />
  <path
     fill="#f3f7fd"
     d=" M 63.02 65.01 C 81.35 64.99 99.68 64.99 118.01 65.02 L 117.98 66.08 C 100.03 65.97 82.08 66.07 64.13 66.11 C 64.09 67.44 64.06 68.77 64.04 70.10 C 64.02 71.44 64.03 72.79 64.06 74.14 C 64.09 74.64 64.15 75.65 64.18 76.15 C 69.33 77.58 74.71 76.62 79.97 76.74 C 91.64 76.92 103.32 76.49 114.99 77.03 L 115.00 77.96 C 99.34 78.20 83.67 78.00 68.00 78.07 C 66.32 77.92 64.11 78.49 63.19 76.61 C 62.78 72.76 63.08 68.88 63.02 65.01 Z"
     id="path118" />
  <path
     fill="#f3f7fd"
     d=" M 184.21 65.00 C 202.51 65.00 220.81 65.00 239.11 65.00 C 238.75 65.43 238.04 66.28 237.69 66.71 L 237.46 66.68 C 230.71 65.56 223.86 66.15 217.06 66.04 C 206.14 65.97 195.23 66.27 184.31 66.00 L 184.21 65.00 Z"
     id="path120" />
  <path
     fill="#f3f7fd"
     d=" M 239.99 65.84 C 241.22 64.30 243.38 64.93 245.05 65.14 C 244.54 65.44 243.53 66.05 243.03 66.35 C 242.27 66.22 240.75 65.96 239.99 65.84 Z"
     id="path122" />
  <path
     fill="#cd8b39"
     d=" M 245.05 65.14 L 245.99 65.13 L 246.06 66.42 C 246.55 66.28 247.52 65.99 248.01 65.85 L 248.00 66.78 L 247.98 67.82 L 249.54 67.84 C 248.29 69.78 246.63 71.38 244.67 72.62 C 244.55 72.30 244.29 71.66 244.16 71.34 C 243.50 70.40 242.76 69.53 241.96 68.72 C 242.31 67.93 242.67 67.14 243.03 66.35 C 243.53 66.05 244.54 65.44 245.05 65.14 Z"
     id="path124" />
  <path
     fill="#ffffff"
     d=" M 245.99 65.13 C 254.79 65.19 263.59 64.87 272.38 65.35 C 271.41 66.13 270.48 66.95 269.57 67.79 C 266.20 71.16 262.65 74.36 259.59 78.02 C 251.05 77.96 242.49 78.51 233.95 78.05 C 232.07 78.31 231.39 76.44 230.72 75.09 L 231.24 74.59 C 234.94 78.42 240.47 76.89 245.16 76.82 C 246.48 76.81 247.80 76.85 249.12 76.90 C 250.59 76.91 252.08 76.90 253.52 76.54 C 255.32 76.54 257.14 76.69 258.93 76.40 C 262.94 74.01 265.93 70.29 268.63 66.56 C 264.42 66.29 260.20 66.32 256.00 66.58 C 253.33 66.71 250.66 66.75 248.00 66.78 L 248.01 65.85 C 247.52 65.99 246.55 66.28 246.06 66.42 L 245.99 65.13 Z"
     id="path126" />
  <path
     fill="#d7e6f9"
     d=" M 4.05 66.05 C 23.36 65.99 42.66 66.01 61.96 66.06 C 61.91 67.33 61.88 68.60 61.85 69.87 C 59.98 69.81 58.11 69.76 56.23 69.71 C 56.05 69.30 55.68 68.49 55.49 68.08 C 55.30 68.45 54.93 69.19 54.74 69.56 C 54.30 69.75 53.41 70.12 52.96 70.31 C 51.95 69.45 50.96 68.56 49.96 67.68 C 49.96 68.21 49.96 69.26 49.96 69.78 C 46.54 69.78 43.11 69.88 39.69 70.11 C 38.80 69.28 37.90 68.45 37.00 67.62 C 37.00 68.19 36.99 69.33 36.99 69.90 C 34.00 69.88 31.00 69.87 28.01 69.87 C 28.01 69.30 28.01 68.18 28.01 67.61 C 27.08 68.45 26.18 69.31 25.26 70.16 C 21.85 69.93 18.43 69.83 15.02 69.83 C 15.02 69.29 15.02 68.22 15.02 67.68 C 14.04 68.56 13.05 69.45 12.05 70.32 C 11.61 70.11 10.72 69.70 10.28 69.50 C 10.05 69.22 9.60 68.66 9.37 68.38 C 9.23 68.74 8.96 69.46 8.82 69.82 C 7.28 69.90 5.74 69.98 4.21 70.05 C 4.15 68.72 4.10 67.39 4.05 66.05 Z"
     id="path128" />
  <path
     fill="#d6e6f9"
     d=" M 64.13 66.11 C 82.08 66.07 100.03 65.97 117.98 66.08 C 117.95 67.46 117.93 68.83 117.90 70.21 C 113.92 70.26 109.94 70.25 105.97 70.20 C 105.97 69.66 105.96 68.59 105.96 68.06 C 105.50 68.00 104.58 67.87 104.12 67.81 C 105.22 70.51 105.20 73.43 104.13 76.13 C 104.86 76.11 106.32 76.08 107.05 76.06 C 106.81 75.54 106.34 74.49 106.10 73.97 C 110.19 74.04 114.26 73.69 118.32 73.23 C 117.57 74.55 116.75 75.83 115.88 77.07 L 114.99 77.03 C 103.32 76.49 91.64 76.92 79.97 76.74 C 74.71 76.62 69.33 77.58 64.18 76.15 C 64.15 75.65 64.09 74.64 64.06 74.14 C 69.05 73.97 74.07 73.98 79.00 74.83 C 77.65 74.90 76.30 74.97 74.95 75.03 L 75.02 76.29 C 76.74 75.97 78.82 76.31 80.03 74.75 C 80.35 73.44 79.59 72.21 79.32 70.97 C 78.33 70.81 76.35 70.49 75.37 70.33 C 76.82 69.54 78.39 69.01 80.01 68.65 L 80.13 68.03 C 79.29 67.97 77.60 67.86 76.76 67.80 C 76.02 68.43 75.26 69.04 74.49 69.64 C 71.04 70.24 67.52 70.16 64.04 70.10 C 64.06 68.77 64.09 67.44 64.13 66.11 Z"
     id="path130" />
  <path
     fill="#d6e6f9"
     d=" M 183.79 65.99 L 184.31 66.00 C 195.23 66.27 206.14 65.97 217.06 66.04 C 223.86 66.15 230.71 65.56 237.46 66.68 C 234.58 70.47 230.68 73.29 227.68 76.97 L 226.99 76.96 C 210.49 76.53 194.00 76.90 177.50 76.80 C 177.01 76.25 176.03 75.17 175.53 74.62 C 179.06 74.67 182.58 74.76 186.10 75.07 L 187.70 75.87 C 189.51 76.29 191.93 76.15 192.21 73.84 C 193.00 71.45 189.57 70.98 188.02 70.43 C 188.01 70.08 188.00 69.37 188.00 69.01 C 189.37 69.01 190.73 69.01 192.11 69.01 L 192.03 68.00 C 190.75 67.99 189.47 67.98 188.19 67.97 C 187.79 68.53 186.97 69.66 186.57 70.22 C 184.45 70.06 182.33 69.89 180.22 69.71 C 181.42 68.48 182.61 67.24 183.79 65.99 Z"
     id="path132" />
  <path
     fill="#bfd7f6"
     d=" M 239.99 65.84 C 240.75 65.96 242.27 66.22 243.03 66.35 C 242.67 67.14 242.31 67.93 241.96 68.72 C 242.76 69.53 243.50 70.40 244.16 71.34 C 244.48 73.17 244.80 75.00 245.16 76.82 C 240.47 76.89 234.94 78.42 231.24 74.59 C 234.35 71.87 237.23 68.91 239.99 65.84 Z"
     id="path134" />
  <path
     fill="#1e4a91"
     d=" M 81.00 66.97 L 82.00 67.00 C 82.00 67.70 82.00 69.08 82.00 69.77 C 83.21 69.93 84.40 70.17 85.58 70.48 C 86.23 72.24 85.98 74.15 86.10 75.99 L 84.98 76.05 C 84.96 74.39 84.93 72.74 84.92 71.08 C 84.21 71.08 82.80 71.07 82.10 71.06 C 82.07 72.72 82.04 74.38 82.01 76.05 L 81.00 76.00 C 80.95 72.99 80.96 69.98 81.00 66.97 Z"
     id="path136" />
  <path
     fill="#15428b"
     d=" M 135.00 67.00 C 135.50 67.00 136.50 67.00 137.00 67.00 C 137.00 67.68 137.00 69.06 137.00 69.74 C 138.17 69.91 139.31 70.17 140.43 70.53 C 141.35 72.03 140.97 73.88 141.10 75.54 L 140.71 75.93 C 140.23 75.89 139.28 75.80 138.80 75.75 C 138.89 74.17 138.99 72.58 139.09 71.00 C 138.54 71.00 137.46 71.00 136.92 71.00 C 137.02 72.52 137.12 74.04 137.23 75.57 L 136.32 75.94 C 135.97 75.84 135.28 75.63 134.93 75.53 C 134.95 72.68 134.97 69.84 135.00 67.00 Z"
     id="path138" />
  <path
     fill="#1e4a91"
     d=" M 193.00 67.00 L 194.00 66.99 C 194.00 67.68 194.00 69.08 194.00 69.78 C 195.20 69.94 196.40 70.17 197.58 70.48 C 198.24 72.24 197.97 74.16 198.10 75.99 L 196.98 76.05 C 196.95 74.40 196.93 72.74 196.92 71.09 C 196.21 71.08 194.80 71.07 194.10 71.06 C 194.07 72.70 194.04 74.35 194.01 75.99 L 193.00 76.05 C 192.99 73.03 192.96 70.01 193.00 67.00 Z"
     id="path140" />
  <path
     fill="#fff3af"
     d=" M 245.17 67.24 C 246.74 66.76 247.46 69.37 245.83 69.73 C 244.24 70.22 243.54 67.61 245.17 67.24 Z"
     id="path142" />
  <path
     fill="#7184a7"
     d=" M 248.00 66.78 C 250.66 66.75 253.33 66.71 256.00 66.58 C 256.00 69.29 256.00 72.01 256.02 74.72 C 255.39 75.18 254.15 76.08 253.52 76.54 C 252.08 76.90 250.59 76.91 249.12 76.90 C 247.80 76.85 246.48 76.81 245.16 76.82 C 244.80 75.00 244.48 73.17 244.16 71.34 C 244.29 71.66 244.55 72.30 244.67 72.62 C 245.13 73.80 245.65 74.95 246.26 76.06 C 249.09 75.21 251.76 73.88 254.70 73.39 C 254.77 71.55 254.84 69.72 254.91 67.89 C 253.12 67.87 251.33 67.85 249.54 67.84 L 247.98 67.82 L 248.00 66.78 Z"
     id="path144" />
  <path
     fill="#b9d4f6"
     d=" M 256.00 66.58 C 260.20 66.32 264.42 66.29 268.63 66.56 C 265.93 70.29 262.94 74.01 258.93 76.40 C 257.14 76.69 255.32 76.54 253.52 76.54 C 254.15 76.08 255.39 75.18 256.02 74.72 C 256.00 72.01 256.00 69.29 256.00 66.58 Z"
     id="path146" />
  <path
     fill="#15428b"
     d=" M 9.37 68.38 C 9.60 68.66 10.05 69.22 10.28 69.50 C 10.38 71.34 10.17 73.22 9.44 74.93 C 9.27 74.25 8.94 72.87 8.77 72.18 C 8.79 71.59 8.81 70.41 8.82 69.82 C 8.96 69.46 9.23 68.74 9.37 68.38 Z"
     id="path148" />
  <path
     fill="#15428b"
     d=" M 12.05 70.32 C 13.05 69.45 14.04 68.56 15.02 67.68 C 15.02 68.22 15.02 69.29 15.02 69.83 C 15.01 71.26 15.01 72.69 15.00 74.12 L 15.00 75.39 C 13.59 74.07 12.19 72.75 10.79 71.42 C 11.10 71.15 11.73 70.59 12.05 70.32 Z"
     id="path150" />
  <path
     fill="#15428b"
     d=" M 25.26 70.16 C 26.18 69.31 27.08 68.45 28.01 67.61 C 28.01 68.18 28.01 69.30 28.01 69.87 C 28.01 71.25 28.01 72.63 28.01 74.02 L 28.00 75.36 C 27.57 74.97 26.71 74.18 26.28 73.79 C 25.45 73.03 24.62 72.27 23.79 71.52 C 24.16 71.18 24.89 70.50 25.26 70.16 Z"
     id="path152" />
  <path
     fill="#15428b"
     d=" M 37.00 67.62 C 37.90 68.45 38.80 69.28 39.69 70.11 C 40.07 70.46 40.81 71.16 41.19 71.51 C 40.38 72.25 39.56 73.00 38.76 73.74 C 38.31 74.15 37.43 74.97 36.99 75.37 L 36.99 74.05 C 36.98 72.67 36.99 71.28 36.99 69.90 C 36.99 69.33 37.00 68.19 37.00 67.62 Z"
     id="path154" />
  <path
     fill="#15428b"
     d=" M 49.96 67.68 C 50.96 68.56 51.95 69.45 52.96 70.31 C 53.28 70.58 53.90 71.12 54.21 71.39 C 52.84 72.72 51.46 74.05 50.09 75.38 L 50.02 74.25 C 49.98 72.76 49.96 71.27 49.96 69.78 C 49.96 69.26 49.96 68.21 49.96 67.68 Z"
     id="path156" />
  <path
     fill="#15428b"
     d=" M 55.49 68.08 C 55.68 68.49 56.05 69.30 56.23 69.71 C 56.26 71.48 56.09 73.26 55.61 74.97 C 54.80 73.29 54.66 71.39 54.74 69.56 C 54.93 69.19 55.30 68.45 55.49 68.08 Z"
     id="path158" />
  <path
     fill="#3861a1"
     d=" M 74.49 69.64 C 75.26 69.04 76.02 68.43 76.76 67.80 C 77.60 67.86 79.29 67.97 80.13 68.03 L 80.01 68.65 C 78.39 69.01 76.82 69.54 75.37 70.33 C 76.35 70.49 78.33 70.81 79.32 70.97 C 79.59 72.21 80.35 73.44 80.03 74.75 C 78.82 76.31 76.74 75.97 75.02 76.29 L 74.95 75.03 C 76.30 74.97 77.65 74.90 79.00 74.83 C 79.00 74.13 79.00 72.72 79.00 72.02 C 78.28 72.02 76.86 72.04 76.15 72.05 C 75.73 71.45 74.90 70.24 74.49 69.64 Z"
     id="path160" />
  <path
     fill="#244f94"
     d=" M 99.03 68.00 L 100.00 68.00 C 100.00 68.50 100.00 69.49 100.01 69.99 C 100.52 69.99 101.56 69.99 102.08 70.00 L 102.10 71.10 C 101.51 71.12 100.33 71.16 99.74 71.18 C 100.05 73.14 101.09 74.82 102.16 76.44 C 100.85 76.14 99.78 75.37 98.73 74.60 C 98.90 72.40 98.96 70.20 99.03 68.00 Z"
     id="path162" />
  <path
     fill="#15428b"
     d=" M 104.12 67.81 C 104.58 67.87 105.50 68.00 105.96 68.06 C 105.96 68.59 105.97 69.66 105.97 70.20 C 105.98 71.46 106.02 72.72 106.10 73.97 C 106.34 74.49 106.81 75.54 107.05 76.06 C 106.32 76.08 104.86 76.11 104.13 76.13 C 105.20 73.43 105.22 70.51 104.12 67.81 Z"
     id="path164" />
  <path
     fill="#15428b"
     d=" M 127.92 69.98 C 128.49 67.12 131.96 68.23 134.01 67.91 L 134.00 69.02 C 132.66 69.02 131.33 69.02 130.00 69.03 C 130.00 69.45 130.00 70.29 130.00 70.72 C 132.63 70.63 134.96 72.32 133.92 75.19 C 132.31 75.96 130.52 76.11 128.77 75.86 L 127.27 75.13 C 128.83 75.00 130.39 74.91 131.96 74.85 C 131.97 74.21 131.99 72.93 132.01 72.29 C 130.50 71.87 128.09 72.10 127.92 69.98 Z"
     id="path166" />
  <path
     fill="#15428b"
     d=" M 155.99 67.99 C 156.48 67.99 157.47 67.99 157.97 67.99 C 157.99 68.49 158.03 69.49 158.05 69.98 C 158.53 69.99 159.49 70.01 159.98 70.02 L 160.07 71.03 C 159.55 71.03 158.53 71.03 158.02 71.03 C 158.02 72.23 158.03 73.42 158.04 74.62 C 158.68 74.92 159.97 75.51 160.61 75.80 C 159.03 75.93 157.47 75.65 155.98 75.17 C 155.91 72.78 155.96 70.38 155.99 67.99 Z"
     id="path168" />
  <path
     fill="#15428b"
     d=" M 162.35 67.81 C 164.11 68.08 166.79 67.68 167.15 70.07 C 165.88 71.89 164.21 73.37 162.65 74.93 C 164.36 74.92 166.06 74.99 167.76 75.11 L 166.23 75.82 C 164.38 76.04 162.51 75.96 160.65 75.80 C 161.48 73.00 164.71 71.75 165.40 68.84 C 163.80 69.27 162.22 69.79 160.64 70.27 C 161.06 69.66 161.92 68.43 162.35 67.81 Z"
     id="path170" />
  <path
     fill="#3861a1"
     d=" M 188.19 67.97 C 189.47 67.98 190.75 67.99 192.03 68.00 L 192.11 69.01 C 190.73 69.01 189.37 69.01 188.00 69.01 C 188.00 69.37 188.01 70.08 188.02 70.43 C 189.57 70.98 193.00 71.45 192.21 73.84 C 191.93 76.15 189.51 76.29 187.70 75.87 L 186.10 75.07 C 187.73 75.04 189.36 75.00 191.00 74.98 C 191.00 74.24 191.00 72.77 191.00 72.04 C 190.31 72.03 188.93 72.01 188.24 72.00 C 187.82 71.55 186.98 70.67 186.57 70.22 C 186.97 69.66 187.79 68.53 188.19 67.97 Z"
     id="path172" />
  <path
     fill="#244f94"
     d=" M 210.96 68.00 L 212.00 68.00 C 212.00 68.49 212.00 69.48 212.00 69.98 C 212.51 69.99 213.52 70.00 214.03 70.01 L 214.15 71.15 C 213.64 71.13 212.60 71.08 212.09 71.06 C 212.06 72.35 212.04 73.65 212.01 74.94 C 212.51 74.95 213.50 74.98 213.99 74.99 L 214.03 76.35 C 209.63 76.03 211.16 71.01 210.96 68.00 Z"
     id="path174" />
  <path
     fill="#4369a6"
     d=" M 214.59 70.18 C 215.08 67.06 220.61 67.10 220.21 70.61 L 219.47 71.10 C 219.61 71.78 219.88 73.14 220.01 73.82 C 220.47 77.02 214.89 76.73 214.63 73.88 C 216.05 74.33 217.48 74.79 218.92 75.22 C 218.93 74.45 218.97 72.93 218.98 72.17 C 218.31 72.10 216.97 71.97 216.30 71.90 C 216.97 71.55 218.30 70.86 218.97 70.51 C 218.97 70.08 218.97 69.21 218.96 68.78 C 217.47 69.12 216.02 69.65 214.59 70.18 Z"
     id="path176" />
  <path
     fill="#dae1f0"
     d=" M 249.54 67.84 C 251.33 67.85 253.12 67.87 254.91 67.89 C 254.84 69.72 254.77 71.55 254.70 73.39 C 251.76 73.88 249.09 75.21 246.26 76.06 C 245.65 74.95 245.13 73.80 244.67 72.62 C 246.63 71.38 248.29 69.78 249.54 67.84 Z"
     id="path178" />
  <path
     fill="#9eb8dc"
     d=" M 259.59 78.02 C 262.65 74.36 266.20 71.16 269.57 67.79 C 371.71 68.07 473.86 67.69 576.00 67.98 L 576.00 78.95 C 509.32 78.95 442.64 78.95 375.96 78.95 C 337.26 78.87 298.55 79.13 259.85 78.82 L 259.59 78.02 Z"
     id="path180" />
  <path
     fill="#ccdff8"
     d=" M 10.28 69.50 C 10.72 69.70 11.61 70.11 12.05 70.32 C 11.73 70.59 11.10 71.15 10.79 71.42 C 12.19 72.75 13.59 74.07 15.00 75.39 L 15.00 74.12 C 18.76 74.06 22.52 73.96 26.28 73.79 C 26.71 74.18 27.57 74.97 28.00 75.36 L 28.01 74.02 C 31.00 74.02 33.99 74.03 36.99 74.05 L 36.99 75.37 C 37.43 74.97 38.31 74.15 38.76 73.74 C 42.51 73.89 46.27 73.96 50.02 74.25 L 50.09 75.38 C 51.46 74.05 52.84 72.72 54.21 71.39 C 53.90 71.12 53.28 70.58 52.96 70.31 C 53.41 70.12 54.30 69.75 54.74 69.56 C 54.66 71.39 54.80 73.29 55.61 74.97 C 56.09 73.26 56.26 71.48 56.23 69.71 C 58.11 69.76 59.98 69.81 61.85 69.87 C 61.82 72.21 61.86 74.55 61.92 76.89 C 42.63 76.95 23.33 76.79 4.04 76.91 C 4.11 75.34 4.21 73.78 4.31 72.22 C 5.80 72.21 7.29 72.19 8.77 72.18 C 8.94 72.87 9.27 74.25 9.44 74.93 C 10.17 73.22 10.38 71.34 10.28 69.50 Z"
     id="path182" />
  <path
     fill="#bdd6f6"
     d=" M 15.02 69.83 C 18.43 69.83 21.85 69.93 25.26 70.16 C 24.89 70.50 24.16 71.18 23.79 71.52 C 24.62 72.27 25.45 73.03 26.28 73.79 C 22.52 73.96 18.76 74.06 15.00 74.12 C 15.01 72.69 15.01 71.26 15.02 69.83 Z"
     id="path184" />
  <path
     fill="#bdd6f6"
     d=" M 28.01 69.87 C 31.00 69.87 34.00 69.88 36.99 69.90 C 36.99 71.28 36.98 72.67 36.99 74.05 C 33.99 74.03 31.00 74.02 28.01 74.02 C 28.01 72.63 28.01 71.25 28.01 69.87 Z"
     id="path186" />
  <path
     fill="#bdd6f6"
     d=" M 39.69 70.11 C 43.11 69.88 46.54 69.78 49.96 69.78 C 49.96 71.27 49.98 72.76 50.02 74.25 C 46.27 73.96 42.51 73.89 38.76 73.74 C 39.56 73.00 40.38 72.25 41.19 71.51 C 40.81 71.16 40.07 70.46 39.69 70.11 Z"
     id="path188" />
  <path
     fill="#c0d7f6"
     d=" M 64.04 70.10 C 67.52 70.16 71.04 70.24 74.49 69.64 C 74.90 70.24 75.73 71.45 76.15 72.05 C 76.86 72.04 78.28 72.02 79.00 72.02 C 79.00 72.72 79.00 74.13 79.00 74.83 C 74.07 73.98 69.05 73.97 64.06 74.14 C 64.03 72.79 64.02 71.44 64.04 70.10 Z"
     id="path190" />
  <path
     fill="#3860a1"
     d=" M 87.42 75.59 C 86.64 73.72 86.24 70.10 89.04 69.95 C 91.11 69.27 91.88 71.43 92.42 72.96 C 90.94 73.02 89.46 73.08 87.99 73.12 C 88.02 73.65 88.07 74.70 88.10 75.23 C 89.55 74.84 90.96 74.35 92.38 73.88 C 91.89 76.18 89.22 76.53 87.42 75.59 Z"
     id="path192" />
  <path
     fill="#3860a1"
     d=" M 93.42 75.59 C 92.65 73.74 92.23 70.17 94.97 69.96 C 97.09 69.23 97.83 71.42 98.46 72.94 C 96.97 73.01 95.48 73.07 93.99 73.12 C 94.01 73.65 94.06 74.70 94.09 75.23 C 95.51 74.80 96.93 74.34 98.35 73.90 C 97.88 76.19 95.20 76.53 93.42 75.59 Z"
     id="path194" />
  <path
     fill="#b9d4f6"
     d=" M 105.97 70.20 C 109.94 70.25 113.92 70.26 117.90 70.21 C 118.01 70.97 118.22 72.48 118.32 73.23 C 114.26 73.69 110.19 74.04 106.10 73.97 C 106.02 72.72 105.98 71.46 105.97 70.20 Z"
     id="path196" />
  <path
     fill="#15428b"
     d=" M 142.54 70.57 C 144.81 69.04 148.09 70.03 148.37 72.96 C 146.81 73.01 145.25 73.07 143.70 73.12 C 143.75 76.37 146.85 73.89 148.66 73.86 L 147.76 74.98 C 145.88 76.47 143.67 75.94 141.70 74.96 C 141.94 73.49 141.98 71.97 142.54 70.57 Z"
     id="path198" />
  <path
     fill="#15428b"
     d=" M 149.55 70.56 C 151.81 69.06 155.08 70.02 155.35 72.94 C 153.80 73.01 152.25 73.07 150.70 73.13 C 150.77 76.39 153.83 73.88 155.64 73.83 L 154.82 74.94 C 152.99 76.43 150.75 75.75 148.73 75.18 C 148.97 73.64 148.90 72.01 149.55 70.56 Z"
     id="path200" />
  <path
     fill="#c0d7f6"
     d=" M 175.53 74.62 C 177.06 72.96 178.62 71.31 180.22 69.71 C 182.33 69.89 184.45 70.06 186.57 70.22 C 186.98 70.67 187.82 71.55 188.24 72.00 C 188.93 72.01 190.31 72.03 191.00 72.04 C 191.00 72.77 191.00 74.24 191.00 74.98 C 189.36 75.00 187.73 75.04 186.10 75.07 C 182.58 74.76 179.06 74.67 175.53 74.62 Z"
     id="path202" />
  <path
     fill="#3860a1"
     d=" M 199.42 75.59 C 198.64 73.72 198.24 70.13 201.02 69.95 C 203.09 69.26 203.90 71.42 204.43 72.97 C 202.94 73.03 201.47 73.08 199.99 73.12 C 200.01 73.64 200.06 74.70 200.08 75.22 C 201.53 74.82 202.95 74.36 204.38 73.90 C 203.85 76.17 201.22 76.54 199.42 75.59 Z"
     id="path204" />
  <path
     fill="#3860a1"
     d=" M 205.42 75.60 C 204.64 73.72 204.23 70.07 207.07 69.95 C 209.14 69.26 209.85 71.47 210.43 72.96 C 208.95 73.02 207.47 73.07 205.99 73.12 C 206.01 73.64 206.04 74.69 206.05 75.21 C 207.52 74.82 208.96 74.34 210.41 73.86 C 209.87 76.15 207.25 76.51 205.42 75.60 Z"
     id="path206" />
  <path
     fill="#b9d4f6"
     d=" M 220.21 70.61 C 224.06 69.81 228.03 70.34 231.93 70.36 C 230.43 71.70 229.21 73.89 226.95 73.83 C 224.64 74.01 222.32 73.88 220.01 73.82 C 219.88 73.14 219.61 71.78 219.47 71.10 L 220.21 70.61 Z"
     id="path208" />
  <path
     fill="#b9d4f6"
     d=" M 89.37 71.39 C 89.62 71.64 89.62 71.64 89.37 71.39 Z"
     id="path210" />
  <path
     fill="#b9d4f6"
     d=" M 95.40 71.39 C 95.65 71.64 95.65 71.64 95.40 71.39 Z"
     id="path212" />
  <path
     fill="#eef4fd"
     d=" M 136.92 71.00 C 137.46 71.00 138.54 71.00 139.09 71.00 C 138.99 72.58 138.89 74.17 138.80 75.75 C 138.41 75.70 137.62 75.61 137.23 75.57 C 137.12 74.04 137.02 72.52 136.92 71.00 Z"
     id="path214" />
  <path
     fill="#f4f8fe"
     d=" M 144.25 71.10 C 147.29 69.55 144.47 74.37 144.25 71.10 Z"
     id="path216" />
  <path
     fill="#f4f8fe"
     d=" M 151.25 71.10 C 154.30 69.56 151.47 74.37 151.25 71.10 Z"
     id="path218" />
  <path
     fill="#b9d4f6"
     d=" M 201.25 71.24 C 201.79 71.76 201.79 71.76 201.25 71.24 Z"
     id="path220" />
  <path
     fill="#b9d4f6"
     d=" M 207.40 71.39 C 207.65 71.64 207.65 71.64 207.40 71.39 Z"
     id="path222" />
  <path
     fill="#c2d9f7"
     d=" M 121.15 76.77 C 119.14 73.39 125.46 74.29 127.27 75.13 L 128.77 75.86 C 130.52 76.11 132.31 75.96 133.92 75.19 L 134.93 75.53 C 135.28 75.63 135.97 75.84 136.32 75.94 L 137.23 75.57 C 137.62 75.61 138.41 75.70 138.80 75.75 C 139.28 75.80 140.23 75.89 140.71 75.93 L 141.10 75.54 L 141.70 74.96 C 143.67 75.94 145.88 76.47 147.76 74.98 L 148.73 75.18 C 150.75 75.75 152.99 76.43 154.82 74.94 L 155.98 75.17 C 157.47 75.65 159.03 75.93 160.61 75.80 L 160.65 75.80 C 162.51 75.96 164.38 76.04 166.23 75.82 L 167.76 75.11 C 168.85 74.76 169.98 74.53 171.15 74.45 C 170.92 75.15 170.45 76.55 170.22 77.25 C 154.48 76.82 138.70 77.16 122.95 77.14 C 122.50 77.05 121.60 76.86 121.15 76.77 Z"
     id="path224" />
  <path
     fill="#f3f7fd"
     d=" M 174.89 73.92 L 175.53 74.62 C 176.03 75.17 177.01 76.25 177.50 76.80 C 194.00 76.90 210.49 76.53 226.99 76.96 L 227.00 77.96 C 210.69 78.13 194.37 78.12 178.07 78.04 C 175.68 78.48 174.67 75.88 174.89 73.92 Z"
     id="path226" />
  <path
     fill="#f3f7fd"
     d=" M 4.04 76.91 C 23.33 76.79 42.63 76.95 61.92 76.89 L 61.95 78.08 C 42.64 78.26 23.31 78.36 4.00 78.03 L 4.04 76.91 Z"
     id="path228" />
  <path
     fill="#567db0"
     d=" M 3.99 78.74 C 35.34 78.11 66.70 78.90 98.05 78.65 C 123.03 78.96 148.02 78.05 173.01 78.80 C 192.38 78.46 211.76 78.68 231.13 78.77 C 240.70 78.32 250.28 78.54 259.85 78.82 C 298.55 79.13 337.26 78.87 375.96 78.95 C 442.64 78.95 509.32 78.95 576.00 78.95 L 576.00 80.00 C 385.33 79.99 194.67 80.01 4.00 80.00 L 3.99 78.74 Z"
     id="path230" />
  <path
     fill="#ffffff"
     d=" M 4.00 80.00 C 194.67 80.01 385.33 79.99 576.00 80.00 L 576.00 81.14 C 385.34 81.14 194.69 81.18 4.03 81.13 L 4.00 80.00 Z"
     id="path232" />
  <path
     fill="#d0e2f7"
     d=" M 4.03 81.13 C 194.69 81.18 385.34 81.14 576.00 81.14 L 576.00 86.72 C 411.33 86.56 246.67 86.70 82.00 86.66 C 72.06 86.78 62.12 86.42 52.19 86.83 C 52.24 88.57 52.28 90.30 52.33 92.04 C 97.22 92.31 142.11 92.09 187.00 92.14 C 283.99 92.18 380.99 92.15 477.99 92.14 C 510.66 92.11 543.33 92.30 576.00 92.05 L 576.00 100.27 C 403.98 100.23 231.97 100.29 59.95 100.25 C 56.95 100.27 53.96 100.42 50.97 100.58 C 50.96 99.86 50.93 98.42 50.92 97.71 C 51.06 92.41 51.13 87.09 50.53 81.82 C 49.35 87.37 49.63 93.06 50.27 98.66 C 49.97 99.07 49.38 99.89 49.09 100.30 C 34.09 100.10 19.09 100.52 4.10 100.10 C 4.12 97.66 4.15 95.23 4.18 92.80 C 6.33 92.69 8.48 92.58 10.64 92.47 C 10.68 90.69 10.73 88.91 10.78 87.14 C 8.64 86.98 6.50 86.83 4.36 86.68 C 4.24 84.83 4.12 82.98 4.03 81.13 Z"
     id="path234" />
  <path
     fill="#98b5da"
     d=" M 50.27 98.66 C 49.63 93.06 49.35 87.37 50.53 81.82 C 51.13 87.09 51.06 92.41 50.92 97.71 L 50.27 98.66 Z"
     id="path236" />
  <path
     fill="#353a79"
     d=" M 11.82 85.79 C 13.25 85.94 14.69 86.13 16.12 86.35 C 15.80 87.51 15.82 88.66 16.18 89.78 C 16.64 91.43 17.43 92.94 18.11 94.50 C 16.52 93.68 15.38 92.22 13.82 91.37 L 13.23 91.10 C 13.19 91.75 13.11 93.03 13.07 93.68 L 11.86 94.11 C 11.82 91.34 11.80 88.56 11.82 85.79 Z"
     id="path238" />
  <path
     fill="#2759b9"
     d=" M 16.12 86.35 C 17.76 86.26 17.94 89.99 16.18 89.78 C 15.82 88.66 15.80 87.51 16.12 86.35 Z"
     id="path240" />
  <path
     fill="#313b7d"
     d=" M 34.46 87.90 C 34.86 87.21 35.66 85.82 36.06 85.13 C 35.96 88.17 35.98 91.22 36.22 94.26 C 34.60 94.10 32.98 93.96 31.35 93.83 L 31.80 92.64 L 32.06 91.98 L 32.78 92.01 C 35.95 95.33 35.85 86.55 32.77 90.07 L 32.06 90.10 L 31.83 89.42 L 31.35 87.90 C 32.13 87.90 33.69 87.90 34.46 87.90 Z"
     id="path242" />
  <path
     fill="#4ba9eb"
     d=" M 36.06 85.13 C 36.26 85.85 36.66 87.29 36.86 88.02 C 36.94 88.68 37.11 90.02 37.20 90.69 C 37.31 92.00 36.99 93.19 36.22 94.26 C 35.98 91.22 35.96 88.17 36.06 85.13 Z"
     id="path244" />
  <path
     fill="#48a6ee"
     d=" M 14.15 89.68 C 12.26 90.44 12.33 86.50 14.19 87.35 C 14.18 87.93 14.16 89.10 14.15 89.68 Z"
     id="path246" />
  <path
     fill="#b4c9e3"
     d=" M 14.19 87.35 C 16.10 86.58 16.03 90.49 14.15 89.68 C 14.16 89.10 14.18 87.93 14.19 87.35 Z"
     id="path248" />
  <path
     fill="#bad3f5"
     d=" M 52.19 86.83 C 62.12 86.42 72.06 86.78 82.00 86.66 C 246.67 86.70 411.33 86.56 576.00 86.72 L 576.00 92.05 C 543.33 92.30 510.66 92.11 477.99 92.14 C 380.99 92.15 283.99 92.18 187.00 92.14 C 142.11 92.09 97.22 92.31 52.33 92.04 C 52.28 90.30 52.24 88.57 52.19 86.83 Z"
     id="path250" />
  <path
     fill="#2f3b7c"
     d=" M 18.99 91.98 C 17.88 89.29 20.91 87.61 23.21 87.54 C 23.71 88.67 24.19 89.80 24.65 90.94 C 23.59 91.06 21.47 91.30 20.41 91.42 L 20.20 91.45 C 20.26 91.48 20.37 91.56 20.43 91.59 C 21.78 92.50 23.22 93.27 24.64 94.06 C 22.68 93.93 19.57 94.62 18.99 91.98 Z"
     id="path252" />
  <path
     fill="#333c7c"
     d=" M 24.50 88.10 C 26.07 87.97 27.64 87.87 29.22 87.81 L 29.08 89.22 C 28.89 90.78 28.90 92.37 29.14 93.93 C 27.37 94.02 25.02 94.37 24.59 92.04 C 25.16 90.54 26.81 90.07 28.07 89.33 C 26.81 89.13 25.62 88.72 24.50 88.10 Z"
     id="path254" />
  <path
     fill="#907781"
     d=" M 36.86 88.02 L 37.54 87.93 C 37.65 88.60 37.86 89.95 37.96 90.62 L 37.20 90.69 C 37.11 90.02 36.94 88.68 36.86 88.02 Z"
     id="path256" />
  <path
     fill="#414e90"
     d=" M 37.54 87.93 L 38.93 87.84 C 38.96 88.55 39.03 89.99 39.06 90.70 C 39.78 89.75 40.52 88.81 41.27 87.88 C 41.24 88.28 41.17 89.09 41.14 89.49 C 41.10 90.10 41.03 91.31 40.99 91.92 C 40.74 92.38 40.24 93.30 39.99 93.76 C 40.32 95.76 37.83 96.22 36.39 96.13 C 36.89 95.65 37.90 94.69 38.41 94.21 C 39.57 93.29 39.44 92.69 38.03 92.41 L 37.96 90.62 C 37.86 89.95 37.65 88.60 37.54 87.93 Z"
     id="path258" />
  <path
     fill="#175ac3"
     d=" M 41.27 87.88 C 42.77 88.61 42.72 89.14 41.14 89.49 C 41.17 89.09 41.24 88.28 41.27 87.88 Z"
     id="path260" />
  <path
     fill="#9cadc3"
     d=" M 21.15 89.09 C 24.14 87.53 21.35 92.38 21.15 89.09 Z"
     id="path262" />
  <path
     fill="#51adef"
     d=" M 29.08 89.22 C 30.77 89.47 30.83 93.56 29.14 93.93 C 28.90 92.37 28.89 90.78 29.08 89.22 Z"
     id="path264" />
  <path
     fill="#603c66"
     d=" M 31.25 92.70 C 30.16 92.03 30.21 89.08 31.83 89.42 L 32.06 90.10 C 32.06 90.57 32.06 91.51 32.06 91.98 L 31.80 92.64 L 31.25 92.70 Z"
     id="path266" />
  <path
     fill="#a8bed0"
     d=" M 32.77 90.07 C 35.85 86.55 35.95 95.33 32.78 92.01 C 32.78 91.52 32.77 90.55 32.77 90.07 Z"
     id="path268" />
  <path
     fill="#3ea0ec"
     d=" M 32.06 90.10 L 32.77 90.07 C 32.77 90.55 32.78 91.52 32.78 92.01 L 32.06 91.98 C 32.06 91.51 32.06 90.57 32.06 90.10 Z"
     id="path270" />
  <path
     fill="#4dacee"
     d=" M 13.23 91.10 L 13.82 91.37 C 14.72 92.76 14.47 93.53 13.07 93.68 C 13.11 93.03 13.19 91.75 13.23 91.10 Z"
     id="path272" />
  <path
     fill="#3a9ceb"
     d=" M 20.20 91.45 L 20.41 91.42 L 20.43 91.59 C 20.37 91.56 20.26 91.48 20.20 91.45 Z"
     id="path274" />
  <path
     fill="#9ea2a3"
     d=" M 26.55 91.90 C 27.55 89.38 29.29 93.52 26.80 92.51 L 26.55 91.90 Z"
     id="path276" />
  <path
     fill="#318bda"
     d=" M 26.80 92.51 C 26.74 92.36 26.61 92.05 26.55 91.90 L 26.80 92.51 Z"
     id="path278" />
  <path
     fill="#b7a296"
     d=" M 38.03 92.41 C 39.44 92.69 39.57 93.29 38.41 94.21 C 38.31 93.76 38.12 92.86 38.03 92.41 Z"
     id="path280" />
  <path
     fill="#58aaec"
     d=" M 39.99 93.76 C 40.24 93.30 40.74 92.38 40.99 91.92 L 41.40 92.74 L 40.89 93.68 L 39.99 93.76 Z"
     id="path282" />
  <rect
     style="fill:none;stroke:#ff0000;stroke-width:7.90000009999999975;stroke-miterlimit:4;stroke-opacity:1;stroke-dasharray:none"
     id="rect3265"
     width="75.723083"
     height="24.972506"
     x="147.41833"
     y="75.666039"
     transform="scale(0.8,0.8)" />
  <rect
     style="fill:none;stroke:#008000;stroke-width:5.46243572000000022;stroke-miterlimit:4;stroke-opacity:1;stroke-dasharray:none"
     id="rect3265-3"
     width="43.391384"
     height="20.835569"
     x="184.70589"
     y="60.104046" />
  <rect
     style="fill:none;stroke:#0000ff;stroke-width:4.83878231;stroke-miterlimit:4;stroke-opacity:1;stroke-dasharray:none"
     id="rect3265-5"
     width="33.059357"
     height="21.459223"
     x="232.39406"
     y="59.792221" />
</svg>
