<?xml version="1.0" encoding="UTF-8" standalone="no"?>
<svg
   xmlns:dc="http://purl.org/dc/elements/1.1/"
   xmlns:cc="http://creativecommons.org/ns#"
   xmlns:rdf="http://www.w3.org/1999/02/22-rdf-syntax-ns#"
   xmlns:svg="http://www.w3.org/2000/svg"
   xmlns="http://www.w3.org/2000/svg"
   xmlns:sodipodi="http://sodipodi.sourceforge.net/DTD/sodipodi-0.dtd"
   xmlns:inkscape="http://www.inkscape.org/namespaces/inkscape"
   width="315pt"
   height="174pt"
   viewBox="0 0 315 174"
   version="1.1"
   id="svg2"
   inkscape:version="0.48.4 r9939"
   sodipodi:docname="tabla.svg">
  <metadata
     id="metadata150">
    <rdf:RDF>
      <cc:Work
         rdf:about="">
        <dc:format>image/svg+xml</dc:format>
        <dc:type
           rdf:resource="http://purl.org/dc/dcmitype/StillImage" />
      </cc:Work>
    </rdf:RDF>
  </metadata>
  <defs
     id="defs148" />
  <sodipodi:namedview
     pagecolor="#ffffff"
     bordercolor="#666666"
     borderopacity="1"
     objecttolerance="10"
     gridtolerance="10"
     guidetolerance="10"
     inkscape:pageopacity="0"
     inkscape:pageshadow="2"
     inkscape:window-width="1360"
     inkscape:window-height="719"
     id="namedview146"
     showgrid="false"
     inkscape:zoom="0.56748125"
     inkscape:cx="850.20077"
     inkscape:cy="4.6016094"
     inkscape:window-x="0"
     inkscape:window-y="25"
     inkscape:window-maximized="1"
     inkscape:current-layer="svg2" />
  <path
     fill="#3b5981"
     d=" M 0.00 0.00 L 1.00 0.00 C 1.00 58.00 1.00 116.00 1.00 174.00 L 0.00 174.00 L 0.00 0.00 Z"
     id="path4" />
  <path
     fill="#b0c6e1"
     d=" M 1.00 0.00 L 2.00 0.00 C 2.00 58.00 2.00 116.00 2.00 174.00 L 1.00 174.00 C 1.00 116.00 1.00 58.00 1.00 0.00 Z"
     id="path6" />
  <path
     fill="#c2d9f7"
     d=" M 2.00 0.00 L 3.00 0.00 C 3.00 58.00 3.00 116.00 3.00 174.00 L 2.00 174.00 C 2.00 116.00 2.00 58.00 2.00 0.00 Z"
     id="path8" />
  <path
     fill="#afcbef"
     d=" M 3.00 0.00 L 4.00 0.00 C 4.00 6.33 3.99 12.67 3.99 19.00 L 3.99 20.00 C 4.00 26.33 4.00 32.67 4.00 39.01 L 4.00 40.00 C 4.00 71.00 4.00 102.00 4.00 133.00 L 4.00 134.00 C 4.00 140.33 4.00 146.66 4.00 153.00 L 4.00 154.00 C 4.00 160.33 4.00 166.67 4.00 173.00 L 4.00 174.00 L 3.00 174.00 C 3.00 116.00 3.00 58.00 3.00 0.00 Z"
     id="path10" />
  <path
     fill="#9eb6cd"
     d=" M 4.00 0.00 L 29.01 0.00 L 29.01 0.99 L 28.01 0.99 C 20.34 1.00 12.68 1.01 5.02 1.01 C 5.01 6.68 5.00 12.34 4.99 18.01 L 4.99 19.00 L 3.99 19.00 C 3.99 12.67 4.00 6.33 4.00 0.00 Z"
     id="path12" />
  <path
     fill="#f09436"
     d=" M 29.01 0.00 L 30.00 0.00 C 30.00 1.33 30.00 2.67 29.99 4.00 C 30.00 5.35 30.00 6.70 30.00 8.05 C 30.00 9.36 30.00 10.68 30.01 12.00 C 30.01 13.33 30.01 14.67 30.01 16.00 C 30.01 16.75 30.01 18.24 30.01 18.99 C 51.00 19.01 72.00 19.02 93.00 18.99 C 93.00 18.25 93.00 16.75 92.99 16.00 C 92.99 14.67 92.99 13.33 93.00 12.00 C 93.00 10.69 93.00 9.37 93.00 8.06 C 93.00 6.70 93.00 5.35 93.00 4.00 C 93.00 2.67 93.00 1.33 93.00 -0.00 L 94.00 0.00 C 94.00 0.50 94.00 1.50 94.00 2.00 C 94.00 2.50 94.00 3.50 94.00 4.00 C 94.00 4.75 94.00 6.25 94.00 7.00 C 94.00 7.75 94.00 9.25 94.00 10.00 C 94.00 10.75 94.00 12.25 94.01 13.01 C 94.01 13.75 94.02 15.25 94.02 16.00 C 94.03 16.75 94.04 18.24 94.05 18.99 L 94.06 19.97 L 92.93 19.98 C 82.91 20.02 72.90 20.24 62.89 20.52 L 62.09 20.52 C 51.40 20.26 40.71 20.04 30.01 19.93 C 30.01 26.29 30.01 32.64 30.00 39.00 L 30.00 40.00 L 29.00 40.00 C 20.66 40.00 12.33 40.00 4.00 40.00 L 4.00 39.01 C 12.34 39.00 20.67 39.00 29.01 38.99 C 29.00 32.66 28.99 26.33 29.00 20.00 C 20.67 20.01 12.33 20.00 3.99 20.00 L 3.99 19.00 L 4.99 19.00 C 12.99 19.00 20.99 18.99 28.98 18.99 C 28.99 12.99 29.00 6.99 29.01 0.99 L 29.01 0.00 Z"
     id="path14" />
  <path
     fill="#f8d699"
     d=" M 30.00 0.00 L 93.00 0.00 C 93.00 1.33 93.00 2.67 93.00 4.00 C 72.00 4.00 51.00 4.00 29.99 4.00 C 30.00 2.67 30.00 1.33 30.00 0.00 Z"
     id="path16" />
  <path
     fill="#f7fafc"
     d=" M 94.00 0.00 L 251.00 0.00 C 251.00 0.50 251.00 1.50 251.00 2.00 C 198.67 2.00 146.34 2.00 94.00 2.00 C 94.00 1.50 94.00 0.50 94.00 0.00 Z"
     id="path18" />
  <path
     fill="#9db6ce"
     d=" M 251.00 0.00 L 252.00 0.00 C 251.99 1.33 251.99 2.67 252.00 4.00 C 251.99 5.36 251.99 6.72 252.00 8.08 C 252.00 9.38 252.00 10.68 252.01 11.98 C 252.00 13.32 252.00 14.66 252.01 16.00 C 252.01 16.75 252.01 18.25 252.01 19.00 C 273.00 19.00 294.00 19.01 315.00 19.00 L 315.00 20.00 C 294.00 20.00 273.00 20.00 252.00 20.00 L 251.00 20.00 C 199.05 19.98 147.09 20.04 95.14 19.98 L 94.06 19.97 L 94.05 18.99 C 146.37 19.01 198.68 19.01 250.99 18.99 C 250.99 18.25 250.99 16.75 250.99 16.00 C 250.99 15.25 250.99 13.75 250.99 13.01 C 250.99 12.25 251.00 10.75 251.00 10.00 C 251.00 9.25 251.00 7.75 251.00 7.00 C 251.00 6.25 251.00 4.75 251.00 4.00 C 251.00 3.50 251.00 2.50 251.00 2.00 C 251.00 1.50 251.00 0.50 251.00 0.00 Z"
     id="path20" />
  <path
     fill="#f5f9fa"
     d=" M 252.00 0.00 L 315.00 0.00 L 315.00 4.00 C 294.00 4.00 273.00 4.00 252.00 4.00 C 251.99 2.67 251.99 1.33 252.00 0.00 Z"
     id="path22" />
  <path
     fill="#d5e4f2"
     d=" M 5.02 1.01 C 12.68 1.01 20.34 1.00 28.01 0.99 L 28.01 1.99 C 20.68 2.00 13.35 2.01 6.02 2.01 C 6.01 7.34 6.00 12.67 5.99 18.01 L 4.99 18.01 C 5.00 12.34 5.01 6.68 5.02 1.01 Z"
     id="path24" />
  <path
     fill="#b0cff7"
     d=" M 28.01 0.99 L 29.01 0.99 C 29.00 6.99 28.99 12.99 28.98 18.99 C 20.99 18.99 12.99 19.00 4.99 19.00 L 4.99 18.01 L 5.99 18.01 C 13.32 18.00 20.65 17.98 27.98 17.99 C 27.99 12.66 28.00 7.32 28.01 1.99 L 28.01 0.99 Z"
     id="path26" />
  <path
     fill="#a9c4e9"
     d=" M 6.02 2.01 C 13.35 2.01 20.68 2.00 28.01 1.99 C 28.00 7.32 27.99 12.66 27.98 17.99 C 20.65 17.98 13.32 18.00 5.99 18.01 C 6.00 12.67 6.01 7.34 6.02 2.01 Z"
     id="path28" />
  <path
     fill="#f2f6f9"
     d=" M 94.00 2.00 C 146.34 2.00 198.67 2.00 251.00 2.00 C 251.00 2.50 251.00 3.50 251.00 4.00 C 198.67 4.00 146.33 4.00 94.00 4.00 C 94.00 3.50 94.00 2.50 94.00 2.00 Z"
     id="path30" />
  <path
     fill="#f6d18b"
     d=" M 29.99 4.00 C 51.00 4.00 72.00 4.00 93.00 4.00 C 93.00 5.35 93.00 6.70 93.00 8.06 C 83.05 7.97 73.10 7.88 63.16 7.52 C 62.06 7.48 60.96 7.47 59.86 7.49 C 49.91 7.76 39.96 7.95 30.00 8.05 C 30.00 6.70 30.00 5.35 29.99 4.00 Z"
     id="path32" />
  <path
     fill="#eef2f7"
     d=" M 94.00 4.00 C 146.33 4.00 198.67 4.00 251.00 4.00 C 251.00 4.75 251.00 6.25 251.00 7.00 C 225.62 6.90 200.23 7.29 174.86 6.73 C 173.19 6.68 171.52 6.64 169.86 6.66 C 144.57 7.18 119.28 6.98 94.00 7.00 C 94.00 6.25 94.00 4.75 94.00 4.00 Z"
     id="path34" />
  <path
     fill="#ebf0f5"
     d=" M 252.00 4.00 C 273.00 4.00 294.00 4.00 315.00 4.00 L 315.00 9.95 C 303.55 9.99 292.11 10.03 280.67 10.34 C 282.98 9.00 285.33 7.73 287.73 6.55 C 285.43 6.77 283.15 7.06 280.86 7.28 C 271.25 7.94 261.62 8.00 252.00 8.08 C 251.99 6.72 251.99 5.36 252.00 4.00 Z"
     id="path36" />
  <path
     fill="#eff0f3"
     d=" M 24.83 5.88 C 24.90 7.58 24.96 9.29 25.03 10.99 C 23.32 10.98 21.62 10.97 19.92 10.96 C 21.55 9.27 23.19 7.57 24.83 5.88 Z"
     id="path38" />
  <path
     fill="#58624c"
     d=" M 59.86 7.49 C 60.96 7.47 62.06 7.48 63.16 7.52 C 63.79 9.02 64.42 10.51 65.05 12.01 C 65.37 12.76 65.69 13.52 66.02 14.28 C 63.00 14.23 59.99 14.23 56.98 14.28 C 57.30 13.52 57.62 12.77 57.95 12.01 C 58.59 10.50 59.23 9.00 59.86 7.49 Z"
     id="path40" />
  <path
     fill="#3a5250"
     d=" M 169.86 6.66 C 171.52 6.64 173.19 6.68 174.86 6.73 C 175.01 7.52 175.33 9.10 175.48 9.89 C 175.73 11.09 175.99 12.30 176.26 13.50 C 174.07 13.57 171.90 13.64 169.72 13.62 C 169.74 12.71 169.78 10.90 169.80 9.99 C 169.82 9.16 169.84 7.49 169.86 6.66 Z"
     id="path42" />
  <path
     fill="#576c6c"
     d=" M 280.86 7.28 C 283.15 7.06 285.43 6.77 287.73 6.55 C 285.33 7.73 282.98 9.00 280.67 10.34 C 282.94 11.97 285.35 13.40 287.85 14.66 C 285.95 14.75 284.06 14.84 282.20 14.93 C 281.73 14.01 281.27 13.09 280.81 12.17 C 280.82 10.54 280.84 8.91 280.86 7.28 Z"
     id="path44" />
  <path
     fill="#e8edf4"
     d=" M 94.00 7.00 C 119.28 6.98 144.57 7.18 169.86 6.66 C 169.84 7.49 169.82 9.16 169.80 9.99 C 144.53 10.00 119.27 10.00 94.00 10.00 C 94.00 9.25 94.00 7.75 94.00 7.00 Z"
     id="path46" />
  <path
     fill="#e7ecf3"
     d=" M 171.39 6.50 C 172.44 7.52 173.48 8.56 174.50 9.61 C 173.59 9.74 171.77 10.01 170.86 10.14 C 170.99 9.23 171.26 7.41 171.39 6.50 Z"
     id="path48" />
  <path
     fill="#e8edf4"
     d=" M 174.86 6.73 C 200.23 7.29 225.62 6.90 251.00 7.00 C 251.00 7.75 251.00 9.25 251.00 10.00 C 225.83 9.97 200.65 10.11 175.48 9.89 C 175.33 9.10 175.01 7.52 174.86 6.73 Z"
     id="path50" />
  <path
     fill="#f4cc7d"
     d=" M 30.00 8.05 C 39.96 7.95 49.91 7.76 59.86 7.49 C 59.23 9.00 58.59 10.50 57.95 12.01 C 48.63 12.00 39.32 12.00 30.01 12.00 C 30.00 10.68 30.00 9.36 30.00 8.05 Z"
     id="path52" />
  <path
     fill="#f4cb7b"
     d=" M 61.14 8.11 L 61.86 8.11 C 62.29 9.39 62.71 10.66 63.13 11.93 C 62.32 11.93 60.68 11.93 59.87 11.93 C 60.29 10.66 60.71 9.39 61.14 8.11 Z"
     id="path54" />
  <path
     fill="#f4cc7d"
     d=" M 63.16 7.52 C 73.10 7.88 83.05 7.97 93.00 8.06 C 93.00 9.37 93.00 10.69 93.00 12.00 C 83.68 12.00 74.37 12.00 65.05 12.01 C 64.42 10.51 63.79 9.02 63.16 7.52 Z"
     id="path56" />
  <path
     fill="#e4eaf2"
     d=" M 252.00 8.08 C 261.62 8.00 271.25 7.94 280.86 7.28 C 280.84 8.91 280.82 10.54 280.81 12.17 C 271.21 12.06 261.61 12.02 252.01 11.98 C 252.00 10.68 252.00 9.38 252.00 8.08 Z"
     id="path58" />
  <path
     fill="#e1e8f0"
     d=" M 94.00 10.00 C 119.27 10.00 144.53 10.00 169.80 9.99 C 169.78 10.90 169.74 12.71 169.72 13.62 C 144.49 12.65 119.24 13.04 94.01 13.01 C 94.00 12.25 94.00 10.75 94.00 10.00 Z"
     id="path60" />
  <path
     fill="#e1e8f0"
     d=" M 175.48 9.89 C 200.65 10.11 225.83 9.97 251.00 10.00 C 251.00 10.75 250.99 12.25 250.99 13.01 C 226.08 13.10 201.16 12.60 176.26 13.50 C 175.99 12.30 175.73 11.09 175.48 9.89 Z"
     id="path62" />
  <path
     fill="#dde4ee"
     d=" M 280.67 10.34 C 292.11 10.03 303.55 9.99 315.00 9.95 L 315.00 16.00 C 294.00 16.00 273.00 16.00 252.01 16.00 C 252.00 14.66 252.00 13.32 252.01 11.98 C 261.61 12.02 271.21 12.06 280.81 12.17 C 281.27 13.09 281.73 14.01 282.20 14.93 C 284.06 14.84 285.95 14.75 287.85 14.66 C 285.35 13.40 282.94 11.97 280.67 10.34 Z"
     id="path64" />
  <path
     fill="#dde0e6"
     d=" M 19.00 10.96 L 19.92 10.96 C 21.62 10.97 23.32 10.98 25.03 10.99 C 25.01 12.66 25.00 14.33 24.99 16.01 C 22.47 15.99 17.43 15.97 14.91 15.96 C 15.94 14.71 17.98 12.21 19.00 10.96 Z"
     id="path66" />
  <path
     fill="#dee5ee"
     d=" M 171.01 10.97 C 171.75 10.98 173.24 11.01 173.98 11.02 C 174.39 11.98 174.79 12.94 175.20 13.90 C 173.79 13.94 172.38 13.98 170.98 14.02 C 170.99 13.26 171.00 11.73 171.01 10.97 Z"
     id="path68" />
  <path
     fill="#f2c66e"
     d=" M 30.01 12.00 C 39.32 12.00 48.63 12.00 57.95 12.01 C 57.62 12.77 57.30 13.52 56.98 14.28 C 59.99 14.23 63.00 14.23 66.02 14.28 C 65.69 13.52 65.37 12.76 65.05 12.01 C 74.37 12.00 83.68 12.00 93.00 12.00 C 92.99 13.33 92.99 14.67 92.99 16.00 C 72.00 16.00 51.00 16.00 30.01 16.00 C 30.01 14.67 30.01 13.33 30.01 12.00 Z"
     id="path70" />
  <path
     fill="#dae2ec"
     d=" M 94.01 13.01 C 119.24 13.04 144.49 12.65 169.72 13.62 C 171.90 13.64 174.07 13.57 176.26 13.50 C 201.16 12.60 226.08 13.10 250.99 13.01 C 250.99 13.75 250.99 15.25 250.99 16.00 C 198.67 16.00 146.35 16.00 94.02 16.00 C 94.02 15.25 94.01 13.75 94.01 13.01 Z"
     id="path72" />
  <path
     fill="#f1c262"
     d=" M 30.01 16.00 C 51.00 16.00 72.00 16.00 92.99 16.00 C 93.00 16.75 93.00 18.25 93.00 18.99 C 72.00 19.02 51.00 19.01 30.01 18.99 C 30.01 18.24 30.01 16.75 30.01 16.00 Z"
     id="path74" />
  <path
     fill="#d5ddea"
     d=" M 94.02 16.00 C 146.35 16.00 198.67 16.00 250.99 16.00 C 250.99 16.75 250.99 18.25 250.99 18.99 C 198.68 19.01 146.37 19.01 94.05 18.99 C 94.04 18.24 94.03 16.75 94.02 16.00 Z"
     id="path76" />
  <path
     fill="#d5ddea"
     d=" M 252.01 16.00 C 273.00 16.00 294.00 16.00 315.00 16.00 L 315.00 19.00 C 294.00 19.01 273.00 19.00 252.01 19.00 C 252.01 18.25 252.01 16.75 252.01 16.00 Z"
     id="path78" />
  <path
     fill="#ffd58d"
     d=" M 3.99 20.00 C 12.33 20.00 20.67 20.01 29.00 20.00 C 28.99 26.33 29.00 32.66 29.01 38.99 C 20.67 39.00 12.34 39.00 4.00 39.01 C 4.00 32.67 4.00 26.33 3.99 20.00 Z"
     id="path80" />
  <path
     fill="#000000"
     d=" M 30.01 19.93 C 40.71 20.04 51.40 20.26 62.09 20.52 C 51.73 20.75 41.37 20.97 31.00 21.12 C 31.00 26.75 31.00 32.38 31.00 38.01 C 50.34 38.25 69.73 37.25 89.04 38.50 L 89.65 39.09 C 69.77 38.93 49.88 39.01 30.00 39.00 C 30.01 32.64 30.01 26.29 30.01 19.93 Z"
     id="path82" />
  <path
     fill="#000000"
     d=" M 62.89 20.52 C 72.90 20.24 82.91 20.02 92.93 19.98 C 93.08 25.20 93.16 30.43 93.48 35.64 L 93.35 34.92 C 92.82 31.49 91.76 24.62 91.23 21.18 C 81.78 21.00 72.33 20.74 62.89 20.52 Z"
     id="path84" />
  <path
     fill="#2f281a"
     d=" M 92.93 19.98 L 94.06 19.97 C 93.94 25.44 93.91 30.91 93.62 36.38 L 93.48 35.64 C 93.16 30.43 93.08 25.20 92.93 19.98 Z"
     id="path86" />
  <path
     fill="#000000"
     d=" M 94.06 19.97 L 95.14 19.98 C 94.73 25.70 94.27 31.42 93.76 37.13 L 93.62 36.38 C 93.91 30.91 93.94 25.44 94.06 19.97 Z"
     id="path88" />
  <path
     fill="#fefefe"
     d=" M 95.14 19.98 C 147.09 20.04 199.05 19.98 251.00 20.00 C 250.99 26.33 250.99 32.66 250.99 39.00 C 199.35 39.30 147.70 38.42 96.07 39.41 C 96.46 37.79 95.84 36.98 94.22 36.98 L 93.38 36.99 C 91.71 36.91 90.91 37.71 91.00 39.39 L 90.98 40.24 C 90.96 41.87 91.76 42.51 93.38 42.19 C 92.64 72.45 93.13 102.72 93.00 132.99 C 72.00 133.00 51.00 133.01 30.00 133.00 C 30.00 102.33 30.01 71.67 30.00 41.00 C 50.38 40.88 70.77 41.39 91.14 40.64 L 90.37 39.83 L 89.65 39.09 L 89.04 38.50 C 69.73 37.25 50.34 38.25 31.00 38.01 C 31.00 32.38 31.00 26.75 31.00 21.12 C 41.37 20.97 51.73 20.75 62.09 20.52 L 62.89 20.52 C 72.33 20.74 81.78 21.00 91.23 21.18 C 91.76 24.62 92.82 31.49 93.35 34.92 L 93.48 35.64 L 93.62 36.38 L 93.76 37.13 C 94.27 31.42 94.73 25.70 95.14 19.98 Z"
     id="path90" />
  <path
     fill="#cfd7e4"
     d=" M 251.00 20.00 L 252.00 20.00 C 252.00 26.33 252.01 32.66 252.01 39.00 C 273.01 39.01 294.00 39.01 315.00 39.00 L 315.00 40.00 C 294.00 39.99 273.00 39.99 252.00 40.01 C 251.99 71.00 251.99 102.00 252.01 133.00 C 273.00 133.01 294.00 133.01 315.00 133.00 L 315.00 134.00 C 294.00 133.99 273.00 133.99 252.00 134.01 C 252.00 140.33 252.01 146.67 252.00 153.00 C 273.00 153.01 294.00 153.01 315.00 153.00 L 315.00 154.00 C 294.00 153.99 273.00 153.99 252.00 154.01 C 252.00 160.33 252.01 166.67 252.00 173.00 C 273.00 173.01 294.00 173.01 315.00 173.00 L 315.00 174.00 L 30.00 174.00 L 30.00 173.00 C 51.00 173.01 72.00 173.01 93.00 172.99 C 92.99 166.66 92.99 160.33 93.00 154.00 C 72.00 153.99 51.00 153.99 30.00 154.00 L 30.00 153.00 C 51.00 153.01 72.00 153.01 93.00 152.99 C 92.99 146.66 92.99 140.33 93.00 134.00 C 72.00 133.99 51.00 133.99 30.00 134.00 L 30.00 133.00 C 51.00 133.01 72.00 133.00 93.00 132.99 C 93.13 102.72 92.64 72.45 93.38 42.19 L 93.40 41.59 C 94.59 72.04 93.78 102.52 94.00 132.99 C 146.33 133.01 198.66 133.01 251.00 132.99 C 251.01 102.00 251.01 71.00 250.99 40.00 C 199.22 39.58 147.41 40.82 95.66 39.41 L 96.07 39.41 C 147.70 38.42 199.35 39.30 250.99 39.00 C 250.99 32.66 250.99 26.33 251.00 20.00 Z"
     id="path92" />
  <path
     fill="#ffffff"
     d=" M 252.00 20.00 C 273.00 20.00 294.00 20.00 315.00 20.00 L 315.00 39.00 C 294.00 39.01 273.01 39.01 252.01 39.00 C 252.01 32.66 252.00 26.33 252.00 20.00 Z"
     id="path94" />
  <path
     fill="#344a42"
     d=" M 14.47 26.98 C 15.14 26.59 15.82 26.21 16.49 25.83 C 16.96 29.31 17.50 32.78 18.00 36.25 C 14.07 34.57 15.21 30.29 14.47 26.98 Z"
     id="path96" />
  <path
     fill="#000000"
     d=" M 91.00 39.39 C 90.91 37.71 91.71 36.91 93.38 36.99 C 93.36 38.56 92.57 39.36 91.00 39.39 Z"
     id="path98" />
  <path
     fill="#2f281a"
     d=" M 93.38 36.99 L 94.22 36.98 C 93.85 38.54 94.47 39.35 96.07 39.41 L 95.66 39.41 C 94.12 39.33 93.37 40.05 93.40 41.59 L 93.38 42.19 C 93.36 40.58 92.56 39.93 90.98 40.24 L 91.00 39.39 C 92.57 39.36 93.36 38.56 93.38 36.99 Z"
     id="path100" />
  <path
     fill="#000000"
     d=" M 94.22 36.98 C 95.84 36.98 96.46 37.79 96.07 39.41 C 94.47 39.35 93.85 38.54 94.22 36.98 Z"
     id="path102" />
  <path
     fill="#2f2819"
     d=" M 30.00 39.00 C 49.88 39.01 69.77 38.93 89.65 39.09 L 90.37 39.83 C 70.24 40.11 50.12 39.99 30.00 40.00 L 30.00 39.00 Z"
     id="path104" />
  <path
     fill="#e4ecf6"
     d=" M 4.00 40.00 C 12.33 40.00 20.66 40.00 29.00 40.00 C 29.00 71.00 29.02 101.99 28.99 132.99 C 20.66 132.99 12.33 133.00 4.00 133.00 C 4.00 102.00 4.00 71.00 4.00 40.00 Z"
     id="path106" />
  <path
     fill="#9db5ce"
     d=" M 29.00 40.00 L 30.00 40.00 L 30.00 41.00 C 30.01 71.67 30.00 102.33 30.00 133.00 L 30.00 134.00 C 30.00 140.33 30.00 146.67 30.00 153.00 L 30.00 154.00 C 30.00 160.33 30.00 166.66 30.00 173.00 L 30.00 174.00 L 4.00 174.00 L 4.00 173.00 C 12.34 172.99 20.67 173.00 29.01 172.99 C 29.00 166.66 28.99 160.33 29.00 154.01 C 20.67 154.01 12.33 154.00 4.00 154.00 L 4.00 153.00 C 12.34 152.99 20.67 153.00 29.01 152.99 C 29.00 146.66 28.99 140.33 29.00 134.00 C 20.67 134.01 12.33 134.00 4.00 134.00 L 4.00 133.00 C 12.33 133.00 20.66 132.99 28.99 132.99 C 29.02 101.99 29.00 71.00 29.00 40.00 Z"
     id="path108" />
  <path
     fill="#000000"
     d=" M 30.00 40.00 C 50.12 39.99 70.24 40.11 90.37 39.83 L 91.14 40.64 C 70.77 41.39 50.38 40.88 30.00 41.00 L 30.00 40.00 Z"
     id="path110" />
  <path
     fill="#000000"
     d=" M 90.98 40.24 C 92.56 39.93 93.36 40.58 93.38 42.19 C 91.76 42.51 90.96 41.87 90.98 40.24 Z"
     id="path112" />
  <path
     fill="#000000"
     d=" M 93.40 41.59 C 93.37 40.05 94.12 39.33 95.66 39.41 C 95.83 41.12 95.08 41.84 93.40 41.59 Z"
     id="path114" />
  <path
     fill="#ffffff"
     d=" M 95.66 39.41 C 147.41 40.82 199.22 39.58 250.99 40.00 C 251.01 71.00 251.01 102.00 251.00 132.99 C 198.66 133.01 146.33 133.01 94.00 132.99 C 93.78 102.52 94.59 72.04 93.40 41.59 C 95.08 41.84 95.83 41.12 95.66 39.41 Z"
     id="path116" />
  <path
     fill="#ffffff"
     d=" M 252.00 40.01 C 273.00 39.99 294.00 39.99 315.00 40.00 L 315.00 133.00 C 294.00 133.01 273.00 133.01 252.01 133.00 C 251.99 102.00 251.99 71.00 252.00 40.01 Z"
     id="path118" />
  <path
     fill="#54696a"
     d=" M 13.82 121.27 C 15.35 120.72 16.88 120.17 18.42 119.65 C 18.46 122.74 18.26 125.82 18.16 128.91 L 14.12 129.06 C 15.62 126.78 17.07 124.46 18.45 122.10 C 16.90 121.81 15.36 121.54 13.82 121.27 Z"
     id="path120" />
  <path
     fill="#e2eaf5"
     d=" M 4.00 134.00 C 12.33 134.00 20.67 134.01 29.00 134.00 C 28.99 140.33 29.00 146.66 29.01 152.99 C 20.67 153.00 12.34 152.99 4.00 153.00 C 4.00 146.66 4.00 140.33 4.00 134.00 Z"
     id="path122" />
  <path
     fill="#ffffff"
     d=" M 30.00 134.00 C 51.00 133.99 72.00 133.99 93.00 134.00 C 92.99 140.33 92.99 146.66 93.00 152.99 C 72.00 153.01 51.00 153.01 30.00 153.00 C 30.00 146.67 30.00 140.33 30.00 134.00 Z"
     id="path124" />
  <path
     fill="#ffffff"
     d=" M 94.00 134.00 C 146.33 134.00 198.67 133.99 251.00 134.01 C 250.99 140.33 251.00 146.67 251.00 153.00 C 198.66 153.00 146.33 153.01 94.00 152.99 C 94.00 146.66 94.00 140.33 94.00 134.00 Z"
     id="path126" />
  <path
     fill="#ffffff"
     d=" M 252.00 134.01 C 273.00 133.99 294.00 133.99 315.00 134.00 L 315.00 153.00 C 294.00 153.01 273.00 153.01 252.00 153.00 C 252.01 146.67 252.00 140.33 252.00 134.01 Z"
     id="path128" />
  <path
     fill="#516767"
     d=" M 14.12 141.01 C 15.38 140.58 16.64 140.16 17.90 139.75 C 18.39 141.01 18.87 142.28 19.35 143.55 C 17.64 142.65 15.89 141.79 14.12 141.01 Z"
     id="path130" />
  <path
     fill="#516767"
     d=" M 14.04 148.27 C 15.82 147.42 17.59 146.53 19.29 145.53 C 19.12 146.67 18.96 147.81 18.80 148.96 C 17.61 148.79 15.23 148.44 14.04 148.27 Z"
     id="path132" />
  <path
     fill="#e3ebf7"
     d=" M 4.00 154.00 C 12.33 154.00 20.67 154.01 29.00 154.01 C 28.99 160.33 29.00 166.66 29.01 172.99 C 20.67 173.00 12.34 172.99 4.00 173.00 C 4.00 166.67 4.00 160.33 4.00 154.00 Z"
     id="path134" />
  <path
     fill="#ffffff"
     d=" M 30.00 154.00 C 51.00 153.99 72.00 153.99 93.00 154.00 C 92.99 160.33 92.99 166.66 93.00 172.99 C 72.00 173.01 51.00 173.01 30.00 173.00 C 30.00 166.66 30.00 160.33 30.00 154.00 Z"
     id="path136" />
  <path
     fill="#ffffff"
     d=" M 94.00 154.00 C 146.33 154.00 198.67 153.99 251.00 154.01 C 250.99 160.33 251.00 166.67 251.00 173.00 C 198.66 173.00 146.33 173.01 94.00 172.99 C 94.00 166.66 94.00 160.33 94.00 154.00 Z"
     id="path138" />
  <path
     fill="#ffffff"
     d=" M 252.00 154.01 C 273.00 153.99 294.00 153.99 315.00 154.00 L 315.00 173.00 C 294.00 173.01 273.00 173.01 252.00 173.00 C 252.01 166.67 252.00 160.33 252.00 154.01 Z"
     id="path140" />
  <path
     fill="#38504e"
     d=" M 17.90 161.38 C 17.93 160.92 17.99 159.99 18.01 159.53 C 18.52 162.53 19.11 165.60 19.49 168.65 C 17.56 167.84 15.62 167.06 13.68 166.31 C 14.88 164.57 16.10 162.84 17.41 161.18 C 15.46 161.87 15.10 166.94 17.70 165.33 L 17.90 161.38 Z"
     id="path142" />
  <path
     fill="#e4ecf7"
     d=" M 17.41 161.18 L 17.90 161.38 L 17.70 165.33 C 15.10 166.94 15.46 161.87 17.41 161.18 Z"
     id="path144" />
  <path
     sodipodi:type="arc"
     style="color:#000000;fill:none;stroke:#ff0000;stroke-width:7.90000009999999975;stroke-linecap:butt;stroke-linejoin:miter;stroke-miterlimit:4;stroke-opacity:1;stroke-dasharray:none;stroke-dashoffset:0;marker:none;visibility:visible;display:inline;overflow:visible;enable-background:accumulate"
     id="path3127"
     sodipodi:cx="18.943357"
     sodipodi:cy="165.5159"
     sodipodi:rx="37.446171"
     sodipodi:ry="12.335209"
     d="m 56.389528,165.5159 a 37.446171,12.335209 0 1 1 -74.892341,0 37.446171,12.335209 0 1 1 74.892341,0 z"
     transform="scale(0.8,0.8)" />
  <path
     sodipodi:type="arc"
     style="color:#000000;fill:none;stroke:#ff0000;stroke-width:7.9000001;stroke-linecap:butt;stroke-linejoin:miter;stroke-miterlimit:4;stroke-opacity:1;stroke-dasharray:none;stroke-dashoffset:0;marker:none;visibility:visible;display:inline;overflow:visible;enable-background:accumulate"
     id="path3131"
     sodipodi:cx="314.54785"
     sodipodi:cy="15.731219"
     sodipodi:rx="11.454123"
     sodipodi:ry="23.789331"
     d="m 326.00197,15.731219 a 11.454123,23.789331 0 1 1 -22.90824,0 11.454123,23.789331 0 1 1 22.90824,0 z"
     transform="scale(0.8,0.8)" />
  <text
     xml:space="preserve"
     style="font-size:32px;font-style:normal;font-weight:normal;line-height:125%;letter-spacing:0px;word-spacing:0px;fill:#000000;fill-opacity:1;stroke:none;font-family:Sans"
     x="66.25769"
     y="64.745293"
     id="text3133"
     sodipodi:linespacing="125%"><tspan
       sodipodi:role="line"
       id="tspan3135"
       x="66.25769"
       y="64.745293"
       style="font-size:16px">Llevando el cursor hacia</tspan><tspan
       sodipodi:role="line"
       x="66.25769"
       y="84.745293"
       style="font-size:16px"
       id="tspan3137">los bordes de las cabeceras</tspan><tspan
       sodipodi:role="line"
       x="66.25769"
       y="104.7453"
       style="font-size:16px"
       id="tspan3139">de las filas y de las columnas</tspan><tspan
       sodipodi:role="line"
       x="66.25769"
       y="124.7453"
       style="font-size:16px"
       id="tspan3141">podré modificar su ancho</tspan><tspan
       sodipodi:role="line"
       x="66.25769"
       y="144.7453"
       style="font-size:16px"
       id="tspan3143">y su alto.</tspan></text>
</svg>
